<?xml version="1.0" encoding="us-ascii" standalone="no"?><svg xmlns="http://www.w3.org/2000/svg" xmlns:xlink="http://www.w3.org/1999/xlink" contentStyleType="text/css" height="337px" preserveAspectRatio="none" style="width:2714px;height:337px;background:#FFFFFF;" version="1.1" viewBox="0 0 2714 337" width="2714px" zoomAndPan="magnify"><defs/><g><!--entity sofdcar.nodes.Root--><g id="elem_sofdcar.nodes.Root"><rect fill="#F1F1F1" height="36.2969" rx="2.5" ry="2.5" style="stroke:#181818;stroke-width:0.5;" width="161" x="1097" y="103"/><text fill="#000000" font-family="sans-serif" font-size="14" lengthAdjust="spacing" textLength="141" x="1107" y="125.9951">sofdcar.nodes.Root</text></g><!--entity sofdcar.nodes.Vehicle--><g id="elem_sofdcar.nodes.Vehicle"><rect fill="#F1F1F1" height="36.2969" rx="2.5" ry="2.5" style="stroke:#181818;stroke-width:0.5;" width="179" x="7" y="199"/><text fill="#000000" font-family="sans-serif" font-size="14" lengthAdjust="spacing" textLength="159" x="17" y="221.9951">sofdcar.nodes.Vehicle</text></g><!--entity sofdcar.nodes.Cloud--><g id="elem_sofdcar.nodes.Cloud"><rect fill="#F1F1F1" height="36.2969" rx="2.5" ry="2.5" style="stroke:#181818;stroke-width:0.5;" width="166" x="221.5" y="199"/><text fill="#000000" font-family="sans-serif" font-size="14" lengthAdjust="spacing" textLength="146" x="231.5" y="221.9951">sofdcar.nodes.Cloud</text></g><!--entity sofdcar.nodes.ECU.Hardware--><g id="elem_sofdcar.nodes.ECU.Hardware"><rect fill="#F1F1F1" height="36.2969" rx="2.5" ry="2.5" style="stroke:#181818;stroke-width:0.5;" width="226" x="422.5" y="199"/><text fill="#000000" font-family="sans-serif" font-size="14" lengthAdjust="spacing" textLength="206" x="432.5" y="221.9951">sofdcar.nodes.ECU.Hardware</text></g><!--entity sofdcar.nodes.ECU.Software--><g id="elem_sofdcar.nodes.ECU.Software"><rect fill="#F1F1F1" height="36.2969" rx="2.5" ry="2.5" style="stroke:#181818;stroke-width:0.5;" width="224" x="683.5" y="199"/><text fill="#000000" font-family="sans-serif" font-size="14" lengthAdjust="spacing" textLength="204" x="693.5" y="221.9951">sofdcar.nodes.ECU.Software</text></g><!--entity sofdcar.nodes.ECU.Runtime--><g id="elem_sofdcar.nodes.ECU.Runtime"><rect fill="#F1F1F1" height="36.2969" rx="2.5" ry="2.5" style="stroke:#181818;stroke-width:0.5;" width="220" x="84.5" y="295"/><text fill="#000000" font-family="sans-serif" font-size="14" lengthAdjust="spacing" textLength="200" x="94.5" y="317.9951">sofdcar.nodes.ECU.Runtime</text></g><!--entity sofdcar.nodes.HPC.Software--><g id="elem_sofdcar.nodes.HPC.Software"><rect fill="#F1F1F1" height="36.2969" rx="2.5" ry="2.5" style="stroke:#181818;stroke-width:0.5;" width="225" x="1300" y="103"/><text fill="#000000" font-family="sans-serif" font-size="14" lengthAdjust="spacing" textLength="205" x="1310" y="125.9951">sofdcar.nodes.HPC.Software</text></g><!--entity sofdcar.nodes.HPC.Hardware--><g id="elem_sofdcar.nodes.HPC.Hardware"><rect fill="#F1F1F1" height="36.2969" rx="2.5" ry="2.5" style="stroke:#181818;stroke-width:0.5;" width="227" x="943" y="199"/><text fill="#000000" font-family="sans-serif" font-size="14" lengthAdjust="spacing" textLength="207" x="953" y="221.9951">sofdcar.nodes.HPC.Hardware</text></g><!--entity sofdcar.nodes.Actuator--><g id="elem_sofdcar.nodes.Actuator"><rect fill="#F1F1F1" height="36.2969" rx="2.5" ry="2.5" style="stroke:#181818;stroke-width:0.5;" width="189" x="1205" y="199"/><text fill="#000000" font-family="sans-serif" font-size="14" lengthAdjust="spacing" textLength="169" x="1215" y="221.9951">sofdcar.nodes.Actuator</text></g><!--entity sofdcar.nodes.Accelerator--><g id="elem_sofdcar.nodes.Accelerator"><rect fill="#F1F1F1" height="36.2969" rx="2.5" ry="2.5" style="stroke:#181818;stroke-width:0.5;" width="210" x="339.5" y="295"/><text fill="#000000" font-family="sans-serif" font-size="14" lengthAdjust="spacing" textLength="190" x="349.5" y="317.9951">sofdcar.nodes.Accelerator</text></g><!--entity sofdcar.nodes.Brake--><g id="elem_sofdcar.nodes.Brake"><rect fill="#F1F1F1" height="36.2969" rx="2.5" ry="2.5" style="stroke:#181818;stroke-width:0.5;" width="168" x="584.5" y="295"/><text fill="#000000" font-family="sans-serif" font-size="14" lengthAdjust="spacing" textLength="148" x="594.5" y="317.9951">sofdcar.nodes.Brake</text></g><!--entity sofdcar.nodes.Steering--><g id="elem_sofdcar.nodes.Steering"><rect fill="#F1F1F1" height="36.2969" rx="2.5" ry="2.5" style="stroke:#181818;stroke-width:0.5;" width="188" x="787.5" y="295"/><text fill="#000000" font-family="sans-serif" font-size="14" lengthAdjust="spacing" textLength="168" x="797.5" y="317.9951">sofdcar.nodes.Steering</text></g><!--entity sofdcar.nodes.Light--><g id="elem_sofdcar.nodes.Light"><rect fill="#F1F1F1" height="36.2969" rx="2.5" ry="2.5" style="stroke:#181818;stroke-width:0.5;" width="163" x="1011" y="295"/><text fill="#000000" font-family="sans-serif" font-size="14" lengthAdjust="spacing" textLength="143" x="1021" y="317.9951">sofdcar.nodes.Light</text></g><!--entity sofdcar.nodes.Cooling--><g id="elem_sofdcar.nodes.Cooling"><rect fill="#F1F1F1" height="36.2969" rx="2.5" ry="2.5" style="stroke:#181818;stroke-width:0.5;" width="180" x="1209.5" y="295"/><text fill="#000000" font-family="sans-serif" font-size="14" lengthAdjust="spacing" textLength="160" x="1219.5" y="317.9951">sofdcar.nodes.Cooling</text></g><!--entity sofdcar.nodes.Airbag--><g id="elem_sofdcar.nodes.Airbag"><rect fill="#F1F1F1" height="36.2969" rx="2.5" ry="2.5" style="stroke:#181818;stroke-width:0.5;" width="173" x="1425" y="295"/><text fill="#000000" font-family="sans-serif" font-size="14" lengthAdjust="spacing" textLength="153" x="1435" y="317.9951">sofdcar.nodes.Airbag</text></g><!--entity sofdcar.nodes.Sensor--><g id="elem_sofdcar.nodes.Sensor"><rect fill="#F1F1F1" height="36.2969" rx="2.5" ry="2.5" style="stroke:#181818;stroke-width:0.5;" width="175" x="1634" y="199"/><text fill="#000000" font-family="sans-serif" font-size="14" lengthAdjust="spacing" textLength="155" x="1644" y="221.9951">sofdcar.nodes.Sensor</text></g><!--entity sofdcar.nodes.RADAR--><g id="elem_sofdcar.nodes.RADAR"><rect fill="#F1F1F1" height="36.2969" rx="2.5" ry="2.5" style="stroke:#181818;stroke-width:0.5;" width="177" x="1633" y="295"/><text fill="#000000" font-family="sans-serif" font-size="14" lengthAdjust="spacing" textLength="157" x="1643" y="317.9951">sofdcar.nodes.RADAR</text></g><!--entity sofdcar.nodes.Camera--><g id="elem_sofdcar.nodes.Camera"><rect fill="#F1F1F1" height="36.2969" rx="2.5" ry="2.5" style="stroke:#181818;stroke-width:0.5;" width="181" x="1845" y="295"/><text fill="#000000" font-family="sans-serif" font-size="14" lengthAdjust="spacing" textLength="161" x="1855" y="317.9951">sofdcar.nodes.Camera</text></g><!--entity sofdcar.nodes.LIDAR--><g id="elem_sofdcar.nodes.LIDAR"><rect fill="#F1F1F1" height="36.2969" rx="2.5" ry="2.5" style="stroke:#181818;stroke-width:0.5;" width="169" x="2061" y="295"/><text fill="#000000" font-family="sans-serif" font-size="14" lengthAdjust="spacing" textLength="149" x="2071" y="317.9951">sofdcar.nodes.LIDAR</text></g><!--entity sofdcar.nodes.Ultrasonic--><g id="elem_sofdcar.nodes.Ultrasonic"><rect fill="#F1F1F1" height="36.2969" rx="2.5" ry="2.5" style="stroke:#181818;stroke-width:0.5;" width="197" x="2265" y="295"/><text fill="#000000" font-family="sans-serif" font-size="14" lengthAdjust="spacing" textLength="177" x="2275" y="317.9951">sofdcar.nodes.Ultrasonic</text></g><!--entity sofdcar.nodes.Microphone--><g id="elem_sofdcar.nodes.Microphone"><rect fill="#F1F1F1" height="36.2969" rx="2.5" ry="2.5" style="stroke:#181818;stroke-width:0.5;" width="211" x="2497" y="295"/><text fill="#000000" font-family="sans-serif" font-size="14" lengthAdjust="spacing" textLength="191" x="2507" y="317.9951">sofdcar.nodes.Microphone</text></g><!--entity sofdcar.nodes.Channel--><g id="elem_sofdcar.nodes.Channel"><rect fill="#F1F1F1" height="36.2969" rx="2.5" ry="2.5" style="stroke:#181818;stroke-width:0.5;" width="184" x="1844.5" y="199"/><text fill="#000000" font-family="sans-serif" font-size="14" lengthAdjust="spacing" textLength="164" x="1854.5" y="221.9951">sofdcar.nodes.Channel</text></g><!--entity sofdcar.nodes.Battery--><g id="elem_sofdcar.nodes.Battery"><rect fill="#F1F1F1" height="36.2969" rx="2.5" ry="2.5" style="stroke:#181818;stroke-width:0.5;" width="181" x="2064" y="199"/><text fill="#000000" font-family="sans-serif" font-size="14" lengthAdjust="spacing" textLength="161" x="2074" y="221.9951">sofdcar.nodes.Battery</text></g><!--entity sofdcar.nodes.Feature--><g id="elem_sofdcar.nodes.Feature"><rect fill="#F1F1F1" height="36.2969" rx="2.5" ry="2.5" style="stroke:#181818;stroke-width:0.5;" width="181" x="2280" y="199"/><text fill="#000000" font-family="sans-serif" font-size="14" lengthAdjust="spacing" textLength="161" x="2290" y="221.9951">sofdcar.nodes.Feature</text></g><!--entity tosca.nodes.Root--><g id="elem_tosca.nodes.Root"><ellipse cx="1177.5" cy="14" fill="#F1F1F1" rx="8" ry="8" style="stroke:#181818;stroke-width:0.5;"/><text fill="#000000" font-family="sans-serif" font-size="14" lengthAdjust="spacing" textLength="127" x="1114" y="43.9951">tosca.nodes.Root</text></g><!--entity tosca.nodes.SoftwareComponent--><g id="elem_tosca.nodes.SoftwareComponent"><ellipse cx="1412.5" cy="14" fill="#F1F1F1" rx="8" ry="8" style="stroke:#181818;stroke-width:0.5;"/><text fill="#000000" font-family="sans-serif" font-size="14" lengthAdjust="spacing" textLength="243" x="1291" y="43.9951">tosca.nodes.SoftwareComponent</text></g><!--reverse link tosca.nodes.Root to sofdcar.nodes.Root--><g id="link_tosca.nodes.Root_sofdcar.nodes.Root"><path d="M1177.5,43.423 C1177.5,62.445 1177.5,86.849 1177.5,102.933 " fill="none" id="tosca.nodes.Root-backto-sofdcar.nodes.Root" style="stroke:#181818;stroke-width:1.0;"/><polygon fill="none" points="1170.5,43.239,1177.5,23.239,1184.5,43.239,1170.5,43.239" style="stroke:#181818;stroke-width:1.0;"/></g><!--reverse link sofdcar.nodes.Root to sofdcar.nodes.Vehicle--><g id="link_sofdcar.nodes.Root_sofdcar.nodes.Vehicle"><path d="M1076.72,127.346 C899.643,137.325 521.273,161.255 203.5,199 C197.803,199.677 191.945,200.433 186.045,201.242 " fill="none" id="sofdcar.nodes.Root-backto-sofdcar.nodes.Vehicle" style="stroke:#181818;stroke-width:1.0;"/><polygon fill="none" points="1076.44,120.351,1096.8,126.226,1077.22,134.33,1076.44,120.351" style="stroke:#181818;stroke-width:1.0;"/></g><!--reverse link sofdcar.nodes.Root to sofdcar.nodes.Cloud--><g id="link_sofdcar.nodes.Root_sofdcar.nodes.Cloud"><path d="M1076.51,129.819 C928.651,141.774 644.725,166.656 404.5,199 C399.002,199.74 393.344,200.556 387.647,201.417 " fill="none" id="sofdcar.nodes.Root-backto-sofdcar.nodes.Cloud" style="stroke:#181818;stroke-width:1.0;"/><polygon fill="none" points="1076.39,122.806,1096.88,128.184,1077.51,136.761,1076.39,122.806" style="stroke:#181818;stroke-width:1.0;"/></g><!--reverse link sofdcar.nodes.Root to sofdcar.nodes.ECU.Hardware--><g id="link_sofdcar.nodes.Root_sofdcar.nodes.ECU.Hardware"><path d="M1076.75,136.752 C960.554,153.765 770.017,181.663 648.776,199.414 " fill="none" id="sofdcar.nodes.Root-backto-sofdcar.nodes.ECU.Hardware" style="stroke:#181818;stroke-width:1.0;"/><polygon fill="none" points="1076.04,129.781,1096.84,133.81,1078.07,143.634,1076.04,129.781" style="stroke:#181818;stroke-width:1.0;"/></g><!--reverse link sofdcar.nodes.Root to sofdcar.nodes.ECU.Software--><g id="link_sofdcar.nodes.Root_sofdcar.nodes.ECU.Software"><path d="M1088.89,143.804 C1020.65,160.596 927.664,183.478 864.807,198.945 " fill="none" id="sofdcar.nodes.Root-backto-sofdcar.nodes.ECU.Software" style="stroke:#181818;stroke-width:1.0;"/><polygon fill="none" points="1087.23,137.004,1108.32,139.023,1090.57,150.599,1087.23,137.004" style="stroke:#181818;stroke-width:1.0;"/></g><!--reverse link sofdcar.nodes.ECU.Software to sofdcar.nodes.ECU.Runtime--><g id="link_sofdcar.nodes.ECU.Software_sofdcar.nodes.ECU.Runtime"><path d="M666.657,238.1519 C558.415,255.0815 405.465,279.0038 303.287,294.9851 " fill="none" id="sofdcar.nodes.ECU.Software-backto-sofdcar.nodes.ECU.Runtime" style="stroke:#181818;stroke-width:1.0;"/><polygon fill="none" points="665.822,231.1974,686.663,235.0227,667.985,245.0292,665.822,231.1974" style="stroke:#181818;stroke-width:1.0;"/></g><!--reverse link tosca.nodes.SoftwareComponent to sofdcar.nodes.HPC.Software--><g id="link_tosca.nodes.SoftwareComponent_sofdcar.nodes.HPC.Software"><path d="M1412.5,43.423 C1412.5,62.445 1412.5,86.849 1412.5,102.933 " fill="none" id="tosca.nodes.SoftwareComponent-backto-sofdcar.nodes.HPC.Software" style="stroke:#181818;stroke-width:1.0;"/><polygon fill="none" points="1405.5,43.239,1412.5,23.239,1419.5,43.239,1405.5,43.239" style="stroke:#181818;stroke-width:1.0;"/></g><!--reverse link sofdcar.nodes.Root to sofdcar.nodes.HPC.Hardware--><g id="link_sofdcar.nodes.Root_sofdcar.nodes.HPC.Hardware"><path d="M1139.58,151.46 C1119.55,167.02 1095.67,185.574 1078.66,198.786 " fill="none" id="sofdcar.nodes.Root-backto-sofdcar.nodes.HPC.Hardware" style="stroke:#181818;stroke-width:1.0;"/><polygon fill="none" points="1135.5,145.765,1155.59,139.023,1144.09,156.82,1135.5,145.765" style="stroke:#181818;stroke-width:1.0;"/></g><!--reverse link sofdcar.nodes.Root to sofdcar.nodes.Actuator--><g id="link_sofdcar.nodes.Root_sofdcar.nodes.Actuator"><path d="M1215.74,151.46 C1235.93,167.02 1260.01,185.574 1277.16,198.786 " fill="none" id="sofdcar.nodes.Root-backto-sofdcar.nodes.Actuator" style="stroke:#181818;stroke-width:1.0;"/><polygon fill="none" points="1211.16,156.774,1199.59,139.023,1219.71,145.684,1211.16,156.774" style="stroke:#181818;stroke-width:1.0;"/></g><!--reverse link sofdcar.nodes.Actuator to sofdcar.nodes.Accelerator--><g id="link_sofdcar.nodes.Actuator_sofdcar.nodes.Accelerator"><path d="M1184.63,235.2284 C908.911,268.8625 835.423,263.2864 566.5,295 C560.978,295.6512 555.319,296.3455 549.609,297.0673 " fill="none" id="sofdcar.nodes.Actuator-backto-sofdcar.nodes.Accelerator" style="stroke:#181818;stroke-width:1.0;"/><polygon fill="none" points="1184.13,228.237,1204.84,232.738,1185.84,242.132,1184.13,228.237" style="stroke:#181818;stroke-width:1.0;"/></g><!--reverse link sofdcar.nodes.Actuator to sofdcar.nodes.Brake--><g id="link_sofdcar.nodes.Actuator_sofdcar.nodes.Brake"><path d="M1184.8,235.3729 C998.514,262.6921 948.694,267.0627 769.5,295 C763.966,295.8628 758.264,296.7707 752.52,297.6995 " fill="none" id="sofdcar.nodes.Actuator-backto-sofdcar.nodes.Brake" style="stroke:#181818;stroke-width:1.0;"/><polygon fill="none" points="1183.99,228.417,1204.8,232.4297,1186.03,242.2679,1183.99,228.417" style="stroke:#181818;stroke-width:1.0;"/></g><!--reverse link sofdcar.nodes.Actuator to sofdcar.nodes.Steering--><g id="link_sofdcar.nodes.Actuator_sofdcar.nodes.Steering"><path d="M1203.98,239.4807 C1129.18,256.3006 1026.56,279.3784 957.339,294.9454 " fill="none" id="sofdcar.nodes.Actuator-backto-sofdcar.nodes.Steering" style="stroke:#181818;stroke-width:1.0;"/><polygon fill="none" points="1202.75,232.5813,1223.8,235.0227,1205.83,246.2402,1202.75,232.5813" style="stroke:#181818;stroke-width:1.0;"/></g><!--reverse link sofdcar.nodes.Actuator to sofdcar.nodes.Light--><g id="link_sofdcar.nodes.Actuator_sofdcar.nodes.Light"><path d="M1243.69,243.3451 C1207.66,259.7032 1161.78,280.5401 1130.06,294.9454 " fill="none" id="sofdcar.nodes.Actuator-backto-sofdcar.nodes.Light" style="stroke:#181818;stroke-width:1.0;"/><polygon fill="none" points="1240.91,236.9186,1262.01,235.0227,1246.7,249.6658,1240.91,236.9186" style="stroke:#181818;stroke-width:1.0;"/></g><!--reverse link sofdcar.nodes.Actuator to sofdcar.nodes.Cooling--><g id="link_sofdcar.nodes.Actuator_sofdcar.nodes.Cooling"><path d="M1299.5,255.621 C1299.5,269.2125 1299.5,283.8949 1299.5,294.8683 " fill="none" id="sofdcar.nodes.Actuator-backto-sofdcar.nodes.Cooling" style="stroke:#181818;stroke-width:1.0;"/><polygon fill="none" points="1292.5,255.2411,1299.5,235.241,1306.5,255.241,1292.5,255.2411" style="stroke:#181818;stroke-width:1.0;"/></g><!--reverse link sofdcar.nodes.Actuator to sofdcar.nodes.Airbag--><g id="link_sofdcar.nodes.Actuator_sofdcar.nodes.Airbag"><path d="M1356.41,243.2321 C1393.34,259.6072 1440.47,280.5069 1473.04,294.9454 " fill="none" id="sofdcar.nodes.Actuator-backto-sofdcar.nodes.Airbag" style="stroke:#181818;stroke-width:1.0;"/><polygon fill="none" points="1353.34,249.5287,1337.89,235.0227,1359.01,236.7303,1353.34,249.5287" style="stroke:#181818;stroke-width:1.0;"/></g><!--reverse link sofdcar.nodes.Root to sofdcar.nodes.Sensor--><g id="link_sofdcar.nodes.Root_sofdcar.nodes.Sensor"><path d="M1278.03,139.371 C1380.11,157.009 1536.58,184.047 1633.78,200.843 " fill="none" id="sofdcar.nodes.Root-backto-sofdcar.nodes.Sensor" style="stroke:#181818;stroke-width:1.0;"/><polygon fill="none" points="1276.58,146.224,1258.06,135.921,1278.96,132.428,1276.58,146.224" style="stroke:#181818;stroke-width:1.0;"/></g><!--reverse link sofdcar.nodes.Sensor to sofdcar.nodes.RADAR--><g id="link_sofdcar.nodes.Sensor_sofdcar.nodes.RADAR"><path d="M1721.5,255.621 C1721.5,269.2125 1721.5,283.8949 1721.5,294.8683 " fill="none" id="sofdcar.nodes.Sensor-backto-sofdcar.nodes.RADAR" style="stroke:#181818;stroke-width:1.0;"/><polygon fill="none" points="1714.5,255.2411,1721.5,235.241,1728.5,255.241,1714.5,255.2411" style="stroke:#181818;stroke-width:1.0;"/></g><!--reverse link sofdcar.nodes.Sensor to sofdcar.nodes.Camera--><g id="link_sofdcar.nodes.Sensor_sofdcar.nodes.Camera"><path d="M1778.69,243.1193 C1816,259.511 1863.73,280.4737 1896.67,294.9454 " fill="none" id="sofdcar.nodes.Sensor-backto-sofdcar.nodes.Camera" style="stroke:#181818;stroke-width:1.0;"/><polygon fill="none" points="1775.75,249.475,1760.25,235.0227,1781.38,236.6571,1775.75,249.475" style="stroke:#181818;stroke-width:1.0;"/></g><!--reverse link sofdcar.nodes.Sensor to sofdcar.nodes.LIDAR--><g id="link_sofdcar.nodes.Sensor_sofdcar.nodes.LIDAR"><path d="M1817.91,239.3731 C1893.82,256.2022 1998.21,279.3452 2068.57,294.9454 " fill="none" id="sofdcar.nodes.Sensor-backto-sofdcar.nodes.LIDAR" style="stroke:#181818;stroke-width:1.0;"/><polygon fill="none" points="1816.29,246.1857,1798.28,235.0227,1819.32,232.5176,1816.29,246.1857" style="stroke:#181818;stroke-width:1.0;"/></g><!--reverse link sofdcar.nodes.Sensor to sofdcar.nodes.Ultrasonic--><g id="link_sofdcar.nodes.Sensor_sofdcar.nodes.Ultrasonic"><path d="M1828.97,235.3302 C2016.63,263.7634 2066.65,268.8614 2247.5,295 C2253.14,295.8152 2258.93,296.6555 2264.78,297.5056 " fill="none" id="sofdcar.nodes.Sensor-backto-sofdcar.nodes.Ultrasonic" style="stroke:#181818;stroke-width:1.0;"/><polygon fill="none" points="1827.86,242.2418,1809.14,232.3164,1829.96,228.401,1827.86,242.2418" style="stroke:#181818;stroke-width:1.0;"/></g><!--reverse link sofdcar.nodes.Sensor to sofdcar.nodes.Microphone--><g id="link_sofdcar.nodes.Sensor_sofdcar.nodes.Microphone"><path d="M1828.97,235.1454 C2119,271.2291 2196.32,262.4387 2479.5,295 C2485.18,295.6526 2490.99,296.3522 2496.86,297.0822 " fill="none" id="sofdcar.nodes.Sensor-backto-sofdcar.nodes.Microphone" style="stroke:#181818;stroke-width:1.0;"/><polygon fill="none" points="1828.06,242.0868,1809.09,232.6445,1829.81,228.196,1828.06,242.0868" style="stroke:#181818;stroke-width:1.0;"/></g><!--reverse link sofdcar.nodes.Root to sofdcar.nodes.Channel--><g id="link_sofdcar.nodes.Root_sofdcar.nodes.Channel"><path d="M1278.42,138.438 C1279.79,138.629 1281.15,138.816 1282.5,139 C1523.52,171.782 1585.36,167.084 1826.5,199 C1832.34,199.773 1838.35,200.604 1844.41,201.467 " fill="none" id="sofdcar.nodes.Root-backto-sofdcar.nodes.Channel" style="stroke:#181818;stroke-width:1.0;"/><polygon fill="none" points="1277.05,145.312,1258.27,135.5,1279.07,131.459,1277.05,145.312" style="stroke:#181818;stroke-width:1.0;"/></g><!--reverse link sofdcar.nodes.Root to sofdcar.nodes.Battery--><g id="link_sofdcar.nodes.Root_sofdcar.nodes.Battery"><path d="M1278.41,138.498 C1279.78,138.67 1281.14,138.837 1282.5,139 C1620.23,179.55 1707.65,159.429 2045.5,199 C2051.49,199.702 2057.66,200.488 2063.87,201.328 " fill="none" id="sofdcar.nodes.Root-backto-sofdcar.nodes.Battery" style="stroke:#181818;stroke-width:1.0;"/><polygon fill="none" points="1277.11,145.386,1258.23,135.756,1278.99,131.513,1277.11,145.386" style="stroke:#181818;stroke-width:1.0;"/></g><!--reverse link sofdcar.nodes.Root to sofdcar.nodes.Feature--><g id="link_sofdcar.nodes.Root_sofdcar.nodes.Feature"><path d="M1278.4,138.531 C1279.78,138.693 1281.14,138.849 1282.5,139 C1716.19,187.264 1828.7,151.687 2262.5,199 C2268.16,199.617 2273.98,200.324 2279.84,201.089 " fill="none" id="sofdcar.nodes.Root-backto-sofdcar.nodes.Feature" style="stroke:#181818;stroke-width:1.0;"/><polygon fill="none" points="1277.14,145.426,1258.22,135.898,1278.96,131.544,1277.14,145.426" style="stroke:#181818;stroke-width:1.0;"/></g><!--SRC=[bPJBReCm44NtV0NAFlc2RYXjbKgDL87I_THCWXNZYSoWAb8_lcbL0ubWi7S8tsFyu9xsfEqP73IfekPC5YsNV36OEbGCzcWmIPB-ELsrTAWKk8sb2jjDGSGhOVm3QwqCIf7SK5T9WUTylzc2gxx0uLAkf0E7v8hEicx4sFOz3vhkDnUol4nn1qnEpYWqw9PYZmvEuhTAHdJQ7gNCcpxMujtbH6PXZaoxJn0J9TfMtaoHFMM5k0vehaSYRkLrOOgzOGSjMQsar4uhH-VwsW5nEJLOYqQy7s16Tv4YBmZS_VqmoOgfLJ0kLFhmlLxFL6tgxMH-g5umugiO3DnLCueRTKiQdUM72jySe0TpRxFf6UxQ7RpokxO7SwFsputCS6CZHA7U4b7Go1nHdBT953GO9kvCl7M2Jx-tqFJxwRxzUoa2wKqLmNXtHI0tDelWRlmMBeNUTy78uBzWnFlm1m00]--></g></svg>