<?xml version="1.0" encoding="us-ascii" standalone="no"?><svg xmlns="http://www.w3.org/2000/svg" xmlns:xlink="http://www.w3.org/1999/xlink" contentStyleType="text/css" height="241px" preserveAspectRatio="none" style="width:633px;height:241px;background:#FFFFFF;" version="1.1" viewBox="0 0 633 241" width="633px" zoomAndPan="magnify"><defs/><g><!--entity sofdcar.groups.Root--><g id="elem_sofdcar.groups.Root"><rect fill="#F1F1F1" height="36.2969" rx="2.5" ry="2.5" style="stroke:#181818;stroke-width:0.5;" width="167" x="246.5" y="103"/><text fill="#000000" font-family="sans-serif" font-size="14" lengthAdjust="spacing" textLength="147" x="256.5" y="125.9951">sofdcar.groups.Root</text></g><!--entity sofdcar.groups.Location--><g id="elem_sofdcar.groups.Location"><rect fill="#F1F1F1" height="36.2969" rx="2.5" ry="2.5" style="stroke:#181818;stroke-width:0.5;" width="194" x="7" y="199"/><text fill="#000000" font-family="sans-serif" font-size="14" lengthAdjust="spacing" textLength="174" x="17" y="221.9951">sofdcar.groups.Location</text></g><!--entity sofdcar.groups.Domain--><g id="elem_sofdcar.groups.Domain"><rect fill="#F1F1F1" height="36.2969" rx="2.5" ry="2.5" style="stroke:#181818;stroke-width:0.5;" width="187" x="236.5" y="199"/><text fill="#000000" font-family="sans-serif" font-size="14" lengthAdjust="spacing" textLength="167" x="246.5" y="221.9951">sofdcar.groups.Domain</text></g><!--entity sofdcar.groups.Zone--><g id="elem_sofdcar.groups.Zone"><rect fill="#F1F1F1" height="36.2969" rx="2.5" ry="2.5" style="stroke:#181818;stroke-width:0.5;" width="169" x="458.5" y="199"/><text fill="#000000" font-family="sans-serif" font-size="14" lengthAdjust="spacing" textLength="149" x="468.5" y="221.9951">sofdcar.groups.Zone</text></g><!--entity tosca.groups.Root--><g id="elem_tosca.groups.Root"><ellipse cx="330" cy="14" fill="#F1F1F1" rx="8" ry="8" style="stroke:#181818;stroke-width:0.5;"/><text fill="#000000" font-family="sans-serif" font-size="14" lengthAdjust="spacing" textLength="133" x="263.5" y="43.9951">tosca.groups.Root</text></g><!--reverse link tosca.groups.Root to sofdcar.groups.Root--><g id="link_tosca.groups.Root_sofdcar.groups.Root"><path d="M330,43.423 C330,62.445 330,86.849 330,102.933 " fill="none" id="tosca.groups.Root-backto-sofdcar.groups.Root" style="stroke:#181818;stroke-width:1.0;"/><polygon fill="none" points="323,43.239,330,23.239,337,43.239,323,43.239" style="stroke:#181818;stroke-width:1.0;"/></g><!--reverse link sofdcar.groups.Root to sofdcar.groups.Location--><g id="link_sofdcar.groups.Root_sofdcar.groups.Location"><path d="M270.419,146.7816 C230.891,163.2223 180.037,184.3741 145.004,198.9454 " fill="none" id="sofdcar.groups.Root-backto-sofdcar.groups.Location" style="stroke:#181818;stroke-width:1.0;"/><polygon fill="none" points="267.918,140.2402,289.073,139.0227,273.295,153.1667,267.918,140.2402" style="stroke:#181818;stroke-width:1.0;"/></g><!--reverse link sofdcar.groups.Root to sofdcar.groups.Domain--><g id="link_sofdcar.groups.Root_sofdcar.groups.Domain"><path d="M330,159.621 C330,173.2125 330,187.8949 330,198.8683 " fill="none" id="sofdcar.groups.Root-backto-sofdcar.groups.Domain" style="stroke:#181818;stroke-width:1.0;"/><polygon fill="none" points="323,159.2411,330,139.241,337,159.241,323,159.2411" style="stroke:#181818;stroke-width:1.0;"/></g><!--reverse link sofdcar.groups.Root to sofdcar.groups.Zone--><g id="link_sofdcar.groups.Root_sofdcar.groups.Zone"><path d="M386.919,147.1193 C424.062,163.511 471.563,184.4737 504.355,198.9454 " fill="none" id="sofdcar.groups.Root-backto-sofdcar.groups.Zone" style="stroke:#181818;stroke-width:1.0;"/><polygon fill="none" points="384.044,153.5018,368.573,139.0227,389.696,140.6936,384.044,153.5018" style="stroke:#181818;stroke-width:1.0;"/></g><!--SRC=[AyxEp2j8B4hCLKZEpot8pqlDAmakgSn9LIXAJIv9p4lFIUNYueAp5PIAyzDIaXEBzDAByaiBYlM2ylDBbF0fyCbFJYp9pC_3gyWbFpSn4x-IAA3JW0gub4hoYvCJKQnNiAdHrSNbCgp2s7KWEPK4NN2taw07x1a0]--></g></svg>