<?xml version="1.0" encoding="us-ascii" standalone="no"?><svg xmlns="http://www.w3.org/2000/svg" xmlns:xlink="http://www.w3.org/1999/xlink" contentStyleType="text/css" height="241px" preserveAspectRatio="none" style="width:1632px;height:241px;background:#FFFFFF;" version="1.1" viewBox="0 0 1632 241" width="1632px" zoomAndPan="magnify"><defs/><g><!--entity sofdcar.relationships.CAN--><g id="elem_sofdcar.relationships.CAN"><rect fill="#F1F1F1" height="36.2969" rx="2.5" ry="2.5" style="stroke:#181818;stroke-width:0.5;" width="206" x="146.5" y="103"/><text fill="#000000" font-family="sans-serif" font-size="14" lengthAdjust="spacing" textLength="186" x="156.5" y="125.9951">sofdcar.relationships.CAN</text></g><!--entity sofdcar.relationships.CAN-FD--><g id="elem_sofdcar.relationships.CAN-FD"><rect fill="#F1F1F1" height="36.2969" rx="2.5" ry="2.5" style="stroke:#181818;stroke-width:0.5;" width="231" x="7" y="199"/><text fill="#000000" font-family="sans-serif" font-size="14" lengthAdjust="spacing" textLength="211" x="17" y="221.9951">sofdcar.relationships.CAN-FD</text></g><!--entity sofdcar.relationships.LIN--><g id="elem_sofdcar.relationships.LIN"><rect fill="#F1F1F1" height="36.2969" rx="2.5" ry="2.5" style="stroke:#181818;stroke-width:0.5;" width="198" x="387.5" y="103"/><text fill="#000000" font-family="sans-serif" font-size="14" lengthAdjust="spacing" textLength="178" x="397.5" y="125.9951">sofdcar.relationships.LIN</text></g><!--entity sofdcar.relationships.MOST--><g id="elem_sofdcar.relationships.MOST"><rect fill="#F1F1F1" height="36.2969" rx="2.5" ry="2.5" style="stroke:#181818;stroke-width:0.5;" width="217" x="621" y="103"/><text fill="#000000" font-family="sans-serif" font-size="14" lengthAdjust="spacing" textLength="197" x="631" y="125.9951">sofdcar.relationships.MOST</text></g><!--entity sofdcar.relationships.GPIO--><g id="elem_sofdcar.relationships.GPIO"><rect fill="#F1F1F1" height="36.2969" rx="2.5" ry="2.5" style="stroke:#181818;stroke-width:0.5;" width="211" x="873" y="103"/><text fill="#000000" font-family="sans-serif" font-size="14" lengthAdjust="spacing" textLength="191" x="883" y="125.9951">sofdcar.relationships.GPIO</text></g><!--entity sofdcar.relationships.FlexRay--><g id="elem_sofdcar.relationships.FlexRay"><rect fill="#F1F1F1" height="36.2969" rx="2.5" ry="2.5" style="stroke:#181818;stroke-width:0.5;" width="231" x="1119" y="103"/><text fill="#000000" font-family="sans-serif" font-size="14" lengthAdjust="spacing" textLength="211" x="1129" y="125.9951">sofdcar.relationships.FlexRay</text></g><!--entity sofdcar.relationships.Ethernet--><g id="elem_sofdcar.relationships.Ethernet"><rect fill="#F1F1F1" height="36.2969" rx="2.5" ry="2.5" style="stroke:#181818;stroke-width:0.5;" width="241" x="1385" y="103"/><text fill="#000000" font-family="sans-serif" font-size="14" lengthAdjust="spacing" textLength="221" x="1395" y="125.9951">sofdcar.relationships.Ethernet</text></g><!--entity sofdcar.relationships.OBD--><g id="elem_sofdcar.relationships.OBD"><rect fill="#F1F1F1" height="36.2969" rx="2.5" ry="2.5" style="stroke:#181818;stroke-width:0.5;" width="208" x="273.5" y="199"/><text fill="#000000" font-family="sans-serif" font-size="14" lengthAdjust="spacing" textLength="188" x="283.5" y="221.9951">sofdcar.relationships.OBD</text></g><!--entity sofdcar.relationships.SOME/IP--><g id="elem_sofdcar.relationships.SOME/IP"><rect fill="#F1F1F1" height="36.2969" rx="2.5" ry="2.5" style="stroke:#181818;stroke-width:0.5;" width="235" x="1388" y="199"/><text fill="#000000" font-family="sans-serif" font-size="14" lengthAdjust="spacing" textLength="215" x="1398" y="221.9951">sofdcar.relationships.SOME/IP</text></g><!--entity sofdcar.relationships.Root--><g id="elem_sofdcar.relationships.Root"><ellipse cx="853.5" cy="14" fill="#F1F1F1" rx="8" ry="8" style="stroke:#181818;stroke-width:0.5;"/><text fill="#000000" font-family="sans-serif" font-size="14" lengthAdjust="spacing" textLength="191" x="758" y="43.9951">sofdcar.relationships.Root</text></g><!--reverse link sofdcar.relationships.Root to sofdcar.relationships.CAN--><g id="link_sofdcar.relationships.Root_sofdcar.relationships.CAN"><path d="M824.687,20.009 C739.829,34.761 487.991,78.54 347.32,102.995 " fill="none" id="sofdcar.relationships.Root-backto-sofdcar.relationships.CAN" style="stroke:#181818;stroke-width:1.0;"/><polygon fill="none" points="823.59,13.095,844.493,16.566,825.988,26.888,823.59,13.095" style="stroke:#181818;stroke-width:1.0;"/></g><!--reverse link sofdcar.relationships.CAN to sofdcar.relationships.CAN-FD--><g id="link_sofdcar.relationships.CAN_sofdcar.relationships.CAN-FD"><path d="M210.33,150.992 C189.18,166.6465 163.787,185.4412 145.757,198.7863 " fill="none" id="sofdcar.relationships.CAN-backto-sofdcar.relationships.CAN-FD" style="stroke:#181818;stroke-width:1.0;"/><polygon fill="none" points="206.261,145.2948,226.501,139.0227,214.59,156.5477,206.261,145.2948" style="stroke:#181818;stroke-width:1.0;"/></g><!--reverse link sofdcar.relationships.Root to sofdcar.relationships.LIN--><g id="link_sofdcar.relationships.Root_sofdcar.relationships.LIN"><path d="M824.898,23.183 C765.21,40.26 626.299,80.003 546.243,102.907 " fill="none" id="sofdcar.relationships.Root-backto-sofdcar.relationships.LIN" style="stroke:#181818;stroke-width:1.0;"/><polygon fill="none" points="823.274,16.367,844.428,17.596,827.125,29.827,823.274,16.367" style="stroke:#181818;stroke-width:1.0;"/></g><!--reverse link sofdcar.relationships.Root to sofdcar.relationships.MOST--><g id="link_sofdcar.relationships.Root_sofdcar.relationships.MOST"><path d="M828.711,35.991 C805.558,55.596 771.416,84.507 749.826,102.788 " fill="none" id="sofdcar.relationships.Root-backto-sofdcar.relationships.MOST" style="stroke:#181818;stroke-width:1.0;"/><polygon fill="none" points="824.393,30.474,844.18,22.892,833.44,41.159,824.393,30.474" style="stroke:#181818;stroke-width:1.0;"/></g><!--reverse link sofdcar.relationships.Root to sofdcar.relationships.GPIO--><g id="link_sofdcar.relationships.Root_sofdcar.relationships.GPIO"><path d="M878.489,35.991 C901.829,55.596 936.246,84.507 958.01,102.788 " fill="none" id="sofdcar.relationships.Root-backto-sofdcar.relationships.GPIO" style="stroke:#181818;stroke-width:1.0;"/><polygon fill="none" points="873.707,41.116,862.895,22.892,882.712,30.396,873.707,41.116" style="stroke:#181818;stroke-width:1.0;"/></g><!--reverse link sofdcar.relationships.Root to sofdcar.relationships.FlexRay--><g id="link_sofdcar.relationships.Root_sofdcar.relationships.FlexRay"><path d="M881.834,22.809 C943.061,39.682 1088.92,79.881 1172.62,102.947 " fill="none" id="sofdcar.relationships.Root-backto-sofdcar.relationships.FlexRay" style="stroke:#181818;stroke-width:1.0;"/><polygon fill="none" points="879.964,29.554,862.542,17.492,883.683,16.057,879.964,29.554" style="stroke:#181818;stroke-width:1.0;"/></g><!--reverse link sofdcar.relationships.Root to sofdcar.relationships.Ethernet--><g id="link_sofdcar.relationships.Root_sofdcar.relationships.Ethernet"><path d="M882.649,19.694 C972.264,34.126 1246.89,78.352 1399.84,102.985 " fill="none" id="sofdcar.relationships.Root-backto-sofdcar.relationships.Ethernet" style="stroke:#181818;stroke-width:1.0;"/><polygon fill="none" points="881.349,26.575,862.717,16.484,883.575,12.753,881.349,26.575" style="stroke:#181818;stroke-width:1.0;"/></g><!--reverse link sofdcar.relationships.CAN to sofdcar.relationships.OBD--><g id="link_sofdcar.relationships.CAN_sofdcar.relationships.OBD"><path d="M288.979,150.992 C310.295,166.6465 335.888,185.4412 354.06,198.7863 " fill="none" id="sofdcar.relationships.CAN-backto-sofdcar.relationships.OBD" style="stroke:#181818;stroke-width:1.0;"/><polygon fill="none" points="284.657,156.503,272.68,139.0227,292.943,145.2189,284.657,156.503" style="stroke:#181818;stroke-width:1.0;"/></g><!--reverse link sofdcar.relationships.Ethernet to sofdcar.relationships.SOME/IP--><g id="link_sofdcar.relationships.Ethernet_sofdcar.relationships.SOME/IP"><path d="M1505.5,159.621 C1505.5,173.2125 1505.5,187.8949 1505.5,198.8683 " fill="none" id="sofdcar.relationships.Ethernet-backto-sofdcar.relationships.SOME/IP" style="stroke:#181818;stroke-width:1.0;"/><polygon fill="none" points="1498.5,159.2411,1505.5,139.241,1512.5,159.241,1498.5,159.2411" style="stroke:#181818;stroke-width:1.0;"/></g><!--SRC=[dP9B2eCm54NdMKLmhjr09_re4MeZsWq4-rh5c4Zo1XMw-1QqdqdraLaWvzuGpdLjetjfPSShq_L6WyOI1mNSGeLItnGmnZvd7ZXplLJIHXQKnCPeLpUzYtQRKq33mcHF8OyfgJ0JvPd27V9KKBX4mRsG0mMDiGQh0Icis98-NOeiNgNv2sL_YC8O3FZw4ORp9cOkbzAZ8E_tHt7UyKceTtuIxPt_3i2xucSOlXh6lIprprQyj_G4]--></g></svg>