<?xml version="1.0" encoding="us-ascii" standalone="no"?><svg xmlns="http://www.w3.org/2000/svg" xmlns:xlink="http://www.w3.org/1999/xlink" contentStyleType="text/css" height="241px" preserveAspectRatio="none" style="width:855px;height:241px;background:#FFFFFF;" version="1.1" viewBox="0 0 855 241" width="855px" zoomAndPan="magnify"><defs/><g><!--entity sofdcar.policies.ASIL--><g id="elem_sofdcar.policies.ASIL"><rect fill="#F1F1F1" height="36.2969" rx="2.5" ry="2.5" style="stroke:#181818;stroke-width:0.5;" width="169" x="342.5" y="103"/><text fill="#000000" font-family="sans-serif" font-size="14" lengthAdjust="spacing" textLength="149" x="352.5" y="125.9951">sofdcar.policies.ASIL</text></g><!--entity sofdcar.policies.ASIL.A--><g id="elem_sofdcar.policies.ASIL.A"><rect fill="#F1F1F1" height="36.2969" rx="2.5" ry="2.5" style="stroke:#181818;stroke-width:0.5;" width="184" x="7" y="199"/><text fill="#000000" font-family="sans-serif" font-size="14" lengthAdjust="spacing" textLength="164" x="17" y="221.9951">sofdcar.policies.ASIL.A</text></g><!--entity sofdcar.policies.ASIL.B--><g id="elem_sofdcar.policies.ASIL.B"><rect fill="#F1F1F1" height="36.2969" rx="2.5" ry="2.5" style="stroke:#181818;stroke-width:0.5;" width="184" x="226" y="199"/><text fill="#000000" font-family="sans-serif" font-size="14" lengthAdjust="spacing" textLength="164" x="236" y="221.9951">sofdcar.policies.ASIL.B</text></g><!--entity sofdcar.policies.ASIL.C--><g id="elem_sofdcar.policies.ASIL.C"><rect fill="#F1F1F1" height="36.2969" rx="2.5" ry="2.5" style="stroke:#181818;stroke-width:0.5;" width="184" x="445" y="199"/><text fill="#000000" font-family="sans-serif" font-size="14" lengthAdjust="spacing" textLength="164" x="455" y="221.9951">sofdcar.policies.ASIL.C</text></g><!--entity sofdcar.policies.ASIL.D--><g id="elem_sofdcar.policies.ASIL.D"><rect fill="#F1F1F1" height="36.2969" rx="2.5" ry="2.5" style="stroke:#181818;stroke-width:0.5;" width="185" x="664.5" y="199"/><text fill="#000000" font-family="sans-serif" font-size="14" lengthAdjust="spacing" textLength="165" x="674.5" y="221.9951">sofdcar.policies.ASIL.D</text></g><!--entity sofdcar.policies.Safety--><g id="elem_sofdcar.policies.Safety"><ellipse cx="427" cy="14" fill="#F1F1F1" rx="8" ry="8" style="stroke:#181818;stroke-width:0.5;"/><text fill="#000000" font-family="sans-serif" font-size="14" lengthAdjust="spacing" textLength="165" x="344.5" y="43.9951">sofdcar.policies.Safety</text></g><!--reverse link sofdcar.policies.Safety to sofdcar.policies.ASIL--><g id="link_sofdcar.policies.Safety_sofdcar.policies.ASIL"><path d="M427,43.423 C427,62.445 427,86.849 427,102.933 " fill="none" id="sofdcar.policies.Safety-backto-sofdcar.policies.ASIL" style="stroke:#181818;stroke-width:1.0;"/><polygon fill="none" points="420,43.239,427,23.239,434,43.239,420,43.239" style="stroke:#181818;stroke-width:1.0;"/></g><!--reverse link sofdcar.policies.ASIL to sofdcar.policies.ASIL.A--><g id="link_sofdcar.policies.ASIL_sofdcar.policies.ASIL.A"><path d="M348.263,144.565 C289.933,161.2813 211.67,183.7103 158.51,198.9454 " fill="none" id="sofdcar.policies.ASIL-backto-sofdcar.policies.ASIL.A" style="stroke:#181818;stroke-width:1.0;"/><polygon fill="none" points="346.447,137.8035,367.602,139.0227,350.304,151.2618,346.447,137.8035" style="stroke:#181818;stroke-width:1.0;"/></g><!--reverse link sofdcar.policies.ASIL to sofdcar.policies.ASIL.B--><g id="link_sofdcar.policies.ASIL_sofdcar.policies.ASIL.B"><path d="M392.02,152.166 C374.149,167.5782 353.05,185.7732 337.961,198.7863 " fill="none" id="sofdcar.policies.ASIL-backto-sofdcar.policies.ASIL.B" style="stroke:#181818;stroke-width:1.0;"/><polygon fill="none" points="387.544,146.7832,407.261,139.0227,396.687,157.3853,387.544,146.7832" style="stroke:#181818;stroke-width:1.0;"/></g><!--reverse link sofdcar.policies.ASIL to sofdcar.policies.ASIL.C--><g id="link_sofdcar.policies.ASIL_sofdcar.policies.ASIL.C"><path d="M462.301,152.166 C480.336,167.5782 501.628,185.7732 516.856,198.7863 " fill="none" id="sofdcar.policies.ASIL-backto-sofdcar.policies.ASIL.C" style="stroke:#181818;stroke-width:1.0;"/><polygon fill="none" points="457.577,157.3374,446.92,139.0227,466.672,146.6941,457.577,157.3374" style="stroke:#181818;stroke-width:1.0;"/></g><!--reverse link sofdcar.policies.ASIL to sofdcar.policies.ASIL.D--><g id="link_sofdcar.policies.ASIL_sofdcar.policies.ASIL.D"><path d="M506.217,144.565 C564.903,161.2813 643.643,183.7103 697.127,198.9454 " fill="none" id="sofdcar.policies.ASIL-backto-sofdcar.policies.ASIL.D" style="stroke:#181818;stroke-width:1.0;"/><polygon fill="none" points="504.078,151.234,486.761,139.0227,507.913,137.7696,504.078,151.234" style="stroke:#181818;stroke-width:1.0;"/></g><!--SRC=[AyxEp2j8B4hCLKZEpot8pqlDAmakgSn9LIXAJIv9p4lFIUNYueAp5PIAyzDIaXEBz0hoSpAJCrEBzHo3FNsK22lHSoH6aHCnYfo9KUG2LCI5AHUSc9PQKgcaO5EZgulRCpWayEa2-uySVKvawdCcKv-B4W00]--></g></svg>