<svg xmlns="http://www.w3.org/2000/svg" xmlns:xlink="http://www.w3.org/1999/xlink" contentStyleType="text/css" height="241px" preserveAspectRatio="none" style="width:1561px;height:241px;background:#FFFFFF;" version="1.1" viewBox="0 0 1561 241" width="1561px" zoomAndPan="magnify"><defs/><g><!--entity sofdcar.relationships.CAN--><g id="elem_sofdcar.relationships.CAN"><rect fill="#F1F1F1" height="36.2969" rx="2.5" ry="2.5" style="stroke:#181818;stroke-width:0.5;" width="196" x="141" y="103"/><text fill="#000000" font-family="sans-serif" font-size="14" lengthAdjust="spacing" textLength="176" x="151" y="125.9951">sofdcar.relationships.CAN</text></g><!--entity sofdcar.relationships.CAN-FD--><g id="elem_sofdcar.relationships.CAN-FD"><rect fill="#F1F1F1" height="36.2969" rx="2.5" ry="2.5" style="stroke:#181818;stroke-width:0.5;" width="220" x="7" y="199"/><text fill="#000000" font-family="sans-serif" font-size="14" lengthAdjust="spacing" textLength="200" x="17" y="221.9951">sofdcar.relationships.CAN-FD</text></g><!--entity sofdcar.relationships.LIN--><g id="elem_sofdcar.relationships.LIN"><rect fill="#F1F1F1" height="36.2969" rx="2.5" ry="2.5" style="stroke:#181818;stroke-width:0.5;" width="187" x="372.5" y="103"/><text fill="#000000" font-family="sans-serif" font-size="14" lengthAdjust="spacing" textLength="167" x="382.5" y="125.9951">sofdcar.relationships.LIN</text></g><!--entity sofdcar.relationships.MOST--><g id="elem_sofdcar.relationships.MOST"><rect fill="#F1F1F1" height="36.2969" rx="2.5" ry="2.5" style="stroke:#181818;stroke-width:0.5;" width="208" x="595" y="103"/><text fill="#000000" font-family="sans-serif" font-size="14" lengthAdjust="spacing" textLength="188" x="605" y="125.9951">sofdcar.relationships.MOST</text></g><!--entity sofdcar.relationships.GPIO--><g id="elem_sofdcar.relationships.GPIO"><rect fill="#F1F1F1" height="36.2969" rx="2.5" ry="2.5" style="stroke:#181818;stroke-width:0.5;" width="201" x="838.5" y="103"/><text fill="#000000" font-family="sans-serif" font-size="14" lengthAdjust="spacing" textLength="181" x="848.5" y="125.9951">sofdcar.relationships.GPIO</text></g><!--entity sofdcar.relationships.FlexRay--><g id="elem_sofdcar.relationships.FlexRay"><rect fill="#F1F1F1" height="36.2969" rx="2.5" ry="2.5" style="stroke:#181818;stroke-width:0.5;" width="219" x="1074.5" y="103"/><text fill="#000000" font-family="sans-serif" font-size="14" lengthAdjust="spacing" textLength="199" x="1084.5" y="125.9951">sofdcar.relationships.FlexRay</text></g><!--entity sofdcar.relationships.Ethernet--><g id="elem_sofdcar.relationships.Ethernet"><rect fill="#F1F1F1" height="36.2969" rx="2.5" ry="2.5" style="stroke:#181818;stroke-width:0.5;" width="227" x="1328.5" y="103"/><text fill="#000000" font-family="sans-serif" font-size="14" lengthAdjust="spacing" textLength="207" x="1338.5" y="125.9951">sofdcar.relationships.Ethernet</text></g><!--entity sofdcar.relationships.OBD--><g id="elem_sofdcar.relationships.OBD"><rect fill="#F1F1F1" height="36.2969" rx="2.5" ry="2.5" style="stroke:#181818;stroke-width:0.5;" width="199" x="262.5" y="199"/><text fill="#000000" font-family="sans-serif" font-size="14" lengthAdjust="spacing" textLength="179" x="272.5" y="221.9951">sofdcar.relationships.OBD</text></g><!--entity sofdcar.relationships.SOME/IP--><g id="elem_sofdcar.relationships.SOME/IP"><rect fill="#F1F1F1" height="36.2969" rx="2.5" ry="2.5" style="stroke:#181818;stroke-width:0.5;" width="225" x="1329.5" y="199"/><text fill="#000000" font-family="sans-serif" font-size="14" lengthAdjust="spacing" textLength="205" x="1339.5" y="221.9951">sofdcar.relationships.SOME/IP</text></g><!--entity sofdcar.relationships.Root--><g id="elem_sofdcar.relationships.Root"><ellipse cx="819" cy="14" fill="#F1F1F1" rx="8" ry="8" style="stroke:#181818;stroke-width:0.5;"/><text fill="#000000" font-family="sans-serif" font-size="14" lengthAdjust="spacing" textLength="180" x="729" y="43.9951">sofdcar.relationships.Root</text></g><!--reverse link sofdcar.relationships.Root to sofdcar.relationships.CAN--><g id="link_sofdcar.relationships.Root_sofdcar.relationships.CAN"><path d="M790.1,20.23 C707.49,35.19 467.63,78.61 333.18,102.95 " fill="none" id="sofdcar.relationships.Root-backto-sofdcar.relationships.CAN" style="stroke:#181818;stroke-width:1.0;"/><polygon fill="none" points="788.96,13.32,809.89,16.65,791.46,27.1,788.96,13.32" style="stroke:#181818;stroke-width:1.0;"/></g><!--reverse link sofdcar.relationships.CAN to sofdcar.relationships.CAN-FD--><g id="link_sofdcar.relationships.CAN_sofdcar.relationships.CAN-FD"><path d="M200.76,151.46 C180.57,167.02 156.49,185.57 139.34,198.79 " fill="none" id="sofdcar.relationships.CAN-backto-sofdcar.relationships.CAN-FD" style="stroke:#181818;stroke-width:1.0;"/><polygon fill="none" points="196.79,145.68,216.91,139.02,205.34,156.77,196.79,145.68" style="stroke:#181818;stroke-width:1.0;"/></g><!--reverse link sofdcar.relationships.Root to sofdcar.relationships.LIN--><g id="link_sofdcar.relationships.Root_sofdcar.relationships.LIN"><path d="M790.56,23.46 C732.6,40.7 599.8,80.2 523.24,102.97 " fill="none" id="sofdcar.relationships.Root-backto-sofdcar.relationships.LIN" style="stroke:#181818;stroke-width:1.0;"/><polygon fill="none" points="788.75,16.69,809.92,17.7,792.75,30.11,788.75,16.69" style="stroke:#181818;stroke-width:1.0;"/></g><!--reverse link sofdcar.relationships.Root to sofdcar.relationships.MOST--><g id="link_sofdcar.relationships.Root_sofdcar.relationships.MOST"><path d="M794.68,36.28 C772.28,55.88 739.46,84.6 718.67,102.79 " fill="none" id="sofdcar.relationships.Root-backto-sofdcar.relationships.MOST" style="stroke:#181818;stroke-width:1.0;"/><polygon fill="none" points="790.32,30.79,809.98,22.89,799.54,41.33,790.32,30.79" style="stroke:#181818;stroke-width:1.0;"/></g><!--reverse link sofdcar.relationships.Root to sofdcar.relationships.GPIO--><g id="link_sofdcar.relationships.Root_sofdcar.relationships.GPIO"><path d="M843.32,36.28 C865.72,55.88 898.54,84.6 919.33,102.79 " fill="none" id="sofdcar.relationships.Root-backto-sofdcar.relationships.GPIO" style="stroke:#181818;stroke-width:1.0;"/><polygon fill="none" points="838.46,41.33,828.02,22.89,847.68,30.79,838.46,41.33" style="stroke:#181818;stroke-width:1.0;"/></g><!--reverse link sofdcar.relationships.Root to sofdcar.relationships.FlexRay--><g id="link_sofdcar.relationships.Root_sofdcar.relationships.FlexRay"><path d="M847.45,23.18 C906.81,40.26 1044.96,80 1124.58,102.91 " fill="none" id="sofdcar.relationships.Root-backto-sofdcar.relationships.FlexRay" style="stroke:#181818;stroke-width:1.0;"/><polygon fill="none" points="845.31,29.85,828.02,17.6,849.18,16.4,845.31,29.85" style="stroke:#181818;stroke-width:1.0;"/></g><!--reverse link sofdcar.relationships.Root to sofdcar.relationships.Ethernet--><g id="link_sofdcar.relationships.Root_sofdcar.relationships.Ethernet"><path d="M848.16,19.91 C935.13,34.57 1195.7,78.49 1341.1,102.99 " fill="none" id="sofdcar.relationships.Root-backto-sofdcar.relationships.Ethernet" style="stroke:#181818;stroke-width:1.0;"/><polygon fill="none" points="846.85,26.79,828.29,16.57,849.18,12.99,846.85,26.79" style="stroke:#181818;stroke-width:1.0;"/></g><!--reverse link sofdcar.relationships.CAN to sofdcar.relationships.OBD--><g id="link_sofdcar.relationships.CAN_sofdcar.relationships.OBD"><path d="M277.24,151.23 C297.66,166.83 322.1,185.51 339.48,198.79 " fill="none" id="sofdcar.relationships.CAN-backto-sofdcar.relationships.OBD" style="stroke:#181818;stroke-width:1.0;"/><polygon fill="none" points="272.91,156.73,261.27,139.02,281.42,145.61,272.91,156.73" style="stroke:#181818;stroke-width:1.0;"/></g><!--reverse link sofdcar.relationships.Ethernet to sofdcar.relationships.SOME/IP--><g id="link_sofdcar.relationships.Ethernet_sofdcar.relationships.SOME/IP"><path d="M1442,159.62 C1442,173.21 1442,187.89 1442,198.87 " fill="none" id="sofdcar.relationships.Ethernet-backto-sofdcar.relationships.SOME/IP" style="stroke:#181818;stroke-width:1.0;"/><polygon fill="none" points="1435,159.24,1442,139.24,1449,159.24,1435,159.24" style="stroke:#181818;stroke-width:1.0;"/></g><!--SRC=[dP9B2eCm54NdMKLmhjr09_re4MeZsWq4-rh5c4Zo1XMw-1OKsqdraLaWvzuGpdLjetjfPSShq_L6WyOI1mNSGeLIFnGmnkOp3vovtoff8mjAOcEqgvlUHOVT9Q1XONAaaEUKL9Y9yahXJdagA5oYu5d8WOB6M8FLW1HMx4cVBaKMRzByWx8_H64C1dpx2iDb4mkNQ-bHaFVxepZl-2JKEp-9ziv_1-1TyJCCNmtZNjRw5olcBRq1]--></g></svg>