<?xml version="1.0" encoding="UTF-8" standalone="no"?><svg xmlns="http://www.w3.org/2000/svg" xmlns:xlink="http://www.w3.org/1999/xlink" contentStyleType="text/css" height="253px" preserveAspectRatio="none" style="width:1393px;height:253px;background:#FFFFFF;" version="1.1" viewBox="0 0 1393 253" width="1393px" zoomAndPan="magnify"><defs/><g><!--MD5=[ce77290da33ee595193bc169cceddfd6]
cluster ECU--><g id="cluster_ECU"><rect fill="none" height="240" rx="2.5" ry="2.5" style="stroke:#181818;stroke-width:1.0;" width="256" x="263.5" y="7"/><text fill="#000000" font-family="sans-serif" font-size="14" font-weight="bold" lengthAdjust="spacing" textLength="29" x="377" y="23.5332">ECU</text></g><!--MD5=[f47ff5492917336f42ec66f20ec4a271]
cluster HPC--><g id="cluster_HPC"><rect fill="none" height="240" rx="2.5" ry="2.5" style="stroke:#181818;stroke-width:1.0;" width="256" x="852.5" y="7"/><text fill="#000000" font-family="sans-serif" font-size="14" font-weight="bold" lengthAdjust="spacing" textLength="29" x="966" y="23.5332">HPC</text></g><!--MD5=[369ac8e41628b64136bcd46fe93cd2c5]
entity ECUSoftware--><g id="elem_ECUSoftware"><rect fill="#F1F1F1" height="55.2188" rx="2.5" ry="2.5" style="stroke:#181818;stroke-width:0.5;" width="218" x="282.5" y="43"/><text fill="#000000" font-family="sans-serif" font-size="14" font-style="italic" lengthAdjust="spacing" textLength="198" x="292.5" y="67.5332">«sofdcar.nodes.ECU.Software»</text><text fill="#000000" font-family="sans-serif" font-size="14" lengthAdjust="spacing" textLength="87" x="348" y="85.1426">ECU Software</text></g><!--MD5=[8161366a5a8958e07a0a0bcfbfca89ea]
entity ECUHardware--><g id="elem_ECUHardware"><rect fill="#F1F1F1" height="55.2188" rx="2.5" ry="2.5" style="stroke:#181818;stroke-width:0.5;" width="224" x="279.5" y="176"/><text fill="#000000" font-family="sans-serif" font-size="14" font-style="italic" lengthAdjust="spacing" textLength="204" x="289.5" y="200.5332">«sofdcar.nodes.ECU.Hardware»</text><text fill="#000000" font-family="sans-serif" font-size="14" lengthAdjust="spacing" textLength="92" x="345.5" y="218.1426">ECU Hardware</text></g><!--MD5=[b162af5ee47605a8d14cbdecaa62083b]
entity CANBridge--><g id="elem_CANBridge"><rect fill="#F1F1F1" height="55.2188" rx="2.5" ry="2.5" style="stroke:#181818;stroke-width:0.5;" width="204" x="878.5" y="43"/><text fill="#000000" font-family="sans-serif" font-size="14" font-style="italic" lengthAdjust="spacing" textLength="184" x="888.5" y="67.5332">«sofdcar.nodes.CAN.Bridge»</text><text fill="#000000" font-family="sans-serif" font-size="14" lengthAdjust="spacing" textLength="101" x="930" y="85.1426">CAN Bus Bridge</text></g><!--MD5=[33bf30f13f5048ff9c6510a0af665d83]
entity HPCHardware--><g id="elem_HPCHardware"><rect fill="#F1F1F1" height="55.2188" rx="2.5" ry="2.5" style="stroke:#181818;stroke-width:0.5;" width="224" x="868.5" y="176"/><text fill="#000000" font-family="sans-serif" font-size="14" font-style="italic" lengthAdjust="spacing" textLength="204" x="878.5" y="200.5332">«sofdcar.nodes.HPC.Hardware»</text><text fill="#000000" font-family="sans-serif" font-size="14" lengthAdjust="spacing" textLength="28" x="966.5" y="218.1426">HPC</text></g><!--MD5=[0bd08978e18c6ad00fe96eaf686ee4a2]
entity Actuator--><g id="elem_Actuator"><rect fill="#F1F1F1" height="55.2188" rx="2.5" ry="2.5" style="stroke:#181818;stroke-width:0.5;" width="183" x="7" y="43"/><text fill="#000000" font-family="sans-serif" font-size="14" font-style="italic" lengthAdjust="spacing" textLength="163" x="17" y="67.5332">«sofdcar.nodes.Actuator»</text><text fill="#000000" font-family="sans-serif" font-size="14" lengthAdjust="spacing" textLength="53" x="72" y="85.1426">Actuator</text></g><!--MD5=[13e281a9c90e6457905a6778fee15dd8]
entity CANBus--><g id="elem_CANBus"><rect fill="#F1F1F1" height="55.2188" rx="2.5" ry="2.5" style="stroke:#181818;stroke-width:0.5;" width="187" x="588" y="43"/><text fill="#000000" font-family="sans-serif" font-size="14" font-style="italic" lengthAdjust="spacing" textLength="167" x="598" y="67.5332">«sofdcar.nodes.CAN.Bus»</text><text fill="#000000" font-family="sans-serif" font-size="14" lengthAdjust="spacing" textLength="56" x="653.5" y="85.1426">CAN Bus</text></g><!--MD5=[57220784cd10fd02b95ed95124c16164]
entity network--><g id="elem_network"><path d="M1314.0332,54.913 C1316.6186,46.7911 1324.0894,45.629 1329.2862,52.2025 C1333.8205,42.3667 1339.2019,42.5975 1346.2472,49.686 C1353.1964,43.6515 1357.825,44.8261 1361.1311,53.3982 C1366.2171,46.5934 1372.7095,46.0056 1376.6623,54.5452 C1385.7129,58.152 1386.1842,66.7931 1378.9852,72.502 C1386.2366,77.5118 1384.013,83.4829 1377.3632,86.9299 C1373.8343,95.0224 1366.1302,96.1587 1360.7385,88.9543 C1357.6281,95.6191 1350.8984,97.8808 1346.0157,90.8611 C1339.9384,97.5524 1333.3626,96.6086 1329.1512,88.705 C1323.6475,95.1288 1317.1056,94.1362 1313.9952,86.1821 C1305.6135,84.6688 1302.9302,78.672 1306.9515,71.2917 C1302.711,62.9339 1303.3091,56.8004 1314.0332,54.913 " fill="#F1F1F1" style="stroke:#181818;stroke-width:0.5;"/><text fill="#000000" font-family="sans-serif" font-size="14" lengthAdjust="spacing" textLength="49" x="1320" y="76.0332">network</text></g><!--MD5=[e717a67a4f218288d9b8893546535628]
link ECUSoftware to ECUHardware--><g id="link_ECUSoftware_ECUHardware"><path d="M391.5,98.01 C391.5,118.91 391.5,148.14 391.5,170.38 " fill="none" id="ECUSoftware-to-ECUHardware" style="stroke:#181818;stroke-width:1.0;"/><polygon fill="#181818" points="391.5,175.58,395.5,166.58,391.5,170.58,387.5,166.58,391.5,175.58" style="stroke:#181818;stroke-width:1.0;"/><text fill="#000000" font-family="sans-serif" font-size="13" lengthAdjust="spacing" textLength="25" x="400.5" y="142.4951">host</text></g><!--MD5=[953a27f2269692dbf3b7d1ba1e90e070]
reverse link Actuator to ECUSoftware--><g id="link_Actuator_ECUSoftware"><path d="M195.19,70.5 C223.13,70.5 253.82,70.5 282.46,70.5 " fill="none" id="Actuator-backto-ECUSoftware" style="stroke:#181818;stroke-width:1.0;stroke-dasharray:7.0,7.0;"/><polygon fill="#181818" points="190,70.5,199,74.5,195,70.5,199,66.5,190,70.5" style="stroke:#181818;stroke-width:1.0;"/><text fill="#000000" font-family="sans-serif" font-size="13" lengthAdjust="spacing" textLength="32" x="216.25" y="63.9951">GPIO</text></g><!--MD5=[bac3b627abbb5c8bb5c64fb011bb893d]
link ECUSoftware to CANBus--><g id="link_ECUSoftware_CANBus"><path d="M500.72,70.5 C527.52,70.5 556.05,70.5 582.34,70.5 " fill="none" id="ECUSoftware-to-CANBus" style="stroke:#181818;stroke-width:1.0;stroke-dasharray:7.0,7.0;"/><polygon fill="#181818" points="587.57,70.5,578.57,66.5,582.57,70.5,578.57,74.5,587.57,70.5" style="stroke:#181818;stroke-width:1.0;"/><text fill="#000000" font-family="sans-serif" font-size="13" lengthAdjust="spacing" textLength="27" x="534.75" y="63.9951">CAN</text></g><!--MD5=[9403fbb8a68b5a24453dc244f2d23740]
reverse link CANBus to CANBridge--><g id="link_CANBus_CANBridge"><path d="M780.31,70.5 C811.83,70.5 846.75,70.5 878.49,70.5 " fill="none" id="CANBus-backto-CANBridge" style="stroke:#181818;stroke-width:1.0;stroke-dasharray:7.0,7.0;"/><polygon fill="#181818" points="775.29,70.5,784.29,74.5,780.29,70.5,784.29,66.5,775.29,70.5" style="stroke:#181818;stroke-width:1.0;"/><text fill="#000000" font-family="sans-serif" font-size="13" lengthAdjust="spacing" textLength="27" x="801.25" y="63.9951">CAN</text></g><!--MD5=[36ebccd5fc6e90ea9f1fb6ff97eaa8e2]
link CANBridge to HPCHardware--><g id="link_CANBridge_HPCHardware"><path d="M980.5,98.01 C980.5,118.91 980.5,148.14 980.5,170.38 " fill="none" id="CANBridge-to-HPCHardware" style="stroke:#181818;stroke-width:1.0;"/><polygon fill="#181818" points="980.5,175.58,984.5,166.58,980.5,170.58,976.5,166.58,980.5,175.58" style="stroke:#181818;stroke-width:1.0;"/><text fill="#000000" font-family="sans-serif" font-size="13" lengthAdjust="spacing" textLength="25" x="989.5" y="142.4951">host</text></g><!--MD5=[d54c9b3a130534903fed28d35b569334]
link CANBridge to network--><g id="link_CANBridge_network"><path d="M1082.86,70.5 C1154.16,70.5 1245.77,70.5 1299.52,70.5 " fill="none" id="CANBridge-to-network" style="stroke:#181818;stroke-width:1.0;stroke-dasharray:7.0,7.0;"/><polygon fill="#181818" points="1304.6,70.5,1295.6,66.5,1299.6,70.5,1295.6,74.5,1304.6,70.5" style="stroke:#181818;stroke-width:1.0;"/><text fill="#000000" font-family="sans-serif" font-size="13" lengthAdjust="spacing" textLength="154" x="1124.75" y="63.9951">CAN2MQTT, CAN2UDP ...</text></g><!--MD5=[2a5faa9ab2ff30a44c1c8a43608f05db]
@startuml
skinparam componentStyle rectangle

[Actuator] <<sofdcar.nodes.Actuator>> as Actuator


rectangle "ECU" {
    [ECU Software] <<sofdcar.nodes.ECU.Software>> as ECUSoftware
    [ECU Hardware] <<sofdcar.nodes.ECU.Hardware>> as ECUHardware
    ECUSoftware - -> ECUHardware : "  host"

    ECUSoftware .l.> Actuator : "  GPIO    "
}

[CAN Bus] <<sofdcar.nodes.CAN.Bus>> as CANBus
ECUSoftware .ri.> CANBus : "    CAN  "

rectangle "HPC" {
    [CAN Bus Bridge] <<sofdcar.nodes.CAN.Bridge>> as CANBridge
    CANBus <.ri. CANBridge : "  CAN        "
    [HPC] <<sofdcar.nodes.HPC.Hardware>> as HPCHardware
    CANBridge - -> HPCHardware : "  host"
}

cloud network
CANBridge .ri.> network : "      CAN2MQTT, CAN2UDP ...  "
@enduml

PlantUML version 1.2022.12(Sun Oct 23 20:12:26 CEST 2022)
(GPL source distribution)
Java Runtime: Java(TM) SE Runtime Environment
JVM: Java HotSpot(TM) 64-Bit Server VM
Default Encoding: Cp1252
Language: en
Country: US
--></g></svg>