<?xml version="1.0" encoding="UTF-8" standalone="no"?><svg xmlns="http://www.w3.org/2000/svg" xmlns:xlink="http://www.w3.org/1999/xlink" contentStyleType="text/css" height="251px" preserveAspectRatio="none" style="width:652px;height:251px;background:#FFFFFF;" version="1.1" viewBox="0 0 652 251" width="652px" zoomAndPan="magnify"><defs/><g><!--MD5=[b5a43e681ff5188082669c0a2cca6322]
entity software--><g id="elem_software"><rect fill="#F1F1F1" height="36.2969" rx="2.5" ry="2.5" style="stroke:#181818;stroke-width:0.5;" width="79" x="81.5" y="7"/><text fill="#000000" font-family="sans-serif" font-size="14" lengthAdjust="spacing" textLength="59" x="91.5" y="29.9951">software</text></g><!--MD5=[20e5a7a34538710e2da7a7d526f2f9ba]
entity v_ecu--><g id="elem_v_ecu"><rect fill="#F1F1F1" height="36.2969" rx="2.5" ry="2.5" style="stroke:#181818;stroke-width:0.5;" width="60" x="7" y="108"/><text fill="#000000" font-family="sans-serif" font-size="14" lengthAdjust="spacing" textLength="40" x="17" y="130.9951">v_ecu</text></g><!--MD5=[9632f4b4345b52c3a33bd4c6ee6e88df]
entity v_can_bus--><g id="elem_v_can_bus"><rect fill="#F1F1F1" height="36.2969" rx="2.5" ry="2.5" style="stroke:#181818;stroke-width:0.5;" width="92" x="271" y="108"/><text fill="#000000" font-family="sans-serif" font-size="14" lengthAdjust="spacing" textLength="72" x="281" y="130.9951">v_can_bus</text></g><!--MD5=[5d0b003f5647ffae293bd0e52095909b]
entity can_bus_proxy--><g id="elem_can_bus_proxy"><rect fill="#F1F1F1" height="36.2969" rx="2.5" ry="2.5" style="stroke:#181818;stroke-width:0.5;" width="122" x="398" y="108"/><text fill="#000000" font-family="sans-serif" font-size="14" lengthAdjust="spacing" textLength="102" x="408" y="130.9951">can_bus_proxy</text></g><!--MD5=[c153ddd4be19da884d49f56fddc564ac]
entity compute--><g id="elem_compute"><rect fill="#F1F1F1" height="36.2969" rx="2.5" ry="2.5" style="stroke:#181818;stroke-width:0.5;" width="82" x="276" y="209"/><text fill="#000000" font-family="sans-serif" font-size="14" lengthAdjust="spacing" textLength="62" x="286" y="231.9951">compute</text></g><g id="elem_GMN13"><path d="M274,12.5 L274,37.6328 A0,0 0 0 0 274,37.6328 L307.71,37.6328 L315.97,107.97 L315.71,37.6328 L348,37.6328 A0,0 0 0 0 348,37.6328 L348,22.5 L338,12.5 L274,12.5 A0,0 0 0 0 274,12.5 " fill="#FEFFDD" style="stroke:#181818;stroke-width:0.5;"/><path d="M338,12.5 L338,22.5 L348,22.5 L338,12.5 " fill="#FEFFDD" style="stroke:#181818;stroke-width:0.5;"/><text fill="#000000" font-family="sans-serif" font-size="13" lengthAdjust="spacing" textLength="53" x="280" y="29.5669">init vcan</text></g><g id="elem_GMN16"><path d="M383,12.5 L383,37.6328 A0,0 0 0 0 383,37.6328 L459.41,37.6328 L459.86,107.97 L467.41,37.6328 L545,37.6328 A0,0 0 0 0 545,37.6328 L545,22.5 L535,12.5 L383,12.5 A0,0 0 0 0 383,12.5 " fill="#FEFFDD" style="stroke:#181818;stroke-width:0.5;"/><path d="M535,12.5 L535,22.5 L545,22.5 L535,12.5 " fill="#FEFFDD" style="stroke:#181818;stroke-width:0.5;"/><text fill="#000000" font-family="sans-serif" font-size="13" lengthAdjust="spacing" textLength="141" x="389" y="29.5669">can2udp, can2mqtt ...</text></g><!--MD5=[57220784cd10fd02b95ed95124c16164]
entity network--><g id="elem_network"><path d="M564.4368,111.5539 C566.99,105.6854 572.0786,105.6821 575.4359,110.7448 C578.5984,103.5415 583.9223,104.5649 588.154,109.637 C592.2845,103.6601 596.0178,104.2751 599.8486,109.9381 C603.3031,105.1158 606.5906,105.4749 609.7176,110.2741 C613.9693,105.226 618.0529,104.0583 622.1122,110.4819 C625.5628,105.7756 631.4772,106.054 633.998,111.5637 C643.8381,112.8104 645.4421,118.5433 640.2692,126.2157 C645.2593,133.462 644.5958,140.3155 634.3491,141.758 C632.4474,148.4596 627.5186,149.7279 622.5849,144.8344 C620.2366,152.4125 615.3496,153.124 609.8184,148.0449 C607.154,154.0975 603.0028,154.5083 598.3219,150.3053 C593.3387,154.7297 589.3949,152.3883 588.0142,146.651 C582.6355,152.66 578.2204,152.6103 574.6776,144.8702 C571.0172,148.694 566.7933,148.6851 564.6149,143.2581 C553.7773,142.7031 550.9249,135.5824 555.8025,126.6759 C550.6789,117.6028 555.3059,112.488 564.4368,111.5539 " fill="#F1F1F1" style="stroke:#181818;stroke-width:0.5;"/><text fill="#000000" font-family="sans-serif" font-size="14" lengthAdjust="spacing" textLength="56" x="570" y="130.9951">network</text></g><g id="elem_GMN21"><path d="M102,113.5 L102,122 L67.16,126 L102,130 L102,138.6328 A0,0 0 0 0 102,138.6328 L236,138.6328 A0,0 0 0 0 236,138.6328 L236,123.5 L226,113.5 L102,113.5 A0,0 0 0 0 102,113.5 " fill="#FEFFDD" style="stroke:#181818;stroke-width:0.5;"/><path d="M226,113.5 L226,123.5 L236,123.5 L226,113.5 " fill="#FEFFDD" style="stroke:#181818;stroke-width:0.5;"/><text fill="#000000" font-family="sans-serif" font-size="13" lengthAdjust="spacing" textLength="113" x="108" y="130.5669">mount v_can_bus</text></g><!--MD5=[2e38fa535ef7f7a1f7ae2e5c751c51fc]
link software to v_ecu--><g id="link_software_v_ecu"><path d="M106.37,43.24 C92.03,60.14 70.17,85.91 54.83,103.99 " fill="none" id="software-to-v_ecu" style="stroke:#181818;stroke-width:1.0;"/><polygon fill="#181818" points="51.46,107.95,60.3277,103.6648,54.6904,104.1336,54.2215,98.4962,51.46,107.95" style="stroke:#181818;stroke-width:1.0;"/></g><!--MD5=[49961258165d0e84b70fe8930147d41f]
link software to v_can_bus--><g id="link_software_v_can_bus"><path d="M154.69,43.02 C189.05,60.37 242.29,87.26 278.34,105.47 " fill="none" id="software-to-v_can_bus" style="stroke:#181818;stroke-width:1.0;stroke-dasharray:7.0,7.0;"/><polygon fill="#181818" points="283.09,107.87,276.868,100.2354,278.6294,105.6111,273.2537,107.3725,283.09,107.87" style="stroke:#181818;stroke-width:1.0;"/></g><!--MD5=[8c6eec340296972218604e9db753d733]
reverse link v_can_bus to can_bus_proxy--><g id="link_v_can_bus_can_bus_proxy"><path d="M368.21,126 C378.11,126 388,126 397.9,126 " fill="none" id="v_can_bus-backto-can_bus_proxy" style="stroke:#181818;stroke-width:1.0;stroke-dasharray:7.0,7.0;"/><polygon fill="#181818" points="363.04,126,372.04,130,368.04,126,372.04,122,363.04,126" style="stroke:#181818;stroke-width:1.0;"/></g><!--MD5=[9ef279aed7738939615fc513679795ec]
link v_ecu to compute--><g id="link_v_ecu_compute"><path d="M67.11,141.74 C72.67,144.28 78.47,146.8 84,149 C147.6,174.29 223.13,198.16 270.57,212.44 " fill="none" id="v_ecu-to-compute" style="stroke:#181818;stroke-width:1.0;"/><polygon fill="#181818" points="275.65,213.96,268.1825,207.5385,270.8617,212.5206,265.8795,215.1998,275.65,213.96" style="stroke:#181818;stroke-width:1.0;"/></g><!--MD5=[0eb4414a2a890b5c171edccf82c44ecc]
link v_can_bus to compute--><g id="link_v_can_bus_compute"><path d="M317,144.24 C317,160.71 317,185.61 317,203.61 " fill="none" id="v_can_bus-to-compute" style="stroke:#181818;stroke-width:1.0;"/><polygon fill="#181818" points="317,208.95,321,199.95,317,203.95,313,199.95,317,208.95" style="stroke:#181818;stroke-width:1.0;"/></g><!--MD5=[f3bd9a70ca46c1e46994046adc250d5f]
link can_bus_proxy to compute--><g id="link_can_bus_proxy_compute"><path d="M434.59,144.02 C410,161.16 372.07,187.61 345.97,205.8 " fill="none" id="can_bus_proxy-to-compute" style="stroke:#181818;stroke-width:1.0;"/><polygon fill="#181818" points="341.57,208.87,351.2409,207.0061,345.6722,206.0113,346.667,200.4426,341.57,208.87" style="stroke:#181818;stroke-width:1.0;"/></g><!--MD5=[875cd073c4e1a88c6c8d0b681c4a7b4d]
link can_bus_proxy to network--><g id="link_can_bus_proxy_network"><path d="M520.08,126 C529.93,126 539.78,126 549.63,126 " fill="none" id="can_bus_proxy-to-network" style="stroke:#181818;stroke-width:1.0;stroke-dasharray:7.0,7.0;"/><polygon fill="#181818" points="554.78,126,545.78,122,549.78,126,545.78,130,554.78,126" style="stroke:#181818;stroke-width:1.0;"/></g><!--MD5=[7fe27705f45af8a967f3cc3ca73c2a38]
@startuml
skinparam componentStyle rectangle

[software]
[v_ecu]
software - -> v_ecu

[v_can_bus]

[can_bus_proxy]

software .ri.> v_can_bus
v_can_bus <.ri. can_bus_proxy

[compute]
v_ecu - -> compute

v_can_bus - -> compute
can_bus_proxy - -> compute

note top of [v_can_bus]
init vcan
end note

note top of [can_bus_proxy]
can2udp, can2mqtt ...
end note

cloud network
can_bus_proxy .ri.> network

note right of [v_ecu]
mount v_can_bus
end note

@enduml

PlantUML version 1.2022.12(Sun Oct 23 20:12:26 CEST 2022)
(GPL source distribution)
Java Runtime: OpenJDK Runtime Environment
JVM: OpenJDK 64-Bit Server VM
Default Encoding: UTF-8
Language: en
Country: null
--></g></svg>