<?xml version="1.0" encoding="UTF-8" standalone="no"?><svg xmlns="http://www.w3.org/2000/svg" xmlns:xlink="http://www.w3.org/1999/xlink" contentStyleType="text/css" height="229px" preserveAspectRatio="none" style="width:366px;height:229px;background:#FFFFFF;" version="1.1" viewBox="0 0 366 229" width="366px" zoomAndPan="magnify"><defs/><g><!--MD5=[a92fd8a1e3181657b0ded5c3bf44e9d3]
entity software_a--><g id="elem_software_a"><rect fill="#F1F1F1" height="36.2969" rx="2.5" ry="2.5" style="stroke:#181818;stroke-width:0.5;" width="94" x="7" y="91"/><text fill="#000000" font-family="sans-serif" font-size="14" lengthAdjust="spacing" textLength="74" x="17" y="113.9951">software_a</text></g><!--MD5=[3b6eda06cc1e200b068ddccd5d454245]
entity p_ecu_a--><g id="elem_p_ecu_a"><rect fill="#F1F1F1" height="36.2969" rx="2.5" ry="2.5" style="stroke:#181818;stroke-width:0.5;" width="77" x="15.5" y="187"/><text fill="#000000" font-family="sans-serif" font-size="14" lengthAdjust="spacing" textLength="57" x="25.5" y="209.9951">p_ecu_a</text></g><!--MD5=[dabe9a60eb880d00873d2d01258f688f]
entity p_can_bus--><g id="elem_p_can_bus"><rect fill="#F1F1F1" height="36.2969" rx="2.5" ry="2.5" style="stroke:#181818;stroke-width:0.5;" width="94" x="136" y="91"/><text fill="#000000" font-family="sans-serif" font-size="14" lengthAdjust="spacing" textLength="74" x="146" y="113.9951">p_can_bus</text></g><!--MD5=[9db9c0d933fcf248334ea772e8ef634a]
entity software_b--><g id="elem_software_b"><rect fill="#F1F1F1" height="36.2969" rx="2.5" ry="2.5" style="stroke:#181818;stroke-width:0.5;" width="95" x="265.5" y="91"/><text fill="#000000" font-family="sans-serif" font-size="14" lengthAdjust="spacing" textLength="75" x="275.5" y="113.9951">software_b</text></g><!--MD5=[ef4d4f14633edacc29e70c56936c575a]
entity p_ecu_b--><g id="elem_p_ecu_b"><rect fill="#F1F1F1" height="36.2969" rx="2.5" ry="2.5" style="stroke:#181818;stroke-width:0.5;" width="78" x="274" y="187"/><text fill="#000000" font-family="sans-serif" font-size="14" lengthAdjust="spacing" textLength="58" x="284" y="209.9951">p_ecu_b</text></g><g id="elem_GMN11"><path d="M165.5,6 L165.5,31.1328 A0,0 0 0 0 165.5,31.1328 L179,31.1328 L183,90.97 L187,31.1328 L200.5,31.1328 A0,0 0 0 0 200.5,31.1328 L200.5,16 L190.5,6 L165.5,6 A0,0 0 0 0 165.5,6 " fill="#FEFFDD" style="stroke:#181818;stroke-width:0.5;"/><path d="M190.5,6 L190.5,16 L200.5,16 L190.5,6 " fill="#FEFFDD" style="stroke:#181818;stroke-width:0.5;"/><text fill="#000000" font-family="sans-serif" font-size="13" lengthAdjust="spacing" textLength="14" x="171.5" y="23.0669">nil</text></g><!--MD5=[417cc4c0f6725bab1736b5640b911b16]
link software_a to p_ecu_a--><g id="link_software_a_p_ecu_a"><path d="M54,127.24 C54,142.48 54,164.81 54,181.46 " fill="none" id="software_a-to-p_ecu_a" style="stroke:#181818;stroke-width:1.0;"/><polygon fill="#181818" points="54,186.87,58,177.87,54,181.87,50,177.87,54,186.87" style="stroke:#181818;stroke-width:1.0;"/></g><!--MD5=[a5b73ba4ef837590f3e332fab57a7029]
link software_b to p_ecu_b--><g id="link_software_b_p_ecu_b"><path d="M313,127.24 C313,142.48 313,164.81 313,181.46 " fill="none" id="software_b-to-p_ecu_b" style="stroke:#181818;stroke-width:1.0;"/><polygon fill="#181818" points="313,186.87,317,177.87,313,181.87,309,177.87,313,186.87" style="stroke:#181818;stroke-width:1.0;"/></g><!--MD5=[799832ab127f44fac97438066e8f2b37]
link software_a to p_can_bus--><g id="link_software_a_p_can_bus"><path d="M101.12,109 C111.01,109 120.91,109 130.8,109 " fill="none" id="software_a-to-p_can_bus" style="stroke:#181818;stroke-width:1.0;stroke-dasharray:7.0,7.0;"/><polygon fill="#181818" points="135.98,109,126.98,105,130.98,109,126.98,113,135.98,109" style="stroke:#181818;stroke-width:1.0;"/></g><!--MD5=[e5115bc583d4a0bae64380fb6d7ed254]
reverse link p_can_bus to software_b--><g id="link_p_can_bus_software_b"><path d="M235.46,109 C245.46,109 255.47,109 265.47,109 " fill="none" id="p_can_bus-backto-software_b" style="stroke:#181818;stroke-width:1.0;stroke-dasharray:7.0,7.0;"/><polygon fill="#181818" points="230.23,109,239.23,113,235.23,109,239.23,105,230.23,109" style="stroke:#181818;stroke-width:1.0;"/></g><!--MD5=[e6534fcbb9982fca474b1d437c38fe8f]
@startuml
skinparam componentStyle rectangle

[software_a]
[p_ecu_a]
software_a - -> p_ecu_a

[p_can_bus]

[software_b]
[p_ecu_b]
software_b - -> p_ecu_b

software_a .ri.> p_can_bus
p_can_bus <.ri. software_b

note top of [p_can_bus]
nil
end note

@enduml

PlantUML version 1.2022.12(Sun Oct 23 20:12:26 CEST 2022)
(GPL source distribution)
Java Runtime: OpenJDK Runtime Environment
JVM: OpenJDK 64-Bit Server VM
Default Encoding: UTF-8
Language: en
Country: null
--></g></svg>