<?xml version="1.0" encoding="UTF-8" standalone="no"?><svg xmlns="http://www.w3.org/2000/svg" xmlns:xlink="http://www.w3.org/1999/xlink" contentStyleType="text/css" height="247px" preserveAspectRatio="none" style="width:1466px;height:247px;background:#FFFFFF;" version="1.1" viewBox="0 0 1466 247" width="1466px" zoomAndPan="magnify"><defs/><g><!--MD5=[ce77290da33ee595193bc169cceddfd6]
cluster ECU--><g id="cluster_ECU"><rect fill="none" height="234" rx="2.5" ry="2.5" style="stroke:#181818;stroke-width:1.0;" width="270" x="278" y="7"/><text fill="#000000" font-family="sans-serif" font-size="14" font-weight="bold" lengthAdjust="spacing" textLength="31" x="397.5" y="21.9951">ECU</text></g><!--MD5=[f47ff5492917336f42ec66f20ec4a271]
cluster HPC--><g id="cluster_HPC"><rect fill="none" height="234" rx="2.5" ry="2.5" style="stroke:#181818;stroke-width:1.0;" width="270" x="897" y="7"/><text fill="#000000" font-family="sans-serif" font-size="14" font-weight="bold" lengthAdjust="spacing" textLength="32" x="1016" y="21.9951">HPC</text></g><!--MD5=[369ac8e41628b64136bcd46fe93cd2c5]
entity ECUSoftware--><g id="elem_ECUSoftware"><rect fill="#F1F1F1" height="52.5938" rx="2.5" ry="2.5" style="stroke:#181818;stroke-width:0.5;" width="232" x="297" y="42"/><text fill="#000000" font-family="sans-serif" font-size="14" font-style="italic" lengthAdjust="spacing" textLength="212" x="307" y="64.9951">«sofdcar.nodes.ECU.Software»</text><text fill="#000000" font-family="sans-serif" font-size="14" lengthAdjust="spacing" textLength="93" x="366.5" y="81.292">ECU Software</text></g><!--MD5=[8161366a5a8958e07a0a0bcfbfca89ea]
entity ECUHardware--><g id="elem_ECUHardware"><rect fill="#F1F1F1" height="52.5938" rx="2.5" ry="2.5" style="stroke:#181818;stroke-width:0.5;" width="238" x="294" y="172"/><text fill="#000000" font-family="sans-serif" font-size="14" font-style="italic" lengthAdjust="spacing" textLength="218" x="304" y="194.9951">«sofdcar.nodes.ECU.Hardware»</text><text fill="#000000" font-family="sans-serif" font-size="14" lengthAdjust="spacing" textLength="98" x="364" y="211.292">ECU Hardware</text></g><!--MD5=[b162af5ee47605a8d14cbdecaa62083b]
entity CANBridge--><g id="elem_CANBridge"><rect fill="#F1F1F1" height="52.5938" rx="2.5" ry="2.5" style="stroke:#181818;stroke-width:0.5;" width="219" x="922.5" y="42"/><text fill="#000000" font-family="sans-serif" font-size="14" font-style="italic" lengthAdjust="spacing" textLength="199" x="932.5" y="64.9951">«sofdcar.nodes.CAN.Bridge»</text><text fill="#000000" font-family="sans-serif" font-size="14" lengthAdjust="spacing" textLength="109" x="977.5" y="81.292">CAN Bus Bridge</text></g><!--MD5=[33bf30f13f5048ff9c6510a0af665d83]
entity HPCHardware--><g id="elem_HPCHardware"><rect fill="#F1F1F1" height="52.5938" rx="2.5" ry="2.5" style="stroke:#181818;stroke-width:0.5;" width="238" x="913" y="172"/><text fill="#000000" font-family="sans-serif" font-size="14" font-style="italic" lengthAdjust="spacing" textLength="218" x="923" y="194.9951">«sofdcar.nodes.HPC.Hardware»</text><text fill="#000000" font-family="sans-serif" font-size="14" lengthAdjust="spacing" textLength="29" x="1017.5" y="211.292">HPC</text></g><!--MD5=[0bd08978e18c6ad00fe96eaf686ee4a2]
entity Actuator--><g id="elem_Actuator"><rect fill="#F1F1F1" height="52.5938" rx="2.5" ry="2.5" style="stroke:#181818;stroke-width:0.5;" width="198" x="7" y="42"/><text fill="#000000" font-family="sans-serif" font-size="14" font-style="italic" lengthAdjust="spacing" textLength="178" x="17" y="64.9951">«sofdcar.nodes.Actuator»</text><text fill="#000000" font-family="sans-serif" font-size="14" lengthAdjust="spacing" textLength="58" x="77" y="81.292">Actuator</text></g><!--MD5=[13e281a9c90e6457905a6778fee15dd8]
entity CANBus--><g id="elem_CANBus"><rect fill="#F1F1F1" height="52.5938" rx="2.5" ry="2.5" style="stroke:#181818;stroke-width:0.5;" width="200" x="618" y="42"/><text fill="#000000" font-family="sans-serif" font-size="14" font-style="italic" lengthAdjust="spacing" textLength="180" x="628" y="64.9951">«sofdcar.nodes.CAN.Bus»</text><text fill="#000000" font-family="sans-serif" font-size="14" lengthAdjust="spacing" textLength="60" x="688" y="81.292">CAN Bus</text></g><!--MD5=[57220784cd10fd02b95ed95124c16164]
entity network--><g id="elem_network"><path d="M1378.4368,54.0539 C1380.99,48.1854 1386.0786,48.1821 1389.4359,53.2448 C1392.5984,46.0415 1397.9223,47.0649 1402.154,52.137 C1406.2845,46.1601 1410.0178,46.7751 1413.8486,52.4381 C1417.3031,47.6158 1420.5906,47.9749 1423.7176,52.7741 C1427.9693,47.726 1432.0529,46.5583 1436.1122,52.9819 C1439.5628,48.2756 1445.4772,48.554 1447.998,54.0637 C1457.8381,55.3104 1459.4421,61.0433 1454.2692,68.7157 C1459.2593,75.962 1458.5958,82.8155 1448.3491,84.258 C1446.4474,90.9596 1441.5186,92.2279 1436.5849,87.3344 C1434.2366,94.9125 1429.3496,95.624 1423.8184,90.5449 C1421.154,96.5975 1417.0028,97.0083 1412.3219,92.8053 C1407.3387,97.2297 1403.3949,94.8883 1402.0142,89.151 C1396.6355,95.16 1392.2204,95.1103 1388.6776,87.3702 C1385.0172,91.194 1380.7933,91.1851 1378.6149,85.7581 C1367.7773,85.2031 1364.9249,78.0824 1369.8025,69.1759 C1364.6789,60.1028 1369.3059,54.988 1378.4368,54.0539 " fill="#F1F1F1" style="stroke:#181818;stroke-width:0.5;"/><text fill="#000000" font-family="sans-serif" font-size="14" lengthAdjust="spacing" textLength="56" x="1384" y="73.4951">network</text></g><!--MD5=[e717a67a4f218288d9b8893546535628]
link ECUSoftware to ECUHardware--><g id="link_ECUSoftware_ECUHardware"><path d="M413,95.1 C413,115.76 413,144.91 413,166.83 " fill="none" id="ECUSoftware-to-ECUHardware" style="stroke:#181818;stroke-width:1.0;"/><polygon fill="#181818" points="413,171.95,417,162.95,413,166.95,409,162.95,413,171.95" style="stroke:#181818;stroke-width:1.0;"/><text fill="#000000" font-family="sans-serif" font-size="13" lengthAdjust="spacing" textLength="28" x="422" y="138.0669">host</text></g><!--MD5=[953a27f2269692dbf3b7d1ba1e90e070]
reverse link Actuator to ECUSoftware--><g id="link_Actuator_ECUSoftware"><path d="M210.42,68.5 C238.28,68.5 268.55,68.5 296.99,68.5 " fill="none" id="Actuator-backto-ECUSoftware" style="stroke:#181818;stroke-width:1.0;stroke-dasharray:7.0,7.0;"/><polygon fill="#181818" points="205.25,68.5,214.25,72.5,210.25,68.5,214.25,64.5,205.25,68.5" style="stroke:#181818;stroke-width:1.0;"/><text fill="#000000" font-family="sans-serif" font-size="13" lengthAdjust="spacing" textLength="31" x="231.5" y="61.5669">GPIO</text></g><!--MD5=[bac3b627abbb5c8bb5c64fb011bb893d]
link ECUSoftware to CANBus--><g id="link_ECUSoftware_CANBus"><path d="M529.18,68.5 C556.48,68.5 585.43,68.5 612.25,68.5 " fill="none" id="ECUSoftware-to-CANBus" style="stroke:#181818;stroke-width:1.0;stroke-dasharray:7.0,7.0;"/><polygon fill="#181818" points="617.59,68.5,608.59,64.5,612.59,68.5,608.59,72.5,617.59,68.5" style="stroke:#181818;stroke-width:1.0;"/><text fill="#000000" font-family="sans-serif" font-size="13" lengthAdjust="spacing" textLength="28" x="563.5" y="61.5669">CAN</text></g><!--MD5=[9403fbb8a68b5a24453dc244f2d23740]
reverse link CANBus to CANBridge--><g id="link_CANBus_CANBridge"><path d="M823.3,68.5 C855.18,68.5 890.26,68.5 922.41,68.5 " fill="none" id="CANBus-backto-CANBridge" style="stroke:#181818;stroke-width:1.0;stroke-dasharray:7.0,7.0;"/><polygon fill="#181818" points="818.21,68.5,827.21,72.5,823.21,68.5,827.21,64.5,818.21,68.5" style="stroke:#181818;stroke-width:1.0;"/><text fill="#000000" font-family="sans-serif" font-size="13" lengthAdjust="spacing" textLength="28" x="844.25" y="61.5669">CAN</text></g><!--MD5=[36ebccd5fc6e90ea9f1fb6ff97eaa8e2]
link CANBridge to HPCHardware--><g id="link_CANBridge_HPCHardware"><path d="M1032,95.1 C1032,115.76 1032,144.91 1032,166.83 " fill="none" id="CANBridge-to-HPCHardware" style="stroke:#181818;stroke-width:1.0;"/><polygon fill="#181818" points="1032,171.95,1036,162.95,1032,166.95,1028,162.95,1032,171.95" style="stroke:#181818;stroke-width:1.0;"/><text fill="#000000" font-family="sans-serif" font-size="13" lengthAdjust="spacing" textLength="28" x="1041" y="138.0669">host</text></g><!--MD5=[d54c9b3a130534903fed28d35b569334]
link CANBridge to network--><g id="link_CANBridge_network"><path d="M1141.66,68.5 C1214.93,68.5 1307.74,68.5 1363.35,68.5 " fill="none" id="CANBridge-to-network" style="stroke:#181818;stroke-width:1.0;stroke-dasharray:7.0,7.0;"/><polygon fill="#181818" points="1368.62,68.5,1359.62,64.5,1363.62,68.5,1359.62,72.5,1368.62,68.5" style="stroke:#181818;stroke-width:1.0;"/><text fill="#000000" font-family="sans-serif" font-size="13" lengthAdjust="spacing" textLength="159" x="1183.75" y="61.5669">CAN2MQTT, CAN2UDP ...</text></g><!--MD5=[bce88768c6f2bb87e32125e62bcc738d]
@startuml
skinparam componentStyle rectangle

[Actuator] <<sofdcar.nodes.Actuator>> as Actuator


rectangle "ECU" {
    [ECU Software] <<sofdcar.nodes.ECU.Software>> as ECUSoftware
    [ECU Hardware] <<sofdcar.nodes.ECU.Hardware>> as ECUHardware
    ECUSoftware - -> ECUHardware : "  host"

    ECUSoftware .l.> Actuator : "  GPIO    "
}

[CAN Bus] <<sofdcar.nodes.CAN.Bus>> as CANBus
ECUSoftware .ri.> CANBus : "    CAN  "

rectangle "HPC" {
    [CAN Bus Bridge] <<sofdcar.nodes.CAN.Bridge>> as CANBridge
    CANBus <.ri. CANBridge : "  CAN        "
    [HPC] <<sofdcar.nodes.HPC.Hardware>> as HPCHardware
    CANBridge - -> HPCHardware : "  host"
}

cloud network
CANBridge .ri.> network : "      CAN2MQTT, CAN2UDP ...  "
@enduml

PlantUML version 1.2022.12(Sun Oct 23 20:12:26 CEST 2022)
(GPL source distribution)
Java Runtime: OpenJDK Runtime Environment
JVM: OpenJDK 64-Bit Server VM
Default Encoding: UTF-8
Language: en
Country: null
--></g></svg>