<?xml version="1.0" encoding="UTF-8" standalone="no"?><svg xmlns="http://www.w3.org/2000/svg" xmlns:xlink="http://www.w3.org/1999/xlink" contentStyleType="text/css" height="233px" preserveAspectRatio="none" style="width:352px;height:233px;background:#FFFFFF;" version="1.1" viewBox="0 0 352 233" width="352px" zoomAndPan="magnify"><defs/><g><!--MD5=[a92fd8a1e3181657b0ded5c3bf44e9d3]
entity software_a--><g id="elem_software_a"><rect fill="#F1F1F1" height="37.6094" rx="2.5" ry="2.5" style="stroke:#181818;stroke-width:0.5;" width="89" x="7" y="92"/><text fill="#000000" font-family="sans-serif" font-size="14" lengthAdjust="spacing" textLength="69" x="17" y="116.5332">software_a</text></g><!--MD5=[3b6eda06cc1e200b068ddccd5d454245]
entity p_ecu_a--><g id="elem_p_ecu_a"><rect fill="#F1F1F1" height="37.6094" rx="2.5" ry="2.5" style="stroke:#181818;stroke-width:0.5;" width="75" x="14" y="190"/><text fill="#000000" font-family="sans-serif" font-size="14" lengthAdjust="spacing" textLength="55" x="24" y="214.5332">p_ecu_a</text></g><!--MD5=[dabe9a60eb880d00873d2d01258f688f]
entity p_can_bus--><g id="elem_p_can_bus"><rect fill="#F1F1F1" height="37.6094" rx="2.5" ry="2.5" style="stroke:#181818;stroke-width:0.5;" width="90" x="131.5" y="92"/><text fill="#000000" font-family="sans-serif" font-size="14" lengthAdjust="spacing" textLength="70" x="141.5" y="116.5332">p_can_bus</text></g><!--MD5=[9db9c0d933fcf248334ea772e8ef634a]
entity software_b--><g id="elem_software_b"><rect fill="#F1F1F1" height="37.6094" rx="2.5" ry="2.5" style="stroke:#181818;stroke-width:0.5;" width="89" x="257" y="92"/><text fill="#000000" font-family="sans-serif" font-size="14" lengthAdjust="spacing" textLength="69" x="267" y="116.5332">software_b</text></g><!--MD5=[ef4d4f14633edacc29e70c56936c575a]
entity p_ecu_b--><g id="elem_p_ecu_b"><rect fill="#F1F1F1" height="37.6094" rx="2.5" ry="2.5" style="stroke:#181818;stroke-width:0.5;" width="75" x="264" y="190"/><text fill="#000000" font-family="sans-serif" font-size="14" lengthAdjust="spacing" textLength="55" x="274" y="214.5332">p_ecu_b</text></g><g id="elem_GMN11"><path d="M159.5,6 L159.5,32.3516 A0,0 0 0 0 159.5,32.3516 L172.5,32.3516 L176.5,91.84 L180.5,32.3516 L193.5,32.3516 A0,0 0 0 0 193.5,32.3516 L193.5,16 L183.5,6 L159.5,6 A0,0 0 0 0 159.5,6 " fill="#FEFFDD" style="stroke:#181818;stroke-width:0.5;"/><path d="M183.5,6 L183.5,16 L193.5,16 L183.5,6 " fill="#FEFFDD" style="stroke:#181818;stroke-width:0.5;"/><text fill="#000000" font-family="sans-serif" font-size="13" lengthAdjust="spacing" textLength="13" x="165.5" y="24.4951">nil</text></g><!--MD5=[417cc4c0f6725bab1736b5640b911b16]
link software_a to p_ecu_a--><g id="link_software_a_p_ecu_a"><path d="M51.5,130.06 C51.5,145.51 51.5,167.86 51.5,184.67 " fill="none" id="software_a-to-p_ecu_a" style="stroke:#181818;stroke-width:1.0;"/><polygon fill="#181818" points="51.5,189.7,55.5,180.7,51.5,184.7,47.5,180.7,51.5,189.7" style="stroke:#181818;stroke-width:1.0;"/></g><!--MD5=[a5b73ba4ef837590f3e332fab57a7029]
link software_b to p_ecu_b--><g id="link_software_b_p_ecu_b"><path d="M301.5,130.06 C301.5,145.51 301.5,167.86 301.5,184.67 " fill="none" id="software_b-to-p_ecu_b" style="stroke:#181818;stroke-width:1.0;"/><polygon fill="#181818" points="301.5,189.7,305.5,180.7,301.5,184.7,297.5,180.7,301.5,189.7" style="stroke:#181818;stroke-width:1.0;"/></g><!--MD5=[799832ab127f44fac97438066e8f2b37]
link software_a to p_can_bus--><g id="link_software_a_p_can_bus"><path d="M96.42,111 C106.37,111 116.31,111 126.26,111 " fill="none" id="software_a-to-p_can_bus" style="stroke:#181818;stroke-width:1.0;stroke-dasharray:7.0,7.0;"/><polygon fill="#181818" points="131.46,111,122.46,107,126.46,111,122.46,115,131.46,111" style="stroke:#181818;stroke-width:1.0;"/></g><!--MD5=[e5115bc583d4a0bae64380fb6d7ed254]
reverse link p_can_bus to software_b--><g id="link_p_can_bus_software_b"><path d="M227.08,111 C236.96,111 246.85,111 256.73,111 " fill="none" id="p_can_bus-backto-software_b" style="stroke:#181818;stroke-width:1.0;stroke-dasharray:7.0,7.0;"/><polygon fill="#181818" points="221.91,111,230.91,115,226.91,111,230.91,107,221.91,111" style="stroke:#181818;stroke-width:1.0;"/></g><!--MD5=[53f29a586c5ab9bd7ac15e58b71ec431]
@startuml
skinparam componentStyle rectangle

[software_a]
[p_ecu_a]
software_a - -> p_ecu_a

[p_can_bus]

[software_b]
[p_ecu_b]
software_b - -> p_ecu_b

software_a .ri.> p_can_bus
p_can_bus <.ri. software_b

note top of [p_can_bus]
nil
end note

@enduml

PlantUML version 1.2022.12(Sun Oct 23 20:12:26 CEST 2022)
(GPL source distribution)
Java Runtime: Java(TM) SE Runtime Environment
JVM: Java HotSpot(TM) 64-Bit Server VM
Default Encoding: Cp1252
Language: en
Country: US
--></g></svg>