<?xml version="1.0" encoding="UTF-8" standalone="no"?><svg xmlns="http://www.w3.org/2000/svg" xmlns:xlink="http://www.w3.org/1999/xlink" contentStyleType="text/css" height="239px" preserveAspectRatio="none" style="width:504px;height:239px;background:#FFFFFF;" version="1.1" viewBox="0 0 504 239" width="504px" zoomAndPan="magnify"><defs/><g><!--MD5=[b5a43e681ff5188082669c0a2cca6322]
entity software--><g id="elem_software"><rect fill="#F1F1F1" height="36.2969" rx="2.5" ry="2.5" style="stroke:#181818;stroke-width:0.5;" width="79" x="7" y="96"/><text fill="#000000" font-family="sans-serif" font-size="14" lengthAdjust="spacing" textLength="59" x="17" y="118.9951">software</text></g><!--MD5=[ffab504e64f30a506775986226342fdf]
entity p_ecu--><g id="elem_p_ecu"><rect fill="#F1F1F1" height="36.2969" rx="2.5" ry="2.5" style="stroke:#181818;stroke-width:0.5;" width="62" x="15.5" y="197"/><text fill="#000000" font-family="sans-serif" font-size="14" lengthAdjust="spacing" textLength="42" x="25.5" y="219.9951">p_ecu</text></g><!--MD5=[dabe9a60eb880d00873d2d01258f688f]
entity p_can_bus--><g id="elem_p_can_bus"><rect fill="#F1F1F1" height="36.2969" rx="2.5" ry="2.5" style="stroke:#181818;stroke-width:0.5;" width="94" x="121.5" y="96"/><text fill="#000000" font-family="sans-serif" font-size="14" lengthAdjust="spacing" textLength="74" x="131.5" y="118.9951">p_can_bus</text></g><!--MD5=[5d0b003f5647ffae293bd0e52095909b]
entity can_bus_proxy--><g id="elem_can_bus_proxy"><rect fill="#F1F1F1" height="36.2969" rx="2.5" ry="2.5" style="stroke:#181818;stroke-width:0.5;" width="122" x="250.5" y="96"/><text fill="#000000" font-family="sans-serif" font-size="14" lengthAdjust="spacing" textLength="102" x="260.5" y="118.9951">can_bus_proxy</text></g><!--MD5=[65b04974fe4fc4b0b7d94a51597d0c92]
entity can_bus_proxy_host--><g id="elem_can_bus_proxy_host"><rect fill="#F1F1F1" height="36.2969" rx="2.5" ry="2.5" style="stroke:#181818;stroke-width:0.5;" width="160" x="231.5" y="197"/><text fill="#000000" font-family="sans-serif" font-size="14" lengthAdjust="spacing" textLength="140" x="241.5" y="219.9951">can_bus_proxy_host</text></g><!--MD5=[57220784cd10fd02b95ed95124c16164]
entity network--><g id="elem_network"><path d="M416.9368,99.5539 C419.49,93.6854 424.5786,93.6821 427.9359,98.7448 C431.0984,91.5415 436.4223,92.5649 440.654,97.637 C444.7845,91.6601 448.5178,92.2751 452.3486,97.9381 C455.8031,93.1158 459.0906,93.4749 462.2176,98.2741 C466.4693,93.226 470.5529,92.0583 474.6122,98.4819 C478.0628,93.7756 483.9772,94.054 486.498,99.5637 C496.3381,100.8104 497.9421,106.5433 492.7692,114.2157 C497.7593,121.462 497.0958,128.3155 486.8491,129.758 C484.9474,136.4596 480.0186,137.7279 475.0849,132.8344 C472.7366,140.4125 467.8496,141.124 462.3184,136.0449 C459.654,142.0975 455.5028,142.5083 450.8219,138.3053 C445.8387,142.7297 441.8949,140.3883 440.5142,134.651 C435.1355,140.66 430.7204,140.6103 427.1776,132.8702 C423.5172,136.694 419.2933,136.6851 417.1149,131.2581 C406.2773,130.7031 403.4249,123.5824 408.3025,114.6759 C403.1789,105.6028 407.8059,100.488 416.9368,99.5539 " fill="#F1F1F1" style="stroke:#181818;stroke-width:0.5;"/><text fill="#000000" font-family="sans-serif" font-size="14" lengthAdjust="spacing" textLength="56" x="422.5" y="118.9951">network</text></g><g id="elem_GMN13"><path d="M230.5,6 L230.5,31.1328 A0,0 0 0 0 230.5,31.1328 L307.5,31.1328 L311.5,95.87 L315.5,31.1328 L392.5,31.1328 A0,0 0 0 0 392.5,31.1328 L392.5,16 L382.5,6 L230.5,6 A0,0 0 0 0 230.5,6 " fill="#FEFFDD" style="stroke:#181818;stroke-width:0.5;"/><path d="M382.5,6 L382.5,16 L392.5,16 L382.5,6 " fill="#FEFFDD" style="stroke:#181818;stroke-width:0.5;"/><text fill="#000000" font-family="sans-serif" font-size="13" lengthAdjust="spacing" textLength="141" x="236.5" y="23.0669">can2udp, can2mqtt ...</text></g><g id="elem_GMN16"><path d="M151,6 L151,31.1328 A0,0 0 0 0 151,31.1328 L164.5,31.1328 L168.5,95.87 L172.5,31.1328 L186,31.1328 A0,0 0 0 0 186,31.1328 L186,16 L176,6 L151,6 A0,0 0 0 0 151,6 " fill="#FEFFDD" style="stroke:#181818;stroke-width:0.5;"/><path d="M176,6 L176,16 L186,16 L176,6 " fill="#FEFFDD" style="stroke:#181818;stroke-width:0.5;"/><text fill="#000000" font-family="sans-serif" font-size="13" lengthAdjust="spacing" textLength="14" x="157" y="23.0669">nil</text></g><!--MD5=[967f902172b42788d2ea99b5733d9748]
link software to p_ecu--><g id="link_software_p_ecu"><path d="M46.5,132.24 C46.5,148.71 46.5,173.61 46.5,191.61 " fill="none" id="software-to-p_ecu" style="stroke:#181818;stroke-width:1.0;"/><polygon fill="#181818" points="46.5,196.95,50.5,187.95,46.5,191.95,42.5,187.95,46.5,196.95" style="stroke:#181818;stroke-width:1.0;"/></g><!--MD5=[944a9919051af06c9da516e5271346d5]
link software to p_can_bus--><g id="link_software_p_can_bus"><path d="M86.05,114 C96.11,114 106.17,114 116.22,114 " fill="none" id="software-to-p_can_bus" style="stroke:#181818;stroke-width:1.0;stroke-dasharray:7.0,7.0;"/><polygon fill="#181818" points="121.48,114,112.48,110,116.48,114,112.48,118,121.48,114" style="stroke:#181818;stroke-width:1.0;"/></g><!--MD5=[c73247c0cc95a596e4602410d43e8243]
reverse link p_can_bus to can_bus_proxy--><g id="link_p_can_bus_can_bus_proxy"><path d="M220.81,114 C230.58,114 240.36,114 250.13,114 " fill="none" id="p_can_bus-backto-can_bus_proxy" style="stroke:#181818;stroke-width:1.0;stroke-dasharray:7.0,7.0;"/><polygon fill="#181818" points="215.7,114,224.7,118,220.7,114,224.7,110,215.7,114" style="stroke:#181818;stroke-width:1.0;"/></g><!--MD5=[da00fc4dd4398c6b0b46aeae34a02e64]
link can_bus_proxy to can_bus_proxy_host--><g id="link_can_bus_proxy_can_bus_proxy_host"><path d="M311.5,132.24 C311.5,148.71 311.5,173.61 311.5,191.61 " fill="none" id="can_bus_proxy-to-can_bus_proxy_host" style="stroke:#181818;stroke-width:1.0;"/><polygon fill="#181818" points="311.5,196.95,315.5,187.95,311.5,191.95,307.5,187.95,311.5,196.95" style="stroke:#181818;stroke-width:1.0;"/></g><!--MD5=[875cd073c4e1a88c6c8d0b681c4a7b4d]
link can_bus_proxy to network--><g id="link_can_bus_proxy_network"><path d="M372.58,114 C382.43,114 392.28,114 402.13,114 " fill="none" id="can_bus_proxy-to-network" style="stroke:#181818;stroke-width:1.0;stroke-dasharray:7.0,7.0;"/><polygon fill="#181818" points="407.28,114,398.28,110,402.28,114,398.28,118,407.28,114" style="stroke:#181818;stroke-width:1.0;"/></g><!--MD5=[5d6f224e27ebc3169db76ba7e7c53a0e]
@startuml
skinparam componentStyle rectangle

[software]
[p_ecu]
software - -> p_ecu

[p_can_bus]
software .ri.> p_can_bus

[can_bus_proxy]
p_can_bus <.ri. can_bus_proxy

[can_bus_proxy_host]
can_bus_proxy - -> can_bus_proxy_host

cloud network
can_bus_proxy .ri.> network

note top of [can_bus_proxy]
can2udp, can2mqtt ...
end note

note top of [p_can_bus]
nil
end note

@enduml

PlantUML version 1.2022.12(Sun Oct 23 20:12:26 CEST 2022)
(GPL source distribution)
Java Runtime: OpenJDK Runtime Environment
JVM: OpenJDK 64-Bit Server VM
Default Encoding: UTF-8
Language: en
Country: null
--></g></svg>