<?xml version="1.0" encoding="UTF-8" standalone="no"?>
<!-- Created with Inkscape (http://www.inkscape.org/) -->

<svg
   width="1600"
   height="1600"
   viewBox="0 0 423.33328 423.33328"
   version="1.1"
   id="svg1"
   inkscape:version="1.3 (0e150ed6c4, 2023-07-21)"
   sodipodi:docname="vintner-logo-bold.svg"
   inkscape:export-filename="vintner-logo-bold.png"
   inkscape:export-xdpi="96"
   inkscape:export-ydpi="96"
   xmlns:inkscape="http://www.inkscape.org/namespaces/inkscape"
   xmlns:sodipodi="http://sodipodi.sourceforge.net/DTD/sodipodi-0.dtd"
   xmlns="http://www.w3.org/2000/svg"
   xmlns:svg="http://www.w3.org/2000/svg">
  <sodipodi:namedview
     id="namedview1"
     pagecolor="#505050"
     bordercolor="#ffffff"
     borderopacity="1"
     inkscape:showpageshadow="0"
     inkscape:pageopacity="0"
     inkscape:pagecheckerboard="1"
     inkscape:deskcolor="#505050"
     inkscape:document-units="mm"
     inkscape:zoom="0.46772166"
     inkscape:cx="343.1528"
     inkscape:cy="674.54648"
     inkscape:window-width="2560"
     inkscape:window-height="1369"
     inkscape:window-x="2552"
     inkscape:window-y="797"
     inkscape:window-maximized="1"
     inkscape:current-layer="layer1" />
  <defs
     id="defs1">
    <inkscape:perspective
       sodipodi:type="inkscape:persp3d"
       inkscape:vp_x="0 : 211.66664 : 1"
       inkscape:vp_y="0 : 1000 : 0"
       inkscape:vp_z="423.33328 : 211.66664 : 1"
       inkscape:persp3d-origin="211.66664 : 141.11109 : 1"
       id="perspective3" />
    <clipPath
       clipPathUnits="userSpaceOnUse"
       id="clipEmfPath1">
      <path
         d="M 0,0 H 97.754923 V 97.434939 H 0 Z"
         id="path1" />
    </clipPath>
    <pattern
       id="EMFhbasepattern"
       patternUnits="userSpaceOnUse"
       width="6"
       height="6"
       x="0"
       y="0" />
  </defs>
  <g
     inkscape:label="picture"
     inkscape:groupmode="layer"
     id="layer1"
     inkscape:highlight-color="#f37fff">
    <rect
       style="display:inline;fill:#ffffff;fill-opacity:1;stroke:none;stroke-width:28.2157;stroke-linejoin:round;stroke-dasharray:none;stroke-opacity:1"
       id="rect10"
       width="423.33334"
       height="423.33334"
       x="-1.7763568e-15"
       y="-1.7763568e-15"
       ry="0"
       inkscape:label="background" />
    <circle
       style="fill:none;stroke:#000000;stroke-width:26.4583;stroke-linejoin:round;stroke-dasharray:none;stroke-opacity:1"
       id="path2"
       cx="210.86186"
       cy="12.05364"
       r="105.81039"
       inkscape:label="sun" />
    <rect
       style="fill:#ffffff;fill-opacity:1;stroke:#000000;stroke-width:26.45833333;stroke-linejoin:bevel;stroke-miterlimit:0;stroke-dasharray:none;stroke-opacity:1"
       id="rect3"
       width="163.49139"
       height="106.18864"
       x="292.03436"
       y="168.61122"
       ry="0"
       rx="0"
       inkscape:label="house" />
    <path
       style="fill:#000000;fill-opacity:1;stroke:#000000;stroke-width:26.45833333;stroke-linecap:butt;stroke-linejoin:round;stroke-miterlimit:4;stroke-dasharray:none;stroke-opacity:1"
       d="m 291.07071,170.5899 h 119.81812 l -61.87064,-35.72103 -61.80251,35.6817 z"
       id="path38"
       inkscape:label="roof" />
    <g
       id="g2"
       inkscape:label="hill-right"
       style="stroke-width:26.4583;stroke-dasharray:none">
      <circle
         style="fill:#ffffff;fill-opacity:1;stroke:#000000;stroke-width:26.4583;stroke-linejoin:round;stroke-dasharray:none;stroke-opacity:1"
         id="path2-6-2"
         cx="360.8638"
         cy="470.42841"
         r="211.92213" />
      <circle
         style="fill:#ffffff;fill-opacity:1;stroke:#000000;stroke-width:26.4583;stroke-linejoin:round;stroke-dasharray:none;stroke-opacity:1"
         id="path2-6-5-6"
         cx="360.8638"
         cy="470.42841"
         r="147.1646" />
      <circle
         style="display:none;fill:#ffffff;fill-opacity:1;stroke:#000000;stroke-width:26.4583;stroke-linejoin:round;stroke-dasharray:none;stroke-opacity:1"
         id="path2-6-5-5-0"
         cx="360.8638"
         cy="470.42841"
         r="77.889099" />
    </g>
    <g
       id="g3"
       inkscape:label="hill-left"
       style="stroke-width:26.4583;stroke-dasharray:none">
      <circle
         style="fill:#ffffff;fill-opacity:1;stroke:#000000;stroke-width:26.4583;stroke-linejoin:round;stroke-dasharray:none;stroke-opacity:1"
         id="path2-6"
         cx="102.87116"
         cy="471.56323"
         r="211.92213" />
      <circle
         style="fill:#ffffff;fill-opacity:1;stroke:#000000;stroke-width:26.4583;stroke-linejoin:round;stroke-dasharray:none;stroke-opacity:1"
         id="path2-6-5"
         cx="102.87116"
         cy="471.56323"
         r="147.1646" />
      <circle
         style="display:inline;fill:#ffffff;fill-opacity:1;stroke:#000000;stroke-width:26.4583;stroke-linejoin:round;stroke-dasharray:none;stroke-opacity:1"
         id="path2-6-5-5"
         cx="102.87116"
         cy="471.56323"
         r="77.889099" />
    </g>
    <ellipse
       style="fill:#000000;fill-opacity:1;stroke:none;stroke-width:0;stroke-linejoin:miter;stroke-miterlimit:0;stroke-dasharray:none;stroke-opacity:1"
       id="path9"
       cx="57.591373"
       cy="227.12271"
       rx="14.033597"
       ry="36.48671"
       inkscape:label="tree-left" />
    <ellipse
       style="fill:#000000;fill-opacity:1;stroke:none;stroke-width:0;stroke-linejoin:miter;stroke-miterlimit:0;stroke-dasharray:none;stroke-opacity:1"
       id="path9-7"
       cx="102.02961"
       cy="220.7366"
       rx="14.033597"
       ry="36.48671"
       inkscape:label="tree-center" />
    <ellipse
       style="fill:#000000;fill-opacity:1;stroke:none;stroke-width:0;stroke-linejoin:miter;stroke-miterlimit:0;stroke-dasharray:none;stroke-opacity:1"
       id="path9-7-5"
       cx="148.03065"
       cy="226.33833"
       rx="14.033597"
       ry="36.48671"
       inkscape:label="tree-right" />
    <g
       id="g10"
       inkscape:label="sky">
      <path
         style="fill:none;stroke:#000000;stroke-width:13.2292;stroke-linecap:round;stroke-linejoin:miter;stroke-dasharray:none;stroke-opacity:1"
         d="M 52.868629,102.07695 H 86.468627"
         id="path10" />
      <path
         style="fill:none;stroke:#000000;stroke-width:13.2292;stroke-linecap:round;stroke-linejoin:miter;stroke-dasharray:none;stroke-opacity:1"
         d="M 65.260787,141.69062 H 119.50831"
         id="path10-9"
         sodipodi:nodetypes="cc" />
      <path
         style="fill:none;stroke:#000000;stroke-width:13.2292;stroke-linecap:round;stroke-linejoin:miter;stroke-dasharray:none;stroke-opacity:1"
         d="m 153.99932,170.74862 h 90.45139"
         id="path10-9-5"
         sodipodi:nodetypes="cc" />
      <path
         style="fill:none;stroke:#000000;stroke-width:13.2292;stroke-linecap:round;stroke-linejoin:miter;stroke-dasharray:none;stroke-opacity:1"
         d="m 194.95132,210.73793 h 32.13381"
         id="path10-9-5-0"
         sodipodi:nodetypes="cc" />
      <path
         style="fill:none;stroke:#000000;stroke-width:13.2292;stroke-linecap:round;stroke-linejoin:miter;stroke-dasharray:none;stroke-opacity:1"
         d="m 215.37121,248.67361 h 29.07452"
         id="path10-9-5-0-1"
         sodipodi:nodetypes="cc" />
      <path
         style="fill:none;stroke:#000000;stroke-width:13.2292;stroke-linecap:round;stroke-linejoin:miter;stroke-dasharray:none;stroke-opacity:1"
         d="m 317.99623,113.47338 h 51.70193"
         id="path10-9-5-0-1-1"
         sodipodi:nodetypes="cc" />
      <path
         style="fill:none;stroke:#000000;stroke-width:13.2292;stroke-linecap:round;stroke-linejoin:miter;stroke-dasharray:none;stroke-opacity:1"
         d="m 345.46421,68.388556 h 27.6603"
         id="path10-9-5-0-1-1-3"
         sodipodi:nodetypes="cc" />
    </g>
  </g>
  <g
     inkscape:groupmode="layer"
     id="layer2"
     inkscape:label="border">
    <rect
       style="display:none;fill:#ffffff;fill-opacity:1;stroke:none;stroke-width:28.2157;stroke-linejoin:round;stroke-dasharray:none;stroke-opacity:1"
       id="rect2"
       width="423.33334"
       height="423.33334"
       x="-1.7763568e-15"
       y="-1.7763568e-15"
       ry="0"
       inkscape:label="background" />
    <path
       d="M 0,0 V 423.33333 H 423.33333 V 0 Z M 62.856628,13.229167 H 360.56817 c 1.71835,0 3.41569,0.08646 5.08806,0.255281 1.67238,0.168825 3.31999,0.41985 4.9382,0.749309 1.61822,0.329458 3.20715,0.737144 4.76302,1.219047 1.55587,0.481902 3.07874,1.038341 4.56406,1.664497 1.48533,0.626157 2.93319,1.322409 4.33979,2.084628 1.4066,0.762219 2.77155,1.590377 4.09122,2.480468 1.31968,0.890092 2.59381,1.841732 3.81837,2.851506 1.22457,1.009774 2.39997,2.077506 3.52124,3.198771 1.12126,1.121265 2.18848,2.296149 3.19825,3.520715 1.00977,1.224567 1.96193,2.498695 2.85202,3.818372 0.89009,1.319677 1.71825,2.685142 2.48047,4.09174 0.76222,1.406598 1.45847,2.854459 2.08463,4.339787 0.62616,1.485327 1.18208,3.008195 1.66398,4.564062 0.4819,1.555867 0.88959,3.144801 1.21905,4.763017 0.32946,1.618216 0.581,3.265308 0.74982,4.937683 0.16883,1.672375 0.25528,3.370236 0.25528,5.088578 V 360.56817 c 0,1.71835 -0.0865,3.41569 -0.25528,5.08806 -0.16882,1.67238 -0.42036,3.31999 -0.74982,4.9382 -0.32946,1.61822 -0.73715,3.20715 -1.21905,4.76302 -0.4819,1.55587 -1.03782,3.07874 -1.66398,4.56406 -0.62616,1.48533 -1.32241,2.93319 -2.08463,4.33979 -0.76222,1.4066 -1.59038,2.77155 -2.48047,4.09122 -0.89009,1.31968 -1.84225,2.59381 -2.85202,3.81837 -1.00977,1.22457 -2.07699,2.39997 -3.19825,3.52124 -1.12127,1.12126 -2.29667,2.18848 -3.52124,3.19825 -1.22456,1.00977 -2.49869,1.96193 -3.81837,2.85202 -1.31967,0.89009 -2.68462,1.71825 -4.09122,2.48047 -1.4066,0.76222 -2.85446,1.45847 -4.33979,2.08463 -1.48532,0.62616 -3.00819,1.18208 -4.56406,1.66398 -1.55587,0.4819 -3.1448,0.88959 -4.76302,1.21905 -1.61821,0.32946 -3.26582,0.581 -4.9382,0.74982 -1.67237,0.16883 -3.36971,0.25528 -5.08806,0.25528 H 62.856628 c -1.718342,0 -3.416203,-0.0865 -5.088578,-0.25528 -1.672375,-0.16882 -3.319467,-0.42036 -4.937683,-0.74982 -1.618216,-0.32946 -3.20715,-0.73715 -4.763017,-1.21905 -1.555867,-0.4819 -3.078735,-1.03782 -4.564062,-1.66398 -1.485328,-0.62616 -2.933189,-1.32241 -4.339787,-2.08463 -1.406598,-0.76222 -2.772063,-1.59038 -4.09174,-2.48047 -1.319677,-0.89009 -2.593805,-1.84225 -3.818372,-2.85202 -1.224566,-1.00977 -2.39945,-2.07699 -3.520715,-3.19825 -1.121265,-1.12127 -2.188997,-2.29667 -3.198771,-3.52124 -1.009774,-1.22456 -1.961414,-2.49869 -2.851506,-3.81837 -0.890091,-1.31967 -1.718249,-2.68462 -2.480468,-4.09122 -0.762219,-1.4066 -1.458471,-2.85446 -2.084628,-4.33979 -0.626156,-1.48532 -1.182595,-3.00819 -1.664497,-4.56406 -0.481903,-1.55587 -0.889589,-3.1448 -1.219047,-4.76302 -0.329459,-1.61821 -0.580484,-3.26582 -0.749309,-4.9382 -0.168824,-1.67237 -0.255281,-3.36971 -0.255281,-5.08806 V 62.856628 c 0,-1.718342 0.08646,-3.416203 0.255281,-5.088578 0.168825,-1.672375 0.41985,-3.319467 0.749309,-4.937683 0.329458,-1.618216 0.737144,-3.20715 1.219047,-4.763017 0.481902,-1.555867 1.038341,-3.078735 1.664497,-4.564062 0.626157,-1.485328 1.322409,-2.933189 2.084628,-4.339787 0.762219,-1.406598 1.590377,-2.772063 2.480468,-4.09174 0.890092,-1.319677 1.841732,-2.593805 2.851506,-3.818372 1.009774,-1.224566 2.077506,-2.39945 3.198771,-3.520715 1.121265,-1.121265 2.296149,-2.188997 3.520715,-3.198771 1.224567,-1.009774 2.498695,-1.961414 3.818372,-2.851506 1.319677,-0.890091 2.685142,-1.718249 4.09174,-2.480468 1.406598,-0.762219 2.854459,-1.458471 4.339787,-2.084628 1.485327,-0.626156 3.008195,-1.182595 4.564062,-1.664497 1.555867,-0.481903 3.144801,-0.889589 4.763017,-1.219047 1.618216,-0.329459 3.265308,-0.580484 4.937683,-0.749309 1.672375,-0.168824 3.370236,-0.255281 5.088578,-0.255281 z"
       style="display:inline;fill:#ffffff;stroke-width:28.2157;stroke-linejoin:round"
       id="path5" />
    <rect
       style="display:inline;fill:none;stroke:#000000;stroke-width:26.4583;stroke-linejoin:round;stroke-dasharray:none;stroke-opacity:1"
       id="rect1"
       width="396.96634"
       height="396.96637"
       x="13.22915"
       y="13.22915"
       ry="49.627281"
       inkscape:label="border" />
  </g>
</svg>
