<?xml version="1.0" encoding="us-ascii" standalone="no"?><svg xmlns="http://www.w3.org/2000/svg" xmlns:xlink="http://www.w3.org/1999/xlink" contentStyleType="text/css" height="883px" preserveAspectRatio="none" style="width:1217px;height:883px;background:#FFFFFF;" version="1.1" viewBox="0 0 1217 883" width="1217px" zoomAndPan="magnify"><defs/><g><!--cluster cloud--><g id="cluster_cloud"><rect fill="none" height="250" rx="2.5" ry="2.5" style="stroke:#181818;stroke-width:1.0;" width="288" x="41" y="627"/><text fill="#000000" font-family="sans-serif" font-size="14" font-weight="bold" lengthAdjust="spacing" textLength="44" x="163" y="641.9951">cloud</text></g><!--cluster location_a--><g id="cluster_location_a"><rect fill="none" height="557" rx="2.5" ry="2.5" style="stroke:#181818;stroke-width:1.0;" width="590" x="7" y="7"/><text fill="#000000" font-family="sans-serif" font-size="14" font-weight="bold" lengthAdjust="spacing" textLength="84" x="260" y="21.9951">location_a</text></g><!--cluster location_b--><g id="cluster_location_b"><rect fill="none" height="559" rx="2.5" ry="2.5" style="stroke:#181818;stroke-width:1.0;" width="590" x="621" y="172"/><text fill="#000000" font-family="sans-serif" font-size="14" font-weight="bold" lengthAdjust="spacing" textLength="84" x="874" y="186.9951">location_b</text></g><!--entity cloud_service--><g id="elem_cloud_service"><rect fill="#F1F1F1" height="52.5938" rx="2.5" ry="2.5" style="stroke:#181818;stroke-width:0.5;" width="249" x="60.5" y="662"/><text fill="#000000" font-family="sans-serif" font-size="14" font-style="italic" lengthAdjust="spacing" textLength="229" x="70.5" y="684.9951">&#171;example.nodes.Cloud.Service&#187;</text><text fill="#000000" font-family="sans-serif" font-size="14" lengthAdjust="spacing" textLength="96" x="137" y="701.292">cloud_service</text></g><!--entity cloud_provider--><g id="elem_cloud_provider"><rect fill="#F1F1F1" height="52.5938" rx="2.5" ry="2.5" style="stroke:#181818;stroke-width:0.5;" width="255" x="57.5" y="808"/><text fill="#000000" font-family="sans-serif" font-size="14" font-style="italic" lengthAdjust="spacing" textLength="235" x="67.5" y="830.9951">&#171;example.nodes.Cloud.Provider&#187;</text><text fill="#000000" font-family="sans-serif" font-size="14" lengthAdjust="spacing" textLength="106" x="132" y="847.292">cloud_provider</text></g><!--entity a_ecu_software--><g id="elem_a_ecu_software"><rect fill="#F1F1F1" height="52.5938" rx="2.5" ry="2.5" style="stroke:#181818;stroke-width:0.5;" width="247" x="333.5" y="42"/><text fill="#000000" font-family="sans-serif" font-size="14" font-style="italic" lengthAdjust="spacing" textLength="227" x="343.5" y="64.9951">&#171;example.nodes.ECU.Software&#187;</text><text fill="#000000" font-family="sans-serif" font-size="14" lengthAdjust="spacing" textLength="110" x="402" y="81.292">a_ecu_software</text></g><!--entity a_ecu_runtime--><g id="elem_a_ecu_runtime"><rect fill="#F1F1F1" height="52.5938" rx="2.5" ry="2.5" style="stroke:#181818;stroke-width:0.5;" width="244" x="262" y="207"/><text fill="#000000" font-family="sans-serif" font-size="14" font-style="italic" lengthAdjust="spacing" textLength="224" x="272" y="229.9951">&#171;example.nodes.ECU.Runtime&#187;</text><text fill="#000000" font-family="sans-serif" font-size="14" lengthAdjust="spacing" textLength="104" x="332" y="246.292">a_ecu_runtime</text></g><!--entity a_ecu_hardware--><g id="elem_a_ecu_hardware"><rect fill="#F1F1F1" height="52.5938" rx="2.5" ry="2.5" style="stroke:#181818;stroke-width:0.5;" width="254" x="290" y="351"/><text fill="#000000" font-family="sans-serif" font-size="14" font-style="italic" lengthAdjust="spacing" textLength="234" x="300" y="373.9951">&#171;example.nodes.ECU.Hardware&#187;</text><text fill="#000000" font-family="sans-serif" font-size="14" lengthAdjust="spacing" textLength="113" x="360.5" y="390.292">a_ecu_hardware</text></g><!--entity a_can_bus--><g id="elem_a_can_bus"><rect fill="#F1F1F1" height="52.5938" rx="2.5" ry="2.5" style="stroke:#181818;stroke-width:0.5;" width="172" x="331" y="495"/><text fill="#000000" font-family="sans-serif" font-size="14" font-style="italic" lengthAdjust="spacing" textLength="152" x="341" y="517.9951">&#171;sofdcar.nodes.CAN&#187;</text><text fill="#000000" font-family="sans-serif" font-size="14" lengthAdjust="spacing" textLength="72" x="381" y="534.292">a_can_bus</text></g><!--entity a_can_bridge--><g id="elem_a_can_bridge"><rect fill="#F1F1F1" height="52.5938" rx="2.5" ry="2.5" style="stroke:#181818;stroke-width:0.5;" width="232" x="23" y="351"/><text fill="#000000" font-family="sans-serif" font-size="14" font-style="italic" lengthAdjust="spacing" textLength="212" x="33" y="373.9951">&#171;example.nodes.CAN.Bridge&#187;</text><text fill="#000000" font-family="sans-serif" font-size="14" lengthAdjust="spacing" textLength="94" x="92" y="390.292">a_can_bridge</text></g><!--entity b_ecu_software--><g id="elem_b_ecu_software"><rect fill="#F1F1F1" height="52.5938" rx="2.5" ry="2.5" style="stroke:#181818;stroke-width:0.5;" width="247" x="874.5" y="207"/><text fill="#000000" font-family="sans-serif" font-size="14" font-style="italic" lengthAdjust="spacing" textLength="227" x="884.5" y="229.9951">&#171;example.nodes.ECU.Software&#187;</text><text fill="#000000" font-family="sans-serif" font-size="14" lengthAdjust="spacing" textLength="112" x="942" y="246.292">b_ecu_software</text></g><!--entity b_ecu_runtime--><g id="elem_b_ecu_runtime"><rect fill="#F1F1F1" height="52.5938" rx="2.5" ry="2.5" style="stroke:#181818;stroke-width:0.5;" width="244" x="876" y="351"/><text fill="#000000" font-family="sans-serif" font-size="14" font-style="italic" lengthAdjust="spacing" textLength="224" x="886" y="373.9951">&#171;example.nodes.ECU.Runtime&#187;</text><text fill="#000000" font-family="sans-serif" font-size="14" lengthAdjust="spacing" textLength="106" x="945" y="390.292">b_ecu_runtime</text></g><!--entity b_ecu_hardware--><g id="elem_b_ecu_hardware"><rect fill="#F1F1F1" height="52.5938" rx="2.5" ry="2.5" style="stroke:#181818;stroke-width:0.5;" width="254" x="904" y="495"/><text fill="#000000" font-family="sans-serif" font-size="14" font-style="italic" lengthAdjust="spacing" textLength="234" x="914" y="517.9951">&#171;example.nodes.ECU.Hardware&#187;</text><text fill="#000000" font-family="sans-serif" font-size="14" lengthAdjust="spacing" textLength="115" x="973.5" y="534.292">b_ecu_hardware</text></g><!--entity b_can_bus--><g id="elem_b_can_bus"><rect fill="#F1F1F1" height="52.5938" rx="2.5" ry="2.5" style="stroke:#181818;stroke-width:0.5;" width="172" x="945" y="662"/><text fill="#000000" font-family="sans-serif" font-size="14" font-style="italic" lengthAdjust="spacing" textLength="152" x="955" y="684.9951">&#171;sofdcar.nodes.CAN&#187;</text><text fill="#000000" font-family="sans-serif" font-size="14" lengthAdjust="spacing" textLength="74" x="994" y="701.292">b_can_bus</text></g><!--entity b_can_bridge--><g id="elem_b_can_bridge"><rect fill="#F1F1F1" height="52.5938" rx="2.5" ry="2.5" style="stroke:#181818;stroke-width:0.5;" width="232" x="637" y="495"/><text fill="#000000" font-family="sans-serif" font-size="14" font-style="italic" lengthAdjust="spacing" textLength="212" x="647" y="517.9951">&#171;example.nodes.CAN.Bridge&#187;</text><text fill="#000000" font-family="sans-serif" font-size="14" lengthAdjust="spacing" textLength="96" x="705" y="534.292">b_can_bridge</text></g><!--link cloud_service to cloud_provider--><g id="link_cloud_service_cloud_provider"><path d="M185,715.244 C185,741.455 185,781.849 185,807.9786 " fill="none" id="cloud_service-cloud_provider" style="stroke:#181818;stroke-width:1.0;"/><text fill="#000000" font-family="sans-serif" font-size="13" lengthAdjust="spacing" textLength="28" x="193" y="767.0669">host</text><path d="M192.0711,754.5708 A10,10 0 0 0 177.9289 754.5708" fill="none" style="stroke:#181818;stroke-width:1.5;"/><ellipse cx="185" cy="761.6418" fill="#FFFFFF" rx="6" ry="6" style="stroke:#181818;stroke-width:1.5;"/></g><!--link a_ecu_software to a_ecu_runtime--><g id="link_a_ecu_software_a_ecu_runtime"><path d="M445.433,95.328 C431.764,125.849 409.158,176.324 395.513,206.793 " fill="none" id="a_ecu_software-a_ecu_runtime" style="stroke:#181818;stroke-width:1.0;"/><text fill="#000000" font-family="sans-serif" font-size="13" lengthAdjust="spacing" textLength="28" x="440" y="145.0669">host</text><path d="M429.8076,147.5168 A10,10 0 0 0 416.9008 141.7364" fill="none" style="stroke:#181818;stroke-width:1.5;"/><ellipse cx="420.464" cy="151.08" fill="#FFFFFF" rx="6" ry="6" style="stroke:#181818;stroke-width:1.5;"/></g><!--link a_ecu_software to a_can_bus--><g id="link_a_ecu_software_a_can_bus"><path d="M477.598,95.188 C520.907,152.525 613.257,294.505 561,404 C541.817,444.195 501.242,474.997 468.037,494.804 " fill="none" id="a_ecu_software-a_can_bus" style="stroke:#181818;stroke-width:1.0;"/><text fill="#000000" font-family="sans-serif" font-size="13" lengthAdjust="spacing" textLength="23" x="585" y="310.0669">can</text><path d="M559.1558,220.8782 A10,10 0 0 0 545.9797 226.0152" fill="none" style="stroke:#181818;stroke-width:1.5;"/><ellipse cx="555.1363" cy="230.0347" fill="#FFFFFF" rx="6" ry="6" style="stroke:#181818;stroke-width:1.5;"/></g><!--link a_ecu_software to b_ecu_software--><g id="link_a_ecu_software_b_ecu_software"><path d="M541.829,95.058 C643.233,125.611 811.911,176.432 913.271,206.972 " fill="none" id="a_ecu_software-b_ecu_software" style="stroke:#181818;stroke-width:1.0;"/><text fill="#000000" font-family="sans-serif" font-size="13" lengthAdjust="spacing" textLength="51" x="752" y="145.0669">connect</text><path d="M722.836,142.2095 A10,10 0 0 0 718.7562 155.7504" fill="none" style="stroke:#181818;stroke-width:1.5;"/><ellipse cx="727.5665" cy="151.0199" fill="#FFFFFF" rx="6" ry="6" style="stroke:#181818;stroke-width:1.5;"/></g><!--link a_ecu_runtime to a_ecu_hardware--><g id="link_a_ecu_runtime_a_ecu_hardware"><path d="M389.976,260.215 C395.957,285.95 405.103,325.309 411.068,350.976 " fill="none" id="a_ecu_runtime-a_ecu_hardware" style="stroke:#181818;stroke-width:1.0;"/><text fill="#000000" font-family="sans-serif" font-size="13" lengthAdjust="spacing" textLength="28" x="412" y="310.0669">host</text><path d="M405.815,297.1329 A10,10 0 0 0 392.0399 300.334" fill="none" style="stroke:#181818;stroke-width:1.5;"/><ellipse cx="400.528" cy="305.621" fill="#FFFFFF" rx="6" ry="6" style="stroke:#181818;stroke-width:1.5;"/></g><!--link a_ecu_hardware to a_can_bus--><g id="link_a_ecu_hardware_a_can_bus"><path d="M417,404.215 C417,429.95 417,469.309 417,494.976 " fill="none" id="a_ecu_hardware-a_can_bus" style="stroke:#181818;stroke-width:1.0;"/><text fill="#000000" font-family="sans-serif" font-size="13" lengthAdjust="spacing" textLength="23" x="425" y="454.0669">can</text><path d="M424.0711,442.5499 A10,10 0 0 0 409.9289 442.5499" fill="none" style="stroke:#181818;stroke-width:1.5;"/><ellipse cx="417" cy="449.621" fill="#FFFFFF" rx="6" ry="6" style="stroke:#181818;stroke-width:1.5;"/></g><!--link a_can_bridge to a_can_bus--><g id="link_a_can_bridge_a_can_bus"><path d="M189.022,404.051 C239.358,429.762 316.552,469.192 366.912,494.915 " fill="none" id="a_can_bridge-a_can_bus" style="stroke:#181818;stroke-width:1.0;"/><text fill="#000000" font-family="sans-serif" font-size="13" lengthAdjust="spacing" textLength="23" x="311" y="454.0669">can</text><path d="M274.8774,439.9648 A10,10 0 0 0 268.4443 452.5591" fill="none" style="stroke:#181818;stroke-width:1.5;"/><ellipse cx="277.958" cy="449.4785" fill="#FFFFFF" rx="6" ry="6" style="stroke:#181818;stroke-width:1.5;"/></g><!--link a_can_bridge to cloud_service--><g id="link_a_can_bridge_cloud_service"><path d="M142.804,404.05 C151.457,462.177 172.535,603.765 181.192,661.92 " fill="none" id="a_can_bridge-cloud_service" style="stroke:#181818;stroke-width:1.0;"/><text fill="#000000" font-family="sans-serif" font-size="13" lengthAdjust="spacing" textLength="34" x="176" y="526.0669">cloud</text><path d="M167.9493,524.9393 A10,10 0 0 0 153.9613 527.0217" fill="none" style="stroke:#181818;stroke-width:1.5;"/><ellipse cx="161.9965" cy="532.9745" fill="#FFFFFF" rx="6" ry="6" style="stroke:#181818;stroke-width:1.5;"/></g><!--link b_ecu_software to b_ecu_runtime--><g id="link_b_ecu_software_b_ecu_runtime"><path d="M998,260.215 C998,285.95 998,325.309 998,350.976 " fill="none" id="b_ecu_software-b_ecu_runtime" style="stroke:#181818;stroke-width:1.0;"/><text fill="#000000" font-family="sans-serif" font-size="13" lengthAdjust="spacing" textLength="28" x="1006" y="310.0669">host</text><path d="M1005.0711,298.5499 A10,10 0 0 0 990.9289 298.5499" fill="none" style="stroke:#181818;stroke-width:1.5;"/><ellipse cx="998" cy="305.621" fill="#FFFFFF" rx="6" ry="6" style="stroke:#181818;stroke-width:1.5;"/></g><!--link b_ecu_software to b_can_bus--><g id="link_b_ecu_software_b_can_bus"><path d="M1041.22,260.052 C1072.58,280.763 1113.61,312.735 1138,351 C1173.57,406.819 1167.48,429.359 1176,495 C1180.4,528.938 1190.86,541.171 1176,572 C1156.79,611.865 1116.38,642.226 1083.09,661.793 " fill="none" id="b_ecu_software-b_can_bus" style="stroke:#181818;stroke-width:1.0;"/><text fill="#000000" font-family="sans-serif" font-size="13" lengthAdjust="spacing" textLength="23" x="1180" y="454.0669">can</text><path d="M1172.7578,411.0414 A10,10 0 0 0 1158.8684 413.7027" fill="none" style="stroke:#181818;stroke-width:1.5;"/><ellipse cx="1167.1438" cy="419.3167" fill="#FFFFFF" rx="6" ry="6" style="stroke:#181818;stroke-width:1.5;"/></g><!--link b_ecu_runtime to b_ecu_hardware--><g id="link_b_ecu_runtime_b_ecu_hardware"><path d="M1003.98,404.215 C1009.96,429.95 1019.1,469.309 1025.07,494.976 " fill="none" id="b_ecu_runtime-b_ecu_hardware" style="stroke:#181818;stroke-width:1.0;"/><text fill="#000000" font-family="sans-serif" font-size="13" lengthAdjust="spacing" textLength="28" x="1025" y="454.0669">host</text><path d="M1019.8162,441.1332 A10,10 0 0 0 1006.041 444.3335" fill="none" style="stroke:#181818;stroke-width:1.5;"/><ellipse cx="1014.5288" cy="449.621" fill="#FFFFFF" rx="6" ry="6" style="stroke:#181818;stroke-width:1.5;"/></g><!--link b_ecu_hardware to b_can_bus--><g id="link_b_ecu_hardware_b_can_bus"><path d="M1031,548.281 C1031,579.279 1031,630.983 1031,661.9 " fill="none" id="b_ecu_hardware-b_can_bus" style="stroke:#181818;stroke-width:1.0;"/><text fill="#000000" font-family="sans-serif" font-size="13" lengthAdjust="spacing" textLength="23" x="1039" y="600.0669">can</text><path d="M1038.0711,598.0498 A10,10 0 0 0 1023.9289 598.0498" fill="none" style="stroke:#181818;stroke-width:1.5;"/><ellipse cx="1031" cy="605.1209" fill="#FFFFFF" rx="6" ry="6" style="stroke:#181818;stroke-width:1.5;"/></g><!--link b_can_bridge to b_can_bus--><g id="link_b_can_bridge_b_can_bus"><path d="M796.132,548.1 C848.291,579.058 935.563,630.856 987.766,661.84 " fill="none" id="b_can_bridge-b_can_bus" style="stroke:#181818;stroke-width:1.0;"/><text fill="#000000" font-family="sans-serif" font-size="13" lengthAdjust="spacing" textLength="23" x="908" y="600.0669">can</text><path d="M889.4609,595.2705 A10,10 0 0 0 882.2428 607.4319" fill="none" style="stroke:#181818;stroke-width:1.5;"/><ellipse cx="891.9325" cy="604.9603" fill="#FFFFFF" rx="6" ry="6" style="stroke:#181818;stroke-width:1.5;"/></g><!--link b_can_bridge to cloud_service--><g id="link_b_can_bridge_cloud_service"><path d="M674.2,548.076 C649.535,555.928 622.183,564.477 597,572 C488.633,604.373 363.439,639.092 279.762,661.916 " fill="none" id="b_can_bridge-cloud_service" style="stroke:#181818;stroke-width:1.0;"/><text fill="#000000" font-family="sans-serif" font-size="13" lengthAdjust="spacing" textLength="34" x="572" y="600.0669">cloud</text><path d="M437.8457,625.4277 A10,10 0 0 0 434.0111 611.8154" fill="none" style="stroke:#181818;stroke-width:1.5;"/><ellipse cx="429.1223" cy="620.5389" fill="#FFFFFF" rx="6" ry="6" style="stroke:#181818;stroke-width:1.5;"/></g><!--SRC=[bP91JyCW5CVlV0goavSrdfTboLnCF2t6nfCn3Gzm8r9eW4wDyRlRbdOh6pXxetq_-FDx3_ikL4KCAJ7LPQKLLovtNv9ZmwaZQYSvGiSbdb6fQpR3t-YbMnMMcuEW_1Klb_oJb9NacTACsspJbhFSbrUhWQ-CFWZ6JMh3OrzlTloCSwMcn0cj2jA5auBJkh3wpNqG4qc_tpndULzjmprlQkL4cS2VVF54xubXwTCV-ghdAL45rBP5cqinIinWjTwE22FOBjQhzJQxwsf9RUYqOQ8sJDA6YTfmLHkcQ2CKF2aylxcTu_3Lu0NUQ-jGE7vF1YF-6-oltK3DAig4ZMv1hLGp5XIcZ8A7jeN9nx-9v5Dx_ak4FLhuRmH9XxE6nC4m52uT8Ue84SVBmyuDhXDHnry0]--></g></svg>