<svg xmlns="http://www.w3.org/2000/svg" xmlns:xlink="http://www.w3.org/1999/xlink" contentStyleType="text/css" height="810px" preserveAspectRatio="none" style="width:1177px;height:810px;" version="1.1" viewBox="0 0 1177 810" width="1177px" zoomAndPan="magnify"><defs/><g><!--cluster cloud--><g id="cluster_cloud"><rect fill="none" height="235.19" rx="2.5" ry="2.5" style="stroke:#000000;stroke-width:1.0;stroke-dasharray:7.0,7.0;" width="278" x="112" y="569.37"/><text fill="#000000" font-family="sans-serif" font-size="14" lengthAdjust="spacing" textLength="37.9121" x="232.0439" y="584.3651">cloud</text></g><!--cluster location_a--><g id="cluster_location_a"><rect fill="none" height="513.37" rx="2.5" ry="2.5" style="stroke:#000000;stroke-width:1.0;stroke-dasharray:7.0,7.0;" width="570" x="7" y="7"/><text fill="#000000" font-family="sans-serif" font-size="14" lengthAdjust="spacing" textLength="71.1279" x="256.436" y="21.9951">location_a</text></g><!--cluster location_b--><g id="cluster_location_b"><rect fill="none" height="515.38" rx="2.5" ry="2.5" style="stroke:#000000;stroke-width:1.0;stroke-dasharray:7.0,7.0;" width="570" x="601" y="157.59"/><text fill="#000000" font-family="sans-serif" font-size="14" lengthAdjust="spacing" textLength="71.4355" x="850.2822" y="172.5851">location_b</text></g><!--entity node_cloud_service--><g id="elem_node_cloud_service"><rect fill="#F1F1F1" height="52.5938" rx="2.5" ry="2.5" style="stroke:#000000;stroke-width:1.5;" width="238.7432" x="131.63" y="604.37"/><text fill="#000000" font-family="sans-serif" font-size="14" lengthAdjust="spacing" textLength="95.0605" x="141.63" y="627.3651">cloud_service</text><text fill="#000000" font-family="sans-serif" font-size="14" lengthAdjust="spacing" textLength="218.7432" x="141.63" y="643.662">(example.nodes.Cloud.Service)</text></g><!--entity node_cloud_provider--><g id="elem_node_cloud_provider"><rect fill="#F1F1F1" height="52.5938" rx="2.5" ry="2.5" style="stroke:#000000;stroke-width:1.5;" width="245.1963" x="128.4" y="735.97"/><text fill="#000000" font-family="sans-serif" font-size="14" lengthAdjust="spacing" textLength="103.5508" x="138.4" y="758.9651">cloud_provider</text><text fill="#000000" font-family="sans-serif" font-size="14" lengthAdjust="spacing" textLength="225.1963" x="138.4" y="775.262">(example.nodes.Cloud.Provider)</text></g><!--entity node_a_ecu_software--><g id="elem_node_a_ecu_software"><rect fill="#F1F1F1" height="52.5938" rx="2.5" ry="2.5" style="stroke:#000000;stroke-width:1.5;" width="238.1484" x="322.93" y="42"/><text fill="#000000" font-family="sans-serif" font-size="14" lengthAdjust="spacing" textLength="108.4385" x="332.93" y="64.9951">a_ecu_software</text><text fill="#000000" font-family="sans-serif" font-size="14" lengthAdjust="spacing" textLength="218.1484" x="332.93" y="81.292">(example.nodes.ECU.Software)</text></g><!--entity node_a_ecu_runtime--><g id="elem_node_a_ecu_runtime"><rect fill="#F1F1F1" height="52.5938" rx="2.5" ry="2.5" style="stroke:#000000;stroke-width:1.5;" width="234.9834" x="257.51" y="192.59"/><text fill="#000000" font-family="sans-serif" font-size="14" lengthAdjust="spacing" textLength="102.8945" x="267.51" y="215.5851">a_ecu_runtime</text><text fill="#000000" font-family="sans-serif" font-size="14" lengthAdjust="spacing" textLength="214.9834" x="267.51" y="231.882">(example.nodes.ECU.Runtime)</text></g><!--entity node_a_ecu_hardware--><g id="elem_node_a_ecu_hardware"><rect fill="#F1F1F1" height="52.5938" rx="2.5" ry="2.5" style="stroke:#000000;stroke-width:1.5;" width="244.0273" x="279.99" y="322.18"/><text fill="#000000" font-family="sans-serif" font-size="14" lengthAdjust="spacing" textLength="114.2559" x="289.99" y="345.1751">a_ecu_hardware</text><text fill="#000000" font-family="sans-serif" font-size="14" lengthAdjust="spacing" textLength="224.0273" x="289.99" y="361.472">(example.nodes.ECU.Hardware)</text></g><!--entity node_a_can_bus--><g id="elem_node_a_can_bus"><rect fill="#F1F1F1" height="52.5938" rx="2.5" ry="2.5" style="stroke:#000000;stroke-width:1.5;" width="163.5889" x="320.21" y="451.78"/><text fill="#000000" font-family="sans-serif" font-size="14" lengthAdjust="spacing" textLength="72.7822" x="330.21" y="474.7751">a_can_bus</text><text fill="#000000" font-family="sans-serif" font-size="14" lengthAdjust="spacing" textLength="143.5889" x="330.21" y="491.072">(sofdcar.nodes.CAN)</text></g><!--entity node_a_can_bridge--><g id="elem_node_a_can_bridge"><rect fill="#F1F1F1" height="52.5938" rx="2.5" ry="2.5" style="stroke:#000000;stroke-width:1.5;" width="222.4736" x="22.76" y="322.18"/><text fill="#000000" font-family="sans-serif" font-size="14" lengthAdjust="spacing" textLength="92.6475" x="32.76" y="345.1751">a_can_bridge</text><text fill="#000000" font-family="sans-serif" font-size="14" lengthAdjust="spacing" textLength="202.4736" x="32.76" y="361.472">(example.nodes.CAN.Bridge)</text></g><!--entity node_b_ecu_software--><g id="elem_node_b_ecu_software"><rect fill="#F1F1F1" height="52.5938" rx="2.5" ry="2.5" style="stroke:#000000;stroke-width:1.5;" width="238.1484" x="849.93" y="192.59"/><text fill="#000000" font-family="sans-serif" font-size="14" lengthAdjust="spacing" textLength="108.7461" x="859.93" y="215.5851">b_ecu_software</text><text fill="#000000" font-family="sans-serif" font-size="14" lengthAdjust="spacing" textLength="218.1484" x="859.93" y="231.882">(example.nodes.ECU.Software)</text></g><!--entity node_b_ecu_runtime--><g id="elem_node_b_ecu_runtime"><rect fill="#F1F1F1" height="52.5938" rx="2.5" ry="2.5" style="stroke:#000000;stroke-width:1.5;" width="234.9834" x="851.51" y="322.18"/><text fill="#000000" font-family="sans-serif" font-size="14" lengthAdjust="spacing" textLength="103.2021" x="861.51" y="345.1751">b_ecu_runtime</text><text fill="#000000" font-family="sans-serif" font-size="14" lengthAdjust="spacing" textLength="214.9834" x="861.51" y="361.472">(example.nodes.ECU.Runtime)</text></g><!--entity node_b_ecu_hardware--><g id="elem_node_b_ecu_hardware"><rect fill="#F1F1F1" height="52.5938" rx="2.5" ry="2.5" style="stroke:#000000;stroke-width:1.5;" width="244.0273" x="873.99" y="451.78"/><text fill="#000000" font-family="sans-serif" font-size="14" lengthAdjust="spacing" textLength="114.5635" x="883.99" y="474.7751">b_ecu_hardware</text><text fill="#000000" font-family="sans-serif" font-size="14" lengthAdjust="spacing" textLength="224.0273" x="883.99" y="491.072">(example.nodes.ECU.Hardware)</text></g><!--entity node_b_can_bus--><g id="elem_node_b_can_bus"><rect fill="#F1F1F1" height="52.5938" rx="2.5" ry="2.5" style="stroke:#000000;stroke-width:1.5;" width="163.5889" x="914.21" y="604.37"/><text fill="#000000" font-family="sans-serif" font-size="14" lengthAdjust="spacing" textLength="73.0898" x="924.21" y="627.3651">b_can_bus</text><text fill="#000000" font-family="sans-serif" font-size="14" lengthAdjust="spacing" textLength="143.5889" x="924.21" y="643.662">(sofdcar.nodes.CAN)</text></g><!--entity node_b_can_bridge--><g id="elem_node_b_can_bridge"><rect fill="#F1F1F1" height="52.5938" rx="2.5" ry="2.5" style="stroke:#000000;stroke-width:1.5;" width="222.4736" x="616.76" y="451.78"/><text fill="#000000" font-family="sans-serif" font-size="14" lengthAdjust="spacing" textLength="92.9551" x="626.76" y="474.7751">b_can_bridge</text><text fill="#000000" font-family="sans-serif" font-size="14" lengthAdjust="spacing" textLength="202.4736" x="626.76" y="491.072">(example.nodes.CAN.Bridge)</text></g><!--link node_cloud_service to node_cloud_provider--><g id="link_node_cloud_service_node_cloud_provider"><path d="M251,657.27 C251,679.99 251,707.01 251,729.71 " fill="none" id="node_cloud_service-to-node_cloud_provider" style="stroke:#181818;stroke-width:1.5;"/><polygon fill="#181818" points="251,735.71,255,726.71,251,730.71,247,726.71,251,735.71" style="stroke:#181818;stroke-width:1.5;"/><text fill="#000000" font-family="sans-serif" font-size="13" lengthAdjust="spacing" textLength="28.063" x="260.2646" y="702.0369">host</text></g><!--link node_a_ecu_software to node_a_ecu_runtime--><g id="link_node_a_ecu_software_node_a_ecu_runtime"><path d="M430.48,94.84 C418.21,122.06 401.3562,159.4303 389.0562,186.7103 " fill="none" id="node_a_ecu_software-to-node_a_ecu_runtime" style="stroke:#181818;stroke-width:1.5;"/><polygon fill="#181818" points="386.59,192.18,393.9358,185.6195,388.6452,187.6219,386.6428,182.3313,386.59,192.18" style="stroke:#181818;stroke-width:1.5;"/><text fill="#000000" font-family="sans-serif" font-size="13" lengthAdjust="spacing" textLength="28.063" x="425.2646" y="137.6569">host</text></g><!--link node_a_ecu_software to node_a_can_bus--><g id="link_node_a_ecu_software_node_a_can_bus"><path d="M469.85,95 C484.03,109.65 500.29,129.13 510,149.59 C553.33,240.92 587.77,284.65 542,374.78 C524.69,408.87 495.3411,431.3893 464.8711,448.3693 " fill="none" id="node_a_ecu_software-to-node_a_can_bus" style="stroke:#181818;stroke-width:1.5;stroke-dasharray:7.0,7.0;"/><polygon fill="#181818" points="459.63,451.29,469.4388,450.403,463.9976,448.8561,465.5445,443.4148,459.63,451.29" style="stroke:#181818;stroke-width:1.5;"/><text fill="#000000" font-family="sans-serif" font-size="13" lengthAdjust="spacing" textLength="23.353" x="572.2646" y="288.2469">can</text></g><!--link node_a_ecu_software to node_b_ecu_software--><g id="link_node_a_ecu_software_node_b_ecu_software"><path d="M533.19,95.01 C629.68,122.21 775.2652,163.2615 871.8252,190.4915 " fill="none" id="node_a_ecu_software-to-node_b_ecu_software" style="stroke:#181818;stroke-width:1.5;stroke-dasharray:7.0,7.0;"/><polygon fill="#181818" points="877.6,192.12,870.0235,185.8274,872.7877,190.7629,867.8522,193.5271,877.6,192.12" style="stroke:#181818;stroke-width:1.5;"/><text fill="#000000" font-family="sans-serif" font-size="13" lengthAdjust="spacing" textLength="51.8223" x="698.2646" y="137.6569">connect</text></g><!--link node_a_ecu_runtime to node_a_ecu_hardware--><g id="link_node_a_ecu_runtime_node_a_ecu_hardware"><path d="M380.4,245.4 C385.11,267.66 390.6569,293.9002 395.3669,316.1402 " fill="none" id="node_a_ecu_runtime-to-node_a_ecu_hardware" style="stroke:#181818;stroke-width:1.5;"/><polygon fill="#181818" points="396.61,322.01,398.6585,312.3765,395.5741,317.1185,390.8321,314.034,396.61,322.01" style="stroke:#181818;stroke-width:1.5;"/><text fill="#000000" font-family="sans-serif" font-size="13" lengthAdjust="spacing" textLength="28.063" x="399.2646" y="288.2469">host</text></g><!--link node_a_ecu_hardware to node_a_can_bus--><g id="link_node_a_ecu_hardware_node_a_can_bus"><path d="M402,375 C402,397.25 402,423.37 402,445.61 " fill="none" id="node_a_ecu_hardware-to-node_a_can_bus" style="stroke:#181818;stroke-width:1.5;stroke-dasharray:7.0,7.0;"/><polygon fill="#181818" points="402,451.61,406,442.61,402,446.61,398,442.61,402,451.61" style="stroke:#181818;stroke-width:1.5;"/><text fill="#000000" font-family="sans-serif" font-size="13" lengthAdjust="spacing" textLength="23.353" x="411.2646" y="417.8469">can</text></g><!--link node_a_can_bridge to node_a_can_bus--><g id="link_node_a_can_bridge_node_a_can_bus"><path d="M187.91,375.15 C234.53,397.34 296.1626,426.6909 342.7526,448.8709 " fill="none" id="node_a_can_bridge-to-node_a_can_bus" style="stroke:#181818;stroke-width:1.5;stroke-dasharray:7.0,7.0;"/><polygon fill="#181818" points="348.17,451.45,341.7632,443.9698,343.6555,449.3008,338.3245,451.193,348.17,451.45" style="stroke:#181818;stroke-width:1.5;"/><text fill="#000000" font-family="sans-serif" font-size="13" lengthAdjust="spacing" textLength="23.353" x="293.2646" y="417.8469">can</text></g><!--link node_a_can_bridge to node_cloud_service--><g id="link_node_a_can_bridge_node_cloud_service"><path d="M144.59,374.84 C166.81,428.05 215.7683,545.2932 238.0383,598.6332 " fill="none" id="node_a_can_bridge-to-node_cloud_service" style="stroke:#181818;stroke-width:1.5;stroke-dasharray:7.0,7.0;"/><polygon fill="#181818" points="240.35,604.17,240.5737,594.3237,238.4236,599.556,233.1913,597.4059,240.35,604.17" style="stroke:#181818;stroke-width:1.5;"/><text fill="#000000" font-family="sans-serif" font-size="13" lengthAdjust="spacing" textLength="35.2041" x="216.2646" y="482.6469">cloud</text></g><!--link node_b_ecu_software to node_b_ecu_runtime--><g id="link_node_b_ecu_software_node_b_ecu_runtime"><path d="M969,245.4 C969,267.66 969,293.77 969,316.01 " fill="none" id="node_b_ecu_software-to-node_b_ecu_runtime" style="stroke:#181818;stroke-width:1.5;"/><polygon fill="#181818" points="969,322.01,973,313.01,969,317.01,965,313.01,969,322.01" style="stroke:#181818;stroke-width:1.5;"/><text fill="#000000" font-family="sans-serif" font-size="13" lengthAdjust="spacing" textLength="28.063" x="978.2646" y="288.2469">host</text></g><!--link node_b_ecu_software to node_b_can_bus--><g id="link_node_b_ecu_software_node_b_can_bus"><path d="M1017.98,245.62 C1047.16,263.38 1082.57,289.64 1104,322.18 C1136.62,371.74 1128.84,392.89 1136,451.78 C1140.11,485.57 1151.48,498.06 1136,528.37 C1118.81,562.04 1089.868,584.1917 1059.588,600.9717 " fill="none" id="node_b_ecu_software-to-node_b_can_bus" style="stroke:#181818;stroke-width:1.5;stroke-dasharray:7.0,7.0;"/><polygon fill="#181818" points="1054.34,603.88,1064.1509,603.0163,1058.7134,601.4564,1060.2732,596.0189,1054.34,603.88" style="stroke:#181818;stroke-width:1.5;"/><text fill="#000000" font-family="sans-serif" font-size="13" lengthAdjust="spacing" textLength="23.353" x="1142.2646" y="417.8469">can</text></g><!--link node_b_ecu_runtime to node_b_ecu_hardware--><g id="link_node_b_ecu_runtime_node_b_ecu_hardware"><path d="M974.4,375 C979.11,397.25 984.6569,423.5002 989.3669,445.7402 " fill="none" id="node_b_ecu_runtime-to-node_b_ecu_hardware" style="stroke:#181818;stroke-width:1.5;"/><polygon fill="#181818" points="990.61,451.61,992.6585,441.9765,989.5741,446.7185,984.8321,443.634,990.61,451.61" style="stroke:#181818;stroke-width:1.5;"/><text fill="#000000" font-family="sans-serif" font-size="13" lengthAdjust="spacing" textLength="28.063" x="993.2646" y="417.8469">host</text></g><!--link node_b_ecu_hardware to node_b_can_bus--><g id="link_node_b_ecu_hardware_node_b_can_bus"><path d="M996,504.62 C996,532.31 996,570.26 996,598 " fill="none" id="node_b_ecu_hardware-to-node_b_can_bus" style="stroke:#181818;stroke-width:1.5;stroke-dasharray:7.0,7.0;"/><polygon fill="#181818" points="996,604,1000,595,996,599,992,595,996,604" style="stroke:#181818;stroke-width:1.5;"/><text fill="#000000" font-family="sans-serif" font-size="13" lengthAdjust="spacing" textLength="23.353" x="1005.2646" y="549.4369">can</text></g><!--link node_b_can_bridge to node_b_can_bus--><g id="link_node_b_can_bridge_node_b_can_bus"><path d="M773.77,504.79 C823.1,532.51 895.9292,573.4408 945.1892,601.1208 " fill="none" id="node_b_can_bridge-to-node_b_can_bus" style="stroke:#181818;stroke-width:1.5;stroke-dasharray:7.0,7.0;"/><polygon fill="#181818" points="950.42,604.06,944.5334,596.164,946.061,601.6106,940.6144,603.1383,950.42,604.06" style="stroke:#181818;stroke-width:1.5;"/><text fill="#000000" font-family="sans-serif" font-size="13" lengthAdjust="spacing" textLength="23.353" x="862.2646" y="549.4369">can</text></g><!--link node_b_can_bridge to node_cloud_service--><g id="link_node_b_can_bridge_node_cloud_service"><path d="M650.09,504.75 C626.62,512.42 600.78,520.8 577,528.37 C494.84,554.55 406.4946,581.9252 340.5946,602.2052 " fill="none" id="node_b_can_bridge-to-node_cloud_service" style="stroke:#181818;stroke-width:1.5;stroke-dasharray:7.0,7.0;"/><polygon fill="#181818" points="334.86,603.97,344.6384,605.1459,339.6388,602.4994,342.2854,597.4998,334.86,603.97" style="stroke:#181818;stroke-width:1.5;"/><text fill="#000000" font-family="sans-serif" font-size="13" lengthAdjust="spacing" textLength="35.2041" x="559.2646" y="549.4369">cloud</text></g><!--SRC=[dPGxRzim58Lt_Wf2MTeX139awH30CL9qCeegtGe8l2Hb4wP8WwJoGD7_NjgIR3r8nT5edNi-NfuZsUsbFb1BAyn5IMlblnljDxGIEAVQvSBA4hdp33FLmMYXVUxVbS1MC4_rLedU252strfJQxusobZiRU04APXwKojhpUlpJhAz5ixXEtAFUcef0_mlUZIM2zjWG0Lk-sJe-zTtIks5BIbRQ3zVw6hxCQuc36riHTMHXowOZ2bJympVAAa5uTJj10_iyK3XX7sHJFpHNyGRhGvA46suS6HzL4dUg5ypJ1q-2iN0DJsmE5Zp8iEo2U3FLfuGEnyAz-X1bM7KIwCBEdSLMWXM5ywK_ZNqFJdwQVsRvAtOEtZeGbEWhRMNLPptgz4ckDOJeUsevSdrVhJYXDUvHa16TG6r2womFsVKTYclDWD4EnTpMyctaTvN6_9uagQSq-DKGJ1N42mg2D85mOA285aGB2e8qWN1bGL1j23uT44mAWYXwSUARsyVObyS_eOpZ7V6-Gn5lekBRV22V-GYv67q3ZQEyEC3mx3rrcMq3laCdDqYe_swFX8BdkLh5ho4kdXyM45ZEVqpezXbptU1sQmX6LrYDuWd1lE9GIAncMDY4NnoF9dOVm00]--></g></svg>