<?xml version="1.0" encoding="us-ascii" standalone="no"?><svg xmlns="http://www.w3.org/2000/svg" xmlns:xlink="http://www.w3.org/1999/xlink" contentStyleType="text/css" height="145px" preserveAspectRatio="none" style="width:2273px;height:145px;background:#FFFFFF;" version="1.1" viewBox="0 0 2273 145" width="2273px" zoomAndPan="magnify"><defs/><g><!--entity sofdcar.relationships.CAN--><g id="elem_sofdcar.relationships.CAN"><rect fill="#F1F1F1" height="36.2969" rx="2.5" ry="2.5" style="stroke:#181818;stroke-width:0.5;" width="206" x="7" y="103"/><text fill="#000000" font-family="sans-serif" font-size="14" lengthAdjust="spacing" textLength="186" x="17" y="125.9951">sofdcar.relationships.CAN</text></g><!--entity sofdcar.relationships.CAN-FD--><g id="elem_sofdcar.relationships.CAN-FD"><rect fill="#F1F1F1" height="36.2969" rx="2.5" ry="2.5" style="stroke:#181818;stroke-width:0.5;" width="231" x="248.5" y="103"/><text fill="#000000" font-family="sans-serif" font-size="14" lengthAdjust="spacing" textLength="211" x="258.5" y="125.9951">sofdcar.relationships.CAN-FD</text></g><!--entity sofdcar.relationships.LIN--><g id="elem_sofdcar.relationships.LIN"><rect fill="#F1F1F1" height="36.2969" rx="2.5" ry="2.5" style="stroke:#181818;stroke-width:0.5;" width="198" x="515" y="103"/><text fill="#000000" font-family="sans-serif" font-size="14" lengthAdjust="spacing" textLength="178" x="525" y="125.9951">sofdcar.relationships.LIN</text></g><!--entity sofdcar.relationships.MOST--><g id="elem_sofdcar.relationships.MOST"><rect fill="#F1F1F1" height="36.2969" rx="2.5" ry="2.5" style="stroke:#181818;stroke-width:0.5;" width="217" x="748.5" y="103"/><text fill="#000000" font-family="sans-serif" font-size="14" lengthAdjust="spacing" textLength="197" x="758.5" y="125.9951">sofdcar.relationships.MOST</text></g><!--entity sofdcar.relationships.GPIO--><g id="elem_sofdcar.relationships.GPIO"><rect fill="#F1F1F1" height="36.2969" rx="2.5" ry="2.5" style="stroke:#181818;stroke-width:0.5;" width="211" x="1000.5" y="103"/><text fill="#000000" font-family="sans-serif" font-size="14" lengthAdjust="spacing" textLength="191" x="1010.5" y="125.9951">sofdcar.relationships.GPIO</text></g><!--entity sofdcar.relationships.FlexRay--><g id="elem_sofdcar.relationships.FlexRay"><rect fill="#F1F1F1" height="36.2969" rx="2.5" ry="2.5" style="stroke:#181818;stroke-width:0.5;" width="231" x="1246.5" y="103"/><text fill="#000000" font-family="sans-serif" font-size="14" lengthAdjust="spacing" textLength="211" x="1256.5" y="125.9951">sofdcar.relationships.FlexRay</text></g><!--entity sofdcar.relationships.Ethernet--><g id="elem_sofdcar.relationships.Ethernet"><rect fill="#F1F1F1" height="36.2969" rx="2.5" ry="2.5" style="stroke:#181818;stroke-width:0.5;" width="241" x="1512.5" y="103"/><text fill="#000000" font-family="sans-serif" font-size="14" lengthAdjust="spacing" textLength="221" x="1522.5" y="125.9951">sofdcar.relationships.Ethernet</text></g><!--entity sofdcar.relationships.OBD--><g id="elem_sofdcar.relationships.OBD"><rect fill="#F1F1F1" height="36.2969" rx="2.5" ry="2.5" style="stroke:#181818;stroke-width:0.5;" width="208" x="1789" y="103"/><text fill="#000000" font-family="sans-serif" font-size="14" lengthAdjust="spacing" textLength="188" x="1799" y="125.9951">sofdcar.relationships.OBD</text></g><!--entity sofdcar.relationships.SOME/IP--><g id="elem_sofdcar.relationships.SOME/IP"><rect fill="#F1F1F1" height="36.2969" rx="2.5" ry="2.5" style="stroke:#181818;stroke-width:0.5;" width="235" x="2032.5" y="103"/><text fill="#000000" font-family="sans-serif" font-size="14" lengthAdjust="spacing" textLength="215" x="2042.5" y="125.9951">sofdcar.relationships.SOME/IP</text></g><!--entity sofdcar.relationships.Root--><g id="elem_sofdcar.relationships.Root"><ellipse cx="1106" cy="14" fill="#F1F1F1" rx="8" ry="8" style="stroke:#181818;stroke-width:0.5;"/><text fill="#000000" font-family="sans-serif" font-size="14" lengthAdjust="spacing" textLength="191" x="1010.5" y="43.9951">sofdcar.relationships.Root</text></g><!--reverse link sofdcar.relationships.Root to sofdcar.relationships.CAN--><g id="link_sofdcar.relationships.Root_sofdcar.relationships.CAN"><path d="M1076.82,17.515 C966.24,27.133 562.522,63.0561 231,103 C225.208,103.6978 219.265,104.4419 213.268,105.2142 " fill="none" id="sofdcar.relationships.Root-backto-sofdcar.relationships.CAN" style="stroke:#181818;stroke-width:1.0;"/><polygon fill="none" points="1076.4,10.524,1096.93,15.775,1077.61,24.472,1076.4,10.524" style="stroke:#181818;stroke-width:1.0;"/></g><!--reverse link sofdcar.relationships.Root to sofdcar.relationships.CAN-FD--><g id="link_sofdcar.relationships.Root_sofdcar.relationships.CAN-FD"><path d="M1077.01,19.103 C978.806,32.999 655.134,78.8018 479.616,103.6393 " fill="none" id="sofdcar.relationships.Root-backto-sofdcar.relationships.CAN-FD" style="stroke:#181818;stroke-width:1.0;"/><polygon fill="none" points="1076.1,12.161,1096.89,16.29,1078.06,26.023,1076.1,12.161" style="stroke:#181818;stroke-width:1.0;"/></g><!--reverse link sofdcar.relationships.Root to sofdcar.relationships.LIN--><g id="link_sofdcar.relationships.Root_sofdcar.relationships.LIN"><path d="M1076.84,21.224 C1002.747,37.036 805.276,79.1788 693.684,102.9943 " fill="none" id="sofdcar.relationships.Root-backto-sofdcar.relationships.LIN" style="stroke:#181818;stroke-width:1.0;"/><polygon fill="none" points="1075.59,14.332,1096.61,17.004,1078.51,28.024,1075.59,14.332" style="stroke:#181818;stroke-width:1.0;"/></g><!--reverse link sofdcar.relationships.Root to sofdcar.relationships.MOST--><g id="link_sofdcar.relationships.Root_sofdcar.relationships.MOST"><path d="M1078.32,26.674 C1034.37,45.2053 948.421,81.4492 897.53,102.9091 " fill="none" id="sofdcar.relationships.Root-backto-sofdcar.relationships.MOST" style="stroke:#181818;stroke-width:1.0;"/><polygon fill="none" points="1075.69,20.183,1096.84,18.862,1081.13,33.083,1075.69,20.183" style="stroke:#181818;stroke-width:1.0;"/></g><!--reverse link sofdcar.relationships.Root to sofdcar.relationships.GPIO--><g id="link_sofdcar.relationships.Root_sofdcar.relationships.GPIO"><path d="M1106,43.423 C1106,62.4446 1106,86.8487 1106,102.9328 " fill="none" id="sofdcar.relationships.Root-backto-sofdcar.relationships.GPIO" style="stroke:#181818;stroke-width:1.0;"/><polygon fill="none" points="1099,43.2392,1106,23.239,1113,43.2391,1099,43.2392" style="stroke:#181818;stroke-width:1.0;"/></g><!--reverse link sofdcar.relationships.Root to sofdcar.relationships.FlexRay--><g id="link_sofdcar.relationships.Root_sofdcar.relationships.FlexRay"><path d="M1133.74,26.379 C1178.73,44.8295 1267.83,81.3758 1320.42,102.9452 " fill="none" id="sofdcar.relationships.Root-backto-sofdcar.relationships.FlexRay" style="stroke:#181818;stroke-width:1.0;"/><polygon fill="none" points="1130.96,32.803,1115.11,18.737,1136.27,19.85,1130.96,32.803" style="stroke:#181818;stroke-width:1.0;"/></g><!--reverse link sofdcar.relationships.Root to sofdcar.relationships.Ethernet--><g id="link_sofdcar.relationships.Root_sofdcar.relationships.Ethernet"><path d="M1134.83,20.745 C1212.21,36.162 1426.76,78.9076 1547.54,102.9721 " fill="none" id="sofdcar.relationships.Root-backto-sofdcar.relationships.Ethernet" style="stroke:#181818;stroke-width:1.0;"/><polygon fill="none" points="1133.39,27.596,1115.15,16.822,1136.13,13.865,1133.39,27.596" style="stroke:#181818;stroke-width:1.0;"/></g><!--reverse link sofdcar.relationships.Root to sofdcar.relationships.OBD--><g id="link_sofdcar.relationships.Root_sofdcar.relationships.OBD"><path d="M1135.22,18.794 C1228.15,30.875 1525.24,69.6167 1771,103 C1776.83,103.7916 1782.81,104.6093 1788.85,105.4383 " fill="none" id="sofdcar.relationships.Root-backto-sofdcar.relationships.OBD" style="stroke:#181818;stroke-width:1.0;"/><polygon fill="none" points="1134.31,25.734,1115.38,16.216,1136.11,11.851,1134.31,25.734" style="stroke:#181818;stroke-width:1.0;"/></g><!--reverse link sofdcar.relationships.Root to sofdcar.relationships.SOME/IP--><g id="link_sofdcar.relationships.Root_sofdcar.relationships.SOME/IP"><path d="M1135.58,17.552 C1249.36,27.434 1669.64,64.5458 2015,103 C2020.63,103.6274 2026.4,104.2865 2032.22,104.966 " fill="none" id="sofdcar.relationships.Root-backto-sofdcar.relationships.SOME/IP" style="stroke:#181818;stroke-width:1.0;"/><polygon fill="none" points="1134.74,24.505,1115.41,15.808,1135.94,10.557,1134.74,24.505" style="stroke:#181818;stroke-width:1.0;"/></g><!--SRC=[fPBB2i8m44Nt-OhGVUiFkF7HIi6Qqle3eOvQJ9EIpCA27w_G-jWemxYRnJaNXdl3fRMzzhgJZUjwPy5YZOC1wQ51RKy6X12lMqR17G-Dzea7ex5rDfpRFYIhnIwYON6sff3Rd1HOg7fFuJPbhYXSPk1QwO62fdW6Rm4fh5gIdgvLaSxoye6ABqJb74PoVelZtqtyeuyDiHF6vjZwr2ZRdvfc- -y5i2C-bi7E61V3rfzBkWC0]--></g></svg>