<?xml version="1.0" encoding="us-ascii" standalone="no"?><svg xmlns="http://www.w3.org/2000/svg" xmlns:xlink="http://www.w3.org/1999/xlink" contentStyleType="text/css" height="145px" preserveAspectRatio="none" style="width:2822px;height:145px;background:#FFFFFF;" version="1.1" viewBox="0 0 2822 145" width="2822px" zoomAndPan="magnify"><defs/><g><!--entity sofdcar.capabilities.Endpoint.CAN--><g id="elem_sofdcar.capabilities.Endpoint.CAN"><rect fill="#F1F1F1" height="36.2969" rx="2.5" ry="2.5" style="stroke:#181818;stroke-width:0.5;" width="267" x="7" y="103"/><text fill="#000000" font-family="sans-serif" font-size="14" lengthAdjust="spacing" textLength="247" x="17" y="125.9951">sofdcar.capabilities.Endpoint.CAN</text></g><!--entity sofdcar.capabilities.Endpoint.CAN-FD--><g id="elem_sofdcar.capabilities.Endpoint.CAN-FD"><rect fill="#F1F1F1" height="36.2969" rx="2.5" ry="2.5" style="stroke:#181818;stroke-width:0.5;" width="292" x="309.5" y="103"/><text fill="#000000" font-family="sans-serif" font-size="14" lengthAdjust="spacing" textLength="272" x="319.5" y="125.9951">sofdcar.capabilities.Endpoint.CAN-FD</text></g><!--entity sofdcar.capabilities.Endpoint.LIN--><g id="elem_sofdcar.capabilities.Endpoint.LIN"><rect fill="#F1F1F1" height="36.2969" rx="2.5" ry="2.5" style="stroke:#181818;stroke-width:0.5;" width="259" x="637" y="103"/><text fill="#000000" font-family="sans-serif" font-size="14" lengthAdjust="spacing" textLength="239" x="647" y="125.9951">sofdcar.capabilities.Endpoint.LIN</text></g><!--entity sofdcar.capabilities.Endpoint.MOST--><g id="elem_sofdcar.capabilities.Endpoint.MOST"><rect fill="#F1F1F1" height="36.2969" rx="2.5" ry="2.5" style="stroke:#181818;stroke-width:0.5;" width="278" x="931.5" y="103"/><text fill="#000000" font-family="sans-serif" font-size="14" lengthAdjust="spacing" textLength="258" x="941.5" y="125.9951">sofdcar.capabilities.Endpoint.MOST</text></g><!--entity sofdcar.capabilities.Endpoint.GPIO--><g id="elem_sofdcar.capabilities.Endpoint.GPIO"><rect fill="#F1F1F1" height="36.2969" rx="2.5" ry="2.5" style="stroke:#181818;stroke-width:0.5;" width="272" x="1244.5" y="103"/><text fill="#000000" font-family="sans-serif" font-size="14" lengthAdjust="spacing" textLength="252" x="1254.5" y="125.9951">sofdcar.capabilities.Endpoint.GPIO</text></g><!--entity sofdcar.capabilities.Endpoint.FlexRay--><g id="elem_sofdcar.capabilities.Endpoint.FlexRay"><rect fill="#F1F1F1" height="36.2969" rx="2.5" ry="2.5" style="stroke:#181818;stroke-width:0.5;" width="292" x="1551.5" y="103"/><text fill="#000000" font-family="sans-serif" font-size="14" lengthAdjust="spacing" textLength="272" x="1561.5" y="125.9951">sofdcar.capabilities.Endpoint.FlexRay</text></g><!--entity sofdcar.capabilities.Endpoint.Ethernet--><g id="elem_sofdcar.capabilities.Endpoint.Ethernet"><rect fill="#F1F1F1" height="36.2969" rx="2.5" ry="2.5" style="stroke:#181818;stroke-width:0.5;" width="302" x="1878.5" y="103"/><text fill="#000000" font-family="sans-serif" font-size="14" lengthAdjust="spacing" textLength="282" x="1888.5" y="125.9951">sofdcar.capabilities.Endpoint.Ethernet</text></g><!--entity sofdcar.capabilities.Endpoint.OBD--><g id="elem_sofdcar.capabilities.Endpoint.OBD"><rect fill="#F1F1F1" height="36.2969" rx="2.5" ry="2.5" style="stroke:#181818;stroke-width:0.5;" width="269" x="2216" y="103"/><text fill="#000000" font-family="sans-serif" font-size="14" lengthAdjust="spacing" textLength="249" x="2226" y="125.9951">sofdcar.capabilities.Endpoint.OBD</text></g><!--entity sofdcar.capabilities.Endpoint.SOME/IP--><g id="elem_sofdcar.capabilities.Endpoint.SOME/IP"><rect fill="#F1F1F1" height="36.2969" rx="2.5" ry="2.5" style="stroke:#181818;stroke-width:0.5;" width="296" x="2520.5" y="103"/><text fill="#000000" font-family="sans-serif" font-size="14" lengthAdjust="spacing" textLength="276" x="2530.5" y="125.9951">sofdcar.capabilities.Endpoint.SOME/IP</text></g><!--entity sofdcar.capabilities.Endpoint--><g id="elem_sofdcar.capabilities.Endpoint"><ellipse cx="1380.5" cy="14" fill="#F1F1F1" rx="8" ry="8" style="stroke:#181818;stroke-width:0.5;"/><text fill="#000000" font-family="sans-serif" font-size="14" lengthAdjust="spacing" textLength="212" x="1274.5" y="43.9951">sofdcar.capabilities.Endpoint</text></g><!--reverse link sofdcar.capabilities.Endpoint to sofdcar.capabilities.Endpoint.CAN--><g id="link_sofdcar.capabilities.Endpoint_sofdcar.capabilities.Endpoint.CAN"><path d="M1351.28,17.022 C1224.8,25.845 711.872,62.3621 291.5,103 C285.854,103.5458 280.092,104.1198 274.272,104.7134 " fill="none" id="sofdcar.capabilities.Endpoint-backto-sofdcar.capabilities.Endpoint.CAN" style="stroke:#181818;stroke-width:1.0;"/><polygon fill="none" points="1350.85,10.035,1371.29,15.633,1351.82,24.001,1350.85,10.035" style="stroke:#181818;stroke-width:1.0;"/></g><!--reverse link sofdcar.capabilities.Endpoint to sofdcar.capabilities.Endpoint.CAN-FD--><g id="link_sofdcar.capabilities.Endpoint_sofdcar.capabilities.Endpoint.CAN-FD"><path d="M1351.3,18.315 C1238.32,31.14 825.123,78.0428 601.533,103.4233 " fill="none" id="sofdcar.capabilities.Endpoint-backto-sofdcar.capabilities.Endpoint.CAN-FD" style="stroke:#181818;stroke-width:1.0;"/><polygon fill="none" points="1350.68,11.34,1371.34,16.039,1352.26,25.25,1350.68,11.34" style="stroke:#181818;stroke-width:1.0;"/></g><!--reverse link sofdcar.capabilities.Endpoint to sofdcar.capabilities.Endpoint.LIN--><g id="link_sofdcar.capabilities.Endpoint_sofdcar.capabilities.Endpoint.LIN"><path d="M1351.49,19.962 C1265.5,34.667 1009.09,78.5142 865.94,102.9949 " fill="none" id="sofdcar.capabilities.Endpoint-backto-sofdcar.capabilities.Endpoint.LIN" style="stroke:#181818;stroke-width:1.0;"/><polygon fill="none" points="1350.45,13.037,1371.34,16.566,1352.81,26.837,1350.45,13.037" style="stroke:#181818;stroke-width:1.0;"/></g><!--reverse link sofdcar.capabilities.Endpoint to sofdcar.capabilities.Endpoint.MOST--><g id="link_sofdcar.capabilities.Endpoint_sofdcar.capabilities.Endpoint.MOST"><path d="M1351.93,24.678 C1299.34,42.4882 1186.63,80.6655 1120.92,102.9228 " fill="none" id="sofdcar.capabilities.Endpoint-backto-sofdcar.capabilities.Endpoint.MOST" style="stroke:#181818;stroke-width:1.0;"/><polygon fill="none" points="1350.03,17.929,1371.22,18.142,1354.53,31.189,1350.03,17.929" style="stroke:#181818;stroke-width:1.0;"/></g><!--reverse link sofdcar.capabilities.Endpoint to sofdcar.capabilities.Endpoint.GPIO--><g id="link_sofdcar.capabilities.Endpoint_sofdcar.capabilities.Endpoint.GPIO"><path d="M1380.5,43.423 C1380.5,62.4446 1380.5,86.8487 1380.5,102.9328 " fill="none" id="sofdcar.capabilities.Endpoint-backto-sofdcar.capabilities.Endpoint.GPIO" style="stroke:#181818;stroke-width:1.0;"/><polygon fill="none" points="1373.5,43.2392,1380.5,23.239,1387.5,43.2391,1373.5,43.2392" style="stroke:#181818;stroke-width:1.0;"/></g><!--reverse link sofdcar.capabilities.Endpoint to sofdcar.capabilities.Endpoint.FlexRay--><g id="link_sofdcar.capabilities.Endpoint_sofdcar.capabilities.Endpoint.FlexRay"><path d="M1408.88,24.4 C1462.31,42.0988 1578.53,80.5931 1646.06,102.9612 " fill="none" id="sofdcar.capabilities.Endpoint-backto-sofdcar.capabilities.Endpoint.FlexRay" style="stroke:#181818;stroke-width:1.0;"/><polygon fill="none" points="1406.43,30.963,1389.65,18.029,1410.83,17.673,1406.43,30.963" style="stroke:#181818;stroke-width:1.0;"/></g><!--reverse link sofdcar.capabilities.Endpoint to sofdcar.capabilities.Endpoint.Ethernet--><g id="link_sofdcar.capabilities.Endpoint_sofdcar.capabilities.Endpoint.Ethernet"><path d="M1409.51,19.694 C1498.72,34.126 1772.08,78.3521 1924.33,102.9849 " fill="none" id="sofdcar.capabilities.Endpoint-backto-sofdcar.capabilities.Endpoint.Ethernet" style="stroke:#181818;stroke-width:1.0;"/><polygon fill="none" points="1408.3,26.589,1389.67,16.484,1410.54,12.768,1408.3,26.589" style="stroke:#181818;stroke-width:1.0;"/></g><!--reverse link sofdcar.capabilities.Endpoint to sofdcar.capabilities.Endpoint.OBD--><g id="link_sofdcar.capabilities.Endpoint_sofdcar.capabilities.Endpoint.OBD"><path d="M1409.74,18.101 C1515.76,29.352 1889.94,69.1477 2198.5,103 C2204.17,103.6226 2209.97,104.2605 2215.82,104.9068 " fill="none" id="sofdcar.capabilities.Endpoint-backto-sofdcar.capabilities.Endpoint.OBD" style="stroke:#181818;stroke-width:1.0;"/><polygon fill="none" points="1408.94,25.056,1389.79,15.985,1410.42,11.134,1408.94,25.056" style="stroke:#181818;stroke-width:1.0;"/></g><!--reverse link sofdcar.capabilities.Endpoint to sofdcar.capabilities.Endpoint.SOME/IP--><g id="link_sofdcar.capabilities.Endpoint_sofdcar.capabilities.Endpoint.SOME/IP"><path d="M1409.78,17.039 C1538.66,26.069 2068.31,63.746 2502.5,103 C2508.27,103.5217 2514.15,104.0656 2520.09,104.6252 " fill="none" id="sofdcar.capabilities.Endpoint-backto-sofdcar.capabilities.Endpoint.SOME/IP" style="stroke:#181818;stroke-width:1.0;"/><polygon fill="none" points="1409.2,24.016,1389.74,15.64,1410.18,10.05,1409.2,24.016" style="stroke:#181818;stroke-width:1.0;"/></g><!--SRC=[hPBB2i8m44Nt-OhGVUiFkF7HIi6QOls1c8uQJ9EGPc71ZrTeVQp4WTdDujupC7FwgxPU1jbnvJhlBDZOnC403w2Yj6S3ZB7tp9FUdLebGwQabqTjTDJGPxbjlTCsPgl5Bi75qsADQMnBr89AD0TCVbEN0fCl3DpsSi1KydY1O25YEcA9Eb8ZgdnMriyA-vrC-FoUflyzbOWq_fi2Dgf0GPeieK1D0b6WFcvHqBwqey2DHbAGNh8-0000]--></g></svg>