<?xml version="1.0" encoding="us-ascii" standalone="no"?><svg xmlns="http://www.w3.org/2000/svg" xmlns:xlink="http://www.w3.org/1999/xlink" contentStyleType="text/css" height="337px" preserveAspectRatio="none" style="width:2459px;height:337px;background:#FFFFFF;" version="1.1" viewBox="0 0 2459 337" width="2459px" zoomAndPan="magnify"><defs/><g><!--entity sofdcar.nodes.Root--><g id="elem_sofdcar.nodes.Root"><rect fill="#F1F1F1" height="36.2969" rx="2.5" ry="2.5" style="stroke:#181818;stroke-width:0.5;" width="161" x="976" y="103"/><text fill="#000000" font-family="sans-serif" font-size="14" lengthAdjust="spacing" textLength="141" x="986" y="125.9951">sofdcar.nodes.Root</text></g><!--entity sofdcar.nodes.Vehicle--><g id="elem_sofdcar.nodes.Vehicle"><rect fill="#F1F1F1" height="36.2969" rx="2.5" ry="2.5" style="stroke:#181818;stroke-width:0.5;" width="179" x="7" y="199"/><text fill="#000000" font-family="sans-serif" font-size="14" lengthAdjust="spacing" textLength="159" x="17" y="221.9951">sofdcar.nodes.Vehicle</text></g><!--entity sofdcar.nodes.Cloud--><g id="elem_sofdcar.nodes.Cloud"><rect fill="#F1F1F1" height="36.2969" rx="2.5" ry="2.5" style="stroke:#181818;stroke-width:0.5;" width="166" x="221.5" y="199"/><text fill="#000000" font-family="sans-serif" font-size="14" lengthAdjust="spacing" textLength="146" x="231.5" y="221.9951">sofdcar.nodes.Cloud</text></g><!--entity sofdcar.nodes.ECU.Hardware--><g id="elem_sofdcar.nodes.ECU.Hardware"><rect fill="#F1F1F1" height="36.2969" rx="2.5" ry="2.5" style="stroke:#181818;stroke-width:0.5;" width="226" x="422.5" y="199"/><text fill="#000000" font-family="sans-serif" font-size="14" lengthAdjust="spacing" textLength="206" x="432.5" y="221.9951">sofdcar.nodes.ECU.Hardware</text></g><!--entity sofdcar.nodes.ECU.Software--><g id="elem_sofdcar.nodes.ECU.Software"><rect fill="#F1F1F1" height="36.2969" rx="2.5" ry="2.5" style="stroke:#181818;stroke-width:0.5;" width="224" x="683.5" y="199"/><text fill="#000000" font-family="sans-serif" font-size="14" lengthAdjust="spacing" textLength="204" x="693.5" y="221.9951">sofdcar.nodes.ECU.Software</text></g><!--entity sofdcar.nodes.ECU.Runtime--><g id="elem_sofdcar.nodes.ECU.Runtime"><rect fill="#F1F1F1" height="36.2969" rx="2.5" ry="2.5" style="stroke:#181818;stroke-width:0.5;" width="220" x="291.5" y="295"/><text fill="#000000" font-family="sans-serif" font-size="14" lengthAdjust="spacing" textLength="200" x="301.5" y="317.9951">sofdcar.nodes.ECU.Runtime</text></g><!--entity sofdcar.nodes.HPC.Software--><g id="elem_sofdcar.nodes.HPC.Software"><rect fill="#F1F1F1" height="36.2969" rx="2.5" ry="2.5" style="stroke:#181818;stroke-width:0.5;" width="225" x="1179" y="103"/><text fill="#000000" font-family="sans-serif" font-size="14" lengthAdjust="spacing" textLength="205" x="1189" y="125.9951">sofdcar.nodes.HPC.Software</text></g><!--entity sofdcar.nodes.HPC.Hardware--><g id="elem_sofdcar.nodes.HPC.Hardware"><rect fill="#F1F1F1" height="36.2969" rx="2.5" ry="2.5" style="stroke:#181818;stroke-width:0.5;" width="227" x="943" y="199"/><text fill="#000000" font-family="sans-serif" font-size="14" lengthAdjust="spacing" textLength="207" x="953" y="221.9951">sofdcar.nodes.HPC.Hardware</text></g><!--entity sofdcar.nodes.Actuator--><g id="elem_sofdcar.nodes.Actuator"><rect fill="#F1F1F1" height="36.2969" rx="2.5" ry="2.5" style="stroke:#181818;stroke-width:0.5;" width="189" x="1205" y="199"/><text fill="#000000" font-family="sans-serif" font-size="14" lengthAdjust="spacing" textLength="169" x="1215" y="221.9951">sofdcar.nodes.Actuator</text></g><!--entity sofdcar.nodes.Accelerator--><g id="elem_sofdcar.nodes.Accelerator"><rect fill="#F1F1F1" height="36.2969" rx="2.5" ry="2.5" style="stroke:#181818;stroke-width:0.5;" width="210" x="546.5" y="295"/><text fill="#000000" font-family="sans-serif" font-size="14" lengthAdjust="spacing" textLength="190" x="556.5" y="317.9951">sofdcar.nodes.Accelerator</text></g><!--entity sofdcar.nodes.Brake--><g id="elem_sofdcar.nodes.Brake"><rect fill="#F1F1F1" height="36.2969" rx="2.5" ry="2.5" style="stroke:#181818;stroke-width:0.5;" width="168" x="791.5" y="295"/><text fill="#000000" font-family="sans-serif" font-size="14" lengthAdjust="spacing" textLength="148" x="801.5" y="317.9951">sofdcar.nodes.Brake</text></g><!--entity sofdcar.nodes.Steering--><g id="elem_sofdcar.nodes.Steering"><rect fill="#F1F1F1" height="36.2969" rx="2.5" ry="2.5" style="stroke:#181818;stroke-width:0.5;" width="188" x="994.5" y="295"/><text fill="#000000" font-family="sans-serif" font-size="14" lengthAdjust="spacing" textLength="168" x="1004.5" y="317.9951">sofdcar.nodes.Steering</text></g><!--entity sofdcar.nodes.Light--><g id="elem_sofdcar.nodes.Light"><rect fill="#F1F1F1" height="36.2969" rx="2.5" ry="2.5" style="stroke:#181818;stroke-width:0.5;" width="163" x="1218" y="295"/><text fill="#000000" font-family="sans-serif" font-size="14" lengthAdjust="spacing" textLength="143" x="1228" y="317.9951">sofdcar.nodes.Light</text></g><!--entity sofdcar.nodes.Airbag--><g id="elem_sofdcar.nodes.Airbag"><rect fill="#F1F1F1" height="36.2969" rx="2.5" ry="2.5" style="stroke:#181818;stroke-width:0.5;" width="173" x="1416" y="295"/><text fill="#000000" font-family="sans-serif" font-size="14" lengthAdjust="spacing" textLength="153" x="1426" y="317.9951">sofdcar.nodes.Airbag</text></g><!--entity sofdcar.nodes.Sensor--><g id="elem_sofdcar.nodes.Sensor"><rect fill="#F1F1F1" height="36.2969" rx="2.5" ry="2.5" style="stroke:#181818;stroke-width:0.5;" width="175" x="1625" y="199"/><text fill="#000000" font-family="sans-serif" font-size="14" lengthAdjust="spacing" textLength="155" x="1635" y="221.9951">sofdcar.nodes.Sensor</text></g><!--entity sofdcar.nodes.RADAR--><g id="elem_sofdcar.nodes.RADAR"><rect fill="#F1F1F1" height="36.2969" rx="2.5" ry="2.5" style="stroke:#181818;stroke-width:0.5;" width="177" x="1624" y="295"/><text fill="#000000" font-family="sans-serif" font-size="14" lengthAdjust="spacing" textLength="157" x="1634" y="317.9951">sofdcar.nodes.RADAR</text></g><!--entity sofdcar.nodes.Camera--><g id="elem_sofdcar.nodes.Camera"><rect fill="#F1F1F1" height="36.2969" rx="2.5" ry="2.5" style="stroke:#181818;stroke-width:0.5;" width="181" x="1836" y="295"/><text fill="#000000" font-family="sans-serif" font-size="14" lengthAdjust="spacing" textLength="161" x="1846" y="317.9951">sofdcar.nodes.Camera</text></g><!--entity sofdcar.nodes.LIDAR--><g id="elem_sofdcar.nodes.LIDAR"><rect fill="#F1F1F1" height="36.2969" rx="2.5" ry="2.5" style="stroke:#181818;stroke-width:0.5;" width="169" x="2052" y="295"/><text fill="#000000" font-family="sans-serif" font-size="14" lengthAdjust="spacing" textLength="149" x="2062" y="317.9951">sofdcar.nodes.LIDAR</text></g><!--entity sofdcar.nodes.Ultrasonic--><g id="elem_sofdcar.nodes.Ultrasonic"><rect fill="#F1F1F1" height="36.2969" rx="2.5" ry="2.5" style="stroke:#181818;stroke-width:0.5;" width="197" x="2256" y="295"/><text fill="#000000" font-family="sans-serif" font-size="14" lengthAdjust="spacing" textLength="177" x="2266" y="317.9951">sofdcar.nodes.Ultrasonic</text></g><!--entity sofdcar.nodes.Channel--><g id="elem_sofdcar.nodes.Channel"><rect fill="#F1F1F1" height="36.2969" rx="2.5" ry="2.5" style="stroke:#181818;stroke-width:0.5;" width="184" x="1835.5" y="199"/><text fill="#000000" font-family="sans-serif" font-size="14" lengthAdjust="spacing" textLength="164" x="1845.5" y="221.9951">sofdcar.nodes.Channel</text></g><!--entity sofdcar.nodes.Battery--><g id="elem_sofdcar.nodes.Battery"><rect fill="#F1F1F1" height="36.2969" rx="2.5" ry="2.5" style="stroke:#181818;stroke-width:0.5;" width="181" x="2055" y="199"/><text fill="#000000" font-family="sans-serif" font-size="14" lengthAdjust="spacing" textLength="161" x="2065" y="221.9951">sofdcar.nodes.Battery</text></g><!--entity tosca.nodes.Root--><g id="elem_tosca.nodes.Root"><ellipse cx="1056.5" cy="14" fill="#F1F1F1" rx="8" ry="8" style="stroke:#181818;stroke-width:0.5;"/><text fill="#000000" font-family="sans-serif" font-size="14" lengthAdjust="spacing" textLength="127" x="993" y="43.9951">tosca.nodes.Root</text></g><!--entity tosca.nodes.SoftwareComponent--><g id="elem_tosca.nodes.SoftwareComponent"><ellipse cx="1291.5" cy="14" fill="#F1F1F1" rx="8" ry="8" style="stroke:#181818;stroke-width:0.5;"/><text fill="#000000" font-family="sans-serif" font-size="14" lengthAdjust="spacing" textLength="243" x="1170" y="43.9951">tosca.nodes.SoftwareComponent</text></g><!--reverse link tosca.nodes.Root to sofdcar.nodes.Root--><g id="link_tosca.nodes.Root_sofdcar.nodes.Root"><path d="M1056.5,43.423 C1056.5,62.445 1056.5,86.849 1056.5,102.933 " fill="none" id="tosca.nodes.Root-backto-sofdcar.nodes.Root" style="stroke:#181818;stroke-width:1.0;"/><polygon fill="none" points="1049.5,43.239,1056.5,23.239,1063.5,43.239,1049.5,43.239" style="stroke:#181818;stroke-width:1.0;"/></g><!--reverse link sofdcar.nodes.Root to sofdcar.nodes.Vehicle--><g id="link_sofdcar.nodes.Root_sofdcar.nodes.Vehicle"><path d="M955.674,128.886 C795.824,140.301 474.555,165.273 203.5,199 C197.807,199.708 191.952,200.489 186.054,201.315 " fill="none" id="sofdcar.nodes.Root-backto-sofdcar.nodes.Vehicle" style="stroke:#181818;stroke-width:1.0;"/><polygon fill="none" points="955.301,121.895,975.746,127.463,956.291,135.86,955.301,121.895" style="stroke:#181818;stroke-width:1.0;"/></g><!--reverse link sofdcar.nodes.Root to sofdcar.nodes.Cloud--><g id="link_sofdcar.nodes.Root_sofdcar.nodes.Cloud"><path d="M955.682,132.299 C827.389,145.774 599.068,170.991 404.5,199 C399.009,199.79 393.356,200.644 387.663,201.532 " fill="none" id="sofdcar.nodes.Root-backto-sofdcar.nodes.Cloud" style="stroke:#181818;stroke-width:1.0;"/><polygon fill="none" points="955.155,125.316,975.774,130.199,956.61,139.241,955.155,125.316" style="stroke:#181818;stroke-width:1.0;"/></g><!--reverse link sofdcar.nodes.Root to sofdcar.nodes.ECU.Hardware--><g id="link_sofdcar.nodes.Root_sofdcar.nodes.ECU.Hardware"><path d="M955.987,140.135 C861.785,157.131 722.031,182.346 629.875,198.973 " fill="none" id="sofdcar.nodes.Root-backto-sofdcar.nodes.ECU.Hardware" style="stroke:#181818;stroke-width:1.0;"/><polygon fill="none" points="955.026,133.195,975.951,136.533,957.511,146.973,955.026,133.195" style="stroke:#181818;stroke-width:1.0;"/></g><!--reverse link sofdcar.nodes.Root to sofdcar.nodes.ECU.Software--><g id="link_sofdcar.nodes.Root_sofdcar.nodes.ECU.Software"><path d="M990.174,145.888 C944.189,162.449 884.05,184.109 842.854,198.945 " fill="none" id="sofdcar.nodes.Root-backto-sofdcar.nodes.ECU.Software" style="stroke:#181818;stroke-width:1.0;"/><polygon fill="none" points="988.046,139.214,1009.23,139.023,992.79,152.386,988.046,139.214" style="stroke:#181818;stroke-width:1.0;"/></g><!--reverse link sofdcar.nodes.ECU.Software to sofdcar.nodes.ECU.Runtime--><g id="link_sofdcar.nodes.ECU.Software_sofdcar.nodes.ECU.Runtime"><path d="M704.561,239.6962 C634.139,256.4973 537.955,279.4448 472.984,294.9454 " fill="none" id="sofdcar.nodes.ECU.Software-backto-sofdcar.nodes.ECU.Runtime" style="stroke:#181818;stroke-width:1.0;"/><polygon fill="none" points="703.071,232.8552,724.15,235.0227,706.32,246.473,703.071,232.8552" style="stroke:#181818;stroke-width:1.0;"/></g><!--reverse link tosca.nodes.SoftwareComponent to sofdcar.nodes.HPC.Software--><g id="link_tosca.nodes.SoftwareComponent_sofdcar.nodes.HPC.Software"><path d="M1291.5,43.423 C1291.5,62.445 1291.5,86.849 1291.5,102.933 " fill="none" id="tosca.nodes.SoftwareComponent-backto-sofdcar.nodes.HPC.Software" style="stroke:#181818;stroke-width:1.0;"/><polygon fill="none" points="1284.5,43.239,1291.5,23.239,1298.5,43.239,1284.5,43.239" style="stroke:#181818;stroke-width:1.0;"/></g><!--reverse link sofdcar.nodes.Root to sofdcar.nodes.HPC.Hardware--><g id="link_sofdcar.nodes.Root_sofdcar.nodes.HPC.Hardware"><path d="M1056.5,159.621 C1056.5,173.213 1056.5,187.895 1056.5,198.868 " fill="none" id="sofdcar.nodes.Root-backto-sofdcar.nodes.HPC.Hardware" style="stroke:#181818;stroke-width:1.0;"/><polygon fill="none" points="1049.5,159.241,1056.5,139.241,1063.5,159.241,1049.5,159.241" style="stroke:#181818;stroke-width:1.0;"/></g><!--reverse link sofdcar.nodes.Root to sofdcar.nodes.Actuator--><g id="link_sofdcar.nodes.Root_sofdcar.nodes.Actuator"><path d="M1119.4,146.333 C1162.07,162.836 1217.4,184.241 1255.41,198.945 " fill="none" id="sofdcar.nodes.Root-backto-sofdcar.nodes.Actuator" style="stroke:#181818;stroke-width:1.0;"/><polygon fill="none" points="1116.63,152.767,1100.51,139.023,1121.68,139.71,1116.63,152.767" style="stroke:#181818;stroke-width:1.0;"/></g><!--reverse link sofdcar.nodes.Actuator to sofdcar.nodes.Accelerator--><g id="link_sofdcar.nodes.Actuator_sofdcar.nodes.Accelerator"><path d="M1184.72,235.3922 C1024.11,259.0665 860.311,282.4465 756.548,297.1609 " fill="none" id="sofdcar.nodes.Actuator-backto-sofdcar.nodes.Accelerator" style="stroke:#181818;stroke-width:1.0;"/><polygon fill="none" points="1183.99,228.425,1204.8,232.429,1186.03,242.2746,1183.99,228.425" style="stroke:#181818;stroke-width:1.0;"/></g><!--reverse link sofdcar.nodes.Actuator to sofdcar.nodes.Brake--><g id="link_sofdcar.nodes.Actuator_sofdcar.nodes.Brake"><path d="M1203.09,239.3731 C1127.18,256.2022 1022.79,279.3452 952.427,294.9454 " fill="none" id="sofdcar.nodes.Actuator-backto-sofdcar.nodes.Brake" style="stroke:#181818;stroke-width:1.0;"/><polygon fill="none" points="1201.68,232.5176,1222.72,235.0227,1204.71,246.1857,1201.68,232.5176" style="stroke:#181818;stroke-width:1.0;"/></g><!--reverse link sofdcar.nodes.Actuator to sofdcar.nodes.Steering--><g id="link_sofdcar.nodes.Actuator_sofdcar.nodes.Steering"><path d="M1242.86,243.2321 C1206.11,259.6072 1159.19,280.5069 1126.78,294.9454 " fill="none" id="sofdcar.nodes.Actuator-backto-sofdcar.nodes.Steering" style="stroke:#181818;stroke-width:1.0;"/><polygon fill="none" points="1240.17,236.7674,1261.29,235.0227,1245.87,249.5558,1240.17,236.7674" style="stroke:#181818;stroke-width:1.0;"/></g><!--reverse link sofdcar.nodes.Actuator to sofdcar.nodes.Light--><g id="link_sofdcar.nodes.Actuator_sofdcar.nodes.Light"><path d="M1299.5,255.621 C1299.5,269.2125 1299.5,283.8949 1299.5,294.8683 " fill="none" id="sofdcar.nodes.Actuator-backto-sofdcar.nodes.Light" style="stroke:#181818;stroke-width:1.0;"/><polygon fill="none" points="1292.5,255.2411,1299.5,235.241,1306.5,255.241,1292.5,255.2411" style="stroke:#181818;stroke-width:1.0;"/></g><!--reverse link sofdcar.nodes.Actuator to sofdcar.nodes.Airbag--><g id="link_sofdcar.nodes.Actuator_sofdcar.nodes.Airbag"><path d="M1354.72,243.5716 C1389.98,259.8951 1434.7,280.6065 1465.67,294.9454 " fill="none" id="sofdcar.nodes.Actuator-backto-sofdcar.nodes.Airbag" style="stroke:#181818;stroke-width:1.0;"/><polygon fill="none" points="1351.47,249.7786,1336.26,235.0227,1357.35,237.0745,1351.47,249.7786" style="stroke:#181818;stroke-width:1.0;"/></g><!--reverse link sofdcar.nodes.Root to sofdcar.nodes.Sensor--><g id="link_sofdcar.nodes.Root_sofdcar.nodes.Sensor"><path d="M1157,138.318 C1158.51,138.548 1160.01,138.775 1161.5,139 C1324.82,163.63 1515.8,189.712 1624.62,204.317 " fill="none" id="sofdcar.nodes.Root-backto-sofdcar.nodes.Sensor" style="stroke:#181818;stroke-width:1.0;"/><polygon fill="none" points="1155.71,145.201,1137.02,135.218,1157.85,131.367,1155.71,145.201" style="stroke:#181818;stroke-width:1.0;"/></g><!--reverse link sofdcar.nodes.Sensor to sofdcar.nodes.RADAR--><g id="link_sofdcar.nodes.Sensor_sofdcar.nodes.RADAR"><path d="M1712.5,255.621 C1712.5,269.2125 1712.5,283.8949 1712.5,294.8683 " fill="none" id="sofdcar.nodes.Sensor-backto-sofdcar.nodes.RADAR" style="stroke:#181818;stroke-width:1.0;"/><polygon fill="none" points="1705.5,255.2411,1712.5,235.241,1719.5,255.241,1705.5,255.2411" style="stroke:#181818;stroke-width:1.0;"/></g><!--reverse link sofdcar.nodes.Sensor to sofdcar.nodes.Camera--><g id="link_sofdcar.nodes.Sensor_sofdcar.nodes.Camera"><path d="M1769.69,243.1193 C1807,259.511 1854.73,280.4737 1887.67,294.9454 " fill="none" id="sofdcar.nodes.Sensor-backto-sofdcar.nodes.Camera" style="stroke:#181818;stroke-width:1.0;"/><polygon fill="none" points="1766.75,249.475,1751.25,235.0227,1772.38,236.6571,1766.75,249.475" style="stroke:#181818;stroke-width:1.0;"/></g><!--reverse link sofdcar.nodes.Sensor to sofdcar.nodes.LIDAR--><g id="link_sofdcar.nodes.Sensor_sofdcar.nodes.LIDAR"><path d="M1808.91,239.3731 C1884.82,256.2022 1989.21,279.3452 2059.57,294.9454 " fill="none" id="sofdcar.nodes.Sensor-backto-sofdcar.nodes.LIDAR" style="stroke:#181818;stroke-width:1.0;"/><polygon fill="none" points="1807.29,246.1857,1789.28,235.0227,1810.32,232.5176,1807.29,246.1857" style="stroke:#181818;stroke-width:1.0;"/></g><!--reverse link sofdcar.nodes.Sensor to sofdcar.nodes.Ultrasonic--><g id="link_sofdcar.nodes.Sensor_sofdcar.nodes.Ultrasonic"><path d="M1819.97,235.3302 C2007.63,263.7634 2057.65,268.8614 2238.5,295 C2244.14,295.8152 2249.93,296.6555 2255.78,297.5056 " fill="none" id="sofdcar.nodes.Sensor-backto-sofdcar.nodes.Ultrasonic" style="stroke:#181818;stroke-width:1.0;"/><polygon fill="none" points="1818.86,242.2418,1800.14,232.3164,1820.96,228.401,1818.86,242.2418" style="stroke:#181818;stroke-width:1.0;"/></g><!--reverse link sofdcar.nodes.Root to sofdcar.nodes.Channel--><g id="link_sofdcar.nodes.Root_sofdcar.nodes.Channel"><path d="M1157.41,138.474 C1158.78,138.653 1160.15,138.829 1161.5,139 C1451.96,175.751 1526.91,163.292 1817.5,199 C1823.35,199.719 1829.37,200.508 1835.43,201.34 " fill="none" id="sofdcar.nodes.Root-backto-sofdcar.nodes.Channel" style="stroke:#181818;stroke-width:1.0;"/><polygon fill="none" points="1156.08,145.356,1137.25,135.652,1158.02,131.491,1156.08,145.356" style="stroke:#181818;stroke-width:1.0;"/></g><!--reverse link sofdcar.nodes.Root to sofdcar.nodes.Battery--><g id="link_sofdcar.nodes.Root_sofdcar.nodes.Battery"><path d="M1157.41,138.517 C1158.78,138.683 1160.14,138.844 1161.5,139 C1548.75,183.53 1649.12,155.592 2036.5,199 C2042.5,199.672 2048.67,200.436 2054.88,201.259 " fill="none" id="sofdcar.nodes.Root-backto-sofdcar.nodes.Battery" style="stroke:#181818;stroke-width:1.0;"/><polygon fill="none" points="1156.13,145.409,1137.22,135.838,1157.97,131.531,1156.13,145.409" style="stroke:#181818;stroke-width:1.0;"/></g><!--SRC=[bPHDReCm48Ntd09b7qxG3QMLKgcB2fJkfsO2LemT3OEgI3ryKwac1C5WxopxlV7uvtlzMTiB47IfSjt5MRHSyTLWIgWOR6CmIP9ndEvwTweLK6PTZNrMEiSxOVqJMwqCIfB2kA6M1A_5CJi0rTz0kAMht8b3TELWMNUYxF1H19NxquMqboiUW1t96eK6QKlsJ70MzweOaRHj9CsxRbhnxN9DNo2MgD3sSgTb_fANukj3TpklsEVRHecZOOBUMQt4ZLgm5eruhS2CTBr9aXsxNi7qawTFF_lzolTVcbtKtt48jdWyWWqpNA9ya_ykhQxwxrWzNA0t5ZvXbYlCY0lkV4PWi6z2vDhAYczAQPJLanjbcj0SvVE4nntEKnzyZMCABCylW_EV2n6MCIaYF3ux8YmFQH9EwPWkmHQVDhy0]--></g></svg>