<svg xmlns="http://www.w3.org/2000/svg" xmlns:xlink="http://www.w3.org/1999/xlink" contentStyleType="text/css" height="337px" preserveAspectRatio="none" style="width:2645px;height:337px;background:#FFFFFF;" version="1.1" viewBox="0 0 2645 337" width="2645px" zoomAndPan="magnify"><defs/><g><!--entity sofdcar.nodes.Root--><g id="elem_sofdcar.nodes.Root"><rect fill="#F1F1F1" height="36.2969" rx="2.5" ry="2.5" style="stroke:#181818;stroke-width:0.5;" width="156" x="1071.5" y="103"/><text fill="#000000" font-family="sans-serif" font-size="14" lengthAdjust="spacing" textLength="136" x="1081.5" y="125.9951">sofdcar.nodes.Root</text></g><!--entity sofdcar.nodes.Vehicle--><g id="elem_sofdcar.nodes.Vehicle"><rect fill="#F1F1F1" height="36.2969" rx="2.5" ry="2.5" style="stroke:#181818;stroke-width:0.5;" width="173" x="7" y="199"/><text fill="#000000" font-family="sans-serif" font-size="14" lengthAdjust="spacing" textLength="153" x="17" y="221.9951">sofdcar.nodes.Vehicle</text></g><!--entity sofdcar.nodes.Cloud--><g id="elem_sofdcar.nodes.Cloud"><rect fill="#F1F1F1" height="36.2969" rx="2.5" ry="2.5" style="stroke:#181818;stroke-width:0.5;" width="163" x="215" y="199"/><text fill="#000000" font-family="sans-serif" font-size="14" lengthAdjust="spacing" textLength="143" x="225" y="221.9951">sofdcar.nodes.Cloud</text></g><!--entity sofdcar.nodes.ECU.Hardware--><g id="elem_sofdcar.nodes.ECU.Hardware"><rect fill="#F1F1F1" height="36.2969" rx="2.5" ry="2.5" style="stroke:#181818;stroke-width:0.5;" width="221" x="413" y="199"/><text fill="#000000" font-family="sans-serif" font-size="14" lengthAdjust="spacing" textLength="201" x="423" y="221.9951">sofdcar.nodes.ECU.Hardware</text></g><!--entity sofdcar.nodes.ECU.Software--><g id="elem_sofdcar.nodes.ECU.Software"><rect fill="#F1F1F1" height="36.2969" rx="2.5" ry="2.5" style="stroke:#181818;stroke-width:0.5;" width="216" x="669.5" y="199"/><text fill="#000000" font-family="sans-serif" font-size="14" lengthAdjust="spacing" textLength="196" x="679.5" y="221.9951">sofdcar.nodes.ECU.Software</text></g><!--entity sofdcar.nodes.ECU.Runtime--><g id="elem_sofdcar.nodes.ECU.Runtime"><rect fill="#F1F1F1" height="36.2969" rx="2.5" ry="2.5" style="stroke:#181818;stroke-width:0.5;" width="214" x="88.5" y="295"/><text fill="#000000" font-family="sans-serif" font-size="14" lengthAdjust="spacing" textLength="194" x="98.5" y="317.9951">sofdcar.nodes.ECU.Runtime</text></g><!--entity sofdcar.nodes.HPC.Software--><g id="elem_sofdcar.nodes.HPC.Software"><rect fill="#F1F1F1" height="36.2969" rx="2.5" ry="2.5" style="stroke:#181818;stroke-width:0.5;" width="216" x="1269.5" y="103"/><text fill="#000000" font-family="sans-serif" font-size="14" lengthAdjust="spacing" textLength="196" x="1279.5" y="125.9951">sofdcar.nodes.HPC.Software</text></g><!--entity sofdcar.nodes.HPC.Hardware--><g id="elem_sofdcar.nodes.HPC.Hardware"><rect fill="#F1F1F1" height="36.2969" rx="2.5" ry="2.5" style="stroke:#181818;stroke-width:0.5;" width="221" x="921" y="199"/><text fill="#000000" font-family="sans-serif" font-size="14" lengthAdjust="spacing" textLength="201" x="931" y="221.9951">sofdcar.nodes.HPC.Hardware</text></g><!--entity sofdcar.nodes.Actuator--><g id="elem_sofdcar.nodes.Actuator"><rect fill="#F1F1F1" height="36.2969" rx="2.5" ry="2.5" style="stroke:#181818;stroke-width:0.5;" width="181" x="1177" y="199"/><text fill="#000000" font-family="sans-serif" font-size="14" lengthAdjust="spacing" textLength="161" x="1187" y="221.9951">sofdcar.nodes.Actuator</text></g><!--entity sofdcar.nodes.Accelerator--><g id="elem_sofdcar.nodes.Accelerator"><rect fill="#F1F1F1" height="36.2969" rx="2.5" ry="2.5" style="stroke:#181818;stroke-width:0.5;" width="201" x="338" y="295"/><text fill="#000000" font-family="sans-serif" font-size="14" lengthAdjust="spacing" textLength="181" x="348" y="317.9951">sofdcar.nodes.Accelerator</text></g><!--entity sofdcar.nodes.Brake--><g id="elem_sofdcar.nodes.Brake"><rect fill="#F1F1F1" height="36.2969" rx="2.5" ry="2.5" style="stroke:#181818;stroke-width:0.5;" width="163" x="574" y="295"/><text fill="#000000" font-family="sans-serif" font-size="14" lengthAdjust="spacing" textLength="143" x="584" y="317.9951">sofdcar.nodes.Brake</text></g><!--entity sofdcar.nodes.Steering--><g id="elem_sofdcar.nodes.Steering"><rect fill="#F1F1F1" height="36.2969" rx="2.5" ry="2.5" style="stroke:#181818;stroke-width:0.5;" width="181" x="772" y="295"/><text fill="#000000" font-family="sans-serif" font-size="14" lengthAdjust="spacing" textLength="161" x="782" y="317.9951">sofdcar.nodes.Steering</text></g><!--entity sofdcar.nodes.Light--><g id="elem_sofdcar.nodes.Light"><rect fill="#F1F1F1" height="36.2969" rx="2.5" ry="2.5" style="stroke:#181818;stroke-width:0.5;" width="156" x="988.5" y="295"/><text fill="#000000" font-family="sans-serif" font-size="14" lengthAdjust="spacing" textLength="136" x="998.5" y="317.9951">sofdcar.nodes.Light</text></g><!--entity sofdcar.nodes.Cooling--><g id="elem_sofdcar.nodes.Cooling"><rect fill="#F1F1F1" height="36.2969" rx="2.5" ry="2.5" style="stroke:#181818;stroke-width:0.5;" width="175" x="1180" y="295"/><text fill="#000000" font-family="sans-serif" font-size="14" lengthAdjust="spacing" textLength="155" x="1190" y="317.9951">sofdcar.nodes.Cooling</text></g><!--entity sofdcar.nodes.Airbag--><g id="elem_sofdcar.nodes.Airbag"><rect fill="#F1F1F1" height="36.2969" rx="2.5" ry="2.5" style="stroke:#181818;stroke-width:0.5;" width="166" x="1390.5" y="295"/><text fill="#000000" font-family="sans-serif" font-size="14" lengthAdjust="spacing" textLength="146" x="1400.5" y="317.9951">sofdcar.nodes.Airbag</text></g><!--entity sofdcar.nodes.Sensor--><g id="elem_sofdcar.nodes.Sensor"><rect fill="#F1F1F1" height="36.2969" rx="2.5" ry="2.5" style="stroke:#181818;stroke-width:0.5;" width="172" x="1591.5" y="199"/><text fill="#000000" font-family="sans-serif" font-size="14" lengthAdjust="spacing" textLength="152" x="1601.5" y="221.9951">sofdcar.nodes.Sensor</text></g><!--entity sofdcar.nodes.RADAR--><g id="elem_sofdcar.nodes.RADAR"><rect fill="#F1F1F1" height="36.2969" rx="2.5" ry="2.5" style="stroke:#181818;stroke-width:0.5;" width="172" x="1591.5" y="295"/><text fill="#000000" font-family="sans-serif" font-size="14" lengthAdjust="spacing" textLength="152" x="1601.5" y="317.9951">sofdcar.nodes.RADAR</text></g><!--entity sofdcar.nodes.Camera--><g id="elem_sofdcar.nodes.Camera"><rect fill="#F1F1F1" height="36.2969" rx="2.5" ry="2.5" style="stroke:#181818;stroke-width:0.5;" width="176" x="1798.5" y="295"/><text fill="#000000" font-family="sans-serif" font-size="14" lengthAdjust="spacing" textLength="156" x="1808.5" y="317.9951">sofdcar.nodes.Camera</text></g><!--entity sofdcar.nodes.LIDAR--><g id="elem_sofdcar.nodes.LIDAR"><rect fill="#F1F1F1" height="36.2969" rx="2.5" ry="2.5" style="stroke:#181818;stroke-width:0.5;" width="163" x="2010" y="295"/><text fill="#000000" font-family="sans-serif" font-size="14" lengthAdjust="spacing" textLength="143" x="2020" y="317.9951">sofdcar.nodes.LIDAR</text></g><!--entity sofdcar.nodes.Ultrasonic--><g id="elem_sofdcar.nodes.Ultrasonic"><rect fill="#F1F1F1" height="36.2969" rx="2.5" ry="2.5" style="stroke:#181818;stroke-width:0.5;" width="191" x="2208" y="295"/><text fill="#000000" font-family="sans-serif" font-size="14" lengthAdjust="spacing" textLength="171" x="2218" y="317.9951">sofdcar.nodes.Ultrasonic</text></g><!--entity sofdcar.nodes.Microphone--><g id="elem_sofdcar.nodes.Microphone"><rect fill="#F1F1F1" height="36.2969" rx="2.5" ry="2.5" style="stroke:#181818;stroke-width:0.5;" width="205" x="2434" y="295"/><text fill="#000000" font-family="sans-serif" font-size="14" lengthAdjust="spacing" textLength="185" x="2444" y="317.9951">sofdcar.nodes.Microphone</text></g><!--entity sofdcar.nodes.Channel--><g id="elem_sofdcar.nodes.Channel"><rect fill="#F1F1F1" height="36.2969" rx="2.5" ry="2.5" style="stroke:#181818;stroke-width:0.5;" width="180" x="1798.5" y="199"/><text fill="#000000" font-family="sans-serif" font-size="14" lengthAdjust="spacing" textLength="160" x="1808.5" y="221.9951">sofdcar.nodes.Channel</text></g><!--entity sofdcar.nodes.Battery--><g id="elem_sofdcar.nodes.Battery"><rect fill="#F1F1F1" height="36.2969" rx="2.5" ry="2.5" style="stroke:#181818;stroke-width:0.5;" width="172" x="2013.5" y="199"/><text fill="#000000" font-family="sans-serif" font-size="14" lengthAdjust="spacing" textLength="152" x="2023.5" y="221.9951">sofdcar.nodes.Battery</text></g><!--entity sofdcar.nodes.Feature--><g id="elem_sofdcar.nodes.Feature"><rect fill="#F1F1F1" height="36.2969" rx="2.5" ry="2.5" style="stroke:#181818;stroke-width:0.5;" width="176" x="2220.5" y="199"/><text fill="#000000" font-family="sans-serif" font-size="14" lengthAdjust="spacing" textLength="156" x="2230.5" y="221.9951">sofdcar.nodes.Feature</text></g><!--entity tosca.nodes.Root--><g id="elem_tosca.nodes.Root"><ellipse cx="1149.5" cy="14" fill="#F1F1F1" rx="8" ry="8" style="stroke:#181818;stroke-width:0.5;"/><text fill="#000000" font-family="sans-serif" font-size="14" lengthAdjust="spacing" textLength="123" x="1088" y="43.9951">tosca.nodes.Root</text></g><!--entity tosca.nodes.SoftwareComponent--><g id="elem_tosca.nodes.SoftwareComponent"><ellipse cx="1377.5" cy="14" fill="#F1F1F1" rx="8" ry="8" style="stroke:#181818;stroke-width:0.5;"/><text fill="#000000" font-family="sans-serif" font-size="14" lengthAdjust="spacing" textLength="232" x="1261.5" y="43.9951">tosca.nodes.SoftwareComponent</text></g><!--reverse link tosca.nodes.Root to sofdcar.nodes.Root--><g id="link_tosca.nodes.Root_sofdcar.nodes.Root"><path d="M1149.5,43.42 C1149.5,62.44 1149.5,86.85 1149.5,102.93 " fill="none" id="tosca.nodes.Root-backto-sofdcar.nodes.Root" style="stroke:#181818;stroke-width:1.0;"/><polygon fill="none" points="1142.5,43.24,1149.5,23.24,1156.5,43.24,1142.5,43.24" style="stroke:#181818;stroke-width:1.0;"/></g><!--reverse link sofdcar.nodes.Root to sofdcar.nodes.Vehicle--><g id="link_sofdcar.nodes.Root_sofdcar.nodes.Vehicle"><path d="M1051.12,127.31 C878.07,137.24 508.1,161.12 197.5,199 C191.87,199.69 186.08,200.46 180.25,201.28 " fill="none" id="sofdcar.nodes.Root-backto-sofdcar.nodes.Vehicle" style="stroke:#181818;stroke-width:1.0;"/><polygon fill="none" points="1050.86,120.32,1071.23,126.17,1051.66,134.29,1050.86,120.32" style="stroke:#181818;stroke-width:1.0;"/></g><!--reverse link sofdcar.nodes.Root to sofdcar.nodes.Cloud--><g id="link_sofdcar.nodes.Root_sofdcar.nodes.Cloud"><path d="M1051.12,129.89 C906.93,141.94 629.88,166.95 395.5,199 C389.8,199.78 383.92,200.64 378.01,201.55 " fill="none" id="sofdcar.nodes.Root-backto-sofdcar.nodes.Cloud" style="stroke:#181818;stroke-width:1.0;"/><polygon fill="none" points="1050.9,122.88,1071.41,128.2,1052.06,136.83,1050.9,122.88" style="stroke:#181818;stroke-width:1.0;"/></g><!--reverse link sofdcar.nodes.Root to sofdcar.nodes.ECU.Hardware--><g id="link_sofdcar.nodes.Root_sofdcar.nodes.ECU.Hardware"><path d="M1051.57,136.71 C938.38,153.7 752.54,181.61 634.2,199.38 " fill="none" id="sofdcar.nodes.Root-backto-sofdcar.nodes.ECU.Hardware" style="stroke:#181818;stroke-width:1.0;"/><polygon fill="none" points="1050.66,129.76,1071.48,133.72,1052.74,143.61,1050.66,129.76" style="stroke:#181818;stroke-width:1.0;"/></g><!--reverse link sofdcar.nodes.Root to sofdcar.nodes.ECU.Software--><g id="link_sofdcar.nodes.Root_sofdcar.nodes.ECU.Software"><path d="M1062.35,144.02 C995.98,160.79 905.94,183.54 844.99,198.95 " fill="none" id="sofdcar.nodes.Root-backto-sofdcar.nodes.ECU.Software" style="stroke:#181818;stroke-width:1.0;"/><polygon fill="none" points="1061.03,137.14,1082.13,139.02,1064.46,150.71,1061.03,137.14" style="stroke:#181818;stroke-width:1.0;"/></g><!--reverse link sofdcar.nodes.ECU.Software to sofdcar.nodes.ECU.Runtime--><g id="link_sofdcar.nodes.ECU.Software_sofdcar.nodes.ECU.Runtime"><path d="M652.09,238.25 C547.4,255.16 399.84,279 301.09,294.95 " fill="none" id="sofdcar.nodes.ECU.Software-backto-sofdcar.nodes.ECU.Runtime" style="stroke:#181818;stroke-width:1.0;"/><polygon fill="none" points="651.24,231.3,672.1,235.02,653.48,245.12,651.24,231.3" style="stroke:#181818;stroke-width:1.0;"/></g><!--reverse link tosca.nodes.SoftwareComponent to sofdcar.nodes.HPC.Software--><g id="link_tosca.nodes.SoftwareComponent_sofdcar.nodes.HPC.Software"><path d="M1377.5,43.42 C1377.5,62.44 1377.5,86.85 1377.5,102.93 " fill="none" id="tosca.nodes.SoftwareComponent-backto-sofdcar.nodes.HPC.Software" style="stroke:#181818;stroke-width:1.0;"/><polygon fill="none" points="1370.5,43.24,1377.5,23.24,1384.5,43.24,1370.5,43.24" style="stroke:#181818;stroke-width:1.0;"/></g><!--reverse link sofdcar.nodes.Root to sofdcar.nodes.HPC.Hardware--><g id="link_sofdcar.nodes.Root_sofdcar.nodes.HPC.Hardware"><path d="M1112.22,151.7 C1092.75,167.21 1069.61,185.64 1053.11,198.79 " fill="none" id="sofdcar.nodes.Root-backto-sofdcar.nodes.HPC.Hardware" style="stroke:#181818;stroke-width:1.0;"/><polygon fill="none" points="1108.13,146.01,1128.13,139.02,1116.85,156.96,1108.13,146.01" style="stroke:#181818;stroke-width:1.0;"/></g><!--reverse link sofdcar.nodes.Root to sofdcar.nodes.Actuator--><g id="link_sofdcar.nodes.Root_sofdcar.nodes.Actuator"><path d="M1186.78,151.7 C1206.25,167.21 1229.39,185.64 1245.89,198.79 " fill="none" id="sofdcar.nodes.Root-backto-sofdcar.nodes.Actuator" style="stroke:#181818;stroke-width:1.0;"/><polygon fill="none" points="1182.15,156.96,1170.87,139.02,1190.87,146.01,1182.15,156.96" style="stroke:#181818;stroke-width:1.0;"/></g><!--reverse link sofdcar.nodes.Actuator to sofdcar.nodes.Accelerator--><g id="link_sofdcar.nodes.Actuator_sofdcar.nodes.Accelerator"><path d="M1156.76,235.21 C888.98,268.98 817.45,263.24 556.5,295 C550.85,295.69 545.05,296.42 539.2,297.19 " fill="none" id="sofdcar.nodes.Actuator-backto-sofdcar.nodes.Accelerator" style="stroke:#181818;stroke-width:1.0;"/><polygon fill="none" points="1156.08,228.24,1176.81,232.66,1157.85,242.13,1156.08,228.24" style="stroke:#181818;stroke-width:1.0;"/></g><!--reverse link sofdcar.nodes.Actuator to sofdcar.nodes.Brake--><g id="link_sofdcar.nodes.Actuator_sofdcar.nodes.Brake"><path d="M1156.79,235.39 C976.31,262.77 927.95,267.26 754.5,295 C748.82,295.91 742.95,296.87 737.05,297.84 " fill="none" id="sofdcar.nodes.Actuator-backto-sofdcar.nodes.Brake" style="stroke:#181818;stroke-width:1.0;"/><polygon fill="none" points="1155.94,228.44,1176.76,232.34,1158.04,242.28,1155.94,228.44" style="stroke:#181818;stroke-width:1.0;"/></g><!--reverse link sofdcar.nodes.Actuator to sofdcar.nodes.Steering--><g id="link_sofdcar.nodes.Actuator_sofdcar.nodes.Steering"><path d="M1174.49,239.59 C1102.06,256.4 1002.91,279.41 935.98,294.95 " fill="none" id="sofdcar.nodes.Actuator-backto-sofdcar.nodes.Steering" style="stroke:#181818;stroke-width:1.0;"/><polygon fill="none" points="1173.09,232.73,1194.16,235.02,1176.26,246.36,1173.09,232.73" style="stroke:#181818;stroke-width:1.0;"/></g><!--reverse link sofdcar.nodes.Actuator to sofdcar.nodes.Light--><g id="link_sofdcar.nodes.Actuator_sofdcar.nodes.Light"><path d="M1212.82,243.57 C1177.92,259.9 1133.63,280.61 1102.97,294.95 " fill="none" id="sofdcar.nodes.Actuator-backto-sofdcar.nodes.Light" style="stroke:#181818;stroke-width:1.0;"/><polygon fill="none" points="1210.02,237.15,1231.1,235.02,1215.95,249.84,1210.02,237.15" style="stroke:#181818;stroke-width:1.0;"/></g><!--reverse link sofdcar.nodes.Actuator to sofdcar.nodes.Cooling--><g id="link_sofdcar.nodes.Actuator_sofdcar.nodes.Cooling"><path d="M1267.5,255.62 C1267.5,269.21 1267.5,283.89 1267.5,294.87 " fill="none" id="sofdcar.nodes.Actuator-backto-sofdcar.nodes.Cooling" style="stroke:#181818;stroke-width:1.0;"/><polygon fill="none" points="1260.5,255.24,1267.5,235.24,1274.5,255.24,1260.5,255.24" style="stroke:#181818;stroke-width:1.0;"/></g><!--reverse link sofdcar.nodes.Actuator to sofdcar.nodes.Airbag--><g id="link_sofdcar.nodes.Actuator_sofdcar.nodes.Airbag"><path d="M1323.04,243.35 C1358.89,259.7 1404.56,280.54 1436.12,294.95 " fill="none" id="sofdcar.nodes.Actuator-backto-sofdcar.nodes.Airbag" style="stroke:#181818;stroke-width:1.0;"/><polygon fill="none" points="1320.09,249.69,1304.81,235.02,1325.91,236.96,1320.09,249.69" style="stroke:#181818;stroke-width:1.0;"/></g><!--reverse link sofdcar.nodes.Root to sofdcar.nodes.Sensor--><g id="link_sofdcar.nodes.Root_sofdcar.nodes.Sensor"><path d="M1247.63,139.47 C1346.41,157.06 1497.24,183.91 1591.47,200.68 " fill="none" id="sofdcar.nodes.Root-backto-sofdcar.nodes.Sensor" style="stroke:#181818;stroke-width:1.0;"/><polygon fill="none" points="1246.16,146.32,1227.69,135.92,1248.61,132.53,1246.16,146.32" style="stroke:#181818;stroke-width:1.0;"/></g><!--reverse link sofdcar.nodes.Sensor to sofdcar.nodes.RADAR--><g id="link_sofdcar.nodes.Sensor_sofdcar.nodes.RADAR"><path d="M1677.5,255.62 C1677.5,269.21 1677.5,283.89 1677.5,294.87 " fill="none" id="sofdcar.nodes.Sensor-backto-sofdcar.nodes.RADAR" style="stroke:#181818;stroke-width:1.0;"/><polygon fill="none" points="1670.5,255.24,1677.5,235.24,1684.5,255.24,1670.5,255.24" style="stroke:#181818;stroke-width:1.0;"/></g><!--reverse link sofdcar.nodes.Sensor to sofdcar.nodes.Camera--><g id="link_sofdcar.nodes.Sensor_sofdcar.nodes.Camera"><path d="M1733.6,243.23 C1770.01,259.61 1816.48,280.51 1848.58,294.95 " fill="none" id="sofdcar.nodes.Sensor-backto-sofdcar.nodes.Camera" style="stroke:#181818;stroke-width:1.0;"/><polygon fill="none" points="1730.72,249.61,1715.35,235.02,1736.46,236.84,1730.72,249.61" style="stroke:#181818;stroke-width:1.0;"/></g><!--reverse link sofdcar.nodes.Sensor to sofdcar.nodes.LIDAR--><g id="link_sofdcar.nodes.Sensor_sofdcar.nodes.LIDAR"><path d="M1772.11,239.48 C1846.19,256.3 1947.83,279.38 2016.39,294.95 " fill="none" id="sofdcar.nodes.Sensor-backto-sofdcar.nodes.LIDAR" style="stroke:#181818;stroke-width:1.0;"/><polygon fill="none" points="1770.43,246.28,1752.47,235.02,1773.53,232.62,1770.43,246.28" style="stroke:#181818;stroke-width:1.0;"/></g><!--reverse link sofdcar.nodes.Sensor to sofdcar.nodes.Ultrasonic--><g id="link_sofdcar.nodes.Sensor_sofdcar.nodes.Ultrasonic"><path d="M1783.65,235.29 C1966.34,263.51 2014.98,268.92 2190.5,295 C2196.19,295.85 2202.04,296.72 2207.95,297.6 " fill="none" id="sofdcar.nodes.Sensor-backto-sofdcar.nodes.Ultrasonic" style="stroke:#181818;stroke-width:1.0;"/><polygon fill="none" points="1782.44,242.19,1763.74,232.21,1784.58,228.35,1782.44,242.19" style="stroke:#181818;stroke-width:1.0;"/></g><!--reverse link sofdcar.nodes.Sensor to sofdcar.nodes.Microphone--><g id="link_sofdcar.nodes.Sensor_sofdcar.nodes.Microphone"><path d="M1783.92,235.14 C2066.09,270.81 2141.44,262.54 2416.5,295 C2422.14,295.67 2427.93,296.38 2433.77,297.13 " fill="none" id="sofdcar.nodes.Sensor-backto-sofdcar.nodes.Microphone" style="stroke:#181818;stroke-width:1.0;"/><polygon fill="none" points="1782.64,242.03,1763.69,232.55,1784.42,228.15,1782.64,242.03" style="stroke:#181818;stroke-width:1.0;"/></g><!--reverse link sofdcar.nodes.Root to sofdcar.nodes.Channel--><g id="link_sofdcar.nodes.Root_sofdcar.nodes.Channel"><path d="M1247.54,138.3 C1249.2,138.54 1250.86,138.77 1252.5,139 C1486.86,171.61 1547.04,167.09 1781.5,199 C1787,199.75 1792.65,200.55 1798.35,201.38 " fill="none" id="sofdcar.nodes.Root-backto-sofdcar.nodes.Channel" style="stroke:#181818;stroke-width:1.0;"/><polygon fill="none" points="1246.35,145.2,1227.61,135.32,1248.42,131.35,1246.35,145.2" style="stroke:#181818;stroke-width:1.0;"/></g><!--reverse link sofdcar.nodes.Root to sofdcar.nodes.Battery--><g id="link_sofdcar.nodes.Root_sofdcar.nodes.Battery"><path d="M1247.53,138.37 C1249.2,138.59 1250.86,138.8 1252.5,139 C1581.77,179.38 1667.23,158.62 1996.5,199 C2001.99,199.67 2007.63,200.43 2013.31,201.23 " fill="none" id="sofdcar.nodes.Root-backto-sofdcar.nodes.Battery" style="stroke:#181818;stroke-width:1.0;"/><polygon fill="none" points="1246.41,145.29,1227.57,135.59,1248.35,131.42,1246.41,145.29" style="stroke:#181818;stroke-width:1.0;"/></g><!--reverse link sofdcar.nodes.Root to sofdcar.nodes.Feature--><g id="link_sofdcar.nodes.Root_sofdcar.nodes.Feature"><path d="M1247.52,138.41 C1249.19,138.62 1250.85,138.81 1252.5,139 C1673.29,186.88 1782.64,151.77 2203.5,199 C2209.01,199.62 2214.66,200.32 2220.36,201.09 " fill="none" id="sofdcar.nodes.Root-backto-sofdcar.nodes.Feature" style="stroke:#181818;stroke-width:1.0;"/><polygon fill="none" points="1246.45,145.33,1227.56,135.73,1248.31,131.46,1246.45,145.33" style="stroke:#181818;stroke-width:1.0;"/></g><!--SRC=[bPJBReCm44NtV0NAFlc2RYXjbKgDL87I_THCWXNZYSoWAb8_lcbL0ubWi7S8tsFyu9xsfEqP73IfekPC5YsNV36OEbGCzcWmIPB-ELsrTAWKk8sb2jjDGSGhOVm3QwqCIf7SK5T9WUTylzc2gxx0uLAkf0E7v8hEicx4sFOz3vhkDnUol4nn1qnEpYWqw9PYZmvEuhTAHdJQ7gNCcpxMujtbH6PXZaoxJn0J9TfMtaoHFMM5k0vehaSYRkLrOOgzOGSjMQsar4uhH-VwsW5nEJLOYqQy7s16Tv4YBmZS_VqmoOgfLJ0kLFhmlLxFL6tgxMH-g5umugiO3DnLCueRTKiQdUM72jySe0TpRxFf6UxQ7RpokxO7SwFsputCS6CZHA7U4b7Go1nHdBT953GO9kvCl7M2Jx-tqFJxwRxzUoa2wKqLmNXtHI0tDelWRlmMBeNUTy78uBzWfFVX3m00]--></g></svg>