<?xml version="1.0" encoding="us-ascii" standalone="no"?><svg xmlns="http://www.w3.org/2000/svg" xmlns:xlink="http://www.w3.org/1999/xlink" contentStyleType="text/css" height="241px" preserveAspectRatio="none" style="width:3295px;height:241px;background:#FFFFFF;" version="1.1" viewBox="0 0 3295 241" width="3295px" zoomAndPan="magnify"><defs/><g><!--entity sofdcar.nodes.CAN--><g id="elem_sofdcar.nodes.CAN"><rect fill="#F1F1F1" height="36.2969" rx="2.5" ry="2.5" style="stroke:#181818;stroke-width:0.5;" width="156" x="7" y="103"/><text fill="#000000" font-family="sans-serif" font-size="14" lengthAdjust="spacing" textLength="136" x="17" y="125.9951">sofdcar.nodes.CAN</text></g><!--entity sofdcar.nodes.CAN-FD--><g id="elem_sofdcar.nodes.CAN-FD"><rect fill="#F1F1F1" height="36.2969" rx="2.5" ry="2.5" style="stroke:#181818;stroke-width:0.5;" width="181" x="198.5" y="103"/><text fill="#000000" font-family="sans-serif" font-size="14" lengthAdjust="spacing" textLength="161" x="208.5" y="125.9951">sofdcar.nodes.CAN-FD</text></g><!--entity sofdcar.nodes.LIN--><g id="elem_sofdcar.nodes.LIN"><rect fill="#F1F1F1" height="36.2969" rx="2.5" ry="2.5" style="stroke:#181818;stroke-width:0.5;" width="148" x="415" y="103"/><text fill="#000000" font-family="sans-serif" font-size="14" lengthAdjust="spacing" textLength="128" x="425" y="125.9951">sofdcar.nodes.LIN</text></g><!--entity sofdcar.nodes.MOST--><g id="elem_sofdcar.nodes.MOST"><rect fill="#F1F1F1" height="36.2969" rx="2.5" ry="2.5" style="stroke:#181818;stroke-width:0.5;" width="167" x="598.5" y="103"/><text fill="#000000" font-family="sans-serif" font-size="14" lengthAdjust="spacing" textLength="147" x="608.5" y="125.9951">sofdcar.nodes.MOST</text></g><!--entity sofdcar.nodes.GPIO--><g id="elem_sofdcar.nodes.GPIO"><rect fill="#F1F1F1" height="36.2969" rx="2.5" ry="2.5" style="stroke:#181818;stroke-width:0.5;" width="161" x="800.5" y="103"/><text fill="#000000" font-family="sans-serif" font-size="14" lengthAdjust="spacing" textLength="141" x="810.5" y="125.9951">sofdcar.nodes.GPIO</text></g><!--entity sofdcar.nodes.FlexRay--><g id="elem_sofdcar.nodes.FlexRay"><rect fill="#F1F1F1" height="36.2969" rx="2.5" ry="2.5" style="stroke:#181818;stroke-width:0.5;" width="181" x="996.5" y="103"/><text fill="#000000" font-family="sans-serif" font-size="14" lengthAdjust="spacing" textLength="161" x="1006.5" y="125.9951">sofdcar.nodes.FlexRay</text></g><!--entity sofdcar.nodes.Ethernet--><g id="elem_sofdcar.nodes.Ethernet"><rect fill="#F1F1F1" height="36.2969" rx="2.5" ry="2.5" style="stroke:#181818;stroke-width:0.5;" width="191" x="1212.5" y="103"/><text fill="#000000" font-family="sans-serif" font-size="14" lengthAdjust="spacing" textLength="171" x="1222.5" y="125.9951">sofdcar.nodes.Ethernet</text></g><!--entity sofdcar.nodes.OBD--><g id="elem_sofdcar.nodes.OBD"><rect fill="#F1F1F1" height="36.2969" rx="2.5" ry="2.5" style="stroke:#181818;stroke-width:0.5;" width="158" x="1439" y="103"/><text fill="#000000" font-family="sans-serif" font-size="14" lengthAdjust="spacing" textLength="138" x="1449" y="125.9951">sofdcar.nodes.OBD</text></g><!--entity sofdcar.nodes.SOME/IP--><g id="elem_sofdcar.nodes.SOME/IP"><rect fill="#F1F1F1" height="36.2969" rx="2.5" ry="2.5" style="stroke:#181818;stroke-width:0.5;" width="185" x="1632.5" y="103"/><text fill="#000000" font-family="sans-serif" font-size="14" lengthAdjust="spacing" textLength="165" x="1642.5" y="125.9951">sofdcar.nodes.SOME/IP</text></g><!--entity sofdcar.nodes.Python.Application--><g id="elem_sofdcar.nodes.Python.Application"><rect fill="#F1F1F1" height="36.2969" rx="2.5" ry="2.5" style="stroke:#181818;stroke-width:0.5;" width="265" x="1852.5" y="103"/><text fill="#000000" font-family="sans-serif" font-size="14" lengthAdjust="spacing" textLength="245" x="1862.5" y="125.9951">sofdcar.nodes.Python.Application</text></g><!--entity sofdcar.nodes.Python.Runtime--><g id="elem_sofdcar.nodes.Python.Runtime"><rect fill="#F1F1F1" height="36.2969" rx="2.5" ry="2.5" style="stroke:#181818;stroke-width:0.5;" width="243" x="2152.5" y="103"/><text fill="#000000" font-family="sans-serif" font-size="14" lengthAdjust="spacing" textLength="223" x="2162.5" y="125.9951">sofdcar.nodes.Python.Runtime</text></g><!--entity sofdcar.nodes.RaspberryPi.Hardware--><g id="elem_sofdcar.nodes.RaspberryPi.Hardware"><rect fill="#F1F1F1" height="36.2969" rx="2.5" ry="2.5" style="stroke:#181818;stroke-width:0.5;" width="285" x="2430.5" y="103"/><text fill="#000000" font-family="sans-serif" font-size="14" lengthAdjust="spacing" textLength="265" x="2440.5" y="125.9951">sofdcar.nodes.RaspberryPi.Hardware</text></g><!--entity sofdcar.nodes.Arduino.Software--><g id="elem_sofdcar.nodes.Arduino.Software"><rect fill="#F1F1F1" height="36.2969" rx="2.5" ry="2.5" style="stroke:#181818;stroke-width:0.5;" width="251" x="2750.5" y="103"/><text fill="#000000" font-family="sans-serif" font-size="14" lengthAdjust="spacing" textLength="231" x="2760.5" y="125.9951">sofdcar.nodes.Arduino.Software</text></g><!--entity sofdcar.nodes.Arduino.Software.C++--><g id="elem_sofdcar.nodes.Arduino.Software.C++"><rect fill="#F1F1F1" height="36.2969" rx="2.5" ry="2.5" style="stroke:#181818;stroke-width:0.5;" width="288" x="2732" y="199"/><text fill="#000000" font-family="sans-serif" font-size="14" lengthAdjust="spacing" textLength="268" x="2742" y="221.9951">sofdcar.nodes.Arduino.Software.C++</text></g><!--entity sofdcar.nodes.Arduino.Hardware--><g id="elem_sofdcar.nodes.Arduino.Hardware"><rect fill="#F1F1F1" height="36.2969" rx="2.5" ry="2.5" style="stroke:#181818;stroke-width:0.5;" width="253" x="3036.5" y="103"/><text fill="#000000" font-family="sans-serif" font-size="14" lengthAdjust="spacing" textLength="233" x="3046.5" y="125.9951">sofdcar.nodes.Arduino.Hardware</text></g><!--entity sofdcar.nodes.Channel--><g id="elem_sofdcar.nodes.Channel"><ellipse cx="881" cy="14" fill="#F1F1F1" rx="8" ry="8" style="stroke:#181818;stroke-width:0.5;"/><text fill="#000000" font-family="sans-serif" font-size="14" lengthAdjust="spacing" textLength="164" x="799" y="43.9951">sofdcar.nodes.Channel</text></g><!--entity sofdcar.nodes.HPC.Software--><g id="elem_sofdcar.nodes.HPC.Software"><ellipse cx="2129" cy="14" fill="#F1F1F1" rx="8" ry="8" style="stroke:#181818;stroke-width:0.5;"/><text fill="#000000" font-family="sans-serif" font-size="14" lengthAdjust="spacing" textLength="205" x="2026.5" y="43.9951">sofdcar.nodes.HPC.Software</text></g><!--entity sofdcar.nodes.HPC.Hardware--><g id="elem_sofdcar.nodes.HPC.Hardware"><ellipse cx="2573" cy="14" fill="#F1F1F1" rx="8" ry="8" style="stroke:#181818;stroke-width:0.5;"/><text fill="#000000" font-family="sans-serif" font-size="14" lengthAdjust="spacing" textLength="207" x="2469.5" y="43.9951">sofdcar.nodes.HPC.Hardware</text></g><!--entity sofdcar.nodes.ECU.Software--><g id="elem_sofdcar.nodes.ECU.Software"><ellipse cx="2876" cy="14" fill="#F1F1F1" rx="8" ry="8" style="stroke:#181818;stroke-width:0.5;"/><text fill="#000000" font-family="sans-serif" font-size="14" lengthAdjust="spacing" textLength="204" x="2774" y="43.9951">sofdcar.nodes.ECU.Software</text></g><!--entity sofdcar.nodes.ECU.Hardware--><g id="elem_sofdcar.nodes.ECU.Hardware"><ellipse cx="3163" cy="14" fill="#F1F1F1" rx="8" ry="8" style="stroke:#181818;stroke-width:0.5;"/><text fill="#000000" font-family="sans-serif" font-size="14" lengthAdjust="spacing" textLength="206" x="3060" y="43.9951">sofdcar.nodes.ECU.Hardware</text></g><!--reverse link sofdcar.nodes.Channel to sofdcar.nodes.CAN--><g id="link_sofdcar.nodes.Channel_sofdcar.nodes.CAN"><path d="M851.74,18.146 C755.53,28.602 440.305,63.767 181,103 C175.143,103.886 169.092,104.848 163.012,105.848 " fill="none" id="sofdcar.nodes.Channel-backto-sofdcar.nodes.CAN" style="stroke:#181818;stroke-width:1.0;"/><polygon fill="none" points="851.262,11.157,871.897,15.969,852.764,25.076,851.262,11.157" style="stroke:#181818;stroke-width:1.0;"/></g><!--reverse link sofdcar.nodes.Channel to sofdcar.nodes.CAN-FD--><g id="link_sofdcar.nodes.Channel_sofdcar.nodes.CAN-FD"><path d="M851.746,20.189 C766.529,35.303 515.925,79.752 379.686,103.915 " fill="none" id="sofdcar.nodes.Channel-backto-sofdcar.nodes.CAN-FD" style="stroke:#181818;stroke-width:1.0;"/><polygon fill="none" points="850.786,13.25,871.701,16.649,853.231,27.035,850.786,13.25" style="stroke:#181818;stroke-width:1.0;"/></g><!--reverse link sofdcar.nodes.Channel to sofdcar.nodes.LIN--><g id="link_sofdcar.nodes.Channel_sofdcar.nodes.LIN"><path d="M852.264,22.697 C789.516,39.505 638.969,79.83 552.663,102.947 " fill="none" id="sofdcar.nodes.Channel-backto-sofdcar.nodes.LIN" style="stroke:#181818;stroke-width:1.0;"/><polygon fill="none" points="850.567,15.905,871.697,17.492,854.189,29.428,850.567,15.905" style="stroke:#181818;stroke-width:1.0;"/></g><!--reverse link sofdcar.nodes.Channel to sofdcar.nodes.MOST--><g id="link_sofdcar.nodes.Channel_sofdcar.nodes.MOST"><path d="M854.017,29.237 C817.685,48.407 753.124,82.472 714.267,102.975 " fill="none" id="sofdcar.nodes.Channel-backto-sofdcar.nodes.MOST" style="stroke:#181818;stroke-width:1.0;"/><polygon fill="none" points="850.977,22.927,871.932,19.784,857.51,35.309,850.977,22.927" style="stroke:#181818;stroke-width:1.0;"/></g><!--reverse link sofdcar.nodes.Channel to sofdcar.nodes.GPIO--><g id="link_sofdcar.nodes.Channel_sofdcar.nodes.GPIO"><path d="M881,43.423 C881,62.445 881,86.849 881,102.933 " fill="none" id="sofdcar.nodes.Channel-backto-sofdcar.nodes.GPIO" style="stroke:#181818;stroke-width:1.0;"/><polygon fill="none" points="874,43.239,881,23.239,888,43.239,874,43.239" style="stroke:#181818;stroke-width:1.0;"/></g><!--reverse link sofdcar.nodes.Channel to sofdcar.nodes.FlexRay--><g id="link_sofdcar.nodes.Channel_sofdcar.nodes.FlexRay"><path d="M908.03,28.777 C945.423,47.837 1012.9,82.231 1053.46,102.906 " fill="none" id="sofdcar.nodes.Channel-backto-sofdcar.nodes.FlexRay" style="stroke:#181818;stroke-width:1.0;"/><polygon fill="none" points="904.757,34.966,890.117,19.647,911.115,22.493,904.757,34.966" style="stroke:#181818;stroke-width:1.0;"/></g><!--reverse link sofdcar.nodes.Channel to sofdcar.nodes.Ethernet--><g id="link_sofdcar.nodes.Channel_sofdcar.nodes.Ethernet"><path d="M909.75,22.07 C976.462,38.474 1143.33,79.508 1238.55,102.923 " fill="none" id="sofdcar.nodes.Channel-backto-sofdcar.nodes.Ethernet" style="stroke:#181818;stroke-width:1.0;"/><polygon fill="none" points="908.066,28.864,890.316,17.291,911.409,15.269,908.066,28.864" style="stroke:#181818;stroke-width:1.0;"/></g><!--reverse link sofdcar.nodes.Channel to sofdcar.nodes.OBD--><g id="link_sofdcar.nodes.Channel_sofdcar.nodes.OBD"><path d="M910.044,19.608 C990.993,32.478 1226,70.024 1421,103 C1426.82,103.983 1432.83,105.011 1438.87,106.052 " fill="none" id="sofdcar.nodes.Channel-backto-sofdcar.nodes.OBD" style="stroke:#181818;stroke-width:1.0;"/><polygon fill="none" points="908.906,26.515,890.251,16.465,911.102,12.688,908.906,26.515" style="stroke:#181818;stroke-width:1.0;"/></g><!--reverse link sofdcar.nodes.Channel to sofdcar.nodes.SOME/IP--><g id="link_sofdcar.nodes.Channel_sofdcar.nodes.SOME/IP"><path d="M910.016,18.141 C1008.74,28.899 1340.64,65.668 1614,103 C1619.99,103.818 1626.15,104.687 1632.37,105.583 " fill="none" id="sofdcar.nodes.Channel-backto-sofdcar.nodes.SOME/IP" style="stroke:#181818;stroke-width:1.0;"/><polygon fill="none" points="909.248,25.098,890.12,15.981,910.758,11.18,909.248,25.098" style="stroke:#181818;stroke-width:1.0;"/></g><!--reverse link sofdcar.nodes.HPC.Software to sofdcar.nodes.Python.Application--><g id="link_sofdcar.nodes.HPC.Software_sofdcar.nodes.Python.Application"><path d="M2103.55,33.555 C2076.7,53.139 2034.71,83.753 2008.58,102.806 " fill="none" id="sofdcar.nodes.HPC.Software-backto-sofdcar.nodes.Python.Application" style="stroke:#181818;stroke-width:1.0;"/><polygon fill="none" points="2099.71,27.696,2119.99,21.568,2107.96,39.008,2099.71,27.696" style="stroke:#181818;stroke-width:1.0;"/></g><!--reverse link sofdcar.nodes.HPC.Software to sofdcar.nodes.Python.Runtime--><g id="link_sofdcar.nodes.HPC.Software_sofdcar.nodes.Python.Runtime"><path d="M2154.62,33.555 C2181.67,53.139 2223.94,83.753 2250.26,102.806 " fill="none" id="sofdcar.nodes.HPC.Software-backto-sofdcar.nodes.Python.Runtime" style="stroke:#181818;stroke-width:1.0;"/><polygon fill="none" points="2150.16,38.968,2138.07,21.568,2158.37,27.629,2150.16,38.968" style="stroke:#181818;stroke-width:1.0;"/></g><!--reverse link sofdcar.nodes.HPC.Hardware to sofdcar.nodes.RaspberryPi.Hardware--><g id="link_sofdcar.nodes.HPC.Hardware_sofdcar.nodes.RaspberryPi.Hardware"><path d="M2573,43.423 C2573,62.445 2573,86.849 2573,102.933 " fill="none" id="sofdcar.nodes.HPC.Hardware-backto-sofdcar.nodes.RaspberryPi.Hardware" style="stroke:#181818;stroke-width:1.0;"/><polygon fill="none" points="2566,43.239,2573,23.239,2580,43.239,2566,43.239" style="stroke:#181818;stroke-width:1.0;"/></g><!--reverse link sofdcar.nodes.ECU.Software to sofdcar.nodes.Arduino.Software--><g id="link_sofdcar.nodes.ECU.Software_sofdcar.nodes.Arduino.Software"><path d="M2876,43.423 C2876,62.445 2876,86.849 2876,102.933 " fill="none" id="sofdcar.nodes.ECU.Software-backto-sofdcar.nodes.Arduino.Software" style="stroke:#181818;stroke-width:1.0;"/><polygon fill="none" points="2869,43.239,2876,23.239,2883,43.239,2869,43.239" style="stroke:#181818;stroke-width:1.0;"/></g><!--reverse link sofdcar.nodes.Arduino.Software to sofdcar.nodes.Arduino.Software.C++--><g id="link_sofdcar.nodes.Arduino.Software_sofdcar.nodes.Arduino.Software.C++"><path d="M2876,159.621 C2876,173.2125 2876,187.8949 2876,198.8683 " fill="none" id="sofdcar.nodes.Arduino.Software-backto-sofdcar.nodes.Arduino.Software.C++" style="stroke:#181818;stroke-width:1.0;"/><polygon fill="none" points="2869,159.2411,2876,139.241,2883,159.241,2869,159.2411" style="stroke:#181818;stroke-width:1.0;"/></g><!--reverse link sofdcar.nodes.ECU.Hardware to sofdcar.nodes.Arduino.Hardware--><g id="link_sofdcar.nodes.ECU.Hardware_sofdcar.nodes.Arduino.Hardware"><path d="M3163,43.423 C3163,62.445 3163,86.849 3163,102.933 " fill="none" id="sofdcar.nodes.ECU.Hardware-backto-sofdcar.nodes.Arduino.Hardware" style="stroke:#181818;stroke-width:1.0;"/><polygon fill="none" points="3156,43.239,3163,23.239,3170,43.239,3156,43.239" style="stroke:#181818;stroke-width:1.0;"/></g><!--SRC=[dPD1ReCm44Ntd0AnZN0lq0sbIOFK50Jj0LoO5AjcR1b7BL8FtmKeHDITuEoGvltH6BtVVmhKtF0kh5Md5GBQoWuIGWErvVWX8GY2ytSOzUhOrDmmL0tqB4rU8deSxnufuZaZ5npowfMQFnLPJirt4hvBFb38rhPW42p5v0_a8whyiBtB2Wef1jigP8dMKjJS2eKhwFA4LdH0aINlzJiOCnI2xRbflhWX-SGq9u6ALUfeVLcMRZPh-8ixWgKGBKS46ONtFt7ibiapCVhb4ngLyqbC5lf49Z5z8hEhFgaBVNrYez4-YLdonM1VfBDEpgXJ_bktpALmR3YhvzpmJrcMVpHzktA9eqJNY5Lxfe8vxg7VzQTulm00]--></g></svg>