<?xml version="1.0" encoding="us-ascii" standalone="no"?><svg xmlns="http://www.w3.org/2000/svg" xmlns:xlink="http://www.w3.org/1999/xlink" contentStyleType="text/css" height="241px" preserveAspectRatio="none" style="width:2273px;height:241px;background:#FFFFFF;" version="1.1" viewBox="0 0 2273 241" width="2273px" zoomAndPan="magnify"><defs/><g><!--entity sofdcar.relationships.Root--><g id="elem_sofdcar.relationships.Root"><rect fill="#F1F1F1" height="36.2969" rx="2.5" ry="2.5" style="stroke:#181818;stroke-width:0.5;" width="211" x="1000.5" y="103"/><text fill="#000000" font-family="sans-serif" font-size="14" lengthAdjust="spacing" textLength="191" x="1010.5" y="125.9951">sofdcar.relationships.Root</text></g><!--entity sofdcar.relationships.CAN--><g id="elem_sofdcar.relationships.CAN"><rect fill="#F1F1F1" height="36.2969" rx="2.5" ry="2.5" style="stroke:#181818;stroke-width:0.5;" width="206" x="7" y="199"/><text fill="#000000" font-family="sans-serif" font-size="14" lengthAdjust="spacing" textLength="186" x="17" y="221.9951">sofdcar.relationships.CAN</text></g><!--entity sofdcar.relationships.CAN-FD--><g id="elem_sofdcar.relationships.CAN-FD"><rect fill="#F1F1F1" height="36.2969" rx="2.5" ry="2.5" style="stroke:#181818;stroke-width:0.5;" width="231" x="248.5" y="199"/><text fill="#000000" font-family="sans-serif" font-size="14" lengthAdjust="spacing" textLength="211" x="258.5" y="221.9951">sofdcar.relationships.CAN-FD</text></g><!--entity sofdcar.relationships.LIN--><g id="elem_sofdcar.relationships.LIN"><rect fill="#F1F1F1" height="36.2969" rx="2.5" ry="2.5" style="stroke:#181818;stroke-width:0.5;" width="198" x="515" y="199"/><text fill="#000000" font-family="sans-serif" font-size="14" lengthAdjust="spacing" textLength="178" x="525" y="221.9951">sofdcar.relationships.LIN</text></g><!--entity sofdcar.relationships.MOST--><g id="elem_sofdcar.relationships.MOST"><rect fill="#F1F1F1" height="36.2969" rx="2.5" ry="2.5" style="stroke:#181818;stroke-width:0.5;" width="217" x="748.5" y="199"/><text fill="#000000" font-family="sans-serif" font-size="14" lengthAdjust="spacing" textLength="197" x="758.5" y="221.9951">sofdcar.relationships.MOST</text></g><!--entity sofdcar.relationships.GPIO--><g id="elem_sofdcar.relationships.GPIO"><rect fill="#F1F1F1" height="36.2969" rx="2.5" ry="2.5" style="stroke:#181818;stroke-width:0.5;" width="211" x="1000.5" y="199"/><text fill="#000000" font-family="sans-serif" font-size="14" lengthAdjust="spacing" textLength="191" x="1010.5" y="221.9951">sofdcar.relationships.GPIO</text></g><!--entity sofdcar.relationships.FlexRay--><g id="elem_sofdcar.relationships.FlexRay"><rect fill="#F1F1F1" height="36.2969" rx="2.5" ry="2.5" style="stroke:#181818;stroke-width:0.5;" width="231" x="1246.5" y="199"/><text fill="#000000" font-family="sans-serif" font-size="14" lengthAdjust="spacing" textLength="211" x="1256.5" y="221.9951">sofdcar.relationships.FlexRay</text></g><!--entity sofdcar.relationships.Ethernet--><g id="elem_sofdcar.relationships.Ethernet"><rect fill="#F1F1F1" height="36.2969" rx="2.5" ry="2.5" style="stroke:#181818;stroke-width:0.5;" width="241" x="1512.5" y="199"/><text fill="#000000" font-family="sans-serif" font-size="14" lengthAdjust="spacing" textLength="221" x="1522.5" y="221.9951">sofdcar.relationships.Ethernet</text></g><!--entity sofdcar.relationships.OBD--><g id="elem_sofdcar.relationships.OBD"><rect fill="#F1F1F1" height="36.2969" rx="2.5" ry="2.5" style="stroke:#181818;stroke-width:0.5;" width="208" x="1789" y="199"/><text fill="#000000" font-family="sans-serif" font-size="14" lengthAdjust="spacing" textLength="188" x="1799" y="221.9951">sofdcar.relationships.OBD</text></g><!--entity sofdcar.relationships.SOME/IP--><g id="elem_sofdcar.relationships.SOME/IP"><rect fill="#F1F1F1" height="36.2969" rx="2.5" ry="2.5" style="stroke:#181818;stroke-width:0.5;" width="235" x="2032.5" y="199"/><text fill="#000000" font-family="sans-serif" font-size="14" lengthAdjust="spacing" textLength="215" x="2042.5" y="221.9951">sofdcar.relationships.SOME/IP</text></g><!--entity tosca.relationships.Root--><g id="elem_tosca.relationships.Root"><ellipse cx="1106" cy="14" fill="#F1F1F1" rx="8" ry="8" style="stroke:#181818;stroke-width:0.5;"/><text fill="#000000" font-family="sans-serif" font-size="14" lengthAdjust="spacing" textLength="177" x="1017.5" y="43.9951">tosca.relationships.Root</text></g><!--reverse link tosca.relationships.Root to sofdcar.relationships.Root--><g id="link_tosca.relationships.Root_sofdcar.relationships.Root"><path d="M1106,43.423 C1106,62.445 1106,86.849 1106,102.933 " fill="none" id="tosca.relationships.Root-backto-sofdcar.relationships.Root" style="stroke:#181818;stroke-width:1.0;"/><polygon fill="none" points="1099,43.239,1106,23.239,1113,43.239,1099,43.239" style="stroke:#181818;stroke-width:1.0;"/></g><!--reverse link sofdcar.relationships.Root to sofdcar.relationships.CAN--><g id="link_sofdcar.relationships.Root_sofdcar.relationships.CAN"><path d="M980.403,130.997 C810.281,143.6537 497.255,168.6016 231,199 C225.204,199.6617 219.257,200.3775 213.258,201.128 " fill="none" id="sofdcar.relationships.Root-backto-sofdcar.relationships.CAN" style="stroke:#181818;stroke-width:1.0;"/><polygon fill="none" points="979.966,124.011,1000.428,129.515,980.999,137.9725,979.966,124.011" style="stroke:#181818;stroke-width:1.0;"/></g><!--reverse link sofdcar.relationships.Root to sofdcar.relationships.CAN-FD--><g id="link_sofdcar.relationships.Root_sofdcar.relationships.CAN-FD"><path d="M980.478,137.8199 C857.341,153.3513 664.242,177.7388 497,199 C491.342,199.7192 485.55,200.4565 479.699,201.2018 " fill="none" id="sofdcar.relationships.Root-backto-sofdcar.relationships.CAN-FD" style="stroke:#181818;stroke-width:1.0;"/><polygon fill="none" points="979.658,130.868,1000.377,135.3104,981.41,144.758,979.658,130.868" style="stroke:#181818;stroke-width:1.0;"/></g><!--reverse link sofdcar.relationships.Root to sofdcar.relationships.LIN--><g id="link_sofdcar.relationships.Root_sofdcar.relationships.LIN"><path d="M997.211,142.785 C908.889,159.6595 785.872,183.1626 703.265,198.9454 " fill="none" id="sofdcar.relationships.Root-backto-sofdcar.relationships.LIN" style="stroke:#181818;stroke-width:1.0;"/><polygon fill="none" points="995.944,135.9004,1016.9,139.0227,998.572,149.6517,995.944,135.9004" style="stroke:#181818;stroke-width:1.0;"/></g><!--reverse link sofdcar.relationships.Root to sofdcar.relationships.MOST--><g id="link_sofdcar.relationships.Root_sofdcar.relationships.MOST"><path d="M1042.13,146.1101 C998.34,162.6428 941.302,184.175 902.177,198.9454 " fill="none" id="sofdcar.relationships.Root-backto-sofdcar.relationships.MOST" style="stroke:#181818;stroke-width:1.0;"/><polygon fill="none" points="1039.72,139.5375,1060.91,139.0227,1044.67,152.6353,1039.72,139.5375" style="stroke:#181818;stroke-width:1.0;"/></g><!--reverse link sofdcar.relationships.Root to sofdcar.relationships.GPIO--><g id="link_sofdcar.relationships.Root_sofdcar.relationships.GPIO"><path d="M1106,159.621 C1106,173.2125 1106,187.8949 1106,198.8683 " fill="none" id="sofdcar.relationships.Root-backto-sofdcar.relationships.GPIO" style="stroke:#181818;stroke-width:1.0;"/><polygon fill="none" points="1099,159.2411,1106,139.241,1113,159.241,1099,159.2411" style="stroke:#181818;stroke-width:1.0;"/></g><!--reverse link sofdcar.relationships.Root to sofdcar.relationships.FlexRay--><g id="link_sofdcar.relationships.Root_sofdcar.relationships.FlexRay"><path d="M1171.36,145.9988 C1216.42,162.546 1275.24,184.1418 1315.55,198.9454 " fill="none" id="sofdcar.relationships.Root-backto-sofdcar.relationships.FlexRay" style="stroke:#181818;stroke-width:1.0;"/><polygon fill="none" points="1168.72,152.4875,1152.36,139.0227,1173.55,139.3454,1168.72,152.4875" style="stroke:#181818;stroke-width:1.0;"/></g><!--reverse link sofdcar.relationships.Root to sofdcar.relationships.Ethernet--><g id="link_sofdcar.relationships.Root_sofdcar.relationships.Ethernet"><path d="M1221.34,142.5724 C1316.02,159.4616 1448.53,183.0962 1537.39,198.9454 " fill="none" id="sofdcar.relationships.Root-backto-sofdcar.relationships.Ethernet" style="stroke:#181818;stroke-width:1.0;"/><polygon fill="none" points="1219.9,149.4259,1201.44,139.0227,1222.35,135.6435,1219.9,149.4259" style="stroke:#181818;stroke-width:1.0;"/></g><!--reverse link sofdcar.relationships.Root to sofdcar.relationships.OBD--><g id="link_sofdcar.relationships.Root_sofdcar.relationships.OBD"><path d="M1231.69,135.6754 C1365.48,150.4381 1583.35,175.0648 1771,199 C1776.83,199.7441 1782.82,200.5245 1788.86,201.3248 " fill="none" id="sofdcar.relationships.Root-backto-sofdcar.relationships.OBD" style="stroke:#181818;stroke-width:1.0;"/><polygon fill="none" points="1230.88,142.6285,1211.76,133.481,1232.41,128.713,1230.88,142.6285" style="stroke:#181818;stroke-width:1.0;"/></g><!--reverse link sofdcar.relationships.Root to sofdcar.relationships.SOME/IP--><g id="link_sofdcar.relationships.Root_sofdcar.relationships.SOME/IP"><path d="M1231.93,131.037 C1407.53,144.0098 1735.85,169.6126 2015,199 C2020.64,199.5936 2026.41,200.2252 2032.23,200.8827 " fill="none" id="sofdcar.relationships.Root-backto-sofdcar.relationships.SOME/IP" style="stroke:#181818;stroke-width:1.0;"/><polygon fill="none" points="1231.23,138.0045,1211.8,129.556,1232.26,124.042,1231.23,138.0045" style="stroke:#181818;stroke-width:1.0;"/></g><!--SRC=[fP9B3e8m54NdNKN37Do04pzWICGIS0DDVGgXjAJjG18NhqdnCp3uKcTDUivDsdjjrwg16zvJeVj1Ar2kTgC4Qa0uhYuI226lCusiFfy4Dua1oLshbMtQmIQLrYv2S9lL0Od5sHP3xdDKOC7g8uRRbJd3S9c4QyL739gw1em2rFUmDUhHDIlIHLu-K18vRGN_rWPTtkBuHrzpjxE-x_4VtVSRdE1x3zQdFGJxqqw2_VT-WYC-TXMSuVSMh3ztU0S0]--></g></svg>