<?xml version="1.0" encoding="us-ascii" standalone="no"?><svg xmlns="http://www.w3.org/2000/svg" xmlns:xlink="http://www.w3.org/1999/xlink" contentStyleType="text/css" height="337px" preserveAspectRatio="none" style="width:4357px;height:337px;background:#FFFFFF;" version="1.1" viewBox="0 0 4357 337" width="4357px" zoomAndPan="magnify"><defs/><g><!--entity sofdcar.nodes.Root--><g id="elem_sofdcar.nodes.Root"><rect fill="#F1F1F1" height="36.2969" rx="2.5" ry="2.5" style="stroke:#181818;stroke-width:0.5;" width="161" x="1219" y="103"/><text fill="#000000" font-family="sans-serif" font-size="14" lengthAdjust="spacing" textLength="141" x="1229" y="125.9951">sofdcar.nodes.Root</text></g><!--entity sofdcar.nodes.Vehicle--><g id="elem_sofdcar.nodes.Vehicle"><rect fill="#F1F1F1" height="36.2969" rx="2.5" ry="2.5" style="stroke:#181818;stroke-width:0.5;" width="179" x="7" y="199"/><text fill="#000000" font-family="sans-serif" font-size="14" lengthAdjust="spacing" textLength="159" x="17" y="221.9951">sofdcar.nodes.Vehicle</text></g><!--entity sofdcar.nodes.Cloud--><g id="elem_sofdcar.nodes.Cloud"><rect fill="#F1F1F1" height="36.2969" rx="2.5" ry="2.5" style="stroke:#181818;stroke-width:0.5;" width="166" x="221.5" y="199"/><text fill="#000000" font-family="sans-serif" font-size="14" lengthAdjust="spacing" textLength="146" x="231.5" y="221.9951">sofdcar.nodes.Cloud</text></g><!--entity sofdcar.nodes.ECU.Hardware--><g id="elem_sofdcar.nodes.ECU.Hardware"><rect fill="#F1F1F1" height="36.2969" rx="2.5" ry="2.5" style="stroke:#181818;stroke-width:0.5;" width="226" x="422.5" y="199"/><text fill="#000000" font-family="sans-serif" font-size="14" lengthAdjust="spacing" textLength="206" x="432.5" y="221.9951">sofdcar.nodes.ECU.Hardware</text></g><!--entity sofdcar.nodes.ECU.Software--><g id="elem_sofdcar.nodes.ECU.Software"><rect fill="#F1F1F1" height="36.2969" rx="2.5" ry="2.5" style="stroke:#181818;stroke-width:0.5;" width="224" x="683.5" y="199"/><text fill="#000000" font-family="sans-serif" font-size="14" lengthAdjust="spacing" textLength="204" x="693.5" y="221.9951">sofdcar.nodes.ECU.Software</text></g><!--entity sofdcar.nodes.ECU.Runtime--><g id="elem_sofdcar.nodes.ECU.Runtime"><rect fill="#F1F1F1" height="36.2969" rx="2.5" ry="2.5" style="stroke:#181818;stroke-width:0.5;" width="220" x="685.5" y="295"/><text fill="#000000" font-family="sans-serif" font-size="14" lengthAdjust="spacing" textLength="200" x="695.5" y="317.9951">sofdcar.nodes.ECU.Runtime</text></g><!--entity sofdcar.nodes.HPC.Software--><g id="elem_sofdcar.nodes.HPC.Software"><rect fill="#F1F1F1" height="36.2969" rx="2.5" ry="2.5" style="stroke:#181818;stroke-width:0.5;" width="225" x="1422" y="103"/><text fill="#000000" font-family="sans-serif" font-size="14" lengthAdjust="spacing" textLength="205" x="1432" y="125.9951">sofdcar.nodes.HPC.Software</text></g><!--entity sofdcar.nodes.HPC.Hardware--><g id="elem_sofdcar.nodes.HPC.Hardware"><rect fill="#F1F1F1" height="36.2969" rx="2.5" ry="2.5" style="stroke:#181818;stroke-width:0.5;" width="227" x="943" y="199"/><text fill="#000000" font-family="sans-serif" font-size="14" lengthAdjust="spacing" textLength="207" x="953" y="221.9951">sofdcar.nodes.HPC.Hardware</text></g><!--entity sofdcar.nodes.Actuator--><g id="elem_sofdcar.nodes.Actuator"><rect fill="#F1F1F1" height="36.2969" rx="2.5" ry="2.5" style="stroke:#181818;stroke-width:0.5;" width="189" x="1205" y="199"/><text fill="#000000" font-family="sans-serif" font-size="14" lengthAdjust="spacing" textLength="169" x="1215" y="221.9951">sofdcar.nodes.Actuator</text></g><!--entity sofdcar.nodes.Accelerator--><g id="elem_sofdcar.nodes.Accelerator"><rect fill="#F1F1F1" height="36.2969" rx="2.5" ry="2.5" style="stroke:#181818;stroke-width:0.5;" width="210" x="1429.5" y="199"/><text fill="#000000" font-family="sans-serif" font-size="14" lengthAdjust="spacing" textLength="190" x="1439.5" y="221.9951">sofdcar.nodes.Accelerator</text></g><!--entity sofdcar.nodes.Brake--><g id="elem_sofdcar.nodes.Brake"><rect fill="#F1F1F1" height="36.2969" rx="2.5" ry="2.5" style="stroke:#181818;stroke-width:0.5;" width="168" x="1674.5" y="199"/><text fill="#000000" font-family="sans-serif" font-size="14" lengthAdjust="spacing" textLength="148" x="1684.5" y="221.9951">sofdcar.nodes.Brake</text></g><!--entity sofdcar.nodes.Steering--><g id="elem_sofdcar.nodes.Steering"><rect fill="#F1F1F1" height="36.2969" rx="2.5" ry="2.5" style="stroke:#181818;stroke-width:0.5;" width="188" x="1877.5" y="199"/><text fill="#000000" font-family="sans-serif" font-size="14" lengthAdjust="spacing" textLength="168" x="1887.5" y="221.9951">sofdcar.nodes.Steering</text></g><!--entity sofdcar.nodes.Sensor--><g id="elem_sofdcar.nodes.Sensor"><rect fill="#F1F1F1" height="36.2969" rx="2.5" ry="2.5" style="stroke:#181818;stroke-width:0.5;" width="175" x="2101" y="199"/><text fill="#000000" font-family="sans-serif" font-size="14" lengthAdjust="spacing" textLength="155" x="2111" y="221.9951">sofdcar.nodes.Sensor</text></g><!--entity sofdcar.nodes.RADAR--><g id="elem_sofdcar.nodes.RADAR"><rect fill="#F1F1F1" height="36.2969" rx="2.5" ry="2.5" style="stroke:#181818;stroke-width:0.5;" width="177" x="1676" y="295"/><text fill="#000000" font-family="sans-serif" font-size="14" lengthAdjust="spacing" textLength="157" x="1686" y="317.9951">sofdcar.nodes.RADAR</text></g><!--entity sofdcar.nodes.Camera--><g id="elem_sofdcar.nodes.Camera"><rect fill="#F1F1F1" height="36.2969" rx="2.5" ry="2.5" style="stroke:#181818;stroke-width:0.5;" width="181" x="1888" y="295"/><text fill="#000000" font-family="sans-serif" font-size="14" lengthAdjust="spacing" textLength="161" x="1898" y="317.9951">sofdcar.nodes.Camera</text></g><!--entity sofdcar.nodes.LIDAR--><g id="elem_sofdcar.nodes.LIDAR"><rect fill="#F1F1F1" height="36.2969" rx="2.5" ry="2.5" style="stroke:#181818;stroke-width:0.5;" width="169" x="2104" y="295"/><text fill="#000000" font-family="sans-serif" font-size="14" lengthAdjust="spacing" textLength="149" x="2114" y="317.9951">sofdcar.nodes.LIDAR</text></g><!--entity sofdcar.nodes.Ultrasonic--><g id="elem_sofdcar.nodes.Ultrasonic"><rect fill="#F1F1F1" height="36.2969" rx="2.5" ry="2.5" style="stroke:#181818;stroke-width:0.5;" width="197" x="2308" y="295"/><text fill="#000000" font-family="sans-serif" font-size="14" lengthAdjust="spacing" textLength="177" x="2318" y="317.9951">sofdcar.nodes.Ultrasonic</text></g><!--entity sofdcar.nodes.Channel--><g id="elem_sofdcar.nodes.Channel"><rect fill="#F1F1F1" height="36.2969" rx="2.5" ry="2.5" style="stroke:#181818;stroke-width:0.5;" width="184" x="3222.5" y="199"/><text fill="#000000" font-family="sans-serif" font-size="14" lengthAdjust="spacing" textLength="164" x="3232.5" y="221.9951">sofdcar.nodes.Channel</text></g><!--entity sofdcar.nodes.CAN--><g id="elem_sofdcar.nodes.CAN"><rect fill="#F1F1F1" height="36.2969" rx="2.5" ry="2.5" style="stroke:#181818;stroke-width:0.5;" width="156" x="2540.5" y="295"/><text fill="#000000" font-family="sans-serif" font-size="14" lengthAdjust="spacing" textLength="136" x="2550.5" y="317.9951">sofdcar.nodes.CAN</text></g><!--entity sofdcar.nodes.CAN-FD--><g id="elem_sofdcar.nodes.CAN-FD"><rect fill="#F1F1F1" height="36.2969" rx="2.5" ry="2.5" style="stroke:#181818;stroke-width:0.5;" width="181" x="2732" y="295"/><text fill="#000000" font-family="sans-serif" font-size="14" lengthAdjust="spacing" textLength="161" x="2742" y="317.9951">sofdcar.nodes.CAN-FD</text></g><!--entity sofdcar.nodes.LIN--><g id="elem_sofdcar.nodes.LIN"><rect fill="#F1F1F1" height="36.2969" rx="2.5" ry="2.5" style="stroke:#181818;stroke-width:0.5;" width="148" x="2948.5" y="295"/><text fill="#000000" font-family="sans-serif" font-size="14" lengthAdjust="spacing" textLength="128" x="2958.5" y="317.9951">sofdcar.nodes.LIN</text></g><!--entity sofdcar.nodes.MOST--><g id="elem_sofdcar.nodes.MOST"><rect fill="#F1F1F1" height="36.2969" rx="2.5" ry="2.5" style="stroke:#181818;stroke-width:0.5;" width="167" x="3132" y="295"/><text fill="#000000" font-family="sans-serif" font-size="14" lengthAdjust="spacing" textLength="147" x="3142" y="317.9951">sofdcar.nodes.MOST</text></g><!--entity sofdcar.nodes.GPIO--><g id="elem_sofdcar.nodes.GPIO"><rect fill="#F1F1F1" height="36.2969" rx="2.5" ry="2.5" style="stroke:#181818;stroke-width:0.5;" width="161" x="3334" y="295"/><text fill="#000000" font-family="sans-serif" font-size="14" lengthAdjust="spacing" textLength="141" x="3344" y="317.9951">sofdcar.nodes.GPIO</text></g><!--entity sofdcar.nodes.FlexRay--><g id="elem_sofdcar.nodes.FlexRay"><rect fill="#F1F1F1" height="36.2969" rx="2.5" ry="2.5" style="stroke:#181818;stroke-width:0.5;" width="181" x="3530" y="295"/><text fill="#000000" font-family="sans-serif" font-size="14" lengthAdjust="spacing" textLength="161" x="3540" y="317.9951">sofdcar.nodes.FlexRay</text></g><!--entity sofdcar.nodes.Ethernet--><g id="elem_sofdcar.nodes.Ethernet"><rect fill="#F1F1F1" height="36.2969" rx="2.5" ry="2.5" style="stroke:#181818;stroke-width:0.5;" width="191" x="3746" y="295"/><text fill="#000000" font-family="sans-serif" font-size="14" lengthAdjust="spacing" textLength="171" x="3756" y="317.9951">sofdcar.nodes.Ethernet</text></g><!--entity sofdcar.nodes.OBD--><g id="elem_sofdcar.nodes.OBD"><rect fill="#F1F1F1" height="36.2969" rx="2.5" ry="2.5" style="stroke:#181818;stroke-width:0.5;" width="158" x="3972.5" y="295"/><text fill="#000000" font-family="sans-serif" font-size="14" lengthAdjust="spacing" textLength="138" x="3982.5" y="317.9951">sofdcar.nodes.OBD</text></g><!--entity sofdcar.nodes.SOME/IP--><g id="elem_sofdcar.nodes.SOME/IP"><rect fill="#F1F1F1" height="36.2969" rx="2.5" ry="2.5" style="stroke:#181818;stroke-width:0.5;" width="185" x="4166" y="295"/><text fill="#000000" font-family="sans-serif" font-size="14" lengthAdjust="spacing" textLength="165" x="4176" y="317.9951">sofdcar.nodes.SOME/IP</text></g><!--entity tosca.nodes.Root--><g id="elem_tosca.nodes.Root"><ellipse cx="1299.5" cy="14" fill="#F1F1F1" rx="8" ry="8" style="stroke:#181818;stroke-width:0.5;"/><text fill="#000000" font-family="sans-serif" font-size="14" lengthAdjust="spacing" textLength="127" x="1236" y="43.9951">tosca.nodes.Root</text></g><!--entity tosca.nodes.SoftwareComponent--><g id="elem_tosca.nodes.SoftwareComponent"><ellipse cx="1534.5" cy="14" fill="#F1F1F1" rx="8" ry="8" style="stroke:#181818;stroke-width:0.5;"/><text fill="#000000" font-family="sans-serif" font-size="14" lengthAdjust="spacing" textLength="243" x="1413" y="43.9951">tosca.nodes.SoftwareComponent</text></g><!--reverse link tosca.nodes.Root to sofdcar.nodes.Root--><g id="link_tosca.nodes.Root_sofdcar.nodes.Root"><path d="M1299.5,43.423 C1299.5,62.445 1299.5,86.849 1299.5,102.933 " fill="none" id="tosca.nodes.Root-backto-sofdcar.nodes.Root" style="stroke:#181818;stroke-width:1.0;"/><polygon fill="none" points="1292.5,43.239,1299.5,23.239,1306.5,43.239,1292.5,43.239" style="stroke:#181818;stroke-width:1.0;"/></g><!--reverse link sofdcar.nodes.Root to sofdcar.nodes.Vehicle--><g id="link_sofdcar.nodes.Root_sofdcar.nodes.Vehicle"><path d="M1198.68,126.132 C1005.226,134.714 568.742,157.236 203.5,199 C197.8,199.652 191.94,200.389 186.038,201.183 " fill="none" id="sofdcar.nodes.Root-backto-sofdcar.nodes.Vehicle" style="stroke:#181818;stroke-width:1.0;"/><polygon fill="none" points="1198.55,119.131,1218.84,125.25,1199.16,133.118,1198.55,119.131" style="stroke:#181818;stroke-width:1.0;"/></g><!--reverse link sofdcar.nodes.Root to sofdcar.nodes.Cloud--><g id="link_sofdcar.nodes.Root_sofdcar.nodes.Cloud"><path d="M1198.65,127.952 C1032.62,138.362 691.523,162.32 404.5,199 C398.998,199.703 393.335,200.491 387.635,201.331 " fill="none" id="sofdcar.nodes.Root-backto-sofdcar.nodes.Cloud" style="stroke:#181818;stroke-width:1.0;"/><polygon fill="none" points="1198.34,120.958,1218.73,126.706,1199.2,134.932,1198.34,120.958" style="stroke:#181818;stroke-width:1.0;"/></g><!--reverse link sofdcar.nodes.Root to sofdcar.nodes.ECU.Hardware--><g id="link_sofdcar.nodes.Root_sofdcar.nodes.ECU.Hardware"><path d="M1198.92,133.927 C1073.86,148.823 853.852,175.247 665.5,199 C659.967,199.698 654.303,200.418 648.583,201.149 " fill="none" id="sofdcar.nodes.Root-backto-sofdcar.nodes.ECU.Hardware" style="stroke:#181818;stroke-width:1.0;"/><polygon fill="none" points="1198.22,126.961,1218.91,131.548,1199.87,140.863,1198.22,126.961" style="stroke:#181818;stroke-width:1.0;"/></g><!--reverse link sofdcar.nodes.Root to sofdcar.nodes.ECU.Software--><g id="link_sofdcar.nodes.Root_sofdcar.nodes.ECU.Software"><path d="M1198.92,140.76 C1107.94,157.728 975.114,182.501 887.048,198.926 " fill="none" id="sofdcar.nodes.Root-backto-sofdcar.nodes.ECU.Software" style="stroke:#181818;stroke-width:1.0;"/><polygon fill="none" points="1197.86,133.836,1218.8,137.051,1200.43,147.599,1197.86,133.836" style="stroke:#181818;stroke-width:1.0;"/></g><!--reverse link sofdcar.nodes.ECU.Software to sofdcar.nodes.ECU.Runtime--><g id="link_sofdcar.nodes.ECU.Software_sofdcar.nodes.ECU.Runtime"><path d="M795.5,255.621 C795.5,269.2125 795.5,283.8949 795.5,294.8683 " fill="none" id="sofdcar.nodes.ECU.Software-backto-sofdcar.nodes.ECU.Runtime" style="stroke:#181818;stroke-width:1.0;"/><polygon fill="none" points="788.5,255.2411,795.5,235.241,802.5,255.241,788.5,255.2411" style="stroke:#181818;stroke-width:1.0;"/></g><!--reverse link tosca.nodes.SoftwareComponent to sofdcar.nodes.HPC.Software--><g id="link_tosca.nodes.SoftwareComponent_sofdcar.nodes.HPC.Software"><path d="M1534.5,43.423 C1534.5,62.445 1534.5,86.849 1534.5,102.933 " fill="none" id="tosca.nodes.SoftwareComponent-backto-sofdcar.nodes.HPC.Software" style="stroke:#181818;stroke-width:1.0;"/><polygon fill="none" points="1527.5,43.239,1534.5,23.239,1541.5,43.239,1527.5,43.239" style="stroke:#181818;stroke-width:1.0;"/></g><!--reverse link sofdcar.nodes.Root to sofdcar.nodes.HPC.Hardware--><g id="link_sofdcar.nodes.Root_sofdcar.nodes.HPC.Hardware"><path d="M1236.6,146.333 C1193.93,162.836 1138.6,184.241 1100.59,198.945 " fill="none" id="sofdcar.nodes.Root-backto-sofdcar.nodes.HPC.Hardware" style="stroke:#181818;stroke-width:1.0;"/><polygon fill="none" points="1234.32,139.71,1255.49,139.023,1239.37,152.767,1234.32,139.71" style="stroke:#181818;stroke-width:1.0;"/></g><!--reverse link sofdcar.nodes.Root to sofdcar.nodes.Actuator--><g id="link_sofdcar.nodes.Root_sofdcar.nodes.Actuator"><path d="M1299.5,159.621 C1299.5,173.213 1299.5,187.895 1299.5,198.868 " fill="none" id="sofdcar.nodes.Root-backto-sofdcar.nodes.Actuator" style="stroke:#181818;stroke-width:1.0;"/><polygon fill="none" points="1292.5,159.241,1299.5,139.241,1306.5,159.241,1292.5,159.241" style="stroke:#181818;stroke-width:1.0;"/></g><!--reverse link sofdcar.nodes.Root to sofdcar.nodes.Accelerator--><g id="link_sofdcar.nodes.Root_sofdcar.nodes.Accelerator"><path d="M1360.89,146.557 C1402.07,163.029 1455.27,184.308 1491.86,198.945 " fill="none" id="sofdcar.nodes.Root-backto-sofdcar.nodes.Accelerator" style="stroke:#181818;stroke-width:1.0;"/><polygon fill="none" points="1358.03,152.95,1342.06,139.023,1363.23,139.951,1358.03,152.95" style="stroke:#181818;stroke-width:1.0;"/></g><!--reverse link sofdcar.nodes.Root to sofdcar.nodes.Brake--><g id="link_sofdcar.nodes.Root_sofdcar.nodes.Brake"><path d="M1399.92,142.565 C1482.35,159.447 1597.71,183.071 1675.11,198.922 " fill="none" id="sofdcar.nodes.Root-backto-sofdcar.nodes.Brake" style="stroke:#181818;stroke-width:1.0;"/><polygon fill="none" points="1398.43,149.405,1380.24,138.535,1401.24,135.69,1398.43,149.405" style="stroke:#181818;stroke-width:1.0;"/></g><!--reverse link sofdcar.nodes.Root to sofdcar.nodes.Steering--><g id="link_sofdcar.nodes.Root_sofdcar.nodes.Steering"><path d="M1400,138.334 C1401.51,138.559 1403.01,138.781 1404.5,139 C1606.31,168.636 1657.55,170.361 1859.5,199 C1865.34,199.828 1871.35,200.696 1877.41,201.583 " fill="none" id="sofdcar.nodes.Root-backto-sofdcar.nodes.Steering" style="stroke:#181818;stroke-width:1.0;"/><polygon fill="none" points="1398.72,145.22,1380.01,135.282,1400.83,131.381,1398.72,145.22" style="stroke:#181818;stroke-width:1.0;"/></g><!--reverse link sofdcar.nodes.Root to sofdcar.nodes.Sensor--><g id="link_sofdcar.nodes.Root_sofdcar.nodes.Sensor"><path d="M1400.41,138.479 C1401.78,138.657 1403.15,138.831 1404.5,139 C1704.67,176.532 1782.3,161.691 2082.5,199 C2088.51,199.747 2094.7,200.578 2100.94,201.461 " fill="none" id="sofdcar.nodes.Root-backto-sofdcar.nodes.Sensor" style="stroke:#181818;stroke-width:1.0;"/><polygon fill="none" points="1399.09,145.363,1380.24,135.676,1401.02,131.496,1399.09,145.363" style="stroke:#181818;stroke-width:1.0;"/></g><!--reverse link sofdcar.nodes.Sensor to sofdcar.nodes.RADAR--><g id="link_sofdcar.nodes.Sensor_sofdcar.nodes.RADAR"><path d="M2092.09,239.3731 C2016.18,256.2022 1911.79,279.3452 1841.43,294.9454 " fill="none" id="sofdcar.nodes.Sensor-backto-sofdcar.nodes.RADAR" style="stroke:#181818;stroke-width:1.0;"/><polygon fill="none" points="2090.68,232.5176,2111.72,235.0227,2093.71,246.1857,2090.68,232.5176" style="stroke:#181818;stroke-width:1.0;"/></g><!--reverse link sofdcar.nodes.Sensor to sofdcar.nodes.Camera--><g id="link_sofdcar.nodes.Sensor_sofdcar.nodes.Camera"><path d="M2132.13,243.2321 C2095.55,259.6072 2048.86,280.5069 2016.6,294.9454 " fill="none" id="sofdcar.nodes.Sensor-backto-sofdcar.nodes.Camera" style="stroke:#181818;stroke-width:1.0;"/><polygon fill="none" points="2129.36,236.8047,2150.47,235.0227,2135.08,249.583,2129.36,236.8047" style="stroke:#181818;stroke-width:1.0;"/></g><!--reverse link sofdcar.nodes.Sensor to sofdcar.nodes.LIDAR--><g id="link_sofdcar.nodes.Sensor_sofdcar.nodes.LIDAR"><path d="M2188.5,255.621 C2188.5,269.2125 2188.5,283.8949 2188.5,294.8683 " fill="none" id="sofdcar.nodes.Sensor-backto-sofdcar.nodes.LIDAR" style="stroke:#181818;stroke-width:1.0;"/><polygon fill="none" points="2181.5,255.2411,2188.5,235.241,2195.5,255.241,2181.5,255.2411" style="stroke:#181818;stroke-width:1.0;"/></g><!--reverse link sofdcar.nodes.Sensor to sofdcar.nodes.Ultrasonic--><g id="link_sofdcar.nodes.Sensor_sofdcar.nodes.Ultrasonic"><path d="M2246.49,243.0066 C2284.55,259.4149 2333.31,280.4405 2366.95,294.9454 " fill="none" id="sofdcar.nodes.Sensor-backto-sofdcar.nodes.Ultrasonic" style="stroke:#181818;stroke-width:1.0;"/><polygon fill="none" points="2243.57,249.3697,2227.98,235.0227,2249.12,236.5139,2243.57,249.3697" style="stroke:#181818;stroke-width:1.0;"/></g><!--reverse link sofdcar.nodes.Root to sofdcar.nodes.Channel--><g id="link_sofdcar.nodes.Root_sofdcar.nodes.Channel"><path d="M1400.4,138.571 C1401.78,138.72 1403.14,138.863 1404.5,139 C2100.8,209.146 2945.97,215.976 3222.29,216.205 " fill="none" id="sofdcar.nodes.Root-backto-sofdcar.nodes.Channel" style="stroke:#181818;stroke-width:1.0;"/><polygon fill="none" points="1399.19,145.475,1380.2,136.069,1400.91,131.581,1399.19,145.475" style="stroke:#181818;stroke-width:1.0;"/></g><!--reverse link sofdcar.nodes.Channel to sofdcar.nodes.CAN--><g id="link_sofdcar.nodes.Channel_sofdcar.nodes.CAN"><path d="M3202.15,230.798 C3081.43,244.9287 2884.04,269.125 2714.5,295 C2708.64,295.8938 2702.59,296.8609 2696.51,297.8647 " fill="none" id="sofdcar.nodes.Channel-backto-sofdcar.nodes.CAN" style="stroke:#181818;stroke-width:1.0;"/><polygon fill="none" points="3201.64,223.811,3222.31,228.449,3203.26,237.7169,3201.64,223.811" style="stroke:#181818;stroke-width:1.0;"/></g><!--reverse link sofdcar.nodes.Channel to sofdcar.nodes.CAN-FD--><g id="link_sofdcar.nodes.Channel_sofdcar.nodes.CAN-FD"><path d="M3205.71,238.785 C3117.39,255.6595 2994.37,279.1626 2911.76,294.9454 " fill="none" id="sofdcar.nodes.Channel-backto-sofdcar.nodes.CAN-FD" style="stroke:#181818;stroke-width:1.0;"/><polygon fill="none" points="3204.44,231.9004,3225.4,235.0227,3207.07,245.6517,3204.44,231.9004" style="stroke:#181818;stroke-width:1.0;"/></g><!--reverse link sofdcar.nodes.Channel to sofdcar.nodes.LIN--><g id="link_sofdcar.nodes.Channel_sofdcar.nodes.LIN"><path d="M3242.36,241.2234 C3190.66,257.8665 3122.19,279.9094 3075.48,294.9454 " fill="none" id="sofdcar.nodes.Channel-backto-sofdcar.nodes.LIN" style="stroke:#181818;stroke-width:1.0;"/><polygon fill="none" points="3240.44,234.4881,3261.62,235.0227,3244.73,247.8146,3240.44,234.4881" style="stroke:#181818;stroke-width:1.0;"/></g><!--reverse link sofdcar.nodes.Channel to sofdcar.nodes.MOST--><g id="link_sofdcar.nodes.Channel_sofdcar.nodes.MOST"><path d="M3281.5,249.3333 C3265.5,264.5223 3246.91,282.1762 3233.54,294.8683 " fill="none" id="sofdcar.nodes.Channel-backto-sofdcar.nodes.MOST" style="stroke:#181818;stroke-width:1.0;"/><polygon fill="none" points="3277.02,243.9359,3296.34,235.241,3286.66,254.0885,3277.02,243.9359" style="stroke:#181818;stroke-width:1.0;"/></g><!--reverse link sofdcar.nodes.Channel to sofdcar.nodes.GPIO--><g id="link_sofdcar.nodes.Channel_sofdcar.nodes.GPIO"><path d="M3347.58,249.0962 C3363.8,264.3382 3382.7,282.1101 3396.27,294.8683 " fill="none" id="sofdcar.nodes.Channel-backto-sofdcar.nodes.GPIO" style="stroke:#181818;stroke-width:1.0;"/><polygon fill="none" points="3342.62,254.0397,3332.84,235.241,3352.21,243.8389,3342.62,254.0397" style="stroke:#181818;stroke-width:1.0;"/></g><!--reverse link sofdcar.nodes.Channel to sofdcar.nodes.FlexRay--><g id="link_sofdcar.nodes.Channel_sofdcar.nodes.FlexRay"><path d="M3389.38,241.0033 C3443.64,257.6717 3515.82,279.8431 3564.98,294.9454 " fill="none" id="sofdcar.nodes.Channel-backto-sofdcar.nodes.FlexRay" style="stroke:#181818;stroke-width:1.0;"/><polygon fill="none" points="3386.98,247.5871,3369.91,235.0227,3391.09,234.2043,3386.98,247.5871" style="stroke:#181818;stroke-width:1.0;"/></g><!--reverse link sofdcar.nodes.Channel to sofdcar.nodes.Ethernet--><g id="link_sofdcar.nodes.Channel_sofdcar.nodes.Ethernet"><path d="M3426.52,237.9805 C3521.44,254.9115 3656.08,278.9265 3745.98,294.9617 " fill="none" id="sofdcar.nodes.Channel-backto-sofdcar.nodes.Ethernet" style="stroke:#181818;stroke-width:1.0;"/><polygon fill="none" points="3425.06,244.8306,3406.6,234.4273,3427.52,231.0481,3425.06,244.8306" style="stroke:#181818;stroke-width:1.0;"/></g><!--reverse link sofdcar.nodes.Channel to sofdcar.nodes.OBD--><g id="link_sofdcar.nodes.Channel_sofdcar.nodes.OBD"><path d="M3426.81,229.663 C3554.79,243.3841 3770.13,267.7724 3954.5,295 C3960.34,295.8617 3966.36,296.7999 3972.42,297.7783 " fill="none" id="sofdcar.nodes.Channel-backto-sofdcar.nodes.OBD" style="stroke:#181818;stroke-width:1.0;"/><polygon fill="none" points="3425.79,236.5951,3406.65,227.513,3427.28,222.674,3425.79,236.5951" style="stroke:#181818;stroke-width:1.0;"/></g><!--reverse link sofdcar.nodes.Channel to sofdcar.nodes.SOME/IP--><g id="link_sofdcar.nodes.Channel_sofdcar.nodes.SOME/IP"><path d="M3426.89,226.178 C3587.3,238.3501 3891,263.2457 4148.5,295 C4154.16,295.6977 4159.97,296.4603 4165.83,297.2637 " fill="none" id="sofdcar.nodes.Channel-backto-sofdcar.nodes.SOME/IP" style="stroke:#181818;stroke-width:1.0;"/><polygon fill="none" points="3426.06,233.1354,3406.64,224.652,3427.11,219.175,3426.06,233.1354" style="stroke:#181818;stroke-width:1.0;"/></g><!--SRC=[bPHHRu8m4CVV-HJ4TzaNs0kYJXCT1kRUB-LKOcbDATbCzk7dfbKqUFJUIE__Qm_e_UfzgGvWe0g5hWvQeRAvFKeC3GeBQYin28BhSpYezQOGO2Ab2woZJ6ix8EgVk2k5H2gIIDqKL62IhACPcE8B3FRbShsnFhciKRQioDXibNXjzvVpQIyMjW6h3PqHAD7qnKO6zkHPkKKqfTgI6LGrVKmMZ-EC_7LGdPgb4ejvpnPhQGtKMfM2F6W7Ig4a8_5xJtau7TEjaXiiq_o3gh-jvYbLdqhypk18NaoxGwEG7AXqHBv4dYudB_FLAH8ChAu5jESqVFqP3fzCSDTgP_usqTw8ct1lu67YMLnhPAdgK_vcXhiFwC34IR9xXmTfU7V-815lhYKL1jEMZ3VcfECDj2JappWfTQztt-2BfXZ8LLmCngcCWTp9pNzShh9xKkYc_lt79CvAv41dItA8YpWvoCMb7EIcLmxLCYu7EqkOGpWl_m80]--></g></svg>