<svg xmlns="http://www.w3.org/2000/svg" xmlns:xlink="http://www.w3.org/1999/xlink" contentStyleType="text/css" height="241px" preserveAspectRatio="none" style="width:407px;height:241px;background:#FFFFFF;" version="1.1" viewBox="0 0 407 241" width="407px" zoomAndPan="magnify"><defs/><g><!--entity sofdcar.policies.Root--><g id="elem_sofdcar.policies.Root"><rect fill="#F1F1F1" height="36.2969" rx="2.5" ry="2.5" style="stroke:#181818;stroke-width:0.5;" width="164" x="125" y="103"/><text fill="#000000" font-family="sans-serif" font-size="14" lengthAdjust="spacing" textLength="144" x="135" y="125.9951">sofdcar.policies.Root</text></g><!--entity sofdcar.policies.Security--><g id="elem_sofdcar.policies.Security"><rect fill="#F1F1F1" height="36.2969" rx="2.5" ry="2.5" style="stroke:#181818;stroke-width:0.5;" width="186" x="7" y="199"/><text fill="#000000" font-family="sans-serif" font-size="14" lengthAdjust="spacing" textLength="166" x="17" y="221.9951">sofdcar.policies.Security</text></g><!--entity sofdcar.policies.Safety--><g id="elem_sofdcar.policies.Safety"><rect fill="#F1F1F1" height="36.2969" rx="2.5" ry="2.5" style="stroke:#181818;stroke-width:0.5;" width="173" x="228.5" y="199"/><text fill="#000000" font-family="sans-serif" font-size="14" lengthAdjust="spacing" textLength="153" x="238.5" y="221.9951">sofdcar.policies.Safety</text></g><!--entity tosca.policies.Root--><g id="elem_tosca.policies.Root"><ellipse cx="207" cy="14" fill="#F1F1F1" rx="8" ry="8" style="stroke:#181818;stroke-width:0.5;"/><text fill="#000000" font-family="sans-serif" font-size="14" lengthAdjust="spacing" textLength="131" x="141.5" y="43.9951">tosca.policies.Root</text></g><!--reverse link tosca.policies.Root to sofdcar.policies.Root--><g id="link_tosca.policies.Root_sofdcar.policies.Root"><path d="M207,43.42 C207,62.44 207,86.85 207,102.93 " fill="none" id="tosca.policies.Root-backto-sofdcar.policies.Root" style="stroke:#181818;stroke-width:1.0;"/><polygon fill="none" points="200,43.24,207,23.24,214,43.24,200,43.24" style="stroke:#181818;stroke-width:1.0;"/></g><!--reverse link sofdcar.policies.Root to sofdcar.policies.Security--><g id="link_sofdcar.policies.Root_sofdcar.policies.Security"><path d="M172.14,152.62 C154.67,167.97 134.17,185.98 119.5,198.87 " fill="none" id="sofdcar.policies.Root-backto-sofdcar.policies.Security" style="stroke:#181818;stroke-width:1.0;"/><polygon fill="none" points="167.73,147.18,187.37,139.24,176.97,157.7,167.73,147.18" style="stroke:#181818;stroke-width:1.0;"/></g><!--reverse link sofdcar.policies.Root to sofdcar.policies.Safety--><g id="link_sofdcar.policies.Root_sofdcar.policies.Safety"><path d="M241.66,152.17 C259.37,167.58 280.27,185.77 295.22,198.79 " fill="none" id="sofdcar.policies.Root-backto-sofdcar.policies.Safety" style="stroke:#181818;stroke-width:1.0;"/><polygon fill="none" points="237.05,157.43,226.56,139.02,246.24,146.87,237.05,157.43" style="stroke:#181818;stroke-width:1.0;"/></g><!--SRC=[bOv12e0W44NtdaBSrmawHPrWcCQGr16T5a673o8Y0ejs7_xx_5Tc5nDa21ev98uKPP3Layw40d7of9IwiZQ5xOYGsyJUeQFIzinYtf61SCbErYyCB1sGCi85uV6XkwrfwWALehQwEVrTdfex]--></g></svg>