<svg xmlns="http://www.w3.org/2000/svg" xmlns:xlink="http://www.w3.org/1999/xlink" contentStyleType="text/css" height="241px" preserveAspectRatio="none" style="width:615px;height:241px;background:#FFFFFF;" version="1.1" viewBox="0 0 615 241" width="615px" zoomAndPan="magnify"><defs/><g><!--entity sofdcar.groups.Root--><g id="elem_sofdcar.groups.Root"><rect fill="#F1F1F1" height="36.2969" rx="2.5" ry="2.5" style="stroke:#181818;stroke-width:0.5;" width="161" x="238.5" y="103"/><text fill="#000000" font-family="sans-serif" font-size="14" lengthAdjust="spacing" textLength="141" x="248.5" y="125.9951">sofdcar.groups.Root</text></g><!--entity sofdcar.groups.Location--><g id="elem_sofdcar.groups.Location"><rect fill="#F1F1F1" height="36.2969" rx="2.5" ry="2.5" style="stroke:#181818;stroke-width:0.5;" width="186" x="7" y="199"/><text fill="#000000" font-family="sans-serif" font-size="14" lengthAdjust="spacing" textLength="166" x="17" y="221.9951">sofdcar.groups.Location</text></g><!--entity sofdcar.groups.Domain--><g id="elem_sofdcar.groups.Domain"><rect fill="#F1F1F1" height="36.2969" rx="2.5" ry="2.5" style="stroke:#181818;stroke-width:0.5;" width="181" x="228.5" y="199"/><text fill="#000000" font-family="sans-serif" font-size="14" lengthAdjust="spacing" textLength="161" x="238.5" y="221.9951">sofdcar.groups.Domain</text></g><!--entity sofdcar.groups.Zone--><g id="elem_sofdcar.groups.Zone"><rect fill="#F1F1F1" height="36.2969" rx="2.5" ry="2.5" style="stroke:#181818;stroke-width:0.5;" width="165" x="444.5" y="199"/><text fill="#000000" font-family="sans-serif" font-size="14" lengthAdjust="spacing" textLength="145" x="454.5" y="221.9951">sofdcar.groups.Zone</text></g><!--entity tosca.groups.Root--><g id="elem_tosca.groups.Root"><ellipse cx="319" cy="14" fill="#F1F1F1" rx="8" ry="8" style="stroke:#181818;stroke-width:0.5;"/><text fill="#000000" font-family="sans-serif" font-size="14" lengthAdjust="spacing" textLength="128" x="255" y="43.9951">tosca.groups.Root</text></g><!--reverse link tosca.groups.Root to sofdcar.groups.Root--><g id="link_tosca.groups.Root_sofdcar.groups.Root"><path d="M319,43.42 C319,62.44 319,86.85 319,102.93 " fill="none" id="tosca.groups.Root-backto-sofdcar.groups.Root" style="stroke:#181818;stroke-width:1.0;"/><polygon fill="none" points="312,43.24,319,23.24,326,43.24,312,43.24" style="stroke:#181818;stroke-width:1.0;"/></g><!--reverse link sofdcar.groups.Root to sofdcar.groups.Location--><g id="link_sofdcar.groups.Root_sofdcar.groups.Location"><path d="M260.74,147.01 C222.51,163.41 173.53,184.44 139.73,198.95 " fill="none" id="sofdcar.groups.Root-backto-sofdcar.groups.Location" style="stroke:#181818;stroke-width:1.0;"/><polygon fill="none" points="258.2,140.48,279.34,139.02,263.72,153.34,258.2,140.48" style="stroke:#181818;stroke-width:1.0;"/></g><!--reverse link sofdcar.groups.Root to sofdcar.groups.Domain--><g id="link_sofdcar.groups.Root_sofdcar.groups.Domain"><path d="M319,159.62 C319,173.21 319,187.89 319,198.87 " fill="none" id="sofdcar.groups.Root-backto-sofdcar.groups.Domain" style="stroke:#181818;stroke-width:1.0;"/><polygon fill="none" points="312,159.24,319,139.24,326,159.24,312,159.24" style="stroke:#181818;stroke-width:1.0;"/></g><!--reverse link sofdcar.groups.Root to sofdcar.groups.Zone--><g id="link_sofdcar.groups.Root_sofdcar.groups.Zone"><path d="M375.08,147.35 C411.28,163.7 457.39,184.54 489.26,198.95 " fill="none" id="sofdcar.groups.Root-backto-sofdcar.groups.Zone" style="stroke:#181818;stroke-width:1.0;"/><polygon fill="none" points="372.01,153.64,356.67,139.02,377.78,140.88,372.01,153.64" style="stroke:#181818;stroke-width:1.0;"/></g><!--SRC=[AyxEp2j8B4hCLKZEpot8pqlDAmakgSn9LIXAJIv9p4lFIUNYueAp5PIAyzDIaXEBzDAByaiBYlM2ylDBbF0fyCbFJYp9pC_3gyWbFpSn4x-IAA3JW0gub4hoYvCJKQnNiAdHrSNbCgp2s7KWEPK4NN2taw07uXa0]--></g></svg>