<svg xmlns="http://www.w3.org/2000/svg" xmlns:xlink="http://www.w3.org/1999/xlink" contentStyleType="text/css" height="241px" preserveAspectRatio="none" style="width:2594px;height:241px;background:#FFFFFF;" version="1.1" viewBox="0 0 2594 241" width="2594px" zoomAndPan="magnify"><defs/><g><!--entity sofdcar.nodes.CAN--><g id="elem_sofdcar.nodes.CAN"><rect fill="#F1F1F1" height="36.2969" rx="2.5" ry="2.5" style="stroke:#181818;stroke-width:0.5;" width="152" x="19" y="103"/><text fill="#000000" font-family="sans-serif" font-size="14" lengthAdjust="spacing" textLength="132" x="29" y="125.9951">sofdcar.nodes.CAN</text></g><!--entity sofdcar.nodes.CAN-FD--><g id="elem_sofdcar.nodes.CAN-FD"><rect fill="#F1F1F1" height="36.2969" rx="2.5" ry="2.5" style="stroke:#181818;stroke-width:0.5;" width="176" x="7" y="199"/><text fill="#000000" font-family="sans-serif" font-size="14" lengthAdjust="spacing" textLength="156" x="17" y="221.9951">sofdcar.nodes.CAN-FD</text></g><!--entity sofdcar.nodes.LIN--><g id="elem_sofdcar.nodes.LIN"><rect fill="#F1F1F1" height="36.2969" rx="2.5" ry="2.5" style="stroke:#181818;stroke-width:0.5;" width="143" x="206.5" y="103"/><text fill="#000000" font-family="sans-serif" font-size="14" lengthAdjust="spacing" textLength="123" x="216.5" y="125.9951">sofdcar.nodes.LIN</text></g><!--entity sofdcar.nodes.MOST--><g id="elem_sofdcar.nodes.MOST"><rect fill="#F1F1F1" height="36.2969" rx="2.5" ry="2.5" style="stroke:#181818;stroke-width:0.5;" width="164" x="385" y="103"/><text fill="#000000" font-family="sans-serif" font-size="14" lengthAdjust="spacing" textLength="144" x="395" y="125.9951">sofdcar.nodes.MOST</text></g><!--entity sofdcar.nodes.GPIO--><g id="elem_sofdcar.nodes.GPIO"><rect fill="#F1F1F1" height="36.2969" rx="2.5" ry="2.5" style="stroke:#181818;stroke-width:0.5;" width="157" x="584.5" y="103"/><text fill="#000000" font-family="sans-serif" font-size="14" lengthAdjust="spacing" textLength="137" x="594.5" y="125.9951">sofdcar.nodes.GPIO</text></g><!--entity sofdcar.nodes.FlexRay--><g id="elem_sofdcar.nodes.FlexRay"><rect fill="#F1F1F1" height="36.2969" rx="2.5" ry="2.5" style="stroke:#181818;stroke-width:0.5;" width="175" x="776.5" y="103"/><text fill="#000000" font-family="sans-serif" font-size="14" lengthAdjust="spacing" textLength="155" x="786.5" y="125.9951">sofdcar.nodes.FlexRay</text></g><!--entity sofdcar.nodes.Ethernet--><g id="elem_sofdcar.nodes.Ethernet"><rect fill="#F1F1F1" height="36.2969" rx="2.5" ry="2.5" style="stroke:#181818;stroke-width:0.5;" width="183" x="986.5" y="103"/><text fill="#000000" font-family="sans-serif" font-size="14" lengthAdjust="spacing" textLength="163" x="996.5" y="125.9951">sofdcar.nodes.Ethernet</text></g><!--entity sofdcar.nodes.SOME/IP--><g id="elem_sofdcar.nodes.SOME/IP"><rect fill="#F1F1F1" height="36.2969" rx="2.5" ry="2.5" style="stroke:#181818;stroke-width:0.5;" width="181" x="987.5" y="199"/><text fill="#000000" font-family="sans-serif" font-size="14" lengthAdjust="spacing" textLength="161" x="997.5" y="221.9951">sofdcar.nodes.SOME/IP</text></g><!--entity sofdcar.nodes.Python.Application--><g id="elem_sofdcar.nodes.Python.Application"><rect fill="#F1F1F1" height="36.2969" rx="2.5" ry="2.5" style="stroke:#181818;stroke-width:0.5;" width="250" x="1205" y="103"/><text fill="#000000" font-family="sans-serif" font-size="14" lengthAdjust="spacing" textLength="230" x="1215" y="125.9951">sofdcar.nodes.Python.Application</text></g><!--entity sofdcar.nodes.Python.Runtime--><g id="elem_sofdcar.nodes.Python.Runtime"><rect fill="#F1F1F1" height="36.2969" rx="2.5" ry="2.5" style="stroke:#181818;stroke-width:0.5;" width="233" x="1490.5" y="103"/><text fill="#000000" font-family="sans-serif" font-size="14" lengthAdjust="spacing" textLength="213" x="1500.5" y="125.9951">sofdcar.nodes.Python.Runtime</text></g><!--entity sofdcar.nodes.RaspberryPi.Hardware--><g id="elem_sofdcar.nodes.RaspberryPi.Hardware"><rect fill="#F1F1F1" height="36.2969" rx="2.5" ry="2.5" style="stroke:#181818;stroke-width:0.5;" width="274" x="1759" y="103"/><text fill="#000000" font-family="sans-serif" font-size="14" lengthAdjust="spacing" textLength="254" x="1769" y="125.9951">sofdcar.nodes.RaspberryPi.Hardware</text></g><!--entity sofdcar.nodes.Arduino.Software--><g id="elem_sofdcar.nodes.Arduino.Software"><rect fill="#F1F1F1" height="36.2969" rx="2.5" ry="2.5" style="stroke:#181818;stroke-width:0.5;" width="240" x="2068" y="103"/><text fill="#000000" font-family="sans-serif" font-size="14" lengthAdjust="spacing" textLength="220" x="2078" y="125.9951">sofdcar.nodes.Arduino.Software</text></g><!--entity sofdcar.nodes.Arduino.Software.C++--><g id="elem_sofdcar.nodes.Arduino.Software.C++"><rect fill="#F1F1F1" height="36.2969" rx="2.5" ry="2.5" style="stroke:#181818;stroke-width:0.5;" width="278" x="2049" y="199"/><text fill="#000000" font-family="sans-serif" font-size="14" lengthAdjust="spacing" textLength="258" x="2059" y="221.9951">sofdcar.nodes.Arduino.Software.C++</text></g><!--entity sofdcar.nodes.Arduino.Hardware--><g id="elem_sofdcar.nodes.Arduino.Hardware"><rect fill="#F1F1F1" height="36.2969" rx="2.5" ry="2.5" style="stroke:#181818;stroke-width:0.5;" width="245" x="2343.5" y="103"/><text fill="#000000" font-family="sans-serif" font-size="14" lengthAdjust="spacing" textLength="225" x="2353.5" y="125.9951">sofdcar.nodes.Arduino.Hardware</text></g><!--entity sofdcar.nodes.Channel--><g id="elem_sofdcar.nodes.Channel"><ellipse cx="565" cy="14" fill="#F1F1F1" rx="8" ry="8" style="stroke:#181818;stroke-width:0.5;"/><text fill="#000000" font-family="sans-serif" font-size="14" lengthAdjust="spacing" textLength="160" x="485" y="43.9951">sofdcar.nodes.Channel</text></g><!--entity sofdcar.nodes.HPC.Software--><g id="elem_sofdcar.nodes.HPC.Software"><ellipse cx="1468" cy="14" fill="#F1F1F1" rx="8" ry="8" style="stroke:#181818;stroke-width:0.5;"/><text fill="#000000" font-family="sans-serif" font-size="14" lengthAdjust="spacing" textLength="196" x="1370" y="43.9951">sofdcar.nodes.HPC.Software</text></g><!--entity sofdcar.nodes.HPC.Hardware--><g id="elem_sofdcar.nodes.HPC.Hardware"><ellipse cx="1896" cy="14" fill="#F1F1F1" rx="8" ry="8" style="stroke:#181818;stroke-width:0.5;"/><text fill="#000000" font-family="sans-serif" font-size="14" lengthAdjust="spacing" textLength="201" x="1795.5" y="43.9951">sofdcar.nodes.HPC.Hardware</text></g><!--entity sofdcar.nodes.ECU.Software--><g id="elem_sofdcar.nodes.ECU.Software"><ellipse cx="2188" cy="14" fill="#F1F1F1" rx="8" ry="8" style="stroke:#181818;stroke-width:0.5;"/><text fill="#000000" font-family="sans-serif" font-size="14" lengthAdjust="spacing" textLength="196" x="2090" y="43.9951">sofdcar.nodes.ECU.Software</text></g><!--entity sofdcar.nodes.ECU.Hardware--><g id="elem_sofdcar.nodes.ECU.Hardware"><ellipse cx="2466" cy="14" fill="#F1F1F1" rx="8" ry="8" style="stroke:#181818;stroke-width:0.5;"/><text fill="#000000" font-family="sans-serif" font-size="14" lengthAdjust="spacing" textLength="201" x="2365.5" y="43.9951">sofdcar.nodes.ECU.Hardware</text></g><!--reverse link sofdcar.nodes.Channel to sofdcar.nodes.CAN--><g id="link_sofdcar.nodes.Channel_sofdcar.nodes.CAN"><path d="M536.04,21.47 C464.42,37.47 277.12,79.31 171.07,103.01 " fill="none" id="sofdcar.nodes.Channel-backto-sofdcar.nodes.CAN" style="stroke:#181818;stroke-width:1.0;"/><polygon fill="none" points="534.57,14.63,555.61,17.1,537.62,28.29,534.57,14.63" style="stroke:#181818;stroke-width:1.0;"/></g><!--reverse link sofdcar.nodes.CAN to sofdcar.nodes.CAN-FD--><g id="link_sofdcar.nodes.CAN_sofdcar.nodes.CAN-FD"><path d="M95,159.62 C95,173.21 95,187.89 95,198.87 " fill="none" id="sofdcar.nodes.CAN-backto-sofdcar.nodes.CAN-FD" style="stroke:#181818;stroke-width:1.0;"/><polygon fill="none" points="88,159.24,95,139.24,102,159.24,88,159.24" style="stroke:#181818;stroke-width:1.0;"/></g><!--reverse link sofdcar.nodes.Channel to sofdcar.nodes.LIN--><g id="link_sofdcar.nodes.Channel_sofdcar.nodes.LIN"><path d="M536.98,25.25 C487.63,43.31 384.78,80.93 324.6,102.95 " fill="none" id="sofdcar.nodes.Channel-backto-sofdcar.nodes.LIN" style="stroke:#181818;stroke-width:1.0;"/><polygon fill="none" points="534.59,18.67,555.78,18.37,539.4,31.82,534.59,18.67" style="stroke:#181818;stroke-width:1.0;"/></g><!--reverse link sofdcar.nodes.Channel to sofdcar.nodes.MOST--><g id="link_sofdcar.nodes.Channel_sofdcar.nodes.MOST"><path d="M543.63,37.89 C525.35,57.48 499.44,85.24 482.93,102.93 " fill="none" id="sofdcar.nodes.Channel-backto-sofdcar.nodes.MOST" style="stroke:#181818;stroke-width:1.0;"/><polygon fill="none" points="538.55,33.08,557.31,23.24,548.78,42.64,538.55,33.08" style="stroke:#181818;stroke-width:1.0;"/></g><!--reverse link sofdcar.nodes.Channel to sofdcar.nodes.GPIO--><g id="link_sofdcar.nodes.Channel_sofdcar.nodes.GPIO"><path d="M586.37,37.89 C604.65,57.48 630.56,85.24 647.07,102.93 " fill="none" id="sofdcar.nodes.Channel-backto-sofdcar.nodes.GPIO" style="stroke:#181818;stroke-width:1.0;"/><polygon fill="none" points="581.22,42.64,572.69,23.24,591.45,33.08,581.22,42.64" style="stroke:#181818;stroke-width:1.0;"/></g><!--reverse link sofdcar.nodes.Channel to sofdcar.nodes.FlexRay--><g id="link_sofdcar.nodes.Channel_sofdcar.nodes.FlexRay"><path d="M593.39,24.97 C644.5,42.92 752.55,80.86 815.56,102.99 " fill="none" id="sofdcar.nodes.Channel-backto-sofdcar.nodes.FlexRay" style="stroke:#181818;stroke-width:1.0;"/><polygon fill="none" points="590.83,31.49,574.28,18.26,595.47,18.28,590.83,31.49" style="stroke:#181818;stroke-width:1.0;"/></g><!--reverse link sofdcar.nodes.Channel to sofdcar.nodes.Ethernet--><g id="link_sofdcar.nodes.Channel_sofdcar.nodes.Ethernet"><path d="M594.23,20.98 C670.53,36.6 877.9,79.04 994.86,102.98 " fill="none" id="sofdcar.nodes.Channel-backto-sofdcar.nodes.Ethernet" style="stroke:#181818;stroke-width:1.0;"/><polygon fill="none" points="592.53,27.78,574.34,16.91,595.34,14.06,592.53,27.78" style="stroke:#181818;stroke-width:1.0;"/></g><!--reverse link sofdcar.nodes.Ethernet to sofdcar.nodes.SOME/IP--><g id="link_sofdcar.nodes.Ethernet_sofdcar.nodes.SOME/IP"><path d="M1078,159.62 C1078,173.21 1078,187.89 1078,198.87 " fill="none" id="sofdcar.nodes.Ethernet-backto-sofdcar.nodes.SOME/IP" style="stroke:#181818;stroke-width:1.0;"/><polygon fill="none" points="1071,159.24,1078,139.24,1085,159.24,1071,159.24" style="stroke:#181818;stroke-width:1.0;"/></g><!--reverse link sofdcar.nodes.HPC.Software to sofdcar.nodes.Python.Application--><g id="link_sofdcar.nodes.HPC.Software_sofdcar.nodes.Python.Application"><path d="M1442.69,34.26 C1416.85,53.92 1377.14,84.13 1352.41,102.95 " fill="none" id="sofdcar.nodes.HPC.Software-backto-sofdcar.nodes.Python.Application" style="stroke:#181818;stroke-width:1.0;"/><polygon fill="none" points="1438.79,28.43,1458.95,21.89,1447.27,39.57,1438.79,28.43" style="stroke:#181818;stroke-width:1.0;"/></g><!--reverse link sofdcar.nodes.HPC.Software to sofdcar.nodes.Python.Runtime--><g id="link_sofdcar.nodes.HPC.Software_sofdcar.nodes.Python.Runtime"><path d="M1493.12,33.97 C1519.13,53.62 1559.4,84.04 1584.43,102.95 " fill="none" id="sofdcar.nodes.HPC.Software-backto-sofdcar.nodes.Python.Runtime" style="stroke:#181818;stroke-width:1.0;"/><polygon fill="none" points="1488.86,39.53,1477.12,21.89,1497.3,28.36,1488.86,39.53" style="stroke:#181818;stroke-width:1.0;"/></g><!--reverse link sofdcar.nodes.HPC.Hardware to sofdcar.nodes.RaspberryPi.Hardware--><g id="link_sofdcar.nodes.HPC.Hardware_sofdcar.nodes.RaspberryPi.Hardware"><path d="M1896,43.42 C1896,62.44 1896,86.85 1896,102.93 " fill="none" id="sofdcar.nodes.HPC.Hardware-backto-sofdcar.nodes.RaspberryPi.Hardware" style="stroke:#181818;stroke-width:1.0;"/><polygon fill="none" points="1889,43.24,1896,23.24,1903,43.24,1889,43.24" style="stroke:#181818;stroke-width:1.0;"/></g><!--reverse link sofdcar.nodes.ECU.Software to sofdcar.nodes.Arduino.Software--><g id="link_sofdcar.nodes.ECU.Software_sofdcar.nodes.Arduino.Software"><path d="M2188,43.42 C2188,62.44 2188,86.85 2188,102.93 " fill="none" id="sofdcar.nodes.ECU.Software-backto-sofdcar.nodes.Arduino.Software" style="stroke:#181818;stroke-width:1.0;"/><polygon fill="none" points="2181,43.24,2188,23.24,2195,43.24,2181,43.24" style="stroke:#181818;stroke-width:1.0;"/></g><!--reverse link sofdcar.nodes.Arduino.Software to sofdcar.nodes.Arduino.Software.C++--><g id="link_sofdcar.nodes.Arduino.Software_sofdcar.nodes.Arduino.Software.C++"><path d="M2188,159.62 C2188,173.21 2188,187.89 2188,198.87 " fill="none" id="sofdcar.nodes.Arduino.Software-backto-sofdcar.nodes.Arduino.Software.C++" style="stroke:#181818;stroke-width:1.0;"/><polygon fill="none" points="2181,159.24,2188,139.24,2195,159.24,2181,159.24" style="stroke:#181818;stroke-width:1.0;"/></g><!--reverse link sofdcar.nodes.ECU.Hardware to sofdcar.nodes.Arduino.Hardware--><g id="link_sofdcar.nodes.ECU.Hardware_sofdcar.nodes.Arduino.Hardware"><path d="M2466,43.42 C2466,62.44 2466,86.85 2466,102.93 " fill="none" id="sofdcar.nodes.ECU.Hardware-backto-sofdcar.nodes.Arduino.Hardware" style="stroke:#181818;stroke-width:1.0;"/><polygon fill="none" points="2459,43.24,2466,23.24,2473,43.24,2459,43.24" style="stroke:#181818;stroke-width:1.0;"/></g><!--SRC=[dPD1ReCm44Ntd0AnZN0lq0sYIOFK50lQ0xWm2LRD61b7BL8FtqLGYAYPuEwGv_rXm6_wJucTCA8DAzrs6W5jQGS5eO7A2Zmf28BW-Xn6lJxMbJ0CTGqzIvFNY2x7koUAUCd81eUyVAFgpppBgVfEmNSX1WhPsWOCWgMOCZzi7p9E8NomZKQMT9sIbR1IumgwEAELBL1a8Vhk0umPk6HxOUelOKW-CVLPecQbFbfVbgMRpHh-PevWVkEDG0GLXOy_SUosnN6uH5_ayNd5nIUVnAYOJsIqpYSoYUYJkd5pgUBCJRxE2dkUJcOueqwF_zjbyjlHuMgHiyE2z_FVaBxVcSIn3_U8LNt6NN7CGt_Ntntw1G00]--></g></svg>