<?xml version="1.0" encoding="us-ascii" standalone="no"?><svg xmlns="http://www.w3.org/2000/svg" xmlns:xlink="http://www.w3.org/1999/xlink" contentStyleType="text/css" height="337px" preserveAspectRatio="none" style="width:2822px;height:337px;background:#FFFFFF;" version="1.1" viewBox="0 0 2822 337" width="2822px" zoomAndPan="magnify"><defs/><g><!--entity sofdcar.capabilities.Root--><g id="elem_sofdcar.capabilities.Root"><rect fill="#F1F1F1" height="36.2969" rx="2.5" ry="2.5" style="stroke:#181818;stroke-width:0.5;" width="201" x="1280" y="103"/><text fill="#000000" font-family="sans-serif" font-size="14" lengthAdjust="spacing" textLength="181" x="1290" y="125.9951">sofdcar.capabilities.Root</text></g><!--entity sofdcar.capabilities.Host.ECU.Software--><g id="elem_sofdcar.capabilities.Host.ECU.Software"><rect fill="#F1F1F1" height="36.2969" rx="2.5" ry="2.5" style="stroke:#181818;stroke-width:0.5;" width="302" x="1516.5" y="103"/><text fill="#000000" font-family="sans-serif" font-size="14" lengthAdjust="spacing" textLength="282" x="1526.5" y="125.9951">sofdcar.capabilities.Host.ECU.Software</text></g><!--entity sofdcar.capabilities.OperatingSystem.RealTime--><g id="elem_sofdcar.capabilities.OperatingSystem.RealTime"><rect fill="#F1F1F1" height="36.2969" rx="2.5" ry="2.5" style="stroke:#181818;stroke-width:0.5;" width="365" x="1854" y="103"/><text fill="#000000" font-family="sans-serif" font-size="14" lengthAdjust="spacing" textLength="345" x="1864" y="125.9951">sofdcar.capabilities.OperatingSystem.RealTime</text></g><!--entity sofdcar.capabilities.Endpoint--><g id="elem_sofdcar.capabilities.Endpoint"><rect fill="#F1F1F1" height="36.2969" rx="2.5" ry="2.5" style="stroke:#181818;stroke-width:0.5;" width="232" x="1264.5" y="199"/><text fill="#000000" font-family="sans-serif" font-size="14" lengthAdjust="spacing" textLength="212" x="1274.5" y="221.9951">sofdcar.capabilities.Endpoint</text></g><!--entity sofdcar.capabilities.Endpoint.CAN--><g id="elem_sofdcar.capabilities.Endpoint.CAN"><rect fill="#F1F1F1" height="36.2969" rx="2.5" ry="2.5" style="stroke:#181818;stroke-width:0.5;" width="267" x="7" y="295"/><text fill="#000000" font-family="sans-serif" font-size="14" lengthAdjust="spacing" textLength="247" x="17" y="317.9951">sofdcar.capabilities.Endpoint.CAN</text></g><!--entity sofdcar.capabilities.Endpoint.CAN-FD--><g id="elem_sofdcar.capabilities.Endpoint.CAN-FD"><rect fill="#F1F1F1" height="36.2969" rx="2.5" ry="2.5" style="stroke:#181818;stroke-width:0.5;" width="292" x="309.5" y="295"/><text fill="#000000" font-family="sans-serif" font-size="14" lengthAdjust="spacing" textLength="272" x="319.5" y="317.9951">sofdcar.capabilities.Endpoint.CAN-FD</text></g><!--entity sofdcar.capabilities.Endpoint.LIN--><g id="elem_sofdcar.capabilities.Endpoint.LIN"><rect fill="#F1F1F1" height="36.2969" rx="2.5" ry="2.5" style="stroke:#181818;stroke-width:0.5;" width="259" x="637" y="295"/><text fill="#000000" font-family="sans-serif" font-size="14" lengthAdjust="spacing" textLength="239" x="647" y="317.9951">sofdcar.capabilities.Endpoint.LIN</text></g><!--entity sofdcar.capabilities.Endpoint.MOST--><g id="elem_sofdcar.capabilities.Endpoint.MOST"><rect fill="#F1F1F1" height="36.2969" rx="2.5" ry="2.5" style="stroke:#181818;stroke-width:0.5;" width="278" x="931.5" y="295"/><text fill="#000000" font-family="sans-serif" font-size="14" lengthAdjust="spacing" textLength="258" x="941.5" y="317.9951">sofdcar.capabilities.Endpoint.MOST</text></g><!--entity sofdcar.capabilities.Endpoint.GPIO--><g id="elem_sofdcar.capabilities.Endpoint.GPIO"><rect fill="#F1F1F1" height="36.2969" rx="2.5" ry="2.5" style="stroke:#181818;stroke-width:0.5;" width="272" x="1244.5" y="295"/><text fill="#000000" font-family="sans-serif" font-size="14" lengthAdjust="spacing" textLength="252" x="1254.5" y="317.9951">sofdcar.capabilities.Endpoint.GPIO</text></g><!--entity sofdcar.capabilities.Endpoint.FlexRay--><g id="elem_sofdcar.capabilities.Endpoint.FlexRay"><rect fill="#F1F1F1" height="36.2969" rx="2.5" ry="2.5" style="stroke:#181818;stroke-width:0.5;" width="292" x="1551.5" y="295"/><text fill="#000000" font-family="sans-serif" font-size="14" lengthAdjust="spacing" textLength="272" x="1561.5" y="317.9951">sofdcar.capabilities.Endpoint.FlexRay</text></g><!--entity sofdcar.capabilities.Endpoint.Ethernet--><g id="elem_sofdcar.capabilities.Endpoint.Ethernet"><rect fill="#F1F1F1" height="36.2969" rx="2.5" ry="2.5" style="stroke:#181818;stroke-width:0.5;" width="302" x="1878.5" y="295"/><text fill="#000000" font-family="sans-serif" font-size="14" lengthAdjust="spacing" textLength="282" x="1888.5" y="317.9951">sofdcar.capabilities.Endpoint.Ethernet</text></g><!--entity sofdcar.capabilities.Endpoint.OBD--><g id="elem_sofdcar.capabilities.Endpoint.OBD"><rect fill="#F1F1F1" height="36.2969" rx="2.5" ry="2.5" style="stroke:#181818;stroke-width:0.5;" width="269" x="2216" y="295"/><text fill="#000000" font-family="sans-serif" font-size="14" lengthAdjust="spacing" textLength="249" x="2226" y="317.9951">sofdcar.capabilities.Endpoint.OBD</text></g><!--entity sofdcar.capabilities.Endpoint.SOME/IP--><g id="elem_sofdcar.capabilities.Endpoint.SOME/IP"><rect fill="#F1F1F1" height="36.2969" rx="2.5" ry="2.5" style="stroke:#181818;stroke-width:0.5;" width="296" x="2520.5" y="295"/><text fill="#000000" font-family="sans-serif" font-size="14" lengthAdjust="spacing" textLength="276" x="2530.5" y="317.9951">sofdcar.capabilities.Endpoint.SOME/IP</text></g><!--entity tosca.capabilities.Root--><g id="elem_tosca.capabilities.Root"><ellipse cx="1380.5" cy="14" fill="#F1F1F1" rx="8" ry="8" style="stroke:#181818;stroke-width:0.5;"/><text fill="#000000" font-family="sans-serif" font-size="14" lengthAdjust="spacing" textLength="167" x="1297" y="43.9951">tosca.capabilities.Root</text></g><!--entity tosca.capabilities.Container--><g id="elem_tosca.capabilities.Container"><ellipse cx="1667.5" cy="14" fill="#F1F1F1" rx="8" ry="8" style="stroke:#181818;stroke-width:0.5;"/><text fill="#000000" font-family="sans-serif" font-size="14" lengthAdjust="spacing" textLength="203" x="1566" y="43.9951">tosca.capabilities.Container</text></g><!--entity tosca.capabilities.OperatingSystem--><g id="elem_tosca.capabilities.OperatingSystem"><ellipse cx="2036.5" cy="14" fill="#F1F1F1" rx="8" ry="8" style="stroke:#181818;stroke-width:0.5;"/><text fill="#000000" font-family="sans-serif" font-size="14" lengthAdjust="spacing" textLength="259" x="1907" y="43.9951">tosca.capabilities.OperatingSystem</text></g><!--reverse link tosca.capabilities.Root to sofdcar.capabilities.Root--><g id="link_tosca.capabilities.Root_sofdcar.capabilities.Root"><path d="M1380.5,43.423 C1380.5,62.445 1380.5,86.849 1380.5,102.933 " fill="none" id="tosca.capabilities.Root-backto-sofdcar.capabilities.Root" style="stroke:#181818;stroke-width:1.0;"/><polygon fill="none" points="1373.5,43.239,1380.5,23.239,1387.5,43.239,1373.5,43.239" style="stroke:#181818;stroke-width:1.0;"/></g><!--reverse link tosca.capabilities.Container to sofdcar.capabilities.Host.ECU.Software--><g id="link_tosca.capabilities.Container_sofdcar.capabilities.Host.ECU.Software"><path d="M1667.5,43.423 C1667.5,62.445 1667.5,86.849 1667.5,102.933 " fill="none" id="tosca.capabilities.Container-backto-sofdcar.capabilities.Host.ECU.Software" style="stroke:#181818;stroke-width:1.0;"/><polygon fill="none" points="1660.5,43.239,1667.5,23.239,1674.5,43.239,1660.5,43.239" style="stroke:#181818;stroke-width:1.0;"/></g><!--reverse link tosca.capabilities.OperatingSystem to sofdcar.capabilities.OperatingSystem.RealTime--><g id="link_tosca.capabilities.OperatingSystem_sofdcar.capabilities.OperatingSystem.RealTime"><path d="M2036.5,43.423 C2036.5,62.445 2036.5,86.849 2036.5,102.933 " fill="none" id="tosca.capabilities.OperatingSystem-backto-sofdcar.capabilities.OperatingSystem.RealTime" style="stroke:#181818;stroke-width:1.0;"/><polygon fill="none" points="2029.5,43.239,2036.5,23.239,2043.5,43.239,2029.5,43.239" style="stroke:#181818;stroke-width:1.0;"/></g><!--reverse link sofdcar.capabilities.Root to sofdcar.capabilities.Endpoint--><g id="link_sofdcar.capabilities.Root_sofdcar.capabilities.Endpoint"><path d="M1380.5,159.621 C1380.5,173.213 1380.5,187.895 1380.5,198.868 " fill="none" id="sofdcar.capabilities.Root-backto-sofdcar.capabilities.Endpoint" style="stroke:#181818;stroke-width:1.0;"/><polygon fill="none" points="1373.5,159.241,1380.5,139.241,1387.5,159.241,1373.5,159.241" style="stroke:#181818;stroke-width:1.0;"/></g><!--reverse link sofdcar.capabilities.Endpoint to sofdcar.capabilities.Endpoint.CAN--><g id="link_sofdcar.capabilities.Endpoint_sofdcar.capabilities.Endpoint.CAN"><path d="M1244.08,225.822 C1037.69,238.0682 633.818,263.6419 291.5,295 C285.852,295.5174 280.087,296.0678 274.266,296.642 " fill="none" id="sofdcar.capabilities.Endpoint-backto-sofdcar.capabilities.Endpoint.CAN" style="stroke:#181818;stroke-width:1.0;"/><polygon fill="none" points="1243.95,218.817,1264.33,224.625,1244.78,232.7929,1243.95,218.817" style="stroke:#181818;stroke-width:1.0;"/></g><!--reverse link sofdcar.capabilities.Endpoint to sofdcar.capabilities.Endpoint.CAN-FD--><g id="link_sofdcar.capabilities.Endpoint_sofdcar.capabilities.Endpoint.CAN-FD"><path d="M1244.11,231.6984 C1091.82,247.0184 837.993,272.6219 619.5,295 C613.662,295.5979 607.708,296.209 601.693,296.8275 " fill="none" id="sofdcar.capabilities.Endpoint-backto-sofdcar.capabilities.Endpoint.CAN-FD" style="stroke:#181818;stroke-width:1.0;"/><polygon fill="none" points="1243.86,224.689,1264.46,229.652,1245.26,238.6186,1243.86,224.689" style="stroke:#181818;stroke-width:1.0;"/></g><!--reverse link sofdcar.capabilities.Endpoint to sofdcar.capabilities.Endpoint.LIN--><g id="link_sofdcar.capabilities.Endpoint_sofdcar.capabilities.Endpoint.LIN"><path d="M1249.21,238.0992 C1138.61,255.0318 982.136,278.9873 877.64,294.9851 " fill="none" id="sofdcar.capabilities.Endpoint-backto-sofdcar.capabilities.Endpoint.LIN" style="stroke:#181818;stroke-width:1.0;"/><polygon fill="none" points="1248.48,231.13,1269.31,235.0227,1250.6,244.9688,1248.48,231.13" style="stroke:#181818;stroke-width:1.0;"/></g><!--reverse link sofdcar.capabilities.Endpoint to sofdcar.capabilities.Endpoint.MOST--><g id="link_sofdcar.capabilities.Endpoint_sofdcar.capabilities.Endpoint.MOST"><path d="M1305,240.8935 C1249.99,257.5742 1176.66,279.8099 1126.74,294.9454 " fill="none" id="sofdcar.capabilities.Endpoint-backto-sofdcar.capabilities.Endpoint.MOST" style="stroke:#181818;stroke-width:1.0;"/><polygon fill="none" points="1303.19,234.1275,1324.36,235.0227,1307.25,247.5251,1303.19,234.1275" style="stroke:#181818;stroke-width:1.0;"/></g><!--reverse link sofdcar.capabilities.Endpoint to sofdcar.capabilities.Endpoint.GPIO--><g id="link_sofdcar.capabilities.Endpoint_sofdcar.capabilities.Endpoint.GPIO"><path d="M1380.5,255.621 C1380.5,269.2125 1380.5,283.8949 1380.5,294.8683 " fill="none" id="sofdcar.capabilities.Endpoint-backto-sofdcar.capabilities.Endpoint.GPIO" style="stroke:#181818;stroke-width:1.0;"/><polygon fill="none" points="1373.5,255.2411,1380.5,235.241,1387.5,255.241,1373.5,255.2411" style="stroke:#181818;stroke-width:1.0;"/></g><!--reverse link sofdcar.capabilities.Endpoint to sofdcar.capabilities.Endpoint.FlexRay--><g id="link_sofdcar.capabilities.Endpoint_sofdcar.capabilities.Endpoint.FlexRay"><path d="M1457.33,240.7838 C1513.63,257.4766 1588.83,279.7767 1639.99,294.9454 " fill="none" id="sofdcar.capabilities.Endpoint-backto-sofdcar.capabilities.Endpoint.FlexRay" style="stroke:#181818;stroke-width:1.0;"/><polygon fill="none" points="1455.09,247.4198,1437.91,235.0227,1459.07,233.9975,1455.09,247.4198" style="stroke:#181818;stroke-width:1.0;"/></g><!--reverse link sofdcar.capabilities.Endpoint to sofdcar.capabilities.Endpoint.Ethernet--><g id="link_sofdcar.capabilities.Endpoint_sofdcar.capabilities.Endpoint.Ethernet"><path d="M1516.68,237.7244 C1633.72,254.6763 1800.74,278.8673 1912.01,294.9835 " fill="none" id="sofdcar.capabilities.Endpoint-backto-sofdcar.capabilities.Endpoint.Ethernet" style="stroke:#181818;stroke-width:1.0;"/><polygon fill="none" points="1515.32,244.6,1496.53,234.8053,1517.33,230.745,1515.32,244.6" style="stroke:#181818;stroke-width:1.0;"/></g><!--reverse link sofdcar.capabilities.Endpoint to sofdcar.capabilities.Endpoint.OBD--><g id="link_sofdcar.capabilities.Endpoint_sofdcar.capabilities.Endpoint.OBD"><path d="M1516.91,230.104 C1679.35,244.6887 1958.84,270.3204 2198.5,295 C2204.18,295.5848 2209.98,296.1913 2215.83,296.8117 " fill="none" id="sofdcar.capabilities.Endpoint-backto-sofdcar.capabilities.Endpoint.OBD" style="stroke:#181818;stroke-width:1.0;"/><polygon fill="none" points="1516.02,237.0523,1496.72,228.294,1517.27,223.108,1516.02,237.0523" style="stroke:#181818;stroke-width:1.0;"/></g><!--reverse link sofdcar.capabilities.Endpoint to sofdcar.capabilities.Endpoint.SOME/IP--><g id="link_sofdcar.capabilities.Endpoint_sofdcar.capabilities.Endpoint.SOME/IP"><path d="M1517,225.887 C1728.34,238.433 2147.43,264.6436 2502.5,295 C2508.27,295.4936 2514.16,296.0138 2520.1,296.5534 " fill="none" id="sofdcar.capabilities.Endpoint-backto-sofdcar.capabilities.Endpoint.SOME/IP" style="stroke:#181818;stroke-width:1.0;"/><polygon fill="none" points="1516.45,232.8669,1496.89,224.698,1517.27,218.891,1516.45,232.8669" style="stroke:#181818;stroke-width:1.0;"/></g><!--SRC=[hPF1IiGm54Nt_OhIVUCFkD7QqO9ZXcRyW6VcpHXCav0yq88Vhz2gWvHC0zbbSUy92VU4DsKSU1XAQGTd3HeID6eiFKe2Sz9O5CNlkQo2FHuaU2R1mOlIYXG6rbjBrUNOWmt4skQP2NkaT_2ueiCTUY1bJc8CX0Fh4VHU3MkghJaugmmbH5bpyvGOhpTtAOt7Bkc2BHVxbFpzhkCf-Ot6Znx6b4fBh-WD9dqhlqtw9C6txLMt-wuK5TaWOM5kvVLdNSVtkDHjh25G1dqKiBJK9Tg_TKQPaIL7NX4ZdWtyGc0DPTv-9jAaHGxOP4mEqYnJ3jJiMGxKdu8vQ6Tsvi1DukOW_JZz1G00]--></g></svg>