<?xml version="1.0" encoding="us-ascii" standalone="no"?><svg xmlns="http://www.w3.org/2000/svg" xmlns:xlink="http://www.w3.org/1999/xlink" contentStyleType="text/css" height="241px" preserveAspectRatio="none" style="width:2677px;height:241px;background:#FFFFFF;" version="1.1" viewBox="0 0 2677 241" width="2677px" zoomAndPan="magnify"><defs/><g><!--entity sofdcar.nodes.CAN--><g id="elem_sofdcar.nodes.CAN"><rect fill="#F1F1F1" height="36.2969" rx="2.5" ry="2.5" style="stroke:#181818;stroke-width:0.5;" width="156" x="19.5" y="103"/><text fill="#000000" font-family="sans-serif" font-size="14" lengthAdjust="spacing" textLength="136" x="29.5" y="125.9951">sofdcar.nodes.CAN</text></g><!--entity sofdcar.nodes.CAN-FD--><g id="elem_sofdcar.nodes.CAN-FD"><rect fill="#F1F1F1" height="36.2969" rx="2.5" ry="2.5" style="stroke:#181818;stroke-width:0.5;" width="181" x="7" y="199"/><text fill="#000000" font-family="sans-serif" font-size="14" lengthAdjust="spacing" textLength="161" x="17" y="221.9951">sofdcar.nodes.CAN-FD</text></g><!--entity sofdcar.nodes.LIN--><g id="elem_sofdcar.nodes.LIN"><rect fill="#F1F1F1" height="36.2969" rx="2.5" ry="2.5" style="stroke:#181818;stroke-width:0.5;" width="148" x="210.5" y="103"/><text fill="#000000" font-family="sans-serif" font-size="14" lengthAdjust="spacing" textLength="128" x="220.5" y="125.9951">sofdcar.nodes.LIN</text></g><!--entity sofdcar.nodes.MOST--><g id="elem_sofdcar.nodes.MOST"><rect fill="#F1F1F1" height="36.2969" rx="2.5" ry="2.5" style="stroke:#181818;stroke-width:0.5;" width="167" x="394" y="103"/><text fill="#000000" font-family="sans-serif" font-size="14" lengthAdjust="spacing" textLength="147" x="404" y="125.9951">sofdcar.nodes.MOST</text></g><!--entity sofdcar.nodes.GPIO--><g id="elem_sofdcar.nodes.GPIO"><rect fill="#F1F1F1" height="36.2969" rx="2.5" ry="2.5" style="stroke:#181818;stroke-width:0.5;" width="161" x="596" y="103"/><text fill="#000000" font-family="sans-serif" font-size="14" lengthAdjust="spacing" textLength="141" x="606" y="125.9951">sofdcar.nodes.GPIO</text></g><!--entity sofdcar.nodes.FlexRay--><g id="elem_sofdcar.nodes.FlexRay"><rect fill="#F1F1F1" height="36.2969" rx="2.5" ry="2.5" style="stroke:#181818;stroke-width:0.5;" width="181" x="792" y="103"/><text fill="#000000" font-family="sans-serif" font-size="14" lengthAdjust="spacing" textLength="161" x="802" y="125.9951">sofdcar.nodes.FlexRay</text></g><!--entity sofdcar.nodes.Ethernet--><g id="elem_sofdcar.nodes.Ethernet"><rect fill="#F1F1F1" height="36.2969" rx="2.5" ry="2.5" style="stroke:#181818;stroke-width:0.5;" width="191" x="1008" y="103"/><text fill="#000000" font-family="sans-serif" font-size="14" lengthAdjust="spacing" textLength="171" x="1018" y="125.9951">sofdcar.nodes.Ethernet</text></g><!--entity sofdcar.nodes.SOME/IP--><g id="elem_sofdcar.nodes.SOME/IP"><rect fill="#F1F1F1" height="36.2969" rx="2.5" ry="2.5" style="stroke:#181818;stroke-width:0.5;" width="185" x="1011" y="199"/><text fill="#000000" font-family="sans-serif" font-size="14" lengthAdjust="spacing" textLength="165" x="1021" y="221.9951">sofdcar.nodes.SOME/IP</text></g><!--entity sofdcar.nodes.Python.Application--><g id="elem_sofdcar.nodes.Python.Application"><rect fill="#F1F1F1" height="36.2969" rx="2.5" ry="2.5" style="stroke:#181818;stroke-width:0.5;" width="265" x="1234" y="103"/><text fill="#000000" font-family="sans-serif" font-size="14" lengthAdjust="spacing" textLength="245" x="1244" y="125.9951">sofdcar.nodes.Python.Application</text></g><!--entity sofdcar.nodes.Python.Runtime--><g id="elem_sofdcar.nodes.Python.Runtime"><rect fill="#F1F1F1" height="36.2969" rx="2.5" ry="2.5" style="stroke:#181818;stroke-width:0.5;" width="243" x="1534" y="103"/><text fill="#000000" font-family="sans-serif" font-size="14" lengthAdjust="spacing" textLength="223" x="1544" y="125.9951">sofdcar.nodes.Python.Runtime</text></g><!--entity sofdcar.nodes.RaspberryPi.Hardware--><g id="elem_sofdcar.nodes.RaspberryPi.Hardware"><rect fill="#F1F1F1" height="36.2969" rx="2.5" ry="2.5" style="stroke:#181818;stroke-width:0.5;" width="285" x="1812" y="103"/><text fill="#000000" font-family="sans-serif" font-size="14" lengthAdjust="spacing" textLength="265" x="1822" y="125.9951">sofdcar.nodes.RaspberryPi.Hardware</text></g><!--entity sofdcar.nodes.Arduino.Software--><g id="elem_sofdcar.nodes.Arduino.Software"><rect fill="#F1F1F1" height="36.2969" rx="2.5" ry="2.5" style="stroke:#181818;stroke-width:0.5;" width="251" x="2132" y="103"/><text fill="#000000" font-family="sans-serif" font-size="14" lengthAdjust="spacing" textLength="231" x="2142" y="125.9951">sofdcar.nodes.Arduino.Software</text></g><!--entity sofdcar.nodes.Arduino.Software.C++--><g id="elem_sofdcar.nodes.Arduino.Software.C++"><rect fill="#F1F1F1" height="36.2969" rx="2.5" ry="2.5" style="stroke:#181818;stroke-width:0.5;" width="288" x="2113.5" y="199"/><text fill="#000000" font-family="sans-serif" font-size="14" lengthAdjust="spacing" textLength="268" x="2123.5" y="221.9951">sofdcar.nodes.Arduino.Software.C++</text></g><!--entity sofdcar.nodes.Arduino.Hardware--><g id="elem_sofdcar.nodes.Arduino.Hardware"><rect fill="#F1F1F1" height="36.2969" rx="2.5" ry="2.5" style="stroke:#181818;stroke-width:0.5;" width="253" x="2418" y="103"/><text fill="#000000" font-family="sans-serif" font-size="14" lengthAdjust="spacing" textLength="233" x="2428" y="125.9951">sofdcar.nodes.Arduino.Hardware</text></g><!--entity sofdcar.nodes.Channel--><g id="elem_sofdcar.nodes.Channel"><ellipse cx="576.5" cy="14" fill="#F1F1F1" rx="8" ry="8" style="stroke:#181818;stroke-width:0.5;"/><text fill="#000000" font-family="sans-serif" font-size="14" lengthAdjust="spacing" textLength="164" x="494.5" y="43.9951">sofdcar.nodes.Channel</text></g><!--entity sofdcar.nodes.HPC.Software--><g id="elem_sofdcar.nodes.HPC.Software"><ellipse cx="1510.5" cy="14" fill="#F1F1F1" rx="8" ry="8" style="stroke:#181818;stroke-width:0.5;"/><text fill="#000000" font-family="sans-serif" font-size="14" lengthAdjust="spacing" textLength="205" x="1408" y="43.9951">sofdcar.nodes.HPC.Software</text></g><!--entity sofdcar.nodes.HPC.Hardware--><g id="elem_sofdcar.nodes.HPC.Hardware"><ellipse cx="1954.5" cy="14" fill="#F1F1F1" rx="8" ry="8" style="stroke:#181818;stroke-width:0.5;"/><text fill="#000000" font-family="sans-serif" font-size="14" lengthAdjust="spacing" textLength="207" x="1851" y="43.9951">sofdcar.nodes.HPC.Hardware</text></g><!--entity sofdcar.nodes.ECU.Software--><g id="elem_sofdcar.nodes.ECU.Software"><ellipse cx="2257.5" cy="14" fill="#F1F1F1" rx="8" ry="8" style="stroke:#181818;stroke-width:0.5;"/><text fill="#000000" font-family="sans-serif" font-size="14" lengthAdjust="spacing" textLength="204" x="2155.5" y="43.9951">sofdcar.nodes.ECU.Software</text></g><!--entity sofdcar.nodes.ECU.Hardware--><g id="elem_sofdcar.nodes.ECU.Hardware"><ellipse cx="2544.5" cy="14" fill="#F1F1F1" rx="8" ry="8" style="stroke:#181818;stroke-width:0.5;"/><text fill="#000000" font-family="sans-serif" font-size="14" lengthAdjust="spacing" textLength="206" x="2441.5" y="43.9951">sofdcar.nodes.ECU.Hardware</text></g><!--reverse link sofdcar.nodes.Channel to sofdcar.nodes.CAN--><g id="link_sofdcar.nodes.Channel_sofdcar.nodes.CAN"><path d="M547.652,21.324 C475.225,37.2 283.783,79.165 175.323,102.941 " fill="none" id="sofdcar.nodes.Channel-backto-sofdcar.nodes.CAN" style="stroke:#181818;stroke-width:1.0;"/><polygon fill="none" points="546.324,14.449,567.359,17.004,549.322,28.124,546.324,14.449" style="stroke:#181818;stroke-width:1.0;"/></g><!--reverse link sofdcar.nodes.CAN to sofdcar.nodes.CAN-FD--><g id="link_sofdcar.nodes.CAN_sofdcar.nodes.CAN-FD"><path d="M97.5,159.621 C97.5,173.2125 97.5,187.8949 97.5,198.8683 " fill="none" id="sofdcar.nodes.CAN-backto-sofdcar.nodes.CAN-FD" style="stroke:#181818;stroke-width:1.0;"/><polygon fill="none" points="90.5001,159.2411,97.5,139.241,104.5001,159.241,90.5001,159.2411" style="stroke:#181818;stroke-width:1.0;"/></g><!--reverse link sofdcar.nodes.Channel to sofdcar.nodes.LIN--><g id="link_sofdcar.nodes.Channel_sofdcar.nodes.LIN"><path d="M548.437,25.091 C498.382,43.091 393.201,80.912 331.805,102.989 " fill="none" id="sofdcar.nodes.Channel-backto-sofdcar.nodes.LIN" style="stroke:#181818;stroke-width:1.0;"/><polygon fill="none" points="546.252,18.438,567.441,18.258,550.989,31.612,546.252,18.438" style="stroke:#181818;stroke-width:1.0;"/></g><!--reverse link sofdcar.nodes.Channel to sofdcar.nodes.MOST--><g id="link_sofdcar.nodes.Channel_sofdcar.nodes.MOST"><path d="M554.916,37.892 C536.447,57.481 510.273,85.24 493.592,102.933 " fill="none" id="sofdcar.nodes.Channel-backto-sofdcar.nodes.MOST" style="stroke:#181818;stroke-width:1.0;"/><polygon fill="none" points="549.918,32.989,568.732,23.239,560.104,42.593,549.918,32.989" style="stroke:#181818;stroke-width:1.0;"/></g><!--reverse link sofdcar.nodes.Channel to sofdcar.nodes.GPIO--><g id="link_sofdcar.nodes.Channel_sofdcar.nodes.GPIO"><path d="M598.302,37.892 C616.958,57.481 643.396,85.24 660.246,102.933 " fill="none" id="sofdcar.nodes.Channel-backto-sofdcar.nodes.GPIO" style="stroke:#181818;stroke-width:1.0;"/><polygon fill="none" points="593.071,42.55,584.347,23.239,603.209,32.894,593.071,42.55" style="stroke:#181818;stroke-width:1.0;"/></g><!--reverse link sofdcar.nodes.Channel to sofdcar.nodes.FlexRay--><g id="link_sofdcar.nodes.Channel_sofdcar.nodes.FlexRay"><path d="M604.705,24.678 C656.609,42.488 767.868,80.665 832.732,102.923 " fill="none" id="sofdcar.nodes.Channel-backto-sofdcar.nodes.FlexRay" style="stroke:#181818;stroke-width:1.0;"/><polygon fill="none" points="602.303,31.255,585.658,18.142,606.847,18.013,602.303,31.255" style="stroke:#181818;stroke-width:1.0;"/></g><!--reverse link sofdcar.nodes.Channel to sofdcar.nodes.Ethernet--><g id="link_sofdcar.nodes.Channel_sofdcar.nodes.Ethernet"><path d="M605.333,20.745 C682.714,36.162 897.255,78.908 1018.04,102.972 " fill="none" id="sofdcar.nodes.Channel-backto-sofdcar.nodes.Ethernet" style="stroke:#181818;stroke-width:1.0;"/><polygon fill="none" points="603.894,27.596,585.647,16.822,606.629,13.865,603.894,27.596" style="stroke:#181818;stroke-width:1.0;"/></g><!--reverse link sofdcar.nodes.Ethernet to sofdcar.nodes.SOME/IP--><g id="link_sofdcar.nodes.Ethernet_sofdcar.nodes.SOME/IP"><path d="M1103.5,159.621 C1103.5,173.2125 1103.5,187.8949 1103.5,198.8683 " fill="none" id="sofdcar.nodes.Ethernet-backto-sofdcar.nodes.SOME/IP" style="stroke:#181818;stroke-width:1.0;"/><polygon fill="none" points="1096.5,159.2411,1103.5,139.241,1110.5,159.241,1096.5,159.2411" style="stroke:#181818;stroke-width:1.0;"/></g><!--reverse link sofdcar.nodes.HPC.Software to sofdcar.nodes.Python.Application--><g id="link_sofdcar.nodes.HPC.Software_sofdcar.nodes.Python.Application"><path d="M1485.05,33.555 C1458.2,53.139 1416.21,83.753 1390.08,102.806 " fill="none" id="sofdcar.nodes.HPC.Software-backto-sofdcar.nodes.Python.Application" style="stroke:#181818;stroke-width:1.0;"/><polygon fill="none" points="1481.21,27.696,1501.49,21.568,1489.46,39.008,1481.21,27.696" style="stroke:#181818;stroke-width:1.0;"/></g><!--reverse link sofdcar.nodes.HPC.Software to sofdcar.nodes.Python.Runtime--><g id="link_sofdcar.nodes.HPC.Software_sofdcar.nodes.Python.Runtime"><path d="M1536.12,33.555 C1563.17,53.139 1605.44,83.753 1631.76,102.806 " fill="none" id="sofdcar.nodes.HPC.Software-backto-sofdcar.nodes.Python.Runtime" style="stroke:#181818;stroke-width:1.0;"/><polygon fill="none" points="1531.66,38.968,1519.57,21.568,1539.87,27.629,1531.66,38.968" style="stroke:#181818;stroke-width:1.0;"/></g><!--reverse link sofdcar.nodes.HPC.Hardware to sofdcar.nodes.RaspberryPi.Hardware--><g id="link_sofdcar.nodes.HPC.Hardware_sofdcar.nodes.RaspberryPi.Hardware"><path d="M1954.5,43.423 C1954.5,62.445 1954.5,86.849 1954.5,102.933 " fill="none" id="sofdcar.nodes.HPC.Hardware-backto-sofdcar.nodes.RaspberryPi.Hardware" style="stroke:#181818;stroke-width:1.0;"/><polygon fill="none" points="1947.5,43.239,1954.5,23.239,1961.5,43.239,1947.5,43.239" style="stroke:#181818;stroke-width:1.0;"/></g><!--reverse link sofdcar.nodes.ECU.Software to sofdcar.nodes.Arduino.Software--><g id="link_sofdcar.nodes.ECU.Software_sofdcar.nodes.Arduino.Software"><path d="M2257.5,43.423 C2257.5,62.445 2257.5,86.849 2257.5,102.933 " fill="none" id="sofdcar.nodes.ECU.Software-backto-sofdcar.nodes.Arduino.Software" style="stroke:#181818;stroke-width:1.0;"/><polygon fill="none" points="2250.5,43.239,2257.5,23.239,2264.5,43.239,2250.5,43.239" style="stroke:#181818;stroke-width:1.0;"/></g><!--reverse link sofdcar.nodes.Arduino.Software to sofdcar.nodes.Arduino.Software.C++--><g id="link_sofdcar.nodes.Arduino.Software_sofdcar.nodes.Arduino.Software.C++"><path d="M2257.5,159.621 C2257.5,173.2125 2257.5,187.8949 2257.5,198.8683 " fill="none" id="sofdcar.nodes.Arduino.Software-backto-sofdcar.nodes.Arduino.Software.C++" style="stroke:#181818;stroke-width:1.0;"/><polygon fill="none" points="2250.5,159.2411,2257.5,139.241,2264.5,159.241,2250.5,159.2411" style="stroke:#181818;stroke-width:1.0;"/></g><!--reverse link sofdcar.nodes.ECU.Hardware to sofdcar.nodes.Arduino.Hardware--><g id="link_sofdcar.nodes.ECU.Hardware_sofdcar.nodes.Arduino.Hardware"><path d="M2544.5,43.423 C2544.5,62.445 2544.5,86.849 2544.5,102.933 " fill="none" id="sofdcar.nodes.ECU.Hardware-backto-sofdcar.nodes.Arduino.Hardware" style="stroke:#181818;stroke-width:1.0;"/><polygon fill="none" points="2537.5,43.239,2544.5,23.239,2551.5,43.239,2537.5,43.239" style="stroke:#181818;stroke-width:1.0;"/></g><!--SRC=[dPD1ReCm44Ntd0AnZN0lq0sYIOFK50lQ0xWm2LRD61b7BL8FtqLGYAYPuEwGv_rXm6_wJucTCA8DAzrs6W5jQGS5eO7A2Zmf28BW-Xn6lJxMbJ0CTGqzIvFNY2x7koUAUCd81eUyVAFgpppBgVfEmNSX1WhPsWOCWgMOCZzi7p9E8NomZKQMT9sIbR1IumgwEAELBL1a8Vhk0umPk6HxOUelOKW-CVLPecQbFbfVbgMRpHh-PevWVkEDG0GLXOy_SUosnN6uH5_ayNd5nIUVnAYOJsIqpYSoYUYJkd5pgUBCJRxE2dkUJcOueqwF_zjbyjlHuMgHiyE2z_FVaBxVcSIn3_U8LNt6NN7CGt_Ndntw1G00]--></g></svg>