<?xml version="1.0" encoding="us-ascii" standalone="no"?><svg xmlns="http://www.w3.org/2000/svg" xmlns:xlink="http://www.w3.org/1999/xlink" contentStyleType="text/css" height="433px" preserveAspectRatio="none" style="width:855px;height:433px;background:#FFFFFF;" version="1.1" viewBox="0 0 855 433" width="855px" zoomAndPan="magnify"><defs/><g><!--entity sofdcar.policies.Root--><g id="elem_sofdcar.policies.Root"><rect fill="#F1F1F1" height="36.2969" rx="2.5" ry="2.5" style="stroke:#181818;stroke-width:0.5;" width="173" x="227.5" y="103"/><text fill="#000000" font-family="sans-serif" font-size="14" lengthAdjust="spacing" textLength="153" x="237.5" y="125.9951">sofdcar.policies.Root</text></g><!--entity sofdcar.policies.Security--><g id="elem_sofdcar.policies.Security"><rect fill="#F1F1F1" height="36.2969" rx="2.5" ry="2.5" style="stroke:#181818;stroke-width:0.5;" width="197" x="102.5" y="199"/><text fill="#000000" font-family="sans-serif" font-size="14" lengthAdjust="spacing" textLength="177" x="112.5" y="221.9951">sofdcar.policies.Security</text></g><!--entity sofdcar.policies.Safety--><g id="elem_sofdcar.policies.Safety"><rect fill="#F1F1F1" height="36.2969" rx="2.5" ry="2.5" style="stroke:#181818;stroke-width:0.5;" width="185" x="334.5" y="199"/><text fill="#000000" font-family="sans-serif" font-size="14" lengthAdjust="spacing" textLength="165" x="344.5" y="221.9951">sofdcar.policies.Safety</text></g><!--entity sofdcar.policies.ASIL--><g id="elem_sofdcar.policies.ASIL"><rect fill="#F1F1F1" height="36.2969" rx="2.5" ry="2.5" style="stroke:#181818;stroke-width:0.5;" width="169" x="342.5" y="295"/><text fill="#000000" font-family="sans-serif" font-size="14" lengthAdjust="spacing" textLength="149" x="352.5" y="317.9951">sofdcar.policies.ASIL</text></g><!--entity sofdcar.policies.ASIL.A--><g id="elem_sofdcar.policies.ASIL.A"><rect fill="#F1F1F1" height="36.2969" rx="2.5" ry="2.5" style="stroke:#181818;stroke-width:0.5;" width="184" x="7" y="391"/><text fill="#000000" font-family="sans-serif" font-size="14" lengthAdjust="spacing" textLength="164" x="17" y="413.9951">sofdcar.policies.ASIL.A</text></g><!--entity sofdcar.policies.ASIL.B--><g id="elem_sofdcar.policies.ASIL.B"><rect fill="#F1F1F1" height="36.2969" rx="2.5" ry="2.5" style="stroke:#181818;stroke-width:0.5;" width="184" x="226" y="391"/><text fill="#000000" font-family="sans-serif" font-size="14" lengthAdjust="spacing" textLength="164" x="236" y="413.9951">sofdcar.policies.ASIL.B</text></g><!--entity sofdcar.policies.ASIL.C--><g id="elem_sofdcar.policies.ASIL.C"><rect fill="#F1F1F1" height="36.2969" rx="2.5" ry="2.5" style="stroke:#181818;stroke-width:0.5;" width="184" x="445" y="391"/><text fill="#000000" font-family="sans-serif" font-size="14" lengthAdjust="spacing" textLength="164" x="455" y="413.9951">sofdcar.policies.ASIL.C</text></g><!--entity sofdcar.policies.ASIL.D--><g id="elem_sofdcar.policies.ASIL.D"><rect fill="#F1F1F1" height="36.2969" rx="2.5" ry="2.5" style="stroke:#181818;stroke-width:0.5;" width="185" x="664.5" y="391"/><text fill="#000000" font-family="sans-serif" font-size="14" lengthAdjust="spacing" textLength="165" x="674.5" y="413.9951">sofdcar.policies.ASIL.D</text></g><!--entity tosca.policies.Root--><g id="elem_tosca.policies.Root"><ellipse cx="314" cy="14" fill="#F1F1F1" rx="8" ry="8" style="stroke:#181818;stroke-width:0.5;"/><text fill="#000000" font-family="sans-serif" font-size="14" lengthAdjust="spacing" textLength="139" x="244.5" y="43.9951">tosca.policies.Root</text></g><!--reverse link tosca.policies.Root to sofdcar.policies.Root--><g id="link_tosca.policies.Root_sofdcar.policies.Root"><path d="M314,43.423 C314,62.445 314,86.849 314,102.933 " fill="none" id="tosca.policies.Root-backto-sofdcar.policies.Root" style="stroke:#181818;stroke-width:1.0;"/><polygon fill="none" points="307,43.239,314,23.239,321,43.239,307,43.239" style="stroke:#181818;stroke-width:1.0;"/></g><!--reverse link sofdcar.policies.Root to sofdcar.policies.Security--><g id="link_sofdcar.policies.Root_sofdcar.policies.Security"><path d="M278.02,151.93 C259.433,167.392 237.416,185.707 221.693,198.786 " fill="none" id="sofdcar.policies.Root-backto-sofdcar.policies.Security" style="stroke:#181818;stroke-width:1.0;"/><polygon fill="none" points="273.684,146.432,293.537,139.023,282.638,157.194,273.684,146.432" style="stroke:#181818;stroke-width:1.0;"/></g><!--reverse link sofdcar.policies.Root to sofdcar.policies.Safety--><g id="link_sofdcar.policies.Root_sofdcar.policies.Safety"><path d="M349.98,151.93 C368.567,167.392 390.584,185.707 406.307,198.786 " fill="none" id="sofdcar.policies.Root-backto-sofdcar.policies.Safety" style="stroke:#181818;stroke-width:1.0;"/><polygon fill="none" points="345.362,157.194,334.463,139.023,354.316,146.432,345.362,157.194" style="stroke:#181818;stroke-width:1.0;"/></g><!--reverse link sofdcar.policies.Safety to sofdcar.policies.ASIL--><g id="link_sofdcar.policies.Safety_sofdcar.policies.ASIL"><path d="M427,255.621 C427,269.213 427,283.895 427,294.868 " fill="none" id="sofdcar.policies.Safety-backto-sofdcar.policies.ASIL" style="stroke:#181818;stroke-width:1.0;"/><polygon fill="none" points="420,255.241,427,235.241,434,255.241,420,255.241" style="stroke:#181818;stroke-width:1.0;"/></g><!--reverse link sofdcar.policies.ASIL to sofdcar.policies.ASIL.A--><g id="link_sofdcar.policies.ASIL_sofdcar.policies.ASIL.A"><path d="M348.263,336.565 C289.933,353.2813 211.67,375.7103 158.51,390.9454 " fill="none" id="sofdcar.policies.ASIL-backto-sofdcar.policies.ASIL.A" style="stroke:#181818;stroke-width:1.0;"/><polygon fill="none" points="346.447,329.8035,367.602,331.0227,350.304,343.2618,346.447,329.8035" style="stroke:#181818;stroke-width:1.0;"/></g><!--reverse link sofdcar.policies.ASIL to sofdcar.policies.ASIL.B--><g id="link_sofdcar.policies.ASIL_sofdcar.policies.ASIL.B"><path d="M392.02,344.166 C374.149,359.5782 353.05,377.7732 337.961,390.7863 " fill="none" id="sofdcar.policies.ASIL-backto-sofdcar.policies.ASIL.B" style="stroke:#181818;stroke-width:1.0;"/><polygon fill="none" points="387.544,338.7832,407.261,331.0227,396.687,349.3853,387.544,338.7832" style="stroke:#181818;stroke-width:1.0;"/></g><!--reverse link sofdcar.policies.ASIL to sofdcar.policies.ASIL.C--><g id="link_sofdcar.policies.ASIL_sofdcar.policies.ASIL.C"><path d="M462.301,344.166 C480.336,359.5782 501.628,377.7732 516.856,390.7863 " fill="none" id="sofdcar.policies.ASIL-backto-sofdcar.policies.ASIL.C" style="stroke:#181818;stroke-width:1.0;"/><polygon fill="none" points="457.577,349.3374,446.92,331.0227,466.672,338.6941,457.577,349.3374" style="stroke:#181818;stroke-width:1.0;"/></g><!--reverse link sofdcar.policies.ASIL to sofdcar.policies.ASIL.D--><g id="link_sofdcar.policies.ASIL_sofdcar.policies.ASIL.D"><path d="M506.217,336.565 C564.903,353.2813 643.643,375.7103 697.127,390.9454 " fill="none" id="sofdcar.policies.ASIL-backto-sofdcar.policies.ASIL.D" style="stroke:#181818;stroke-width:1.0;"/><polygon fill="none" points="504.078,343.234,486.761,331.0227,507.913,329.7696,504.078,343.234" style="stroke:#181818;stroke-width:1.0;"/></g><!--SRC=[dP4z2W8n44Rxd2Aatvp0PdyQmSgS88op4jpDX2GM2nvU4HKHPZUc6_ZUQzwaY_F1HZjBe3cGHvzDNYQK4I5RVvvG2F6vfKeqdi167MXou33f8r5MwuX1k4QNbotCZhW9jMP_A41qMm9r9L1V0WqFIAXC2UnF6hcxDGtVZHauwolbl-QxBZjnvYivCwnPpo_KU5sbrrTwWxe3]--></g></svg>