<?xml version="1.0" encoding="us-ascii" standalone="no"?><svg xmlns="http://www.w3.org/2000/svg" xmlns:xlink="http://www.w3.org/1999/xlink" contentStyleType="text/css" height="337px" preserveAspectRatio="none" style="width:2356px;height:337px;background:#FFFFFF;" version="1.1" viewBox="0 0 2356 337" width="2356px" zoomAndPan="magnify"><defs/><g><!--entity sofdcar.nodes.Root--><g id="elem_sofdcar.nodes.Root"><rect fill="#F1F1F1" height="36.2969" rx="2.5" ry="2.5" style="stroke:#181818;stroke-width:0.5;" width="161" x="845" y="103"/><text fill="#000000" font-family="sans-serif" font-size="14" lengthAdjust="spacing" textLength="141" x="855" y="125.9951">sofdcar.nodes.Root</text></g><!--entity sofdcar.nodes.Vehicle--><g id="elem_sofdcar.nodes.Vehicle"><rect fill="#F1F1F1" height="36.2969" rx="2.5" ry="2.5" style="stroke:#181818;stroke-width:0.5;" width="179" x="7" y="199"/><text fill="#000000" font-family="sans-serif" font-size="14" lengthAdjust="spacing" textLength="159" x="17" y="221.9951">sofdcar.nodes.Vehicle</text></g><!--entity sofdcar.nodes.Cloud--><g id="elem_sofdcar.nodes.Cloud"><rect fill="#F1F1F1" height="36.2969" rx="2.5" ry="2.5" style="stroke:#181818;stroke-width:0.5;" width="166" x="221.5" y="199"/><text fill="#000000" font-family="sans-serif" font-size="14" lengthAdjust="spacing" textLength="146" x="231.5" y="221.9951">sofdcar.nodes.Cloud</text></g><!--entity sofdcar.nodes.ECU.Hardware--><g id="elem_sofdcar.nodes.ECU.Hardware"><rect fill="#F1F1F1" height="36.2969" rx="2.5" ry="2.5" style="stroke:#181818;stroke-width:0.5;" width="226" x="422.5" y="199"/><text fill="#000000" font-family="sans-serif" font-size="14" lengthAdjust="spacing" textLength="206" x="432.5" y="221.9951">sofdcar.nodes.ECU.Hardware</text></g><!--entity sofdcar.nodes.ECU.Software--><g id="elem_sofdcar.nodes.ECU.Software"><rect fill="#F1F1F1" height="36.2969" rx="2.5" ry="2.5" style="stroke:#181818;stroke-width:0.5;" width="224" x="683.5" y="199"/><text fill="#000000" font-family="sans-serif" font-size="14" lengthAdjust="spacing" textLength="204" x="693.5" y="221.9951">sofdcar.nodes.ECU.Software</text></g><!--entity sofdcar.nodes.ECU.Runtime--><g id="elem_sofdcar.nodes.ECU.Runtime"><rect fill="#F1F1F1" height="36.2969" rx="2.5" ry="2.5" style="stroke:#181818;stroke-width:0.5;" width="220" x="594.5" y="295"/><text fill="#000000" font-family="sans-serif" font-size="14" lengthAdjust="spacing" textLength="200" x="604.5" y="317.9951">sofdcar.nodes.ECU.Runtime</text></g><!--entity sofdcar.nodes.HPC.Software--><g id="elem_sofdcar.nodes.HPC.Software"><rect fill="#F1F1F1" height="36.2969" rx="2.5" ry="2.5" style="stroke:#181818;stroke-width:0.5;" width="225" x="1048" y="103"/><text fill="#000000" font-family="sans-serif" font-size="14" lengthAdjust="spacing" textLength="205" x="1058" y="125.9951">sofdcar.nodes.HPC.Software</text></g><!--entity sofdcar.nodes.HPC.Hardware--><g id="elem_sofdcar.nodes.HPC.Hardware"><rect fill="#F1F1F1" height="36.2969" rx="2.5" ry="2.5" style="stroke:#181818;stroke-width:0.5;" width="227" x="943" y="199"/><text fill="#000000" font-family="sans-serif" font-size="14" lengthAdjust="spacing" textLength="207" x="953" y="221.9951">sofdcar.nodes.HPC.Hardware</text></g><!--entity sofdcar.nodes.Actuator--><g id="elem_sofdcar.nodes.Actuator"><rect fill="#F1F1F1" height="36.2969" rx="2.5" ry="2.5" style="stroke:#181818;stroke-width:0.5;" width="189" x="1205" y="199"/><text fill="#000000" font-family="sans-serif" font-size="14" lengthAdjust="spacing" textLength="169" x="1215" y="221.9951">sofdcar.nodes.Actuator</text></g><!--entity sofdcar.nodes.Accelerator--><g id="elem_sofdcar.nodes.Accelerator"><rect fill="#F1F1F1" height="36.2969" rx="2.5" ry="2.5" style="stroke:#181818;stroke-width:0.5;" width="210" x="849.5" y="295"/><text fill="#000000" font-family="sans-serif" font-size="14" lengthAdjust="spacing" textLength="190" x="859.5" y="317.9951">sofdcar.nodes.Accelerator</text></g><!--entity sofdcar.nodes.Brake--><g id="elem_sofdcar.nodes.Brake"><rect fill="#F1F1F1" height="36.2969" rx="2.5" ry="2.5" style="stroke:#181818;stroke-width:0.5;" width="168" x="1094.5" y="295"/><text fill="#000000" font-family="sans-serif" font-size="14" lengthAdjust="spacing" textLength="148" x="1104.5" y="317.9951">sofdcar.nodes.Brake</text></g><!--entity sofdcar.nodes.Steering--><g id="elem_sofdcar.nodes.Steering"><rect fill="#F1F1F1" height="36.2969" rx="2.5" ry="2.5" style="stroke:#181818;stroke-width:0.5;" width="188" x="1297.5" y="295"/><text fill="#000000" font-family="sans-serif" font-size="14" lengthAdjust="spacing" textLength="168" x="1307.5" y="317.9951">sofdcar.nodes.Steering</text></g><!--entity sofdcar.nodes.Sensor--><g id="elem_sofdcar.nodes.Sensor"><rect fill="#F1F1F1" height="36.2969" rx="2.5" ry="2.5" style="stroke:#181818;stroke-width:0.5;" width="175" x="1629" y="199"/><text fill="#000000" font-family="sans-serif" font-size="14" lengthAdjust="spacing" textLength="155" x="1639" y="221.9951">sofdcar.nodes.Sensor</text></g><!--entity sofdcar.nodes.RADAR--><g id="elem_sofdcar.nodes.RADAR"><rect fill="#F1F1F1" height="36.2969" rx="2.5" ry="2.5" style="stroke:#181818;stroke-width:0.5;" width="177" x="1521" y="295"/><text fill="#000000" font-family="sans-serif" font-size="14" lengthAdjust="spacing" textLength="157" x="1531" y="317.9951">sofdcar.nodes.RADAR</text></g><!--entity sofdcar.nodes.Camera--><g id="elem_sofdcar.nodes.Camera"><rect fill="#F1F1F1" height="36.2969" rx="2.5" ry="2.5" style="stroke:#181818;stroke-width:0.5;" width="181" x="1733" y="295"/><text fill="#000000" font-family="sans-serif" font-size="14" lengthAdjust="spacing" textLength="161" x="1743" y="317.9951">sofdcar.nodes.Camera</text></g><!--entity sofdcar.nodes.LIDAR--><g id="elem_sofdcar.nodes.LIDAR"><rect fill="#F1F1F1" height="36.2969" rx="2.5" ry="2.5" style="stroke:#181818;stroke-width:0.5;" width="169" x="1949" y="295"/><text fill="#000000" font-family="sans-serif" font-size="14" lengthAdjust="spacing" textLength="149" x="1959" y="317.9951">sofdcar.nodes.LIDAR</text></g><!--entity sofdcar.nodes.Ultrasonic--><g id="elem_sofdcar.nodes.Ultrasonic"><rect fill="#F1F1F1" height="36.2969" rx="2.5" ry="2.5" style="stroke:#181818;stroke-width:0.5;" width="197" x="2153" y="295"/><text fill="#000000" font-family="sans-serif" font-size="14" lengthAdjust="spacing" textLength="177" x="2163" y="317.9951">sofdcar.nodes.Ultrasonic</text></g><!--entity sofdcar.nodes.Channel--><g id="elem_sofdcar.nodes.Channel"><rect fill="#F1F1F1" height="36.2969" rx="2.5" ry="2.5" style="stroke:#181818;stroke-width:0.5;" width="184" x="1839.5" y="199"/><text fill="#000000" font-family="sans-serif" font-size="14" lengthAdjust="spacing" textLength="164" x="1849.5" y="221.9951">sofdcar.nodes.Channel</text></g><!--entity tosca.nodes.Root--><g id="elem_tosca.nodes.Root"><ellipse cx="925.5" cy="14" fill="#F1F1F1" rx="8" ry="8" style="stroke:#181818;stroke-width:0.5;"/><text fill="#000000" font-family="sans-serif" font-size="14" lengthAdjust="spacing" textLength="127" x="862" y="43.9951">tosca.nodes.Root</text></g><!--entity tosca.nodes.SoftwareComponent--><g id="elem_tosca.nodes.SoftwareComponent"><ellipse cx="1160.5" cy="14" fill="#F1F1F1" rx="8" ry="8" style="stroke:#181818;stroke-width:0.5;"/><text fill="#000000" font-family="sans-serif" font-size="14" lengthAdjust="spacing" textLength="243" x="1039" y="43.9951">tosca.nodes.SoftwareComponent</text></g><!--reverse link tosca.nodes.Root to sofdcar.nodes.Root--><g id="link_tosca.nodes.Root_sofdcar.nodes.Root"><path d="M925.5,43.423 C925.5,62.445 925.5,86.849 925.5,102.933 " fill="none" id="tosca.nodes.Root-backto-sofdcar.nodes.Root" style="stroke:#181818;stroke-width:1.0;"/><polygon fill="none" points="918.5,43.239,925.5,23.239,932.5,43.239,918.5,43.239" style="stroke:#181818;stroke-width:1.0;"/></g><!--reverse link sofdcar.nodes.Root to sofdcar.nodes.Vehicle--><g id="link_sofdcar.nodes.Root_sofdcar.nodes.Vehicle"><path d="M824.811,131.093 C685.102,144.085 424.66,169.658 203.5,199 C197.813,199.755 191.962,200.571 186.068,201.423 " fill="none" id="sofdcar.nodes.Root-backto-sofdcar.nodes.Vehicle" style="stroke:#181818;stroke-width:1.0;"/><polygon fill="none" points="824.38,124.103,844.94,129.231,825.67,138.044,824.38,124.103" style="stroke:#181818;stroke-width:1.0;"/></g><!--reverse link sofdcar.nodes.Root to sofdcar.nodes.Cloud--><g id="link_sofdcar.nodes.Root_sofdcar.nodes.Cloud"><path d="M824.518,136.263 C719.485,151.254 550.323,175.832 404.5,199 C399.022,199.87 393.377,200.784 387.691,201.717 " fill="none" id="sofdcar.nodes.Root-backto-sofdcar.nodes.Cloud" style="stroke:#181818;stroke-width:1.0;"/><polygon fill="none" points="823.857,129.287,844.644,133.396,825.831,143.147,823.857,129.287" style="stroke:#181818;stroke-width:1.0;"/></g><!--reverse link sofdcar.nodes.Root to sofdcar.nodes.ECU.Hardware--><g id="link_sofdcar.nodes.Root_sofdcar.nodes.ECU.Hardware"><path d="M835.036,143.804 C765.37,160.596 670.432,183.478 606.259,198.945 " fill="none" id="sofdcar.nodes.Root-backto-sofdcar.nodes.ECU.Hardware" style="stroke:#181818;stroke-width:1.0;"/><polygon fill="none" points="833.79,136.904,854.874,139.023,837.071,150.514,833.79,136.904" style="stroke:#181818;stroke-width:1.0;"/></g><!--reverse link sofdcar.nodes.Root to sofdcar.nodes.ECU.Software--><g id="link_sofdcar.nodes.Root_sofdcar.nodes.ECU.Software"><path d="M885.727,150.759 C864.014,166.459 837.854,185.375 819.306,198.786 " fill="none" id="sofdcar.nodes.Root-backto-sofdcar.nodes.ECU.Software" style="stroke:#181818;stroke-width:1.0;"/><polygon fill="none" points="881.649,145.069,901.958,139.023,889.853,156.414,881.649,145.069" style="stroke:#181818;stroke-width:1.0;"/></g><!--reverse link sofdcar.nodes.ECU.Software to sofdcar.nodes.ECU.Runtime--><g id="link_sofdcar.nodes.ECU.Software_sofdcar.nodes.ECU.Runtime"><path d="M764.706,249.8087 C750.107,264.8895 733.244,282.3084 721.085,294.8683 " fill="none" id="sofdcar.nodes.ECU.Software-backto-sofdcar.nodes.ECU.Runtime" style="stroke:#181818;stroke-width:1.0;"/><polygon fill="none" points="759.869,244.7418,778.809,235.241,769.928,254.4795,759.869,244.7418" style="stroke:#181818;stroke-width:1.0;"/></g><!--reverse link tosca.nodes.SoftwareComponent to sofdcar.nodes.HPC.Software--><g id="link_tosca.nodes.SoftwareComponent_sofdcar.nodes.HPC.Software"><path d="M1160.5,43.423 C1160.5,62.445 1160.5,86.849 1160.5,102.933 " fill="none" id="tosca.nodes.SoftwareComponent-backto-sofdcar.nodes.HPC.Software" style="stroke:#181818;stroke-width:1.0;"/><polygon fill="none" points="1153.5,43.239,1160.5,23.239,1167.5,43.239,1153.5,43.239" style="stroke:#181818;stroke-width:1.0;"/></g><!--reverse link sofdcar.nodes.Root to sofdcar.nodes.HPC.Hardware--><g id="link_sofdcar.nodes.Root_sofdcar.nodes.HPC.Hardware"><path d="M965.578,150.759 C987.459,166.459 1013.82,185.375 1032.51,198.786 " fill="none" id="sofdcar.nodes.Root-backto-sofdcar.nodes.HPC.Hardware" style="stroke:#181818;stroke-width:1.0;"/><polygon fill="none" points="961.392,156.37,949.223,139.023,969.554,144.995,961.392,156.37" style="stroke:#181818;stroke-width:1.0;"/></g><!--reverse link sofdcar.nodes.Root to sofdcar.nodes.Actuator--><g id="link_sofdcar.nodes.Root_sofdcar.nodes.Actuator"><path d="M1012.68,143.912 C1079.45,160.694 1170.24,183.511 1231.64,198.945 " fill="none" id="sofdcar.nodes.Root-backto-sofdcar.nodes.Actuator" style="stroke:#181818;stroke-width:1.0;"/><polygon fill="none" points="1010.92,150.687,993.229,139.023,1014.33,137.109,1010.92,150.687" style="stroke:#181818;stroke-width:1.0;"/></g><!--reverse link sofdcar.nodes.Actuator to sofdcar.nodes.Accelerator--><g id="link_sofdcar.nodes.Actuator_sofdcar.nodes.Accelerator"><path d="M1217.48,240.3468 C1156.05,257.0857 1073.25,279.6439 1017.09,294.9454 " fill="none" id="sofdcar.nodes.Actuator-backto-sofdcar.nodes.Accelerator" style="stroke:#181818;stroke-width:1.0;"/><polygon fill="none" points="1215.89,233.5266,1237.02,235.0227,1219.57,247.0342,1215.89,233.5266" style="stroke:#181818;stroke-width:1.0;"/></g><!--reverse link sofdcar.nodes.Actuator to sofdcar.nodes.Brake--><g id="link_sofdcar.nodes.Actuator_sofdcar.nodes.Brake"><path d="M1261.58,247.4603 C1241.55,263.02 1217.67,281.574 1200.66,294.7863 " fill="none" id="sofdcar.nodes.Actuator-backto-sofdcar.nodes.Brake" style="stroke:#181818;stroke-width:1.0;"/><polygon fill="none" points="1257.5,241.7646,1277.59,235.0227,1266.09,252.8204,1257.5,241.7646" style="stroke:#181818;stroke-width:1.0;"/></g><!--reverse link sofdcar.nodes.Actuator to sofdcar.nodes.Steering--><g id="link_sofdcar.nodes.Actuator_sofdcar.nodes.Steering"><path d="M1330.63,249.8087 C1345.39,264.8895 1362.44,282.3084 1374.73,294.8683 " fill="none" id="sofdcar.nodes.Actuator-backto-sofdcar.nodes.Steering" style="stroke:#181818;stroke-width:1.0;"/><polygon fill="none" points="1325.36,254.4307,1316.37,235.241,1335.37,244.6382,1325.36,254.4307" style="stroke:#181818;stroke-width:1.0;"/></g><!--reverse link sofdcar.nodes.Root to sofdcar.nodes.Sensor--><g id="link_sofdcar.nodes.Root_sofdcar.nodes.Sensor"><path d="M1026.42,138.434 C1027.79,138.626 1029.15,138.815 1030.5,139 C1244.97,168.38 1498.3,194.634 1628.89,207.546 " fill="none" id="sofdcar.nodes.Root-backto-sofdcar.nodes.Sensor" style="stroke:#181818;stroke-width:1.0;"/><polygon fill="none" points="1025.04,145.308,1006.269,135.484,1027.07,131.456,1025.04,145.308" style="stroke:#181818;stroke-width:1.0;"/></g><!--reverse link sofdcar.nodes.Sensor to sofdcar.nodes.RADAR--><g id="link_sofdcar.nodes.Sensor_sofdcar.nodes.RADAR"><path d="M1681.64,248.6232 C1664.17,263.9694 1643.67,281.9779 1629,294.8683 " fill="none" id="sofdcar.nodes.Sensor-backto-sofdcar.nodes.RADAR" style="stroke:#181818;stroke-width:1.0;"/><polygon fill="none" points="1677.23,243.1821,1696.87,235.241,1686.47,253.6999,1677.23,243.1821" style="stroke:#181818;stroke-width:1.0;"/></g><!--reverse link sofdcar.nodes.Sensor to sofdcar.nodes.Camera--><g id="link_sofdcar.nodes.Sensor_sofdcar.nodes.Camera"><path d="M1751.36,248.6232 C1768.83,263.9694 1789.33,281.9779 1804,294.8683 " fill="none" id="sofdcar.nodes.Sensor-backto-sofdcar.nodes.Camera" style="stroke:#181818;stroke-width:1.0;"/><polygon fill="none" points="1746.53,253.6999,1736.13,235.241,1755.77,243.1821,1746.53,253.6999" style="stroke:#181818;stroke-width:1.0;"/></g><!--reverse link sofdcar.nodes.Sensor to sofdcar.nodes.LIDAR--><g id="link_sofdcar.nodes.Sensor_sofdcar.nodes.LIDAR"><path d="M1793.33,240.7838 C1849.63,257.4766 1924.83,279.7767 1975.99,294.9454 " fill="none" id="sofdcar.nodes.Sensor-backto-sofdcar.nodes.LIDAR" style="stroke:#181818;stroke-width:1.0;"/><polygon fill="none" points="1791.09,247.4198,1773.91,235.0227,1795.07,233.9975,1791.09,247.4198" style="stroke:#181818;stroke-width:1.0;"/></g><!--reverse link sofdcar.nodes.Sensor to sofdcar.nodes.Ultrasonic--><g id="link_sofdcar.nodes.Sensor_sofdcar.nodes.Ultrasonic"><path d="M1824.17,236.918 C1920.83,253.9017 2061.46,278.61 2154.65,294.9835 " fill="none" id="sofdcar.nodes.Sensor-backto-sofdcar.nodes.Ultrasonic" style="stroke:#181818;stroke-width:1.0;"/><polygon fill="none" points="1822.73,243.7724,1804.25,233.4169,1825.15,229.984,1822.73,243.7724" style="stroke:#181818;stroke-width:1.0;"/></g><!--reverse link sofdcar.nodes.Root to sofdcar.nodes.Channel--><g id="link_sofdcar.nodes.Root_sofdcar.nodes.Channel"><path d="M1026.41,138.503 C1027.78,138.673 1029.14,138.839 1030.5,139 C1380.61,180.545 1471.24,158.712 1821.5,199 C1827.36,199.673 1833.38,200.428 1839.44,201.234 " fill="none" id="sofdcar.nodes.Root-backto-sofdcar.nodes.Channel" style="stroke:#181818;stroke-width:1.0;"/><polygon fill="none" points="1025.11,145.392,1006.232,135.779,1026.99,131.518,1025.11,145.392" style="stroke:#181818;stroke-width:1.0;"/></g><!--SRC=[bPF1QeD048RlFeLuZq_GIs8BAVHGbFG-h9D4iiw4tP5IwCCtXMYCwBXxazt_sntr__obeIiuQ5F3xPK9IIhviPWwD09qifWaoV2SPfwFjG6N4zVeyv9PCcN_2y-DiQX52ijThGNUYaE-1rT_WyErNCL72ScL7KdJgh7zPn5qt7ykPBojaGw4dPunQD6jnNOEBkfTbI2wXavg1idhrvJRrssf_ZfeRyDgYO_tbICELXnufiQe5vs12EqjacJ2ti2uVkdBxsQpKCovrTdyewZ1I5_SO61Iv2Xkr4HjTv5_5Fxf0_PWqRi_VyB4XU399su4SoDNbdOMkB4_KMZlL1GqyYputGRlvjVdstmtCG8Pt8nWUbiZa2T_mzMv-_m7]--></g></svg>