<svg xmlns="http://www.w3.org/2000/svg" xmlns:xlink="http://www.w3.org/1999/xlink" contentStyleType="text/css" height="241px" preserveAspectRatio="none" style="width:811px;height:241px;background:#FFFFFF;" version="1.1" viewBox="0 0 811 241" width="811px" zoomAndPan="magnify"><defs/><g><!--entity sofdcar.policies.ASIL--><g id="elem_sofdcar.policies.ASIL"><rect fill="#F1F1F1" height="36.2969" rx="2.5" ry="2.5" style="stroke:#181818;stroke-width:0.5;" width="159" x="325.5" y="103"/><text fill="#000000" font-family="sans-serif" font-size="14" lengthAdjust="spacing" textLength="139" x="335.5" y="125.9951">sofdcar.policies.ASIL</text></g><!--entity sofdcar.policies.ASIL.A--><g id="elem_sofdcar.policies.ASIL.A"><rect fill="#F1F1F1" height="36.2969" rx="2.5" ry="2.5" style="stroke:#181818;stroke-width:0.5;" width="172" x="7" y="199"/><text fill="#000000" font-family="sans-serif" font-size="14" lengthAdjust="spacing" textLength="152" x="17" y="221.9951">sofdcar.policies.ASIL.A</text></g><!--entity sofdcar.policies.ASIL.B--><g id="elem_sofdcar.policies.ASIL.B"><rect fill="#F1F1F1" height="36.2969" rx="2.5" ry="2.5" style="stroke:#181818;stroke-width:0.5;" width="173" x="214.5" y="199"/><text fill="#000000" font-family="sans-serif" font-size="14" lengthAdjust="spacing" textLength="153" x="224.5" y="221.9951">sofdcar.policies.ASIL.B</text></g><!--entity sofdcar.policies.ASIL.C--><g id="elem_sofdcar.policies.ASIL.C"><rect fill="#F1F1F1" height="36.2969" rx="2.5" ry="2.5" style="stroke:#181818;stroke-width:0.5;" width="173" x="422.5" y="199"/><text fill="#000000" font-family="sans-serif" font-size="14" lengthAdjust="spacing" textLength="153" x="432.5" y="221.9951">sofdcar.policies.ASIL.C</text></g><!--entity sofdcar.policies.ASIL.D--><g id="elem_sofdcar.policies.ASIL.D"><rect fill="#F1F1F1" height="36.2969" rx="2.5" ry="2.5" style="stroke:#181818;stroke-width:0.5;" width="174" x="631" y="199"/><text fill="#000000" font-family="sans-serif" font-size="14" lengthAdjust="spacing" textLength="154" x="641" y="221.9951">sofdcar.policies.ASIL.D</text></g><!--entity sofdcar.policies.Safety--><g id="elem_sofdcar.policies.Safety"><ellipse cx="405" cy="14" fill="#F1F1F1" rx="8" ry="8" style="stroke:#181818;stroke-width:0.5;"/><text fill="#000000" font-family="sans-serif" font-size="14" lengthAdjust="spacing" textLength="153" x="328.5" y="43.9951">sofdcar.policies.Safety</text></g><!--reverse link sofdcar.policies.Safety to sofdcar.policies.ASIL--><g id="link_sofdcar.policies.Safety_sofdcar.policies.ASIL"><path d="M405,43.42 C405,62.44 405,86.85 405,102.93 " fill="none" id="sofdcar.policies.Safety-backto-sofdcar.policies.ASIL" style="stroke:#181818;stroke-width:1.0;"/><polygon fill="none" points="398,43.24,405,23.24,412,43.24,398,43.24" style="stroke:#181818;stroke-width:1.0;"/></g><!--reverse link sofdcar.policies.ASIL to sofdcar.policies.ASIL.A--><g id="link_sofdcar.policies.ASIL_sofdcar.policies.ASIL.A"><path d="M329.01,144.89 C273.65,161.57 199.84,183.81 149.61,198.95 " fill="none" id="sofdcar.policies.ASIL-backto-sofdcar.policies.ASIL.A" style="stroke:#181818;stroke-width:1.0;"/><polygon fill="none" points="327.33,138.09,348.5,139.02,331.37,151.49,327.33,138.09" style="stroke:#181818;stroke-width:1.0;"/></g><!--reverse link sofdcar.policies.ASIL to sofdcar.policies.ASIL.B--><g id="link_sofdcar.policies.ASIL_sofdcar.policies.ASIL.B"><path d="M370.86,152.86 C353.94,168.15 334.14,186.04 319.95,198.87 " fill="none" id="sofdcar.policies.ASIL-backto-sofdcar.policies.ASIL.B" style="stroke:#181818;stroke-width:1.0;"/><polygon fill="none" points="366.39,147.46,385.92,139.24,375.78,157.84,366.39,147.46" style="stroke:#181818;stroke-width:1.0;"/></g><!--reverse link sofdcar.policies.ASIL to sofdcar.policies.ASIL.C--><g id="link_sofdcar.policies.ASIL_sofdcar.policies.ASIL.C"><path d="M439.14,152.86 C456.06,168.15 475.86,186.04 490.05,198.87 " fill="none" id="sofdcar.policies.ASIL-backto-sofdcar.policies.ASIL.C" style="stroke:#181818;stroke-width:1.0;"/><polygon fill="none" points="434.22,157.84,424.08,139.24,443.61,147.46,434.22,157.84" style="stroke:#181818;stroke-width:1.0;"/></g><!--reverse link sofdcar.policies.ASIL to sofdcar.policies.ASIL.D--><g id="link_sofdcar.policies.ASIL_sofdcar.policies.ASIL.D"><path d="M480.87,144.78 C536.45,161.48 610.7,183.78 661.21,198.95 " fill="none" id="sofdcar.policies.ASIL-backto-sofdcar.policies.ASIL.D" style="stroke:#181818;stroke-width:1.0;"/><polygon fill="none" points="478.82,151.48,461.68,139.02,482.85,138.07,478.82,151.48" style="stroke:#181818;stroke-width:1.0;"/></g><!--SRC=[AyxEp2j8B4hCLKZEpot8pqlDAmakgSn9LIXAJIv9p4lFIUNYueAp5PIAyzDIaXEBz0hoSpAJCrEBzHo3FNsK22lHSoH6aHCnYfo9KUG2LCI5AHUSc9PQKgcaO5EZgulRCpWayEa2-uySVKvawdCcKnymO000]--></g></svg>