<?xml version="1.0" encoding="us-ascii" standalone="no"?><svg xmlns="http://www.w3.org/2000/svg" xmlns:xlink="http://www.w3.org/1999/xlink" contentStyleType="text/css" height="337px" preserveAspectRatio="none" style="width:2818px;height:337px;background:#FFFFFF;" version="1.1" viewBox="0 0 2818 337" width="2818px" zoomAndPan="magnify"><defs/><g><!--entity sofdcar.nodes.Root--><g id="elem_sofdcar.nodes.Root"><rect fill="#F1F1F1" height="36.2969" rx="2.5" ry="2.5" style="stroke:#181818;stroke-width:0.5;" width="161" x="976" y="103"/><text fill="#000000" font-family="sans-serif" font-size="14" lengthAdjust="spacing" textLength="141" x="986" y="125.9951">sofdcar.nodes.Root</text></g><!--entity sofdcar.nodes.Vehicle--><g id="elem_sofdcar.nodes.Vehicle"><rect fill="#F1F1F1" height="36.2969" rx="2.5" ry="2.5" style="stroke:#181818;stroke-width:0.5;" width="179" x="7" y="199"/><text fill="#000000" font-family="sans-serif" font-size="14" lengthAdjust="spacing" textLength="159" x="17" y="221.9951">sofdcar.nodes.Vehicle</text></g><!--entity sofdcar.nodes.Cloud--><g id="elem_sofdcar.nodes.Cloud"><rect fill="#F1F1F1" height="36.2969" rx="2.5" ry="2.5" style="stroke:#181818;stroke-width:0.5;" width="166" x="221.5" y="199"/><text fill="#000000" font-family="sans-serif" font-size="14" lengthAdjust="spacing" textLength="146" x="231.5" y="221.9951">sofdcar.nodes.Cloud</text></g><!--entity sofdcar.nodes.ECU.Hardware--><g id="elem_sofdcar.nodes.ECU.Hardware"><rect fill="#F1F1F1" height="36.2969" rx="2.5" ry="2.5" style="stroke:#181818;stroke-width:0.5;" width="226" x="422.5" y="199"/><text fill="#000000" font-family="sans-serif" font-size="14" lengthAdjust="spacing" textLength="206" x="432.5" y="221.9951">sofdcar.nodes.ECU.Hardware</text></g><!--entity sofdcar.nodes.ECU.Software--><g id="elem_sofdcar.nodes.ECU.Software"><rect fill="#F1F1F1" height="36.2969" rx="2.5" ry="2.5" style="stroke:#181818;stroke-width:0.5;" width="224" x="683.5" y="199"/><text fill="#000000" font-family="sans-serif" font-size="14" lengthAdjust="spacing" textLength="204" x="693.5" y="221.9951">sofdcar.nodes.ECU.Software</text></g><!--entity sofdcar.nodes.ECU.Runtime--><g id="elem_sofdcar.nodes.ECU.Runtime"><rect fill="#F1F1F1" height="36.2969" rx="2.5" ry="2.5" style="stroke:#181818;stroke-width:0.5;" width="220" x="188.5" y="295"/><text fill="#000000" font-family="sans-serif" font-size="14" lengthAdjust="spacing" textLength="200" x="198.5" y="317.9951">sofdcar.nodes.ECU.Runtime</text></g><!--entity sofdcar.nodes.HPC.Software--><g id="elem_sofdcar.nodes.HPC.Software"><rect fill="#F1F1F1" height="36.2969" rx="2.5" ry="2.5" style="stroke:#181818;stroke-width:0.5;" width="225" x="1179" y="103"/><text fill="#000000" font-family="sans-serif" font-size="14" lengthAdjust="spacing" textLength="205" x="1189" y="125.9951">sofdcar.nodes.HPC.Software</text></g><!--entity sofdcar.nodes.HPC.Hardware--><g id="elem_sofdcar.nodes.HPC.Hardware"><rect fill="#F1F1F1" height="36.2969" rx="2.5" ry="2.5" style="stroke:#181818;stroke-width:0.5;" width="227" x="943" y="199"/><text fill="#000000" font-family="sans-serif" font-size="14" lengthAdjust="spacing" textLength="207" x="953" y="221.9951">sofdcar.nodes.HPC.Hardware</text></g><!--entity sofdcar.nodes.Actuator--><g id="elem_sofdcar.nodes.Actuator"><rect fill="#F1F1F1" height="36.2969" rx="2.5" ry="2.5" style="stroke:#181818;stroke-width:0.5;" width="189" x="1205" y="199"/><text fill="#000000" font-family="sans-serif" font-size="14" lengthAdjust="spacing" textLength="169" x="1215" y="221.9951">sofdcar.nodes.Actuator</text></g><!--entity sofdcar.nodes.Accelerator--><g id="elem_sofdcar.nodes.Accelerator"><rect fill="#F1F1F1" height="36.2969" rx="2.5" ry="2.5" style="stroke:#181818;stroke-width:0.5;" width="210" x="443.5" y="295"/><text fill="#000000" font-family="sans-serif" font-size="14" lengthAdjust="spacing" textLength="190" x="453.5" y="317.9951">sofdcar.nodes.Accelerator</text></g><!--entity sofdcar.nodes.Brake--><g id="elem_sofdcar.nodes.Brake"><rect fill="#F1F1F1" height="36.2969" rx="2.5" ry="2.5" style="stroke:#181818;stroke-width:0.5;" width="168" x="688.5" y="295"/><text fill="#000000" font-family="sans-serif" font-size="14" lengthAdjust="spacing" textLength="148" x="698.5" y="317.9951">sofdcar.nodes.Brake</text></g><!--entity sofdcar.nodes.Steering--><g id="elem_sofdcar.nodes.Steering"><rect fill="#F1F1F1" height="36.2969" rx="2.5" ry="2.5" style="stroke:#181818;stroke-width:0.5;" width="188" x="891.5" y="295"/><text fill="#000000" font-family="sans-serif" font-size="14" lengthAdjust="spacing" textLength="168" x="901.5" y="317.9951">sofdcar.nodes.Steering</text></g><!--entity sofdcar.nodes.Light--><g id="elem_sofdcar.nodes.Light"><rect fill="#F1F1F1" height="36.2969" rx="2.5" ry="2.5" style="stroke:#181818;stroke-width:0.5;" width="163" x="1115" y="295"/><text fill="#000000" font-family="sans-serif" font-size="14" lengthAdjust="spacing" textLength="143" x="1125" y="317.9951">sofdcar.nodes.Light</text></g><!--entity sofdcar.nodes.Cooling--><g id="elem_sofdcar.nodes.Cooling"><rect fill="#F1F1F1" height="36.2969" rx="2.5" ry="2.5" style="stroke:#181818;stroke-width:0.5;" width="180" x="1313.5" y="295"/><text fill="#000000" font-family="sans-serif" font-size="14" lengthAdjust="spacing" textLength="160" x="1323.5" y="317.9951">sofdcar.nodes.Cooling</text></g><!--entity sofdcar.nodes.Airbag--><g id="elem_sofdcar.nodes.Airbag"><rect fill="#F1F1F1" height="36.2969" rx="2.5" ry="2.5" style="stroke:#181818;stroke-width:0.5;" width="173" x="1529" y="295"/><text fill="#000000" font-family="sans-serif" font-size="14" lengthAdjust="spacing" textLength="153" x="1539" y="317.9951">sofdcar.nodes.Airbag</text></g><!--entity sofdcar.nodes.Sensor--><g id="elem_sofdcar.nodes.Sensor"><rect fill="#F1F1F1" height="36.2969" rx="2.5" ry="2.5" style="stroke:#181818;stroke-width:0.5;" width="175" x="1845" y="199"/><text fill="#000000" font-family="sans-serif" font-size="14" lengthAdjust="spacing" textLength="155" x="1855" y="221.9951">sofdcar.nodes.Sensor</text></g><!--entity sofdcar.nodes.RADAR--><g id="elem_sofdcar.nodes.RADAR"><rect fill="#F1F1F1" height="36.2969" rx="2.5" ry="2.5" style="stroke:#181818;stroke-width:0.5;" width="177" x="1737" y="295"/><text fill="#000000" font-family="sans-serif" font-size="14" lengthAdjust="spacing" textLength="157" x="1747" y="317.9951">sofdcar.nodes.RADAR</text></g><!--entity sofdcar.nodes.Camera--><g id="elem_sofdcar.nodes.Camera"><rect fill="#F1F1F1" height="36.2969" rx="2.5" ry="2.5" style="stroke:#181818;stroke-width:0.5;" width="181" x="1949" y="295"/><text fill="#000000" font-family="sans-serif" font-size="14" lengthAdjust="spacing" textLength="161" x="1959" y="317.9951">sofdcar.nodes.Camera</text></g><!--entity sofdcar.nodes.LIDAR--><g id="elem_sofdcar.nodes.LIDAR"><rect fill="#F1F1F1" height="36.2969" rx="2.5" ry="2.5" style="stroke:#181818;stroke-width:0.5;" width="169" x="2165" y="295"/><text fill="#000000" font-family="sans-serif" font-size="14" lengthAdjust="spacing" textLength="149" x="2175" y="317.9951">sofdcar.nodes.LIDAR</text></g><!--entity sofdcar.nodes.Ultrasonic--><g id="elem_sofdcar.nodes.Ultrasonic"><rect fill="#F1F1F1" height="36.2969" rx="2.5" ry="2.5" style="stroke:#181818;stroke-width:0.5;" width="197" x="2369" y="295"/><text fill="#000000" font-family="sans-serif" font-size="14" lengthAdjust="spacing" textLength="177" x="2379" y="317.9951">sofdcar.nodes.Ultrasonic</text></g><!--entity sofdcar.nodes.Microphone--><g id="elem_sofdcar.nodes.Microphone"><rect fill="#F1F1F1" height="36.2969" rx="2.5" ry="2.5" style="stroke:#181818;stroke-width:0.5;" width="211" x="2601" y="295"/><text fill="#000000" font-family="sans-serif" font-size="14" lengthAdjust="spacing" textLength="191" x="2611" y="317.9951">sofdcar.nodes.Microphone</text></g><!--entity sofdcar.nodes.Channel--><g id="elem_sofdcar.nodes.Channel"><rect fill="#F1F1F1" height="36.2969" rx="2.5" ry="2.5" style="stroke:#181818;stroke-width:0.5;" width="184" x="2055.5" y="199"/><text fill="#000000" font-family="sans-serif" font-size="14" lengthAdjust="spacing" textLength="164" x="2065.5" y="221.9951">sofdcar.nodes.Channel</text></g><!--entity sofdcar.nodes.Battery--><g id="elem_sofdcar.nodes.Battery"><rect fill="#F1F1F1" height="36.2969" rx="2.5" ry="2.5" style="stroke:#181818;stroke-width:0.5;" width="181" x="2275" y="199"/><text fill="#000000" font-family="sans-serif" font-size="14" lengthAdjust="spacing" textLength="161" x="2285" y="221.9951">sofdcar.nodes.Battery</text></g><!--entity tosca.nodes.Root--><g id="elem_tosca.nodes.Root"><ellipse cx="1056.5" cy="14" fill="#F1F1F1" rx="8" ry="8" style="stroke:#181818;stroke-width:0.5;"/><text fill="#000000" font-family="sans-serif" font-size="14" lengthAdjust="spacing" textLength="127" x="993" y="43.9951">tosca.nodes.Root</text></g><!--entity tosca.nodes.SoftwareComponent--><g id="elem_tosca.nodes.SoftwareComponent"><ellipse cx="1291.5" cy="14" fill="#F1F1F1" rx="8" ry="8" style="stroke:#181818;stroke-width:0.5;"/><text fill="#000000" font-family="sans-serif" font-size="14" lengthAdjust="spacing" textLength="243" x="1170" y="43.9951">tosca.nodes.SoftwareComponent</text></g><!--reverse link tosca.nodes.Root to sofdcar.nodes.Root--><g id="link_tosca.nodes.Root_sofdcar.nodes.Root"><path d="M1056.5,43.423 C1056.5,62.445 1056.5,86.849 1056.5,102.933 " fill="none" id="tosca.nodes.Root-backto-sofdcar.nodes.Root" style="stroke:#181818;stroke-width:1.0;"/><polygon fill="none" points="1049.5,43.239,1056.5,23.239,1063.5,43.239,1049.5,43.239" style="stroke:#181818;stroke-width:1.0;"/></g><!--reverse link sofdcar.nodes.Root to sofdcar.nodes.Vehicle--><g id="link_sofdcar.nodes.Root_sofdcar.nodes.Vehicle"><path d="M955.674,128.886 C795.824,140.301 474.555,165.273 203.5,199 C197.807,199.708 191.952,200.489 186.054,201.315 " fill="none" id="sofdcar.nodes.Root-backto-sofdcar.nodes.Vehicle" style="stroke:#181818;stroke-width:1.0;"/><polygon fill="none" points="955.301,121.895,975.746,127.463,956.291,135.86,955.301,121.895" style="stroke:#181818;stroke-width:1.0;"/></g><!--reverse link sofdcar.nodes.Root to sofdcar.nodes.Cloud--><g id="link_sofdcar.nodes.Root_sofdcar.nodes.Cloud"><path d="M955.682,132.299 C827.389,145.774 599.068,170.991 404.5,199 C399.009,199.79 393.356,200.644 387.663,201.532 " fill="none" id="sofdcar.nodes.Root-backto-sofdcar.nodes.Cloud" style="stroke:#181818;stroke-width:1.0;"/><polygon fill="none" points="955.155,125.316,975.774,130.199,956.61,139.241,955.155,125.316" style="stroke:#181818;stroke-width:1.0;"/></g><!--reverse link sofdcar.nodes.Root to sofdcar.nodes.ECU.Hardware--><g id="link_sofdcar.nodes.Root_sofdcar.nodes.ECU.Hardware"><path d="M955.987,140.135 C861.785,157.131 722.031,182.346 629.875,198.973 " fill="none" id="sofdcar.nodes.Root-backto-sofdcar.nodes.ECU.Hardware" style="stroke:#181818;stroke-width:1.0;"/><polygon fill="none" points="955.026,133.195,975.951,136.533,957.511,146.973,955.026,133.195" style="stroke:#181818;stroke-width:1.0;"/></g><!--reverse link sofdcar.nodes.Root to sofdcar.nodes.ECU.Software--><g id="link_sofdcar.nodes.Root_sofdcar.nodes.ECU.Software"><path d="M990.174,145.888 C944.189,162.449 884.05,184.109 842.854,198.945 " fill="none" id="sofdcar.nodes.Root-backto-sofdcar.nodes.ECU.Software" style="stroke:#181818;stroke-width:1.0;"/><polygon fill="none" points="988.046,139.214,1009.23,139.023,992.79,152.386,988.046,139.214" style="stroke:#181818;stroke-width:1.0;"/></g><!--reverse link sofdcar.nodes.ECU.Software to sofdcar.nodes.ECU.Runtime--><g id="link_sofdcar.nodes.ECU.Software_sofdcar.nodes.ECU.Runtime"><path d="M685.605,238.785 C596.385,255.6595 472.119,279.1626 388.672,294.9454 " fill="none" id="sofdcar.nodes.ECU.Software-backto-sofdcar.nodes.ECU.Runtime" style="stroke:#181818;stroke-width:1.0;"/><polygon fill="none" points="684.545,231.8615,705.497,235.0227,687.146,245.6176,684.545,231.8615" style="stroke:#181818;stroke-width:1.0;"/></g><!--reverse link tosca.nodes.SoftwareComponent to sofdcar.nodes.HPC.Software--><g id="link_tosca.nodes.SoftwareComponent_sofdcar.nodes.HPC.Software"><path d="M1291.5,43.423 C1291.5,62.445 1291.5,86.849 1291.5,102.933 " fill="none" id="tosca.nodes.SoftwareComponent-backto-sofdcar.nodes.HPC.Software" style="stroke:#181818;stroke-width:1.0;"/><polygon fill="none" points="1284.5,43.239,1291.5,23.239,1298.5,43.239,1284.5,43.239" style="stroke:#181818;stroke-width:1.0;"/></g><!--reverse link sofdcar.nodes.Root to sofdcar.nodes.HPC.Hardware--><g id="link_sofdcar.nodes.Root_sofdcar.nodes.HPC.Hardware"><path d="M1056.5,159.621 C1056.5,173.213 1056.5,187.895 1056.5,198.868 " fill="none" id="sofdcar.nodes.Root-backto-sofdcar.nodes.HPC.Hardware" style="stroke:#181818;stroke-width:1.0;"/><polygon fill="none" points="1049.5,159.241,1056.5,139.241,1063.5,159.241,1049.5,159.241" style="stroke:#181818;stroke-width:1.0;"/></g><!--reverse link sofdcar.nodes.Root to sofdcar.nodes.Actuator--><g id="link_sofdcar.nodes.Root_sofdcar.nodes.Actuator"><path d="M1119.4,146.333 C1162.07,162.836 1217.4,184.241 1255.41,198.945 " fill="none" id="sofdcar.nodes.Root-backto-sofdcar.nodes.Actuator" style="stroke:#181818;stroke-width:1.0;"/><polygon fill="none" points="1116.63,152.767,1100.51,139.023,1121.68,139.71,1116.63,152.767" style="stroke:#181818;stroke-width:1.0;"/></g><!--reverse link sofdcar.nodes.Actuator to sofdcar.nodes.Accelerator--><g id="link_sofdcar.nodes.Actuator_sofdcar.nodes.Accelerator"><path d="M1184.66,235.2967 C954.849,265.7179 893.571,266.5178 670.5,295 C664.985,295.7042 659.331,296.4407 653.624,297.1957 " fill="none" id="sofdcar.nodes.Actuator-backto-sofdcar.nodes.Accelerator" style="stroke:#181818;stroke-width:1.0;"/><polygon fill="none" points="1184.07,228.313,1204.82,232.6098,1185.92,242.1908,1184.07,228.313" style="stroke:#181818;stroke-width:1.0;"/></g><!--reverse link sofdcar.nodes.Actuator to sofdcar.nodes.Brake--><g id="link_sofdcar.nodes.Actuator_sofdcar.nodes.Brake"><path d="M1185.16,238.3938 C1086.27,256.0341 945.563,281.1311 856.671,296.9866 " fill="none" id="sofdcar.nodes.Actuator-backto-sofdcar.nodes.Brake" style="stroke:#181818;stroke-width:1.0;"/><polygon fill="none" points="1184.06,231.4803,1204.98,234.8596,1186.52,245.2628,1184.06,231.4803" style="stroke:#181818;stroke-width:1.0;"/></g><!--reverse link sofdcar.nodes.Actuator to sofdcar.nodes.Steering--><g id="link_sofdcar.nodes.Actuator_sofdcar.nodes.Steering"><path d="M1223.39,240.7838 C1167.63,257.4766 1093.14,279.7767 1042.47,294.9454 " fill="none" id="sofdcar.nodes.Actuator-backto-sofdcar.nodes.Steering" style="stroke:#181818;stroke-width:1.0;"/><polygon fill="none" points="1221.47,234.0526,1242.64,235.0227,1225.48,247.4645,1221.47,234.0526" style="stroke:#181818;stroke-width:1.0;"/></g><!--reverse link sofdcar.nodes.Actuator to sofdcar.nodes.Light--><g id="link_sofdcar.nodes.Actuator_sofdcar.nodes.Light"><path d="M1265.69,248.8595 C1248.93,264.1539 1229.32,282.044 1215.27,294.8683 " fill="none" id="sofdcar.nodes.Actuator-backto-sofdcar.nodes.Light" style="stroke:#181818;stroke-width:1.0;"/><polygon fill="none" points="1261.12,243.5526,1280.61,235.241,1270.55,253.8936,1261.12,243.5526" style="stroke:#181818;stroke-width:1.0;"/></g><!--reverse link sofdcar.nodes.Actuator to sofdcar.nodes.Cooling--><g id="link_sofdcar.nodes.Actuator_sofdcar.nodes.Cooling"><path d="M1333.64,248.8595 C1350.56,264.1539 1370.36,282.044 1384.55,294.8683 " fill="none" id="sofdcar.nodes.Actuator-backto-sofdcar.nodes.Cooling" style="stroke:#181818;stroke-width:1.0;"/><polygon fill="none" points="1328.72,253.845,1318.58,235.241,1338.11,243.4588,1328.72,253.845" style="stroke:#181818;stroke-width:1.0;"/></g><!--reverse link sofdcar.nodes.Actuator to sofdcar.nodes.Airbag--><g id="link_sofdcar.nodes.Actuator_sofdcar.nodes.Airbag"><path d="M1376.09,240.7838 C1432.21,257.4766 1507.17,279.7767 1558.17,294.9454 " fill="none" id="sofdcar.nodes.Actuator-backto-sofdcar.nodes.Airbag" style="stroke:#181818;stroke-width:1.0;"/><polygon fill="none" points="1373.9,247.4346,1356.73,235.0227,1377.89,234.0157,1373.9,247.4346" style="stroke:#181818;stroke-width:1.0;"/></g><!--reverse link sofdcar.nodes.Root to sofdcar.nodes.Sensor--><g id="link_sofdcar.nodes.Root_sofdcar.nodes.Sensor"><path d="M1157.41,138.458 C1158.78,138.642 1160.15,138.823 1161.5,139 C1408.43,171.289 1701.41,197.145 1844.71,208.987 " fill="none" id="sofdcar.nodes.Root-backto-sofdcar.nodes.Sensor" style="stroke:#181818;stroke-width:1.0;"/><polygon fill="none" points="1156.07,145.337,1137.26,135.584,1158.04,131.477,1156.07,145.337" style="stroke:#181818;stroke-width:1.0;"/></g><!--reverse link sofdcar.nodes.Sensor to sofdcar.nodes.RADAR--><g id="link_sofdcar.nodes.Sensor_sofdcar.nodes.RADAR"><path d="M1897.64,248.6232 C1880.17,263.9694 1859.67,281.9779 1845,294.8683 " fill="none" id="sofdcar.nodes.Sensor-backto-sofdcar.nodes.RADAR" style="stroke:#181818;stroke-width:1.0;"/><polygon fill="none" points="1893.23,243.1821,1912.87,235.241,1902.47,253.6999,1893.23,243.1821" style="stroke:#181818;stroke-width:1.0;"/></g><!--reverse link sofdcar.nodes.Sensor to sofdcar.nodes.Camera--><g id="link_sofdcar.nodes.Sensor_sofdcar.nodes.Camera"><path d="M1967.36,248.6232 C1984.83,263.9694 2005.33,281.9779 2020,294.8683 " fill="none" id="sofdcar.nodes.Sensor-backto-sofdcar.nodes.Camera" style="stroke:#181818;stroke-width:1.0;"/><polygon fill="none" points="1962.53,253.6999,1952.13,235.241,1971.77,243.1821,1962.53,253.6999" style="stroke:#181818;stroke-width:1.0;"/></g><!--reverse link sofdcar.nodes.Sensor to sofdcar.nodes.LIDAR--><g id="link_sofdcar.nodes.Sensor_sofdcar.nodes.LIDAR"><path d="M2009.33,240.7838 C2065.63,257.4766 2140.83,279.7767 2191.99,294.9454 " fill="none" id="sofdcar.nodes.Sensor-backto-sofdcar.nodes.LIDAR" style="stroke:#181818;stroke-width:1.0;"/><polygon fill="none" points="2007.09,247.4198,1989.91,235.0227,2011.07,233.9975,2007.09,247.4198" style="stroke:#181818;stroke-width:1.0;"/></g><!--reverse link sofdcar.nodes.Sensor to sofdcar.nodes.Ultrasonic--><g id="link_sofdcar.nodes.Sensor_sofdcar.nodes.Ultrasonic"><path d="M2040.17,236.918 C2136.83,253.9017 2277.46,278.61 2370.65,294.9835 " fill="none" id="sofdcar.nodes.Sensor-backto-sofdcar.nodes.Ultrasonic" style="stroke:#181818;stroke-width:1.0;"/><polygon fill="none" points="2038.73,243.7724,2020.25,233.4169,2041.15,229.984,2038.73,243.7724" style="stroke:#181818;stroke-width:1.0;"/></g><!--reverse link sofdcar.nodes.Sensor to sofdcar.nodes.Microphone--><g id="link_sofdcar.nodes.Sensor_sofdcar.nodes.Microphone"><path d="M2040.21,235.2431 C2282.79,267.7226 2347.62,265.7443 2583.5,295 C2589.17,295.7031 2594.98,296.4429 2600.85,297.2041 " fill="none" id="sofdcar.nodes.Sensor-backto-sofdcar.nodes.Microphone" style="stroke:#181818;stroke-width:1.0;"/><polygon fill="none" points="2038.99,242.1416,2020.11,232.5272,2040.87,228.268,2038.99,242.1416" style="stroke:#181818;stroke-width:1.0;"/></g><!--reverse link sofdcar.nodes.Root to sofdcar.nodes.Channel--><g id="link_sofdcar.nodes.Root_sofdcar.nodes.Channel"><path d="M1157.41,138.517 C1158.78,138.683 1160.14,138.844 1161.5,139 C1549.19,183.566 1649.65,155.826 2037.5,199 C2043.36,199.652 2049.38,200.39 2055.45,201.184 " fill="none" id="sofdcar.nodes.Root-backto-sofdcar.nodes.Channel" style="stroke:#181818;stroke-width:1.0;"/><polygon fill="none" points="1156.13,145.409,1137.22,135.839,1157.97,131.531,1156.13,145.409" style="stroke:#181818;stroke-width:1.0;"/></g><!--reverse link sofdcar.nodes.Root to sofdcar.nodes.Battery--><g id="link_sofdcar.nodes.Root_sofdcar.nodes.Battery"><path d="M1157.4,138.544 C1158.78,138.701 1160.14,138.853 1161.5,139 C1646.08,191.355 1771.77,148.049 2256.5,199 C2262.5,199.631 2268.67,200.364 2274.89,201.164 " fill="none" id="sofdcar.nodes.Root-backto-sofdcar.nodes.Battery" style="stroke:#181818;stroke-width:1.0;"/><polygon fill="none" points="1156.16,145.441,1137.21,135.951,1157.94,131.555,1156.16,145.441" style="stroke:#181818;stroke-width:1.0;"/></g><!--SRC=[bPJ1QiCm38RlUOhGU_i4ksJPe8CDHa9trnorCNEiegYCmXv-7SnfMXB5lWNh_nHPvl_xB-kFmD3bXheZUVHIozbXpcW4_C5XbcN3TxxgQTyOu8sd1ljDHIGhfVw1hJKEDKdfwDHeWkTojza2Dz_0kAIhQIynkkhanNQgRFjUHhNxqyMCLnWvWH3h6eCEUKdsoF2b_giMHBR-e6bUxQ5LtwuaSWiz2ikVe2fgzBr-cQfuAYfr3kWkAr6lyhBGOkU4eITlZQPwiuRfs5uye8xJWlVerFS14UJpHPAjX7e3OxVa3p_hzOoFfaudzLTVHIF1Pz70dU-Ik95njEeiV_NdpG83M8QeckvmPzteoU-i7CsDh3rNcU76Taz2GmGaGQDOIE92L2H1r_X8sqc8bEZj3n4pVJxjj__GIK2664fWGZ0b83THbS3TX5TyA0nX5es4SFi5]--></g></svg>