<?xml version="1.0" encoding="utf-8"?>
<!-- Generator: Adobe Illustrator 26.5.0, SVG Export Plug-In . SVG Version: 6.00 Build 0)  -->
<svg version="1.1" id="Ebene_1" xmlns="http://www.w3.org/2000/svg" xmlns:xlink="http://www.w3.org/1999/xlink" x="0px" y="0px"
	 viewBox="0 0 830 184" style="enable-background:new 0 0 830 184;" xml:space="preserve">
<style type="text/css">
	.st0{fill:#212121;}
	.st1{display:none;enable-background:new    ;}
	.st2{display:inline;fill:#FF6E42;}
	.st3{font-family:'SegoeUI-Bold';}
	.st4{font-size:30px;}
	.st5{display:inline;fill:#FFFFFF;}
	.st6{enable-background:new    ;}
	.st7{fill:#FF6E42;}
	.st8{fill:#FFFFFF;}
</style>
<g>
	<path d="M819.9,184H10.1C4.5,184,0,179.5,0,173.9V10.1C0,4.5,4.5,0,10.1,0h809.8c5.6,0,10.1,4.5,10.1,10.1v163.8
		C830,179.5,825.5,184,819.9,184z"/>
</g>
<path class="st0" d="M438,170c-140,0-133-46-254-46c-70.9,0-127.4,28.2-183.4,53.4c1.4,3.9,5.1,6.6,9.5,6.6h809.8
	c5.6,0,10.1-4.5,10.1-10.1V20.2C620.5,61.9,550.6,170,438,170z"/>
<text transform="matrix(1 0 0 1 268.0395 98.7666)" class="st1"><tspan x="0" y="0" class="st2 st3 st4">OpenTOSCA </tspan><tspan x="181" y="0" class="st5 st3 st4">Vintner</tspan><tspan x="285.6" y="0" class="st2 st3 st4"> </tspan></text>
<g class="st6">
	<path class="st7" d="M279.9,99.1c-3,0-5.5-1-7.4-2.9s-2.8-4.5-2.8-7.7c0-3.3,1-6,2.9-8.1s4.5-3.1,7.6-3.1c3,0,5.4,1,7.3,2.9
		s2.8,4.6,2.8,7.8c0,3.3-1,6-2.9,8S283,99.1,279.9,99.1z M280.1,81.5c-1.7,0-3,0.6-4,1.9c-1,1.2-1.5,2.9-1.5,4.9
		c0,2.1,0.5,3.7,1.5,4.9s2.3,1.8,3.8,1.8c1.6,0,2.9-0.6,3.9-1.8c1-1.2,1.4-2.8,1.4-4.9c0-2.2-0.5-3.9-1.4-5.1S281.7,81.5,280.1,81.5
		z"/>
	<path class="st7" d="M298,97L298,97l-0.1,8.6h-4.6V83.8h4.6V86h0.1c1.1-1.7,2.7-2.6,4.8-2.6c1.9,0,3.4,0.7,4.5,2
		c1.1,1.3,1.6,3.1,1.6,5.4c0,2.5-0.6,4.5-1.9,6s-2.9,2.3-4.9,2.3C300.3,99.1,298.9,98.4,298,97z M297.8,90.9v1.2
		c0,1,0.3,1.9,0.8,2.5s1.3,1,2.2,1c1.1,0,1.9-0.4,2.5-1.2c0.6-0.8,0.9-2,0.9-3.5c0-2.6-1-4-3.1-4c-0.9,0-1.7,0.4-2.3,1.1
		C298.1,88.7,297.8,89.7,297.8,90.9z"/>
	<path class="st7" d="M325.4,92.6h-9.8c0.2,2.2,1.5,3.3,4.1,3.3c1.7,0,3.1-0.4,4.4-1.2V98c-1.4,0.7-3.2,1.1-5.4,1.1
		c-2.4,0-4.3-0.7-5.6-2c-1.3-1.3-2-3.2-2-5.6c0-2.5,0.7-4.5,2.2-5.9s3.2-2.2,5.3-2.2c2.2,0,3.9,0.6,5.1,1.9s1.8,3.1,1.8,5.3V92.6z
		 M321.1,89.7c0-2.1-0.9-3.2-2.6-3.2c-0.7,0-1.4,0.3-1.9,0.9s-0.9,1.4-1,2.3H321.1z"/>
	<path class="st7" d="M342.6,98.8H338v-8.3c0-2.3-0.8-3.5-2.5-3.5c-0.8,0-1.5,0.3-2,0.9s-0.8,1.4-0.8,2.3v8.6h-4.6v-15h4.6v2.4h0.1
		c1.1-1.8,2.7-2.7,4.8-2.7c3.3,0,5,2.1,5,6.2V98.8z"/>
	<path class="st7" d="M361.5,81.6h-6v17.2h-4.7V81.6h-6v-3.9h16.7V81.6z"/>
	<path class="st7" d="M372.1,99.1c-3,0-5.5-1-7.4-2.9s-2.8-4.5-2.8-7.7c0-3.3,1-6,2.9-8.1s4.5-3.1,7.6-3.1c3,0,5.4,1,7.3,2.9
		s2.8,4.6,2.8,7.8c0,3.3-1,6-2.9,8S375.2,99.1,372.1,99.1z M372.3,81.5c-1.7,0-3,0.6-4,1.9c-1,1.2-1.5,2.9-1.5,4.9
		c0,2.1,0.5,3.7,1.5,4.9s2.3,1.8,3.8,1.8c1.6,0,2.9-0.6,3.9-1.8c1-1.2,1.4-2.8,1.4-4.9c0-2.2-0.5-3.9-1.4-5.1S373.9,81.5,372.3,81.5
		z"/>
	<path class="st7" d="M385,98v-4.7c0.8,0.7,1.8,1.2,2.8,1.6s2,0.5,3,0.5c0.6,0,1.1-0.1,1.6-0.2s0.8-0.3,1.1-0.4
		c0.3-0.2,0.5-0.4,0.7-0.7c0.1-0.3,0.2-0.5,0.2-0.8c0-0.4-0.1-0.8-0.4-1.1s-0.6-0.6-1-0.9s-0.9-0.5-1.4-0.8s-1.2-0.5-1.8-0.8
		c-1.6-0.7-2.9-1.5-3.7-2.5s-1.2-2.2-1.2-3.6c0-1.1,0.2-2,0.7-2.8c0.4-0.8,1-1.4,1.8-1.9s1.6-0.9,2.6-1.1s2.1-0.4,3.2-0.4
		c1.1,0,2.1,0.1,2.9,0.2c0.8,0.1,1.6,0.3,2.3,0.6v4.4c-0.4-0.2-0.7-0.5-1.1-0.6s-0.8-0.3-1.3-0.5s-0.9-0.2-1.3-0.3s-0.8-0.1-1.2-0.1
		c-0.5,0-1,0.1-1.5,0.2c-0.4,0.1-0.8,0.2-1.1,0.4s-0.5,0.4-0.7,0.7c-0.2,0.3-0.2,0.5-0.2,0.9c0,0.4,0.1,0.7,0.3,0.9
		c0.2,0.3,0.4,0.5,0.8,0.8c0.3,0.2,0.8,0.5,1.2,0.7c0.5,0.2,1,0.5,1.7,0.7c0.8,0.4,1.6,0.7,2.3,1.1c0.7,0.4,1.2,0.8,1.7,1.3
		s0.8,1.1,1.1,1.7s0.4,1.4,0.4,2.2c0,1.2-0.2,2.2-0.7,3s-1,1.4-1.8,1.9s-1.6,0.8-2.7,1.1s-2.1,0.3-3.2,0.3c-1.2,0-2.2-0.1-3.3-0.3
		S385.7,98.4,385,98z"/>
	<path class="st7" d="M417.8,98c-1.5,0.7-3.5,1.1-6,1.1c-3.2,0-5.8-0.9-7.6-2.8s-2.8-4.4-2.8-7.6c0-3.4,1-6.1,3.1-8.2
		s4.8-3.1,8.1-3.1c2.1,0,3.8,0.3,5.2,0.8v4.6c-1.4-0.8-3-1.3-4.8-1.3c-2,0-3.6,0.6-4.8,1.9s-1.8,2.9-1.8,5c0,2,0.6,3.7,1.7,4.9
		s2.7,1.8,4.6,1.8c1.8,0,3.5-0.4,5.1-1.3V98z"/>
	<path class="st7" d="M440,98.8h-5.2l-1.5-4.7h-7.5l-1.5,4.7h-5.1l7.6-21h5.6L440,98.8z M432.2,90.5l-2.3-7.1
		c-0.2-0.5-0.3-1.2-0.4-1.9h-0.1c0,0.6-0.2,1.2-0.4,1.8l-2.3,7.1H432.2z"/>
	<path class="st8" d="M468.3,77.8l-7.2,21h-5.4l-7.1-21h5.1l4.4,14.6c0.2,0.8,0.4,1.5,0.4,2.1h0.1c0.1-0.7,0.2-1.4,0.5-2.2l4.4-14.6
		H468.3z"/>
	<path class="st8" d="M472.8,81.4c-0.8,0-1.4-0.2-1.9-0.7s-0.7-1-0.7-1.7c0-0.7,0.2-1.3,0.7-1.7s1.1-0.7,1.9-0.7
		c0.8,0,1.4,0.2,1.9,0.7s0.7,1,0.7,1.7c0,0.7-0.2,1.3-0.7,1.7S473.5,81.4,472.8,81.4z M475,98.8h-4.6v-15h4.6V98.8z"/>
	<path class="st8" d="M493.4,98.8h-4.6v-8.3c0-2.3-0.8-3.5-2.5-3.5c-0.8,0-1.5,0.3-2,0.9s-0.8,1.4-0.8,2.3v8.6h-4.6v-15h4.6v2.4h0.1
		c1.1-1.8,2.7-2.7,4.8-2.7c3.3,0,5,2.1,5,6.2V98.8z"/>
	<path class="st8" d="M506.1,98.6c-0.7,0.4-1.7,0.5-3.1,0.5c-3.3,0-4.9-1.7-4.9-5.1v-6.9h-2.4v-3.4h2.4v-3.2l4.6-1.3v4.6h3.4v3.4
		h-3.4v6.1c0,1.6,0.6,2.3,1.9,2.3c0.5,0,1-0.1,1.5-0.4V98.6z"/>
	<path class="st8" d="M523.2,98.8h-4.6v-8.3c0-2.3-0.8-3.5-2.5-3.5c-0.8,0-1.5,0.3-2,0.9s-0.8,1.4-0.8,2.3v8.6h-4.6v-15h4.6v2.4h0.1
		c1.1-1.8,2.7-2.7,4.8-2.7c3.3,0,5,2.1,5,6.2V98.8z"/>
	<path class="st8" d="M540.4,92.6h-9.8c0.2,2.2,1.5,3.3,4.1,3.3c1.7,0,3.1-0.4,4.4-1.2V98c-1.4,0.7-3.2,1.1-5.4,1.1
		c-2.4,0-4.3-0.7-5.6-2c-1.3-1.3-2-3.2-2-5.6c0-2.5,0.7-4.5,2.2-5.9s3.2-2.2,5.3-2.2c2.2,0,3.9,0.6,5.1,1.9s1.8,3.1,1.8,5.3V92.6z
		 M536.1,89.7c0-2.1-0.9-3.2-2.6-3.2c-0.7,0-1.4,0.3-1.9,0.9s-0.9,1.4-1,2.3H536.1z"/>
	<path class="st8" d="M552.9,87.9c-0.6-0.3-1.2-0.5-1.9-0.5c-1,0-1.8,0.4-2.4,1.1c-0.6,0.7-0.8,1.7-0.8,3v7.2h-4.6v-15h4.6v2.8h0.1
		c0.7-2,2.1-3,4-3c0.5,0,0.9,0.1,1.1,0.2V87.9z"/>
</g>
</svg>
