<?xml version="1.0" encoding="utf-8"?>
<!-- Generator: Adobe Illustrator 26.5.0, SVG Export Plug-In . SVG Version: 6.00 Build 0)  -->
<svg version="1.1" id="Ebene_1" xmlns="http://www.w3.org/2000/svg" xmlns:xlink="http://www.w3.org/1999/xlink" x="0px" y="0px"
	 viewBox="0 0 830 184" style="enable-background:new 0 0 830 184;" xml:space="preserve">
<style type="text/css">
	.st0{fill:#212121;}
	.st1{enable-background:new    ;}
	.st2{fill:#FF6E42;}
	.st3{font-family:'SegoeUI-Bold';}
	.st4{font-size:30px;}
	.st5{fill:#FFFFFF;}
</style>
<g>
	<path d="M819.9,184H10.1C4.5,184,0,179.5,0,173.9V10.1C0,4.5,4.5,0,10.1,0h809.8c5.6,0,10.1,4.5,10.1,10.1v163.8
		C830,179.5,825.5,184,819.9,184z"/>
</g>
<path class="st0" d="M438,170c-140,0-133-46-254-46c-70.9,0-127.4,28.2-183.4,53.4c1.4,3.9,5.1,6.6,9.5,6.6h809.8
	c5.6,0,10.1-4.5,10.1-10.1V20.2C620.5,61.9,550.6,170,438,170z"/>
<text transform="matrix(1 0 0 1 268.0395 98.7666)" class="st1"><tspan x="0" y="0" class="st2 st3 st4">OpenTOSCA </tspan><tspan x="181" y="0" class="st5 st3 st4">Vintner</tspan><tspan x="285.6" y="0" class="st2 st3 st4"> </tspan></text>
</svg>
