<?xml version="1.0" encoding="utf-8"?>
<!-- Generator: Adobe Illustrator 26.5.0, SVG Export Plug-In . SVG Version: 6.00 Build 0)  -->
<svg version="1.1" id="Ebene_1" xmlns="http://www.w3.org/2000/svg" xmlns:xlink="http://www.w3.org/1999/xlink" x="0px" y="0px"
	 viewBox="0 0 830 184" style="enable-background:new 0 0 830 184;" xml:space="preserve">
<style type="text/css">
	.st0{fill:#212121;}
	.st1{display:none;}
	.st2{display:inline;fill:#FF6E42;}
	.st3{font-family:'SegoeUI-Bold';}
	.st4{font-size:28.8609px;}
	.st5{display:inline;fill:#FFFFFF;}
	.st6{font-family:'SegoeUI-BoldItalic';}
	.st7{fill:#FF6E42;}
	.st8{fill:#FFFFFF;}
</style>
<g>
	<path d="M819.9,184H10.1C4.52,184,0,179.48,0,173.9V10.1C0,4.52,4.52,0,10.1,0H819.9c5.58,0,10.1,4.52,10.1,10.1V173.9
		C830,179.48,825.48,184,819.9,184z"/>
</g>
<path class="st0" d="M438,170c-140,0-133-46-254-46c-70.89,0-127.37,28.22-183.36,53.4c1.43,3.85,5.12,6.6,9.47,6.6H819.9
	c5.58,0,10.1-4.52,10.1-10.1V20.17C620.55,61.91,550.63,170,438,170z"/>
<text transform="matrix(1 0 0 1 277.9861 98.7666)" class="st1"><tspan x="0" y="0" class="st2 st3 st4">OpenTOSCA </tspan><tspan x="174.1" y="0" class="st5 st6 st4">Vintner</tspan></text>
<g>
	<path class="st7" d="M290.37,99.12c-2.89,0-5.25-0.94-7.07-2.83s-2.73-4.34-2.73-7.36c0-3.19,0.92-5.78,2.78-7.75
		c1.85-1.97,4.3-2.96,7.36-2.96c2.88,0,5.22,0.94,7,2.83s2.67,4.38,2.67,7.47c0,3.18-0.92,5.74-2.77,7.68
		C295.75,98.15,293.34,99.12,290.37,99.12z M290.57,82.14c-1.6,0-2.87,0.6-3.8,1.8s-1.41,2.78-1.41,4.76c0,2,0.47,3.58,1.41,4.75
		s2.17,1.75,3.69,1.75c1.57,0,2.81-0.57,3.73-1.7c0.92-1.13,1.38-2.7,1.38-4.71c0-2.1-0.45-3.73-1.34-4.89
		S292.12,82.14,290.57,82.14z"/>
	<path class="st7" d="M307.79,97.09h-0.06v8.31h-4.45V84.34h4.45v2.17h0.06c1.1-1.68,2.64-2.52,4.64-2.52
		c1.87,0,3.31,0.64,4.33,1.92c1.02,1.28,1.53,3.03,1.53,5.24c0,2.41-0.59,4.34-1.78,5.79c-1.19,1.46-2.77,2.18-4.74,2.18
		C310.03,99.12,308.7,98.44,307.79,97.09z M307.66,91.17v1.16c0,1,0.26,1.81,0.79,2.44c0.53,0.63,1.22,0.94,2.07,0.94
		c1.01,0,1.8-0.39,2.36-1.18c0.56-0.78,0.84-1.9,0.84-3.33c0-2.54-0.99-3.81-2.96-3.81c-0.91,0-1.66,0.35-2.23,1.04
		C307.95,89.12,307.66,90.03,307.66,91.17z"/>
	<path class="st7" d="M334.14,92.82h-9.41c0.15,2.1,1.47,3.14,3.96,3.14c1.59,0,2.98-0.38,4.19-1.13v3.21
		c-1.33,0.71-3.07,1.07-5.2,1.07c-2.33,0-4.14-0.65-5.42-1.94c-1.29-1.29-1.93-3.09-1.93-5.4c0-2.4,0.7-4.29,2.08-5.69
		c1.39-1.4,3.1-2.1,5.13-2.1c2.1,0,3.73,0.62,4.88,1.87c1.15,1.25,1.73,2.95,1.73,5.09V92.82z M330.01,90.09
		c0-2.07-0.84-3.1-2.51-3.1c-0.71,0-1.33,0.3-1.85,0.89c-0.52,0.59-0.84,1.33-0.95,2.21H330.01z"/>
	<path class="st7" d="M350.73,98.77h-4.44v-8.02c0-2.24-0.8-3.35-2.4-3.35c-0.77,0-1.4,0.3-1.9,0.89c-0.5,0.59-0.75,1.34-0.75,2.25
		v8.23h-4.45V84.34h4.45v2.28h0.06c1.06-1.76,2.61-2.64,4.64-2.64c3.19,0,4.79,1.98,4.79,5.95V98.77z"/>
	<path class="st7" d="M368.88,82.26h-5.76v16.5h-4.57v-16.5h-5.74v-3.71h16.06V82.26z"/>
	<path class="st7" d="M379.07,99.12c-2.89,0-5.25-0.94-7.07-2.83s-2.73-4.34-2.73-7.36c0-3.19,0.92-5.78,2.78-7.75
		c1.85-1.97,4.3-2.96,7.36-2.96c2.88,0,5.22,0.94,7,2.83s2.67,4.38,2.67,7.47c0,3.18-0.92,5.74-2.77,7.68
		C384.44,98.15,382.04,99.12,379.07,99.12z M379.27,82.14c-1.6,0-2.87,0.6-3.8,1.8s-1.41,2.78-1.41,4.76c0,2,0.47,3.58,1.41,4.75
		s2.17,1.75,3.69,1.75c1.57,0,2.81-0.57,3.73-1.7c0.92-1.13,1.38-2.7,1.38-4.71c0-2.1-0.45-3.73-1.34-4.89
		S380.82,82.14,379.27,82.14z"/>
	<path class="st7" d="M391.48,97.99v-4.51c0.82,0.69,1.71,1.2,2.66,1.54c0.96,0.34,1.93,0.51,2.9,0.51c0.57,0,1.07-0.05,1.5-0.16
		c0.43-0.1,0.78-0.25,1.07-0.43c0.29-0.18,0.5-0.4,0.64-0.65c0.14-0.25,0.21-0.52,0.21-0.81c0-0.39-0.11-0.75-0.34-1.06
		c-0.23-0.31-0.53-0.6-0.92-0.86c-0.39-0.26-0.85-0.52-1.39-0.76c-0.54-0.24-1.11-0.49-1.73-0.75c-1.58-0.66-2.75-1.46-3.53-2.41
		c-0.77-0.95-1.16-2.1-1.16-3.44c0-1.05,0.21-1.96,0.63-2.71s1-1.38,1.73-1.87c0.73-0.49,1.57-0.85,2.53-1.08
		c0.96-0.23,1.97-0.35,3.04-0.35c1.05,0,1.98,0.06,2.8,0.19c0.81,0.13,1.56,0.32,2.25,0.58v4.21c-0.34-0.23-0.71-0.44-1.11-0.62
		c-0.4-0.18-0.81-0.33-1.23-0.44c-0.42-0.12-0.84-0.2-1.26-0.26c-0.42-0.06-0.81-0.08-1.19-0.08c-0.52,0-0.99,0.05-1.41,0.15
		s-0.78,0.24-1.07,0.42c-0.29,0.18-0.52,0.39-0.68,0.64c-0.16,0.25-0.24,0.53-0.24,0.84c0,0.34,0.09,0.64,0.27,0.91
		c0.18,0.27,0.43,0.52,0.76,0.76c0.33,0.24,0.73,0.47,1.2,0.7c0.47,0.23,1,0.47,1.59,0.71c0.81,0.34,1.53,0.7,2.18,1.08
		c0.64,0.38,1.2,0.81,1.66,1.29c0.46,0.48,0.81,1.03,1.06,1.64s0.37,1.33,0.37,2.15c0,1.13-0.21,2.07-0.64,2.84
		c-0.43,0.77-1.01,1.39-1.74,1.86c-0.73,0.47-1.59,0.82-2.56,1.02c-0.97,0.21-2,0.31-3.08,0.31c-1.11,0-2.16-0.09-3.16-0.28
		C393.08,98.65,392.22,98.37,391.48,97.99z"/>
	<path class="st7" d="M423.08,98.05c-1.48,0.71-3.4,1.07-5.78,1.07c-3.1,0-5.54-0.91-7.31-2.73c-1.78-1.82-2.66-4.25-2.66-7.29
		c0-3.23,1-5.85,2.99-7.86c2-2.01,4.59-3.02,7.77-3.02c1.97,0,3.64,0.25,4.99,0.75v4.38c-1.35-0.81-2.89-1.21-4.62-1.21
		c-1.9,0-3.43,0.6-4.59,1.79c-1.17,1.19-1.75,2.81-1.75,4.85c0,1.95,0.55,3.51,1.65,4.67c1.1,1.16,2.58,1.74,4.44,1.74
		c1.78,0,3.4-0.43,4.88-1.3V98.05z"/>
	<path class="st7" d="M444.37,98.77h-4.96l-1.44-4.5h-7.19l-1.42,4.5h-4.93l7.36-20.21h5.4L444.37,98.77z M436.93,90.78l-2.17-6.79
		c-0.16-0.51-0.27-1.11-0.34-1.82h-0.11c-0.05,0.59-0.17,1.18-0.35,1.76l-2.2,6.85H436.93z"/>
	<path class="st8" d="M462.96,98.77h-5.02l-2.59-20.21h4.67l1.37,13.98c0.03,0.33,0.04,0.67,0.05,1.01c0,0.34-0.02,0.66-0.08,0.95
		h0.11c0.08-0.27,0.2-0.58,0.33-0.92c0.14-0.34,0.3-0.7,0.5-1.1l7.02-13.92h5.02L462.96,98.77z"/>
	<path class="st8" d="M479.33,98.64c-0.17,0.05-0.36,0.09-0.58,0.14s-0.46,0.09-0.7,0.13c-0.25,0.04-0.51,0.08-0.78,0.1
		s-0.53,0.04-0.8,0.04c-0.63,0-1.17-0.08-1.61-0.25c-0.45-0.16-0.81-0.39-1.11-0.69c-0.29-0.3-0.51-0.65-0.64-1.06
		c-0.14-0.41-0.2-0.86-0.2-1.35c0-0.21,0.01-0.44,0.04-0.69c0.02-0.25,0.05-0.52,0.09-0.8c0.04-0.28,0.08-0.56,0.13-0.85
		c0.05-0.29,0.11-0.56,0.16-0.82c0.04-0.16,0.1-0.45,0.19-0.88c0.09-0.43,0.19-0.92,0.31-1.47s0.24-1.14,0.37-1.75
		c0.13-0.62,0.26-1.2,0.37-1.75c0.12-0.55,0.22-1.04,0.31-1.47c0.09-0.43,0.15-0.72,0.19-0.88h4.51l-1.72,8.12
		c-0.08,0.33-0.15,0.7-0.24,1.11s-0.13,0.76-0.13,1.06c0,0.36,0.11,0.61,0.34,0.75c0.23,0.14,0.48,0.21,0.78,0.21
		c0.24,0,0.49-0.03,0.74-0.08c0.25-0.05,0.48-0.12,0.68-0.2c-0.12,0.56-0.24,1.12-0.35,1.67C479.57,97.52,479.46,98.08,479.33,98.64
		z M480.8,79.69c0,0.37-0.07,0.7-0.21,0.99c-0.14,0.29-0.33,0.54-0.57,0.75s-0.52,0.37-0.85,0.49s-0.67,0.17-1.05,0.17
		c-0.36,0-0.69-0.05-0.99-0.16c-0.31-0.11-0.57-0.26-0.79-0.45c-0.22-0.19-0.39-0.42-0.52-0.68c-0.13-0.26-0.19-0.55-0.19-0.86
		c0-0.37,0.07-0.7,0.2-0.99s0.32-0.54,0.56-0.75c0.24-0.21,0.52-0.37,0.85-0.49s0.69-0.17,1.07-0.17c0.36,0,0.69,0.05,0.99,0.16
		s0.56,0.26,0.78,0.45c0.22,0.19,0.39,0.42,0.52,0.68S480.8,79.38,480.8,79.69z"/>
	<path class="st8" d="M497.18,87.77c0,0.14-0.01,0.33-0.04,0.56c-0.03,0.23-0.06,0.48-0.11,0.73c-0.04,0.25-0.09,0.5-0.13,0.74
		s-0.09,0.44-0.13,0.61L495,98.77h-4.47l1.73-8.23c0.06-0.3,0.11-0.61,0.17-0.93c0.06-0.32,0.08-0.56,0.08-0.73
		c0-0.45-0.12-0.81-0.35-1.08c-0.23-0.27-0.58-0.4-1.04-0.4c-0.38,0-0.79,0.12-1.2,0.36c-0.42,0.24-0.81,0.56-1.18,0.95
		s-0.69,0.85-0.97,1.36c-0.28,0.51-0.47,1.04-0.58,1.57l-1.49,7.13h-4.54l2.14-9.89c0.08-0.43,0.17-0.87,0.25-1.3
		c0.08-0.44,0.16-0.85,0.23-1.25c0.07-0.4,0.12-0.77,0.18-1.11c0.05-0.34,0.09-0.63,0.12-0.87h4.4c-0.03,0.26-0.06,0.54-0.09,0.82
		c-0.03,0.29-0.07,0.56-0.1,0.82c-0.03,0.26-0.06,0.5-0.09,0.7s-0.05,0.35-0.07,0.43h0.06c0.33-0.43,0.7-0.84,1.11-1.22
		c0.41-0.38,0.85-0.71,1.32-0.99s0.95-0.5,1.44-0.67c0.5-0.16,1-0.25,1.49-0.25c1.19,0,2.09,0.33,2.7,0.99
		C496.87,85.64,497.18,86.57,497.18,87.77z"/>
	<path class="st8" d="M509.15,87.62h-3.37l-1.16,5.4c-0.02,0.12-0.04,0.25-0.07,0.39c-0.03,0.14-0.05,0.28-0.08,0.42
		c-0.02,0.14-0.04,0.27-0.06,0.4s-0.03,0.23-0.03,0.32c0,0.38,0.09,0.65,0.28,0.83c0.19,0.18,0.5,0.27,0.93,0.27
		c0.11,0,0.26-0.01,0.43-0.04s0.35-0.07,0.54-0.11c0.18-0.05,0.36-0.1,0.53-0.15c0.17-0.05,0.3-0.1,0.41-0.13l-0.69,3.3
		c-0.17,0.07-0.38,0.13-0.62,0.2c-0.24,0.07-0.51,0.13-0.8,0.18c-0.29,0.06-0.59,0.1-0.91,0.14s-0.62,0.06-0.92,0.06
		c-0.71,0-1.31-0.09-1.79-0.27c-0.48-0.18-0.86-0.44-1.15-0.76c-0.29-0.32-0.49-0.7-0.61-1.13c-0.12-0.43-0.18-0.9-0.18-1.41
		c0-0.15,0.01-0.32,0.03-0.52s0.04-0.4,0.08-0.61c0.03-0.21,0.07-0.42,0.11-0.63s0.08-0.41,0.12-0.58l1.16-5.55h-2.23l0.79-3.28
		h2.13l0.73-3.38l4.69-1.16l-0.94,4.54h3.42L509.15,87.62z"/>
	<path class="st8" d="M525.26,87.77c0,0.14-0.01,0.33-0.04,0.56c-0.03,0.23-0.06,0.48-0.11,0.73c-0.04,0.25-0.09,0.5-0.13,0.74
		s-0.09,0.44-0.13,0.61l-1.76,8.34h-4.47l1.73-8.23c0.06-0.3,0.11-0.61,0.17-0.93c0.06-0.32,0.08-0.56,0.08-0.73
		c0-0.45-0.12-0.81-0.35-1.08c-0.23-0.27-0.58-0.4-1.04-0.4c-0.38,0-0.79,0.12-1.2,0.36c-0.42,0.24-0.81,0.56-1.18,0.95
		s-0.69,0.85-0.97,1.36c-0.28,0.51-0.47,1.04-0.58,1.57l-1.49,7.13h-4.54l2.14-9.89c0.08-0.43,0.17-0.87,0.25-1.3
		c0.08-0.44,0.16-0.85,0.23-1.25c0.07-0.4,0.12-0.77,0.18-1.11c0.05-0.34,0.09-0.63,0.12-0.87h4.4c-0.03,0.26-0.06,0.54-0.09,0.82
		c-0.03,0.29-0.07,0.56-0.1,0.82c-0.03,0.26-0.06,0.5-0.09,0.7s-0.05,0.35-0.07,0.43h0.06c0.33-0.43,0.7-0.84,1.11-1.22
		c0.41-0.38,0.85-0.71,1.32-0.99s0.95-0.5,1.44-0.67c0.5-0.16,1-0.25,1.49-0.25c1.19,0,2.09,0.33,2.7,0.99
		C524.96,85.64,525.26,86.57,525.26,87.77z"/>
	<path class="st8" d="M541.12,88.06c0,0.74-0.16,1.42-0.47,2.04c-0.32,0.62-0.84,1.16-1.58,1.61c-0.74,0.45-1.72,0.81-2.94,1.06
		c-1.22,0.26-2.74,0.4-4.57,0.43c-0.02,0.06-0.03,0.11-0.03,0.15s0,0.09,0,0.13c0,0.29,0.05,0.58,0.14,0.87
		c0.09,0.29,0.26,0.55,0.49,0.79c0.23,0.23,0.53,0.43,0.91,0.57s0.85,0.22,1.41,0.22c0.34,0,0.71-0.03,1.11-0.09
		c0.4-0.06,0.81-0.15,1.22-0.27c0.41-0.12,0.83-0.26,1.23-0.42c0.41-0.16,0.79-0.35,1.13-0.54l-0.69,3.33
		c-0.29,0.15-0.62,0.3-1,0.44s-0.78,0.27-1.22,0.38s-0.9,0.2-1.4,0.27c-0.49,0.07-1,0.1-1.51,0.1c-1.09,0-2.02-0.16-2.8-0.48
		c-0.78-0.32-1.42-0.75-1.92-1.29c-0.5-0.54-0.87-1.17-1.11-1.9c-0.24-0.72-0.35-1.49-0.35-2.31c0-1.23,0.2-2.4,0.61-3.51
		c0.41-1.11,0.99-2.08,1.75-2.92c0.76-0.84,1.67-1.5,2.73-1.99c1.07-0.49,2.26-0.74,3.57-0.74c0.95,0,1.76,0.11,2.42,0.34
		c0.67,0.23,1.21,0.53,1.63,0.91s0.73,0.82,0.93,1.3S541.12,87.53,541.12,88.06z M536.87,88.11c0-0.35-0.13-0.64-0.39-0.87
		c-0.26-0.23-0.62-0.35-1.09-0.35c-0.41,0-0.81,0.09-1.19,0.27c-0.38,0.18-0.73,0.43-1.04,0.74s-0.58,0.69-0.81,1.13
		c-0.22,0.44-0.39,0.91-0.51,1.42c1.69,0.02,2.95-0.17,3.78-0.58C536.46,89.47,536.87,88.88,536.87,88.11z"/>
	<path class="st8" d="M553.02,88.44H553c-0.2-0.1-0.45-0.2-0.75-0.28c-0.31-0.08-0.59-0.13-0.85-0.13c-0.55,0-1.05,0.12-1.49,0.37
		s-0.83,0.58-1.17,1.01c-0.34,0.42-0.62,0.92-0.85,1.49c-0.23,0.57-0.42,1.17-0.56,1.81l-1.27,6.06h-4.51l1.97-9.2
		c0.09-0.44,0.19-0.9,0.28-1.37c0.09-0.47,0.17-0.93,0.25-1.39s0.15-0.9,0.21-1.32c0.06-0.42,0.11-0.81,0.15-1.16h4.41
		c-0.03,0.27-0.06,0.55-0.09,0.85c-0.03,0.29-0.07,0.57-0.1,0.84c-0.03,0.27-0.07,0.51-0.1,0.73c-0.03,0.22-0.06,0.39-0.08,0.51
		h0.06c0.58-1.08,1.2-1.9,1.84-2.45c0.64-0.55,1.39-0.82,2.23-0.82c0.24,0,0.48,0.02,0.72,0.07c0.23,0.05,0.45,0.08,0.63,0.11
		L553.02,88.44z"/>
</g>
</svg>
