<?xml version="1.0" encoding="us-ascii" standalone="no"?><svg xmlns="http://www.w3.org/2000/svg" xmlns:xlink="http://www.w3.org/1999/xlink" contentStyleType="text/css" height="748px" preserveAspectRatio="none" style="width:1419px;height:748px;background:#FFFFFF;" version="1.1" viewBox="0 0 1419 748" width="1419px" zoomAndPan="magnify"><defs/><g><!--cluster cloud--><g id="cluster_cloud"><rect fill="none" height="262" rx="2.5" ry="2.5" style="stroke:#181818;stroke-width:1.0;" width="260" x="575" y="480"/><text fill="#000000" font-family="sans-serif" font-size="14" font-weight="bold" lengthAdjust="spacing" textLength="39" x="685.5" y="497.1074">cloud</text></g><!--cluster location_a--><g id="cluster_location_a"><rect fill="none" height="583" rx="2.5" ry="2.5" style="stroke:#181818;stroke-width:1.0;" width="544" x="7" y="7"/><text fill="#000000" font-family="sans-serif" font-size="14" font-weight="bold" lengthAdjust="spacing" textLength="72" x="243" y="24.1074">location_a</text></g><!--cluster location_b--><g id="cluster_location_b"><rect fill="none" height="583" rx="2.5" ry="2.5" style="stroke:#181818;stroke-width:1.0;" width="543" x="859" y="7"/><text fill="#000000" font-family="sans-serif" font-size="14" font-weight="bold" lengthAdjust="spacing" textLength="73" x="1094" y="24.1074">location_b</text></g><!--entity cloud_service--><g id="elem_cloud_service"><rect fill="#F1F1F1" height="57.2422" rx="2.5" ry="2.5" style="stroke:#181818;stroke-width:0.5;" width="222" x="594" y="517"/><text fill="#000000" font-family="sans-serif" font-size="14" font-style="italic" lengthAdjust="spacing" textLength="202" x="604" y="542.1074">&#171;example.nodes.Cloud.Service&#187;</text><text fill="#000000" font-family="sans-serif" font-size="14" lengthAdjust="spacing" textLength="87" x="661.5" y="560.7285">cloud_service</text></g><!--entity cloud_provider--><g id="elem_cloud_provider"><rect fill="#F1F1F1" height="57.2422" rx="2.5" ry="2.5" style="stroke:#181818;stroke-width:0.5;" width="228" x="591" y="669"/><text fill="#000000" font-family="sans-serif" font-size="14" font-style="italic" lengthAdjust="spacing" textLength="208" x="601" y="694.1074">&#171;example.nodes.Cloud.Provider&#187;</text><text fill="#000000" font-family="sans-serif" font-size="14" lengthAdjust="spacing" textLength="94" x="658" y="712.7285">cloud_provider</text></g><!--entity a_ecu_software--><g id="elem_a_ecu_software"><rect fill="#F1F1F1" height="57.2422" rx="2.5" ry="2.5" style="stroke:#181818;stroke-width:0.5;" width="223" x="127.5" y="44"/><text fill="#000000" font-family="sans-serif" font-size="14" font-style="italic" lengthAdjust="spacing" textLength="203" x="137.5" y="69.1074">&#171;example.nodes.ECU.Software&#187;</text><text fill="#000000" font-family="sans-serif" font-size="14" lengthAdjust="spacing" textLength="100" x="189" y="87.7285">a_ecu_software</text></g><!--entity a_ecu_runtime--><g id="elem_a_ecu_runtime"><rect fill="#F1F1F1" height="57.2422" rx="2.5" ry="2.5" style="stroke:#181818;stroke-width:0.5;" width="220" x="31" y="194"/><text fill="#000000" font-family="sans-serif" font-size="14" font-style="italic" lengthAdjust="spacing" textLength="200" x="41" y="219.1074">&#171;example.nodes.ECU.Runtime&#187;</text><text fill="#000000" font-family="sans-serif" font-size="14" lengthAdjust="spacing" textLength="94" x="94" y="237.7285">a_ecu_runtime</text></g><!--entity a_ecu_hardware--><g id="elem_a_ecu_hardware"><rect fill="#F1F1F1" height="57.2422" rx="2.5" ry="2.5" style="stroke:#181818;stroke-width:0.5;" width="229" x="23.5" y="344"/><text fill="#000000" font-family="sans-serif" font-size="14" font-style="italic" lengthAdjust="spacing" textLength="209" x="33.5" y="369.1074">&#171;example.nodes.ECU.Hardware&#187;</text><text fill="#000000" font-family="sans-serif" font-size="14" lengthAdjust="spacing" textLength="106" x="85" y="387.7285">a_ecu_hardware</text></g><!--entity a_can_bus--><g id="elem_a_can_bus"><rect fill="#F1F1F1" height="57.2422" rx="2.5" ry="2.5" style="stroke:#181818;stroke-width:0.5;" width="159" x="209.5" y="517"/><text fill="#000000" font-family="sans-serif" font-size="14" font-style="italic" lengthAdjust="spacing" textLength="139" x="219.5" y="542.1074">&#171;sofdcar.nodes.CAN&#187;</text><text fill="#000000" font-family="sans-serif" font-size="14" lengthAdjust="spacing" textLength="70" x="254" y="560.7285">a_can_bus</text></g><!--entity a_can_bridge--><g id="elem_a_can_bridge"><rect fill="#F1F1F1" height="57.2422" rx="2.5" ry="2.5" style="stroke:#181818;stroke-width:0.5;" width="209" x="325.5" y="344"/><text fill="#000000" font-family="sans-serif" font-size="14" font-style="italic" lengthAdjust="spacing" textLength="189" x="335.5" y="369.1074">&#171;example.nodes.CAN.Bridge&#187;</text><text fill="#000000" font-family="sans-serif" font-size="14" lengthAdjust="spacing" textLength="87" x="386.5" y="387.7285">a_can_bridge</text></g><!--entity b_ecu_software--><g id="elem_b_ecu_software"><rect fill="#F1F1F1" height="57.2422" rx="2.5" ry="2.5" style="stroke:#181818;stroke-width:0.5;" width="223" x="1123.5" y="44"/><text fill="#000000" font-family="sans-serif" font-size="14" font-style="italic" lengthAdjust="spacing" textLength="203" x="1133.5" y="69.1074">&#171;example.nodes.ECU.Software&#187;</text><text fill="#000000" font-family="sans-serif" font-size="14" lengthAdjust="spacing" textLength="100" x="1185" y="87.7285">b_ecu_software</text></g><!--entity b_ecu_runtime--><g id="elem_b_ecu_runtime"><rect fill="#F1F1F1" height="57.2422" rx="2.5" ry="2.5" style="stroke:#181818;stroke-width:0.5;" width="220" x="1085" y="194"/><text fill="#000000" font-family="sans-serif" font-size="14" font-style="italic" lengthAdjust="spacing" textLength="200" x="1095" y="219.1074">&#171;example.nodes.ECU.Runtime&#187;</text><text fill="#000000" font-family="sans-serif" font-size="14" lengthAdjust="spacing" textLength="94" x="1148" y="237.7285">b_ecu_runtime</text></g><!--entity b_ecu_hardware--><g id="elem_b_ecu_hardware"><rect fill="#F1F1F1" height="57.2422" rx="2.5" ry="2.5" style="stroke:#181818;stroke-width:0.5;" width="229" x="1119.5" y="344"/><text fill="#000000" font-family="sans-serif" font-size="14" font-style="italic" lengthAdjust="spacing" textLength="209" x="1129.5" y="369.1074">&#171;example.nodes.ECU.Hardware&#187;</text><text fill="#000000" font-family="sans-serif" font-size="14" lengthAdjust="spacing" textLength="106" x="1181" y="387.7285">b_ecu_hardware</text></g><!--entity b_can_bus--><g id="elem_b_can_bus"><rect fill="#F1F1F1" height="57.2422" rx="2.5" ry="2.5" style="stroke:#181818;stroke-width:0.5;" width="159" x="1154.5" y="517"/><text fill="#000000" font-family="sans-serif" font-size="14" font-style="italic" lengthAdjust="spacing" textLength="139" x="1164.5" y="542.1074">&#171;sofdcar.nodes.CAN&#187;</text><text fill="#000000" font-family="sans-serif" font-size="14" lengthAdjust="spacing" textLength="70" x="1199" y="560.7285">b_can_bus</text></g><!--entity b_can_bridge--><g id="elem_b_can_bridge"><rect fill="#F1F1F1" height="57.2422" rx="2.5" ry="2.5" style="stroke:#181818;stroke-width:0.5;" width="209" x="875.5" y="344"/><text fill="#000000" font-family="sans-serif" font-size="14" font-style="italic" lengthAdjust="spacing" textLength="189" x="885.5" y="369.1074">&#171;example.nodes.CAN.Bridge&#187;</text><text fill="#000000" font-family="sans-serif" font-size="14" lengthAdjust="spacing" textLength="87" x="936.5" y="387.7285">b_can_bridge</text></g><!--link cloud_service to cloud_provider--><g id="link_cloud_service_cloud_provider"><path d="M705,574.01 C705,600.99 705,641.9 705,668.91 " fill="none" id="cloud_service-cloud_provider" style="stroke:#181818;stroke-width:1.0;"/><text fill="#000000" font-family="sans-serif" font-size="13" lengthAdjust="spacing" textLength="25" x="721" y="628.0283">host</text><path d="M712.0711,614.3777 A10,10 0 0 0 697.9289 614.3777" fill="none" style="stroke:#181818;stroke-width:1.5;"/><ellipse cx="705" cy="621.4488" fill="#FFFFFF" rx="6" ry="6" style="stroke:#181818;stroke-width:1.5;"/></g><!--link a_ecu_software to a_ecu_runtime--><g id="link_a_ecu_software_a_ecu_runtime"><path d="M220.57,101.34 C203.05,127.8 176.84,167.37 159.35,193.79 " fill="none" id="a_ecu_software-a_ecu_runtime" style="stroke:#181818;stroke-width:1.0;"/><text fill="#000000" font-family="sans-serif" font-size="13" lengthAdjust="spacing" textLength="25" x="215" y="153.0283">host</text><path d="M199.7485,145.5888 A10,10 0 0 0 187.9575 137.7803" fill="none" style="stroke:#181818;stroke-width:1.5;"/><ellipse cx="189.9488" cy="147.58" fill="#FFFFFF" rx="6" ry="6" style="stroke:#181818;stroke-width:1.5;"/></g><!--link a_ecu_runtime to a_ecu_hardware--><g id="link_a_ecu_runtime_a_ecu_hardware"><path d="M140.44,251.34 C139.9,277.8 139.1,317.37 138.56,343.79 " fill="none" id="a_ecu_runtime-a_ecu_hardware" style="stroke:#181818;stroke-width:1.0;"/><text fill="#000000" font-family="sans-serif" font-size="13" lengthAdjust="spacing" textLength="25" x="156" y="303.0283">host</text><path d="M146.7131,290.6539 A10,10 0 0 0 132.5739 290.3669" fill="none" style="stroke:#181818;stroke-width:1.5;"/><ellipse cx="139.5" cy="297.58" fill="#FFFFFF" rx="6" ry="6" style="stroke:#181818;stroke-width:1.5;"/></g><!--link a_can_bridge to a_can_bus--><g id="link_a_can_bridge_a_can_bus"><path d="M407.03,401.35 C380.73,433.25 337.92,485.17 311.72,516.94 " fill="none" id="a_can_bridge-a_can_bus" style="stroke:#181818;stroke-width:1.0;"/><text fill="#000000" font-family="sans-serif" font-size="13" lengthAdjust="spacing" textLength="21" x="397" y="453.0283">can</text><path d="M369.2916,458.2365 A10,10 0 0 0 358.3803 449.2397" fill="none" style="stroke:#181818;stroke-width:1.5;"/><ellipse cx="359.3375" cy="459.1938" fill="#FFFFFF" rx="6" ry="6" style="stroke:#181818;stroke-width:1.5;"/></g><!--link a_can_bridge to cloud_service--><g id="link_a_can_bridge_cloud_service"><path d="M474.49,401.16 C525.72,433.02 609.37,485.04 660.57,516.88 " fill="none" id="a_can_bridge-cloud_service" style="stroke:#181818;stroke-width:1.0;"/><text fill="#000000" font-family="sans-serif" font-size="13" lengthAdjust="spacing" textLength="31" x="584" y="453.0283">cloud</text><path d="M565.2708,449.2887 A10,10 0 0 0 557.8024 461.298" fill="none" style="stroke:#181818;stroke-width:1.5;"/><ellipse cx="567.5413" cy="459.0275" fill="#FFFFFF" rx="6" ry="6" style="stroke:#181818;stroke-width:1.5;"/></g><!--link a_ecu_software to a_can_bus--><g id="link_a_ecu_software_a_can_bus"><path d="M247.77,101.13 C250.6,110.55 253.62,121.19 256,131 C262.72,158.7 264.47,165.72 268,194 C282.89,313.47 287.31,457.22 288.54,516.67 " fill="none" id="a_ecu_software-a_can_bus" style="stroke:#181818;stroke-width:1.0;"/><text fill="#000000" font-family="sans-serif" font-size="13" lengthAdjust="spacing" textLength="21" x="296" y="303.0283">can</text><path d="M290.0756,370.4037 A10,10 0 0 0 275.9537 371.1594" fill="none" style="stroke:#181818;stroke-width:1.5;"/><ellipse cx="283.3925" cy="377.8425" fill="#FFFFFF" rx="6" ry="6" style="stroke:#181818;stroke-width:1.5;"/></g><!--link a_ecu_hardware to a_can_bus--><g id="link_a_ecu_hardware_a_can_bus"><path d="M162.6,401.35 C190.76,433.25 236.61,485.17 264.66,516.94 " fill="none" id="a_ecu_hardware-a_can_bus" style="stroke:#181818;stroke-width:1.0;"/><text fill="#000000" font-family="sans-serif" font-size="13" lengthAdjust="spacing" textLength="21" x="230" y="453.0283">can</text><path d="M214.2914,449.213 A10,10 0 0 0 203.6905 458.5736" fill="none" style="stroke:#181818;stroke-width:1.5;"/><ellipse cx="213.6713" cy="459.1938" fill="#FFFFFF" rx="6" ry="6" style="stroke:#181818;stroke-width:1.5;"/></g><!--link b_ecu_software to b_ecu_runtime--><g id="link_b_ecu_software_b_ecu_runtime"><path d="M1227.48,101.34 C1220.32,127.8 1209.63,167.37 1202.49,193.79 " fill="none" id="b_ecu_software-b_ecu_runtime" style="stroke:#181818;stroke-width:1.0;"/><text fill="#000000" font-family="sans-serif" font-size="13" lengthAdjust="spacing" textLength="25" x="1234" y="153.0283">host</text><path d="M1223.6485,142.5987 A10,10 0 0 0 1209.9962 138.909" fill="none" style="stroke:#181818;stroke-width:1.5;"/><ellipse cx="1214.9775" cy="147.58" fill="#FFFFFF" rx="6" ry="6" style="stroke:#181818;stroke-width:1.5;"/></g><!--link b_ecu_runtime to b_ecu_hardware--><g id="link_b_ecu_runtime_b_ecu_hardware"><path d="M1202.34,251.34 C1209.31,277.8 1219.74,317.37 1226.7,343.79 " fill="none" id="b_ecu_runtime-b_ecu_hardware" style="stroke:#181818;stroke-width:1.0;"/><text fill="#000000" font-family="sans-serif" font-size="13" lengthAdjust="spacing" textLength="25" x="1233" y="303.0283">host</text><path d="M1219.5595,288.9405 A10,10 0 0 0 1205.8843 292.5442" fill="none" style="stroke:#181818;stroke-width:1.5;"/><ellipse cx="1214.5237" cy="297.58" fill="#FFFFFF" rx="6" ry="6" style="stroke:#181818;stroke-width:1.5;"/></g><!--link b_can_bridge to b_can_bus--><g id="link_b_can_bridge_b_can_bus"><path d="M1021.09,401.16 C1068.41,433.02 1145.68,485.04 1192.97,516.88 " fill="none" id="b_can_bridge-b_can_bus" style="stroke:#181818;stroke-width:1.0;"/><text fill="#000000" font-family="sans-serif" font-size="13" lengthAdjust="spacing" textLength="21" x="1123" y="453.0283">can</text><path d="M1105.1247,449.2129 A10,10 0 0 0 1097.2266 460.9441" fill="none" style="stroke:#181818;stroke-width:1.5;"/><ellipse cx="1107.0413" cy="459.0275" fill="#FFFFFF" rx="6" ry="6" style="stroke:#181818;stroke-width:1.5;"/></g><!--link b_can_bridge to cloud_service--><g id="link_b_can_bridge_cloud_service"><path d="M935.51,401.16 C884.28,433.02 800.63,485.04 749.43,516.88 " fill="none" id="b_can_bridge-cloud_service" style="stroke:#181818;stroke-width:1.0;"/><text fill="#000000" font-family="sans-serif" font-size="13" lengthAdjust="spacing" textLength="31" x="899" y="453.0283">cloud</text><path d="M852.1976,461.298 A10,10 0 0 0 844.7292 449.2887" fill="none" style="stroke:#181818;stroke-width:1.5;"/><ellipse cx="842.4588" cy="459.0275" fill="#FFFFFF" rx="6" ry="6" style="stroke:#181818;stroke-width:1.5;"/></g><!--link b_ecu_software to b_can_bus--><g id="link_b_ecu_software_b_can_bus"><path d="M1260.78,101.04 C1310.16,157.28 1409.5,289.46 1366,401 C1347.18,449.25 1303.71,491.08 1271.77,516.94 " fill="none" id="b_ecu_software-b_can_bus" style="stroke:#181818;stroke-width:1.0;"/><text fill="#000000" font-family="sans-serif" font-size="13" lengthAdjust="spacing" textLength="21" x="1390" y="303.0283">can</text><path d="M1351.5858,220.866 A10,10 0 0 0 1338.8035 226.9167" fill="none" style="stroke:#181818;stroke-width:1.5;"/><ellipse cx="1348.22" cy="230.2825" fill="#FFFFFF" rx="6" ry="6" style="stroke:#181818;stroke-width:1.5;"/></g><!--link b_ecu_hardware to b_can_bus--><g id="link_b_ecu_hardware_b_can_bus"><path d="M1234,401.35 C1234,433.25 1234,485.17 1234,516.94 " fill="none" id="b_ecu_hardware-b_can_bus" style="stroke:#181818;stroke-width:1.0;"/><text fill="#000000" font-family="sans-serif" font-size="13" lengthAdjust="spacing" textLength="21" x="1250" y="453.0283">can</text><path d="M1241.0711,452.1227 A10,10 0 0 0 1226.9289 452.1227" fill="none" style="stroke:#181818;stroke-width:1.5;"/><ellipse cx="1234" cy="459.1938" fill="#FFFFFF" rx="6" ry="6" style="stroke:#181818;stroke-width:1.5;"/></g><!--SRC=[dPB1IyCm5CRl_Ij2JrvMFCiOp25u6cBn95BoahW5swGawLJ4_zskQRg69dDTJmtV-_A-lFVJ7rpKME4A4LdLKZ1XSlDTCgGOCLZiIfOamozAIIaRcgAV1BNVQtSgD5C7JjWRMYxP5wxgacL2KgQppL7ESYklLcDFhUI1KwPYfgTUxrrU8xIukLqW_nvqXrA4zbARDFdr4fUIOCEbAF0G6nUCD8MMx-OJgq3kXyrBblUgYsqzgX66Ln7BinLznnuh6k_osAkjfpFvoUn3lSxZTvuCJXpLkxvZWyj5i2YWqST8RIjAi7ApNszFwRignUakjDdrDhlljBv-NEvYz6riWlQGHYhzvThg3hDpCubTxhqzMjiY4cG41aRW2aPWDYDm1ICGc0USOmIcZC0_ZC15ZC0yHc2oUOYi4UOo4fv9xF8f8n1av0y0]--></g></svg>