<?xml version="1.0" encoding="us-ascii" standalone="no"?><svg xmlns="http://www.w3.org/2000/svg" xmlns:xlink="http://www.w3.org/1999/xlink" contentStyleType="text/css" height="863px" preserveAspectRatio="none" style="width:1123px;height:863px;background:#FFFFFF;" version="1.1" viewBox="0 0 1123 863" width="1123px" zoomAndPan="magnify"><defs/><g><!--cluster cloud--><g id="cluster_cloud"><rect fill="none" height="244" rx="2.5" ry="2.5" style="stroke:#181818;stroke-width:1.0;" width="260" x="107" y="613"/><text fill="#000000" font-family="sans-serif" font-size="14" font-weight="bold" lengthAdjust="spacing" textLength="39" x="217.5" y="627.6738">cloud</text></g><!--cluster location_a--><g id="cluster_location_a"><rect fill="none" height="544" rx="2.5" ry="2.5" style="stroke:#181818;stroke-width:1.0;" width="543" x="7" y="7"/><text fill="#000000" font-family="sans-serif" font-size="14" font-weight="bold" lengthAdjust="spacing" textLength="72" x="242.5" y="21.6738">location_a</text></g><!--cluster location_b--><g id="cluster_location_b"><rect fill="none" height="546" rx="2.5" ry="2.5" style="stroke:#181818;stroke-width:1.0;" width="543" x="574" y="168"/><text fill="#000000" font-family="sans-serif" font-size="14" font-weight="bold" lengthAdjust="spacing" textLength="73" x="809" y="182.6738">location_b</text></g><!--entity cloud_service--><g id="elem_cloud_service"><rect fill="#F1F1F1" height="51.2813" rx="2.5" ry="2.5" style="stroke:#181818;stroke-width:0.5;" width="222" x="126" y="647"/><text fill="#000000" font-family="sans-serif" font-size="14" font-style="italic" lengthAdjust="spacing" textLength="202" x="136" y="669.6738">&#171;example.nodes.Cloud.Service&#187;</text><text fill="#000000" font-family="sans-serif" font-size="14" lengthAdjust="spacing" textLength="87" x="193.5" y="685.3145">cloud_service</text></g><!--entity cloud_provider--><g id="elem_cloud_provider"><rect fill="#F1F1F1" height="51.2813" rx="2.5" ry="2.5" style="stroke:#181818;stroke-width:0.5;" width="228" x="123" y="790"/><text fill="#000000" font-family="sans-serif" font-size="14" font-style="italic" lengthAdjust="spacing" textLength="208" x="133" y="812.6738">&#171;example.nodes.Cloud.Provider&#187;</text><text fill="#000000" font-family="sans-serif" font-size="14" lengthAdjust="spacing" textLength="94" x="190" y="828.3145">cloud_provider</text></g><!--entity a_ecu_software--><g id="elem_a_ecu_software"><rect fill="#F1F1F1" height="51.2813" rx="2.5" ry="2.5" style="stroke:#181818;stroke-width:0.5;" width="223" x="310.5" y="41"/><text fill="#000000" font-family="sans-serif" font-size="14" font-style="italic" lengthAdjust="spacing" textLength="203" x="320.5" y="63.6738">&#171;example.nodes.ECU.Software&#187;</text><text fill="#000000" font-family="sans-serif" font-size="14" lengthAdjust="spacing" textLength="100" x="372" y="79.3145">a_ecu_software</text></g><!--entity a_ecu_runtime--><g id="elem_a_ecu_runtime"><rect fill="#F1F1F1" height="51.2813" rx="2.5" ry="2.5" style="stroke:#181818;stroke-width:0.5;" width="220" x="233" y="202"/><text fill="#000000" font-family="sans-serif" font-size="14" font-style="italic" lengthAdjust="spacing" textLength="200" x="243" y="224.6738">&#171;example.nodes.ECU.Runtime&#187;</text><text fill="#000000" font-family="sans-serif" font-size="14" lengthAdjust="spacing" textLength="94" x="296" y="240.3145">a_ecu_runtime</text></g><!--entity a_ecu_hardware--><g id="elem_a_ecu_hardware"><rect fill="#F1F1F1" height="51.2813" rx="2.5" ry="2.5" style="stroke:#181818;stroke-width:0.5;" width="229" x="267.5" y="343"/><text fill="#000000" font-family="sans-serif" font-size="14" font-style="italic" lengthAdjust="spacing" textLength="209" x="277.5" y="365.6738">&#171;example.nodes.ECU.Hardware&#187;</text><text fill="#000000" font-family="sans-serif" font-size="14" lengthAdjust="spacing" textLength="106" x="329" y="381.3145">a_ecu_hardware</text></g><!--entity a_can_bus--><g id="elem_a_can_bus"><rect fill="#F1F1F1" height="51.2813" rx="2.5" ry="2.5" style="stroke:#181818;stroke-width:0.5;" width="159" x="302.5" y="484"/><text fill="#000000" font-family="sans-serif" font-size="14" font-style="italic" lengthAdjust="spacing" textLength="139" x="312.5" y="506.6738">&#171;sofdcar.nodes.CAN&#187;</text><text fill="#000000" font-family="sans-serif" font-size="14" lengthAdjust="spacing" textLength="70" x="347" y="522.3145">a_can_bus</text></g><!--entity a_can_bridge--><g id="elem_a_can_bridge"><rect fill="#F1F1F1" height="51.2813" rx="2.5" ry="2.5" style="stroke:#181818;stroke-width:0.5;" width="209" x="23.5" y="343"/><text fill="#000000" font-family="sans-serif" font-size="14" font-style="italic" lengthAdjust="spacing" textLength="189" x="33.5" y="365.6738">&#171;example.nodes.CAN.Bridge&#187;</text><text fill="#000000" font-family="sans-serif" font-size="14" lengthAdjust="spacing" textLength="87" x="84.5" y="381.3145">a_can_bridge</text></g><!--entity b_ecu_software--><g id="elem_b_ecu_software"><rect fill="#F1F1F1" height="51.2813" rx="2.5" ry="2.5" style="stroke:#181818;stroke-width:0.5;" width="223" x="798.5" y="202"/><text fill="#000000" font-family="sans-serif" font-size="14" font-style="italic" lengthAdjust="spacing" textLength="203" x="808.5" y="224.6738">&#171;example.nodes.ECU.Software&#187;</text><text fill="#000000" font-family="sans-serif" font-size="14" lengthAdjust="spacing" textLength="100" x="860" y="240.3145">b_ecu_software</text></g><!--entity b_ecu_runtime--><g id="elem_b_ecu_runtime"><rect fill="#F1F1F1" height="51.2813" rx="2.5" ry="2.5" style="stroke:#181818;stroke-width:0.5;" width="220" x="800" y="343"/><text fill="#000000" font-family="sans-serif" font-size="14" font-style="italic" lengthAdjust="spacing" textLength="200" x="810" y="365.6738">&#171;example.nodes.ECU.Runtime&#187;</text><text fill="#000000" font-family="sans-serif" font-size="14" lengthAdjust="spacing" textLength="94" x="863" y="381.3145">b_ecu_runtime</text></g><!--entity b_ecu_hardware--><g id="elem_b_ecu_hardware"><rect fill="#F1F1F1" height="51.2813" rx="2.5" ry="2.5" style="stroke:#181818;stroke-width:0.5;" width="229" x="834.5" y="484"/><text fill="#000000" font-family="sans-serif" font-size="14" font-style="italic" lengthAdjust="spacing" textLength="209" x="844.5" y="506.6738">&#171;example.nodes.ECU.Hardware&#187;</text><text fill="#000000" font-family="sans-serif" font-size="14" lengthAdjust="spacing" textLength="106" x="896" y="522.3145">b_ecu_hardware</text></g><!--entity b_can_bus--><g id="elem_b_can_bus"><rect fill="#F1F1F1" height="51.2813" rx="2.5" ry="2.5" style="stroke:#181818;stroke-width:0.5;" width="159" x="869.5" y="647"/><text fill="#000000" font-family="sans-serif" font-size="14" font-style="italic" lengthAdjust="spacing" textLength="139" x="879.5" y="669.6738">&#171;sofdcar.nodes.CAN&#187;</text><text fill="#000000" font-family="sans-serif" font-size="14" lengthAdjust="spacing" textLength="70" x="914" y="685.3145">b_can_bus</text></g><!--entity b_can_bridge--><g id="elem_b_can_bridge"><rect fill="#F1F1F1" height="51.2813" rx="2.5" ry="2.5" style="stroke:#181818;stroke-width:0.5;" width="209" x="590.5" y="484"/><text fill="#000000" font-family="sans-serif" font-size="14" font-style="italic" lengthAdjust="spacing" textLength="189" x="600.5" y="506.6738">&#171;example.nodes.CAN.Bridge&#187;</text><text fill="#000000" font-family="sans-serif" font-size="14" lengthAdjust="spacing" textLength="87" x="651.5" y="522.3145">b_can_bridge</text></g><!--link cloud_service to cloud_provider--><g id="link_cloud_service_cloud_provider"><path d="M237,698.06 C237,723.78 237,763.95 237,789.75 " fill="none" id="cloud_service-cloud_provider" style="stroke:#181818;stroke-width:1.0;"/><text fill="#000000" font-family="sans-serif" font-size="13" lengthAdjust="spacing" textLength="25" x="253" y="749.7686">host</text><path d="M244.0711,736.8039 A10,10 0 0 0 229.9289 736.8039" fill="none" style="stroke:#181818;stroke-width:1.5;"/><ellipse cx="237" cy="743.875" fill="#FFFFFF" rx="6" ry="6" style="stroke:#181818;stroke-width:1.5;"/></g><!--link a_ecu_software to a_ecu_runtime--><g id="link_a_ecu_software_a_ecu_runtime"><path d="M409.66,92.34 C394.81,122.21 370.06,172.04 355.26,201.83 " fill="none" id="a_ecu_software-a_ecu_runtime" style="stroke:#181818;stroke-width:1.0;"/><text fill="#000000" font-family="sans-serif" font-size="13" lengthAdjust="spacing" textLength="25" x="410" y="141.7686">host</text><path d="M391.9199,143.9284 A10,10 0 0 0 379.2547 137.6363" fill="none" style="stroke:#181818;stroke-width:1.5;"/><ellipse cx="382.4413" cy="147.115" fill="#FFFFFF" rx="6" ry="6" style="stroke:#181818;stroke-width:1.5;"/></g><!--link a_ecu_runtime to a_ecu_hardware--><g id="link_a_ecu_runtime_a_ecu_hardware"><path d="M349.88,253.03 C356.97,278.28 367.95,317.41 375.05,342.75 " fill="none" id="a_ecu_runtime-a_ecu_hardware" style="stroke:#181818;stroke-width:1.0;"/><text fill="#000000" font-family="sans-serif" font-size="13" lengthAdjust="spacing" textLength="25" x="381" y="302.7686">host</text><path d="M367.3593,289.138 A10,10 0 0 0 353.743 292.9582" fill="none" style="stroke:#181818;stroke-width:1.5;"/><ellipse cx="362.4613" cy="297.8563" fill="#FFFFFF" rx="6" ry="6" style="stroke:#181818;stroke-width:1.5;"/></g><!--link a_can_bridge to a_can_bus--><g id="link_a_can_bridge_a_can_bus"><path d="M172.83,394.03 C219.11,419.36 290.92,458.66 337.2,483.98 " fill="none" id="a_can_bridge-a_can_bus" style="stroke:#181818;stroke-width:1.0;"/><text fill="#000000" font-family="sans-serif" font-size="13" lengthAdjust="spacing" textLength="21" x="293" y="443.7686">can</text><path d="M252.2066,429.4112 A10,10 0 0 0 245.4174 441.8171" fill="none" style="stroke:#181818;stroke-width:1.5;"/><ellipse cx="255.015" cy="439.0087" fill="#FFFFFF" rx="6" ry="6" style="stroke:#181818;stroke-width:1.5;"/></g><!--link a_can_bridge to cloud_service--><g id="link_a_can_bridge_cloud_service"><path d="M136.92,394.21 C157.41,450.99 207.65,590.18 228.11,646.87 " fill="none" id="a_can_bridge-cloud_service" style="stroke:#181818;stroke-width:1.0;"/><text fill="#000000" font-family="sans-serif" font-size="13" lengthAdjust="spacing" textLength="31" x="211" y="514.2686">cloud</text><path d="M186.7768,511.5221 A10,10 0 0 0 173.4746 516.3232" fill="none" style="stroke:#181818;stroke-width:1.5;"/><ellipse cx="182.5263" cy="520.5738" fill="#FFFFFF" rx="6" ry="6" style="stroke:#181818;stroke-width:1.5;"/></g><!--link a_ecu_software to a_can_bus--><g id="link_a_ecu_software_a_can_bus"><path d="M440.3,92.15 C479.24,147.84 562.9,286.85 514,394 C496.11,433.19 457.46,464.13 426.58,483.92 " fill="none" id="a_ecu_software-a_can_bus" style="stroke:#181818;stroke-width:1.0;"/><text fill="#000000" font-family="sans-serif" font-size="13" lengthAdjust="spacing" textLength="21" x="544" y="302.7686">can</text><path d="M514.3725,214.7409 A10,10 0 0 0 501.0534 219.495" fill="none" style="stroke:#181818;stroke-width:1.5;"/><ellipse cx="510.09" cy="223.7775" fill="#FFFFFF" rx="6" ry="6" style="stroke:#181818;stroke-width:1.5;"/></g><!--link a_ecu_hardware to a_can_bus--><g id="link_a_ecu_hardware_a_can_bus"><path d="M382,394.03 C382,419.28 382,458.41 382,483.75 " fill="none" id="a_ecu_hardware-a_can_bus" style="stroke:#181818;stroke-width:1.0;"/><text fill="#000000" font-family="sans-serif" font-size="13" lengthAdjust="spacing" textLength="21" x="398" y="443.7686">can</text><path d="M389.0711,431.7852 A10,10 0 0 0 374.9289 431.7852" fill="none" style="stroke:#181818;stroke-width:1.5;"/><ellipse cx="382" cy="438.8563" fill="#FFFFFF" rx="6" ry="6" style="stroke:#181818;stroke-width:1.5;"/></g><!--link b_ecu_software to b_ecu_runtime--><g id="link_b_ecu_software_b_ecu_runtime"><path d="M910,253.03 C910,278.28 910,317.41 910,342.75 " fill="none" id="b_ecu_software-b_ecu_runtime" style="stroke:#181818;stroke-width:1.0;"/><text fill="#000000" font-family="sans-serif" font-size="13" lengthAdjust="spacing" textLength="25" x="926" y="302.7686">host</text><path d="M917.0711,290.7852 A10,10 0 0 0 902.9289 290.7852" fill="none" style="stroke:#181818;stroke-width:1.5;"/><ellipse cx="910" cy="297.8563" fill="#FFFFFF" rx="6" ry="6" style="stroke:#181818;stroke-width:1.5;"/></g><!--link b_ecu_runtime to b_ecu_hardware--><g id="link_b_ecu_runtime_b_ecu_hardware"><path d="M916.88,394.03 C923.97,419.28 934.95,458.41 942.05,483.75 " fill="none" id="b_ecu_runtime-b_ecu_hardware" style="stroke:#181818;stroke-width:1.0;"/><text fill="#000000" font-family="sans-serif" font-size="13" lengthAdjust="spacing" textLength="25" x="948" y="443.7686">host</text><path d="M934.3593,430.138 A10,10 0 0 0 920.743 433.9582" fill="none" style="stroke:#181818;stroke-width:1.5;"/><ellipse cx="929.4613" cy="438.8563" fill="#FFFFFF" rx="6" ry="6" style="stroke:#181818;stroke-width:1.5;"/></g><!--link b_can_bridge to b_can_bus--><g id="link_b_can_bridge_b_can_bus"><path d="M733.85,535.13 C781.66,565.43 862.35,616.57 910.15,646.88 " fill="none" id="b_can_bridge-b_can_bus" style="stroke:#181818;stroke-width:1.0;"/><text fill="#000000" font-family="sans-serif" font-size="13" lengthAdjust="spacing" textLength="21" x="845" y="586.7686">can</text><path d="M819.8169,581.2433 A10,10 0 0 0 812.2458 593.1881" fill="none" style="stroke:#181818;stroke-width:1.5;"/><ellipse cx="822.0038" cy="591.0013" fill="#FFFFFF" rx="6" ry="6" style="stroke:#181818;stroke-width:1.5;"/></g><!--link b_can_bridge to cloud_service--><g id="link_b_can_bridge_cloud_service"><path d="M624.94,535.13 C538.74,565.43 393.25,616.57 307.05,646.88 " fill="none" id="b_can_bridge-cloud_service" style="stroke:#181818;stroke-width:1.0;"/><text fill="#000000" font-family="sans-serif" font-size="13" lengthAdjust="spacing" textLength="31" x="549" y="586.7686">cloud</text><path d="M475.0109,595.3272 A10,10 0 0 0 470.3209 581.9853" fill="none" style="stroke:#181818;stroke-width:1.5;"/><ellipse cx="465.995" cy="591.0013" fill="#FFFFFF" rx="6" ry="6" style="stroke:#181818;stroke-width:1.5;"/></g><!--link b_ecu_software to b_can_bus--><g id="link_b_ecu_software_b_can_bus"><path d="M947.02,253.01 C975.7,273.79 1014.4,306.06 1038,343 C1073.27,398.21 1071.34,419.2 1081,484 C1085.92,516.97 1094.97,528.74 1081,559 C1063.27,597.41 1025.24,627.55 994.53,646.92 " fill="none" id="b_ecu_software-b_can_bus" style="stroke:#181818;stroke-width:1.0;"/><text fill="#000000" font-family="sans-serif" font-size="13" lengthAdjust="spacing" textLength="21" x="1092" y="443.7686">can</text><path d="M1074.2202,401.3118 A10,10 0 0 0 1060.5118 404.7873" fill="none" style="stroke:#181818;stroke-width:1.5;"/><ellipse cx="1069.1037" cy="409.9038" fill="#FFFFFF" rx="6" ry="6" style="stroke:#181818;stroke-width:1.5;"/></g><!--link b_ecu_hardware to b_can_bus--><g id="link_b_ecu_hardware_b_can_bus"><path d="M949,535.3 C949,565.65 949,616.7 949,646.93 " fill="none" id="b_ecu_hardware-b_can_bus" style="stroke:#181818;stroke-width:1.0;"/><text fill="#000000" font-family="sans-serif" font-size="13" lengthAdjust="spacing" textLength="21" x="965" y="586.7686">can</text><path d="M956.0711,584.0889 A10,10 0 0 0 941.9289 584.0889" fill="none" style="stroke:#181818;stroke-width:1.5;"/><ellipse cx="949" cy="591.16" fill="#FFFFFF" rx="6" ry="6" style="stroke:#181818;stroke-width:1.5;"/></g><!--link a_ecu_software to b_ecu_software--><g id="link_a_ecu_software_b_ecu_software"><path d="M497.45,92.08 C589.08,121.94 742.73,172 834.42,201.87 " fill="none" id="a_ecu_software-b_ecu_software" style="stroke:#181818;stroke-width:1.0;"/><text fill="#000000" font-family="sans-serif" font-size="13" lengthAdjust="spacing" textLength="46" x="696" y="141.7686">connect</text><path d="M661.3798,138.0575 A10,10 0 0 0 656.9988 151.504" fill="none" style="stroke:#181818;stroke-width:1.5;"/><ellipse cx="665.9125" cy="146.9713" fill="#FFFFFF" rx="6" ry="6" style="stroke:#181818;stroke-width:1.5;"/></g><!--SRC=[dPB1JuCm5CRl_1KldBoCU3RBahcOU5gCn9CnfA-j6n5QKihK6FztEreO3NIESGBUz_LzVUzNV-IY8egKG6LPIS65JlLtmK5ngedO5JoA-bU8QI4R5iDF1EPvRR-ocgj3JlaRB9VyYvHLmHCX6Q-JpR6SfBQyMWqzbPA7d74LCZsvkdDvZM1nSxi0_nouWnXWBsiTHxzUua9IedCfCjB79XcdJLRBT_r9r4JkXyrBahfg5zjwL2DqNWOipxReE_P4iN2NHrSrdjRa9xCNzJeFxtaoTCM1lkixD7IvA14PDlKnacd5A57TxDVRK_fMfNAsczhiUflSjpMd7ygx6AwDJM0-ue3INwvLjvYTcqdeSE_kGQr1P98Hx1d1AnZ1sOpW5OpWn3pm72CuPWJ_OGGlOWJdCOAZpMDWZJYNaUcPX0uVCuBJZ93WgFj_LY-5C3IPC7y0]--></g></svg>