<?xml version="1.0" encoding="UTF-8" standalone="no"?><svg xmlns="http://www.w3.org/2000/svg" xmlns:xlink="http://www.w3.org/1999/xlink" contentStyleType="text/css" height="903px" preserveAspectRatio="none" style="width:1123px;height:903px;background:#FFFFFF;" version="1.1" viewBox="0 0 1123 903" width="1123px" zoomAndPan="magnify"><defs/><g><!--MD5=[bfeb4e40a9e05244ea0843bb1cef058f]
cluster cloud--><g id="cluster_cloud"><rect fill="none" height="256" rx="2.5" ry="2.5" style="stroke:#181818;stroke-width:1.0;" width="260" x="109" y="641"/><text fill="#000000" font-family="sans-serif" font-size="14" font-weight="bold" lengthAdjust="spacing" textLength="39" x="219.5" y="657.5332">cloud</text></g><!--MD5=[38be5ff8643f1210b08d938b6a1ef837]
cluster location_a--><g id="cluster_location_a"><rect fill="none" height="570" rx="2.5" ry="2.5" style="stroke:#181818;stroke-width:1.0;" width="543" x="7" y="7"/><text fill="#000000" font-family="sans-serif" font-size="14" font-weight="bold" lengthAdjust="spacing" textLength="72" x="242.5" y="23.5332">location_a</text></g><!--MD5=[9ae8169f074397ead1ff70f107c60743]
cluster location_b--><g id="cluster_location_b"><rect fill="none" height="572" rx="2.5" ry="2.5" style="stroke:#181818;stroke-width:1.0;" width="543" x="574" y="176"/><text fill="#000000" font-family="sans-serif" font-size="14" font-weight="bold" lengthAdjust="spacing" textLength="73" x="809" y="192.5332">location_b</text></g><!--MD5=[062a307f1a3b9ecbc83b6bfc64fbd6d7]
entity cloud_service--><g id="elem_cloud_service"><rect fill="#F1F1F1" height="55.2188" rx="2.5" ry="2.5" style="stroke:#181818;stroke-width:0.5;" width="222" x="128" y="677"/><text fill="#000000" font-family="sans-serif" font-size="14" font-style="italic" lengthAdjust="spacing" textLength="202" x="138" y="701.5332">«example.nodes.Cloud.Service»</text><text fill="#000000" font-family="sans-serif" font-size="14" lengthAdjust="spacing" textLength="87" x="195.5" y="719.1426">cloud_service</text></g><!--MD5=[da2096ad6c531b186fcd59aa307489d4]
entity cloud_provider--><g id="elem_cloud_provider"><rect fill="#F1F1F1" height="55.2188" rx="2.5" ry="2.5" style="stroke:#181818;stroke-width:0.5;" width="228" x="125" y="826"/><text fill="#000000" font-family="sans-serif" font-size="14" font-style="italic" lengthAdjust="spacing" textLength="208" x="135" y="850.5332">«example.nodes.Cloud.Provider»</text><text fill="#000000" font-family="sans-serif" font-size="14" lengthAdjust="spacing" textLength="94" x="192" y="868.1426">cloud_provider</text></g><!--MD5=[7b64fa87b7971912a990563af7422b44]
entity a_ecu_software--><g id="elem_a_ecu_software"><rect fill="#F1F1F1" height="55.2188" rx="2.5" ry="2.5" style="stroke:#181818;stroke-width:0.5;" width="223" x="310.5" y="43"/><text fill="#000000" font-family="sans-serif" font-size="14" font-style="italic" lengthAdjust="spacing" textLength="203" x="320.5" y="67.5332">«example.nodes.ECU.Software»</text><text fill="#000000" font-family="sans-serif" font-size="14" lengthAdjust="spacing" textLength="100" x="372" y="85.1426">a_ecu_software</text></g><!--MD5=[5ec46660c4f10129233af9e2cc0a952b]
entity a_ecu_runtime--><g id="elem_a_ecu_runtime"><rect fill="#F1F1F1" height="55.2188" rx="2.5" ry="2.5" style="stroke:#181818;stroke-width:0.5;" width="220" x="241" y="212"/><text fill="#000000" font-family="sans-serif" font-size="14" font-style="italic" lengthAdjust="spacing" textLength="200" x="251" y="236.5332">«example.nodes.ECU.Runtime»</text><text fill="#000000" font-family="sans-serif" font-size="14" lengthAdjust="spacing" textLength="94" x="304" y="254.1426">a_ecu_runtime</text></g><!--MD5=[4a5ff491612170d3487b026b559cd4c3]
entity a_ecu_hardware--><g id="elem_a_ecu_hardware"><rect fill="#F1F1F1" height="55.2188" rx="2.5" ry="2.5" style="stroke:#181818;stroke-width:0.5;" width="229" x="267.5" y="359"/><text fill="#000000" font-family="sans-serif" font-size="14" font-style="italic" lengthAdjust="spacing" textLength="209" x="277.5" y="383.5332">«example.nodes.ECU.Hardware»</text><text fill="#000000" font-family="sans-serif" font-size="14" lengthAdjust="spacing" textLength="106" x="329" y="401.1426">a_ecu_hardware</text></g><!--MD5=[42805b9e10c9f36bca0e0dd934e37126]
entity a_can_bus--><g id="elem_a_can_bus"><rect fill="#F1F1F1" height="55.2188" rx="2.5" ry="2.5" style="stroke:#181818;stroke-width:0.5;" width="159" x="302.5" y="506"/><text fill="#000000" font-family="sans-serif" font-size="14" font-style="italic" lengthAdjust="spacing" textLength="139" x="312.5" y="530.5332">«sofdcar.nodes.CAN»</text><text fill="#000000" font-family="sans-serif" font-size="14" lengthAdjust="spacing" textLength="70" x="347" y="548.1426">a_can_bus</text></g><!--MD5=[21903da3572777de7842f5a1dee30ff1]
entity a_can_bridge--><g id="elem_a_can_bridge"><rect fill="#F1F1F1" height="55.2188" rx="2.5" ry="2.5" style="stroke:#181818;stroke-width:0.5;" width="209" x="23.5" y="359"/><text fill="#000000" font-family="sans-serif" font-size="14" font-style="italic" lengthAdjust="spacing" textLength="189" x="33.5" y="383.5332">«example.nodes.CAN.Bridge»</text><text fill="#000000" font-family="sans-serif" font-size="14" lengthAdjust="spacing" textLength="87" x="84.5" y="401.1426">a_can_bridge</text></g><!--MD5=[7ab9b935d8592aae61a9d26b9891a8a4]
entity b_ecu_software--><g id="elem_b_ecu_software"><rect fill="#F1F1F1" height="55.2188" rx="2.5" ry="2.5" style="stroke:#181818;stroke-width:0.5;" width="223" x="806.5" y="212"/><text fill="#000000" font-family="sans-serif" font-size="14" font-style="italic" lengthAdjust="spacing" textLength="203" x="816.5" y="236.5332">«example.nodes.ECU.Software»</text><text fill="#000000" font-family="sans-serif" font-size="14" lengthAdjust="spacing" textLength="100" x="868" y="254.1426">b_ecu_software</text></g><!--MD5=[1d95661d0279b511cda3ced12470cc61]
entity b_ecu_runtime--><g id="elem_b_ecu_runtime"><rect fill="#F1F1F1" height="55.2188" rx="2.5" ry="2.5" style="stroke:#181818;stroke-width:0.5;" width="220" x="808" y="359"/><text fill="#000000" font-family="sans-serif" font-size="14" font-style="italic" lengthAdjust="spacing" textLength="200" x="818" y="383.5332">«example.nodes.ECU.Runtime»</text><text fill="#000000" font-family="sans-serif" font-size="14" lengthAdjust="spacing" textLength="94" x="871" y="401.1426">b_ecu_runtime</text></g><!--MD5=[db1cc7fb4a61f9574306cbd87296dc91]
entity b_ecu_hardware--><g id="elem_b_ecu_hardware"><rect fill="#F1F1F1" height="55.2188" rx="2.5" ry="2.5" style="stroke:#181818;stroke-width:0.5;" width="229" x="834.5" y="506"/><text fill="#000000" font-family="sans-serif" font-size="14" font-style="italic" lengthAdjust="spacing" textLength="209" x="844.5" y="530.5332">«example.nodes.ECU.Hardware»</text><text fill="#000000" font-family="sans-serif" font-size="14" lengthAdjust="spacing" textLength="106" x="896" y="548.1426">b_ecu_hardware</text></g><!--MD5=[7b8bf4e8fb01f9c6fa166c88bc3dea51]
entity b_can_bus--><g id="elem_b_can_bus"><rect fill="#F1F1F1" height="55.2188" rx="2.5" ry="2.5" style="stroke:#181818;stroke-width:0.5;" width="159" x="869.5" y="677"/><text fill="#000000" font-family="sans-serif" font-size="14" font-style="italic" lengthAdjust="spacing" textLength="139" x="879.5" y="701.5332">«sofdcar.nodes.CAN»</text><text fill="#000000" font-family="sans-serif" font-size="14" lengthAdjust="spacing" textLength="70" x="914" y="719.1426">b_can_bus</text></g><!--MD5=[c2078d7d641dd3414985b52c58f849f3]
entity b_can_bridge--><g id="elem_b_can_bridge"><rect fill="#F1F1F1" height="55.2188" rx="2.5" ry="2.5" style="stroke:#181818;stroke-width:0.5;" width="209" x="590.5" y="506"/><text fill="#000000" font-family="sans-serif" font-size="14" font-style="italic" lengthAdjust="spacing" textLength="189" x="600.5" y="530.5332">«example.nodes.CAN.Bridge»</text><text fill="#000000" font-family="sans-serif" font-size="14" lengthAdjust="spacing" textLength="87" x="651.5" y="548.1426">b_can_bridge</text></g><!--MD5=[0f6058ad7f85b6b365d865a0de080ec0]
link cloud_service to cloud_provider--><g id="link_cloud_service_cloud_provider"><path d="M239,732.12 C239,758.6 239,799 239,825.58 " fill="none" id="cloud_service-cloud_provider" style="stroke:#181818;stroke-width:1.0;"/><text fill="#000000" font-family="sans-serif" font-size="13" lengthAdjust="spacing" textLength="25" x="247" y="785.4951">host</text><path d="M246.0711,771.7414 A10,10 0 0 0 231.9289 771.7414" fill="none" style="stroke:#181818;stroke-width:1.5;"/><ellipse cx="239" cy="778.8125" fill="#FFFFFF" rx="6" ry="6" style="stroke:#181818;stroke-width:1.5;"/></g><!--MD5=[7d0ee0c7e9e885d101b81aca057c853e]
link a_ecu_software to a_ecu_runtime--><g id="link_a_ecu_software_a_ecu_runtime"><path d="M410.59,98.33 C397.34,129.5 375.62,180.6 362.38,211.74 " fill="none" id="a_ecu_software-a_ecu_runtime" style="stroke:#181818;stroke-width:1.0;"/><text fill="#000000" font-family="sans-serif" font-size="13" lengthAdjust="spacing" textLength="25" x="405" y="149.4951">host</text><path d="M395.755,151.3049 A10,10 0 0 0 382.7399 145.7725" fill="none" style="stroke:#181818;stroke-width:1.5;"/><ellipse cx="386.4813" cy="155.0463" fill="#FFFFFF" rx="6" ry="6" style="stroke:#181818;stroke-width:1.5;"/></g><!--MD5=[79987bbd280641a8b7e61b1042f9d8ae]
link a_ecu_software to a_can_bus--><g id="link_a_ecu_software_a_can_bus"><path d="M441.08,98.24 C480.64,157.21 563.92,302.11 514,414 C496.43,453.37 458.6,485.12 427.93,505.81 " fill="none" id="a_ecu_software-a_can_bus" style="stroke:#181818;stroke-width:1.0;"/><text fill="#000000" font-family="sans-serif" font-size="13" lengthAdjust="spacing" textLength="21" x="537" y="318.4951">can</text><path d="M515.5209,227.3078 A10,10 0 0 0 502.1278 231.8491" fill="none" style="stroke:#181818;stroke-width:1.5;"/><ellipse cx="511.095" cy="236.275" fill="#FFFFFF" rx="6" ry="6" style="stroke:#181818;stroke-width:1.5;"/></g><!--MD5=[f7c75b5a86d56472940eb2d096f380ec]
link a_ecu_software to b_ecu_software--><g id="link_a_ecu_software_b_ecu_software"><path d="M500.87,98.05 C593.53,129.25 746.35,180.71 839.05,211.92 " fill="none" id="a_ecu_software-b_ecu_software" style="stroke:#181818;stroke-width:1.0;"/><text fill="#000000" font-family="sans-serif" font-size="13" lengthAdjust="spacing" textLength="46" x="678" y="149.4951">connect</text><path d="M665.5001,146.0234 A10,10 0 0 0 660.9871 159.4261" fill="none" style="stroke:#181818;stroke-width:1.5;"/><ellipse cx="669.945" cy="154.9813" fill="#FFFFFF" rx="6" ry="6" style="stroke:#181818;stroke-width:1.5;"/></g><!--MD5=[b3ffd780fb6146c8da87b1628b95469a]
link a_ecu_runtime to a_ecu_hardware--><g id="link_a_ecu_runtime_a_ecu_hardware"><path d="M356.69,267.1 C362.24,293.09 370.66,332.47 376.25,358.58 " fill="none" id="a_ecu_runtime-a_ecu_hardware" style="stroke:#181818;stroke-width:1.0;"/><text fill="#000000" font-family="sans-serif" font-size="13" lengthAdjust="spacing" textLength="25" x="377" y="318.4951">host</text><path d="M371.8913,304.4017 A10,10 0 0 0 358.0617 307.3587" fill="none" style="stroke:#181818;stroke-width:1.5;"/><ellipse cx="366.455" cy="312.795" fill="#FFFFFF" rx="6" ry="6" style="stroke:#181818;stroke-width:1.5;"/></g><!--MD5=[bf0f0a8765e500f91614c3ca1df393c0]
link a_ecu_hardware to a_can_bus--><g id="link_a_ecu_hardware_a_can_bus"><path d="M382,414.1 C382,440.09 382,479.47 382,505.58 " fill="none" id="a_ecu_hardware-a_can_bus" style="stroke:#181818;stroke-width:1.0;"/><text fill="#000000" font-family="sans-serif" font-size="13" lengthAdjust="spacing" textLength="21" x="390" y="465.4951">can</text><path d="M389.0711,452.7239 A10,10 0 0 0 374.9289 452.7239" fill="none" style="stroke:#181818;stroke-width:1.5;"/><ellipse cx="382" cy="459.795" fill="#FFFFFF" rx="6" ry="6" style="stroke:#181818;stroke-width:1.5;"/></g><!--MD5=[bc2af8859743a2b44f8ae974037f21ea]
link a_can_bridge to a_can_bus--><g id="link_a_can_bridge_a_can_bus"><path d="M174.59,414.1 C220.27,440.18 289.55,479.72 335.28,505.83 " fill="none" id="a_can_bridge-a_can_bus" style="stroke:#181818;stroke-width:1.0;"/><text fill="#000000" font-family="sans-serif" font-size="13" lengthAdjust="spacing" textLength="21" x="285" y="465.4951">can</text><path d="M252.2806,450.3073 A10,10 0 0 0 245.2698 462.5894" fill="none" style="stroke:#181818;stroke-width:1.5;"/><ellipse cx="254.9163" cy="459.9538" fill="#FFFFFF" rx="6" ry="6" style="stroke:#181818;stroke-width:1.5;"/></g><!--MD5=[fe70bc7e2a697a4c3cee35883ee0c75f]
link a_can_bridge to cloud_service--><g id="link_a_can_bridge_cloud_service"><path d="M137.37,414.17 C158.27,473.69 208.55,616.8 229.54,676.57 " fill="none" id="a_can_bridge-cloud_service" style="stroke:#181818;stroke-width:1.0;"/><text fill="#000000" font-family="sans-serif" font-size="13" lengthAdjust="spacing" textLength="31" x="204" y="538.9951">cloud</text><path d="M187.7491,536.2613 A10,10 0 0 0 174.4063 540.9484" fill="none" style="stroke:#181818;stroke-width:1.5;"/><ellipse cx="183.4213" cy="545.2762" fill="#FFFFFF" rx="6" ry="6" style="stroke:#181818;stroke-width:1.5;"/></g><!--MD5=[fa5b45c259a2e4da6fde4c013eb3ffa2]
link b_ecu_software to b_ecu_runtime--><g id="link_b_ecu_software_b_ecu_runtime"><path d="M918,267.1 C918,293.09 918,332.47 918,358.58 " fill="none" id="b_ecu_software-b_ecu_runtime" style="stroke:#181818;stroke-width:1.0;"/><text fill="#000000" font-family="sans-serif" font-size="13" lengthAdjust="spacing" textLength="25" x="926" y="318.4951">host</text><path d="M925.0711,305.7239 A10,10 0 0 0 910.9289 305.7239" fill="none" style="stroke:#181818;stroke-width:1.5;"/><ellipse cx="918" cy="312.795" fill="#FFFFFF" rx="6" ry="6" style="stroke:#181818;stroke-width:1.5;"/></g><!--MD5=[bb2853e022fb050a960b2b2d622dc3d7]
link b_ecu_software to b_can_bus--><g id="link_b_ecu_software_b_can_bus"><path d="M957.43,267.08 C986.25,288.56 1024,321.35 1046,359 C1079.88,416.99 1073.17,439.3 1081,506 C1085.09,540.87 1095.3,552.93 1081,585 C1063.43,624.37 1025.6,656.12 994.93,676.81 " fill="none" id="b_ecu_software-b_can_bus" style="stroke:#181818;stroke-width:1.0;"/><text fill="#000000" font-family="sans-serif" font-size="13" lengthAdjust="spacing" textLength="21" x="1086" y="465.4951">can</text><path d="M1079.0778,421.094 A10,10 0 0 0 1065.129 423.4247" fill="none" style="stroke:#181818;stroke-width:1.5;"/><ellipse cx="1073.2688" cy="429.2338" fill="#FFFFFF" rx="6" ry="6" style="stroke:#181818;stroke-width:1.5;"/></g><!--MD5=[877b34f12c56037e6ac77519a76b5870]
link b_ecu_runtime to b_ecu_hardware--><g id="link_b_ecu_runtime_b_ecu_hardware"><path d="M923.69,414.1 C929.24,440.09 937.66,479.47 943.25,505.58 " fill="none" id="b_ecu_runtime-b_ecu_hardware" style="stroke:#181818;stroke-width:1.0;"/><text fill="#000000" font-family="sans-serif" font-size="13" lengthAdjust="spacing" textLength="25" x="944" y="465.4951">host</text><path d="M938.8913,451.4017 A10,10 0 0 0 925.0617 454.3587" fill="none" style="stroke:#181818;stroke-width:1.5;"/><ellipse cx="933.455" cy="459.795" fill="#FFFFFF" rx="6" ry="6" style="stroke:#181818;stroke-width:1.5;"/></g><!--MD5=[ab2bddea19f33fe890c6d7a9cdbc9bf8]
link b_ecu_hardware to b_can_bus--><g id="link_b_ecu_hardware_b_can_bus"><path d="M949,561.28 C949,592.92 949,645.26 949,676.85 " fill="none" id="b_ecu_hardware-b_can_bus" style="stroke:#181818;stroke-width:1.0;"/><text fill="#000000" font-family="sans-serif" font-size="13" lengthAdjust="spacing" textLength="21" x="957" y="614.4951">can</text><path d="M956.0711,612.0127 A10,10 0 0 0 941.9289 612.0127" fill="none" style="stroke:#181818;stroke-width:1.5;"/><ellipse cx="949" cy="619.0838" fill="#FFFFFF" rx="6" ry="6" style="stroke:#181818;stroke-width:1.5;"/></g><!--MD5=[58c44375a5116efeb2783bbf551b022a]
link b_can_bridge to b_can_bus--><g id="link_b_can_bridge_b_can_bus"><path d="M734.97,561.09 C782.47,592.7 861.27,645.13 908.85,676.78 " fill="none" id="b_can_bridge-b_can_bus" style="stroke:#181818;stroke-width:1.0;"/><text fill="#000000" font-family="sans-serif" font-size="13" lengthAdjust="spacing" textLength="21" x="837" y="614.4951">can</text><path d="M819.9099,609.116 A10,10 0 0 0 812.076 620.8901" fill="none" style="stroke:#181818;stroke-width:1.5;"/><ellipse cx="821.88" cy="618.92" fill="#FFFFFF" rx="6" ry="6" style="stroke:#181818;stroke-width:1.5;"/></g><!--MD5=[aa81aaec7594367b0d045984bdccae07]
link b_can_bridge to cloud_service--><g id="link_b_can_bridge_cloud_service"><path d="M623.25,561.09 C537.85,592.74 396.09,645.28 310.71,676.92 " fill="none" id="b_can_bridge-cloud_service" style="stroke:#181818;stroke-width:1.0;"/><text fill="#000000" font-family="sans-serif" font-size="13" lengthAdjust="spacing" textLength="31" x="542" y="614.4951">cloud</text><path d="M476.0602,623.1818 A10,10 0 0 0 471.1456 609.9211" fill="none" style="stroke:#181818;stroke-width:1.5;"/><ellipse cx="466.9725" cy="619.0088" fill="#FFFFFF" rx="6" ry="6" style="stroke:#181818;stroke-width:1.5;"/></g><!--MD5=[a12317ed06b5c0e125283ec3119af051]
@startuml
skinparam componentStyle rectangle

rectangle "cloud" {
    [cloud_service] <<example.nodes.Cloud.Service>>
    [cloud_provider] <<example.nodes.Cloud.Provider>>
}
rectangle "location_a" {
    [a_ecu_software] <<example.nodes.ECU.Software>>
    [a_ecu_runtime] <<example.nodes.ECU.Runtime>>
    [a_ecu_hardware] <<example.nodes.ECU.Hardware>>
    [a_can_bus] <<sofdcar.nodes.CAN>>
    [a_can_bridge] <<example.nodes.CAN.Bridge>>
}
rectangle "location_b" {
    [b_ecu_software] <<example.nodes.ECU.Software>>
    [b_ecu_runtime] <<example.nodes.ECU.Runtime>>
    [b_ecu_hardware] <<example.nodes.ECU.Hardware>>
    [b_can_bus] <<sofdcar.nodes.CAN>>
    [b_can_bridge] <<example.nodes.CAN.Bridge>>
}


cloud_service -(0- cloud_provider : host
a_ecu_software -(0- a_ecu_runtime : host
a_ecu_software -(0- a_can_bus : can
a_ecu_software -(0- b_ecu_software : connect
a_ecu_runtime -(0- a_ecu_hardware : host
a_ecu_hardware -(0- a_can_bus : can
a_can_bridge -(0- a_can_bus : can
a_can_bridge -(0- cloud_service : cloud
b_ecu_software -(0- b_ecu_runtime : host
b_ecu_software -(0- b_can_bus : can
b_ecu_runtime -(0- b_ecu_hardware : host
b_ecu_hardware -(0- b_can_bus : can
b_can_bridge -(0- b_can_bus : can
b_can_bridge -(0- cloud_service : cloud

@enduml

PlantUML version 1.2022.12(Sun Oct 23 20:12:26 CEST 2022)
(GPL source distribution)
Java Runtime: Java(TM) SE Runtime Environment
JVM: Java HotSpot(TM) 64-Bit Server VM
Default Encoding: Cp1252
Language: en
Country: US
--></g></svg>