<?xml version="1.0" encoding="UTF-8" standalone="no"?><svg xmlns="http://www.w3.org/2000/svg" xmlns:xlink="http://www.w3.org/1999/xlink" contentStyleType="text/css" height="883px" preserveAspectRatio="none" style="width:1197px;height:883px;background:#FFFFFF;" version="1.1" viewBox="0 0 1197 883" width="1197px" zoomAndPan="magnify"><defs/><g><!--MD5=[bfeb4e40a9e05244ea0843bb1cef058f]
cluster cloud--><g id="cluster_cloud"><rect fill="none" height="250" rx="2.5" ry="2.5" style="stroke:#181818;stroke-width:1.0;" width="280" x="115" y="627"/><text fill="#000000" font-family="sans-serif" font-size="14" font-weight="bold" lengthAdjust="spacing" textLength="43" x="233.5" y="641.9951">cloud</text></g><!--MD5=[38be5ff8643f1210b08d938b6a1ef837]
cluster location_a--><g id="cluster_location_a"><rect fill="none" height="557" rx="2.5" ry="2.5" style="stroke:#181818;stroke-width:1.0;" width="580" x="7" y="7"/><text fill="#000000" font-family="sans-serif" font-size="14" font-weight="bold" lengthAdjust="spacing" textLength="78" x="258" y="21.9951">location_a</text></g><!--MD5=[9ae8169f074397ead1ff70f107c60743]
cluster location_b--><g id="cluster_location_b"><rect fill="none" height="559" rx="2.5" ry="2.5" style="stroke:#181818;stroke-width:1.0;" width="580" x="611" y="172"/><text fill="#000000" font-family="sans-serif" font-size="14" font-weight="bold" lengthAdjust="spacing" textLength="79" x="861.5" y="186.9951">location_b</text></g><!--MD5=[062a307f1a3b9ecbc83b6bfc64fbd6d7]
entity cloud_service--><g id="elem_cloud_service"><rect fill="#F1F1F1" height="52.5938" rx="2.5" ry="2.5" style="stroke:#181818;stroke-width:0.5;" width="243" x="133.5" y="662"/><text fill="#000000" font-family="sans-serif" font-size="14" font-style="italic" lengthAdjust="spacing" textLength="223" x="143.5" y="684.9951">«example.nodes.Cloud.Service»</text><text fill="#000000" font-family="sans-serif" font-size="14" lengthAdjust="spacing" textLength="94" x="208" y="701.292">cloud_service</text></g><!--MD5=[da2096ad6c531b186fcd59aa307489d4]
entity cloud_provider--><g id="elem_cloud_provider"><rect fill="#F1F1F1" height="52.5938" rx="2.5" ry="2.5" style="stroke:#181818;stroke-width:0.5;" width="248" x="131" y="808"/><text fill="#000000" font-family="sans-serif" font-size="14" font-style="italic" lengthAdjust="spacing" textLength="228" x="141" y="830.9951">«example.nodes.Cloud.Provider»</text><text fill="#000000" font-family="sans-serif" font-size="14" lengthAdjust="spacing" textLength="101" x="204.5" y="847.292">cloud_provider</text></g><!--MD5=[7b64fa87b7971912a990563af7422b44]
entity a_ecu_software--><g id="elem_a_ecu_software"><rect fill="#F1F1F1" height="52.5938" rx="2.5" ry="2.5" style="stroke:#181818;stroke-width:0.5;" width="241" x="329.5" y="42"/><text fill="#000000" font-family="sans-serif" font-size="14" font-style="italic" lengthAdjust="spacing" textLength="221" x="339.5" y="64.9951">«example.nodes.ECU.Software»</text><text fill="#000000" font-family="sans-serif" font-size="14" lengthAdjust="spacing" textLength="107" x="396.5" y="81.292">a_ecu_software</text></g><!--MD5=[5ec46660c4f10129233af9e2cc0a952b]
entity a_ecu_runtime--><g id="elem_a_ecu_runtime"><rect fill="#F1F1F1" height="52.5938" rx="2.5" ry="2.5" style="stroke:#181818;stroke-width:0.5;" width="239" x="256.5" y="207"/><text fill="#000000" font-family="sans-serif" font-size="14" font-style="italic" lengthAdjust="spacing" textLength="219" x="266.5" y="229.9951">«example.nodes.ECU.Runtime»</text><text fill="#000000" font-family="sans-serif" font-size="14" lengthAdjust="spacing" textLength="101" x="325.5" y="246.292">a_ecu_runtime</text></g><!--MD5=[4a5ff491612170d3487b026b559cd4c3]
entity a_ecu_hardware--><g id="elem_a_ecu_hardware"><rect fill="#F1F1F1" height="52.5938" rx="2.5" ry="2.5" style="stroke:#181818;stroke-width:0.5;" width="247" x="286.5" y="351"/><text fill="#000000" font-family="sans-serif" font-size="14" font-style="italic" lengthAdjust="spacing" textLength="227" x="296.5" y="373.9951">«example.nodes.ECU.Hardware»</text><text fill="#000000" font-family="sans-serif" font-size="14" lengthAdjust="spacing" textLength="112" x="354" y="390.292">a_ecu_hardware</text></g><!--MD5=[42805b9e10c9f36bca0e0dd934e37126]
entity a_can_bus--><g id="elem_a_can_bus"><rect fill="#F1F1F1" height="52.5938" rx="2.5" ry="2.5" style="stroke:#181818;stroke-width:0.5;" width="170" x="325" y="495"/><text fill="#000000" font-family="sans-serif" font-size="14" font-style="italic" lengthAdjust="spacing" textLength="150" x="335" y="517.9951">«sofdcar.nodes.CAN»</text><text fill="#000000" font-family="sans-serif" font-size="14" lengthAdjust="spacing" textLength="73" x="373.5" y="534.292">a_can_bus</text></g><!--MD5=[21903da3572777de7842f5a1dee30ff1]
entity a_can_bridge--><g id="elem_a_can_bridge"><rect fill="#F1F1F1" height="52.5938" rx="2.5" ry="2.5" style="stroke:#181818;stroke-width:0.5;" width="228" x="23" y="351"/><text fill="#000000" font-family="sans-serif" font-size="14" font-style="italic" lengthAdjust="spacing" textLength="208" x="33" y="373.9951">«example.nodes.CAN.Bridge»</text><text fill="#000000" font-family="sans-serif" font-size="14" lengthAdjust="spacing" textLength="91" x="91.5" y="390.292">a_can_bridge</text></g><!--MD5=[7ab9b935d8592aae61a9d26b9891a8a4]
entity b_ecu_software--><g id="elem_b_ecu_software"><rect fill="#F1F1F1" height="52.5938" rx="2.5" ry="2.5" style="stroke:#181818;stroke-width:0.5;" width="241" x="859.5" y="207"/><text fill="#000000" font-family="sans-serif" font-size="14" font-style="italic" lengthAdjust="spacing" textLength="221" x="869.5" y="229.9951">«example.nodes.ECU.Software»</text><text fill="#000000" font-family="sans-serif" font-size="14" lengthAdjust="spacing" textLength="108" x="926" y="246.292">b_ecu_software</text></g><!--MD5=[1d95661d0279b511cda3ced12470cc61]
entity b_ecu_runtime--><g id="elem_b_ecu_runtime"><rect fill="#F1F1F1" height="52.5938" rx="2.5" ry="2.5" style="stroke:#181818;stroke-width:0.5;" width="239" x="860.5" y="351"/><text fill="#000000" font-family="sans-serif" font-size="14" font-style="italic" lengthAdjust="spacing" textLength="219" x="870.5" y="373.9951">«example.nodes.ECU.Runtime»</text><text fill="#000000" font-family="sans-serif" font-size="14" lengthAdjust="spacing" textLength="102" x="929" y="390.292">b_ecu_runtime</text></g><!--MD5=[db1cc7fb4a61f9574306cbd87296dc91]
entity b_ecu_hardware--><g id="elem_b_ecu_hardware"><rect fill="#F1F1F1" height="52.5938" rx="2.5" ry="2.5" style="stroke:#181818;stroke-width:0.5;" width="247" x="890.5" y="495"/><text fill="#000000" font-family="sans-serif" font-size="14" font-style="italic" lengthAdjust="spacing" textLength="227" x="900.5" y="517.9951">«example.nodes.ECU.Hardware»</text><text fill="#000000" font-family="sans-serif" font-size="14" lengthAdjust="spacing" textLength="113" x="957.5" y="534.292">b_ecu_hardware</text></g><!--MD5=[7b8bf4e8fb01f9c6fa166c88bc3dea51]
entity b_can_bus--><g id="elem_b_can_bus"><rect fill="#F1F1F1" height="52.5938" rx="2.5" ry="2.5" style="stroke:#181818;stroke-width:0.5;" width="170" x="929" y="662"/><text fill="#000000" font-family="sans-serif" font-size="14" font-style="italic" lengthAdjust="spacing" textLength="150" x="939" y="684.9951">«sofdcar.nodes.CAN»</text><text fill="#000000" font-family="sans-serif" font-size="14" lengthAdjust="spacing" textLength="74" x="977" y="701.292">b_can_bus</text></g><!--MD5=[c2078d7d641dd3414985b52c58f849f3]
entity b_can_bridge--><g id="elem_b_can_bridge"><rect fill="#F1F1F1" height="52.5938" rx="2.5" ry="2.5" style="stroke:#181818;stroke-width:0.5;" width="228" x="627" y="495"/><text fill="#000000" font-family="sans-serif" font-size="14" font-style="italic" lengthAdjust="spacing" textLength="208" x="637" y="517.9951">«example.nodes.CAN.Bridge»</text><text fill="#000000" font-family="sans-serif" font-size="14" lengthAdjust="spacing" textLength="92" x="695" y="534.292">b_can_bridge</text></g><!--MD5=[0f6058ad7f85b6b365d865a0de080ec0]
link cloud_service to cloud_provider--><g id="link_cloud_service_cloud_provider"><path d="M255,715.24 C255,741.46 255,781.85 255,807.98 " fill="none" id="cloud_service-cloud_provider" style="stroke:#181818;stroke-width:1.0;"/><text fill="#000000" font-family="sans-serif" font-size="13" lengthAdjust="spacing" textLength="28" x="263" y="767.0669">host</text><path d="M262.0711,754.5727 A10,10 0 0 0 247.9289 754.5727" fill="none" style="stroke:#181818;stroke-width:1.5;"/><ellipse cx="255" cy="761.6438" fill="#FFFFFF" rx="6" ry="6" style="stroke:#181818;stroke-width:1.5;"/></g><!--MD5=[7d0ee0c7e9e885d101b81aca057c853e]
link a_ecu_software to a_ecu_runtime--><g id="link_a_ecu_software_a_ecu_runtime"><path d="M438.27,95.33 C424.42,125.85 401.5,176.32 387.67,206.79 " fill="none" id="a_ecu_software-a_ecu_runtime" style="stroke:#181818;stroke-width:1.0;"/><text fill="#000000" font-family="sans-serif" font-size="13" lengthAdjust="spacing" textLength="28" x="431" y="145.0669">host</text><path d="M422.3243,147.5635 A10,10 0 0 0 409.4472 141.717" fill="none" style="stroke:#181818;stroke-width:1.5;"/><ellipse cx="412.9625" cy="151.0788" fill="#FFFFFF" rx="6" ry="6" style="stroke:#181818;stroke-width:1.5;"/></g><!--MD5=[79987bbd280641a8b7e61b1042f9d8ae]
link a_ecu_software to a_can_bus--><g id="link_a_ecu_software_a_can_bus"><path d="M470.12,95.19 C512.42,152.53 602.56,294.51 551,404 C532.13,444.08 491.95,475.07 459.3,494.98 " fill="none" id="a_ecu_software-a_can_bus" style="stroke:#181818;stroke-width:1.0;"/><text fill="#000000" font-family="sans-serif" font-size="13" lengthAdjust="spacing" textLength="23" x="574" y="310.0669">can</text><path d="M549.8606,220.9193 A10,10 0 0 0 536.638 225.9356" fill="none" style="stroke:#181818;stroke-width:1.5;"/><ellipse cx="545.7575" cy="230.0388" fill="#FFFFFF" rx="6" ry="6" style="stroke:#181818;stroke-width:1.5;"/></g><!--MD5=[f7c75b5a86d56472940eb2d096f380ec]
link a_ecu_software to b_ecu_software--><g id="link_a_ecu_software_b_ecu_software"><path d="M533.1,95.06 C632.45,125.61 797.69,176.43 896.99,206.97 " fill="none" id="a_ecu_software-b_ecu_software" style="stroke:#181818;stroke-width:1.0;"/><text fill="#000000" font-family="sans-serif" font-size="13" lengthAdjust="spacing" textLength="51" x="738" y="145.0669">connect</text><path d="M710.3837,142.1815 A10,10 0 0 0 706.2265 155.6988" fill="none" style="stroke:#181818;stroke-width:1.5;"/><ellipse cx="715.0638" cy="151.0187" fill="#FFFFFF" rx="6" ry="6" style="stroke:#181818;stroke-width:1.5;"/></g><!--MD5=[b3ffd780fb6146c8da87b1628b95469a]
link a_ecu_runtime to a_ecu_hardware--><g id="link_a_ecu_runtime_a_ecu_hardware"><path d="M382.16,260.22 C388.32,285.95 397.74,325.31 403.89,350.98 " fill="none" id="a_ecu_runtime-a_ecu_hardware" style="stroke:#181818;stroke-width:1.0;"/><text fill="#000000" font-family="sans-serif" font-size="13" lengthAdjust="spacing" textLength="28" x="404" y="310.0669">host</text><path d="M398.2593,297.0995 A10,10 0 0 0 384.5057 300.392" fill="none" style="stroke:#181818;stroke-width:1.5;"/><ellipse cx="393.0288" cy="305.6225" fill="#FFFFFF" rx="6" ry="6" style="stroke:#181818;stroke-width:1.5;"/></g><!--MD5=[bf0f0a8765e500f91614c3ca1df393c0]
link a_ecu_hardware to a_can_bus--><g id="link_a_ecu_hardware_a_can_bus"><path d="M410,404.22 C410,429.95 410,469.31 410,494.98 " fill="none" id="a_ecu_hardware-a_can_bus" style="stroke:#181818;stroke-width:1.0;"/><text fill="#000000" font-family="sans-serif" font-size="13" lengthAdjust="spacing" textLength="23" x="418" y="454.0669">can</text><path d="M417.0711,442.5514 A10,10 0 0 0 402.9289 442.5514" fill="none" style="stroke:#181818;stroke-width:1.5;"/><ellipse cx="410" cy="449.6225" fill="#FFFFFF" rx="6" ry="6" style="stroke:#181818;stroke-width:1.5;"/></g><!--MD5=[bc2af8859743a2b44f8ae974037f21ea]
link a_can_bridge to a_can_bus--><g id="link_a_can_bridge_a_can_bus"><path d="M186.12,404.05 C235.55,429.76 311.36,469.19 360.81,494.92 " fill="none" id="a_can_bridge-a_can_bus" style="stroke:#181818;stroke-width:1.0;"/><text fill="#000000" font-family="sans-serif" font-size="13" lengthAdjust="spacing" textLength="23" x="305" y="454.0669">can</text><path d="M270.4474,439.9413 A10,10 0 0 0 263.9213 452.4876" fill="none" style="stroke:#181818;stroke-width:1.5;"/><ellipse cx="273.4575" cy="449.4775" fill="#FFFFFF" rx="6" ry="6" style="stroke:#181818;stroke-width:1.5;"/></g><!--MD5=[fe70bc7e2a697a4c3cee35883ee0c75f]
link a_can_bridge to cloud_service--><g id="link_a_can_bridge_cloud_service"><path d="M146.76,404.05 C168.95,462.18 223.02,603.76 245.23,661.92 " fill="none" id="a_can_bridge-cloud_service" style="stroke:#181818;stroke-width:1.0;"/><text fill="#000000" font-family="sans-serif" font-size="13" lengthAdjust="spacing" textLength="34" x="217" y="526.0669">cloud</text><path d="M200.0707,523.8454 A10,10 0 0 0 186.8591 528.8905" fill="none" style="stroke:#181818;stroke-width:1.5;"/><ellipse cx="195.9875" cy="532.9738" fill="#FFFFFF" rx="6" ry="6" style="stroke:#181818;stroke-width:1.5;"/></g><!--MD5=[fa5b45c259a2e4da6fde4c013eb3ffa2]
link b_ecu_software to b_ecu_runtime--><g id="link_b_ecu_software_b_ecu_runtime"><path d="M980,260.22 C980,285.95 980,325.31 980,350.98 " fill="none" id="b_ecu_software-b_ecu_runtime" style="stroke:#181818;stroke-width:1.0;"/><text fill="#000000" font-family="sans-serif" font-size="13" lengthAdjust="spacing" textLength="28" x="988" y="310.0669">host</text><path d="M987.0711,298.5514 A10,10 0 0 0 972.9289 298.5514" fill="none" style="stroke:#181818;stroke-width:1.5;"/><ellipse cx="980" cy="305.6225" fill="#FFFFFF" rx="6" ry="6" style="stroke:#181818;stroke-width:1.5;"/></g><!--MD5=[bb2853e022fb050a960b2b2d622dc3d7]
link b_ecu_software to b_can_bus--><g id="link_b_ecu_software_b_can_bus"><path d="M1021.97,260.04 C1052.69,280.85 1093.04,312.96 1117,351 C1152.27,407.01 1146.48,429.36 1155,495 C1159.4,528.94 1169.65,541.07 1155,572 C1136.24,611.61 1096.51,642.17 1063.99,661.87 " fill="none" id="b_ecu_software-b_can_bus" style="stroke:#181818;stroke-width:1.0;"/><text fill="#000000" font-family="sans-serif" font-size="13" lengthAdjust="spacing" textLength="23" x="1159" y="454.0669">can</text><path d="M1151.6292,411.1024 A10,10 0 0 0 1137.7449 413.7908" fill="none" style="stroke:#181818;stroke-width:1.5;"/><ellipse cx="1146.0313" cy="419.3888" fill="#FFFFFF" rx="6" ry="6" style="stroke:#181818;stroke-width:1.5;"/></g><!--MD5=[877b34f12c56037e6ac77519a76b5870]
link b_ecu_runtime to b_ecu_hardware--><g id="link_b_ecu_runtime_b_ecu_hardware"><path d="M986.16,404.22 C992.32,429.95 1001.74,469.31 1007.89,494.98 " fill="none" id="b_ecu_runtime-b_ecu_hardware" style="stroke:#181818;stroke-width:1.0;"/><text fill="#000000" font-family="sans-serif" font-size="13" lengthAdjust="spacing" textLength="28" x="1008" y="454.0669">host</text><path d="M1002.2593,441.0995 A10,10 0 0 0 988.5057 444.392" fill="none" style="stroke:#181818;stroke-width:1.5;"/><ellipse cx="997.0288" cy="449.6225" fill="#FFFFFF" rx="6" ry="6" style="stroke:#181818;stroke-width:1.5;"/></g><!--MD5=[ab2bddea19f33fe890c6d7a9cdbc9bf8]
link b_ecu_hardware to b_can_bus--><g id="link_b_ecu_hardware_b_can_bus"><path d="M1014,548.28 C1014,579.28 1014,630.98 1014,661.9 " fill="none" id="b_ecu_hardware-b_can_bus" style="stroke:#181818;stroke-width:1.0;"/><text fill="#000000" font-family="sans-serif" font-size="13" lengthAdjust="spacing" textLength="23" x="1022" y="600.0669">can</text><path d="M1021.0711,598.0489 A10,10 0 0 0 1006.9289 598.0489" fill="none" style="stroke:#181818;stroke-width:1.5;"/><ellipse cx="1014" cy="605.12" fill="#FFFFFF" rx="6" ry="6" style="stroke:#181818;stroke-width:1.5;"/></g><!--MD5=[58c44375a5116efeb2783bbf551b022a]
link b_can_bridge to b_can_bus--><g id="link_b_can_bridge_b_can_bus"><path d="M783.36,548.1 C834.58,579.06 920.28,630.86 971.54,661.84 " fill="none" id="b_can_bridge-b_can_bus" style="stroke:#181818;stroke-width:1.0;"/><text fill="#000000" font-family="sans-serif" font-size="13" lengthAdjust="spacing" textLength="23" x="893" y="600.0669">can</text><path d="M875.0412,595.2532 A10,10 0 0 0 867.7257 607.3563" fill="none" style="stroke:#181818;stroke-width:1.5;"/><ellipse cx="877.435" cy="604.9625" fill="#FFFFFF" rx="6" ry="6" style="stroke:#181818;stroke-width:1.5;"/></g><!--MD5=[aa81aaec7594367b0d045984bdccae07]
link b_can_bridge to cloud_service--><g id="link_b_can_bridge_cloud_service"><path d="M665.86,548.01 C574.61,578.99 421.58,630.94 330.27,661.95 " fill="none" id="b_can_bridge-cloud_service" style="stroke:#181818;stroke-width:1.0;"/><text fill="#000000" font-family="sans-serif" font-size="13" lengthAdjust="spacing" textLength="34" x="577" y="600.0669">cloud</text><path d="M507.0564,609.3912 A10,10 0 0 0 502.51 595.9998" fill="none" style="stroke:#181818;stroke-width:1.5;"/><ellipse cx="498.0875" cy="604.9688" fill="#FFFFFF" rx="6" ry="6" style="stroke:#181818;stroke-width:1.5;"/></g><!--MD5=[74d2777bdce1dc64c4f36e4ca1c4a5d2]
@startuml
skinparam componentStyle rectangle

rectangle "cloud" {
    [cloud_service] <<example.nodes.Cloud.Service>>
    [cloud_provider] <<example.nodes.Cloud.Provider>>
}
rectangle "location_a" {
    [a_ecu_software] <<example.nodes.ECU.Software>>
    [a_ecu_runtime] <<example.nodes.ECU.Runtime>>
    [a_ecu_hardware] <<example.nodes.ECU.Hardware>>
    [a_can_bus] <<sofdcar.nodes.CAN>>
    [a_can_bridge] <<example.nodes.CAN.Bridge>>
}
rectangle "location_b" {
    [b_ecu_software] <<example.nodes.ECU.Software>>
    [b_ecu_runtime] <<example.nodes.ECU.Runtime>>
    [b_ecu_hardware] <<example.nodes.ECU.Hardware>>
    [b_can_bus] <<sofdcar.nodes.CAN>>
    [b_can_bridge] <<example.nodes.CAN.Bridge>>
}


cloud_service -(0- cloud_provider : host
a_ecu_software -(0- a_ecu_runtime : host
a_ecu_software -(0- a_can_bus : can
a_ecu_software -(0- b_ecu_software : connect
a_ecu_runtime -(0- a_ecu_hardware : host
a_ecu_hardware -(0- a_can_bus : can
a_can_bridge -(0- a_can_bus : can
a_can_bridge -(0- cloud_service : cloud
b_ecu_software -(0- b_ecu_runtime : host
b_ecu_software -(0- b_can_bus : can
b_ecu_runtime -(0- b_ecu_hardware : host
b_ecu_hardware -(0- b_can_bus : can
b_can_bridge -(0- b_can_bus : can
b_can_bridge -(0- cloud_service : cloud

@enduml

PlantUML version 1.2022.12(Sun Oct 23 20:12:26 CEST 2022)
(GPL source distribution)
Java Runtime: OpenJDK Runtime Environment
JVM: OpenJDK 64-Bit Server VM
Default Encoding: UTF-8
Language: en
Country: null
--></g></svg>