<svg xmlns="http://www.w3.org/2000/svg" xmlns:xlink="http://www.w3.org/1999/xlink" contentStyleType="text/css" height="813px" preserveAspectRatio="none" style="width:1157px;height:813px;" version="1.1" viewBox="0 0 1157 813" width="1157px" zoomAndPan="magnify"><defs/><g><!--cluster cloud--><g id="cluster_cloud"><rect fill="none" height="236" rx="2.5" ry="2.5" style="stroke:#000000;stroke-width:1.0;stroke-dasharray:7.0,7.0;" width="272" x="112" y="571"/><text fill="#000000" font-family="sans-serif" font-size="14" lengthAdjust="spacing" textLength="38" x="229" y="585.9951">cloud</text></g><!--cluster location_a--><g id="cluster_location_a"><rect fill="none" height="515" rx="2.5" ry="2.5" style="stroke:#000000;stroke-width:1.0;stroke-dasharray:7.0,7.0;" width="560" x="7" y="7"/><text fill="#000000" font-family="sans-serif" font-size="14" lengthAdjust="spacing" textLength="69" x="252.5" y="21.9951">location_a</text></g><!--cluster location_b--><g id="cluster_location_b"><rect fill="none" height="517" rx="2.5" ry="2.5" style="stroke:#000000;stroke-width:1.0;stroke-dasharray:7.0,7.0;" width="560" x="591" y="158"/><text fill="#000000" font-family="sans-serif" font-size="14" lengthAdjust="spacing" textLength="70" x="836" y="172.9951">location_b</text></g><!--entity node_cloud_service--><g id="elem_node_cloud_service"><rect fill="#F1F1F1" height="52.5938" rx="2.5" ry="2.5" style="stroke:#000000;stroke-width:1.5;" width="234" x="131" y="606"/><text fill="#000000" font-family="sans-serif" font-size="14" lengthAdjust="spacing" textLength="94" x="141" y="628.9951">cloud_service</text><text fill="#000000" font-family="sans-serif" font-size="14" lengthAdjust="spacing" textLength="214" x="141" y="645.292">(example.nodes.Cloud.Service)</text></g><!--entity node_cloud_provider--><g id="elem_node_cloud_provider"><rect fill="#F1F1F1" height="52.5938" rx="2.5" ry="2.5" style="stroke:#000000;stroke-width:1.5;" width="240" x="128" y="738"/><text fill="#000000" font-family="sans-serif" font-size="14" lengthAdjust="spacing" textLength="101" x="138" y="760.9951">cloud_provider</text><text fill="#000000" font-family="sans-serif" font-size="14" lengthAdjust="spacing" textLength="220" x="138" y="777.292">(example.nodes.Cloud.Provider)</text></g><!--entity node_a_ecu_software--><g id="elem_node_a_ecu_software"><rect fill="#F1F1F1" height="52.5938" rx="2.5" ry="2.5" style="stroke:#000000;stroke-width:1.5;" width="233" x="318.5" y="42"/><text fill="#000000" font-family="sans-serif" font-size="14" lengthAdjust="spacing" textLength="107" x="328.5" y="64.9951">a_ecu_software</text><text fill="#000000" font-family="sans-serif" font-size="14" lengthAdjust="spacing" textLength="213" x="328.5" y="81.292">(example.nodes.ECU.Software)</text></g><!--entity node_a_ecu_runtime--><g id="elem_node_a_ecu_runtime"><rect fill="#F1F1F1" height="52.5938" rx="2.5" ry="2.5" style="stroke:#000000;stroke-width:1.5;" width="231" x="250.5" y="193"/><text fill="#000000" font-family="sans-serif" font-size="14" lengthAdjust="spacing" textLength="101" x="260.5" y="215.9951">a_ecu_runtime</text><text fill="#000000" font-family="sans-serif" font-size="14" lengthAdjust="spacing" textLength="211" x="260.5" y="232.292">(example.nodes.ECU.Runtime)</text></g><!--entity node_a_ecu_hardware--><g id="elem_node_a_ecu_hardware"><rect fill="#F1F1F1" height="52.5938" rx="2.5" ry="2.5" style="stroke:#000000;stroke-width:1.5;" width="238" x="276" y="323"/><text fill="#000000" font-family="sans-serif" font-size="14" lengthAdjust="spacing" textLength="112" x="286" y="345.9951">a_ecu_hardware</text><text fill="#000000" font-family="sans-serif" font-size="14" lengthAdjust="spacing" textLength="218" x="286" y="362.292">(example.nodes.ECU.Hardware)</text></g><!--entity node_a_can_bus--><g id="elem_node_a_can_bus"><rect fill="#F1F1F1" height="52.5938" rx="2.5" ry="2.5" style="stroke:#000000;stroke-width:1.5;" width="162" x="314" y="453"/><text fill="#000000" font-family="sans-serif" font-size="14" lengthAdjust="spacing" textLength="73" x="324" y="475.9951">a_can_bus</text><text fill="#000000" font-family="sans-serif" font-size="14" lengthAdjust="spacing" textLength="142" x="324" y="492.292">(sofdcar.nodes.CAN)</text></g><!--entity node_a_can_bridge--><g id="elem_node_a_can_bridge"><rect fill="#F1F1F1" height="52.5938" rx="2.5" ry="2.5" style="stroke:#000000;stroke-width:1.5;" width="218" x="23" y="323"/><text fill="#000000" font-family="sans-serif" font-size="14" lengthAdjust="spacing" textLength="91" x="33" y="345.9951">a_can_bridge</text><text fill="#000000" font-family="sans-serif" font-size="14" lengthAdjust="spacing" textLength="198" x="33" y="362.292">(example.nodes.CAN.Bridge)</text></g><!--entity node_b_ecu_software--><g id="elem_node_b_ecu_software"><rect fill="#F1F1F1" height="52.5938" rx="2.5" ry="2.5" style="stroke:#000000;stroke-width:1.5;" width="233" x="833.5" y="193"/><text fill="#000000" font-family="sans-serif" font-size="14" lengthAdjust="spacing" textLength="108" x="843.5" y="215.9951">b_ecu_software</text><text fill="#000000" font-family="sans-serif" font-size="14" lengthAdjust="spacing" textLength="213" x="843.5" y="232.292">(example.nodes.ECU.Software)</text></g><!--entity node_b_ecu_runtime--><g id="elem_node_b_ecu_runtime"><rect fill="#F1F1F1" height="52.5938" rx="2.5" ry="2.5" style="stroke:#000000;stroke-width:1.5;" width="231" x="834.5" y="323"/><text fill="#000000" font-family="sans-serif" font-size="14" lengthAdjust="spacing" textLength="102" x="844.5" y="345.9951">b_ecu_runtime</text><text fill="#000000" font-family="sans-serif" font-size="14" lengthAdjust="spacing" textLength="211" x="844.5" y="362.292">(example.nodes.ECU.Runtime)</text></g><!--entity node_b_ecu_hardware--><g id="elem_node_b_ecu_hardware"><rect fill="#F1F1F1" height="52.5938" rx="2.5" ry="2.5" style="stroke:#000000;stroke-width:1.5;" width="238" x="860" y="453"/><text fill="#000000" font-family="sans-serif" font-size="14" lengthAdjust="spacing" textLength="113" x="870" y="475.9951">b_ecu_hardware</text><text fill="#000000" font-family="sans-serif" font-size="14" lengthAdjust="spacing" textLength="218" x="870" y="492.292">(example.nodes.ECU.Hardware)</text></g><!--entity node_b_can_bus--><g id="elem_node_b_can_bus"><rect fill="#F1F1F1" height="52.5938" rx="2.5" ry="2.5" style="stroke:#000000;stroke-width:1.5;" width="162" x="898" y="606"/><text fill="#000000" font-family="sans-serif" font-size="14" lengthAdjust="spacing" textLength="74" x="908" y="628.9951">b_can_bus</text><text fill="#000000" font-family="sans-serif" font-size="14" lengthAdjust="spacing" textLength="142" x="908" y="645.292">(sofdcar.nodes.CAN)</text></g><!--entity node_b_can_bridge--><g id="elem_node_b_can_bridge"><rect fill="#F1F1F1" height="52.5938" rx="2.5" ry="2.5" style="stroke:#000000;stroke-width:1.5;" width="218" x="607" y="453"/><text fill="#000000" font-family="sans-serif" font-size="14" lengthAdjust="spacing" textLength="92" x="617" y="475.9951">b_can_bridge</text><text fill="#000000" font-family="sans-serif" font-size="14" lengthAdjust="spacing" textLength="198" x="617" y="492.292">(example.nodes.CAN.Bridge)</text></g><!--link node_cloud_service to node_cloud_provider--><g id="link_node_cloud_service_node_cloud_provider"><path d="M248,659.18 C248,680.28 248,710.24 248,732.64 " fill="none" id="node_cloud_service-to-node_cloud_provider" style="stroke:#181818;stroke-width:1.5;"/><polygon fill="#181818" points="248,737.87,252,728.87,248,732.87,244,728.87,248,737.87" style="stroke:#181818;stroke-width:1.5;"/><text fill="#000000" font-family="sans-serif" font-size="13" lengthAdjust="spacing" textLength="28" x="257" y="704.0669">host</text></g><!--link node_a_ecu_software to node_a_ecu_runtime--><g id="link_node_a_ecu_software_node_a_ecu_runtime"><path d="M423.14,95.11 C411.19,120.91 392.76,160.72 380.08,188.1 " fill="none" id="node_a_ecu_software-to-node_a_ecu_runtime" style="stroke:#181818;stroke-width:1.5;"/><polygon fill="#181818" points="377.94,192.72,385.3472,186.229,380.038,188.1815,378.0856,182.8722,377.94,192.72" style="stroke:#181818;stroke-width:1.5;"/><text fill="#000000" font-family="sans-serif" font-size="13" lengthAdjust="spacing" textLength="28" x="417" y="138.0669">host</text></g><!--link node_a_ecu_software to node_a_can_bus--><g id="link_node_a_ecu_software_node_a_can_bus"><path d="M460.81,95.23 C474.22,110.05 489.69,129.71 499,150 C541.33,242.26 577.45,285.23 532,376 C515.78,408.4 483.91,433.19 454.99,450.27 " fill="none" id="node_a_ecu_software-to-node_a_can_bus" style="stroke:#181818;stroke-width:1.5;stroke-dasharray:7.0,7.0;"/><polygon fill="#181818" points="450.38,452.95,460.1726,451.8985,454.7062,450.4431,456.1616,444.9767,450.38,452.95" style="stroke:#181818;stroke-width:1.5;"/><text fill="#000000" font-family="sans-serif" font-size="13" lengthAdjust="spacing" textLength="23" x="561" y="289.0669">can</text></g><!--link node_a_ecu_software to node_b_ecu_software--><g id="link_node_a_ecu_software_node_b_ecu_software"><path d="M523.24,95.03 C616.14,121.91 761.82,164.06 856.62,191.48 " fill="none" id="node_a_ecu_software-to-node_b_ecu_software" style="stroke:#181818;stroke-width:1.5;stroke-dasharray:7.0,7.0;"/><polygon fill="#181818" points="861.66,192.94,854.1226,186.6007,856.8562,191.5532,851.9037,194.2868,861.66,192.94" style="stroke:#181818;stroke-width:1.5;"/><text fill="#000000" font-family="sans-serif" font-size="13" lengthAdjust="spacing" textLength="51" x="686" y="138.0669">connect</text></g><!--link node_a_ecu_runtime to node_a_ecu_hardware--><g id="link_node_a_ecu_runtime_node_a_ecu_hardware"><path d="M371.8,246.1 C376.48,266.76 383.09,295.91 388.05,317.83 " fill="none" id="node_a_ecu_runtime-to-node_a_ecu_hardware" style="stroke:#181818;stroke-width:1.5;"/><polygon fill="#181818" points="389.21,322.95,391.1294,313.29,388.1087,318.0728,383.3259,315.0521,389.21,322.95" style="stroke:#181818;stroke-width:1.5;"/><text fill="#000000" font-family="sans-serif" font-size="13" lengthAdjust="spacing" textLength="28" x="391" y="289.0669">host</text></g><!--link node_a_ecu_hardware to node_a_can_bus--><g id="link_node_a_ecu_hardware_node_a_can_bus"><path d="M395,376.1 C395,396.76 395,425.91 395,447.83 " fill="none" id="node_a_ecu_hardware-to-node_a_can_bus" style="stroke:#181818;stroke-width:1.5;stroke-dasharray:7.0,7.0;"/><polygon fill="#181818" points="395,452.95,399,443.95,395,447.95,391,443.95,395,452.95" style="stroke:#181818;stroke-width:1.5;"/><text fill="#000000" font-family="sans-serif" font-size="13" lengthAdjust="spacing" textLength="23" x="404" y="419.0669">can</text></g><!--link node_a_can_bridge to node_a_can_bus--><g id="link_node_a_can_bridge_node_a_can_bus"><path d="M184.59,376.1 C228.94,397.68 292.28,428.51 337.87,450.69 " fill="none" id="node_a_can_bridge-to-node_a_can_bus" style="stroke:#181818;stroke-width:1.5;stroke-dasharray:7.0,7.0;"/><polygon fill="#181818" points="342.5,452.95,336.1615,445.4119,338.0052,450.7599,332.6572,452.6036,342.5,452.95" style="stroke:#181818;stroke-width:1.5;"/><text fill="#000000" font-family="sans-serif" font-size="13" lengthAdjust="spacing" textLength="23" x="288" y="419.0669">can</text></g><!--link node_a_can_bridge to node_cloud_service--><g id="link_node_a_can_bridge_node_cloud_service"><path d="M142.71,376.43 C164.16,428.4 212.31,545.05 235.31,600.76 " fill="none" id="node_a_can_bridge-to-node_cloud_service" style="stroke:#181818;stroke-width:1.5;stroke-dasharray:7.0,7.0;"/><polygon fill="#181818" points="237.32,605.63,237.5659,595.7842,235.404,601.0117,230.1766,598.8498,237.32,605.63" style="stroke:#181818;stroke-width:1.5;"/><text fill="#000000" font-family="sans-serif" font-size="13" lengthAdjust="spacing" textLength="34" x="214" y="484.0669">cloud</text></g><!--link node_b_ecu_software to node_b_ecu_runtime--><g id="link_node_b_ecu_software_node_b_ecu_runtime"><path d="M950,246.1 C950,266.76 950,295.91 950,317.83 " fill="none" id="node_b_ecu_software-to-node_b_ecu_runtime" style="stroke:#181818;stroke-width:1.5;"/><polygon fill="#181818" points="950,322.95,954,313.95,950,317.95,946,313.95,950,322.95" style="stroke:#181818;stroke-width:1.5;"/><text fill="#000000" font-family="sans-serif" font-size="13" lengthAdjust="spacing" textLength="28" x="959" y="289.0669">host</text></g><!--link node_b_ecu_software to node_b_can_bus--><g id="link_node_b_ecu_software_node_b_can_bus"><path d="M997.53,246.11 C1026.38,264 1061.63,290.48 1083,323 C1115.74,372.82 1108.61,393.85 1116,453 C1120.24,486.96 1131.39,499.44 1116,530 C1099.88,562 1068.39,586.42 1039.65,603.29 " fill="none" id="node_b_ecu_software-to-node_b_can_bus" style="stroke:#181818;stroke-width:1.5;stroke-dasharray:7.0,7.0;"/><polygon fill="#181818" points="1035.07,605.93,1044.8666,604.9169,1039.4059,603.4401,1040.8827,597.9794,1035.07,605.93" style="stroke:#181818;stroke-width:1.5;"/><text fill="#000000" font-family="sans-serif" font-size="13" lengthAdjust="spacing" textLength="23" x="1121" y="419.0669">can</text></g><!--link node_b_ecu_runtime to node_b_ecu_hardware--><g id="link_node_b_ecu_runtime_node_b_ecu_hardware"><path d="M955.8,376.1 C960.48,396.76 967.09,425.91 972.05,447.83 " fill="none" id="node_b_ecu_runtime-to-node_b_ecu_hardware" style="stroke:#181818;stroke-width:1.5;"/><polygon fill="#181818" points="973.21,452.95,975.1294,443.29,972.1087,448.0728,967.3259,445.0521,973.21,452.95" style="stroke:#181818;stroke-width:1.5;"/><text fill="#000000" font-family="sans-serif" font-size="13" lengthAdjust="spacing" textLength="28" x="975" y="419.0669">host</text></g><!--link node_b_ecu_hardware to node_b_can_bus--><g id="link_node_b_ecu_hardware_node_b_can_bus"><path d="M979,506.12 C979,532.26 979,572.84 979,600.71 " fill="none" id="node_b_ecu_hardware-to-node_b_can_bus" style="stroke:#181818;stroke-width:1.5;stroke-dasharray:7.0,7.0;"/><polygon fill="#181818" points="979,605.76,983,596.76,979,600.76,975,596.76,979,605.76" style="stroke:#181818;stroke-width:1.5;"/><text fill="#000000" font-family="sans-serif" font-size="13" lengthAdjust="spacing" textLength="23" x="988" y="551.0669">can</text></g><!--link node_b_can_bridge to node_b_can_bus--><g id="link_node_b_can_bridge_node_b_can_bus"><path d="M760.61,506.12 C807.47,533.01 880.95,575.21 929.54,603.1 " fill="none" id="node_b_can_bridge-to-node_b_can_bus" style="stroke:#181818;stroke-width:1.5;stroke-dasharray:7.0,7.0;"/><polygon fill="#181818" points="934.17,605.76,928.346,597.8177,929.8305,603.2762,924.372,604.7608,934.17,605.76" style="stroke:#181818;stroke-width:1.5;"/><text fill="#000000" font-family="sans-serif" font-size="13" lengthAdjust="spacing" textLength="23" x="848" y="551.0669">can</text></g><!--link node_b_can_bridge to node_cloud_service--><g id="link_node_b_can_bridge_node_cloud_service"><path d="M639.5,506.12 C616.24,513.86 590.59,522.33 567,530 C488.36,555.57 398.58,584.08 334.35,604.35 " fill="none" id="node_b_can_bridge-to-node_cloud_service" style="stroke:#181818;stroke-width:1.5;stroke-dasharray:7.0,7.0;"/><polygon fill="#181818" points="329.38,605.92,339.1693,607.0017,334.1444,604.4034,336.7427,599.3786,329.38,605.92" style="stroke:#181818;stroke-width:1.5;"/><text fill="#000000" font-family="sans-serif" font-size="13" lengthAdjust="spacing" textLength="34" x="550" y="551.0669">cloud</text></g><!--SRC=[dLHDZzCm5BpxLrZX0eUDn84BXvMwrI9E5I9mGuhyyT9OTUpAThOWn7_7RP8sJkpiDht5ysRUUpDsxK6e8p6amHmgqahtHIkt8mtWWYXRW14LijSQffkZLg1SuVv8m0QO8selOLH22JliZMuLtsgf3NR6wtZ8aqPL6sFqwKSjs461jVXZ_WcDq4fuyRy8-z-JDXnC9qMbrnwTXlpB-QJvgHOEqB-njb0EJ4NO_Gq2cUlgg-OycznPgBHfY3nhevjangHkUORVIQ4WvyJMm7sVQK5fmRm81h_KU_XDcgE4N6aEDj-UqRpeq0yP9XQVWJ9WpHkMHwDVX1yu8VYjXsUA0m_vFKQYKZFYX5ObMLg5bC3QqkhAdVmjcRL-tlxCYnuSDGvPQ2veMkL44zVxtc4pkPuJKQk9uSdnllRWJ6zWJGGPKILjhTVoytD6pE3oPXT8z7KnjX5y7ybziykVBj1SvtAS2eWk1KHN1KJJ0T4L0T5aG7HLG3GT47rZG3GQ4Bqx83e92A7vOyKF3u-n5uS_umpZMbkNeSYxkD622_uQAyyV9tUmO_YFLmXXwZrBA-Nz2PZ389FvXZmI0rxXjmnuCtLrUHX1HxdyCwFOijTTwABND6bTOZOQTumkEqOJZYsqYLbmPtdQiVy0]--></g></svg>