<?xml version="1.0" encoding="us-ascii" standalone="no"?><svg xmlns="http://www.w3.org/2000/svg" xmlns:xlink="http://www.w3.org/1999/xlink" contentStyleType="text/css" height="241px" preserveAspectRatio="none" style="width:343px;height:241px;background:#FFFFFF;" version="1.1" viewBox="0 0 343 241" width="343px" zoomAndPan="magnify"><defs/><g><!--entity Variability Expression--><g id="elem_Variability Expression"><rect fill="#F1F1F1" height="36.2969" rx="2.5" ry="2.5" style="stroke:#181818;stroke-width:0.5;" width="175" x="78" y="7"/><text fill="#000000" font-family="sans-serif" font-size="14" lengthAdjust="spacing" textLength="155" x="88" y="29.9951">Variability Expression</text></g><!--entity Value Expression--><g id="elem_Value Expression"><rect fill="#F1F1F1" height="36.2969" rx="2.5" ry="2.5" style="stroke:#181818;stroke-width:0.5;" width="141" x="7" y="103"/><text fill="#000000" font-family="sans-serif" font-size="14" lengthAdjust="spacing" textLength="121" x="17" y="125.9951">Value Expression</text></g><!--entity Logic Expression--><g id="elem_Logic Expression"><rect fill="#F1F1F1" height="36.2969" rx="2.5" ry="2.5" style="stroke:#181818;stroke-width:0.5;" width="140" x="183.5" y="103"/><text fill="#000000" font-family="sans-serif" font-size="14" lengthAdjust="spacing" textLength="120" x="193.5" y="125.9951">Logic Expression</text></g><!--entity Variability Condition--><g id="elem_Variability Condition"><rect fill="#F1F1F1" height="36.2969" rx="2.5" ry="2.5" style="stroke:#181818;stroke-width:0.5;" width="167" x="170" y="199"/><text fill="#000000" font-family="sans-serif" font-size="14" lengthAdjust="spacing" textLength="147" x="180" y="221.9951">Variability Condition</text></g><!--reverse link Variability Expression to Value Expression--><g id="link_Variability Expression_Value Expression"><path d="M135.275,58.286 C121.261,73.256 105.1726,90.441 93.5382,102.868 " fill="none" id="Variability Expression-backto-Value Expression" style="stroke:#181818;stroke-width:1.0;"/><polygon fill="none" points="130.581,53.058,149.359,43.241,140.801,62.625,130.581,53.058" style="stroke:#181818;stroke-width:1.0;"/></g><!--reverse link Variability Expression to Logic Expression--><g id="link_Variability Expression_Logic Expression"><path d="M195.725,58.286 C209.739,73.256 225.827,90.441 237.462,102.868 " fill="none" id="Variability Expression-backto-Logic Expression" style="stroke:#181818;stroke-width:1.0;"/><polygon fill="none" points="190.199,62.625,181.641,43.241,200.419,53.058,190.199,62.625" style="stroke:#181818;stroke-width:1.0;"/></g><!--reverse link Logic Expression to Variability Condition--><g id="link_Logic Expression_Variability Condition"><path d="M253.5,159.621 C253.5,173.2125 253.5,187.8949 253.5,198.8683 " fill="none" id="Logic Expression-backto-Variability Condition" style="stroke:#181818;stroke-width:1.0;"/><polygon fill="none" points="246.5,159.2411,253.5,139.241,260.5,159.241,246.5,159.2411" style="stroke:#181818;stroke-width:1.0;"/></g><!--SRC=[AyxEp2j8B4hCLKZEpot8pqlDAmakgSn9LIXAJIv9p4lFIUNYueAp5PJ24eio4vCoSp9BAXLSAmgAKekBC_FpbD3Kv9IcufJroK_FJCQZ5s6-StvUIcO9H0aNBfiLR6fqTR7QIK075dTWYi5Dn-Og0000]--></g></svg>