<svg xmlns="http://www.w3.org/2000/svg" xmlns:xlink="http://www.w3.org/1999/xlink" contentStyleType="text/css" height="433px" preserveAspectRatio="none" style="width:1467px;height:433px;background:#FFFFFF;" version="1.1" viewBox="0 0 1467 433" width="1467px" zoomAndPan="magnify"><defs/><g><!--entity node--><g id="elem_node"><rect fill="#F1F1F1" height="36.2969" rx="2.5" ry="2.5" style="stroke:#181818;stroke-width:0.5;" width="56" x="683.5" y="103"/><text fill="#000000" font-family="sans-serif" font-size="14" lengthAdjust="spacing" textLength="36" x="693.5" y="125.9951">node</text></g><!--entity cloud.provider--><g id="elem_cloud.provider"><rect fill="#F1F1F1" height="36.2969" rx="2.5" ry="2.5" style="stroke:#181818;stroke-width:0.5;" width="118" x="111.5" y="199"/><text fill="#000000" font-family="sans-serif" font-size="14" lengthAdjust="spacing" textLength="98" x="121.5" y="221.9951">cloud.provider</text></g><!--entity cloud.service--><g id="elem_cloud.service"><rect fill="#F1F1F1" height="36.2969" rx="2.5" ry="2.5" style="stroke:#181818;stroke-width:0.5;" width="111" x="265" y="199"/><text fill="#000000" font-family="sans-serif" font-size="14" lengthAdjust="spacing" textLength="91" x="275" y="221.9951">cloud.service</text></g><!--entity software.component--><g id="elem_software.component"><rect fill="#F1F1F1" height="36.2969" rx="2.5" ry="2.5" style="stroke:#181818;stroke-width:0.5;" width="163" x="411" y="199"/><text fill="#000000" font-family="sans-serif" font-size="14" lengthAdjust="spacing" textLength="143" x="421" y="221.9951">software.component</text></g><!--entity service.component--><g id="elem_service.component"><rect fill="#F1F1F1" height="36.2969" rx="2.5" ry="2.5" style="stroke:#181818;stroke-width:0.5;" width="153" x="7" y="295"/><text fill="#000000" font-family="sans-serif" font-size="14" lengthAdjust="spacing" textLength="133" x="17" y="317.9951">service.component</text></g><!--entity software.runtime--><g id="elem_software.runtime"><rect fill="#F1F1F1" height="36.2969" rx="2.5" ry="2.5" style="stroke:#181818;stroke-width:0.5;" width="136" x="195.5" y="295"/><text fill="#000000" font-family="sans-serif" font-size="14" lengthAdjust="spacing" textLength="116" x="205.5" y="317.9951">software.runtime</text></g><!--entity container.runtime--><g id="elem_container.runtime"><rect fill="#F1F1F1" height="36.2969" rx="2.5" ry="2.5" style="stroke:#181818;stroke-width:0.5;" width="142" x="174.5" y="391"/><text fill="#000000" font-family="sans-serif" font-size="14" lengthAdjust="spacing" textLength="122" x="184.5" y="413.9951">container.runtime</text></g><!--entity machine--><g id="elem_machine"><rect fill="#F1F1F1" height="36.2969" rx="2.5" ry="2.5" style="stroke:#181818;stroke-width:0.5;" width="79" x="672" y="199"/><text fill="#000000" font-family="sans-serif" font-size="14" lengthAdjust="spacing" textLength="59" x="682" y="221.9951">machine</text></g><!--entity local.machine--><g id="elem_local.machine"><rect fill="#F1F1F1" height="36.2969" rx="2.5" ry="2.5" style="stroke:#181818;stroke-width:0.5;" width="114" x="558.5" y="295"/><text fill="#000000" font-family="sans-serif" font-size="14" lengthAdjust="spacing" textLength="94" x="568.5" y="317.9951">local.machine</text></g><!--entity remote.machine--><g id="elem_remote.machine"><rect fill="#F1F1F1" height="36.2969" rx="2.5" ry="2.5" style="stroke:#181818;stroke-width:0.5;" width="133" x="708" y="295"/><text fill="#000000" font-family="sans-serif" font-size="14" lengthAdjust="spacing" textLength="113" x="718" y="317.9951">remote.machine</text></g><!--entity virtual.machine--><g id="elem_virtual.machine"><rect fill="#F1F1F1" height="36.2969" rx="2.5" ry="2.5" style="stroke:#181818;stroke-width:0.5;" width="123" x="630" y="391"/><text fill="#000000" font-family="sans-serif" font-size="14" lengthAdjust="spacing" textLength="103" x="640" y="413.9951">virtual.machine</text></g><!--entity physical.machine--><g id="elem_physical.machine"><rect fill="#F1F1F1" height="36.2969" rx="2.5" ry="2.5" style="stroke:#181818;stroke-width:0.5;" width="138" x="788.5" y="391"/><text fill="#000000" font-family="sans-serif" font-size="14" lengthAdjust="spacing" textLength="118" x="798.5" y="413.9951">physical.machine</text></g><!--entity database--><g id="elem_database"><rect fill="#F1F1F1" height="36.2969" rx="2.5" ry="2.5" style="stroke:#181818;stroke-width:0.5;" width="84" x="848.5" y="199"/><text fill="#000000" font-family="sans-serif" font-size="14" lengthAdjust="spacing" textLength="64" x="858.5" y="221.9951">database</text></g><!--entity relational.database--><g id="elem_relational.database"><rect fill="#F1F1F1" height="36.2969" rx="2.5" ry="2.5" style="stroke:#181818;stroke-width:0.5;" width="150" x="876.5" y="295"/><text fill="#000000" font-family="sans-serif" font-size="14" lengthAdjust="spacing" textLength="130" x="886.5" y="317.9951">relational.database</text></g><!--entity dbms--><g id="elem_dbms"><rect fill="#F1F1F1" height="36.2969" rx="2.5" ry="2.5" style="stroke:#181818;stroke-width:0.5;" width="59" x="367" y="295"/><text fill="#000000" font-family="sans-serif" font-size="14" lengthAdjust="spacing" textLength="39" x="377" y="317.9951">dbms</text></g><!--entity relational.dbms--><g id="elem_relational.dbms"><rect fill="#F1F1F1" height="36.2969" rx="2.5" ry="2.5" style="stroke:#181818;stroke-width:0.5;" width="125" x="352" y="391"/><text fill="#000000" font-family="sans-serif" font-size="14" lengthAdjust="spacing" textLength="105" x="362" y="413.9951">relational.dbms</text></g><!--entity cache--><g id="elem_cache"><rect fill="#F1F1F1" height="36.2969" rx="2.5" ry="2.5" style="stroke:#181818;stroke-width:0.5;" width="62" x="461.5" y="295"/><text fill="#000000" font-family="sans-serif" font-size="14" lengthAdjust="spacing" textLength="42" x="471.5" y="317.9951">cache</text></g><!--entity storage--><g id="elem_storage"><rect fill="#F1F1F1" height="36.2969" rx="2.5" ry="2.5" style="stroke:#181818;stroke-width:0.5;" width="73" x="1082" y="199"/><text fill="#000000" font-family="sans-serif" font-size="14" lengthAdjust="spacing" textLength="53" x="1092" y="221.9951">storage</text></g><!--entity block.storage--><g id="elem_block.storage"><rect fill="#F1F1F1" height="36.2969" rx="2.5" ry="2.5" style="stroke:#181818;stroke-width:0.5;" width="114" x="1061.5" y="295"/><text fill="#000000" font-family="sans-serif" font-size="14" lengthAdjust="spacing" textLength="94" x="1071.5" y="317.9951">block.storage</text></g><!--entity object.storage--><g id="elem_object.storage"><rect fill="#F1F1F1" height="36.2969" rx="2.5" ry="2.5" style="stroke:#181818;stroke-width:0.5;" width="120" x="1210.5" y="295"/><text fill="#000000" font-family="sans-serif" font-size="14" lengthAdjust="spacing" textLength="100" x="1220.5" y="317.9951">object.storage</text></g><!--entity file.storage--><g id="elem_file.storage"><rect fill="#F1F1F1" height="36.2969" rx="2.5" ry="2.5" style="stroke:#181818;stroke-width:0.5;" width="96" x="1365.5" y="295"/><text fill="#000000" font-family="sans-serif" font-size="14" lengthAdjust="spacing" textLength="76" x="1375.5" y="317.9951">file.storage</text></g><!--entity ingress--><g id="elem_ingress"><rect fill="#F1F1F1" height="36.2969" rx="2.5" ry="2.5" style="stroke:#181818;stroke-width:0.5;" width="71" x="1190" y="199"/><text fill="#000000" font-family="sans-serif" font-size="14" lengthAdjust="spacing" textLength="51" x="1200" y="221.9951">ingress</text></g><!--entity tosca.nodes.Root--><g id="elem_tosca.nodes.Root"><ellipse cx="711.5" cy="14" fill="#F1F1F1" rx="8" ry="8" style="stroke:#181818;stroke-width:0.5;"/><text fill="#000000" font-family="sans-serif" font-size="14" lengthAdjust="spacing" textLength="123" x="650" y="43.9951">tosca.nodes.Root</text></g><!--reverse link tosca.nodes.Root to node--><g id="link_tosca.nodes.Root_node"><path d="M711.5,43.42 C711.5,62.44 711.5,86.85 711.5,102.93 " fill="none" id="tosca.nodes.Root-backto-node" style="stroke:#181818;stroke-width:1.0;"/><polygon fill="none" points="704.5,43.24,711.5,23.24,718.5,43.24,704.5,43.24" style="stroke:#181818;stroke-width:1.0;"/></g><!--reverse link node to cloud.provider--><g id="link_node_cloud.provider"><path d="M663.41,129.12 C578.98,141.82 398.72,169.78 247.5,199 C241.72,200.12 235.71,201.34 229.71,202.6 " fill="none" id="node-backto-cloud.provider" style="stroke:#181818;stroke-width:1.0;"/><polygon fill="none" points="662.61,122.16,683.43,126.13,664.68,136.01,662.61,122.16" style="stroke:#181818;stroke-width:1.0;"/></g><!--reverse link node to cloud.service--><g id="link_node_cloud.service"><path d="M663.93,133.44 C591.36,150.88 453.35,184.06 376.21,202.61 " fill="none" id="node-backto-cloud.service" style="stroke:#181818;stroke-width:1.0;"/><polygon fill="none" points="662.3,126.63,683.38,128.76,665.57,140.24,662.3,126.63" style="stroke:#181818;stroke-width:1.0;"/></g><!--reverse link node to software.component--><g id="link_node_software.component"><path d="M664.68,142.1 C625.33,158.98 569.72,182.86 532.45,198.85 " fill="none" id="node-backto-software.component" style="stroke:#181818;stroke-width:1.0;"/><polygon fill="none" points="662.18,135.55,683.32,134.1,667.7,148.42,662.18,135.55" style="stroke:#181818;stroke-width:1.0;"/></g><!--reverse link software.component to service.component--><g id="link_software.component_service.component"><path d="M398.57,239.59 C325.42,256.4 225.29,279.41 157.71,294.95 " fill="none" id="software.component-backto-service.component" style="stroke:#181818;stroke-width:1.0;"/><polygon fill="none" points="397.37,232.68,418.43,235.02,400.51,246.32,397.37,232.68" style="stroke:#181818;stroke-width:1.0;"/></g><!--reverse link software.component to software.runtime--><g id="link_software.component_software.runtime"><path d="M432.4,242.67 C392.31,259.13 340.63,280.34 305.05,294.95 " fill="none" id="software.component-backto-software.runtime" style="stroke:#181818;stroke-width:1.0;"/><polygon fill="none" points="429.87,236.14,451.03,235.02,435.19,249.09,429.87,236.14" style="stroke:#181818;stroke-width:1.0;"/></g><!--reverse link software.runtime to container.runtime--><g id="link_software.runtime_container.runtime"><path d="M256.39,351.13 C253.76,364.86 250.91,379.76 248.78,390.87 " fill="none" id="software.runtime-backto-container.runtime" style="stroke:#181818;stroke-width:1.0;"/><polygon fill="none" points="249.56,349.57,260.2,331.24,263.31,352.2,249.56,349.57" style="stroke:#181818;stroke-width:1.0;"/></g><!--reverse link node to machine--><g id="link_node_machine"><path d="M711.5,159.62 C711.5,173.21 711.5,187.89 711.5,198.87 " fill="none" id="node-backto-machine" style="stroke:#181818;stroke-width:1.0;"/><polygon fill="none" points="704.5,159.24,711.5,139.24,718.5,159.24,704.5,159.24" style="stroke:#181818;stroke-width:1.0;"/></g><!--reverse link machine to local.machine--><g id="link_machine_local.machine"><path d="M679.5,249.33 C663.99,264.52 645.96,282.18 633,294.87 " fill="none" id="machine-backto-local.machine" style="stroke:#181818;stroke-width:1.0;"/><polygon fill="none" points="674.7,244.23,693.89,235.24,684.5,254.24,674.7,244.23" style="stroke:#181818;stroke-width:1.0;"/></g><!--reverse link machine to remote.machine--><g id="link_machine_remote.machine"><path d="M734.43,252.21 C744.15,266.71 755.04,282.97 763.02,294.87 " fill="none" id="machine-backto-remote.machine" style="stroke:#181818;stroke-width:1.0;"/><polygon fill="none" points="728.38,255.75,723.06,235.24,740,247.96,728.38,255.75" style="stroke:#181818;stroke-width:1.0;"/></g><!--reverse link remote.machine to virtual.machine--><g id="link_remote.machine_virtual.machine"><path d="M745.99,346.29 C732.77,361.26 717.6,378.44 706.63,390.87 " fill="none" id="remote.machine-backto-virtual.machine" style="stroke:#181818;stroke-width:1.0;"/><polygon fill="none" points="740.79,341.6,759.28,331.24,751.29,350.87,740.79,341.6" style="stroke:#181818;stroke-width:1.0;"/></g><!--reverse link remote.machine to physical.machine--><g id="link_remote.machine_physical.machine"><path d="M803.01,346.29 C816.23,361.26 831.4,378.44 842.37,390.87 " fill="none" id="remote.machine-backto-physical.machine" style="stroke:#181818;stroke-width:1.0;"/><polygon fill="none" points="797.71,350.87,789.72,331.24,808.21,341.6,797.71,350.87" style="stroke:#181818;stroke-width:1.0;"/></g><!--reverse link node to database--><g id="link_node_database"><path d="M757.58,146.2 C789.04,162.72 829.95,184.2 858.03,198.95 " fill="none" id="node-backto-database" style="stroke:#181818;stroke-width:1.0;"/><polygon fill="none" points="754.32,152.39,739.86,136.89,760.82,140,754.32,152.39" style="stroke:#181818;stroke-width:1.0;"/></g><!--reverse link database to relational.database--><g id="link_database_relational.database"><path d="M912.7,252.21 C922.11,266.71 932.66,282.97 940.38,294.87 " fill="none" id="database-backto-relational.database" style="stroke:#181818;stroke-width:1.0;"/><polygon fill="none" points="906.7,255.83,901.69,235.24,918.45,248.21,906.7,255.83" style="stroke:#181818;stroke-width:1.0;"/></g><!--reverse link software.component to dbms--><g id="link_software.component_dbms"><path d="M460.5,249.33 C444.99,264.52 426.96,282.18 414,294.87 " fill="none" id="software.component-backto-dbms" style="stroke:#181818;stroke-width:1.0;"/><polygon fill="none" points="455.7,244.23,474.89,235.24,465.5,254.24,455.7,244.23" style="stroke:#181818;stroke-width:1.0;"/></g><!--reverse link dbms to relational.dbms--><g id="link_dbms_relational.dbms"><path d="M403.61,351.13 C406.24,364.86 409.09,379.76 411.22,390.87 " fill="none" id="dbms-backto-relational.dbms" style="stroke:#181818;stroke-width:1.0;"/><polygon fill="none" points="396.69,352.2,399.8,331.24,410.44,349.57,396.69,352.2" style="stroke:#181818;stroke-width:1.0;"/></g><!--reverse link software.component to cache--><g id="link_software.component_cache"><path d="M492.5,255.62 C492.5,269.21 492.5,283.89 492.5,294.87 " fill="none" id="software.component-backto-cache" style="stroke:#181818;stroke-width:1.0;"/><polygon fill="none" points="485.5,255.24,492.5,235.24,499.5,255.24,485.5,255.24" style="stroke:#181818;stroke-width:1.0;"/></g><!--reverse link node to storage--><g id="link_node_storage"><path d="M759.49,133.08 C841.77,152.09 1008.04,190.49 1081.81,207.53 " fill="none" id="node-backto-storage" style="stroke:#181818;stroke-width:1.0;"/><polygon fill="none" points="757.71,139.86,739.8,128.54,760.86,126.22,757.71,139.86" style="stroke:#181818;stroke-width:1.0;"/></g><!--reverse link storage to block.storage--><g id="link_storage_block.storage"><path d="M1118.5,255.62 C1118.5,269.21 1118.5,283.89 1118.5,294.87 " fill="none" id="storage-backto-block.storage" style="stroke:#181818;stroke-width:1.0;"/><polygon fill="none" points="1111.5,255.24,1118.5,235.24,1125.5,255.24,1111.5,255.24" style="stroke:#181818;stroke-width:1.0;"/></g><!--reverse link storage to object.storage--><g id="link_storage_object.storage"><path d="M1163.18,245.63 C1189.02,261.61 1220.7,281.2 1242.92,294.95 " fill="none" id="storage-backto-object.storage" style="stroke:#181818;stroke-width:1.0;"/><polygon fill="none" points="1159.35,251.5,1146.03,235.02,1166.72,239.59,1159.35,251.5" style="stroke:#181818;stroke-width:1.0;"/></g><!--reverse link storage to file.storage--><g id="link_storage_file.storage"><path d="M1174.57,235.87 C1229.8,253.46 1313.25,280.06 1365.5,296.7 " fill="none" id="storage-backto-file.storage" style="stroke:#181818;stroke-width:1.0;"/><polygon fill="none" points="1172.2,242.46,1155.27,229.72,1176.45,229.12,1172.2,242.46" style="stroke:#181818;stroke-width:1.0;"/></g><!--reverse link node to ingress--><g id="link_node_ingress"><path d="M759.59,127.7 C843.95,138.21 1023.76,162.93 1172.5,199 C1178.13,200.37 1184.04,202.03 1189.78,203.77 " fill="none" id="node-backto-ingress" style="stroke:#181818;stroke-width:1.0;"/><polygon fill="none" points="758.59,134.63,739.59,125.25,760.29,120.73,758.59,134.63" style="stroke:#181818;stroke-width:1.0;"/></g><!--SRC=[VP9HReCm343_EGNYlvnWfzXEO8BRParYb1YcIZlyg82m94w_Olpis0elFBIRm8Dj5Tc973h-ugV1rgDYS3U3JTF4kEqSZTWb6MLe7ll9qw97z18Bw1UjihP0L_u1ZtsSc_6jgOgFTZyxrZRVYHo3TkXbR47TLvec3IamlOWyMcAKsQ8zpxN6wVuCkdhj20m3X6AO0TRarYwvO1nigBSKKAsZyxTdyd3BaiFw08zUH3Hyhnyoksg3Cj7kvZ6yjcawfg2WVyaJ-ayYxjgFtyibwhITUwuGIg2dKWaKfPAoHxqWsRloKheoT-mfA9ZiUYeHmvta9kQyq37Fx7MbcfL2GTDarNyUdd5SHjBrpIFkXcwdSCcEwnSSGgT_FXeOmvtaNkUya3ilo0nFnaR7_m00]--></g></svg>