<svg xmlns="http://www.w3.org/2000/svg" xmlns:xlink="http://www.w3.org/1999/xlink" contentStyleType="text/css" height="145px" preserveAspectRatio="none" style="width:559px;height:145px;background:#FFFFFF;" version="1.1" viewBox="0 0 559 145" width="559px" zoomAndPan="magnify"><defs/><g><!--entity docker.image--><g id="elem_docker.image"><rect fill="#F1F1F1" height="36.2969" rx="2.5" ry="2.5" style="stroke:#181818;stroke-width:0.5;" width="114" x="7" y="103"/><text fill="#000000" font-family="sans-serif" font-size="14" lengthAdjust="spacing" textLength="94" x="17" y="125.9951">docker.image</text></g><!--entity zip.archive--><g id="elem_zip.archive"><rect fill="#F1F1F1" height="36.2969" rx="2.5" ry="2.5" style="stroke:#181818;stroke-width:0.5;" width="93" x="156.5" y="103"/><text fill="#000000" font-family="sans-serif" font-size="14" lengthAdjust="spacing" textLength="73" x="166.5" y="125.9951">zip.archive</text></g><!--entity tar.archive--><g id="elem_tar.archive"><rect fill="#F1F1F1" height="36.2969" rx="2.5" ry="2.5" style="stroke:#181818;stroke-width:0.5;" width="91" x="284.5" y="103"/><text fill="#000000" font-family="sans-serif" font-size="14" lengthAdjust="spacing" textLength="71" x="294.5" y="125.9951">tar.archive</text></g><!--entity apt.package--><g id="elem_apt.package"><rect fill="#F1F1F1" height="36.2969" rx="2.5" ry="2.5" style="stroke:#181818;stroke-width:0.5;" width="105" x="443.5" y="103"/><text fill="#000000" font-family="sans-serif" font-size="14" lengthAdjust="spacing" textLength="85" x="453.5" y="125.9951">apt.package</text></g><!--entity container.image--><g id="elem_container.image"><ellipse cx="64" cy="14" fill="#F1F1F1" rx="8" ry="8" style="stroke:#181818;stroke-width:0.5;"/><text fill="#000000" font-family="sans-serif" font-size="14" lengthAdjust="spacing" textLength="111" x="8.5" y="43.9951">container.image</text></g><!--entity source.archive--><g id="elem_source.archive"><ellipse cx="296" cy="14" fill="#F1F1F1" rx="8" ry="8" style="stroke:#181818;stroke-width:0.5;"/><text fill="#000000" font-family="sans-serif" font-size="14" lengthAdjust="spacing" textLength="101" x="245.5" y="43.9951">source.archive</text></g><!--entity system.package--><g id="elem_system.package"><ellipse cx="496" cy="14" fill="#F1F1F1" rx="8" ry="8" style="stroke:#181818;stroke-width:0.5;"/><text fill="#000000" font-family="sans-serif" font-size="14" lengthAdjust="spacing" textLength="113" x="439.5" y="43.9951">system.package</text></g><!--reverse link container.image to docker.image--><g id="link_container.image_docker.image"><path d="M64,43.42 C64,62.44 64,86.85 64,102.93 " fill="none" id="container.image-backto-docker.image" style="stroke:#181818;stroke-width:1.0;"/><polygon fill="none" points="57,43.24,64,23.24,71,43.24,57,43.24" style="stroke:#181818;stroke-width:1.0;"/></g><!--reverse link source.archive to zip.archive--><g id="link_source.archive_zip.archive"><path d="M275.2,38.49 C257.88,58.04 233.63,85.42 218.12,102.93 " fill="none" id="source.archive-backto-zip.archive" style="stroke:#181818;stroke-width:1.0;"/><polygon fill="none" points="270.2,33.57,288.7,23.24,280.68,42.85,270.2,33.57" style="stroke:#181818;stroke-width:1.0;"/></g><!--reverse link source.archive to tar.archive--><g id="link_source.archive_tar.archive"><path d="M304.9,42.48 C311.1,61.63 319.18,86.58 324.47,102.93 " fill="none" id="source.archive-backto-tar.archive" style="stroke:#181818;stroke-width:1.0;"/><polygon fill="none" points="298.17,44.42,298.67,23.24,311.49,40.11,298.17,44.42" style="stroke:#181818;stroke-width:1.0;"/></g><!--reverse link system.package to apt.package--><g id="link_system.package_apt.package"><path d="M496,43.42 C496,62.44 496,86.85 496,102.93 " fill="none" id="system.package-backto-apt.package" style="stroke:#181818;stroke-width:1.0;"/><polygon fill="none" points="489,43.24,496,23.24,503,43.24,489,43.24" style="stroke:#181818;stroke-width:1.0;"/></g><!--SRC=[TOxB2GCn34JlhiBelguWNQG2eOYDy5esiXBOaE9po69mFhU1zvYPdaKR6fP8jRIgh7xsVUDeJ8wwRXn263d2fL9cIr9mPPZ8Grf2ewlSFu2Z_GROF3Ma_AuAG5KTHKTzF3sNvMiIUhqPyQWyh7d-ZpHVWRvtvp8-7D9qwmK0]--></g></svg>