<svg xmlns="http://www.w3.org/2000/svg" xmlns:xlink="http://www.w3.org/1999/xlink" contentStyleType="text/css" height="241px" preserveAspectRatio="none" style="width:3586px;height:241px;background:#FFFFFF;" version="1.1" viewBox="0 0 3586 241" width="3586px" zoomAndPan="magnify"><defs/><g><!--entity nodejs.runtime--><g id="elem_nodejs.runtime"><rect fill="#F1F1F1" height="36.2969" rx="2.5" ry="2.5" style="stroke:#181818;stroke-width:0.5;" width="124" x="7" y="103"/><text fill="#000000" font-family="sans-serif" font-size="14" lengthAdjust="spacing" textLength="104" x="17" y="125.9951">nodejs.runtime</text></g><!--entity nodejs.service.application--><g id="elem_nodejs.service.application"><rect fill="#F1F1F1" height="36.2969" rx="2.5" ry="2.5" style="stroke:#181818;stroke-width:0.5;" width="198" x="623" y="103"/><text fill="#000000" font-family="sans-serif" font-size="14" lengthAdjust="spacing" textLength="178" x="633" y="125.9951">nodejs.service.application</text></g><!--entity reactjs.service.application--><g id="elem_reactjs.service.application"><rect fill="#F1F1F1" height="36.2969" rx="2.5" ry="2.5" style="stroke:#181818;stroke-width:0.5;" width="197" x="856.5" y="103"/><text fill="#000000" font-family="sans-serif" font-size="14" lengthAdjust="spacing" textLength="177" x="866.5" y="125.9951">reactjs.service.application</text></g><!--entity python.runtime--><g id="elem_python.runtime"><rect fill="#F1F1F1" height="36.2969" rx="2.5" ry="2.5" style="stroke:#181818;stroke-width:0.5;" width="125" x="166.5" y="103"/><text fill="#000000" font-family="sans-serif" font-size="14" lengthAdjust="spacing" textLength="105" x="176.5" y="125.9951">python.runtime</text></g><!--entity python.service.application--><g id="elem_python.service.application"><rect fill="#F1F1F1" height="36.2969" rx="2.5" ry="2.5" style="stroke:#181818;stroke-width:0.5;" width="199" x="1088.5" y="103"/><text fill="#000000" font-family="sans-serif" font-size="14" lengthAdjust="spacing" textLength="179" x="1098.5" y="125.9951">python.service.application</text></g><!--entity go.service.application--><g id="elem_go.service.application"><rect fill="#F1F1F1" height="36.2969" rx="2.5" ry="2.5" style="stroke:#181818;stroke-width:0.5;" width="169" x="1322.5" y="103"/><text fill="#000000" font-family="sans-serif" font-size="14" lengthAdjust="spacing" textLength="149" x="1332.5" y="125.9951">go.service.application</text></g><!--entity java.runtime--><g id="elem_java.runtime"><rect fill="#F1F1F1" height="36.2969" rx="2.5" ry="2.5" style="stroke:#181818;stroke-width:0.5;" width="103" x="326.5" y="103"/><text fill="#000000" font-family="sans-serif" font-size="14" lengthAdjust="spacing" textLength="83" x="336.5" y="125.9951">java.runtime</text></g><!--entity java.service.application--><g id="elem_java.service.application"><rect fill="#F1F1F1" height="36.2969" rx="2.5" ry="2.5" style="stroke:#181818;stroke-width:0.5;" width="177" x="1526.5" y="103"/><text fill="#000000" font-family="sans-serif" font-size="14" lengthAdjust="spacing" textLength="157" x="1536.5" y="125.9951">java.service.application</text></g><!--entity dotnet.runtime--><g id="elem_dotnet.runtime"><rect fill="#F1F1F1" height="36.2969" rx="2.5" ry="2.5" style="stroke:#181818;stroke-width:0.5;" width="123" x="464.5" y="103"/><text fill="#000000" font-family="sans-serif" font-size="14" lengthAdjust="spacing" textLength="103" x="474.5" y="125.9951">dotnet.runtime</text></g><!--entity csharp.service.application--><g id="elem_csharp.service.application"><rect fill="#F1F1F1" height="36.2969" rx="2.5" ry="2.5" style="stroke:#181818;stroke-width:0.5;" width="198" x="1739" y="103"/><text fill="#000000" font-family="sans-serif" font-size="14" lengthAdjust="spacing" textLength="178" x="1749" y="125.9951">csharp.service.application</text></g><!--entity binary.service.application--><g id="elem_binary.service.application"><rect fill="#F1F1F1" height="36.2969" rx="2.5" ry="2.5" style="stroke:#181818;stroke-width:0.5;" width="192" x="1972" y="103"/><text fill="#000000" font-family="sans-serif" font-size="14" lengthAdjust="spacing" textLength="172" x="1982" y="125.9951">binary.service.application</text></g><!--entity gcp.provider--><g id="elem_gcp.provider"><rect fill="#F1F1F1" height="36.2969" rx="2.5" ry="2.5" style="stroke:#181818;stroke-width:0.5;" width="106" x="2338" y="103"/><text fill="#000000" font-family="sans-serif" font-size="14" lengthAdjust="spacing" textLength="86" x="2348" y="125.9951">gcp.provider</text></g><!--entity gcp.service--><g id="elem_gcp.service"><rect fill="#F1F1F1" height="36.2969" rx="2.5" ry="2.5" style="stroke:#181818;stroke-width:0.5;" width="99" x="2667.5" y="103"/><text fill="#000000" font-family="sans-serif" font-size="14" lengthAdjust="spacing" textLength="79" x="2677.5" y="125.9951">gcp.service</text></g><!--entity gcp.cloudrun--><g id="elem_gcp.cloudrun"><rect fill="#F1F1F1" height="36.2969" rx="2.5" ry="2.5" style="stroke:#181818;stroke-width:0.5;" width="111" x="2079.5" y="199"/><text fill="#000000" font-family="sans-serif" font-size="14" lengthAdjust="spacing" textLength="91" x="2089.5" y="221.9951">gcp.cloudrun</text></g><!--entity gcp.cloudsql--><g id="elem_gcp.cloudsql"><rect fill="#F1F1F1" height="36.2969" rx="2.5" ry="2.5" style="stroke:#181818;stroke-width:0.5;" width="108" x="2226" y="199"/><text fill="#000000" font-family="sans-serif" font-size="14" lengthAdjust="spacing" textLength="88" x="2236" y="221.9951">gcp.cloudsql</text></g><!--entity gcp.appengine--><g id="elem_gcp.appengine"><rect fill="#F1F1F1" height="36.2969" rx="2.5" ry="2.5" style="stroke:#181818;stroke-width:0.5;" width="124" x="2369" y="199"/><text fill="#000000" font-family="sans-serif" font-size="14" lengthAdjust="spacing" textLength="104" x="2379" y="221.9951">gcp.appengine</text></g><!--entity gcp.appenginereporting--><g id="elem_gcp.appenginereporting"><rect fill="#F1F1F1" height="36.2969" rx="2.5" ry="2.5" style="stroke:#181818;stroke-width:0.5;" width="187" x="2528.5" y="199"/><text fill="#000000" font-family="sans-serif" font-size="14" lengthAdjust="spacing" textLength="167" x="2538.5" y="221.9951">gcp.appenginereporting</text></g><!--entity gcp.cloudbuild--><g id="elem_gcp.cloudbuild"><rect fill="#F1F1F1" height="36.2969" rx="2.5" ry="2.5" style="stroke:#181818;stroke-width:0.5;" width="121" x="2750.5" y="199"/><text fill="#000000" font-family="sans-serif" font-size="14" lengthAdjust="spacing" textLength="101" x="2760.5" y="221.9951">gcp.cloudbuild</text></g><!--entity gcp.kubernetesengine--><g id="elem_gcp.kubernetesengine"><rect fill="#F1F1F1" height="36.2969" rx="2.5" ry="2.5" style="stroke:#181818;stroke-width:0.5;" width="178" x="2907" y="199"/><text fill="#000000" font-family="sans-serif" font-size="14" lengthAdjust="spacing" textLength="158" x="2917" y="221.9951">gcp.kubernetesengine</text></g><!--entity gcp.cloudstorage--><g id="elem_gcp.cloudstorage"><rect fill="#F1F1F1" height="36.2969" rx="2.5" ry="2.5" style="stroke:#181818;stroke-width:0.5;" width="141" x="3120.5" y="199"/><text fill="#000000" font-family="sans-serif" font-size="14" lengthAdjust="spacing" textLength="121" x="3130.5" y="221.9951">gcp.cloudstorage</text></g><!--entity gcp.memorystore--><g id="elem_gcp.memorystore"><rect fill="#F1F1F1" height="36.2969" rx="2.5" ry="2.5" style="stroke:#181818;stroke-width:0.5;" width="142" x="3297" y="199"/><text fill="#000000" font-family="sans-serif" font-size="14" lengthAdjust="spacing" textLength="122" x="3307" y="221.9951">gcp.memorystore</text></g><!--entity docker.engine--><g id="elem_docker.engine"><rect fill="#F1F1F1" height="36.2969" rx="2.5" ry="2.5" style="stroke:#181818;stroke-width:0.5;" width="120" x="2988" y="103"/><text fill="#000000" font-family="sans-serif" font-size="14" lengthAdjust="spacing" textLength="100" x="2998" y="125.9951">docker.engine</text></g><!--entity kubernetes.cluster--><g id="elem_kubernetes.cluster"><rect fill="#F1F1F1" height="36.2969" rx="2.5" ry="2.5" style="stroke:#181818;stroke-width:0.5;" width="151" x="2801.5" y="103"/><text fill="#000000" font-family="sans-serif" font-size="14" lengthAdjust="spacing" textLength="131" x="2811.5" y="125.9951">kubernetes.cluster</text></g><!--entity openstack.provider--><g id="elem_openstack.provider"><rect fill="#F1F1F1" height="36.2969" rx="2.5" ry="2.5" style="stroke:#181818;stroke-width:0.5;" width="153" x="2479.5" y="103"/><text fill="#000000" font-family="sans-serif" font-size="14" lengthAdjust="spacing" textLength="133" x="2489.5" y="125.9951">openstack.provider</text></g><!--entity mysql.dbms--><g id="elem_mysql.dbms"><rect fill="#F1F1F1" height="36.2969" rx="2.5" ry="2.5" style="stroke:#181818;stroke-width:0.5;" width="103" x="3160.5" y="103"/><text fill="#000000" font-family="sans-serif" font-size="14" lengthAdjust="spacing" textLength="83" x="3170.5" y="125.9951">mysql.dbms</text></g><!--entity mysql.database--><g id="elem_mysql.database"><rect fill="#F1F1F1" height="36.2969" rx="2.5" ry="2.5" style="stroke:#181818;stroke-width:0.5;" width="128" x="3316" y="103"/><text fill="#000000" font-family="sans-serif" font-size="14" lengthAdjust="spacing" textLength="108" x="3326" y="125.9951">mysql.database</text></g><!--entity minio.server--><g id="elem_minio.server"><rect fill="#F1F1F1" height="36.2969" rx="2.5" ry="2.5" style="stroke:#181818;stroke-width:0.5;" width="104" x="2199" y="103"/><text fill="#000000" font-family="sans-serif" font-size="14" lengthAdjust="spacing" textLength="84" x="2209" y="125.9951">minio.server</text></g><!--entity redis.server--><g id="elem_redis.server"><rect fill="#F1F1F1" height="36.2969" rx="2.5" ry="2.5" style="stroke:#181818;stroke-width:0.5;" width="101" x="3479.5" y="103"/><text fill="#000000" font-family="sans-serif" font-size="14" lengthAdjust="spacing" textLength="81" x="3489.5" y="125.9951">redis.server</text></g><!--entity software.runtime--><g id="elem_software.runtime"><ellipse cx="304" cy="14" fill="#F1F1F1" rx="8" ry="8" style="stroke:#181818;stroke-width:0.5;"/><text fill="#000000" font-family="sans-serif" font-size="14" lengthAdjust="spacing" textLength="116" x="246" y="43.9951">software.runtime</text></g><!--entity service.application--><g id="elem_service.application"><ellipse cx="1511" cy="14" fill="#F1F1F1" rx="8" ry="8" style="stroke:#181818;stroke-width:0.5;"/><text fill="#000000" font-family="sans-serif" font-size="14" lengthAdjust="spacing" textLength="127" x="1447.5" y="43.9951">service.application</text></g><!--entity cloud.provider--><g id="elem_cloud.provider"><ellipse cx="2473" cy="14" fill="#F1F1F1" rx="8" ry="8" style="stroke:#181818;stroke-width:0.5;"/><text fill="#000000" font-family="sans-serif" font-size="14" lengthAdjust="spacing" textLength="98" x="2424" y="43.9951">cloud.provider</text></g><!--entity cloud.service--><g id="elem_cloud.service"><ellipse cx="2797" cy="14" fill="#F1F1F1" rx="8" ry="8" style="stroke:#181818;stroke-width:0.5;"/><text fill="#000000" font-family="sans-serif" font-size="14" lengthAdjust="spacing" textLength="91" x="2751.5" y="43.9951">cloud.service</text></g><!--entity container.runtime--><g id="elem_container.runtime"><ellipse cx="3048" cy="14" fill="#F1F1F1" rx="8" ry="8" style="stroke:#181818;stroke-width:0.5;"/><text fill="#000000" font-family="sans-serif" font-size="14" lengthAdjust="spacing" textLength="122" x="2987" y="43.9951">container.runtime</text></g><!--entity relational.dbms--><g id="elem_relational.dbms"><ellipse cx="3212" cy="14" fill="#F1F1F1" rx="8" ry="8" style="stroke:#181818;stroke-width:0.5;"/><text fill="#000000" font-family="sans-serif" font-size="14" lengthAdjust="spacing" textLength="105" x="3159.5" y="43.9951">relational.dbms</text></g><!--entity relational.database--><g id="elem_relational.database"><ellipse cx="3380" cy="14" fill="#F1F1F1" rx="8" ry="8" style="stroke:#181818;stroke-width:0.5;"/><text fill="#000000" font-family="sans-serif" font-size="14" lengthAdjust="spacing" textLength="130" x="3315" y="43.9951">relational.database</text></g><!--entity cache--><g id="elem_cache"><ellipse cx="3530" cy="14" fill="#F1F1F1" rx="8" ry="8" style="stroke:#181818;stroke-width:0.5;"/><text fill="#000000" font-family="sans-serif" font-size="14" lengthAdjust="spacing" textLength="42" x="3509" y="43.9951">cache</text></g><!--reverse link software.runtime to nodejs.runtime--><g id="link_software.runtime_nodejs.runtime"><path d="M276.25,27.4 C234.36,46.11 154.84,81.65 107.41,102.84 " fill="none" id="software.runtime-backto-nodejs.runtime" style="stroke:#181818;stroke-width:1.0;"/><polygon fill="none" points="273.67,20.88,294.79,19.12,279.38,33.67,273.67,20.88" style="stroke:#181818;stroke-width:1.0;"/></g><!--reverse link service.application to nodejs.service.application--><g id="link_service.application_nodejs.service.application"><path d="M1481.77,18.68 C1388.18,30.49 1087.5,68.68 839,103 C833.21,103.8 827.25,104.63 821.24,105.48 " fill="none" id="service.application-backto-nodejs.service.application" style="stroke:#181818;stroke-width:1.0;"/><polygon fill="none" points="1481.18,11.7,1501.9,16.14,1482.93,25.59,1481.18,11.7" style="stroke:#181818;stroke-width:1.0;"/></g><!--reverse link service.application to reactjs.service.application--><g id="link_service.application_reactjs.service.application"><path d="M1482.08,20.46 C1401.76,35.63 1173.45,78.75 1045.22,102.96 " fill="none" id="service.application-backto-reactjs.service.application" style="stroke:#181818;stroke-width:1.0;"/><polygon fill="none" points="1480.86,13.57,1501.81,16.73,1483.46,27.32,1480.86,13.57" style="stroke:#181818;stroke-width:1.0;"/></g><!--reverse link software.runtime to python.runtime--><g id="link_software.runtime_python.runtime"><path d="M286.36,39.69 C272.46,59.15 253.45,85.78 241.19,102.93 " fill="none" id="software.runtime-backto-python.runtime" style="stroke:#181818;stroke-width:1.0;"/><polygon fill="none" points="280.79,35.45,298.11,23.24,292.19,43.58,280.79,35.45" style="stroke:#181818;stroke-width:1.0;"/></g><!--reverse link service.application to python.service.application--><g id="link_service.application_python.service.application"><path d="M1482.45,24.28 C1428.17,41.93 1309.38,80.54 1240.41,102.96 " fill="none" id="service.application-backto-python.service.application" style="stroke:#181818;stroke-width:1.0;"/><polygon fill="none" points="1480.5,17.56,1501.68,18.03,1484.83,30.87,1480.5,17.56" style="stroke:#181818;stroke-width:1.0;"/></g><!--reverse link service.application to go.service.application--><g id="link_service.application_go.service.application"><path d="M1488.62,37.6 C1469.2,57.2 1441.52,85.15 1423.9,102.93 " fill="none" id="service.application-backto-go.service.application" style="stroke:#181818;stroke-width:1.0;"/><polygon fill="none" points="1483.79,32.52,1502.84,23.24,1493.74,42.37,1483.79,32.52" style="stroke:#181818;stroke-width:1.0;"/></g><!--reverse link software.runtime to java.runtime--><g id="link_software.runtime_java.runtime"><path d="M321.4,39.69 C335.12,59.15 353.88,85.78 365.97,102.93 " fill="none" id="software.runtime-backto-java.runtime" style="stroke:#181818;stroke-width:1.0;"/><polygon fill="none" points="315.61,43.62,309.81,23.24,327.05,35.55,315.61,43.62" style="stroke:#181818;stroke-width:1.0;"/></g><!--reverse link service.application to java.service.application--><g id="link_service.application_java.service.application"><path d="M1533.38,37.6 C1552.8,57.2 1580.48,85.15 1598.1,102.93 " fill="none" id="service.application-backto-java.service.application" style="stroke:#181818;stroke-width:1.0;"/><polygon fill="none" points="1528.26,42.37,1519.16,23.24,1538.21,32.52,1528.26,42.37" style="stroke:#181818;stroke-width:1.0;"/></g><!--reverse link software.runtime to dotnet.runtime--><g id="link_software.runtime_dotnet.runtime"><path d="M331.55,28.03 C371.55,46.95 445.73,82.03 490,102.97 " fill="none" id="software.runtime-backto-dotnet.runtime" style="stroke:#181818;stroke-width:1.0;"/><polygon fill="none" points="328.34,34.26,313.26,19.38,334.33,21.6,328.34,34.26" style="stroke:#181818;stroke-width:1.0;"/></g><!--reverse link service.application to csharp.service.application--><g id="link_service.application_csharp.service.application"><path d="M1539.42,24.13 C1594.17,41.71 1715.05,80.52 1785.06,103 " fill="none" id="service.application-backto-csharp.service.application" style="stroke:#181818;stroke-width:1.0;"/><polygon fill="none" points="1536.99,30.7,1520.09,17.92,1541.27,17.37,1536.99,30.7" style="stroke:#181818;stroke-width:1.0;"/></g><!--reverse link service.application to binary.service.application--><g id="link_service.application_binary.service.application"><path d="M1539.97,20.46 C1620.44,35.63 1849.16,78.75 1977.61,102.96 " fill="none" id="service.application-backto-binary.service.application" style="stroke:#181818;stroke-width:1.0;"/><polygon fill="none" points="1538.56,27.32,1520.2,16.73,1541.15,13.56,1538.56,27.32" style="stroke:#181818;stroke-width:1.0;"/></g><!--reverse link cloud.provider to gcp.provider--><g id="link_cloud.provider_gcp.provider"><path d="M2454.19,39.09 C2438.95,58.6 2417.87,85.6 2404.33,102.93 " fill="none" id="cloud.provider-backto-gcp.provider" style="stroke:#181818;stroke-width:1.0;"/><polygon fill="none" points="2448.74,34.69,2466.57,23.24,2459.77,43.31,2448.74,34.69" style="stroke:#181818;stroke-width:1.0;"/></g><!--reverse link cloud.service to gcp.service--><g id="link_cloud.service_gcp.service"><path d="M2778.42,39.39 C2763.57,58.88 2743.14,85.69 2730,102.93 " fill="none" id="cloud.service-backto-gcp.service" style="stroke:#181818;stroke-width:1.0;"/><polygon fill="none" points="2773.03,34.91,2790.72,23.24,2784.17,43.39,2773.03,34.91" style="stroke:#181818;stroke-width:1.0;"/></g><!--reverse link gcp.service to gcp.cloudrun--><g id="link_gcp.service_gcp.cloudrun"><path d="M2647.67,139.05 C2451.92,175.96 2396.79,164.28 2208,199 C2202.37,200.04 2196.52,201.22 2190.69,202.46 " fill="none" id="gcp.service-backto-gcp.cloudrun" style="stroke:#181818;stroke-width:1.0;"/><polygon fill="none" points="2646.42,132.16,2667.38,135.26,2649.06,145.91,2646.42,132.16" style="stroke:#181818;stroke-width:1.0;"/></g><!--reverse link gcp.service to gcp.cloudsql--><g id="link_gcp.service_gcp.cloudsql"><path d="M2647.43,139.4 C2514.46,169.15 2477.3,171.22 2351,199 C2345.55,200.2 2339.88,201.49 2334.22,202.8 " fill="none" id="gcp.service-backto-gcp.cloudsql" style="stroke:#181818;stroke-width:1.0;"/><polygon fill="none" points="2646.26,132.49,2667.31,134.91,2649.34,146.14,2646.26,132.49" style="stroke:#181818;stroke-width:1.0;"/></g><!--reverse link gcp.service to gcp.appengine--><g id="link_gcp.service_gcp.appengine"><path d="M2647.98,144.69 C2597.25,161.36 2529.38,183.66 2483.15,198.86 " fill="none" id="gcp.service-backto-gcp.appengine" style="stroke:#181818;stroke-width:1.0;"/><polygon fill="none" points="2646,137.97,2667.18,138.37,2650.37,151.27,2646,137.97" style="stroke:#181818;stroke-width:1.0;"/></g><!--reverse link gcp.service to gcp.appenginereporting--><g id="link_gcp.service_gcp.appenginereporting"><path d="M2685.33,153.33 C2669.98,168.52 2652.14,186.18 2639.31,198.87 " fill="none" id="gcp.service-backto-gcp.appenginereporting" style="stroke:#181818;stroke-width:1.0;"/><polygon fill="none" points="2680.44,148.33,2699.58,139.24,2690.28,158.28,2680.44,148.33" style="stroke:#181818;stroke-width:1.0;"/></g><!--reverse link gcp.service to gcp.cloudbuild--><g id="link_gcp.service_gcp.cloudbuild"><path d="M2748.81,153.81 C2763.89,168.89 2781.31,186.31 2793.87,198.87 " fill="none" id="gcp.service-backto-gcp.cloudbuild" style="stroke:#181818;stroke-width:1.0;"/><polygon fill="none" points="2743.43,158.33,2734.24,139.24,2753.33,148.43,2743.43,158.33" style="stroke:#181818;stroke-width:1.0;"/></g><!--reverse link gcp.service to gcp.kubernetesengine--><g id="link_gcp.service_gcp.kubernetesengine"><path d="M2785.65,145.13 C2835.12,161.8 2900.78,183.92 2945.49,198.98 " fill="none" id="gcp.service-backto-gcp.kubernetesengine" style="stroke:#181818;stroke-width:1.0;"/><polygon fill="none" points="2783.28,151.72,2766.56,138.7,2787.75,138.45,2783.28,151.72" style="stroke:#181818;stroke-width:1.0;"/></g><!--reverse link gcp.service to gcp.cloudstorage--><g id="link_gcp.service_gcp.cloudstorage"><path d="M2786.36,139.31 C2927.75,170.26 2966.77,173.33 3102,199 C3107.87,200.11 3113.96,201.27 3120.08,202.44 " fill="none" id="gcp.service-backto-gcp.cloudstorage" style="stroke:#181818;stroke-width:1.0;"/><polygon fill="none" points="2784.7,146.11,2766.68,134.97,2787.72,132.44,2784.7,146.11" style="stroke:#181818;stroke-width:1.0;"/></g><!--reverse link gcp.service to gcp.memorystore--><g id="link_gcp.service_gcp.memorystore"><path d="M2786.5,139.02 C3005.33,178.85 3066.34,165.84 3279,199 C3284.75,199.9 3290.7,200.89 3296.67,201.93 " fill="none" id="gcp.service-backto-gcp.memorystore" style="stroke:#181818;stroke-width:1.0;"/><polygon fill="none" points="2784.99,145.86,2766.6,135.34,2787.54,132.1,2784.99,145.86" style="stroke:#181818;stroke-width:1.0;"/></g><!--reverse link container.runtime to docker.engine--><g id="link_container.runtime_docker.engine"><path d="M3048,43.42 C3048,62.44 3048,86.85 3048,102.93 " fill="none" id="container.runtime-backto-docker.engine" style="stroke:#181818;stroke-width:1.0;"/><polygon fill="none" points="3041,43.24,3048,23.24,3055,43.24,3041,43.24" style="stroke:#181818;stroke-width:1.0;"/></g><!--reverse link cloud.service to kubernetes.cluster--><g id="link_cloud.service_kubernetes.cluster"><path d="M2815.58,39.39 C2830.43,58.88 2850.86,85.69 2864,102.93 " fill="none" id="cloud.service-backto-kubernetes.cluster" style="stroke:#181818;stroke-width:1.0;"/><polygon fill="none" points="2809.83,43.39,2803.28,23.24,2820.97,34.91,2809.83,43.39" style="stroke:#181818;stroke-width:1.0;"/></g><!--reverse link cloud.provider to openstack.provider--><g id="link_cloud.provider_openstack.provider"><path d="M2492.04,39.09 C2507.46,58.6 2528.81,85.6 2542.51,102.93 " fill="none" id="cloud.provider-backto-openstack.provider" style="stroke:#181818;stroke-width:1.0;"/><polygon fill="none" points="2486.42,43.27,2479.51,23.24,2497.41,34.59,2486.42,43.27" style="stroke:#181818;stroke-width:1.0;"/></g><!--reverse link relational.dbms to mysql.dbms--><g id="link_relational.dbms_mysql.dbms"><path d="M3212,43.42 C3212,62.44 3212,86.85 3212,102.93 " fill="none" id="relational.dbms-backto-mysql.dbms" style="stroke:#181818;stroke-width:1.0;"/><polygon fill="none" points="3205,43.24,3212,23.24,3219,43.24,3205,43.24" style="stroke:#181818;stroke-width:1.0;"/></g><!--reverse link relational.database to mysql.database--><g id="link_relational.database_mysql.database"><path d="M3380,43.42 C3380,62.44 3380,86.85 3380,102.93 " fill="none" id="relational.database-backto-mysql.database" style="stroke:#181818;stroke-width:1.0;"/><polygon fill="none" points="3373,43.24,3380,23.24,3387,43.24,3373,43.24" style="stroke:#181818;stroke-width:1.0;"/></g><!--reverse link service.application to minio.server--><g id="link_service.application_minio.server"><path d="M1540.3,17.71 C1634.09,26.63 1935.12,57.13 2181,103 C2186.78,104.08 2192.79,105.33 2198.77,106.66 " fill="none" id="service.application-backto-minio.server" style="stroke:#181818;stroke-width:1.0;"/><polygon fill="none" points="1539.38,24.66,1520.12,15.82,1540.69,10.72,1539.38,24.66" style="stroke:#181818;stroke-width:1.0;"/></g><!--reverse link cache to redis.server--><g id="link_cache_redis.server"><path d="M3530,43.42 C3530,62.44 3530,86.85 3530,102.93 " fill="none" id="cache-backto-redis.server" style="stroke:#181818;stroke-width:1.0;"/><polygon fill="none" points="3523,43.24,3530,23.24,3537,43.24,3523,43.24" style="stroke:#181818;stroke-width:1.0;"/></g><!--SRC=[ZPH1SeCm34Ntd89X7qxGM_G4mgZ40MnN5kamqyEN910msAAxaFyjoRBqVAkD0u8-LxPtrg3XJnuxp0aLWsawpBBi_JilZAtnvaiQ3EiUYvZcaUvQOGdETLe1Qsj27o4e_e_HZNor9fviravZDFRSSuCxnBCybTFpjMM378-W_1N8dSUej04Q_t4VvKf7zgvhfACo7pyAghD3FHMOKFntTrIc6j0qsg0W4JfBh4sJ25mDkgkFMZjKI5FFqASolCfYIz14r1vxI-D3nlrJg1QfZ4LTSqx11y_x_jdfIfv1jOd-zkFKfRAkUX_z7nWgyBkSlJRwDO3xQ8IrzgkI5Tv-yGyGliSe__YzN28RLyHc93J7fqWwAEzaihZ3Xaevn9ML3YPtE5dNRgEbuCAA9yCV5bvA8190EYWYeNWko3ggIwj2FCok1GiRqqgAu7FZs213jBpOaR9i8NBgsT94pBbW9MMAy4M-mniqALj8d49Pm_2e-3WQ8O3YBn1bKU99eroQ5hPxZWBCI9hD0QG2qyAdqBXIIvh47SOA1UgAApgs9Fi3]--></g></svg>