<svg xmlns="http://www.w3.org/2000/svg" xmlns:xlink="http://www.w3.org/1999/xlink" contentStyleType="text/css" height="145px" preserveAspectRatio="none" style="width:571px;height:145px;background:#FFFFFF;" version="1.1" viewBox="0 0 571 145" width="571px" zoomAndPan="magnify"><defs/><g><!--entity docker.image--><g id="elem_docker.image"><rect fill="#F1F1F1" height="36.2969" rx="2.5" ry="2.5" style="stroke:#181818;stroke-width:0.5;" width="115.6826" x="7" y="103"/><text fill="#000000" font-family="sans-serif" font-size="14" lengthAdjust="spacing" textLength="95.6826" x="17" y="125.9951">docker.image</text></g><!--entity zip.archive--><g id="elem_zip.archive"><rect fill="#F1F1F1" height="36.2969" rx="2.5" ry="2.5" style="stroke:#181818;stroke-width:0.5;" width="96.2686" x="157.71" y="103"/><text fill="#000000" font-family="sans-serif" font-size="14" lengthAdjust="spacing" textLength="76.2686" x="167.71" y="125.9951">zip.archive</text></g><!--entity tar.archive--><g id="elem_tar.archive"><rect fill="#F1F1F1" height="36.2969" rx="2.5" ry="2.5" style="stroke:#181818;stroke-width:0.5;" width="95.9678" x="288.86" y="103"/><text fill="#000000" font-family="sans-serif" font-size="14" lengthAdjust="spacing" textLength="75.9678" x="298.86" y="125.9951">tar.archive</text></g><!--entity apt.package--><g id="elem_apt.package"><rect fill="#F1F1F1" height="36.2969" rx="2.5" ry="2.5" style="stroke:#181818;stroke-width:0.5;" width="106.7549" x="453.46" y="103"/><text fill="#000000" font-family="sans-serif" font-size="14" lengthAdjust="spacing" textLength="86.7549" x="463.46" y="125.9951">apt.package</text></g><!--entity container.image--><g id="elem_container.image"><ellipse cx="64.84" cy="14" fill="#F1F1F1" rx="8" ry="8" style="stroke:#181818;stroke-width:0.5;"/><text fill="#000000" font-family="sans-serif" font-size="14" lengthAdjust="spacing" textLength="114.3926" x="7.6437" y="43.9951">container.image</text></g><!--entity source.archive--><g id="elem_source.archive"><ellipse cx="302.84" cy="14" fill="#F1F1F1" rx="8" ry="8" style="stroke:#181818;stroke-width:0.5;"/><text fill="#000000" font-family="sans-serif" font-size="14" lengthAdjust="spacing" textLength="102.9424" x="251.3688" y="43.9951">source.archive</text></g><!--entity system.package--><g id="elem_system.package"><ellipse cx="506.84" cy="14" fill="#F1F1F1" rx="8" ry="8" style="stroke:#181818;stroke-width:0.5;"/><text fill="#000000" font-family="sans-serif" font-size="14" lengthAdjust="spacing" textLength="114.4131" x="449.6335" y="43.9951">system.package</text></g><!--reverse link container.image to docker.image--><g id="link_container.image_docker.image"><path d="M64.84,40.91 C64.84,57.72 64.84,79.38 64.84,102.52 " fill="none" id="container.image-backto-docker.image" style="stroke:#181818;stroke-width:1.0;"/><polygon fill="none" points="64.84,22.91,58.84,40.91,70.84,40.91,64.84,22.91" style="stroke:#181818;stroke-width:1.0;"/></g><!--reverse link source.archive to zip.archive--><g id="link_source.archive_zip.archive"><path d="M283.3439,36.1392 C267.8339,52.9492 243.45,79.38 222.1,102.52 " fill="none" id="source.archive-backto-zip.archive" style="stroke:#181818;stroke-width:1.0;"/><polygon fill="none" points="295.55,22.91,278.9342,32.0705,287.7536,40.2079,295.55,22.91" style="stroke:#181818;stroke-width:1.0;"/></g><!--reverse link source.archive to tar.archive--><g id="link_source.archive_tar.archive"><path d="M310.9329,40.0385 C316.3629,56.8485 323.66,79.38 331.14,102.52 " fill="none" id="source.archive-backto-tar.archive" style="stroke:#181818;stroke-width:1.0;"/><polygon fill="none" points="305.4,22.91,305.2234,41.8828,316.6424,38.1942,305.4,22.91" style="stroke:#181818;stroke-width:1.0;"/></g><!--reverse link system.package to apt.package--><g id="link_system.package_apt.package"><path d="M506.84,40.91 C506.84,57.72 506.84,79.38 506.84,102.52 " fill="none" id="system.package-backto-apt.package" style="stroke:#181818;stroke-width:1.0;"/><polygon fill="none" points="506.84,22.91,500.84,40.91,512.84,40.91,506.84,22.91" style="stroke:#181818;stroke-width:1.0;"/></g><!--SRC=[TOv12iCm30JlVeNnFNv1Vz4N25Mamh5iPBMGqiVtq63YDhajpB2xBR5KKCWUIwv5IEngwq9U2GraNiWvrxCFjuA9D7A6cS90NbmZADxv-GCCz1X0jLW1qxVA1InYmDBh_UKzJN-JePM78lNApHhdJwJnIcXhCyhzmoRjRtq0]--></g></svg>