<svg xmlns="http://www.w3.org/2000/svg" xmlns:xlink="http://www.w3.org/1999/xlink" contentStyleType="text/css" height="434px" preserveAspectRatio="none" style="width:868px;height:434px;background:#FFFFFF;" version="1.1" viewBox="0 0 868 434" width="868px" zoomAndPan="magnify"><defs/><g><!--entity node--><g id="elem_node"><rect fill="#F1F1F1" height="36.2969" rx="2.5" ry="2.5" style="stroke:#181818;stroke-width:0.5;" width="54.9385" x="454.03" y="103"/><text fill="#000000" font-family="sans-serif" font-size="14" lengthAdjust="spacing" textLength="34.9385" x="464.03" y="125.9951">node</text></g><!--entity cloud.provider--><g id="elem_cloud.provider"><rect fill="#F1F1F1" height="36.2969" rx="2.5" ry="2.5" style="stroke:#181818;stroke-width:0.5;" width="121.001" x="7" y="199.3"/><text fill="#000000" font-family="sans-serif" font-size="14" lengthAdjust="spacing" textLength="101.001" x="17" y="222.2951">cloud.provider</text></g><!--entity cloud.service--><g id="elem_cloud.service"><rect fill="#F1F1F1" height="36.2969" rx="2.5" ry="2.5" style="stroke:#181818;stroke-width:0.5;" width="112.5107" x="163.25" y="199.3"/><text fill="#000000" font-family="sans-serif" font-size="14" lengthAdjust="spacing" textLength="92.5107" x="173.25" y="222.2951">cloud.service</text></g><!--entity software.application--><g id="elem_software.application"><rect fill="#F1F1F1" height="36.2969" rx="2.5" ry="2.5" style="stroke:#181818;stroke-width:0.5;" width="162.3516" x="310.32" y="199.3"/><text fill="#000000" font-family="sans-serif" font-size="14" lengthAdjust="spacing" textLength="142.3516" x="320.32" y="222.2951">software.application</text></g><!--entity service.application--><g id="elem_service.application"><rect fill="#F1F1F1" height="36.2969" rx="2.5" ry="2.5" style="stroke:#181818;stroke-width:0.5;" width="151.8242" x="134.59" y="295.6"/><text fill="#000000" font-family="sans-serif" font-size="14" lengthAdjust="spacing" textLength="131.8242" x="144.59" y="318.5951">service.application</text></g><!--entity software.runtime--><g id="elem_software.runtime"><rect fill="#F1F1F1" height="36.2969" rx="2.5" ry="2.5" style="stroke:#181818;stroke-width:0.5;" width="140.2578" x="321.37" y="295.6"/><text fill="#000000" font-family="sans-serif" font-size="14" lengthAdjust="spacing" textLength="120.2578" x="331.37" y="318.5951">software.runtime</text></g><!--entity container.runtime--><g id="elem_container.runtime"><rect fill="#F1F1F1" height="36.2969" rx="2.5" ry="2.5" style="stroke:#181818;stroke-width:0.5;" width="145.918" x="308.54" y="391.89"/><text fill="#000000" font-family="sans-serif" font-size="14" lengthAdjust="spacing" textLength="125.918" x="318.54" y="414.8851">container.runtime</text></g><!--entity virtual.machine--><g id="elem_virtual.machine"><rect fill="#F1F1F1" height="36.2969" rx="2.5" ry="2.5" style="stroke:#181818;stroke-width:0.5;" width="129.375" x="507.81" y="199.3"/><text fill="#000000" font-family="sans-serif" font-size="14" lengthAdjust="spacing" textLength="109.375" x="517.81" y="222.2951">virtual.machine</text></g><!--entity database--><g id="elem_database"><rect fill="#F1F1F1" height="36.2969" rx="2.5" ry="2.5" style="stroke:#181818;stroke-width:0.5;" width="84.9072" x="672.05" y="199.3"/><text fill="#000000" font-family="sans-serif" font-size="14" lengthAdjust="spacing" textLength="64.9072" x="682.05" y="222.2951">database</text></g><!--entity relational.database--><g id="elem_relational.database"><rect fill="#F1F1F1" height="36.2969" rx="2.5" ry="2.5" style="stroke:#181818;stroke-width:0.5;" width="155.4814" x="636.76" y="295.6"/><text fill="#000000" font-family="sans-serif" font-size="14" lengthAdjust="spacing" textLength="135.4814" x="646.76" y="318.5951">relational.database</text></g><!--entity dbms--><g id="elem_dbms"><rect fill="#F1F1F1" height="36.2969" rx="2.5" ry="2.5" style="stroke:#181818;stroke-width:0.5;" width="58.7051" x="506.15" y="295.6"/><text fill="#000000" font-family="sans-serif" font-size="14" lengthAdjust="spacing" textLength="38.7051" x="516.15" y="318.5951">dbms</text></g><!--entity relational.dbms--><g id="elem_relational.dbms"><rect fill="#F1F1F1" height="36.2969" rx="2.5" ry="2.5" style="stroke:#181818;stroke-width:0.5;" width="129.2793" x="489.86" y="391.89"/><text fill="#000000" font-family="sans-serif" font-size="14" lengthAdjust="spacing" textLength="109.2793" x="499.86" y="414.8851">relational.dbms</text></g><!--entity ingress--><g id="elem_ingress"><rect fill="#F1F1F1" height="36.2969" rx="2.5" ry="2.5" style="stroke:#181818;stroke-width:0.5;" width="70.6064" x="792.2" y="199.3"/><text fill="#000000" font-family="sans-serif" font-size="14" lengthAdjust="spacing" textLength="50.6064" x="802.2" y="222.2951">ingress</text></g><!--entity tosca.nodes.Root--><g id="elem_tosca.nodes.Root"><ellipse cx="481.5" cy="14" fill="#F1F1F1" rx="8" ry="8" style="stroke:#181818;stroke-width:0.5;"/><text fill="#000000" font-family="sans-serif" font-size="14" lengthAdjust="spacing" textLength="121.1055" x="420.9473" y="43.9951">tosca.nodes.Root</text></g><!--reverse link tosca.nodes.Root to node--><g id="link_tosca.nodes.Root_node"><path d="M481.5,40.91 C481.5,57.72 481.5,79.38 481.5,102.52 " fill="none" id="tosca.nodes.Root-backto-node" style="stroke:#181818;stroke-width:1.0;"/><polygon fill="none" points="481.5,22.91,475.5,40.91,487.5,40.91,481.5,22.91" style="stroke:#181818;stroke-width:1.0;"/></g><!--reverse link node to cloud.provider--><g id="link_node_cloud.provider"><path d="M436.14,132.4796 C369.97,147.5596 219.43,181.84 128.36,202.59 " fill="none" id="node-backto-cloud.provider" style="stroke:#181818;stroke-width:1.0;"/><polygon fill="none" points="453.69,128.48,434.8068,126.6296,437.4732,138.3296,453.69,128.48" style="stroke:#181818;stroke-width:1.0;"/></g><!--reverse link node to cloud.service--><g id="link_node_cloud.service"><path d="M437.0231,138.1545 C393.0031,153.9945 323.15,179.14 268.41,198.85 " fill="none" id="node-backto-cloud.service" style="stroke:#181818;stroke-width:1.0;"/><polygon fill="none" points="453.96,132.06,434.9916,132.5089,439.0546,143.8001,453.96,132.06" style="stroke:#181818;stroke-width:1.0;"/></g><!--reverse link node to software.application--><g id="link_node_software.application"><path d="M452.5622,152.4711 C436.4322,169.3711 424.41,181.96 408.21,198.94 " fill="none" id="node-backto-software.application" style="stroke:#181818;stroke-width:1.0;"/><polygon fill="none" points="464.99,139.45,448.2218,148.3285,456.9025,156.6137,464.99,139.45" style="stroke:#181818;stroke-width:1.0;"/></g><!--reverse link software.application to service.application--><g id="link_software.application_service.application"><path d="M341.9175,244.2786 C309.5075,261.1686 276.7,278.26 244.25,295.16 " fill="none" id="software.application-backto-service.application" style="stroke:#181818;stroke-width:1.0;"/><polygon fill="none" points="357.88,235.96,339.1447,238.9578,344.6904,249.5994,357.88,235.96" style="stroke:#181818;stroke-width:1.0;"/></g><!--reverse link software.application to software.runtime--><g id="link_software.application_software.runtime"><path d="M391.5,253.74 C391.5,270.65 391.5,278.26 391.5,295.24 " fill="none" id="software.application-backto-software.runtime" style="stroke:#181818;stroke-width:1.0;"/><polygon fill="none" points="391.5,235.74,385.5,253.74,397.5,253.74,391.5,235.74" style="stroke:#181818;stroke-width:1.0;"/></g><!--reverse link software.runtime to container.runtime--><g id="link_software.runtime_container.runtime"><path d="M387.7647,349.9389 C385.9647,366.8489 385.16,374.56 383.36,391.54 " fill="none" id="software.runtime-backto-container.runtime" style="stroke:#181818;stroke-width:1.0;"/><polygon fill="none" points="389.67,332.04,381.7984,349.3038,393.731,350.574,389.67,332.04" style="stroke:#181818;stroke-width:1.0;"/></g><!--reverse link node to virtual.machine--><g id="link_node_virtual.machine"><path d="M510.6938,152.3982 C527.0138,169.2982 539.22,181.96 555.61,198.94 " fill="none" id="node-backto-virtual.machine" style="stroke:#181818;stroke-width:1.0;"/><polygon fill="none" points="498.19,139.45,506.3777,156.5661,515.0099,148.2302,498.19,139.45" style="stroke:#181818;stroke-width:1.0;"/></g><!--reverse link node to database--><g id="link_node_database"><path d="M525.8264,140.09 C566.0964,156.38 624.53,180.04 671.9,199.21 " fill="none" id="node-backto-database" style="stroke:#181818;stroke-width:1.0;"/><polygon fill="none" points="509.14,133.34,523.5765,145.6521,528.0764,134.5278,509.14,133.34" style="stroke:#181818;stroke-width:1.0;"/></g><!--reverse link database to relational.database--><g id="link_database_relational.database"><path d="M714.5,253.74 C714.5,270.65 714.5,278.26 714.5,295.24 " fill="none" id="database-backto-relational.database" style="stroke:#181818;stroke-width:1.0;"/><polygon fill="none" points="714.5,235.74,708.5,253.74,720.5,253.74,714.5,235.74" style="stroke:#181818;stroke-width:1.0;"/></g><!--reverse link software.application to dbms--><g id="link_software.application_dbms"><path d="M433.307,245.8233 C459.167,262.7633 483.08,278.42 508.9,295.32 " fill="none" id="software.application-backto-dbms" style="stroke:#181818;stroke-width:1.0;"/><polygon fill="none" points="418.25,235.96,430.0193,250.8424,436.5948,240.8043,418.25,235.96" style="stroke:#181818;stroke-width:1.0;"/></g><!--reverse link dbms to relational.dbms--><g id="link_dbms_relational.dbms"><path d="M542.5382,349.6868 C545.9382,366.5968 547.55,374.56 550.97,391.54 " fill="none" id="dbms-backto-relational.dbms" style="stroke:#181818;stroke-width:1.0;"/><polygon fill="none" points="538.99,332.04,536.6559,350.8695,548.4204,348.5041,538.99,332.04" style="stroke:#181818;stroke-width:1.0;"/></g><!--reverse link node to ingress--><g id="link_node_ingress"><path d="M526.589,133.1793 C578.709,145.9993 677.58,170.89 774.5,199.3 C780.16,200.96 786.13,202.8 791.95,204.65 " fill="none" id="node-backto-ingress" style="stroke:#181818;stroke-width:1.0;"/><polygon fill="none" points="509.11,128.88,525.1559,139.0057,528.0221,127.353,509.11,128.88" style="stroke:#181818;stroke-width:1.0;"/></g><!--SRC=[VL51RiCm3Bld5K7kzGlwYkq5ggrrncp9a9KK0_RujalIrh6RamHI50Wo_tXA811xop4n8Ucd_WRi1Qq2dGDsNVVO-u7OuL0WDl3eJ1AUl4DfSHbbydOZo_ob5n0qa5Bm5jGpRIvcsSx1-a96KX-tlfWKFA6qwScBZX1C1Fjzkof91medo1jKCFoxkAdQ1-uKytj9HNew2-Oxs0tAsOAvfvlD1xCE_V7lS7ZaFSy5gn9liC_C2_9DwcryrJHxs9VKpTJOwhVHK-6vRggWNwfuxWlNRcpN-bBJF1jl5lhLmThZ5G00]--></g></svg>