<svg xmlns="http://www.w3.org/2000/svg" xmlns:xlink="http://www.w3.org/1999/xlink" contentStyleType="text/css" height="241px" preserveAspectRatio="none" style="width:3081px;height:241px;background:#FFFFFF;" version="1.1" viewBox="0 0 3081 241" width="3081px" zoomAndPan="magnify"><defs/><g><!--entity nodejs.runtime--><g id="elem_nodejs.runtime"><rect fill="#F1F1F1" height="36.2969" rx="2.5" ry="2.5" style="stroke:#181818;stroke-width:0.5;" width="124" x="7" y="103"/><text fill="#000000" font-family="sans-serif" font-size="14" lengthAdjust="spacing" textLength="104" x="17" y="125.9951">nodejs.runtime</text></g><!--entity nodejs.service.application--><g id="elem_nodejs.service.application"><rect fill="#F1F1F1" height="36.2969" rx="2.5" ry="2.5" style="stroke:#181818;stroke-width:0.5;" width="198" x="623" y="103"/><text fill="#000000" font-family="sans-serif" font-size="14" lengthAdjust="spacing" textLength="178" x="633" y="125.9951">nodejs.service.application</text></g><!--entity python.runtime--><g id="elem_python.runtime"><rect fill="#F1F1F1" height="36.2969" rx="2.5" ry="2.5" style="stroke:#181818;stroke-width:0.5;" width="125" x="166.5" y="103"/><text fill="#000000" font-family="sans-serif" font-size="14" lengthAdjust="spacing" textLength="105" x="176.5" y="125.9951">python.runtime</text></g><!--entity python.service.application--><g id="elem_python.service.application"><rect fill="#F1F1F1" height="36.2969" rx="2.5" ry="2.5" style="stroke:#181818;stroke-width:0.5;" width="199" x="856.5" y="103"/><text fill="#000000" font-family="sans-serif" font-size="14" lengthAdjust="spacing" textLength="179" x="866.5" y="125.9951">python.service.application</text></g><!--entity go.service.application--><g id="elem_go.service.application"><rect fill="#F1F1F1" height="36.2969" rx="2.5" ry="2.5" style="stroke:#181818;stroke-width:0.5;" width="169" x="1090.5" y="103"/><text fill="#000000" font-family="sans-serif" font-size="14" lengthAdjust="spacing" textLength="149" x="1100.5" y="125.9951">go.service.application</text></g><!--entity java.runtime--><g id="elem_java.runtime"><rect fill="#F1F1F1" height="36.2969" rx="2.5" ry="2.5" style="stroke:#181818;stroke-width:0.5;" width="103" x="326.5" y="103"/><text fill="#000000" font-family="sans-serif" font-size="14" lengthAdjust="spacing" textLength="83" x="336.5" y="125.9951">java.runtime</text></g><!--entity java.service.application--><g id="elem_java.service.application"><rect fill="#F1F1F1" height="36.2969" rx="2.5" ry="2.5" style="stroke:#181818;stroke-width:0.5;" width="177" x="1294.5" y="103"/><text fill="#000000" font-family="sans-serif" font-size="14" lengthAdjust="spacing" textLength="157" x="1304.5" y="125.9951">java.service.application</text></g><!--entity dotnet.runtime--><g id="elem_dotnet.runtime"><rect fill="#F1F1F1" height="36.2969" rx="2.5" ry="2.5" style="stroke:#181818;stroke-width:0.5;" width="123" x="464.5" y="103"/><text fill="#000000" font-family="sans-serif" font-size="14" lengthAdjust="spacing" textLength="103" x="474.5" y="125.9951">dotnet.runtime</text></g><!--entity csharp.service.application--><g id="elem_csharp.service.application"><rect fill="#F1F1F1" height="36.2969" rx="2.5" ry="2.5" style="stroke:#181818;stroke-width:0.5;" width="198" x="1507" y="103"/><text fill="#000000" font-family="sans-serif" font-size="14" lengthAdjust="spacing" textLength="178" x="1517" y="125.9951">csharp.service.application</text></g><!--entity binary.service.application--><g id="elem_binary.service.application"><rect fill="#F1F1F1" height="36.2969" rx="2.5" ry="2.5" style="stroke:#181818;stroke-width:0.5;" width="192" x="1740" y="103"/><text fill="#000000" font-family="sans-serif" font-size="14" lengthAdjust="spacing" textLength="172" x="1750" y="125.9951">binary.service.application</text></g><!--entity gcp.provider--><g id="elem_gcp.provider"><rect fill="#F1F1F1" height="36.2969" rx="2.5" ry="2.5" style="stroke:#181818;stroke-width:0.5;" width="106" x="1967" y="103"/><text fill="#000000" font-family="sans-serif" font-size="14" lengthAdjust="spacing" textLength="86" x="1977" y="125.9951">gcp.provider</text></g><!--entity gcp.service--><g id="elem_gcp.service"><rect fill="#F1F1F1" height="36.2969" rx="2.5" ry="2.5" style="stroke:#181818;stroke-width:0.5;" width="99" x="2296.5" y="103"/><text fill="#000000" font-family="sans-serif" font-size="14" lengthAdjust="spacing" textLength="79" x="2306.5" y="125.9951">gcp.service</text></g><!--entity gcp.cloudrun--><g id="elem_gcp.cloudrun"><rect fill="#F1F1F1" height="36.2969" rx="2.5" ry="2.5" style="stroke:#181818;stroke-width:0.5;" width="111" x="1994.5" y="199"/><text fill="#000000" font-family="sans-serif" font-size="14" lengthAdjust="spacing" textLength="91" x="2004.5" y="221.9951">gcp.cloudrun</text></g><!--entity gcp.cloudsql--><g id="elem_gcp.cloudsql"><rect fill="#F1F1F1" height="36.2969" rx="2.5" ry="2.5" style="stroke:#181818;stroke-width:0.5;" width="108" x="2141" y="199"/><text fill="#000000" font-family="sans-serif" font-size="14" lengthAdjust="spacing" textLength="88" x="2151" y="221.9951">gcp.cloudsql</text></g><!--entity gcp.appengine--><g id="elem_gcp.appengine"><rect fill="#F1F1F1" height="36.2969" rx="2.5" ry="2.5" style="stroke:#181818;stroke-width:0.5;" width="124" x="2284" y="199"/><text fill="#000000" font-family="sans-serif" font-size="14" lengthAdjust="spacing" textLength="104" x="2294" y="221.9951">gcp.appengine</text></g><!--entity gcp.appenginereporting--><g id="elem_gcp.appenginereporting"><rect fill="#F1F1F1" height="36.2969" rx="2.5" ry="2.5" style="stroke:#181818;stroke-width:0.5;" width="187" x="2443.5" y="199"/><text fill="#000000" font-family="sans-serif" font-size="14" lengthAdjust="spacing" textLength="167" x="2453.5" y="221.9951">gcp.appenginereporting</text></g><!--entity gcp.cloudbuild--><g id="elem_gcp.cloudbuild"><rect fill="#F1F1F1" height="36.2969" rx="2.5" ry="2.5" style="stroke:#181818;stroke-width:0.5;" width="121" x="2665.5" y="199"/><text fill="#000000" font-family="sans-serif" font-size="14" lengthAdjust="spacing" textLength="101" x="2675.5" y="221.9951">gcp.cloudbuild</text></g><!--entity docker.engine--><g id="elem_docker.engine"><rect fill="#F1F1F1" height="36.2969" rx="2.5" ry="2.5" style="stroke:#181818;stroke-width:0.5;" width="120" x="2617" y="103"/><text fill="#000000" font-family="sans-serif" font-size="14" lengthAdjust="spacing" textLength="100" x="2627" y="125.9951">docker.engine</text></g><!--entity kubernetes.cluster--><g id="elem_kubernetes.cluster"><rect fill="#F1F1F1" height="36.2969" rx="2.5" ry="2.5" style="stroke:#181818;stroke-width:0.5;" width="151" x="2430.5" y="103"/><text fill="#000000" font-family="sans-serif" font-size="14" lengthAdjust="spacing" textLength="131" x="2440.5" y="125.9951">kubernetes.cluster</text></g><!--entity openstack.provider--><g id="elem_openstack.provider"><rect fill="#F1F1F1" height="36.2969" rx="2.5" ry="2.5" style="stroke:#181818;stroke-width:0.5;" width="153" x="2108.5" y="103"/><text fill="#000000" font-family="sans-serif" font-size="14" lengthAdjust="spacing" textLength="133" x="2118.5" y="125.9951">openstack.provider</text></g><!--entity mysql.dbms--><g id="elem_mysql.dbms"><rect fill="#F1F1F1" height="36.2969" rx="2.5" ry="2.5" style="stroke:#181818;stroke-width:0.5;" width="103" x="2789.5" y="103"/><text fill="#000000" font-family="sans-serif" font-size="14" lengthAdjust="spacing" textLength="83" x="2799.5" y="125.9951">mysql.dbms</text></g><!--entity mysql.database--><g id="elem_mysql.database"><rect fill="#F1F1F1" height="36.2969" rx="2.5" ry="2.5" style="stroke:#181818;stroke-width:0.5;" width="128" x="2945" y="103"/><text fill="#000000" font-family="sans-serif" font-size="14" lengthAdjust="spacing" textLength="108" x="2955" y="125.9951">mysql.database</text></g><!--entity software.runtime--><g id="elem_software.runtime"><ellipse cx="304" cy="14" fill="#F1F1F1" rx="8" ry="8" style="stroke:#181818;stroke-width:0.5;"/><text fill="#000000" font-family="sans-serif" font-size="14" lengthAdjust="spacing" textLength="116" x="246" y="43.9951">software.runtime</text></g><!--entity service.application--><g id="elem_service.application"><ellipse cx="1279" cy="14" fill="#F1F1F1" rx="8" ry="8" style="stroke:#181818;stroke-width:0.5;"/><text fill="#000000" font-family="sans-serif" font-size="14" lengthAdjust="spacing" textLength="127" x="1215.5" y="43.9951">service.application</text></g><!--entity cloud.provider--><g id="elem_cloud.provider"><ellipse cx="2102" cy="14" fill="#F1F1F1" rx="8" ry="8" style="stroke:#181818;stroke-width:0.5;"/><text fill="#000000" font-family="sans-serif" font-size="14" lengthAdjust="spacing" textLength="98" x="2053" y="43.9951">cloud.provider</text></g><!--entity cloud.service--><g id="elem_cloud.service"><ellipse cx="2426" cy="14" fill="#F1F1F1" rx="8" ry="8" style="stroke:#181818;stroke-width:0.5;"/><text fill="#000000" font-family="sans-serif" font-size="14" lengthAdjust="spacing" textLength="91" x="2380.5" y="43.9951">cloud.service</text></g><!--entity container.runtime--><g id="elem_container.runtime"><ellipse cx="2677" cy="14" fill="#F1F1F1" rx="8" ry="8" style="stroke:#181818;stroke-width:0.5;"/><text fill="#000000" font-family="sans-serif" font-size="14" lengthAdjust="spacing" textLength="122" x="2616" y="43.9951">container.runtime</text></g><!--entity relational.dbms--><g id="elem_relational.dbms"><ellipse cx="2841" cy="14" fill="#F1F1F1" rx="8" ry="8" style="stroke:#181818;stroke-width:0.5;"/><text fill="#000000" font-family="sans-serif" font-size="14" lengthAdjust="spacing" textLength="105" x="2788.5" y="43.9951">relational.dbms</text></g><!--entity relational.database--><g id="elem_relational.database"><ellipse cx="3009" cy="14" fill="#F1F1F1" rx="8" ry="8" style="stroke:#181818;stroke-width:0.5;"/><text fill="#000000" font-family="sans-serif" font-size="14" lengthAdjust="spacing" textLength="130" x="2944" y="43.9951">relational.database</text></g><!--reverse link software.runtime to nodejs.runtime--><g id="link_software.runtime_nodejs.runtime"><path d="M276.25,27.4 C234.36,46.11 154.84,81.65 107.41,102.84 " fill="none" id="software.runtime-backto-nodejs.runtime" style="stroke:#181818;stroke-width:1.0;"/><polygon fill="none" points="273.67,20.88,294.79,19.12,279.38,33.67,273.67,20.88" style="stroke:#181818;stroke-width:1.0;"/></g><!--reverse link service.application to nodejs.service.application--><g id="link_service.application_nodejs.service.application"><path d="M1250.03,20.46 C1169.56,35.63 940.84,78.75 812.39,102.96 " fill="none" id="service.application-backto-nodejs.service.application" style="stroke:#181818;stroke-width:1.0;"/><polygon fill="none" points="1248.85,13.56,1269.8,16.73,1251.44,27.32,1248.85,13.56" style="stroke:#181818;stroke-width:1.0;"/></g><!--reverse link software.runtime to python.runtime--><g id="link_software.runtime_python.runtime"><path d="M286.36,39.69 C272.46,59.15 253.45,85.78 241.19,102.93 " fill="none" id="software.runtime-backto-python.runtime" style="stroke:#181818;stroke-width:1.0;"/><polygon fill="none" points="280.79,35.45,298.11,23.24,292.19,43.58,280.79,35.45" style="stroke:#181818;stroke-width:1.0;"/></g><!--reverse link service.application to python.service.application--><g id="link_service.application_python.service.application"><path d="M1250.45,24.28 C1196.17,41.93 1077.38,80.54 1008.41,102.96 " fill="none" id="service.application-backto-python.service.application" style="stroke:#181818;stroke-width:1.0;"/><polygon fill="none" points="1248.5,17.56,1269.68,18.03,1252.83,30.87,1248.5,17.56" style="stroke:#181818;stroke-width:1.0;"/></g><!--reverse link service.application to go.service.application--><g id="link_service.application_go.service.application"><path d="M1256.62,37.6 C1237.2,57.2 1209.52,85.15 1191.9,102.93 " fill="none" id="service.application-backto-go.service.application" style="stroke:#181818;stroke-width:1.0;"/><polygon fill="none" points="1251.79,32.52,1270.84,23.24,1261.74,42.37,1251.79,32.52" style="stroke:#181818;stroke-width:1.0;"/></g><!--reverse link software.runtime to java.runtime--><g id="link_software.runtime_java.runtime"><path d="M321.4,39.69 C335.12,59.15 353.88,85.78 365.97,102.93 " fill="none" id="software.runtime-backto-java.runtime" style="stroke:#181818;stroke-width:1.0;"/><polygon fill="none" points="315.61,43.62,309.81,23.24,327.05,35.55,315.61,43.62" style="stroke:#181818;stroke-width:1.0;"/></g><!--reverse link service.application to java.service.application--><g id="link_service.application_java.service.application"><path d="M1301.38,37.6 C1320.8,57.2 1348.48,85.15 1366.1,102.93 " fill="none" id="service.application-backto-java.service.application" style="stroke:#181818;stroke-width:1.0;"/><polygon fill="none" points="1296.26,42.37,1287.16,23.24,1306.21,32.52,1296.26,42.37" style="stroke:#181818;stroke-width:1.0;"/></g><!--reverse link software.runtime to dotnet.runtime--><g id="link_software.runtime_dotnet.runtime"><path d="M331.55,28.03 C371.55,46.95 445.73,82.03 490,102.97 " fill="none" id="software.runtime-backto-dotnet.runtime" style="stroke:#181818;stroke-width:1.0;"/><polygon fill="none" points="328.34,34.26,313.26,19.38,334.33,21.6,328.34,34.26" style="stroke:#181818;stroke-width:1.0;"/></g><!--reverse link service.application to csharp.service.application--><g id="link_service.application_csharp.service.application"><path d="M1307.42,24.13 C1362.17,41.71 1483.05,80.52 1553.06,103 " fill="none" id="service.application-backto-csharp.service.application" style="stroke:#181818;stroke-width:1.0;"/><polygon fill="none" points="1304.99,30.7,1288.09,17.92,1309.27,17.37,1304.99,30.7" style="stroke:#181818;stroke-width:1.0;"/></g><!--reverse link service.application to binary.service.application--><g id="link_service.application_binary.service.application"><path d="M1307.97,20.46 C1388.44,35.63 1617.16,78.75 1745.61,102.96 " fill="none" id="service.application-backto-binary.service.application" style="stroke:#181818;stroke-width:1.0;"/><polygon fill="none" points="1306.56,27.32,1288.2,16.73,1309.15,13.56,1306.56,27.32" style="stroke:#181818;stroke-width:1.0;"/></g><!--reverse link cloud.provider to gcp.provider--><g id="link_cloud.provider_gcp.provider"><path d="M2083.19,39.09 C2067.95,58.6 2046.87,85.6 2033.33,102.93 " fill="none" id="cloud.provider-backto-gcp.provider" style="stroke:#181818;stroke-width:1.0;"/><polygon fill="none" points="2077.74,34.69,2095.57,23.24,2088.77,43.31,2077.74,34.69" style="stroke:#181818;stroke-width:1.0;"/></g><!--reverse link cloud.service to gcp.service--><g id="link_cloud.service_gcp.service"><path d="M2407.42,39.39 C2392.57,58.88 2372.14,85.69 2359,102.93 " fill="none" id="cloud.service-backto-gcp.service" style="stroke:#181818;stroke-width:1.0;"/><polygon fill="none" points="2402.03,34.91,2419.72,23.24,2413.17,43.39,2402.03,34.91" style="stroke:#181818;stroke-width:1.0;"/></g><!--reverse link gcp.service to gcp.cloudrun--><g id="link_gcp.service_gcp.cloudrun"><path d="M2277.22,143.84 C2224.36,160.63 2152.39,183.49 2103.72,198.94 " fill="none" id="gcp.service-backto-gcp.cloudrun" style="stroke:#181818;stroke-width:1.0;"/><polygon fill="none" points="2275.28,137.12,2296.46,137.73,2279.51,150.46,2275.28,137.12" style="stroke:#181818;stroke-width:1.0;"/></g><!--reverse link gcp.service to gcp.cloudsql--><g id="link_gcp.service_gcp.cloudsql"><path d="M2301.61,149.63 C2275.95,165.61 2244.47,185.2 2222.4,198.95 " fill="none" id="gcp.service-backto-gcp.cloudsql" style="stroke:#181818;stroke-width:1.0;"/><polygon fill="none" points="2297.98,143.65,2318.66,139.02,2305.38,155.53,2297.98,143.65" style="stroke:#181818;stroke-width:1.0;"/></g><!--reverse link gcp.service to gcp.appengine--><g id="link_gcp.service_gcp.appengine"><path d="M2346,159.62 C2346,173.21 2346,187.89 2346,198.87 " fill="none" id="gcp.service-backto-gcp.appengine" style="stroke:#181818;stroke-width:1.0;"/><polygon fill="none" points="2339,159.24,2346,139.24,2353,159.24,2339,159.24" style="stroke:#181818;stroke-width:1.0;"/></g><!--reverse link gcp.service to gcp.appenginereporting--><g id="link_gcp.service_gcp.appenginereporting"><path d="M2398.88,148.03 C2431.91,164.28 2473.48,184.74 2502.35,198.95 " fill="none" id="gcp.service-backto-gcp.appenginereporting" style="stroke:#181818;stroke-width:1.0;"/><polygon fill="none" points="2395.44,154.13,2380.59,139.02,2401.62,141.57,2395.44,154.13" style="stroke:#181818;stroke-width:1.0;"/></g><!--reverse link gcp.service to gcp.cloudbuild--><g id="link_gcp.service_gcp.cloudbuild"><path d="M2415.38,139.57 C2513.23,163.99 2606.24,186.78 2665.38,201.23 " fill="none" id="gcp.service-backto-gcp.cloudbuild" style="stroke:#181818;stroke-width:1.0;"/><polygon fill="none" points="2413.46,146.3,2395.75,134.67,2416.85,132.72,2413.46,146.3" style="stroke:#181818;stroke-width:1.0;"/></g><!--reverse link container.runtime to docker.engine--><g id="link_container.runtime_docker.engine"><path d="M2677,43.42 C2677,62.44 2677,86.85 2677,102.93 " fill="none" id="container.runtime-backto-docker.engine" style="stroke:#181818;stroke-width:1.0;"/><polygon fill="none" points="2670,43.24,2677,23.24,2684,43.24,2670,43.24" style="stroke:#181818;stroke-width:1.0;"/></g><!--reverse link cloud.service to kubernetes.cluster--><g id="link_cloud.service_kubernetes.cluster"><path d="M2444.58,39.39 C2459.43,58.88 2479.86,85.69 2493,102.93 " fill="none" id="cloud.service-backto-kubernetes.cluster" style="stroke:#181818;stroke-width:1.0;"/><polygon fill="none" points="2438.83,43.39,2432.28,23.24,2449.97,34.91,2438.83,43.39" style="stroke:#181818;stroke-width:1.0;"/></g><!--reverse link cloud.provider to openstack.provider--><g id="link_cloud.provider_openstack.provider"><path d="M2121.04,39.09 C2136.46,58.6 2157.81,85.6 2171.51,102.93 " fill="none" id="cloud.provider-backto-openstack.provider" style="stroke:#181818;stroke-width:1.0;"/><polygon fill="none" points="2115.42,43.27,2108.51,23.24,2126.41,34.59,2115.42,43.27" style="stroke:#181818;stroke-width:1.0;"/></g><!--reverse link relational.dbms to mysql.dbms--><g id="link_relational.dbms_mysql.dbms"><path d="M2841,43.42 C2841,62.44 2841,86.85 2841,102.93 " fill="none" id="relational.dbms-backto-mysql.dbms" style="stroke:#181818;stroke-width:1.0;"/><polygon fill="none" points="2834,43.24,2841,23.24,2848,43.24,2834,43.24" style="stroke:#181818;stroke-width:1.0;"/></g><!--reverse link relational.database to mysql.database--><g id="link_relational.database_mysql.database"><path d="M3009,43.42 C3009,62.44 3009,86.85 3009,102.93 " fill="none" id="relational.database-backto-mysql.database" style="stroke:#181818;stroke-width:1.0;"/><polygon fill="none" points="3002,43.24,3009,23.24,3016,43.24,3002,43.24" style="stroke:#181818;stroke-width:1.0;"/></g><!--SRC=[ZPD1SeCm34Ntd89X7qxGM_G4mgZ4mSYkBD9X9eSlII71mJRTOVwNP4jwljVaW64ebHsS9IJvbCbWoQW4g3DO5CNpkwp8jdZnDOyaUi0gfddagrPOWtD6An1jAVIvISwMuZaMxJ17Puyz5xX2lCf3EOnlhH1AF8FoPs1tdAFH13pzuptArOxjLRV8UsK9tmlAsB6TBvXG_BVPA_CTa3fDc94OdMNHr2KIDwCsxNktL8zSnrBtOuCyjnBz73rwUN-YdQjw0TKdMZ1CyqFgjXbyz3y8DE3lDOlAso_v0SRdrCgFs-aKsTigDfBG71zQiiHkhNCbidkU2qmkVl9URnZaacUuIARVKP8haCKc5vZbg7hiv6jvrbQ5J2skbQMDwOLNSDmuDfnbBN_0fInRyWuzMmIpDLSMAsL9u1wv7r68PhmJKKeJhOqIMp6QnqXWWNKn1_W6ffNSqFZa-HS0]--></g></svg>