<svg xmlns="http://www.w3.org/2000/svg" xmlns:xlink="http://www.w3.org/1999/xlink" contentStyleType="text/css" height="241px" preserveAspectRatio="none" style="width:687px;height:241px;background:#FFFFFF;" version="1.1" viewBox="0 0 687 241" width="687px" zoomAndPan="magnify"><defs/><g><!--entity artifact--><g id="elem_artifact"><rect fill="#F1F1F1" height="36.2969" rx="2.5" ry="2.5" style="stroke:#181818;stroke-width:0.5;" width="70.4082" x="281.27" y="103"/><text fill="#000000" font-family="sans-serif" font-size="14" lengthAdjust="spacing" textLength="50.4082" x="291.27" y="125.9951">artifact</text></g><!--entity source.archive--><g id="elem_source.archive"><rect fill="#F1F1F1" height="36.2969" rx="2.5" ry="2.5" style="stroke:#181818;stroke-width:0.5;" width="122.9424" x="7" y="199.29"/><text fill="#000000" font-family="sans-serif" font-size="14" lengthAdjust="spacing" textLength="102.9424" x="17" y="222.2851">source.archive</text></g><!--entity system.package--><g id="elem_system.package"><rect fill="#F1F1F1" height="36.2969" rx="2.5" ry="2.5" style="stroke:#181818;stroke-width:0.5;" width="134.4131" x="165.26" y="199.29"/><text fill="#000000" font-family="sans-serif" font-size="14" lengthAdjust="spacing" textLength="114.4131" x="175.26" y="222.2851">system.package</text></g><!--entity container.image--><g id="elem_container.image"><rect fill="#F1F1F1" height="36.2969" rx="2.5" ry="2.5" style="stroke:#181818;stroke-width:0.5;" width="134.3926" x="334.27" y="199.29"/><text fill="#000000" font-family="sans-serif" font-size="14" lengthAdjust="spacing" textLength="114.3926" x="344.27" y="222.2851">container.image</text></g><!--entity virtual.machine.image--><g id="elem_virtual.machine.image"><rect fill="#F1F1F1" height="36.2969" rx="2.5" ry="2.5" style="stroke:#181818;stroke-width:0.5;" width="177.4316" x="503.76" y="199.29"/><text fill="#000000" font-family="sans-serif" font-size="14" lengthAdjust="spacing" textLength="157.4316" x="513.76" y="222.2851">virtual.machine.image</text></g><!--entity tosca.artifacts.Root--><g id="elem_tosca.artifacts.Root"><ellipse cx="316.47" cy="14" fill="#F1F1F1" rx="8" ry="8" style="stroke:#181818;stroke-width:0.5;"/><text fill="#000000" font-family="sans-serif" font-size="14" lengthAdjust="spacing" textLength="136.5752" x="248.1824" y="43.9951">tosca.artifacts.Root</text></g><!--reverse link tosca.artifacts.Root to artifact--><g id="link_tosca.artifacts.Root_artifact"><path d="M316.47,40.9 C316.47,57.71 316.47,79.37 316.47,102.52 " fill="none" id="tosca.artifacts.Root-backto-artifact" style="stroke:#181818;stroke-width:1.0;"/><polygon fill="none" points="316.47,22.9,310.47,40.9,322.47,40.9,316.47,22.9" style="stroke:#181818;stroke-width:1.0;"/></g><!--reverse link artifact to source.archive--><g id="link_artifact_source.archive"><path d="M264.1147,142.0559 C220.3147,158.7059 162.62,180.64 114.49,198.94 " fill="none" id="artifact-backto-source.archive" style="stroke:#181818;stroke-width:1.0;"/><polygon fill="none" points="280.94,135.66,261.9827,136.4475,266.2466,147.6644,280.94,135.66" style="stroke:#181818;stroke-width:1.0;"/></g><!--reverse link artifact to system.package--><g id="link_artifact_system.package"><path d="M289.0886,152.882 C274.0286,169.792 263.19,181.96 248.06,198.94 " fill="none" id="artifact-backto-system.package" style="stroke:#181818;stroke-width:1.0;"/><polygon fill="none" points="301.06,139.44,284.608,148.8915,293.5693,156.8724,301.06,139.44" style="stroke:#181818;stroke-width:1.0;"/></g><!--reverse link artifact to container.image--><g id="link_artifact_container.image"><path d="M344.1105,152.811 C359.3505,169.721 370.39,181.96 385.69,198.94 " fill="none" id="artifact-backto-container.image" style="stroke:#181818;stroke-width:1.0;"/><polygon fill="none" points="332.06,139.44,339.6535,156.8279,348.5675,148.7942,332.06,139.44" style="stroke:#181818;stroke-width:1.0;"/></g><!--reverse link artifact to virtual.machine.image--><g id="link_artifact_virtual.machine.image"><path d="M369.0232,140.0998 C416.9932,156.4898 485.79,179.99 540.88,198.81 " fill="none" id="artifact-backto-virtual.machine.image" style="stroke:#181818;stroke-width:1.0;"/><polygon fill="none" points="351.99,134.28,367.0833,145.7775,370.9631,134.422,351.99,134.28" style="stroke:#181818;stroke-width:1.0;"/></g><!--SRC=[ROx12SCm34NldiBu7a_GATe9X51J4rioiX88TFZsqAR4xksZzn2lBOahA1IFKgemiTrip-ILq83dJCwvO_i0QkaEQE5qRR8gKWJ5HzgeOtipAh42BZ1t38KD4fF6L0Qu9RKLSYpm_ifqA2wOD8JuJMdnAcB1NvxJT0hyxGyRCaUZZnsCCNbG_eU_0000]--></g></svg>