<svg xmlns="http://www.w3.org/2000/svg" xmlns:xlink="http://www.w3.org/1999/xlink" contentStyleType="text/css" height="241px" preserveAspectRatio="none" style="width:3146px;height:241px;background:#FFFFFF;" version="1.1" viewBox="0 0 3146 241" width="3146px" zoomAndPan="magnify"><defs/><g><!--entity nodejs.runtime--><g id="elem_nodejs.runtime"><rect fill="#F1F1F1" height="36.2969" rx="2.5" ry="2.5" style="stroke:#181818;stroke-width:0.5;" width="125.7041" x="7" y="103"/><text fill="#000000" font-family="sans-serif" font-size="14" lengthAdjust="spacing" textLength="105.7041" x="17" y="125.9951">nodejs.runtime</text></g><!--entity nodejs.service.application--><g id="elem_nodejs.service.application"><rect fill="#F1F1F1" height="36.2969" rx="2.5" ry="2.5" style="stroke:#181818;stroke-width:0.5;" width="202.3965" x="635.65" y="103"/><text fill="#000000" font-family="sans-serif" font-size="14" lengthAdjust="spacing" textLength="182.3965" x="645.65" y="125.9951">nodejs.service.application</text></g><!--entity python.runtime--><g id="elem_python.runtime"><rect fill="#F1F1F1" height="36.2969" rx="2.5" ry="2.5" style="stroke:#181818;stroke-width:0.5;" width="128.5547" x="167.57" y="103"/><text fill="#000000" font-family="sans-serif" font-size="14" lengthAdjust="spacing" textLength="108.5547" x="177.57" y="125.9951">python.runtime</text></g><!--entity python.service.application--><g id="elem_python.service.application"><rect fill="#F1F1F1" height="36.2969" rx="2.5" ry="2.5" style="stroke:#181818;stroke-width:0.5;" width="205.2471" x="873.23" y="103"/><text fill="#000000" font-family="sans-serif" font-size="14" lengthAdjust="spacing" textLength="185.2471" x="883.23" y="125.9951">python.service.application</text></g><!--entity go.service.application--><g id="elem_go.service.application"><rect fill="#F1F1F1" height="36.2969" rx="2.5" ry="2.5" style="stroke:#181818;stroke-width:0.5;" width="173.7266" x="1112.99" y="103"/><text fill="#000000" font-family="sans-serif" font-size="14" lengthAdjust="spacing" textLength="153.7266" x="1122.99" y="125.9951">go.service.application</text></g><!--entity java.runtime--><g id="elem_java.runtime"><rect fill="#F1F1F1" height="36.2969" rx="2.5" ry="2.5" style="stroke:#181818;stroke-width:0.5;" width="108.915" x="331.39" y="103"/><text fill="#000000" font-family="sans-serif" font-size="14" lengthAdjust="spacing" textLength="88.915" x="341.39" y="125.9951">java.runtime</text></g><!--entity java.service.application--><g id="elem_java.service.application"><rect fill="#F1F1F1" height="36.2969" rx="2.5" ry="2.5" style="stroke:#181818;stroke-width:0.5;" width="185.6074" x="1322.05" y="103"/><text fill="#000000" font-family="sans-serif" font-size="14" lengthAdjust="spacing" textLength="165.6074" x="1332.05" y="125.9951">java.service.application</text></g><!--entity dotnet.runtime--><g id="elem_dotnet.runtime"><rect fill="#F1F1F1" height="36.2969" rx="2.5" ry="2.5" style="stroke:#181818;stroke-width:0.5;" width="125.499" x="475.1" y="103"/><text fill="#000000" font-family="sans-serif" font-size="14" lengthAdjust="spacing" textLength="105.499" x="485.1" y="125.9951">dotnet.runtime</text></g><!--entity csharp.service.application--><g id="elem_csharp.service.application"><rect fill="#F1F1F1" height="36.2969" rx="2.5" ry="2.5" style="stroke:#181818;stroke-width:0.5;" width="203.3604" x="1542.17" y="103"/><text fill="#000000" font-family="sans-serif" font-size="14" lengthAdjust="spacing" textLength="183.3604" x="1552.17" y="125.9951">csharp.service.application</text></g><!--entity binary.service.application--><g id="elem_binary.service.application"><rect fill="#F1F1F1" height="36.2969" rx="2.5" ry="2.5" style="stroke:#181818;stroke-width:0.5;" width="200.5439" x="1780.58" y="103"/><text fill="#000000" font-family="sans-serif" font-size="14" lengthAdjust="spacing" textLength="180.5439" x="1790.58" y="125.9951">binary.service.application</text></g><!--entity gcp.provider--><g id="elem_gcp.provider"><rect fill="#F1F1F1" height="36.2969" rx="2.5" ry="2.5" style="stroke:#181818;stroke-width:0.5;" width="108.5596" x="2016.57" y="103"/><text fill="#000000" font-family="sans-serif" font-size="14" lengthAdjust="spacing" textLength="88.5596" x="2026.57" y="125.9951">gcp.provider</text></g><!--entity gcp.service--><g id="elem_gcp.service"><rect fill="#F1F1F1" height="36.2969" rx="2.5" ry="2.5" style="stroke:#181818;stroke-width:0.5;" width="100.0693" x="2350.82" y="103"/><text fill="#000000" font-family="sans-serif" font-size="14" lengthAdjust="spacing" textLength="80.0693" x="2360.82" y="125.9951">gcp.service</text></g><!--entity gcp.cloudrun--><g id="elem_gcp.cloudrun"><rect fill="#F1F1F1" height="36.2969" rx="2.5" ry="2.5" style="stroke:#181818;stroke-width:0.5;" width="111.335" x="2049.18" y="199.29"/><text fill="#000000" font-family="sans-serif" font-size="14" lengthAdjust="spacing" textLength="91.335" x="2059.18" y="222.2851">gcp.cloudrun</text></g><!--entity gcp.cloudsql--><g id="elem_gcp.cloudsql"><rect fill="#F1F1F1" height="36.2969" rx="2.5" ry="2.5" style="stroke:#181818;stroke-width:0.5;" width="107.9033" x="2195.9" y="199.29"/><text fill="#000000" font-family="sans-serif" font-size="14" lengthAdjust="spacing" textLength="87.9033" x="2205.9" y="222.2851">gcp.cloudsql</text></g><!--entity gcp.appengine--><g id="elem_gcp.appengine"><rect fill="#F1F1F1" height="36.2969" rx="2.5" ry="2.5" style="stroke:#181818;stroke-width:0.5;" width="124.0225" x="2338.84" y="199.29"/><text fill="#000000" font-family="sans-serif" font-size="14" lengthAdjust="spacing" textLength="104.0225" x="2348.84" y="222.2851">gcp.appengine</text></g><!--entity gcp.appenginereporting--><g id="elem_gcp.appenginereporting"><rect fill="#F1F1F1" height="36.2969" rx="2.5" ry="2.5" style="stroke:#181818;stroke-width:0.5;" width="188.7383" x="2497.48" y="199.29"/><text fill="#000000" font-family="sans-serif" font-size="14" lengthAdjust="spacing" textLength="168.7383" x="2507.48" y="222.2851">gcp.appenginereporting</text></g><!--entity gcp.cloudbuild--><g id="elem_gcp.cloudbuild"><rect fill="#F1F1F1" height="36.2969" rx="2.5" ry="2.5" style="stroke:#181818;stroke-width:0.5;" width="122.2588" x="2720.72" y="199.29"/><text fill="#000000" font-family="sans-serif" font-size="14" lengthAdjust="spacing" textLength="102.2588" x="2730.72" y="222.2851">gcp.cloudbuild</text></g><!--entity docker.engine--><g id="elem_docker.engine"><rect fill="#F1F1F1" height="36.2969" rx="2.5" ry="2.5" style="stroke:#181818;stroke-width:0.5;" width="119.8252" x="2672.94" y="103"/><text fill="#000000" font-family="sans-serif" font-size="14" lengthAdjust="spacing" textLength="99.8252" x="2682.94" y="125.9951">docker.engine</text></g><!--entity kubernetes.cluster--><g id="elem_kubernetes.cluster"><rect fill="#F1F1F1" height="36.2969" rx="2.5" ry="2.5" style="stroke:#181818;stroke-width:0.5;" width="151.1816" x="2486.26" y="103"/><text fill="#000000" font-family="sans-serif" font-size="14" lengthAdjust="spacing" textLength="131.1816" x="2496.26" y="125.9951">kubernetes.cluster</text></g><!--entity openstack.provider--><g id="elem_openstack.provider"><rect fill="#F1F1F1" height="36.2969" rx="2.5" ry="2.5" style="stroke:#181818;stroke-width:0.5;" width="155.1943" x="2160.25" y="103"/><text fill="#000000" font-family="sans-serif" font-size="14" lengthAdjust="spacing" textLength="135.1943" x="2170.25" y="125.9951">openstack.provider</text></g><!--entity mysql.dbms--><g id="elem_mysql.dbms"><rect fill="#F1F1F1" height="36.2969" rx="2.5" ry="2.5" style="stroke:#181818;stroke-width:0.5;" width="105.1484" x="2847.28" y="103"/><text fill="#000000" font-family="sans-serif" font-size="14" lengthAdjust="spacing" textLength="85.1484" x="2857.28" y="125.9951">mysql.dbms</text></g><!--entity mysql.database--><g id="elem_mysql.database"><rect fill="#F1F1F1" height="36.2969" rx="2.5" ry="2.5" style="stroke:#181818;stroke-width:0.5;" width="131.3506" x="3006.18" y="103"/><text fill="#000000" font-family="sans-serif" font-size="14" lengthAdjust="spacing" textLength="111.3506" x="3016.18" y="125.9951">mysql.database</text></g><!--entity software.runtime--><g id="elem_software.runtime"><ellipse cx="308.85" cy="14" fill="#F1F1F1" rx="8" ry="8" style="stroke:#181818;stroke-width:0.5;"/><text fill="#000000" font-family="sans-serif" font-size="14" lengthAdjust="spacing" textLength="120.2578" x="248.7211" y="43.9951">software.runtime</text></g><!--entity service.application--><g id="elem_service.application"><ellipse cx="1306.85" cy="14" fill="#F1F1F1" rx="8" ry="8" style="stroke:#181818;stroke-width:0.5;"/><text fill="#000000" font-family="sans-serif" font-size="14" lengthAdjust="spacing" textLength="131.8242" x="1240.9379" y="43.9951">service.application</text></g><!--entity cloud.provider--><g id="elem_cloud.provider"><ellipse cx="2153.85" cy="14" fill="#F1F1F1" rx="8" ry="8" style="stroke:#181818;stroke-width:0.5;"/><text fill="#000000" font-family="sans-serif" font-size="14" lengthAdjust="spacing" textLength="101.001" x="2103.3495" y="43.9951">cloud.provider</text></g><!--entity cloud.service--><g id="elem_cloud.service"><ellipse cx="2480.85" cy="14" fill="#F1F1F1" rx="8" ry="8" style="stroke:#181818;stroke-width:0.5;"/><text fill="#000000" font-family="sans-serif" font-size="14" lengthAdjust="spacing" textLength="92.5107" x="2434.5946" y="43.9951">cloud.service</text></g><!--entity container.runtime--><g id="elem_container.runtime"><ellipse cx="2732.85" cy="14" fill="#F1F1F1" rx="8" ry="8" style="stroke:#181818;stroke-width:0.5;"/><text fill="#000000" font-family="sans-serif" font-size="14" lengthAdjust="spacing" textLength="125.918" x="2669.891" y="43.9951">container.runtime</text></g><!--entity relational.dbms--><g id="elem_relational.dbms"><ellipse cx="2899.85" cy="14" fill="#F1F1F1" rx="8" ry="8" style="stroke:#181818;stroke-width:0.5;"/><text fill="#000000" font-family="sans-serif" font-size="14" lengthAdjust="spacing" textLength="109.2793" x="2845.2104" y="43.9951">relational.dbms</text></g><!--entity relational.database--><g id="elem_relational.database"><ellipse cx="3071.85" cy="14" fill="#F1F1F1" rx="8" ry="8" style="stroke:#181818;stroke-width:0.5;"/><text fill="#000000" font-family="sans-serif" font-size="14" lengthAdjust="spacing" textLength="135.4814" x="3004.1093" y="43.9951">relational.database</text></g><!--reverse link software.runtime to nodejs.runtime--><g id="link_software.runtime_nodejs.runtime"><path d="M283.5861,26.1133 C253.1061,39.5333 167.12,77.35 109.7,102.61 " fill="none" id="software.runtime-backto-nodejs.runtime" style="stroke:#181818;stroke-width:1.0;"/><polygon fill="none" points="300.06,18.86,281.1683,20.622,286.0038,31.6046,300.06,18.86" style="stroke:#181818;stroke-width:1.0;"/></g><!--reverse link service.application to nodejs.service.application--><g id="link_service.application_nodejs.service.application"><path d="M1280.1985,19.9147 C1228.0385,29.5347 978.38,75.59 832.36,102.53 " fill="none" id="service.application-backto-nodejs.service.application" style="stroke:#181818;stroke-width:1.0;"/><polygon fill="none" points="1297.9,16.65,1279.1103,14.0142,1281.2868,25.8152,1297.9,16.65" style="stroke:#181818;stroke-width:1.0;"/></g><!--reverse link software.runtime to python.runtime--><g id="link_software.runtime_python.runtime"><path d="M292.4252,37.4224 C280.1152,54.2324 261.71,79.37 244.76,102.52 " fill="none" id="software.runtime-backto-python.runtime" style="stroke:#181818;stroke-width:1.0;"/><polygon fill="none" points="303.06,22.9,287.5844,33.8775,297.266,40.9674,303.06,22.9" style="stroke:#181818;stroke-width:1.0;"/></g><!--reverse link service.application to python.service.application--><g id="link_service.application_python.service.application"><path d="M1280.844,23.2571 C1243.364,35.1571 1113.14,76.53 1031.33,102.52 " fill="none" id="service.application-backto-python.service.application" style="stroke:#181818;stroke-width:1.0;"/><polygon fill="none" points="1298,17.81,1279.0283,17.5384,1282.6597,28.9758,1298,17.81" style="stroke:#181818;stroke-width:1.0;"/></g><!--reverse link service.application to go.service.application--><g id="link_service.application_go.service.application"><path d="M1285.97,35.5149 C1268.86,52.3249 1241.34,79.37 1217.79,102.52 " fill="none" id="service.application-backto-go.service.application" style="stroke:#181818;stroke-width:1.0;"/><polygon fill="none" points="1298.81,22.9,1281.7651,31.2349,1290.175,39.7949,1298.81,22.9" style="stroke:#181818;stroke-width:1.0;"/></g><!--reverse link software.runtime to java.runtime--><g id="link_software.runtime_java.runtime"><path d="M325.2748,37.4224 C337.5848,54.2324 355.99,79.37 372.94,102.52 " fill="none" id="software.runtime-backto-java.runtime" style="stroke:#181818;stroke-width:1.0;"/><polygon fill="none" points="314.64,22.9,320.434,40.9674,330.1156,33.8775,314.64,22.9" style="stroke:#181818;stroke-width:1.0;"/></g><!--reverse link service.application to java.service.application--><g id="link_service.application_java.service.application"><path d="M1327.8685,35.455 C1345.1385,52.265 1372.97,79.37 1396.74,102.52 " fill="none" id="service.application-backto-java.service.application" style="stroke:#181818;stroke-width:1.0;"/><polygon fill="none" points="1314.97,22.9,1323.6836,39.7545,1332.0535,31.1555,1314.97,22.9" style="stroke:#181818;stroke-width:1.0;"/></g><!--reverse link software.runtime to dotnet.runtime--><g id="link_software.runtime_dotnet.runtime"><path d="M334.1872,26.6328 C364.0372,40.3428 444.82,77.43 499.52,102.54 " fill="none" id="software.runtime-backto-dotnet.runtime" style="stroke:#181818;stroke-width:1.0;"/><polygon fill="none" points="317.83,19.12,331.6829,32.0852,336.6915,21.1804,317.83,19.12" style="stroke:#181818;stroke-width:1.0;"/></g><!--reverse link service.application to csharp.service.application--><g id="link_service.application_csharp.service.application"><path d="M1332.7032,23.0606 C1370.3032,34.7906 1503.98,76.5 1587.5,102.56 " fill="none" id="service.application-backto-csharp.service.application" style="stroke:#181818;stroke-width:1.0;"/><polygon fill="none" points="1315.52,17.7,1330.9164,28.7884,1334.4901,17.3329,1315.52,17.7" style="stroke:#181818;stroke-width:1.0;"/></g><!--reverse link service.application to binary.service.application--><g id="link_service.application_binary.service.application"><path d="M1333.115,19.8054 C1384.505,29.2254 1637.12,75.5 1784.61,102.51 " fill="none" id="service.application-backto-binary.service.application" style="stroke:#181818;stroke-width:1.0;"/><polygon fill="none" points="1315.41,16.56,1332.0332,25.7071,1334.1968,13.9037,1315.41,16.56" style="stroke:#181818;stroke-width:1.0;"/></g><!--reverse link cloud.provider to gcp.provider--><g id="link_cloud.provider_gcp.provider"><path d="M2136.4569,37.0283 C2123.1869,53.8383 2103.04,79.37 2084.77,102.52 " fill="none" id="cloud.provider-backto-gcp.provider" style="stroke:#181818;stroke-width:1.0;"/><polygon fill="none" points="2147.61,22.9,2131.7475,33.3106,2141.1664,40.746,2147.61,22.9" style="stroke:#181818;stroke-width:1.0;"/></g><!--reverse link cloud.service to gcp.service--><g id="link_cloud.service_gcp.service"><path d="M2463.9407,37.225 C2451.1507,54.035 2431.87,79.37 2414.26,102.52 " fill="none" id="cloud.service-backto-gcp.service" style="stroke:#181818;stroke-width:1.0;"/><polygon fill="none" points="2474.84,22.9,2459.1657,33.5919,2468.7157,40.8581,2474.84,22.9" style="stroke:#181818;stroke-width:1.0;"/></g><!--reverse link gcp.service to gcp.cloudrun--><g id="link_gcp.service_gcp.cloudrun"><path d="M2333.4893,143.6038 C2280.6293,160.4438 2214.78,181.42 2160.1,198.84 " fill="none" id="gcp.service-backto-gcp.cloudrun" style="stroke:#181818;stroke-width:1.0;"/><polygon fill="none" points="2350.64,138.14,2331.668,137.8869,2335.3106,149.3207,2350.64,138.14" style="stroke:#181818;stroke-width:1.0;"/></g><!--reverse link gcp.service to gcp.cloudsql--><g id="link_gcp.service_gcp.cloudsql"><path d="M2357.5325,149.1944 C2330.5025,166.0744 2305.08,181.95 2278.01,198.86 " fill="none" id="gcp.service-backto-gcp.cloudsql" style="stroke:#181818;stroke-width:1.0;"/><polygon fill="none" points="2372.8,139.66,2354.3544,144.1052,2360.7107,154.2835,2372.8,139.66" style="stroke:#181818;stroke-width:1.0;"/></g><!--reverse link gcp.service to gcp.appengine--><g id="link_gcp.service_gcp.appengine"><path d="M2400.85,157.44 C2400.85,174.35 2400.85,181.96 2400.85,198.94 " fill="none" id="gcp.service-backto-gcp.appengine" style="stroke:#181818;stroke-width:1.0;"/><polygon fill="none" points="2400.85,139.44,2394.85,157.44,2406.85,157.44,2400.85,139.44" style="stroke:#181818;stroke-width:1.0;"/></g><!--reverse link gcp.service to gcp.appenginereporting--><g id="link_gcp.service_gcp.appenginereporting"><path d="M2452.471,147.6267 C2486.671,164.5067 2522,181.95 2556.24,198.86 " fill="none" id="gcp.service-backto-gcp.appenginereporting" style="stroke:#181818;stroke-width:1.0;"/><polygon fill="none" points="2436.33,139.66,2449.8154,153.007,2455.1266,142.2463,2436.33,139.66" style="stroke:#181818;stroke-width:1.0;"/></g><!--reverse link gcp.service to gcp.cloudbuild--><g id="link_gcp.service_gcp.cloudbuild"><path d="M2468.8091,139.2896 C2474.7091,140.7696 2463.18,137.88 2468.85,139.29 C2556.15,161.06 2657.23,185.91 2720.36,201.39 " fill="none" id="gcp.service-backto-gcp.cloudbuild" style="stroke:#181818;stroke-width:1.0;"/><polygon fill="none" points="2451.35,134.91,2467.3492,145.1093,2470.2689,133.4699,2451.35,134.91" style="stroke:#181818;stroke-width:1.0;"/></g><!--reverse link container.runtime to docker.engine--><g id="link_container.runtime_docker.engine"><path d="M2732.85,40.9 C2732.85,57.71 2732.85,79.37 2732.85,102.52 " fill="none" id="container.runtime-backto-docker.engine" style="stroke:#181818;stroke-width:1.0;"/><polygon fill="none" points="2732.85,22.9,2726.85,40.9,2738.85,40.9,2732.85,22.9" style="stroke:#181818;stroke-width:1.0;"/></g><!--reverse link cloud.service to kubernetes.cluster--><g id="link_cloud.service_kubernetes.cluster"><path d="M2497.925,37.1593 C2510.875,53.9693 2530.44,79.37 2548.27,102.52 " fill="none" id="cloud.service-backto-kubernetes.cluster" style="stroke:#181818;stroke-width:1.0;"/><polygon fill="none" points="2486.94,22.9,2493.1719,40.821,2502.6782,33.4977,2486.94,22.9" style="stroke:#181818;stroke-width:1.0;"/></g><!--reverse link cloud.provider to openstack.provider--><g id="link_cloud.provider_openstack.provider"><path d="M2171.4053,36.963 C2184.8353,53.773 2205.28,79.37 2223.77,102.52 " fill="none" id="cloud.provider-backto-openstack.provider" style="stroke:#181818;stroke-width:1.0;"/><polygon fill="none" points="2160.17,22.9,2166.7177,40.7081,2176.093,33.2179,2160.17,22.9" style="stroke:#181818;stroke-width:1.0;"/></g><!--reverse link relational.dbms to mysql.dbms--><g id="link_relational.dbms_mysql.dbms"><path d="M2899.85,40.9 C2899.85,57.71 2899.85,79.37 2899.85,102.52 " fill="none" id="relational.dbms-backto-mysql.dbms" style="stroke:#181818;stroke-width:1.0;"/><polygon fill="none" points="2899.85,22.9,2893.85,40.9,2905.85,40.9,2899.85,22.9" style="stroke:#181818;stroke-width:1.0;"/></g><!--reverse link relational.database to mysql.database--><g id="link_relational.database_mysql.database"><path d="M3071.85,40.9 C3071.85,57.71 3071.85,79.37 3071.85,102.52 " fill="none" id="relational.database-backto-mysql.database" style="stroke:#181818;stroke-width:1.0;"/><polygon fill="none" points="3071.85,22.9,3065.85,40.9,3077.85,40.9,3071.85,22.9" style="stroke:#181818;stroke-width:1.0;"/></g><!--SRC=[ZPD1SeCm34Ntd89X7qxGM_G4mgZ4mSYkBD9X9eSlII71mJRTWV-NP4jwljVaW64ebHsS9IJvbCbWoQW4g3DO5CNpkwp8jdZnDOyaUi0gfddagrPOWtD6An1jAVIvISwMuZaMxJ17Puyz5xX2lCf3EOnlhH1AF8FoPs1tdAFH13pzuptArOxjLRV8UsK9tmlAsB6TBvXG_BVPA_CTa3fDc94OdMNHr2KIDwCsxNktL8zSnrBtOuCyjnBz73rwUN-YdQjw0TKdMZ1CyqFgjXbyz1m46l3tcaNbxPVy0EDpQkN7xNIAx6qL6qbeZWyjMMAtrhaIsJtF1IONFtclDmnooJDS9DFlACaLo6AJ2ynoL3rsyhKyQwj2fXRNojB6zC8h-DquDfnbBN_0fInRyWuzMmIpDLSMAsL9u1wv7r68PhmJKKeJhOqIMp6QnqXWWNKn1_W6ffNSqBYU_W80]--></g></svg>