<svg xmlns="http://www.w3.org/2000/svg" xmlns:xlink="http://www.w3.org/1999/xlink" contentStyleType="text/css" height="433px" preserveAspectRatio="none" style="width:1026px;height:433px;background:#FFFFFF;" version="1.1" viewBox="0 0 1026 433" width="1026px" zoomAndPan="magnify"><defs/><g><!--entity node--><g id="elem_node"><rect fill="#F1F1F1" height="36.2969" rx="2.5" ry="2.5" style="stroke:#181818;stroke-width:0.5;" width="56" x="532" y="103"/><text fill="#000000" font-family="sans-serif" font-size="14" lengthAdjust="spacing" textLength="36" x="542" y="125.9951">node</text></g><!--entity cloud.provider--><g id="elem_cloud.provider"><rect fill="#F1F1F1" height="36.2969" rx="2.5" ry="2.5" style="stroke:#181818;stroke-width:0.5;" width="118" x="7" y="199"/><text fill="#000000" font-family="sans-serif" font-size="14" lengthAdjust="spacing" textLength="98" x="17" y="221.9951">cloud.provider</text></g><!--entity cloud.service--><g id="elem_cloud.service"><rect fill="#F1F1F1" height="36.2969" rx="2.5" ry="2.5" style="stroke:#181818;stroke-width:0.5;" width="111" x="160.5" y="199"/><text fill="#000000" font-family="sans-serif" font-size="14" lengthAdjust="spacing" textLength="91" x="170.5" y="221.9951">cloud.service</text></g><!--entity software.application--><g id="elem_software.application"><rect fill="#F1F1F1" height="36.2969" rx="2.5" ry="2.5" style="stroke:#181818;stroke-width:0.5;" width="157" x="306.5" y="199"/><text fill="#000000" font-family="sans-serif" font-size="14" lengthAdjust="spacing" textLength="137" x="316.5" y="221.9951">software.application</text></g><!--entity service.application--><g id="elem_service.application"><rect fill="#F1F1F1" height="36.2969" rx="2.5" ry="2.5" style="stroke:#181818;stroke-width:0.5;" width="147" x="134.5" y="295"/><text fill="#000000" font-family="sans-serif" font-size="14" lengthAdjust="spacing" textLength="127" x="144.5" y="317.9951">service.application</text></g><!--entity software.runtime--><g id="elem_software.runtime"><rect fill="#F1F1F1" height="36.2969" rx="2.5" ry="2.5" style="stroke:#181818;stroke-width:0.5;" width="136" x="317" y="295"/><text fill="#000000" font-family="sans-serif" font-size="14" lengthAdjust="spacing" textLength="116" x="327" y="317.9951">software.runtime</text></g><!--entity container.runtime--><g id="elem_container.runtime"><rect fill="#F1F1F1" height="36.2969" rx="2.5" ry="2.5" style="stroke:#181818;stroke-width:0.5;" width="142" x="305" y="391"/><text fill="#000000" font-family="sans-serif" font-size="14" lengthAdjust="spacing" textLength="122" x="315" y="413.9951">container.runtime</text></g><!--entity virtual.machine--><g id="elem_virtual.machine"><rect fill="#F1F1F1" height="36.2969" rx="2.5" ry="2.5" style="stroke:#181818;stroke-width:0.5;" width="123" x="498.5" y="199"/><text fill="#000000" font-family="sans-serif" font-size="14" lengthAdjust="spacing" textLength="103" x="508.5" y="221.9951">virtual.machine</text></g><!--entity physical.machine--><g id="elem_physical.machine"><rect fill="#F1F1F1" height="36.2969" rx="2.5" ry="2.5" style="stroke:#181818;stroke-width:0.5;" width="138" x="657" y="199"/><text fill="#000000" font-family="sans-serif" font-size="14" lengthAdjust="spacing" textLength="118" x="667" y="221.9951">physical.machine</text></g><!--entity database--><g id="elem_database"><rect fill="#F1F1F1" height="36.2969" rx="2.5" ry="2.5" style="stroke:#181818;stroke-width:0.5;" width="84" x="830" y="199"/><text fill="#000000" font-family="sans-serif" font-size="14" lengthAdjust="spacing" textLength="64" x="840" y="221.9951">database</text></g><!--entity relational.database--><g id="elem_relational.database"><rect fill="#F1F1F1" height="36.2969" rx="2.5" ry="2.5" style="stroke:#181818;stroke-width:0.5;" width="150" x="797" y="295"/><text fill="#000000" font-family="sans-serif" font-size="14" lengthAdjust="spacing" textLength="130" x="807" y="317.9951">relational.database</text></g><!--entity dbms--><g id="elem_dbms"><rect fill="#F1F1F1" height="36.2969" rx="2.5" ry="2.5" style="stroke:#181818;stroke-width:0.5;" width="59" x="497.5" y="295"/><text fill="#000000" font-family="sans-serif" font-size="14" lengthAdjust="spacing" textLength="39" x="507.5" y="317.9951">dbms</text></g><!--entity relational.dbms--><g id="elem_relational.dbms"><rect fill="#F1F1F1" height="36.2969" rx="2.5" ry="2.5" style="stroke:#181818;stroke-width:0.5;" width="125" x="482.5" y="391"/><text fill="#000000" font-family="sans-serif" font-size="14" lengthAdjust="spacing" textLength="105" x="492.5" y="413.9951">relational.dbms</text></g><!--entity ingress--><g id="elem_ingress"><rect fill="#F1F1F1" height="36.2969" rx="2.5" ry="2.5" style="stroke:#181818;stroke-width:0.5;" width="71" x="949.5" y="199"/><text fill="#000000" font-family="sans-serif" font-size="14" lengthAdjust="spacing" textLength="51" x="959.5" y="221.9951">ingress</text></g><!--entity tosca.nodes.Root--><g id="elem_tosca.nodes.Root"><ellipse cx="560" cy="14" fill="#F1F1F1" rx="8" ry="8" style="stroke:#181818;stroke-width:0.5;"/><text fill="#000000" font-family="sans-serif" font-size="14" lengthAdjust="spacing" textLength="123" x="498.5" y="43.9951">tosca.nodes.Root</text></g><!--reverse link tosca.nodes.Root to node--><g id="link_tosca.nodes.Root_node"><path d="M560,43.42 C560,62.44 560,86.85 560,102.93 " fill="none" id="tosca.nodes.Root-backto-node" style="stroke:#181818;stroke-width:1.0;"/><polygon fill="none" points="553,43.24,560,23.24,567,43.24,553,43.24" style="stroke:#181818;stroke-width:1.0;"/></g><!--reverse link node to cloud.provider--><g id="link_node_cloud.provider"><path d="M511.91,130.32 C434.2,143.89 276.22,172 143,199 C137.23,200.17 131.23,201.43 125.23,202.71 " fill="none" id="node-backto-cloud.provider" style="stroke:#181818;stroke-width:1.0;"/><polygon fill="none" points="510.72,123.42,531.62,126.89,513.12,137.22,510.72,123.42" style="stroke:#181818;stroke-width:1.0;"/></g><!--reverse link node to cloud.service--><g id="link_node_cloud.service"><path d="M512.46,134.99 C449.49,152.2 338.61,182.5 271.76,200.76 " fill="none" id="node-backto-cloud.service" style="stroke:#181818;stroke-width:1.0;"/><polygon fill="none" points="510.71,128.21,531.85,129.69,514.4,141.72,510.71,128.21" style="stroke:#181818;stroke-width:1.0;"/></g><!--reverse link node to software.application--><g id="link_node_software.application"><path d="M514.17,146.62 C483.58,163.05 444.11,184.25 416.9,198.86 " fill="none" id="node-backto-software.application" style="stroke:#181818;stroke-width:1.0;"/><polygon fill="none" points="510.95,140.4,531.88,137.1,517.58,152.73,510.95,140.4" style="stroke:#181818;stroke-width:1.0;"/></g><!--reverse link software.application to service.application--><g id="link_software.application_service.application"><path d="M335.13,244.48 C304.67,260.66 266.61,280.87 240.11,294.95 " fill="none" id="software.application-backto-service.application" style="stroke:#181818;stroke-width:1.0;"/><polygon fill="none" points="332,238.22,352.95,235.02,338.57,250.59,332,238.22" style="stroke:#181818;stroke-width:1.0;"/></g><!--reverse link software.application to software.runtime--><g id="link_software.application_software.runtime"><path d="M385,255.62 C385,269.21 385,283.89 385,294.87 " fill="none" id="software.application-backto-software.runtime" style="stroke:#181818;stroke-width:1.0;"/><polygon fill="none" points="378,255.24,385,235.24,392,255.24,378,255.24" style="stroke:#181818;stroke-width:1.0;"/></g><!--reverse link software.runtime to container.runtime--><g id="link_software.runtime_container.runtime"><path d="M381.4,351.62 C380.1,365.21 378.69,379.89 377.64,390.87 " fill="none" id="software.runtime-backto-container.runtime" style="stroke:#181818;stroke-width:1.0;"/><polygon fill="none" points="374.47,350.48,383.35,331.24,388.41,351.82,374.47,350.48" style="stroke:#181818;stroke-width:1.0;"/></g><!--reverse link node to virtual.machine--><g id="link_node_virtual.machine"><path d="M560,159.62 C560,173.21 560,187.89 560,198.87 " fill="none" id="node-backto-virtual.machine" style="stroke:#181818;stroke-width:1.0;"/><polygon fill="none" points="553,159.24,560,139.24,567,159.24,553,159.24" style="stroke:#181818;stroke-width:1.0;"/></g><!--reverse link node to physical.machine--><g id="link_node_physical.machine"><path d="M605.73,147.9 C634.41,164.14 670.58,184.62 695.73,198.86 " fill="none" id="node-backto-physical.machine" style="stroke:#181818;stroke-width:1.0;"/><polygon fill="none" points="602.11,153.89,588.16,137.95,609.01,141.71,602.11,153.89" style="stroke:#181818;stroke-width:1.0;"/></g><!--reverse link node to database--><g id="link_node_database"><path d="M607.74,136.38 C668.37,154.65 772.03,185.88 829.86,203.3 " fill="none" id="node-backto-database" style="stroke:#181818;stroke-width:1.0;"/><polygon fill="none" points="605.37,142.98,588.24,130.51,609.41,129.57,605.37,142.98" style="stroke:#181818;stroke-width:1.0;"/></g><!--reverse link database to relational.database--><g id="link_database_relational.database"><path d="M872,255.62 C872,269.21 872,283.89 872,294.87 " fill="none" id="database-backto-relational.database" style="stroke:#181818;stroke-width:1.0;"/><polygon fill="none" points="865,255.24,872,235.24,879,255.24,865,255.24" style="stroke:#181818;stroke-width:1.0;"/></g><!--reverse link software.application to dbms--><g id="link_software.application_dbms"><path d="M427.74,246.29 C451.6,262.08 480.54,281.24 501,294.79 " fill="none" id="software.application-backto-dbms" style="stroke:#181818;stroke-width:1.0;"/><polygon fill="none" points="423.53,251.9,410.72,235.02,431.26,240.23,423.53,251.9" style="stroke:#181818;stroke-width:1.0;"/></g><!--reverse link dbms to relational.dbms--><g id="link_dbms_relational.dbms"><path d="M534.11,351.13 C536.74,364.86 539.59,379.76 541.72,390.87 " fill="none" id="dbms-backto-relational.dbms" style="stroke:#181818;stroke-width:1.0;"/><polygon fill="none" points="527.19,352.2,530.3,331.24,540.94,349.57,527.19,352.2" style="stroke:#181818;stroke-width:1.0;"/></g><!--reverse link node to ingress--><g id="link_node_ingress"><path d="M607.98,130.37 C679.03,143.11 816.2,169.1 931,199 C936.99,200.56 943.31,202.38 949.42,204.24 " fill="none" id="node-backto-ingress" style="stroke:#181818;stroke-width:1.0;"/><polygon fill="none" points="606.61,137.23,588.15,126.84,609.06,123.45,606.61,137.23" style="stroke:#181818;stroke-width:1.0;"/></g><!--SRC=[VP5RZiCW34N_iuee_sK5NSNC2bpmjAY0aN4ogZIBRpfvj0IIBz0zlecJa-usH63mhIOVAM2GRtauR1crGBWwR9fclRTT88DTbcX7lL6HQR06kSOIyc3rffReHtw1KK6CpceGIs4pCTKE1fP7S1_4-krU50HiGAxZmRBqu9G7VHkdSXXlZpI-SeSQ4BX0sgICxd_7iLKVC1UVzYi5jE7Ac5vXqmab3UhrxvFw8fAkFV-TJgkDwPopmaU5leraSCT9FLywLKl7bT9RcItxLYncEvSUCrmncV4FLU_xpEf63pzjrZYTbSVC-7E3rVCJ]--></g></svg>