<?xml version="1.0" encoding="UTF-8" standalone="no"?><svg xmlns="http://www.w3.org/2000/svg" xmlns:xlink="http://www.w3.org/1999/xlink" contentStyleType="text/css" height="331px" preserveAspectRatio="none" style="width:401px;height:331px;background:#FFFFFF;" version="1.1" viewBox="0 0 401 331" width="401px" zoomAndPan="magnify"><defs/><g><!--MD5=[a92fd8a1e3181657b0ded5c3bf44e9d3]
entity software_a--><g id="elem_software_a"><rect fill="#F1F1F1" height="37.6094" rx="2.5" ry="2.5" style="stroke:#181818;stroke-width:0.5;" width="89" x="31.5" y="92"/><text fill="#000000" font-family="sans-serif" font-size="14" lengthAdjust="spacing" textLength="69" x="41.5" y="116.5332">software_a</text></g><!--MD5=[2e7106dbeec9ee2fa344ed6291715258]
entity v_ecu_a--><g id="elem_v_ecu_a"><rect fill="#F1F1F1" height="37.6094" rx="2.5" ry="2.5" style="stroke:#181818;stroke-width:0.5;" width="74" x="39" y="190"/><text fill="#000000" font-family="sans-serif" font-size="14" lengthAdjust="spacing" textLength="54" x="49" y="214.5332">v_ecu_a</text></g><!--MD5=[9632f4b4345b52c3a33bd4c6ee6e88df]
entity v_can_bus--><g id="elem_v_can_bus"><rect fill="#F1F1F1" height="37.6094" rx="2.5" ry="2.5" style="stroke:#181818;stroke-width:0.5;" width="89" x="155.5" y="92"/><text fill="#000000" font-family="sans-serif" font-size="14" lengthAdjust="spacing" textLength="69" x="165.5" y="116.5332">v_can_bus</text></g><!--MD5=[9db9c0d933fcf248334ea772e8ef634a]
entity software_b--><g id="elem_software_b"><rect fill="#F1F1F1" height="37.6094" rx="2.5" ry="2.5" style="stroke:#181818;stroke-width:0.5;" width="89" x="279.5" y="92"/><text fill="#000000" font-family="sans-serif" font-size="14" lengthAdjust="spacing" textLength="69" x="289.5" y="116.5332">software_b</text></g><!--MD5=[2dd7bdbaf2e118f10fc1c89e241e3ffc]
entity v_ecu_b--><g id="elem_v_ecu_b"><rect fill="#F1F1F1" height="37.6094" rx="2.5" ry="2.5" style="stroke:#181818;stroke-width:0.5;" width="74" x="287" y="190"/><text fill="#000000" font-family="sans-serif" font-size="14" lengthAdjust="spacing" textLength="54" x="297" y="214.5332">v_ecu_b</text></g><!--MD5=[c153ddd4be19da884d49f56fddc564ac]
entity compute--><g id="elem_compute"><rect fill="#F1F1F1" height="37.6094" rx="2.5" ry="2.5" style="stroke:#181818;stroke-width:0.5;" width="74" x="163" y="288"/><text fill="#000000" font-family="sans-serif" font-size="14" lengthAdjust="spacing" textLength="54" x="173" y="312.5332">compute</text></g><g id="elem_GMN15"><path d="M166,6 L166,32.3516 A0,0 0 0 0 166,32.3516 L196,32.3516 L200,91.84 L204,32.3516 L234,32.3516 A0,0 0 0 0 234,32.3516 L234,16 L224,6 L166,6 A0,0 0 0 0 166,6 " fill="#FEFFDD" style="stroke:#181818;stroke-width:0.5;"/><path d="M224,6 L224,16 L234,16 L224,6 " fill="#FEFFDD" style="stroke:#181818;stroke-width:0.5;"/><text fill="#000000" font-family="sans-serif" font-size="13" lengthAdjust="spacing" textLength="47" x="172" y="24.4951">init vcan</text></g><g id="elem_GMN18"><path d="M6,294 L6,320.3516 A0,0 0 0 0 6,320.3516 L128,320.3516 A0,0 0 0 0 128,320.3516 L128,304 L118,294 L72.14,294 L74.31,228.06 L64.14,294 L6,294 A0,0 0 0 0 6,294 " fill="#FEFFDD" style="stroke:#181818;stroke-width:0.5;"/><path d="M118,294 L118,304 L128,304 L118,294 " fill="#FEFFDD" style="stroke:#181818;stroke-width:0.5;"/><text fill="#000000" font-family="sans-serif" font-size="13" lengthAdjust="spacing" textLength="101" x="12" y="312.4951">mount v_can_bus</text></g><g id="elem_GMN21"><path d="M272,294 L272,320.3516 A0,0 0 0 0 272,320.3516 L394,320.3516 A0,0 0 0 0 394,320.3516 L394,304 L384,294 L335.86,294 L325.69,228.06 L327.86,294 L272,294 A0,0 0 0 0 272,294 " fill="#FEFFDD" style="stroke:#181818;stroke-width:0.5;"/><path d="M384,294 L384,304 L394,304 L384,294 " fill="#FEFFDD" style="stroke:#181818;stroke-width:0.5;"/><text fill="#000000" font-family="sans-serif" font-size="13" lengthAdjust="spacing" textLength="101" x="278" y="312.4951">mount v_can_bus</text></g><!--MD5=[17fc90a3e5fff1b7d3249ec9ad2ea9a0]
link software_a to v_ecu_a--><g id="link_software_a_v_ecu_a"><path d="M76,130.06 C76,145.51 76,167.86 76,184.67 " fill="none" id="software_a-to-v_ecu_a" style="stroke:#181818;stroke-width:1.0;"/><polygon fill="#181818" points="76,189.7,80,180.7,76,184.7,72,180.7,76,189.7" style="stroke:#181818;stroke-width:1.0;"/></g><!--MD5=[0daf8d5295841209a564c6823cd2359a]
link software_b to v_ecu_b--><g id="link_software_b_v_ecu_b"><path d="M324,130.06 C324,145.51 324,167.86 324,184.67 " fill="none" id="software_b-to-v_ecu_b" style="stroke:#181818;stroke-width:1.0;"/><polygon fill="#181818" points="324,189.7,328,180.7,324,184.7,320,180.7,324,189.7" style="stroke:#181818;stroke-width:1.0;"/></g><!--MD5=[63d0f0a823af3b4743ca50664b9d4770]
link software_a to v_can_bus--><g id="link_software_a_v_can_bus"><path d="M120.56,111 C130.43,111 140.29,111 150.16,111 " fill="none" id="software_a-to-v_can_bus" style="stroke:#181818;stroke-width:1.0;"/><polygon fill="#181818" points="155.32,111,146.32,107,150.32,111,146.32,115,155.32,111" style="stroke:#181818;stroke-width:1.0;"/></g><!--MD5=[50e55e4febd85e0cf1fd8f4b38e51f79]
reverse link v_can_bus to software_b--><g id="link_v_can_bus_software_b"><path d="M249.72,111 C259.59,111 269.45,111 279.32,111 " fill="none" id="v_can_bus-backto-software_b" style="stroke:#181818;stroke-width:1.0;"/><polygon fill="#181818" points="244.56,111,253.56,115,249.56,111,253.56,107,244.56,111" style="stroke:#181818;stroke-width:1.0;"/></g><!--MD5=[f02a827f47cf8391d1f37fe0dd65a53f]
link v_ecu_a to compute--><g id="link_v_ecu_a_compute"><path d="M99.32,228.06 C120.06,244.11 150.41,267.61 172.36,284.6 " fill="none" id="v_ecu_a-to-compute" style="stroke:#181818;stroke-width:1.0;"/><polygon fill="#181818" points="176.36,287.7,171.7029,279.0218,172.4102,284.6342,166.7977,285.3415,176.36,287.7" style="stroke:#181818;stroke-width:1.0;"/></g><!--MD5=[f5aaabc7f7a12b08b23a50a972ce0251]
link v_ecu_b to compute--><g id="link_v_ecu_b_compute"><path d="M300.68,228.06 C279.94,244.11 249.59,267.61 227.64,284.6 " fill="none" id="v_ecu_b-to-compute" style="stroke:#181818;stroke-width:1.0;"/><polygon fill="#181818" points="223.64,287.7,233.2023,285.3415,227.5898,284.6342,228.2971,279.0218,223.64,287.7" style="stroke:#181818;stroke-width:1.0;"/></g><!--MD5=[0eb4414a2a890b5c171edccf82c44ecc]
link v_can_bus to compute--><g id="link_v_can_bus_compute"><path d="M200,130.25 C200,165.73 200,243.92 200,282.93 " fill="none" id="v_can_bus-to-compute" style="stroke:#181818;stroke-width:1.0;"/><polygon fill="#181818" points="200,287.94,204,278.94,200,282.94,196,278.94,200,287.94" style="stroke:#181818;stroke-width:1.0;"/></g><!--MD5=[b613ec33cc32b6a1999ba39a97e36787]
@startuml
skinparam componentStyle rectangle

[software_a]
[v_ecu_a]
software_a - -> v_ecu_a

[v_can_bus]

[software_b]
[v_ecu_b]
software_b - -> v_ecu_b

software_a -ri-> v_can_bus
v_can_bus <-ri- software_b

[compute]
v_ecu_a - -> compute
v_ecu_b - -> compute
v_can_bus - -> compute

note top of [v_can_bus]
init vcan
end note


note bottom of [v_ecu_a]
mount v_can_bus
end note

note bottom of [v_ecu_b]
mount v_can_bus
end note

@enduml

PlantUML version 1.2022.12(Sun Oct 23 20:12:26 CEST 2022)
(GPL source distribution)
Java Runtime: Java(TM) SE Runtime Environment
JVM: Java HotSpot(TM) 64-Bit Server VM
Default Encoding: Cp1252
Language: en
Country: US
--></g></svg>