<?xml version="1.0" encoding="UTF-8" standalone="no"?><svg xmlns="http://www.w3.org/2000/svg" xmlns:xlink="http://www.w3.org/1999/xlink" contentStyleType="text/css" height="256px" preserveAspectRatio="none" style="width:621px;height:256px;background:#FFFFFF;" version="1.1" viewBox="0 0 621 256" width="621px" zoomAndPan="magnify"><defs/><g><!--MD5=[b5a43e681ff5188082669c0a2cca6322]
entity software--><g id="elem_software"><rect fill="#F1F1F1" height="37.6094" rx="2.5" ry="2.5" style="stroke:#181818;stroke-width:0.5;" width="73" x="79.5" y="7"/><text fill="#000000" font-family="sans-serif" font-size="14" lengthAdjust="spacing" textLength="53" x="89.5" y="31.5332">software</text></g><!--MD5=[20e5a7a34538710e2da7a7d526f2f9ba]
entity v_ecu--><g id="elem_v_ecu"><rect fill="#F1F1F1" height="37.6094" rx="2.5" ry="2.5" style="stroke:#181818;stroke-width:0.5;" width="58" x="7" y="110"/><text fill="#000000" font-family="sans-serif" font-size="14" lengthAdjust="spacing" textLength="38" x="17" y="134.5332">v_ecu</text></g><!--MD5=[9632f4b4345b52c3a33bd4c6ee6e88df]
entity v_can_bus--><g id="elem_v_can_bus"><rect fill="#F1F1F1" height="37.6094" rx="2.5" ry="2.5" style="stroke:#181818;stroke-width:0.5;" width="89" x="257.5" y="110"/><text fill="#000000" font-family="sans-serif" font-size="14" lengthAdjust="spacing" textLength="69" x="267.5" y="134.5332">v_can_bus</text></g><!--MD5=[5d0b003f5647ffae293bd0e52095909b]
entity can_bus_proxy--><g id="elem_can_bus_proxy"><rect fill="#F1F1F1" height="37.6094" rx="2.5" ry="2.5" style="stroke:#181818;stroke-width:0.5;" width="116" x="382" y="110"/><text fill="#000000" font-family="sans-serif" font-size="14" lengthAdjust="spacing" textLength="96" x="392" y="134.5332">can_bus_proxy</text></g><!--MD5=[c153ddd4be19da884d49f56fddc564ac]
entity compute--><g id="elem_compute"><rect fill="#F1F1F1" height="37.6094" rx="2.5" ry="2.5" style="stroke:#181818;stroke-width:0.5;" width="74" x="265" y="213"/><text fill="#000000" font-family="sans-serif" font-size="14" lengthAdjust="spacing" textLength="54" x="275" y="237.5332">compute</text></g><g id="elem_GMN13"><path d="M265,13 L265,39.3516 A0,0 0 0 0 265,39.3516 L295.37,39.3516 L301.46,109.7 L303.37,39.3516 L333,39.3516 A0,0 0 0 0 333,39.3516 L333,23 L323,13 L265,13 A0,0 0 0 0 265,13 " fill="#FEFFDD" style="stroke:#181818;stroke-width:0.5;"/><path d="M323,13 L323,23 L333,23 L323,13 " fill="#FEFFDD" style="stroke:#181818;stroke-width:0.5;"/><text fill="#000000" font-family="sans-serif" font-size="13" lengthAdjust="spacing" textLength="47" x="271" y="31.4951">init vcan</text></g><g id="elem_GMN16"><path d="M368,13 L368,39.3516 A0,0 0 0 0 368,39.3516 L437.75,39.3516 L440.36,109.7 L445.75,39.3516 L516,39.3516 A0,0 0 0 0 516,39.3516 L516,23 L506,13 L368,13 A0,0 0 0 0 368,13 " fill="#FEFFDD" style="stroke:#181818;stroke-width:0.5;"/><path d="M506,13 L506,23 L516,23 L506,13 " fill="#FEFFDD" style="stroke:#181818;stroke-width:0.5;"/><text fill="#000000" font-family="sans-serif" font-size="13" lengthAdjust="spacing" textLength="127" x="374" y="31.4951">can2udp, can2mqtt ...</text></g><!--MD5=[57220784cd10fd02b95ed95124c16164]
entity network--><g id="elem_network"><path d="M542.5332,113.413 C545.1186,105.2911 552.5894,104.129 557.7862,110.7025 C562.3205,100.8667 567.7019,101.0975 574.7472,108.186 C581.6964,102.1515 586.325,103.3261 589.6311,111.8982 C594.7171,105.0934 601.2095,104.5056 605.1623,113.0452 C614.2129,116.652 614.6842,125.2931 607.4852,131.002 C614.7366,136.0118 612.513,141.9829 605.8632,145.4299 C602.3343,153.5224 594.6302,154.6587 589.2385,147.4543 C586.1281,154.1191 579.3984,156.3808 574.5157,149.3611 C568.4384,156.0524 561.8626,155.1086 557.6512,147.205 C552.1475,153.6288 545.6056,152.6362 542.4952,144.6821 C534.1135,143.1688 531.4302,137.172 535.4515,129.7917 C531.211,121.4339 531.8091,115.3004 542.5332,113.413 " fill="#F1F1F1" style="stroke:#181818;stroke-width:0.5;"/><text fill="#000000" font-family="sans-serif" font-size="14" lengthAdjust="spacing" textLength="49" x="548.5" y="134.5332">network</text></g><g id="elem_GMN21"><path d="M100,116 L100,125 L65.3,129 L100,133 L100,142.3516 A0,0 0 0 0 100,142.3516 L222,142.3516 A0,0 0 0 0 222,142.3516 L222,126 L212,116 L100,116 A0,0 0 0 0 100,116 " fill="#FEFFDD" style="stroke:#181818;stroke-width:0.5;"/><path d="M212,116 L212,126 L222,126 L212,116 " fill="#FEFFDD" style="stroke:#181818;stroke-width:0.5;"/><text fill="#000000" font-family="sans-serif" font-size="13" lengthAdjust="spacing" textLength="101" x="106" y="134.4951">mount v_can_bus</text></g><!--MD5=[2e38fa535ef7f7a1f7ae2e5c751c51fc]
link software to v_ecu--><g id="link_software_v_ecu"><path d="M101.7,45.06 C88.24,62.04 68.06,87.52 53.62,105.75 " fill="none" id="software-to-v_ecu" style="stroke:#181818;stroke-width:1.0;"/><polygon fill="#181818" points="50.45,109.76,59.1836,105.2076,53.563,105.8473,52.9233,100.2267,50.45,109.76" style="stroke:#181818;stroke-width:1.0;"/></g><!--MD5=[49961258165d0e84b70fe8930147d41f]
link software to v_can_bus--><g id="link_software_v_can_bus"><path d="M149.25,45.06 C181.55,62.6 230.53,89.19 264.27,107.51 " fill="none" id="software-to-v_can_bus" style="stroke:#181818;stroke-width:1.0;stroke-dasharray:7.0,7.0;"/><polygon fill="#181818" points="268.72,109.93,262.7254,102.1156,264.3278,107.5408,258.9026,109.1431,268.72,109.93" style="stroke:#181818;stroke-width:1.0;"/></g><!--MD5=[8c6eec340296972218604e9db753d733]
reverse link v_can_bus to can_bus_proxy--><g id="link_v_can_bus_can_bus_proxy"><path d="M351.93,129 C361.86,129 371.79,129 381.71,129 " fill="none" id="v_can_bus-backto-can_bus_proxy" style="stroke:#181818;stroke-width:1.0;stroke-dasharray:7.0,7.0;"/><polygon fill="#181818" points="346.74,129,355.74,133,351.74,129,355.74,125,346.74,129" style="stroke:#181818;stroke-width:1.0;"/></g><!--MD5=[9ef279aed7738939615fc513679795ec]
link v_ecu to compute--><g id="link_v_ecu_compute"><path d="M65.44,145.39 C70.89,148.05 76.58,150.69 82,153 C142.81,178.86 215.41,203.43 260.11,217.85 " fill="none" id="v_ecu-to-compute" style="stroke:#181818;stroke-width:1.0;"/><polygon fill="#181818" points="264.88,219.39,257.553,212.8086,260.1239,217.8475,255.085,220.4183,264.88,219.39" style="stroke:#181818;stroke-width:1.0;"/></g><!--MD5=[0eb4414a2a890b5c171edccf82c44ecc]
link v_can_bus to compute--><g id="link_v_can_bus_compute"><path d="M302,148.06 C302,164.61 302,189.24 302,207.36 " fill="none" id="v_can_bus-to-compute" style="stroke:#181818;stroke-width:1.0;"/><polygon fill="#181818" points="302,212.76,306,203.76,302,207.76,298,203.76,302,212.76" style="stroke:#181818;stroke-width:1.0;"/></g><!--MD5=[f3bd9a70ca46c1e46994046adc250d5f]
link can_bus_proxy to compute--><g id="link_can_bus_proxy_compute"><path d="M415.33,148.06 C391.73,165.33 356.14,191.38 331.15,209.67 " fill="none" id="can_bus_proxy-to-compute" style="stroke:#181818;stroke-width:1.0;"/><polygon fill="#181818" points="326.92,212.76,336.5457,210.6752,330.9556,209.8081,331.8227,204.2181,326.92,212.76" style="stroke:#181818;stroke-width:1.0;"/></g><!--MD5=[875cd073c4e1a88c6c8d0b681c4a7b4d]
link can_bus_proxy to network--><g id="link_can_bus_proxy_network"><path d="M498.19,129 C508.14,129 518.1,129 528.05,129 " fill="none" id="can_bus_proxy-to-network" style="stroke:#181818;stroke-width:1.0;stroke-dasharray:7.0,7.0;"/><polygon fill="#181818" points="533.26,129,524.26,125,528.26,129,524.26,133,533.26,129" style="stroke:#181818;stroke-width:1.0;"/></g><!--MD5=[d22575e92404bc1652c338093a26a477]
@startuml
skinparam componentStyle rectangle

[software]
[v_ecu]
software - -> v_ecu

[v_can_bus]

[can_bus_proxy]

software .ri.> v_can_bus
v_can_bus <.ri. can_bus_proxy

[compute]
v_ecu - -> compute

v_can_bus - -> compute
can_bus_proxy - -> compute

note top of [v_can_bus]
init vcan
end note

note top of [can_bus_proxy]
can2udp, can2mqtt ...
end note

cloud network
can_bus_proxy .ri.> network

note right of [v_ecu]
mount v_can_bus
end note

@enduml

PlantUML version 1.2022.12(Sun Oct 23 20:12:26 CEST 2022)
(GPL source distribution)
Java Runtime: Java(TM) SE Runtime Environment
JVM: Java HotSpot(TM) 64-Bit Server VM
Default Encoding: Cp1252
Language: en
Country: US
--></g></svg>