<?xml version="1.0" encoding="us-ascii" standalone="no"?><svg xmlns="http://www.w3.org/2000/svg" xmlns:xlink="http://www.w3.org/1999/xlink" contentStyleType="text/css" height="736px" preserveAspectRatio="none" style="width:1429px;height:736px;background:#FFFFFF;" version="1.1" viewBox="0 0 1429 736" width="1429px" zoomAndPan="magnify"><defs/><g><!--cluster cloud--><g id="cluster_cloud"><rect fill="none" height="262" rx="2.5" ry="2.5" style="stroke:#181818;stroke-width:1.0;" width="260" x="704" y="468"/><text fill="#000000" font-family="sans-serif" font-size="14" font-weight="bold" lengthAdjust="spacing" textLength="39" x="814.5" y="482.6738">cloud</text></g><!--cluster zone_a--><g id="cluster_zone_a"><rect fill="none" height="580" rx="2.5" ry="2.5" style="stroke:#181818;stroke-width:1.0;" width="435" x="7" y="7"/><text fill="#000000" font-family="sans-serif" font-size="14" font-weight="bold" lengthAdjust="spacing" textLength="50" x="199.5" y="21.6738">zone_a</text></g><!--cluster zone_b--><g id="cluster_zone_b"><rect fill="none" height="580" rx="2.5" ry="2.5" style="stroke:#181818;stroke-width:1.0;" width="435" x="988" y="7"/><text fill="#000000" font-family="sans-serif" font-size="14" font-weight="bold" lengthAdjust="spacing" textLength="51" x="1180" y="21.6738">zone_b</text></g><!--entity cloud_service--><g id="elem_cloud_service"><rect fill="#F1F1F1" height="51.2813" rx="2.5" ry="2.5" style="stroke:#181818;stroke-width:0.5;" width="222" x="723" y="520"/><text fill="#000000" font-family="sans-serif" font-size="14" font-style="italic" lengthAdjust="spacing" textLength="202" x="733" y="542.6738">&#171;example.nodes.Cloud.Service&#187;</text><text fill="#000000" font-family="sans-serif" font-size="14" lengthAdjust="spacing" textLength="87" x="790.5" y="558.3145">cloud_service</text></g><!--entity cloud_provider--><g id="elem_cloud_provider"><rect fill="#F1F1F1" height="51.2813" rx="2.5" ry="2.5" style="stroke:#181818;stroke-width:0.5;" width="228" x="720" y="663"/><text fill="#000000" font-family="sans-serif" font-size="14" font-style="italic" lengthAdjust="spacing" textLength="208" x="730" y="685.6738">&#171;example.nodes.Cloud.Provider&#187;</text><text fill="#000000" font-family="sans-serif" font-size="14" lengthAdjust="spacing" textLength="94" x="787" y="701.3145">cloud_provider</text></g><!--entity zone_a_control_unit_software--><g id="elem_zone_a_control_unit_software"><rect fill="#F1F1F1" height="51.2813" rx="2.5" ry="2.5" style="stroke:#181818;stroke-width:0.5;" width="223" x="120.5" y="200"/><text fill="#000000" font-family="sans-serif" font-size="14" font-style="italic" lengthAdjust="spacing" textLength="203" x="130.5" y="222.6738">&#171;example.nodes.ZCU.Software&#187;</text><text fill="#000000" font-family="sans-serif" font-size="14" lengthAdjust="spacing" textLength="189" x="137.5" y="238.3145">zone_a_control_unit_software</text></g><!--entity zone_a_control_unit_hardware--><g id="elem_zone_a_control_unit_hardware"><rect fill="#F1F1F1" height="51.2813" rx="2.5" ry="2.5" style="stroke:#181818;stroke-width:0.5;" width="229" x="115.5" y="341"/><text fill="#000000" font-family="sans-serif" font-size="14" font-style="italic" lengthAdjust="spacing" textLength="209" x="125.5" y="363.6738">&#171;example.nodes.ZCU.Hardware&#187;</text><text fill="#000000" font-family="sans-serif" font-size="14" lengthAdjust="spacing" textLength="195" x="132.5" y="379.3145">zone_a_control_unit_hardware</text></g><!--entity zone_a_ethernet--><g id="elem_zone_a_ethernet"><rect fill="#F1F1F1" height="51.2813" rx="2.5" ry="2.5" style="stroke:#181818;stroke-width:0.5;" width="184" x="45" y="520"/><text fill="#000000" font-family="sans-serif" font-size="14" font-style="italic" lengthAdjust="spacing" textLength="164" x="55" y="542.6738">&#171;sofdcar.nodes.Ethernet&#187;</text><text fill="#000000" font-family="sans-serif" font-size="14" lengthAdjust="spacing" textLength="107" x="83.5" y="558.3145">zone_a_ethernet</text></g><!--entity zone_a_can_bus--><g id="elem_zone_a_can_bus"><rect fill="#F1F1F1" height="51.2813" rx="2.5" ry="2.5" style="stroke:#181818;stroke-width:0.5;" width="159" x="264.5" y="520"/><text fill="#000000" font-family="sans-serif" font-size="14" font-style="italic" lengthAdjust="spacing" textLength="139" x="274.5" y="542.6738">&#171;sofdcar.nodes.CAN&#187;</text><text fill="#000000" font-family="sans-serif" font-size="14" lengthAdjust="spacing" textLength="108" x="290" y="558.3145">zone_a_can_bus</text></g><!--entity zone_a_actuator--><g id="elem_zone_a_actuator"><rect fill="#F1F1F1" height="51.2813" rx="2.5" ry="2.5" style="stroke:#181818;stroke-width:0.5;" width="188" x="238" y="59"/><text fill="#000000" font-family="sans-serif" font-size="14" font-style="italic" lengthAdjust="spacing" textLength="168" x="248" y="81.6738">&#171;example.nodes.Actuator&#187;</text><text fill="#000000" font-family="sans-serif" font-size="14" lengthAdjust="spacing" textLength="106" x="279" y="97.3145">zone_a_actuator</text></g><!--entity zone_a_sensor--><g id="elem_zone_a_sensor"><rect fill="#F1F1F1" height="51.2813" rx="2.5" ry="2.5" style="stroke:#181818;stroke-width:0.5;" width="180" x="23" y="59"/><text fill="#000000" font-family="sans-serif" font-size="14" font-style="italic" lengthAdjust="spacing" textLength="160" x="33" y="81.6738">&#171;example.nodes.Sensor&#187;</text><text fill="#000000" font-family="sans-serif" font-size="14" lengthAdjust="spacing" textLength="97" x="64.5" y="97.3145">zone_a_sensor</text></g><!--entity zone_b_control_unit_software--><g id="elem_zone_b_control_unit_software"><rect fill="#F1F1F1" height="51.2813" rx="2.5" ry="2.5" style="stroke:#181818;stroke-width:0.5;" width="223" x="1005.5" y="200"/><text fill="#000000" font-family="sans-serif" font-size="14" font-style="italic" lengthAdjust="spacing" textLength="203" x="1015.5" y="222.6738">&#171;example.nodes.ZCU.Software&#187;</text><text fill="#000000" font-family="sans-serif" font-size="14" lengthAdjust="spacing" textLength="189" x="1022.5" y="238.3145">zone_b_control_unit_software</text></g><!--entity zone_b_control_unit_hardware--><g id="elem_zone_b_control_unit_hardware"><rect fill="#F1F1F1" height="51.2813" rx="2.5" ry="2.5" style="stroke:#181818;stroke-width:0.5;" width="229" x="1004.5" y="341"/><text fill="#000000" font-family="sans-serif" font-size="14" font-style="italic" lengthAdjust="spacing" textLength="209" x="1014.5" y="363.6738">&#171;example.nodes.ZCU.Hardware&#187;</text><text fill="#000000" font-family="sans-serif" font-size="14" lengthAdjust="spacing" textLength="195" x="1021.5" y="379.3145">zone_b_control_unit_hardware</text></g><!--entity zone_b_ethernet--><g id="elem_zone_b_ethernet"><rect fill="#F1F1F1" height="51.2813" rx="2.5" ry="2.5" style="stroke:#181818;stroke-width:0.5;" width="184" x="1004" y="520"/><text fill="#000000" font-family="sans-serif" font-size="14" font-style="italic" lengthAdjust="spacing" textLength="164" x="1014" y="542.6738">&#171;sofdcar.nodes.Ethernet&#187;</text><text fill="#000000" font-family="sans-serif" font-size="14" lengthAdjust="spacing" textLength="107" x="1042.5" y="558.3145">zone_b_ethernet</text></g><!--entity zone_b_can_bus--><g id="elem_zone_b_can_bus"><rect fill="#F1F1F1" height="51.2813" rx="2.5" ry="2.5" style="stroke:#181818;stroke-width:0.5;" width="159" x="1223.5" y="520"/><text fill="#000000" font-family="sans-serif" font-size="14" font-style="italic" lengthAdjust="spacing" textLength="139" x="1233.5" y="542.6738">&#171;sofdcar.nodes.CAN&#187;</text><text fill="#000000" font-family="sans-serif" font-size="14" lengthAdjust="spacing" textLength="108" x="1249" y="558.3145">zone_b_can_bus</text></g><!--entity zone_b_actuator--><g id="elem_zone_b_actuator"><rect fill="#F1F1F1" height="51.2813" rx="2.5" ry="2.5" style="stroke:#181818;stroke-width:0.5;" width="188" x="1219" y="59"/><text fill="#000000" font-family="sans-serif" font-size="14" font-style="italic" lengthAdjust="spacing" textLength="168" x="1229" y="81.6738">&#171;example.nodes.Actuator&#187;</text><text fill="#000000" font-family="sans-serif" font-size="14" lengthAdjust="spacing" textLength="106" x="1260" y="97.3145">zone_b_actuator</text></g><!--entity zone_b_sensor--><g id="elem_zone_b_sensor"><rect fill="#F1F1F1" height="51.2813" rx="2.5" ry="2.5" style="stroke:#181818;stroke-width:0.5;" width="180" x="1004" y="59"/><text fill="#000000" font-family="sans-serif" font-size="14" font-style="italic" lengthAdjust="spacing" textLength="160" x="1014" y="81.6738">&#171;example.nodes.Sensor&#187;</text><text fill="#000000" font-family="sans-serif" font-size="14" lengthAdjust="spacing" textLength="97" x="1045.5" y="97.3145">zone_b_sensor</text></g><!--entity vehicle_control_unit_software--><g id="elem_vehicle_control_unit_software"><rect fill="#F1F1F1" height="51.2813" rx="2.5" ry="2.5" style="stroke:#181818;stroke-width:0.5;" width="223" x="638.5" y="341"/><text fill="#000000" font-family="sans-serif" font-size="14" font-style="italic" lengthAdjust="spacing" textLength="203" x="648.5" y="363.6738">&#171;example.nodes.VCU.Software&#187;</text><text fill="#000000" font-family="sans-serif" font-size="14" lengthAdjust="spacing" textLength="187" x="656.5" y="379.3145">vehicle_control_unit_software</text></g><!--entity vehicle_control_unit_hardware--><g id="elem_vehicle_control_unit_hardware"><rect fill="#F1F1F1" height="51.2813" rx="2.5" ry="2.5" style="stroke:#181818;stroke-width:0.5;" width="229" x="458.5" y="520"/><text fill="#000000" font-family="sans-serif" font-size="14" font-style="italic" lengthAdjust="spacing" textLength="209" x="468.5" y="542.6738">&#171;example.nodes.VCU.Hardware&#187;</text><text fill="#000000" font-family="sans-serif" font-size="14" lengthAdjust="spacing" textLength="193" x="476.5" y="558.3145">vehicle_control_unit_hardware</text></g><!--link cloud_service to cloud_provider--><g id="link_cloud_service_cloud_provider"><path d="M834,571.06 C834,596.78 834,636.95 834,662.75 " fill="none" id="cloud_service-cloud_provider" style="stroke:#181818;stroke-width:1.0;"/><text fill="#000000" font-family="sans-serif" font-size="13" lengthAdjust="spacing" textLength="25" x="850" y="622.7686">host</text><path d="M841.0711,609.8039 A10,10 0 0 0 826.9289 609.8039" fill="none" style="stroke:#181818;stroke-width:1.5;"/><ellipse cx="834" cy="616.875" fill="#FFFFFF" rx="6" ry="6" style="stroke:#181818;stroke-width:1.5;"/></g><!--link zone_a_control_unit_software to zone_a_control_unit_hardware--><g id="link_zone_a_control_unit_software_zone_a_control_unit_hardware"><path d="M231.65,251.03 C231.28,276.28 230.72,315.41 230.36,340.75 " fill="none" id="zone_a_control_unit_software-zone_a_control_unit_hardware" style="stroke:#181818;stroke-width:1.0;"/><text fill="#000000" font-family="sans-serif" font-size="13" lengthAdjust="spacing" textLength="25" x="248" y="300.7686">host</text><path d="M238.1731,288.8874 A10,10 0 0 0 224.0324 288.6844" fill="none" style="stroke:#181818;stroke-width:1.5;"/><ellipse cx="231.0013" cy="295.8563" fill="#FFFFFF" rx="6" ry="6" style="stroke:#181818;stroke-width:1.5;"/></g><!--link zone_a_control_unit_software to vehicle_control_unit_software--><g id="link_zone_a_control_unit_software_vehicle_control_unit_software"><path d="M323.42,251.03 C417.81,276.36 564.25,315.66 658.63,340.98 " fill="none" id="zone_a_control_unit_software-vehicle_control_unit_software" style="stroke:#181818;stroke-width:1.0;"/><text fill="#000000" font-family="sans-serif" font-size="13" lengthAdjust="spacing" textLength="19" x="553" y="300.7686">vcu</text><path d="M486.032,287.3466 A10,10 0 0 0 482.3666 301.0055" fill="none" style="stroke:#181818;stroke-width:1.5;"/><ellipse cx="491.0288" cy="296.0087" fill="#FFFFFF" rx="6" ry="6" style="stroke:#181818;stroke-width:1.5;"/></g><!--link zone_a_control_unit_hardware to zone_a_ethernet--><g id="link_zone_a_control_unit_hardware_zone_a_ethernet"><path d="M167.21,392.14 C155.14,399.84 144.07,409.66 137,422 C119.76,452.08 124.48,493.52 130.18,519.65 " fill="none" id="zone_a_control_unit_hardware-zone_a_ethernet" style="stroke:#181818;stroke-width:1.0;"/><text fill="#000000" font-family="sans-serif" font-size="13" lengthAdjust="spacing" textLength="47" x="153" y="441.7686">ethernet</text><path d="M132.1645,465.3427 A10,10 0 0 0 118.024 465.1292" fill="none" style="stroke:#181818;stroke-width:1.5;"/><ellipse cx="124.9875" cy="472.3063" fill="#FFFFFF" rx="6" ry="6" style="stroke:#181818;stroke-width:1.5;"/></g><!--link zone_a_control_unit_hardware to zone_a_can_bus--><g id="link_zone_a_control_unit_hardware_zone_a_can_bus"><path d="M231.79,392.13 C233.94,409.74 238.65,433.5 249,452 C264.06,478.92 289.38,503 310.1,519.84 " fill="none" id="zone_a_control_unit_hardware-zone_a_can_bus" style="stroke:#181818;stroke-width:1.0;"/><text fill="#000000" font-family="sans-serif" font-size="13" lengthAdjust="spacing" textLength="21" x="265" y="441.7686">can</text><path d="M251.7186,442.3766 A10,10 0 0 0 239.3766 449.2814" fill="none" style="stroke:#181818;stroke-width:1.5;"/><ellipse cx="249" cy="452" fill="#FFFFFF" rx="6" ry="6" style="stroke:#181818;stroke-width:1.5;"/></g><!--link zone_a_actuator to zone_a_can_bus--><g id="link_zone_a_actuator_zone_a_can_bus"><path d="M339.78,110.06 C357.46,169.19 397.51,324.02 376,452 C372,475.8 362.59,501.65 355.01,519.96 " fill="none" id="zone_a_actuator-zone_a_can_bus" style="stroke:#181818;stroke-width:1.0;"/><text fill="#000000" font-family="sans-serif" font-size="13" lengthAdjust="spacing" textLength="21" x="396" y="300.7686">can</text><path d="M378.5024,247.149 A10,10 0 0 0 364.524 249.2951" fill="none" style="stroke:#181818;stroke-width:1.5;"/><ellipse cx="372.5863" cy="255.2113" fill="#FFFFFF" rx="6" ry="6" style="stroke:#181818;stroke-width:1.5;"/></g><!--link zone_a_actuator to zone_a_control_unit_software--><g id="link_zone_a_actuator_zone_a_control_unit_software"><path d="M314.35,110.03 C296.19,135.28 268.03,174.41 249.81,199.75 " fill="none" id="zone_a_actuator-zone_a_control_unit_software" style="stroke:#181818;stroke-width:1.0;"/><text fill="#000000" font-family="sans-serif" font-size="13" lengthAdjust="spacing" textLength="21" x="307" y="159.7686">zcu</text><path d="M291.972,153.2459 A10,10 0 0 0 280.4921 144.9868" fill="none" style="stroke:#181818;stroke-width:1.5;"/><ellipse cx="282.1025" cy="154.8563" fill="#FFFFFF" rx="6" ry="6" style="stroke:#181818;stroke-width:1.5;"/></g><!--link zone_a_sensor to zone_a_can_bus--><g id="link_zone_a_sensor_zone_a_can_bus"><path d="M102.65,110.47 C75.9,179.43 13.68,372.61 120,452 C142.48,468.79 220.02,449.4 246,460 C277.41,472.82 305.86,499.91 323.92,519.98 " fill="none" id="zone_a_sensor-zone_a_can_bus" style="stroke:#181818;stroke-width:1.0;"/><text fill="#000000" font-family="sans-serif" font-size="13" lengthAdjust="spacing" textLength="21" x="77" y="300.7686">can</text><path d="M174.2324,451.6563 A10,10 0 0 0 175.0226 465.7763" fill="none" style="stroke:#181818;stroke-width:1.5;"/><ellipse cx="181.6875" cy="458.3213" fill="#FFFFFF" rx="6" ry="6" style="stroke:#181818;stroke-width:1.5;"/></g><!--link zone_a_sensor to zone_a_control_unit_software--><g id="link_zone_a_sensor_zone_a_control_unit_software"><path d="M134,110.03 C155.62,135.28 189.12,174.41 210.81,199.75 " fill="none" id="zone_a_sensor-zone_a_control_unit_software" style="stroke:#181818;stroke-width:1.0;"/><text fill="#000000" font-family="sans-serif" font-size="13" lengthAdjust="spacing" textLength="21" x="200" y="159.7686">zcu</text><path d="M173.1516,144.8862 A10,10 0 0 0 162.4087 154.0834" fill="none" style="stroke:#181818;stroke-width:1.5;"/><ellipse cx="172.3788" cy="154.8563" fill="#FFFFFF" rx="6" ry="6" style="stroke:#181818;stroke-width:1.5;"/></g><!--link zone_b_control_unit_software to zone_b_control_unit_hardware--><g id="link_zone_b_control_unit_software_zone_b_control_unit_hardware"><path d="M1117.35,251.03 C1117.72,276.28 1118.28,315.41 1118.64,340.75 " fill="none" id="zone_b_control_unit_software-zone_b_control_unit_hardware" style="stroke:#181818;stroke-width:1.0;"/><text fill="#000000" font-family="sans-serif" font-size="13" lengthAdjust="spacing" textLength="25" x="1134" y="300.7686">host</text><path d="M1124.9676,288.6844 A10,10 0 0 0 1110.8269 288.8874" fill="none" style="stroke:#181818;stroke-width:1.5;"/><ellipse cx="1117.9988" cy="295.8563" fill="#FFFFFF" rx="6" ry="6" style="stroke:#181818;stroke-width:1.5;"/></g><!--link zone_b_control_unit_software to vehicle_control_unit_software--><g id="link_zone_b_control_unit_software_vehicle_control_unit_software"><path d="M1052.23,251.03 C985.35,276.36 881.6,315.66 814.74,340.98 " fill="none" id="zone_b_control_unit_software-vehicle_control_unit_software" style="stroke:#181818;stroke-width:1.0;"/><text fill="#000000" font-family="sans-serif" font-size="13" lengthAdjust="spacing" textLength="19" x="982" y="300.7686">vcu</text><path d="M942.5948,300.1167 A10,10 0 0 0 937.5855 286.8915" fill="none" style="stroke:#181818;stroke-width:1.5;"/><ellipse cx="933.4775" cy="296.0087" fill="#FFFFFF" rx="6" ry="6" style="stroke:#181818;stroke-width:1.5;"/></g><!--link zone_b_control_unit_hardware to zone_b_ethernet--><g id="link_zone_b_control_unit_hardware_zone_b_ethernet"><path d="M1107.98,392.25 C1104.42,401.41 1100.9,412 1099,422 C1092.64,455.44 1093.05,494.93 1094.26,519.85 " fill="none" id="zone_b_control_unit_hardware-zone_b_ethernet" style="stroke:#181818;stroke-width:1.0;"/><text fill="#000000" font-family="sans-serif" font-size="13" lengthAdjust="spacing" textLength="47" x="1115" y="441.7686">ethernet</text><path d="M1101.0816,467.2753 A10,10 0 0 0 1086.9465 466.8296" fill="none" style="stroke:#181818;stroke-width:1.5;"/><ellipse cx="1093.7913" cy="474.12" fill="#FFFFFF" rx="6" ry="6" style="stroke:#181818;stroke-width:1.5;"/></g><!--link zone_b_control_unit_hardware to zone_b_can_bus--><g id="link_zone_b_control_unit_hardware_zone_b_can_bus"><path d="M1144.58,392.11 C1179.64,425.83 1242.24,486.05 1277.34,519.81 " fill="none" id="zone_b_control_unit_hardware-zone_b_can_bus" style="stroke:#181818;stroke-width:1.0;"/><text fill="#000000" font-family="sans-serif" font-size="13" lengthAdjust="spacing" textLength="21" x="1221" y="441.7686">can</text><path d="M1210.7509,445.9469 A10,10 0 0 0 1200.9469 456.1391" fill="none" style="stroke:#181818;stroke-width:1.5;"/><ellipse cx="1210.945" cy="455.945" fill="#FFFFFF" rx="6" ry="6" style="stroke:#181818;stroke-width:1.5;"/></g><!--link zone_b_actuator to zone_b_can_bus--><g id="link_zone_b_actuator_zone_b_can_bus"><path d="M1314.67,110.17 C1317.08,147.24 1321.43,219.51 1323,281 C1325.25,369.06 1312.88,473.25 1306.55,519.84 " fill="none" id="zone_b_actuator-zone_b_can_bus" style="stroke:#181818;stroke-width:1.0;"/><text fill="#000000" font-family="sans-serif" font-size="13" lengthAdjust="spacing" textLength="21" x="1339" y="300.7686">can</text><path d="M1329.8883,273.7508 A10,10 0 0 0 1315.7508 274.1117" fill="none" style="stroke:#181818;stroke-width:1.5;"/><ellipse cx="1323" cy="281" fill="#FFFFFF" rx="6" ry="6" style="stroke:#181818;stroke-width:1.5;"/></g><!--link zone_b_actuator to zone_b_control_unit_software--><g id="link_zone_b_actuator_zone_b_control_unit_software"><path d="M1278.41,110.03 C1242.69,135.36 1187.28,174.66 1151.57,199.98 " fill="none" id="zone_b_actuator-zone_b_control_unit_software" style="stroke:#181818;stroke-width:1.0;"/><text fill="#000000" font-family="sans-serif" font-size="13" lengthAdjust="spacing" textLength="21" x="1248" y="159.7686">zcu</text><path d="M1224.8446,156.6861 A10,10 0 0 0 1216.6636 145.1504" fill="none" style="stroke:#181818;stroke-width:1.5;"/><ellipse cx="1214.9863" cy="155.0088" fill="#FFFFFF" rx="6" ry="6" style="stroke:#181818;stroke-width:1.5;"/></g><!--link zone_b_sensor to zone_b_can_bus--><g id="link_zone_b_sensor_zone_b_can_bus"><path d="M1144.22,110.14 C1178.52,129.68 1221.95,160.3 1246,200 C1254.36,213.81 1288.27,443.13 1299.42,519.78 " fill="none" id="zone_b_sensor-zone_b_can_bus" style="stroke:#181818;stroke-width:1.0;"/><text fill="#000000" font-family="sans-serif" font-size="13" lengthAdjust="spacing" textLength="21" x="1283" y="300.7686">can</text><path d="M1277.5364,328.2311 A10,10 0 0 0 1263.5698 330.4523" fill="none" style="stroke:#181818;stroke-width:1.5;"/><ellipse cx="1271.6638" cy="336.325" fill="#FFFFFF" rx="6" ry="6" style="stroke:#181818;stroke-width:1.5;"/></g><!--link zone_b_sensor to zone_b_control_unit_software--><g id="link_zone_b_sensor_zone_b_control_unit_software"><path d="M1098.06,110.03 C1102.24,135.28 1108.71,174.41 1112.9,199.75 " fill="none" id="zone_b_sensor-zone_b_control_unit_software" style="stroke:#181818;stroke-width:1.0;"/><text fill="#000000" font-family="sans-serif" font-size="13" lengthAdjust="spacing" textLength="21" x="1123" y="159.7686">zcu</text><path d="M1111.2988,146.7262 A10,10 0 0 0 1097.3462 149.0337" fill="none" style="stroke:#181818;stroke-width:1.5;"/><ellipse cx="1105.4763" cy="154.8563" fill="#FFFFFF" rx="6" ry="6" style="stroke:#181818;stroke-width:1.5;"/></g><!--link vehicle_control_unit_software to vehicle_control_unit_hardware--><g id="link_vehicle_control_unit_software_vehicle_control_unit_hardware"><path d="M705.61,392.27 C692.17,400.8 677.85,411 666,422 C633.91,451.8 604.77,493.69 587.97,519.96 " fill="none" id="vehicle_control_unit_software-vehicle_control_unit_hardware" style="stroke:#181818;stroke-width:1.0;"/><text fill="#000000" font-family="sans-serif" font-size="13" lengthAdjust="spacing" textLength="25" x="682" y="441.7686">host</text><path d="M631.1649,470.9922 A10,10 0 0 0 619.9397 462.3901" fill="none" style="stroke:#181818;stroke-width:1.5;"/><ellipse cx="621.2513" cy="472.3038" fill="#FFFFFF" rx="6" ry="6" style="stroke:#181818;stroke-width:1.5;"/></g><!--link vehicle_control_unit_software to cloud_service--><g id="link_vehicle_control_unit_software_cloud_service"><path d="M773.69,392.09 C781.3,400.98 789.24,411.44 795,422 C812.31,453.74 823.33,494.37 829.09,519.92 " fill="none" id="vehicle_control_unit_software-cloud_service" style="stroke:#181818;stroke-width:1.0;"/><text fill="#000000" font-family="sans-serif" font-size="13" lengthAdjust="spacing" textLength="31" x="824" y="441.7686">cloud</text><path d="M820.9108,464.3684 A10,10 0 0 0 807.4634 468.7467" fill="none" style="stroke:#181818;stroke-width:1.5;"/><ellipse cx="816.3763" cy="473.2813" fill="#FFFFFF" rx="6" ry="6" style="stroke:#181818;stroke-width:1.5;"/></g><!--link vehicle_control_unit_hardware to zone_a_ethernet--><g id="link_vehicle_control_unit_hardware_zone_a_ethernet"><path d="M541.28,519.86 C515.87,500.59 478.55,475.02 442,460 C384.37,436.31 364.34,438.32 302.5,446 C277.25,449.14 269.86,448.85 247,460 C215.48,475.38 184.38,500.77 163.33,519.89 " fill="none" id="vehicle_control_unit_hardware-zone_a_ethernet" style="stroke:#181818;stroke-width:1.0;"/><text fill="#000000" font-family="sans-serif" font-size="13" lengthAdjust="spacing" textLength="47" x="318.5" y="441.7686">ethernet</text><path d="M380.35,448.8174 A10,10 0 0 0 381.4099 434.715" fill="none" style="stroke:#181818;stroke-width:1.5;"/><ellipse cx="373.8288" cy="441.2363" fill="#FFFFFF" rx="6" ry="6" style="stroke:#181818;stroke-width:1.5;"/></g><!--link vehicle_control_unit_hardware to zone_b_ethernet--><g id="link_vehicle_control_unit_hardware_zone_b_ethernet"><path d="M600.42,519.88 C628.58,495.48 674.9,460.39 722.5,446 C769.75,431.71 925.33,446.83 964,460 C1002.38,473.08 1040.65,499.75 1066.02,519.85 " fill="none" id="vehicle_control_unit_hardware-zone_b_ethernet" style="stroke:#181818;stroke-width:1.0;"/><text fill="#000000" font-family="sans-serif" font-size="13" lengthAdjust="spacing" textLength="47" x="738.5" y="441.7686">ethernet</text><path d="M839.9325,435.1332 A10,10 0 0 0 838.8982 449.2375" fill="none" style="stroke:#181818;stroke-width:1.5;"/><ellipse cx="846.4675" cy="442.7025" fill="#FFFFFF" rx="6" ry="6" style="stroke:#181818;stroke-width:1.5;"/></g><!--SRC=[hLR1ReCm3Btp5H6dNOfsdgfALJLffsaIsWwj9fG4RqMZ2Ke2sphrtmTDMW5D8ApZXB7VisFx0V8ZOmKMU8SetnMS0LEn-iu12Q0Ai_SSWk1yYqAQyp8DqK-0wcjpj189eieelABv7BxmhiWXOZm56QqQTnHhzsBHnXI2LraAmWLwCdw3wYH2ivlR6Uhoe3iK8hJbKeN18GWs5MmpcaD2ELE2vqd9CfL8_gO-iR1K-h9wZcBZhLFQuLiiKZVymNXhUBjX-xgb2JvtJ9k-PQsxPJaPt9MjkvMr6K1jGJ1G3QWk8QLO6D2zyVHJOfQGKbx6hvQFlL1CLOaLjuntQJmzW0GcRU7nyNdJqoPwg7jwAuQwqzuHFxR1BT9q5ItTREVCxTfEVTVuapMHnCn2SzH61txg_hK8zwdtlLFhyVddiyMFP3jSoefqPKMkbXMvMbPaggo8lwp8L5cHAR8Yex8Y4sH5_bLMP5GHP5nMFYG3Iqji8laJmbTMv58c8_biyUEo2eRduHwPRGCykBeVStsGus-5ev99Rr5V1lV2_080]--></g></svg>