<svg xmlns="http://www.w3.org/2000/svg" xmlns:xlink="http://www.w3.org/1999/xlink" contentStyleType="text/css" height="738px" preserveAspectRatio="none" style="width:1537px;height:738px;" version="1.1" viewBox="0 0 1537 738" width="1537px" zoomAndPan="magnify"><defs/><g><!--cluster cloud--><g id="cluster_cloud"><rect fill="none" height="255" rx="2.5" ry="2.5" style="stroke:#000000;stroke-width:1.0;stroke-dasharray:7.0,7.0;" width="272" x="780" y="477"/><text fill="#000000" font-family="sans-serif" font-size="14" lengthAdjust="spacing" textLength="38" x="897" y="491.9951">cloud</text></g><!--cluster zone_a--><g id="cluster_zone_a"><rect fill="none" height="593" rx="2.5" ry="2.5" style="stroke:#000000;stroke-width:1.0;stroke-dasharray:7.0,7.0;" width="455" x="7" y="7"/><text fill="#000000" font-family="sans-serif" font-size="14" lengthAdjust="spacing" textLength="50" x="209.5" y="21.9951">zone_a</text></g><!--cluster zone_b--><g id="cluster_zone_b"><rect fill="none" height="593" rx="2.5" ry="2.5" style="stroke:#000000;stroke-width:1.0;stroke-dasharray:7.0,7.0;" width="455" x="1076" y="7"/><text fill="#000000" font-family="sans-serif" font-size="14" lengthAdjust="spacing" textLength="51" x="1278" y="21.9951">zone_b</text></g><!--cluster zone_c--><g id="cluster_zone_c"><rect fill="none" height="293" rx="2.5" ry="2.5" style="stroke:#000000;stroke-width:1.0;stroke-dasharray:7.0,7.0;" width="270" x="486" y="307"/><text fill="#000000" font-family="sans-serif" font-size="14" lengthAdjust="spacing" textLength="50" x="596" y="321.9951">zone_c</text></g><!--entity node_cloud_service--><g id="elem_node_cloud_service"><rect fill="#F1F1F1" height="52.5938" rx="2.5" ry="2.5" style="stroke:#000000;stroke-width:1.5;" width="234" x="797" y="531"/><text fill="#000000" font-family="sans-serif" font-size="14" lengthAdjust="spacing" textLength="94" x="807" y="553.9951">cloud_service</text><text fill="#000000" font-family="sans-serif" font-size="14" lengthAdjust="spacing" textLength="214" x="807" y="570.292">(example.nodes.Cloud.Service)</text></g><!--entity node_cloud_provider--><g id="elem_node_cloud_provider"><rect fill="#F1F1F1" height="52.5938" rx="2.5" ry="2.5" style="stroke:#000000;stroke-width:1.5;" width="240" x="796" y="663"/><text fill="#000000" font-family="sans-serif" font-size="14" lengthAdjust="spacing" textLength="101" x="806" y="685.9951">cloud_provider</text><text fill="#000000" font-family="sans-serif" font-size="14" lengthAdjust="spacing" textLength="220" x="806" y="702.292">(example.nodes.Cloud.Provider)</text></g><!--entity node_zone_a_control_unit_software--><g id="elem_node_zone_a_control_unit_software"><rect fill="#F1F1F1" height="52.5938" rx="2.5" ry="2.5" style="stroke:#000000;stroke-width:1.5;" width="234" x="142" y="191"/><text fill="#000000" font-family="sans-serif" font-size="14" lengthAdjust="spacing" textLength="204" x="152" y="213.9951">zone_a_control_unit_software</text><text fill="#000000" font-family="sans-serif" font-size="14" lengthAdjust="spacing" textLength="214" x="152" y="230.292">(example.nodes.ZCU.Software)</text></g><!--entity node_zone_a_control_unit_hardware--><g id="elem_node_zone_a_control_unit_hardware"><rect fill="#F1F1F1" height="52.5938" rx="2.5" ry="2.5" style="stroke:#000000;stroke-width:1.5;" width="239" x="137.5" y="361"/><text fill="#000000" font-family="sans-serif" font-size="14" lengthAdjust="spacing" textLength="209" x="147.5" y="383.9951">zone_a_control_unit_hardware</text><text fill="#000000" font-family="sans-serif" font-size="14" lengthAdjust="spacing" textLength="219" x="147.5" y="400.292">(example.nodes.ZCU.Hardware)</text></g><!--entity node_zone_a_ethernet--><g id="elem_node_zone_a_ethernet"><rect fill="#F1F1F1" height="52.5938" rx="2.5" ry="2.5" style="stroke:#000000;stroke-width:1.5;" width="193" x="55.5" y="531"/><text fill="#000000" font-family="sans-serif" font-size="14" lengthAdjust="spacing" textLength="117" x="65.5" y="553.9951">zone_a_ethernet</text><text fill="#000000" font-family="sans-serif" font-size="14" lengthAdjust="spacing" textLength="173" x="65.5" y="570.292">(sofdcar.nodes.Ethernet)</text></g><!--entity node_zone_a_can_bus--><g id="elem_node_zone_a_can_bus"><rect fill="#F1F1F1" height="52.5938" rx="2.5" ry="2.5" style="stroke:#000000;stroke-width:1.5;" width="162" x="284" y="531"/><text fill="#000000" font-family="sans-serif" font-size="14" lengthAdjust="spacing" textLength="115" x="294" y="553.9951">zone_a_can_bus</text><text fill="#000000" font-family="sans-serif" font-size="14" lengthAdjust="spacing" textLength="142" x="294" y="570.292">(sofdcar.nodes.CAN)</text></g><!--entity node_zone_a_actuator--><g id="elem_node_zone_a_actuator"><rect fill="#F1F1F1" height="52.5938" rx="2.5" ry="2.5" style="stroke:#000000;stroke-width:1.5;" width="198" x="248" y="61"/><text fill="#000000" font-family="sans-serif" font-size="14" lengthAdjust="spacing" textLength="114" x="258" y="83.9951">zone_a_actuator</text><text fill="#000000" font-family="sans-serif" font-size="14" lengthAdjust="spacing" textLength="178" x="258" y="100.292">(example.nodes.Actuator)</text></g><!--entity node_zone_a_sensor--><g id="elem_node_zone_a_sensor"><rect fill="#F1F1F1" height="52.5938" rx="2.5" ry="2.5" style="stroke:#000000;stroke-width:1.5;" width="189" x="23.5" y="61"/><text fill="#000000" font-family="sans-serif" font-size="14" lengthAdjust="spacing" textLength="105" x="33.5" y="83.9951">zone_a_sensor</text><text fill="#000000" font-family="sans-serif" font-size="14" lengthAdjust="spacing" textLength="169" x="33.5" y="100.292">(example.nodes.Sensor)</text></g><!--entity node_zone_b_control_unit_software--><g id="elem_node_zone_b_control_unit_software"><rect fill="#F1F1F1" height="52.5938" rx="2.5" ry="2.5" style="stroke:#000000;stroke-width:1.5;" width="234" x="1093" y="191"/><text fill="#000000" font-family="sans-serif" font-size="14" lengthAdjust="spacing" textLength="205" x="1103" y="213.9951">zone_b_control_unit_software</text><text fill="#000000" font-family="sans-serif" font-size="14" lengthAdjust="spacing" textLength="214" x="1103" y="230.292">(example.nodes.ZCU.Software)</text></g><!--entity node_zone_b_control_unit_hardware--><g id="elem_node_zone_b_control_unit_hardware"><rect fill="#F1F1F1" height="52.5938" rx="2.5" ry="2.5" style="stroke:#000000;stroke-width:1.5;" width="239" x="1091.5" y="361"/><text fill="#000000" font-family="sans-serif" font-size="14" lengthAdjust="spacing" textLength="210" x="1101.5" y="383.9951">zone_b_control_unit_hardware</text><text fill="#000000" font-family="sans-serif" font-size="14" lengthAdjust="spacing" textLength="219" x="1101.5" y="400.292">(example.nodes.ZCU.Hardware)</text></g><!--entity node_zone_b_ethernet--><g id="elem_node_zone_b_ethernet"><rect fill="#F1F1F1" height="52.5938" rx="2.5" ry="2.5" style="stroke:#000000;stroke-width:1.5;" width="193" x="1092.5" y="531"/><text fill="#000000" font-family="sans-serif" font-size="14" lengthAdjust="spacing" textLength="118" x="1102.5" y="553.9951">zone_b_ethernet</text><text fill="#000000" font-family="sans-serif" font-size="14" lengthAdjust="spacing" textLength="173" x="1102.5" y="570.292">(sofdcar.nodes.Ethernet)</text></g><!--entity node_zone_b_can_bus--><g id="elem_node_zone_b_can_bus"><rect fill="#F1F1F1" height="52.5938" rx="2.5" ry="2.5" style="stroke:#000000;stroke-width:1.5;" width="162" x="1321" y="531"/><text fill="#000000" font-family="sans-serif" font-size="14" lengthAdjust="spacing" textLength="116" x="1331" y="553.9951">zone_b_can_bus</text><text fill="#000000" font-family="sans-serif" font-size="14" lengthAdjust="spacing" textLength="142" x="1331" y="570.292">(sofdcar.nodes.CAN)</text></g><!--entity node_zone_b_actuator--><g id="elem_node_zone_b_actuator"><rect fill="#F1F1F1" height="52.5938" rx="2.5" ry="2.5" style="stroke:#000000;stroke-width:1.5;" width="198" x="1317" y="61"/><text fill="#000000" font-family="sans-serif" font-size="14" lengthAdjust="spacing" textLength="115" x="1327" y="83.9951">zone_b_actuator</text><text fill="#000000" font-family="sans-serif" font-size="14" lengthAdjust="spacing" textLength="178" x="1327" y="100.292">(example.nodes.Actuator)</text></g><!--entity node_zone_b_sensor--><g id="elem_node_zone_b_sensor"><rect fill="#F1F1F1" height="52.5938" rx="2.5" ry="2.5" style="stroke:#000000;stroke-width:1.5;" width="189" x="1092.5" y="61"/><text fill="#000000" font-family="sans-serif" font-size="14" lengthAdjust="spacing" textLength="106" x="1102.5" y="83.9951">zone_b_sensor</text><text fill="#000000" font-family="sans-serif" font-size="14" lengthAdjust="spacing" textLength="169" x="1102.5" y="100.292">(example.nodes.Sensor)</text></g><!--entity node_vehicle_control_unit_software--><g id="elem_node_vehicle_control_unit_software"><rect fill="#F1F1F1" height="52.5938" rx="2.5" ry="2.5" style="stroke:#000000;stroke-width:1.5;" width="233" x="506.5" y="361"/><text fill="#000000" font-family="sans-serif" font-size="14" lengthAdjust="spacing" textLength="202" x="516.5" y="383.9951">vehicle_control_unit_software</text><text fill="#000000" font-family="sans-serif" font-size="14" lengthAdjust="spacing" textLength="213" x="516.5" y="400.292">(example.nodes.VCU.Software)</text></g><!--entity node_vehicle_control_unit_hardware--><g id="elem_node_vehicle_control_unit_hardware"><rect fill="#F1F1F1" height="52.5938" rx="2.5" ry="2.5" style="stroke:#000000;stroke-width:1.5;" width="238" x="502" y="531"/><text fill="#000000" font-family="sans-serif" font-size="14" lengthAdjust="spacing" textLength="207" x="512" y="553.9951">vehicle_control_unit_hardware</text><text fill="#000000" font-family="sans-serif" font-size="14" lengthAdjust="spacing" textLength="218" x="512" y="570.292">(example.nodes.VCU.Hardware)</text></g><!--link node_cloud_service to node_cloud_provider--><g id="link_node_cloud_service_node_cloud_provider"><path d="M914.4,584.18 C914.72,605.28 915.18,635.24 915.53,657.64 " fill="none" id="node_cloud_service-to-node_cloud_provider" style="stroke:#181818;stroke-width:1.5;"/><polygon fill="#181818" points="915.61,662.87,919.4551,653.8028,915.5243,657.8707,911.4563,653.9399,915.61,662.87" style="stroke:#181818;stroke-width:1.5;"/><text fill="#000000" font-family="sans-serif" font-size="13" lengthAdjust="spacing" textLength="28" x="924" y="629.0669">host</text></g><!--link node_vehicle_control_unit_software to node_vehicle_control_unit_hardware--><g id="link_node_vehicle_control_unit_software_node_vehicle_control_unit_hardware"><path d="M622.7,414.02 C622.34,443.87 621.75,493.28 621.37,525.36 " fill="none" id="node_vehicle_control_unit_software-to-node_vehicle_control_unit_hardware" style="stroke:#181818;stroke-width:1.5;"/><polygon fill="#181818" points="621.31,530.74,625.4382,521.7981,621.3814,525.7405,617.439,521.6838,621.31,530.74" style="stroke:#181818;stroke-width:1.5;"/><text fill="#000000" font-family="sans-serif" font-size="13" lengthAdjust="spacing" textLength="28" x="631" y="457.0669">host</text></g><!--link node_vehicle_control_unit_software to node_cloud_service--><g id="link_node_vehicle_control_unit_software_node_cloud_service"><path d="M739.58,405.27 C791.05,414.67 844.33,427.78 864,444 C888.89,464.52 901.81,499.95 908.23,525.58 " fill="none" id="node_vehicle_control_unit_software-to-node_cloud_service" style="stroke:#181818;stroke-width:1.5;stroke-dasharray:7.0,7.0;"/><polygon fill="#181818" points="909.42,530.56,911.2049,520.8742,908.251,525.6986,903.4266,522.7447,909.42,530.56" style="stroke:#181818;stroke-width:1.5;"/><text fill="#000000" font-family="sans-serif" font-size="13" lengthAdjust="spacing" textLength="34" x="888" y="457.0669">cloud</text></g><!--link node_vehicle_control_unit_hardware to node_zone_a_ethernet--><g id="link_node_vehicle_control_unit_hardware_node_zone_a_ethernet"><path d="M584.98,530.81 C554.11,509.63 507.53,481.55 462,469 C378.02,445.85 347.96,439.49 266,469 C232.8,480.95 201.62,506.54 180.29,527.15 " fill="none" id="node_vehicle_control_unit_hardware-to-node_zone_a_ethernet" style="stroke:#181818;stroke-width:1.5;stroke-dasharray:7.0,7.0;"/><polygon fill="#181818" points="176.69,530.67,185.9176,527.2275,180.2611,527.1704,180.3182,521.5138,176.69,530.67" style="stroke:#181818;stroke-width:1.5;"/><text fill="#000000" font-family="sans-serif" font-size="13" lengthAdjust="spacing" textLength="55" x="339.5" y="457.0669">ethernet</text></g><!--link node_vehicle_control_unit_hardware to node_zone_b_ethernet--><g id="link_node_vehicle_control_unit_hardware_node_zone_b_ethernet"><path d="M652.21,530.98 C684.44,506.11 737.36,472.02 790.5,467 C852.17,461.18 1003.28,454.36 1052,469 C1090.61,480.6 1128.65,506.67 1154.81,527.53 " fill="none" id="node_vehicle_control_unit_hardware-to-node_zone_b_ethernet" style="stroke:#181818;stroke-width:1.5;stroke-dasharray:7.0,7.0;"/><polygon fill="#181818" points="1158.91,530.83,1154.3927,522.0782,1155.0098,527.7013,1149.3868,528.3185,1158.91,530.83" style="stroke:#181818;stroke-width:1.5;"/><text fill="#000000" font-family="sans-serif" font-size="13" lengthAdjust="spacing" textLength="55" x="799.5" y="457.0669">ethernet</text></g><!--link node_zone_a_control_unit_software to node_zone_a_control_unit_hardware--><g id="link_node_zone_a_control_unit_software_node_zone_a_control_unit_hardware"><path d="M258.7,244.02 C258.34,273.87 257.75,323.28 257.37,355.36 " fill="none" id="node_zone_a_control_unit_software-to-node_zone_a_control_unit_hardware" style="stroke:#181818;stroke-width:1.5;"/><polygon fill="#181818" points="257.31,360.74,261.4382,351.7981,257.3814,355.7405,253.439,351.6838,257.31,360.74" style="stroke:#181818;stroke-width:1.5;"/><text fill="#000000" font-family="sans-serif" font-size="13" lengthAdjust="spacing" textLength="28" x="268" y="287.0669">host</text></g><!--link node_zone_a_control_unit_software to node_vehicle_control_unit_software--><g id="link_node_zone_a_control_unit_software_node_vehicle_control_unit_software"><path d="M371.24,244.03 C398.9,252.05 428.03,262.02 454,274 C503.01,296.61 553.85,332.42 586.8,357.55 " fill="none" id="node_zone_a_control_unit_software-to-node_vehicle_control_unit_software" style="stroke:#181818;stroke-width:1.5;stroke-dasharray:7.0,7.0;"/><polygon fill="#181818" points="591.13,360.87,586.4187,352.2211,587.161,357.829,581.5531,358.5714,591.13,360.87" style="stroke:#181818;stroke-width:1.5;"/><text fill="#000000" font-family="sans-serif" font-size="13" lengthAdjust="spacing" textLength="22" x="493" y="287.0669">vcu</text></g><!--link node_zone_a_control_unit_hardware to node_zone_a_ethernet--><g id="link_node_zone_a_control_unit_hardware_node_zone_a_ethernet"><path d="M208.59,414.18 C197.07,422.33 185.87,432.32 178,444 C161.59,468.37 155.44,501.71 153.19,525.77 " fill="none" id="node_zone_a_control_unit_hardware-to-node_zone_a_ethernet" style="stroke:#181818;stroke-width:1.5;stroke-dasharray:7.0,7.0;"/><polygon fill="#181818" points="152.77,530.75,157.5261,522.1256,153.1982,525.7684,149.5555,521.4405,152.77,530.75" style="stroke:#181818;stroke-width:1.5;"/><text fill="#000000" font-family="sans-serif" font-size="13" lengthAdjust="spacing" textLength="55" x="187" y="457.0669">ethernet</text></g><!--link node_zone_a_control_unit_hardware to node_zone_a_can_bus--><g id="link_node_zone_a_control_unit_hardware_node_zone_a_can_bus"><path d="M266.43,414.12 C272.14,428.37 280.03,446.17 289,461 C303.17,484.43 322.4,508.54 337.97,526.67 " fill="none" id="node_zone_a_control_unit_hardware-to-node_zone_a_can_bus" style="stroke:#181818;stroke-width:1.5;stroke-dasharray:7.0,7.0;"/><polygon fill="#181818" points="341.44,530.68,338.5819,521.255,338.1708,526.8968,332.5289,526.4857,341.44,530.68" style="stroke:#181818;stroke-width:1.5;"/><text fill="#000000" font-family="sans-serif" font-size="13" lengthAdjust="spacing" textLength="23" x="298" y="457.0669">can</text></g><!--link node_zone_a_actuator to node_zone_a_can_bus--><g id="link_node_zone_a_actuator_node_zone_a_can_bus"><path d="M361.8,114.07 C372.64,134.24 386.53,163.47 393,191 C406.73,249.45 414.3,402.03 403,461 C398.63,483.78 388.91,508.05 380.38,526.42 " fill="none" id="node_zone_a_actuator-to-node_zone_a_can_bus" style="stroke:#181818;stroke-width:1.5;stroke-dasharray:7.0,7.0;"/><polygon fill="#181818" points="378.25,530.96,385.6985,524.5164,380.3769,526.4349,378.4584,521.1133,378.25,530.96" style="stroke:#181818;stroke-width:1.5;"/><text fill="#000000" font-family="sans-serif" font-size="13" lengthAdjust="spacing" textLength="23" x="415" y="287.0669">can</text></g><!--link node_zone_a_actuator to node_zone_a_control_unit_software--><g id="link_node_zone_a_actuator_node_zone_a_control_unit_software"><path d="M329.4,114.1 C315.01,135.02 294.65,164.65 279.52,186.65 " fill="none" id="node_zone_a_actuator-to-node_zone_a_control_unit_software" style="stroke:#181818;stroke-width:1.5;stroke-dasharray:7.0,7.0;"/><polygon fill="#181818" points="276.57,190.95,284.9649,185.7997,279.4026,186.8298,278.3726,181.2675,276.57,190.95" style="stroke:#181818;stroke-width:1.5;"/><text fill="#000000" font-family="sans-serif" font-size="13" lengthAdjust="spacing" textLength="22" x="318" y="157.0669">zcu</text></g><!--link node_zone_a_sensor to node_zone_a_can_bus--><g id="link_node_zone_a_sensor_node_zone_a_can_bus"><path d="M112.33,114.08 C101.07,170.47 80.2,308.82 120,414 C129.81,439.93 136.22,448.58 161,461 C202.84,481.98 222.89,450.78 266,469 C295.71,481.56 322.65,506.72 340.9,526.85 " fill="none" id="node_zone_a_sensor-to-node_zone_a_can_bus" style="stroke:#181818;stroke-width:1.5;stroke-dasharray:7.0,7.0;"/><polygon fill="#181818" points="344.44,530.81,341.4104,521.4387,341.1023,527.0872,335.4538,526.7791,344.44,530.81" style="stroke:#181818;stroke-width:1.5;"/><text fill="#000000" font-family="sans-serif" font-size="13" lengthAdjust="spacing" textLength="23" x="107" y="287.0669">can</text></g><!--link node_zone_a_sensor to node_zone_a_control_unit_software--><g id="link_node_zone_a_sensor_node_zone_a_control_unit_software"><path d="M146.19,114.1 C169.54,135.29 202.7,165.39 227.03,187.48 " fill="none" id="node_zone_a_sensor-to-node_zone_a_control_unit_software" style="stroke:#181818;stroke-width:1.5;stroke-dasharray:7.0,7.0;"/><polygon fill="#181818" points="230.85,190.95,226.8726,181.94,227.1471,187.5902,221.4969,187.8647,230.85,190.95" style="stroke:#181818;stroke-width:1.5;"/><text fill="#000000" font-family="sans-serif" font-size="13" lengthAdjust="spacing" textLength="22" x="206" y="157.0669">zcu</text></g><!--link node_zone_b_control_unit_software to node_zone_b_control_unit_hardware--><g id="link_node_zone_b_control_unit_software_node_zone_b_control_unit_hardware"><path d="M1210.15,244.02 C1210.33,273.87 1210.62,323.28 1210.81,355.36 " fill="none" id="node_zone_b_control_unit_software-to-node_zone_b_control_unit_hardware" style="stroke:#181818;stroke-width:1.5;"/><polygon fill="#181818" points="1210.85,360.74,1214.7985,351.7173,1210.8214,355.7401,1206.7986,351.763,1210.85,360.74" style="stroke:#181818;stroke-width:1.5;"/><text fill="#000000" font-family="sans-serif" font-size="13" lengthAdjust="spacing" textLength="28" x="1219" y="287.0669">host</text></g><!--link node_zone_b_control_unit_software to node_vehicle_control_unit_software--><g id="link_node_zone_b_control_unit_software_node_vehicle_control_unit_software"><path d="M1120.85,244.02 C1011.98,275.17 828.63,327.65 717.42,359.48 " fill="none" id="node_zone_b_control_unit_software-to-node_vehicle_control_unit_software" style="stroke:#181818;stroke-width:1.5;stroke-dasharray:7.0,7.0;"/><polygon fill="#181818" points="712.51,360.88,722.2653,362.2345,717.3149,359.497,720.0524,354.5466,712.51,360.88" style="stroke:#181818;stroke-width:1.5;"/><text fill="#000000" font-family="sans-serif" font-size="13" lengthAdjust="spacing" textLength="22" x="1012" y="287.0669">vcu</text></g><!--link node_zone_b_control_unit_hardware to node_zone_b_ethernet--><g id="link_node_zone_b_control_unit_hardware_node_zone_b_ethernet"><path d="M1207.19,414.18 C1205.83,423.56 1204.31,434.26 1203,444 C1199.3,471.57 1195.42,502.98 1192.68,525.59 " fill="none" id="node_zone_b_control_unit_hardware-to-node_zone_b_ethernet" style="stroke:#181818;stroke-width:1.5;stroke-dasharray:7.0,7.0;"/><polygon fill="#181818" points="1192.08,530.57,1197.1296,522.1141,1192.6791,525.606,1189.1872,521.1556,1192.08,530.57" style="stroke:#181818;stroke-width:1.5;"/><text fill="#000000" font-family="sans-serif" font-size="13" lengthAdjust="spacing" textLength="55" x="1212" y="457.0669">ethernet</text></g><!--link node_zone_b_control_unit_hardware to node_zone_b_can_bus--><g id="link_node_zone_b_control_unit_hardware_node_zone_b_can_bus"><path d="M1240.45,414.2 C1258.52,429.99 1282.12,450.64 1303,469 C1325.12,488.46 1349.97,510.41 1369.23,527.47 " fill="none" id="node_zone_b_control_unit_hardware-to-node_zone_b_can_bus" style="stroke:#181818;stroke-width:1.5;stroke-dasharray:7.0,7.0;"/><polygon fill="#181818" points="1373.01,530.81,1368.9068,521.8566,1369.2604,527.5024,1363.6146,527.8559,1373.01,530.81" style="stroke:#181818;stroke-width:1.5;"/><text fill="#000000" font-family="sans-serif" font-size="13" lengthAdjust="spacing" textLength="23" x="1302" y="457.0669">can</text></g><!--link node_zone_b_actuator to node_zone_b_can_bus--><g id="link_node_zone_b_actuator_node_zone_b_can_bus"><path d="M1415.23,114.33 C1412.83,194.47 1405.52,438.74 1402.93,525.51 " fill="none" id="node_zone_b_actuator-to-node_zone_b_can_bus" style="stroke:#181818;stroke-width:1.5;stroke-dasharray:7.0,7.0;"/><polygon fill="#181818" points="1402.77,530.75,1407.0507,521.8801,1402.9271,525.7525,1399.0547,521.6288,1402.77,530.75" style="stroke:#181818;stroke-width:1.5;"/><text fill="#000000" font-family="sans-serif" font-size="13" lengthAdjust="spacing" textLength="23" x="1419" y="287.0669">can</text></g><!--link node_zone_b_actuator to node_zone_b_control_unit_software--><g id="link_node_zone_b_actuator_node_zone_b_control_unit_software"><path d="M1374.81,114.1 C1340.28,135.55 1291.05,166.14 1255.4,188.29 " fill="none" id="node_zone_b_actuator-to-node_zone_b_control_unit_software" style="stroke:#181818;stroke-width:1.5;stroke-dasharray:7.0,7.0;"/><polygon fill="#181818" points="1251.12,190.95,1260.8761,189.6015,1255.368,188.3128,1256.6566,182.8047,1251.12,190.95" style="stroke:#181818;stroke-width:1.5;"/><text fill="#000000" font-family="sans-serif" font-size="13" lengthAdjust="spacing" textLength="22" x="1334" y="157.0669">zcu</text></g><!--link node_zone_b_sensor to node_zone_b_can_bus--><g id="link_node_zone_b_sensor_node_zone_b_can_bus"><path d="M1250.12,114 C1283.66,130.85 1322.51,156.29 1345,191 C1354.13,205.09 1386.38,440.06 1397.88,525.64 " fill="none" id="node_zone_b_sensor-to-node_zone_b_can_bus" style="stroke:#181818;stroke-width:1.5;stroke-dasharray:7.0,7.0;"/><polygon fill="#181818" points="1398.58,530.81,1401.3358,521.3546,1397.9089,525.8552,1393.4082,522.4283,1398.58,530.81" style="stroke:#181818;stroke-width:1.5;"/><text fill="#000000" font-family="sans-serif" font-size="13" lengthAdjust="spacing" textLength="23" x="1372" y="287.0669">can</text></g><!--link node_zone_b_sensor to node_zone_b_control_unit_software--><g id="link_node_zone_b_sensor_node_zone_b_control_unit_software"><path d="M1191.6,114.1 C1195.31,134.76 1200.55,163.91 1204.49,185.83 " fill="none" id="node_zone_b_sensor-to-node_zone_b_control_unit_software" style="stroke:#181818;stroke-width:1.5;stroke-dasharray:7.0,7.0;"/><polygon fill="#181818" points="1205.41,190.95,1207.755,181.3844,1204.5256,186.0288,1199.8812,182.7994,1205.41,190.95" style="stroke:#181818;stroke-width:1.5;"/><text fill="#000000" font-family="sans-serif" font-size="13" lengthAdjust="spacing" textLength="22" x="1208" y="157.0669">zcu</text></g><!--SRC=[hPN1ZjCm48RlVWghNE2maJXmuR1IgK2SLaY1FI2aoEDCDb4TkxAT5XRnxhXDqgQDuoHLUgjdvll7up-ssHPonpGhQOePguJzegHzOYNIc4aJeouoOiuvN9Kx9L7QsFuHI3Loo-IBm4uACBvzqQgIwKO9fQdLZkD2hgYJjTPQ7Rxd1TzAD8Q-ZpwGJZGh7FmleUxtIUaKTOq2uTYTrUlwq_gD-24lB99_NNOXBUgCyVa2LvZprk_gypZaUeHIwPA98vjSa2ikL9Mkw1jHI8nIPd9CdSvjGc9GxmkEl-HR_CtAdS18gXHDj3b6exYElbjHPkWna5nLzGMJdLRxmZKy0FpMX7l4jewuVNIWhyug2Gjjeyv8k1k7LYAfP64Jep9xS7xfDV5pyoEAcs2dXH23Z8dbJAU3Ob-Ru8XOo_29eSrHIxIExtfAETCD_tCJwBFR4c_lJ2PGcHvjitxoD5ad-pYCsufPrJ_eTHFeqzeI7ywWD1vOV5hke-fqdrbWr2omW5bWgbbW0RF0LBF0VBD0m2mmnommR1QORnO8c0NccGK2Pk4Xi-pHNRe29xhbsU-M88ICoWtwvTdlbo24dDw8_ZLE7nuUVNSn_KXNbERAs1KPtyo54cnY9ZIA7ZqFJmsfdpWoGVDCkRaWQqxxxmuKX56XX-Kohz2Bq1jN47bkBZpK4tFFgm3olj7D8ZNtHNEMJ5upskz_iRBXIRpUJgA-C6Og3nLDreL9Fe4vFe7bVGABVHTJIQ6nmz21trysuxoyHpwcF5GqeliV]--></g></svg>