<?xml version="1.0" encoding="UTF-8" standalone="no"?><svg xmlns="http://www.w3.org/2000/svg" xmlns:xlink="http://www.w3.org/1999/xlink" contentStyleType="text/css" height="794px" preserveAspectRatio="none" style="width:1587px;height:794px;background:#FFFFFF;" version="1.1" viewBox="0 0 1587 794" width="1587px" zoomAndPan="magnify"><defs/><g><!--MD5=[bfeb4e40a9e05244ea0843bb1cef058f]
cluster cloud--><g id="cluster_cloud"><rect fill="none" height="269" rx="2.5" ry="2.5" style="stroke:#181818;stroke-width:1.0;" width="280" x="806" y="519"/><text fill="#000000" font-family="sans-serif" font-size="14" font-weight="bold" lengthAdjust="spacing" textLength="43" x="924.5" y="533.9951">cloud</text></g><!--MD5=[26e67c7c25d4dc27e4991ea38f40507f]
cluster zone_a--><g id="cluster_zone_a"><rect fill="none" height="635" rx="2.5" ry="2.5" style="stroke:#181818;stroke-width:1.0;" width="471" x="7" y="7"/><text fill="#000000" font-family="sans-serif" font-size="14" font-weight="bold" lengthAdjust="spacing" textLength="55" x="215" y="21.9951">zone_a</text></g><!--MD5=[7a167bf063f1c8d5bb4dd72a491f0803]
cluster zone_b--><g id="cluster_zone_b"><rect fill="none" height="635" rx="2.5" ry="2.5" style="stroke:#181818;stroke-width:1.0;" width="471" x="1110" y="7"/><text fill="#000000" font-family="sans-serif" font-size="14" font-weight="bold" lengthAdjust="spacing" textLength="56" x="1317.5" y="21.9951">zone_b</text></g><!--MD5=[44472286800bd493f394b1beeeda85eb]
cluster zone_c--><g id="cluster_zone_c"><rect fill="none" height="307" rx="2.5" ry="2.5" style="stroke:#181818;stroke-width:1.0;" width="280" x="502" y="335"/><text fill="#000000" font-family="sans-serif" font-size="14" font-weight="bold" lengthAdjust="spacing" textLength="55" x="614.5" y="349.9951">zone_c</text></g><!--MD5=[062a307f1a3b9ecbc83b6bfc64fbd6d7]
entity cloud_service--><g id="elem_cloud_service"><rect fill="#F1F1F1" height="52.5938" rx="2.5" ry="2.5" style="stroke:#181818;stroke-width:0.5;" width="243" x="823.5" y="573"/><text fill="#000000" font-family="sans-serif" font-size="14" font-style="italic" lengthAdjust="spacing" textLength="223" x="833.5" y="595.9951">«example.nodes.Cloud.Service»</text><text fill="#000000" font-family="sans-serif" font-size="14" lengthAdjust="spacing" textLength="94" x="898" y="612.292">cloud_service</text></g><!--MD5=[da2096ad6c531b186fcd59aa307489d4]
entity cloud_provider--><g id="elem_cloud_provider"><rect fill="#F1F1F1" height="52.5938" rx="2.5" ry="2.5" style="stroke:#181818;stroke-width:0.5;" width="248" x="822" y="719"/><text fill="#000000" font-family="sans-serif" font-size="14" font-style="italic" lengthAdjust="spacing" textLength="228" x="832" y="741.9951">«example.nodes.Cloud.Provider»</text><text fill="#000000" font-family="sans-serif" font-size="14" lengthAdjust="spacing" textLength="101" x="895.5" y="758.292">cloud_provider</text></g><!--MD5=[703d8dbcde58b30cef640fc61c03d303]
entity zone_a_control_unit_software--><g id="elem_zone_a_control_unit_software"><rect fill="#F1F1F1" height="52.5938" rx="2.5" ry="2.5" style="stroke:#181818;stroke-width:0.5;" width="242" x="144" y="205"/><text fill="#000000" font-family="sans-serif" font-size="14" font-style="italic" lengthAdjust="spacing" textLength="222" x="154" y="227.9951">«example.nodes.ZCU.Software»</text><text fill="#000000" font-family="sans-serif" font-size="14" lengthAdjust="spacing" textLength="204" x="163" y="244.292">zone_a_control_unit_software</text></g><!--MD5=[05cf8bb3149713c3a3e5807167fd4ea2]
entity zone_a_control_unit_hardware--><g id="elem_zone_a_control_unit_hardware"><rect fill="#F1F1F1" height="52.5938" rx="2.5" ry="2.5" style="stroke:#181818;stroke-width:0.5;" width="248" x="139" y="389"/><text fill="#000000" font-family="sans-serif" font-size="14" font-style="italic" lengthAdjust="spacing" textLength="228" x="149" y="411.9951">«example.nodes.ZCU.Hardware»</text><text fill="#000000" font-family="sans-serif" font-size="14" lengthAdjust="spacing" textLength="209" x="158.5" y="428.292">zone_a_control_unit_hardware</text></g><!--MD5=[b23ee3eefa3ef30ff77358eb9d38d486]
entity zone_a_ethernet--><g id="elem_zone_a_ethernet"><rect fill="#F1F1F1" height="52.5938" rx="2.5" ry="2.5" style="stroke:#181818;stroke-width:0.5;" width="199" x="57.5" y="573"/><text fill="#000000" font-family="sans-serif" font-size="14" font-style="italic" lengthAdjust="spacing" textLength="179" x="67.5" y="595.9951">«sofdcar.nodes.Ethernet»</text><text fill="#000000" font-family="sans-serif" font-size="14" lengthAdjust="spacing" textLength="117" x="98.5" y="612.292">zone_a_ethernet</text></g><!--MD5=[5912d853992e8855d88be01919bec62f]
entity zone_a_can_bus--><g id="elem_zone_a_can_bus"><rect fill="#F1F1F1" height="52.5938" rx="2.5" ry="2.5" style="stroke:#181818;stroke-width:0.5;" width="170" x="292" y="573"/><text fill="#000000" font-family="sans-serif" font-size="14" font-style="italic" lengthAdjust="spacing" textLength="150" x="302" y="595.9951">«sofdcar.nodes.CAN»</text><text fill="#000000" font-family="sans-serif" font-size="14" lengthAdjust="spacing" textLength="115" x="319.5" y="612.292">zone_a_can_bus</text></g><!--MD5=[fbeb2b6eee7a83e3b9138e4ad17eafbb]
entity zone_a_actuator--><g id="elem_zone_a_actuator"><rect fill="#F1F1F1" height="52.5938" rx="2.5" ry="2.5" style="stroke:#181818;stroke-width:0.5;" width="207" x="254.5" y="61"/><text fill="#000000" font-family="sans-serif" font-size="14" font-style="italic" lengthAdjust="spacing" textLength="187" x="264.5" y="83.9951">«example.nodes.Actuator»</text><text fill="#000000" font-family="sans-serif" font-size="14" lengthAdjust="spacing" textLength="114" x="301" y="100.292">zone_a_actuator</text></g><!--MD5=[6de3a03cf83a56649b479c478417480d]
entity zone_a_sensor--><g id="elem_zone_a_sensor"><rect fill="#F1F1F1" height="52.5938" rx="2.5" ry="2.5" style="stroke:#181818;stroke-width:0.5;" width="196" x="23" y="61"/><text fill="#000000" font-family="sans-serif" font-size="14" font-style="italic" lengthAdjust="spacing" textLength="176" x="33" y="83.9951">«example.nodes.Sensor»</text><text fill="#000000" font-family="sans-serif" font-size="14" lengthAdjust="spacing" textLength="105" x="68.5" y="100.292">zone_a_sensor</text></g><!--MD5=[d8e7f0293b90ec41991f6e32b00df57f]
entity zone_b_control_unit_software--><g id="elem_zone_b_control_unit_software"><rect fill="#F1F1F1" height="52.5938" rx="2.5" ry="2.5" style="stroke:#181818;stroke-width:0.5;" width="242" x="1127" y="205"/><text fill="#000000" font-family="sans-serif" font-size="14" font-style="italic" lengthAdjust="spacing" textLength="222" x="1137" y="227.9951">«example.nodes.ZCU.Software»</text><text fill="#000000" font-family="sans-serif" font-size="14" lengthAdjust="spacing" textLength="205" x="1145.5" y="244.292">zone_b_control_unit_software</text></g><!--MD5=[8ad3b157428282c852d36f67fb5d7fd6]
entity zone_b_control_unit_hardware--><g id="elem_zone_b_control_unit_hardware"><rect fill="#F1F1F1" height="52.5938" rx="2.5" ry="2.5" style="stroke:#181818;stroke-width:0.5;" width="248" x="1126" y="389"/><text fill="#000000" font-family="sans-serif" font-size="14" font-style="italic" lengthAdjust="spacing" textLength="228" x="1136" y="411.9951">«example.nodes.ZCU.Hardware»</text><text fill="#000000" font-family="sans-serif" font-size="14" lengthAdjust="spacing" textLength="210" x="1145" y="428.292">zone_b_control_unit_hardware</text></g><!--MD5=[fdde5fb79635de631c84d39e0dce5aac]
entity zone_b_ethernet--><g id="elem_zone_b_ethernet"><rect fill="#F1F1F1" height="52.5938" rx="2.5" ry="2.5" style="stroke:#181818;stroke-width:0.5;" width="199" x="1126.5" y="573"/><text fill="#000000" font-family="sans-serif" font-size="14" font-style="italic" lengthAdjust="spacing" textLength="179" x="1136.5" y="595.9951">«sofdcar.nodes.Ethernet»</text><text fill="#000000" font-family="sans-serif" font-size="14" lengthAdjust="spacing" textLength="118" x="1167" y="612.292">zone_b_ethernet</text></g><!--MD5=[395548fe28a51df78ca72730e0ae8bb6]
entity zone_b_can_bus--><g id="elem_zone_b_can_bus"><rect fill="#F1F1F1" height="52.5938" rx="2.5" ry="2.5" style="stroke:#181818;stroke-width:0.5;" width="170" x="1361" y="573"/><text fill="#000000" font-family="sans-serif" font-size="14" font-style="italic" lengthAdjust="spacing" textLength="150" x="1371" y="595.9951">«sofdcar.nodes.CAN»</text><text fill="#000000" font-family="sans-serif" font-size="14" lengthAdjust="spacing" textLength="116" x="1388" y="612.292">zone_b_can_bus</text></g><!--MD5=[50be9d8d055b92994818e2dcd692b0ed]
entity zone_b_actuator--><g id="elem_zone_b_actuator"><rect fill="#F1F1F1" height="52.5938" rx="2.5" ry="2.5" style="stroke:#181818;stroke-width:0.5;" width="207" x="1357.5" y="61"/><text fill="#000000" font-family="sans-serif" font-size="14" font-style="italic" lengthAdjust="spacing" textLength="187" x="1367.5" y="83.9951">«example.nodes.Actuator»</text><text fill="#000000" font-family="sans-serif" font-size="14" lengthAdjust="spacing" textLength="115" x="1403.5" y="100.292">zone_b_actuator</text></g><!--MD5=[04914adf354e30de9d8431137acc47f4]
entity zone_b_sensor--><g id="elem_zone_b_sensor"><rect fill="#F1F1F1" height="52.5938" rx="2.5" ry="2.5" style="stroke:#181818;stroke-width:0.5;" width="196" x="1126" y="61"/><text fill="#000000" font-family="sans-serif" font-size="14" font-style="italic" lengthAdjust="spacing" textLength="176" x="1136" y="83.9951">«example.nodes.Sensor»</text><text fill="#000000" font-family="sans-serif" font-size="14" lengthAdjust="spacing" textLength="106" x="1171" y="100.292">zone_b_sensor</text></g><!--MD5=[db139891d87cb11e5b4a958739e45d3c]
entity vehicle_control_unit_software--><g id="elem_vehicle_control_unit_software"><rect fill="#F1F1F1" height="52.5938" rx="2.5" ry="2.5" style="stroke:#181818;stroke-width:0.5;" width="242" x="523" y="389"/><text fill="#000000" font-family="sans-serif" font-size="14" font-style="italic" lengthAdjust="spacing" textLength="222" x="533" y="411.9951">«example.nodes.VCU.Software»</text><text fill="#000000" font-family="sans-serif" font-size="14" lengthAdjust="spacing" textLength="202" x="543" y="428.292">vehicle_control_unit_software</text></g><!--MD5=[40fd83e25ccad2ec58d8ed79628afac7]
entity vehicle_control_unit_hardware--><g id="elem_vehicle_control_unit_hardware"><rect fill="#F1F1F1" height="52.5938" rx="2.5" ry="2.5" style="stroke:#181818;stroke-width:0.5;" width="248" x="518" y="573"/><text fill="#000000" font-family="sans-serif" font-size="14" font-style="italic" lengthAdjust="spacing" textLength="228" x="528" y="595.9951">«example.nodes.VCU.Hardware»</text><text fill="#000000" font-family="sans-serif" font-size="14" lengthAdjust="spacing" textLength="207" x="538.5" y="612.292">vehicle_control_unit_hardware</text></g><!--MD5=[0f6058ad7f85b6b365d865a0de080ec0]
link cloud_service to cloud_provider--><g id="link_cloud_service_cloud_provider"><path d="M945.18,626.24 C945.36,652.46 945.64,692.85 945.82,718.98 " fill="none" id="cloud_service-cloud_provider" style="stroke:#181818;stroke-width:1.0;"/><text fill="#000000" font-family="sans-serif" font-size="13" lengthAdjust="spacing" textLength="28" x="953" y="678.0669">host</text><path d="M952.522,665.524 A10,10 0 0 0 938.3802 665.6217" fill="none" style="stroke:#181818;stroke-width:1.5;"/><ellipse cx="945.5" cy="672.6438" fill="#FFFFFF" rx="6" ry="6" style="stroke:#181818;stroke-width:1.5;"/></g><!--MD5=[ad61562ec2460b4dc19674f295232248]
link vehicle_control_unit_software to vehicle_control_unit_hardware--><g id="link_vehicle_control_unit_software_vehicle_control_unit_hardware"><path d="M643.72,442.19 C643.34,476.88 642.66,538.32 642.28,572.94 " fill="none" id="vehicle_control_unit_software-vehicle_control_unit_hardware" style="stroke:#181818;stroke-width:1.0;"/><text fill="#000000" font-family="sans-serif" font-size="13" lengthAdjust="spacing" textLength="28" x="651" y="492.0669">host</text><path d="M650.1486,500.5986 A10,10 0 0 0 636.0074 500.4426" fill="none" style="stroke:#181818;stroke-width:1.5;"/><ellipse cx="643" cy="507.5912" fill="#FFFFFF" rx="6" ry="6" style="stroke:#181818;stroke-width:1.5;"/></g><!--MD5=[875f719f4b81c5b091b6b7c25bddd4bf]
link vehicle_control_unit_software to cloud_service--><g id="link_vehicle_control_unit_software_cloud_service"><path d="M765.2,432.15 C819.42,441.32 875.68,454.57 896,472 C925.94,497.68 937.68,543.91 942.22,572.81 " fill="none" id="vehicle_control_unit_software-cloud_service" style="stroke:#181818;stroke-width:1.0;"/><text fill="#000000" font-family="sans-serif" font-size="13" lengthAdjust="spacing" textLength="34" x="926" y="492.0669">cloud</text><path d="M895.2367,462.0292 A10,10 0 0 0 886.0292 472.7633" fill="none" style="stroke:#181818;stroke-width:1.5;"/><ellipse cx="896" cy="472" fill="#FFFFFF" rx="6" ry="6" style="stroke:#181818;stroke-width:1.5;"/></g><!--MD5=[89795c4e6007ef2ff2a349db59a86247]
link vehicle_control_unit_hardware to zone_a_ethernet--><g id="link_vehicle_control_unit_hardware_zone_a_ethernet"><path d="M600.79,572.8 C568.55,553.04 521.97,526.89 478,511 C418.98,489.67 399.88,490.2 337.5,497 C308.77,500.13 300.24,498.89 274,511 C240.47,526.47 207.39,552.81 185,572.74 " fill="none" id="vehicle_control_unit_hardware-zone_a_ethernet" style="stroke:#181818;stroke-width:1.0;"/><text fill="#000000" font-family="sans-serif" font-size="13" lengthAdjust="spacing" textLength="55" x="345.5" y="492.0669">ethernet</text><path d="M415.4613,501.0919 A10,10 0 0 0 416.6507 486.9999" fill="none" style="stroke:#181818;stroke-width:1.5;"/><ellipse cx="409.01" cy="493.4513" fill="#FFFFFF" rx="6" ry="6" style="stroke:#181818;stroke-width:1.5;"/></g><!--MD5=[45065bec5f9b43eecdac202db6aa3e67]
link vehicle_control_unit_hardware to zone_b_ethernet--><g id="link_vehicle_control_unit_hardware_zone_b_ethernet"><path d="M674.96,572.82 C708.33,547.65 762.59,511.66 816.5,497 C871.26,482.11 1022.43,490.14 1086,511 C1126.57,524.31 1167.18,551.96 1194.14,572.83 " fill="none" id="vehicle_control_unit_hardware-zone_b_ethernet" style="stroke:#181818;stroke-width:1.0;"/><text fill="#000000" font-family="sans-serif" font-size="13" lengthAdjust="spacing" textLength="55" x="824.5" y="492.0669">ethernet</text><path d="M941.2547,483.1626 A10,10 0 0 0 940.5151 497.2853" fill="none" style="stroke:#181818;stroke-width:1.5;"/><ellipse cx="947.9463" cy="490.5938" fill="#FFFFFF" rx="6" ry="6" style="stroke:#181818;stroke-width:1.5;"/></g><!--MD5=[1058c74b3482e062112632f74dbcd05e]
link zone_a_control_unit_software to zone_a_control_unit_hardware--><g id="link_zone_a_control_unit_software_zone_a_control_unit_hardware"><path d="M264.72,258.19 C264.34,292.88 263.66,354.32 263.28,388.94 " fill="none" id="zone_a_control_unit_software-zone_a_control_unit_hardware" style="stroke:#181818;stroke-width:1.0;"/><text fill="#000000" font-family="sans-serif" font-size="13" lengthAdjust="spacing" textLength="28" x="273" y="308.0669">host</text><path d="M271.1486,316.5986 A10,10 0 0 0 257.0074 316.4426" fill="none" style="stroke:#181818;stroke-width:1.5;"/><ellipse cx="264" cy="323.5913" fill="#FFFFFF" rx="6" ry="6" style="stroke:#181818;stroke-width:1.5;"/></g><!--MD5=[322310b2ab80abcc3c718d6ea0533de9]
link zone_a_control_unit_software to vehicle_control_unit_software--><g id="link_zone_a_control_unit_software_vehicle_control_unit_software"><path d="M386.07,257.44 C414.33,265.39 443.81,275.46 470,288 C526.09,314.85 582.82,360.29 615.63,388.77 " fill="none" id="zone_a_control_unit_software-vehicle_control_unit_software" style="stroke:#181818;stroke-width:1.0;"/><text fill="#000000" font-family="sans-serif" font-size="13" lengthAdjust="spacing" textLength="22" x="530" y="308.0669">vcu</text><path d="M466.676,278.5686 A10,10 0 0 0 460.5686 291.324" fill="none" style="stroke:#181818;stroke-width:1.5;"/><ellipse cx="470" cy="288" fill="#FFFFFF" rx="6" ry="6" style="stroke:#181818;stroke-width:1.5;"/></g><!--MD5=[fbd5f5759b6eb62e94c0653ded2a6c9f]
link zone_a_control_unit_hardware to zone_a_ethernet--><g id="link_zone_a_control_unit_hardware_zone_a_ethernet"><path d="M205.39,442.08 C193.27,450 181.8,459.92 174,472 C154.35,502.44 152.86,545.59 154.36,572.81 " fill="none" id="zone_a_control_unit_hardware-zone_a_ethernet" style="stroke:#181818;stroke-width:1.0;"/><text fill="#000000" font-family="sans-serif" font-size="13" lengthAdjust="spacing" textLength="55" x="182" y="492.0669">ethernet</text><path d="M164.2717,517.6433 A10,10 0 0 0 150.2795 515.5895" fill="none" style="stroke:#181818;stroke-width:1.5;"/><ellipse cx="156.2488" cy="523.6125" fill="#FFFFFF" rx="6" ry="6" style="stroke:#181818;stroke-width:1.5;"/></g><!--MD5=[cf1af38d5006b89f5789a90f8c20f264]
link zone_a_control_unit_hardware to zone_a_can_bus--><g id="link_zone_a_control_unit_hardware_zone_a_can_bus"><path d="M267.95,442.3 C272.1,460.16 279.12,484.03 290,503 C305.17,529.46 328.78,554.76 347.58,572.66 " fill="none" id="zone_a_control_unit_hardware-zone_a_can_bus" style="stroke:#181818;stroke-width:1.0;"/><text fill="#000000" font-family="sans-serif" font-size="13" lengthAdjust="spacing" textLength="23" x="298" y="492.0669">can</text><path d="M292.6158,493.3482 A10,10 0 0 0 280.3482 500.3842" fill="none" style="stroke:#181818;stroke-width:1.5;"/><ellipse cx="290" cy="503" fill="#FFFFFF" rx="6" ry="6" style="stroke:#181818;stroke-width:1.5;"/></g><!--MD5=[d8464d2a023b0981ca6165e53f2e31f6]
link zone_a_actuator to zone_a_can_bus--><g id="link_zone_a_actuator_zone_a_can_bus"><path d="M370.66,114.14 C381.4,137.27 396.13,172.55 403,205 C416.73,269.85 428.77,437.96 416,503 C411.17,527.6 399.96,553.86 390.79,572.6 " fill="none" id="zone_a_actuator-zone_a_can_bus" style="stroke:#181818;stroke-width:1.0;"/><text fill="#000000" font-family="sans-serif" font-size="13" lengthAdjust="spacing" textLength="23" x="425" y="308.0669">can</text><path d="M426.1191,346.4885 A10,10 0 0 0 411.9973 347.2472" fill="none" style="stroke:#181818;stroke-width:1.5;"/><ellipse cx="419.4375" cy="353.9288" fill="#FFFFFF" rx="6" ry="6" style="stroke:#181818;stroke-width:1.5;"/></g><!--MD5=[8fb2fa3a5a0aa28d551da929c492d6b1]
link zone_a_actuator to zone_a_control_unit_software--><g id="link_zone_a_actuator_zone_a_control_unit_software"><path d="M341.16,114.22 C324.3,139.95 298.53,179.31 281.72,204.98 " fill="none" id="zone_a_actuator-zone_a_control_unit_software" style="stroke:#181818;stroke-width:1.0;"/><text fill="#000000" font-family="sans-serif" font-size="13" lengthAdjust="spacing" textLength="22" x="328" y="164.0669">zcu</text><path d="M321.2106,157.5808 A10,10 0 0 0 309.3795 149.8331" fill="none" style="stroke:#181818;stroke-width:1.5;"/><ellipse cx="311.4213" cy="159.6225" fill="#FFFFFF" rx="6" ry="6" style="stroke:#181818;stroke-width:1.5;"/></g><!--MD5=[2a52968c819680d57e8efa5ec9530373]
link zone_a_sensor to zone_a_can_bus--><g id="link_zone_a_sensor_zone_a_can_bus"><path d="M116.74,114.32 C107.91,173.44 90.8,322.71 121,442 C128.56,471.88 128.06,486.35 154,503 C176.49,517.44 249.23,500.95 274,511 C306.61,524.23 336.37,552 355.42,572.72 " fill="none" id="zone_a_sensor-zone_a_can_bus" style="stroke:#181818;stroke-width:1.0;"/><text fill="#000000" font-family="sans-serif" font-size="13" lengthAdjust="spacing" textLength="23" x="113" y="308.0669">can</text><path d="M126.1194,433.4098 A10,10 0 0 0 112.4098 436.8806" fill="none" style="stroke:#181818;stroke-width:1.5;"/><ellipse cx="121" cy="442" fill="#FFFFFF" rx="6" ry="6" style="stroke:#181818;stroke-width:1.5;"/></g><!--MD5=[7f25a32e00d81ab5ed2719422a031f6f]
link zone_a_sensor to zone_a_control_unit_software--><g id="link_zone_a_sensor_zone_a_control_unit_software"><path d="M147.08,114.22 C173.17,139.95 213.09,179.31 239.12,204.98 " fill="none" id="zone_a_sensor-zone_a_control_unit_software" style="stroke:#181818;stroke-width:1.0;"/><text fill="#000000" font-family="sans-serif" font-size="13" lengthAdjust="spacing" textLength="22" x="214" y="164.0669">zcu</text><path d="M193.0523,149.6227 A10,10 0 0 0 183.1227 159.6927" fill="none" style="stroke:#181818;stroke-width:1.5;"/><ellipse cx="193.1225" cy="159.6225" fill="#FFFFFF" rx="6" ry="6" style="stroke:#181818;stroke-width:1.5;"/></g><!--MD5=[fe65f3e2150463e5c3ecef56dbd059b2]
link zone_b_control_unit_software to zone_b_control_unit_hardware--><g id="link_zone_b_control_unit_software_zone_b_control_unit_hardware"><path d="M1248.28,258.19 C1248.66,292.88 1249.34,354.32 1249.72,388.94 " fill="none" id="zone_b_control_unit_software-zone_b_control_unit_hardware" style="stroke:#181818;stroke-width:1.0;"/><text fill="#000000" font-family="sans-serif" font-size="13" lengthAdjust="spacing" textLength="28" x="1256" y="308.0669">host</text><path d="M1255.9926,316.4426 A10,10 0 0 0 1241.8514 316.5986" fill="none" style="stroke:#181818;stroke-width:1.5;"/><ellipse cx="1249" cy="323.5913" fill="#FFFFFF" rx="6" ry="6" style="stroke:#181818;stroke-width:1.5;"/></g><!--MD5=[a80203f37728b755a81f5254844adbe2]
link zone_b_control_unit_software to vehicle_control_unit_software--><g id="link_zone_b_control_unit_software_vehicle_control_unit_software"><path d="M1163.06,258.09 C1048.04,292.75 843.94,354.25 728.92,388.91 " fill="none" id="zone_b_control_unit_software-vehicle_control_unit_software" style="stroke:#181818;stroke-width:1.0;"/><text fill="#000000" font-family="sans-serif" font-size="13" lengthAdjust="spacing" textLength="22" x="1060" y="308.0669">vcu</text><path d="M954.8005,328.2303 A10,10 0 0 0 950.7203 314.6895" fill="none" style="stroke:#181818;stroke-width:1.5;"/><ellipse cx="945.99" cy="323.5" fill="#FFFFFF" rx="6" ry="6" style="stroke:#181818;stroke-width:1.5;"/></g><!--MD5=[d75340098e51e783a6d1aea767f5b547]
link zone_b_control_unit_hardware to zone_b_ethernet--><g id="link_zone_b_control_unit_hardware_zone_b_ethernet"><path d="M1243.21,442.05 C1240.93,451.41 1238.58,462.13 1237,472 C1231.47,506.61 1228.57,547.03 1227.16,572.69 " fill="none" id="zone_b_control_unit_hardware-zone_b_ethernet" style="stroke:#181818;stroke-width:1.0;"/><text fill="#000000" font-family="sans-serif" font-size="13" lengthAdjust="spacing" textLength="55" x="1245" y="492.0669">ethernet</text><path d="M1238.2132,519.2946 A10,10 0 0 0 1224.1284 518.023" fill="none" style="stroke:#181818;stroke-width:1.5;"/><ellipse cx="1230.535" cy="525.7013" fill="#FFFFFF" rx="6" ry="6" style="stroke:#181818;stroke-width:1.5;"/></g><!--MD5=[1bd1592af963a235d51067cf9b6a3ca5]
link zone_b_control_unit_hardware to zone_b_can_bus--><g id="link_zone_b_control_unit_hardware_zone_b_can_bus"><path d="M1278.85,442.04 C1289.34,451.4 1301.26,462.13 1312,472 C1349.57,506.53 1392.34,547.14 1419.25,572.85 " fill="none" id="zone_b_control_unit_hardware-zone_b_can_bus" style="stroke:#181818;stroke-width:1.0;"/><text fill="#000000" font-family="sans-serif" font-size="13" lengthAdjust="spacing" textLength="23" x="1353" y="492.0669">can</text><path d="M1369.329,515.7368 A10,10 0 0 0 1359.6268 526.026" fill="none" style="stroke:#181818;stroke-width:1.5;"/><ellipse cx="1369.6225" cy="525.7325" fill="#FFFFFF" rx="6" ry="6" style="stroke:#181818;stroke-width:1.5;"/></g><!--MD5=[f5b1ea1665c5e108a978dbf6a431a878]
link zone_b_actuator to zone_b_can_bus--><g id="link_zone_b_actuator_zone_b_can_bus"><path d="M1460.56,114.08 C1459.81,156.62 1458.14,244.58 1456,319 C1453.32,412.43 1449.01,523.39 1447.05,572.69 " fill="none" id="zone_b_actuator-zone_b_can_bus" style="stroke:#181818;stroke-width:1.0;"/><text fill="#000000" font-family="sans-serif" font-size="13" lengthAdjust="spacing" textLength="23" x="1464" y="308.0669">can</text><path d="M1463.2714,312.1351 A10,10 0 0 0 1449.1351 311.7286" fill="none" style="stroke:#181818;stroke-width:1.5;"/><ellipse cx="1456" cy="319" fill="#FFFFFF" rx="6" ry="6" style="stroke:#181818;stroke-width:1.5;"/></g><!--MD5=[6b96cd73a25c8bcde2ab5aaae21dae94]
link zone_b_actuator to zone_b_control_unit_software--><g id="link_zone_b_actuator_zone_b_control_unit_software"><path d="M1422.43,114.22 C1383.82,139.95 1324.79,179.31 1286.29,204.98 " fill="none" id="zone_b_actuator-zone_b_control_unit_software" style="stroke:#181818;stroke-width:1.0;"/><text fill="#000000" font-family="sans-serif" font-size="13" lengthAdjust="spacing" textLength="22" x="1381" y="164.0669">zcu</text><path d="M1364.1246,161.5834 A10,10 0 0 0 1356.2797 149.8166" fill="none" style="stroke:#181818;stroke-width:1.5;"/><ellipse cx="1354.3188" cy="159.6225" fill="#FFFFFF" rx="6" ry="6" style="stroke:#181818;stroke-width:1.5;"/></g><!--MD5=[38dc29039c84e132802c644bde5826ab]
link zone_b_sensor to zone_b_can_bus--><g id="link_zone_b_sensor_zone_b_can_bus"><path d="M1280.39,114.06 C1316.85,133.63 1362.02,164.21 1387,205 C1396.71,220.85 1431.8,488.24 1442.73,572.97 " fill="none" id="zone_b_sensor-zone_b_can_bus" style="stroke:#181818;stroke-width:1.0;"/><text fill="#000000" font-family="sans-serif" font-size="13" lengthAdjust="spacing" textLength="23" x="1415" y="308.0669">can</text><path d="M1420.4068,355.1545 A10,10 0 0 0 1406.407 357.1557" fill="none" style="stroke:#181818;stroke-width:1.5;"/><ellipse cx="1414.4075" cy="363.155" fill="#FFFFFF" rx="6" ry="6" style="stroke:#181818;stroke-width:1.5;"/></g><!--MD5=[cd515bacb442a5a2d626fd4e3c8346e9]
link zone_b_sensor to zone_b_control_unit_software--><g id="link_zone_b_sensor_zone_b_control_unit_software"><path d="M1228.35,114.22 C1232.7,139.95 1239.35,179.31 1243.69,204.98 " fill="none" id="zone_b_sensor-zone_b_control_unit_software" style="stroke:#181818;stroke-width:1.0;"/><text fill="#000000" font-family="sans-serif" font-size="13" lengthAdjust="spacing" textLength="22" x="1246" y="164.0669">zcu</text><path d="M1241.8177,151.472 A10,10 0 0 0 1227.8733 153.8286" fill="none" style="stroke:#181818;stroke-width:1.5;"/><ellipse cx="1236.0238" cy="159.6225" fill="#FFFFFF" rx="6" ry="6" style="stroke:#181818;stroke-width:1.5;"/></g><!--MD5=[34c31cb54afb511f24a63ba7c8c24cd4]
@startuml
skinparam componentStyle rectangle

rectangle "cloud" {
    [cloud_service] <<example.nodes.Cloud.Service>>
    [cloud_provider] <<example.nodes.Cloud.Provider>>
}
rectangle "zone_a" {
    [zone_a_control_unit_software] <<example.nodes.ZCU.Software>>
    [zone_a_control_unit_hardware] <<example.nodes.ZCU.Hardware>>
    [zone_a_ethernet] <<sofdcar.nodes.Ethernet>>
    [zone_a_can_bus] <<sofdcar.nodes.CAN>>
    [zone_a_actuator] <<example.nodes.Actuator>>
    [zone_a_sensor] <<example.nodes.Sensor>>
}
rectangle "zone_b" {
    [zone_b_control_unit_software] <<example.nodes.ZCU.Software>>
    [zone_b_control_unit_hardware] <<example.nodes.ZCU.Hardware>>
    [zone_b_ethernet] <<sofdcar.nodes.Ethernet>>
    [zone_b_can_bus] <<sofdcar.nodes.CAN>>
    [zone_b_actuator] <<example.nodes.Actuator>>
    [zone_b_sensor] <<example.nodes.Sensor>>
}
rectangle "zone_c" {
    [vehicle_control_unit_software] <<example.nodes.VCU.Software>>
    [vehicle_control_unit_hardware] <<example.nodes.VCU.Hardware>>
}


cloud_service -(0- cloud_provider : host
vehicle_control_unit_software -(0- vehicle_control_unit_hardware : host
vehicle_control_unit_software -(0- cloud_service : cloud
vehicle_control_unit_hardware -(0- zone_a_ethernet : ethernet
vehicle_control_unit_hardware -(0- zone_b_ethernet : ethernet
zone_a_control_unit_software -(0- zone_a_control_unit_hardware : host
zone_a_control_unit_software -(0- vehicle_control_unit_software : vcu
zone_a_control_unit_hardware -(0- zone_a_ethernet : ethernet
zone_a_control_unit_hardware -(0- zone_a_can_bus : can
zone_a_actuator -(0- zone_a_can_bus : can
zone_a_actuator -(0- zone_a_control_unit_software : zcu
zone_a_sensor -(0- zone_a_can_bus : can
zone_a_sensor -(0- zone_a_control_unit_software : zcu
zone_b_control_unit_software -(0- zone_b_control_unit_hardware : host
zone_b_control_unit_software -(0- vehicle_control_unit_software : vcu
zone_b_control_unit_hardware -(0- zone_b_ethernet : ethernet
zone_b_control_unit_hardware -(0- zone_b_can_bus : can
zone_b_actuator -(0- zone_b_can_bus : can
zone_b_actuator -(0- zone_b_control_unit_software : zcu
zone_b_sensor -(0- zone_b_can_bus : can
zone_b_sensor -(0- zone_b_control_unit_software : zcu

@enduml

PlantUML version 1.2022.12(Sun Oct 23 20:12:26 CEST 2022)
(GPL source distribution)
Java Runtime: OpenJDK Runtime Environment
JVM: OpenJDK 64-Bit Server VM
Default Encoding: UTF-8
Language: en
Country: null
--></g></svg>