<?xml version="1.0" encoding="UTF-8" standalone="no"?><svg xmlns="http://www.w3.org/2000/svg" xmlns:xlink="http://www.w3.org/1999/xlink" contentStyleType="text/css" height="814px" preserveAspectRatio="none" style="width:1477px;height:814px;background:#FFFFFF;" version="1.1" viewBox="0 0 1477 814" width="1477px" zoomAndPan="magnify"><defs/><g><!--MD5=[bfeb4e40a9e05244ea0843bb1cef058f]
cluster cloud--><g id="cluster_cloud"><rect fill="none" height="276" rx="2.5" ry="2.5" style="stroke:#181818;stroke-width:1.0;" width="260" x="752" y="532"/><text fill="#000000" font-family="sans-serif" font-size="14" font-weight="bold" lengthAdjust="spacing" textLength="39" x="862.5" y="548.5332">cloud</text></g><!--MD5=[26e67c7c25d4dc27e4991ea38f40507f]
cluster zone_a--><g id="cluster_zone_a"><rect fill="none" height="652" rx="2.5" ry="2.5" style="stroke:#181818;stroke-width:1.0;" width="435" x="7" y="7"/><text fill="#000000" font-family="sans-serif" font-size="14" font-weight="bold" lengthAdjust="spacing" textLength="50" x="199.5" y="23.5332">zone_a</text></g><!--MD5=[7a167bf063f1c8d5bb4dd72a491f0803]
cluster zone_b--><g id="cluster_zone_b"><rect fill="none" height="652" rx="2.5" ry="2.5" style="stroke:#181818;stroke-width:1.0;" width="435" x="1036" y="7"/><text fill="#000000" font-family="sans-serif" font-size="14" font-weight="bold" lengthAdjust="spacing" textLength="51" x="1228" y="23.5332">zone_b</text></g><!--MD5=[44472286800bd493f394b1beeeda85eb]
cluster zone_c--><g id="cluster_zone_c"><rect fill="none" height="316" rx="2.5" ry="2.5" style="stroke:#181818;stroke-width:1.0;" width="262" x="466" y="343"/><text fill="#000000" font-family="sans-serif" font-size="14" font-weight="bold" lengthAdjust="spacing" textLength="50" x="572" y="359.5332">zone_c</text></g><!--MD5=[062a307f1a3b9ecbc83b6bfc64fbd6d7]
entity cloud_service--><g id="elem_cloud_service"><rect fill="#F1F1F1" height="55.2188" rx="2.5" ry="2.5" style="stroke:#181818;stroke-width:0.5;" width="222" x="769" y="588"/><text fill="#000000" font-family="sans-serif" font-size="14" font-style="italic" lengthAdjust="spacing" textLength="202" x="779" y="612.5332">«example.nodes.Cloud.Service»</text><text fill="#000000" font-family="sans-serif" font-size="14" lengthAdjust="spacing" textLength="87" x="836.5" y="630.1426">cloud_service</text></g><!--MD5=[da2096ad6c531b186fcd59aa307489d4]
entity cloud_provider--><g id="elem_cloud_provider"><rect fill="#F1F1F1" height="55.2188" rx="2.5" ry="2.5" style="stroke:#181818;stroke-width:0.5;" width="228" x="768" y="737"/><text fill="#000000" font-family="sans-serif" font-size="14" font-style="italic" lengthAdjust="spacing" textLength="208" x="778" y="761.5332">«example.nodes.Cloud.Provider»</text><text fill="#000000" font-family="sans-serif" font-size="14" lengthAdjust="spacing" textLength="94" x="835" y="779.1426">cloud_provider</text></g><!--MD5=[703d8dbcde58b30cef640fc61c03d303]
entity zone_a_control_unit_software--><g id="elem_zone_a_control_unit_software"><rect fill="#F1F1F1" height="55.2188" rx="2.5" ry="2.5" style="stroke:#181818;stroke-width:0.5;" width="223" x="128.5" y="210"/><text fill="#000000" font-family="sans-serif" font-size="14" font-style="italic" lengthAdjust="spacing" textLength="203" x="138.5" y="234.5332">«example.nodes.ZCU.Software»</text><text fill="#000000" font-family="sans-serif" font-size="14" lengthAdjust="spacing" textLength="189" x="145.5" y="252.1426">zone_a_control_unit_software</text></g><!--MD5=[05cf8bb3149713c3a3e5807167fd4ea2]
entity zone_a_control_unit_hardware--><g id="elem_zone_a_control_unit_hardware"><rect fill="#F1F1F1" height="55.2188" rx="2.5" ry="2.5" style="stroke:#181818;stroke-width:0.5;" width="229" x="123.5" y="399"/><text fill="#000000" font-family="sans-serif" font-size="14" font-style="italic" lengthAdjust="spacing" textLength="209" x="133.5" y="423.5332">«example.nodes.ZCU.Hardware»</text><text fill="#000000" font-family="sans-serif" font-size="14" lengthAdjust="spacing" textLength="195" x="140.5" y="441.1426">zone_a_control_unit_hardware</text></g><!--MD5=[b23ee3eefa3ef30ff77358eb9d38d486]
entity zone_a_ethernet--><g id="elem_zone_a_ethernet"><rect fill="#F1F1F1" height="55.2188" rx="2.5" ry="2.5" style="stroke:#181818;stroke-width:0.5;" width="184" x="47" y="588"/><text fill="#000000" font-family="sans-serif" font-size="14" font-style="italic" lengthAdjust="spacing" textLength="164" x="57" y="612.5332">«sofdcar.nodes.Ethernet»</text><text fill="#000000" font-family="sans-serif" font-size="14" lengthAdjust="spacing" textLength="107" x="85.5" y="630.1426">zone_a_ethernet</text></g><!--MD5=[5912d853992e8855d88be01919bec62f]
entity zone_a_can_bus--><g id="elem_zone_a_can_bus"><rect fill="#F1F1F1" height="55.2188" rx="2.5" ry="2.5" style="stroke:#181818;stroke-width:0.5;" width="159" x="266.5" y="588"/><text fill="#000000" font-family="sans-serif" font-size="14" font-style="italic" lengthAdjust="spacing" textLength="139" x="276.5" y="612.5332">«sofdcar.nodes.CAN»</text><text fill="#000000" font-family="sans-serif" font-size="14" lengthAdjust="spacing" textLength="108" x="292" y="630.1426">zone_a_can_bus</text></g><!--MD5=[fbeb2b6eee7a83e3b9138e4ad17eafbb]
entity zone_a_actuator--><g id="elem_zone_a_actuator"><rect fill="#F1F1F1" height="55.2188" rx="2.5" ry="2.5" style="stroke:#181818;stroke-width:0.5;" width="188" x="238" y="63"/><text fill="#000000" font-family="sans-serif" font-size="14" font-style="italic" lengthAdjust="spacing" textLength="168" x="248" y="87.5332">«example.nodes.Actuator»</text><text fill="#000000" font-family="sans-serif" font-size="14" lengthAdjust="spacing" textLength="106" x="279" y="105.1426">zone_a_actuator</text></g><!--MD5=[6de3a03cf83a56649b479c478417480d]
entity zone_a_sensor--><g id="elem_zone_a_sensor"><rect fill="#F1F1F1" height="55.2188" rx="2.5" ry="2.5" style="stroke:#181818;stroke-width:0.5;" width="180" x="23" y="63"/><text fill="#000000" font-family="sans-serif" font-size="14" font-style="italic" lengthAdjust="spacing" textLength="160" x="33" y="87.5332">«example.nodes.Sensor»</text><text fill="#000000" font-family="sans-serif" font-size="14" lengthAdjust="spacing" textLength="97" x="64.5" y="105.1426">zone_a_sensor</text></g><!--MD5=[d8e7f0293b90ec41991f6e32b00df57f]
entity zone_b_control_unit_software--><g id="elem_zone_b_control_unit_software"><rect fill="#F1F1F1" height="55.2188" rx="2.5" ry="2.5" style="stroke:#181818;stroke-width:0.5;" width="223" x="1053.5" y="210"/><text fill="#000000" font-family="sans-serif" font-size="14" font-style="italic" lengthAdjust="spacing" textLength="203" x="1063.5" y="234.5332">«example.nodes.ZCU.Software»</text><text fill="#000000" font-family="sans-serif" font-size="14" lengthAdjust="spacing" textLength="189" x="1070.5" y="252.1426">zone_b_control_unit_software</text></g><!--MD5=[8ad3b157428282c852d36f67fb5d7fd6]
entity zone_b_control_unit_hardware--><g id="elem_zone_b_control_unit_hardware"><rect fill="#F1F1F1" height="55.2188" rx="2.5" ry="2.5" style="stroke:#181818;stroke-width:0.5;" width="229" x="1052.5" y="399"/><text fill="#000000" font-family="sans-serif" font-size="14" font-style="italic" lengthAdjust="spacing" textLength="209" x="1062.5" y="423.5332">«example.nodes.ZCU.Hardware»</text><text fill="#000000" font-family="sans-serif" font-size="14" lengthAdjust="spacing" textLength="195" x="1069.5" y="441.1426">zone_b_control_unit_hardware</text></g><!--MD5=[fdde5fb79635de631c84d39e0dce5aac]
entity zone_b_ethernet--><g id="elem_zone_b_ethernet"><rect fill="#F1F1F1" height="55.2188" rx="2.5" ry="2.5" style="stroke:#181818;stroke-width:0.5;" width="184" x="1052" y="588"/><text fill="#000000" font-family="sans-serif" font-size="14" font-style="italic" lengthAdjust="spacing" textLength="164" x="1062" y="612.5332">«sofdcar.nodes.Ethernet»</text><text fill="#000000" font-family="sans-serif" font-size="14" lengthAdjust="spacing" textLength="107" x="1090.5" y="630.1426">zone_b_ethernet</text></g><!--MD5=[395548fe28a51df78ca72730e0ae8bb6]
entity zone_b_can_bus--><g id="elem_zone_b_can_bus"><rect fill="#F1F1F1" height="55.2188" rx="2.5" ry="2.5" style="stroke:#181818;stroke-width:0.5;" width="159" x="1271.5" y="588"/><text fill="#000000" font-family="sans-serif" font-size="14" font-style="italic" lengthAdjust="spacing" textLength="139" x="1281.5" y="612.5332">«sofdcar.nodes.CAN»</text><text fill="#000000" font-family="sans-serif" font-size="14" lengthAdjust="spacing" textLength="108" x="1297" y="630.1426">zone_b_can_bus</text></g><!--MD5=[50be9d8d055b92994818e2dcd692b0ed]
entity zone_b_actuator--><g id="elem_zone_b_actuator"><rect fill="#F1F1F1" height="55.2188" rx="2.5" ry="2.5" style="stroke:#181818;stroke-width:0.5;" width="188" x="1267" y="63"/><text fill="#000000" font-family="sans-serif" font-size="14" font-style="italic" lengthAdjust="spacing" textLength="168" x="1277" y="87.5332">«example.nodes.Actuator»</text><text fill="#000000" font-family="sans-serif" font-size="14" lengthAdjust="spacing" textLength="106" x="1308" y="105.1426">zone_b_actuator</text></g><!--MD5=[04914adf354e30de9d8431137acc47f4]
entity zone_b_sensor--><g id="elem_zone_b_sensor"><rect fill="#F1F1F1" height="55.2188" rx="2.5" ry="2.5" style="stroke:#181818;stroke-width:0.5;" width="180" x="1052" y="63"/><text fill="#000000" font-family="sans-serif" font-size="14" font-style="italic" lengthAdjust="spacing" textLength="160" x="1062" y="87.5332">«example.nodes.Sensor»</text><text fill="#000000" font-family="sans-serif" font-size="14" lengthAdjust="spacing" textLength="97" x="1093.5" y="105.1426">zone_b_sensor</text></g><!--MD5=[db139891d87cb11e5b4a958739e45d3c]
entity vehicle_control_unit_software--><g id="elem_vehicle_control_unit_software"><rect fill="#F1F1F1" height="55.2188" rx="2.5" ry="2.5" style="stroke:#181818;stroke-width:0.5;" width="223" x="487.5" y="399"/><text fill="#000000" font-family="sans-serif" font-size="14" font-style="italic" lengthAdjust="spacing" textLength="203" x="497.5" y="423.5332">«example.nodes.VCU.Software»</text><text fill="#000000" font-family="sans-serif" font-size="14" lengthAdjust="spacing" textLength="187" x="505.5" y="441.1426">vehicle_control_unit_software</text></g><!--MD5=[40fd83e25ccad2ec58d8ed79628afac7]
entity vehicle_control_unit_hardware--><g id="elem_vehicle_control_unit_hardware"><rect fill="#F1F1F1" height="55.2188" rx="2.5" ry="2.5" style="stroke:#181818;stroke-width:0.5;" width="229" x="482.5" y="588"/><text fill="#000000" font-family="sans-serif" font-size="14" font-style="italic" lengthAdjust="spacing" textLength="209" x="492.5" y="612.5332">«example.nodes.VCU.Hardware»</text><text fill="#000000" font-family="sans-serif" font-size="14" lengthAdjust="spacing" textLength="193" x="500.5" y="630.1426">vehicle_control_unit_hardware</text></g><!--MD5=[0f6058ad7f85b6b365d865a0de080ec0]
link cloud_service to cloud_provider--><g id="link_cloud_service_cloud_provider"><path d="M880.36,643.12 C880.72,669.6 881.27,710 881.63,736.58 " fill="none" id="cloud_service-cloud_provider" style="stroke:#181818;stroke-width:1.0;"/><text fill="#000000" font-family="sans-serif" font-size="13" lengthAdjust="spacing" textLength="25" x="889" y="696.4951">host</text><path d="M887.9693,682.646 A10,10 0 0 0 873.8285 682.8382" fill="none" style="stroke:#181818;stroke-width:1.5;"/><ellipse cx="880.995" cy="689.8125" fill="#FFFFFF" rx="6" ry="6" style="stroke:#181818;stroke-width:1.5;"/></g><!--MD5=[ad61562ec2460b4dc19674f295232248]
link vehicle_control_unit_software to vehicle_control_unit_hardware--><g id="link_vehicle_control_unit_software_vehicle_control_unit_hardware"><path d="M598.71,454.29 C598.33,489.84 597.67,552.23 597.29,587.76 " fill="none" id="vehicle_control_unit_software-vehicle_control_unit_hardware" style="stroke:#181818;stroke-width:1.0;"/><text fill="#000000" font-family="sans-serif" font-size="13" lengthAdjust="spacing" textLength="25" x="606" y="505.4951">host</text><path d="M605.1458,514.0369 A10,10 0 0 0 591.0044 513.8867" fill="none" style="stroke:#181818;stroke-width:1.5;"/><ellipse cx="598" cy="521.0325" fill="#FFFFFF" rx="6" ry="6" style="stroke:#181818;stroke-width:1.5;"/></g><!--MD5=[875f719f4b81c5b091b6b7c25bddd4bf]
link vehicle_control_unit_software to cloud_service--><g id="link_vehicle_control_unit_software_cloud_service"><path d="M710.62,444.32 C761,453.93 813.36,467.38 832,484 C862.09,510.83 873.35,558.19 877.54,587.88 " fill="none" id="vehicle_control_unit_software-cloud_service" style="stroke:#181818;stroke-width:1.0;"/><text fill="#000000" font-family="sans-serif" font-size="13" lengthAdjust="spacing" textLength="31" x="862" y="505.4951">cloud</text><path d="M831.4281,474.0164 A10,10 0 0 0 822.0164 484.5719" fill="none" style="stroke:#181818;stroke-width:1.5;"/><ellipse cx="832" cy="484" fill="#FFFFFF" rx="6" ry="6" style="stroke:#181818;stroke-width:1.5;"/></g><!--MD5=[89795c4e6007ef2ff2a349db59a86247]
link vehicle_control_unit_hardware to zone_a_ethernet--><g id="link_vehicle_control_unit_hardware_zone_a_ethernet"><path d="M558.32,587.95 C527.99,567.54 484.03,540.51 442,524 C387.25,502.49 368.9,501.98 310.5,509 C282.57,512.36 274.13,511.35 249,524 C216.83,540.2 185.81,567.4 164.96,587.95 " fill="none" id="vehicle_control_unit_hardware-zone_a_ethernet" style="stroke:#181818;stroke-width:1.0;"/><text fill="#000000" font-family="sans-serif" font-size="13" lengthAdjust="spacing" textLength="47" x="318.5" y="505.4951">ethernet</text><path d="M383.9243,513.5627 A10,10 0 0 0 385.3802 499.4957" fill="none" style="stroke:#181818;stroke-width:1.5;"/><ellipse cx="377.6188" cy="505.8013" fill="#FFFFFF" rx="6" ry="6" style="stroke:#181818;stroke-width:1.5;"/></g><!--MD5=[45065bec5f9b43eecdac202db6aa3e67]
link vehicle_control_unit_hardware to zone_b_ethernet--><g id="link_vehicle_control_unit_hardware_zone_b_ethernet"><path d="M627.39,587.82 C658.3,561.7 708.87,524.33 760.5,509 C812.76,493.48 943.73,499.64 1012,524 C1050.87,537.87 1088.91,566.28 1114.1,587.79 " fill="none" id="vehicle_control_unit_hardware-zone_b_ethernet" style="stroke:#181818;stroke-width:1.0;"/><text fill="#000000" font-family="sans-serif" font-size="13" lengthAdjust="spacing" textLength="47" x="768.5" y="505.4951">ethernet</text><path d="M873.5766,494.0941 A10,10 0 0 0 872.7954 508.2147" fill="none" style="stroke:#181818;stroke-width:1.5;"/><ellipse cx="880.2463" cy="501.545" fill="#FFFFFF" rx="6" ry="6" style="stroke:#181818;stroke-width:1.5;"/></g><!--MD5=[1058c74b3482e062112632f74dbcd05e]
link zone_a_control_unit_software to zone_a_control_unit_hardware--><g id="link_zone_a_control_unit_software_zone_a_control_unit_hardware"><path d="M239.71,265.29 C239.33,300.84 238.67,363.23 238.29,398.76 " fill="none" id="zone_a_control_unit_software-zone_a_control_unit_hardware" style="stroke:#181818;stroke-width:1.0;"/><text fill="#000000" font-family="sans-serif" font-size="13" lengthAdjust="spacing" textLength="25" x="248" y="316.4951">host</text><path d="M246.1458,325.0369 A10,10 0 0 0 232.0044 324.8867" fill="none" style="stroke:#181818;stroke-width:1.5;"/><ellipse cx="239" cy="332.0325" fill="#FFFFFF" rx="6" ry="6" style="stroke:#181818;stroke-width:1.5;"/></g><!--MD5=[322310b2ab80abcc3c718d6ea0533de9]
link zone_a_control_unit_software to vehicle_control_unit_software--><g id="link_zone_a_control_unit_software_vehicle_control_unit_software"><path d="M351.61,263.04 C379.34,271.28 408.44,281.81 434,295 C487.88,322.8 541.26,369.42 572.14,398.76 " fill="none" id="zone_a_control_unit_software-vehicle_control_unit_software" style="stroke:#181818;stroke-width:1.0;"/><text fill="#000000" font-family="sans-serif" font-size="13" lengthAdjust="spacing" textLength="19" x="492" y="316.4951">vcu</text><path d="M430.9589,285.4736 A10,10 0 0 0 424.4736 298.0411" fill="none" style="stroke:#181818;stroke-width:1.5;"/><ellipse cx="434" cy="295" fill="#FFFFFF" rx="6" ry="6" style="stroke:#181818;stroke-width:1.5;"/></g><!--MD5=[fbd5f5759b6eb62e94c0653ded2a6c9f]
link zone_a_control_unit_hardware to zone_a_ethernet--><g id="link_zone_a_control_unit_hardware_zone_a_ethernet"><path d="M186.36,454.01 C175.02,462.15 164.25,472.16 157,484 C137.53,515.79 135.56,560.01 136.69,587.93 " fill="none" id="zone_a_control_unit_hardware-zone_a_ethernet" style="stroke:#181818;stroke-width:1.0;"/><text fill="#000000" font-family="sans-serif" font-size="13" lengthAdjust="spacing" textLength="47" x="165" y="505.4951">ethernet</text><path d="M147.164,531.4754 A10,10 0 0 0 133.1791 529.3722" fill="none" style="stroke:#181818;stroke-width:1.5;"/><ellipse cx="139.12" cy="537.4163" fill="#FFFFFF" rx="6" ry="6" style="stroke:#181818;stroke-width:1.5;"/></g><!--MD5=[cf1af38d5006b89f5789a90f8c20f264]
link zone_a_control_unit_hardware to zone_a_can_bus--><g id="link_zone_a_control_unit_hardware_zone_a_can_bus"><path d="M243.24,454.12 C247.5,472.27 254.52,496.46 265,516 C279.33,542.73 301.52,569.06 319.06,587.76 " fill="none" id="zone_a_control_unit_hardware-zone_a_can_bus" style="stroke:#181818;stroke-width:1.0;"/><text fill="#000000" font-family="sans-serif" font-size="13" lengthAdjust="spacing" textLength="21" x="273" y="505.4951">can</text><path d="M267.8893,506.4265 A10,10 0 0 0 255.4265 513.1107" fill="none" style="stroke:#181818;stroke-width:1.5;"/><ellipse cx="265" cy="516" fill="#FFFFFF" rx="6" ry="6" style="stroke:#181818;stroke-width:1.5;"/></g><!--MD5=[d8464d2a023b0981ca6165e53f2e31f6]
link zone_a_actuator to zone_a_can_bus--><g id="link_zone_a_actuator_zone_a_can_bus"><path d="M342.56,118.3 C351.37,142.01 363.35,177.73 369,210 C392.46,344.07 404.12,381.87 381,516 C376.65,541.22 366.48,568.54 358.21,587.99 " fill="none" id="zone_a_actuator-zone_a_can_bus" style="stroke:#181818;stroke-width:1.0;"/><text fill="#000000" font-family="sans-serif" font-size="13" lengthAdjust="spacing" textLength="21" x="397" y="316.4951">can</text><path d="M399.0364,355.4376 A10,10 0 0 0 384.9276 356.4086" fill="none" style="stroke:#181818;stroke-width:1.5;"/><ellipse cx="392.4675" cy="362.9775" fill="#FFFFFF" rx="6" ry="6" style="stroke:#181818;stroke-width:1.5;"/></g><!--MD5=[8fb2fa3a5a0aa28d551da929c492d6b1]
link zone_a_actuator to zone_a_control_unit_software--><g id="link_zone_a_actuator_zone_a_control_unit_software"><path d="M315.13,118.1 C298.63,144.09 273.64,183.47 257.08,209.58 " fill="none" id="zone_a_actuator-zone_a_control_unit_software" style="stroke:#181818;stroke-width:1.0;"/><text fill="#000000" font-family="sans-serif" font-size="13" lengthAdjust="spacing" textLength="21" x="303" y="169.4951">zcu</text><path d="M295.8866,161.6132 A10,10 0 0 0 283.9457 154.0359" fill="none" style="stroke:#181818;stroke-width:1.5;"/><ellipse cx="286.1275" cy="163.795" fill="#FFFFFF" rx="6" ry="6" style="stroke:#181818;stroke-width:1.5;"/></g><!--MD5=[2a52968c819680d57e8efa5ec9530373]
link zone_a_sensor to zone_a_can_bus--><g id="link_zone_a_sensor_zone_a_can_bus"><path d="M107.99,118.36 C97.62,179.14 77.08,331.48 106,454 C113.08,483.98 111.39,498.87 137,516 C157.56,529.75 225.31,514.17 248,524 C279.88,537.81 308.04,566.51 325.9,587.9 " fill="none" id="zone_a_sensor-zone_a_can_bus" style="stroke:#181818;stroke-width:1.0;"/><text fill="#000000" font-family="sans-serif" font-size="13" lengthAdjust="spacing" textLength="21" x="100" y="316.4951">can</text><path d="M111.2575,445.4936 A10,10 0 0 0 97.4936 448.7425" fill="none" style="stroke:#181818;stroke-width:1.5;"/><ellipse cx="106" cy="454" fill="#FFFFFF" rx="6" ry="6" style="stroke:#181818;stroke-width:1.5;"/></g><!--MD5=[7f25a32e00d81ab5ed2719422a031f6f]
link zone_a_sensor to zone_a_control_unit_software--><g id="link_zone_a_sensor_zone_a_control_unit_software"><path d="M136.29,118.1 C159.07,144.09 193.56,183.47 216.42,209.58 " fill="none" id="zone_a_sensor-zone_a_control_unit_software" style="stroke:#181818;stroke-width:1.0;"/><text fill="#000000" font-family="sans-serif" font-size="13" lengthAdjust="spacing" textLength="21" x="196" y="169.4951">zcu</text><path d="M176.9851,153.8168 A10,10 0 0 0 166.3468 163.1349" fill="none" style="stroke:#181818;stroke-width:1.5;"/><ellipse cx="176.325" cy="163.795" fill="#FFFFFF" rx="6" ry="6" style="stroke:#181818;stroke-width:1.5;"/></g><!--MD5=[fe65f3e2150463e5c3ecef56dbd059b2]
link zone_b_control_unit_software to zone_b_control_unit_hardware--><g id="link_zone_b_control_unit_software_zone_b_control_unit_hardware"><path d="M1165.29,265.29 C1165.67,300.84 1166.33,363.23 1166.71,398.76 " fill="none" id="zone_b_control_unit_software-zone_b_control_unit_hardware" style="stroke:#181818;stroke-width:1.0;"/><text fill="#000000" font-family="sans-serif" font-size="13" lengthAdjust="spacing" textLength="25" x="1173" y="316.4951">host</text><path d="M1172.9956,324.8867 A10,10 0 0 0 1158.8542 325.0369" fill="none" style="stroke:#181818;stroke-width:1.5;"/><ellipse cx="1166" cy="332.0325" fill="#FFFFFF" rx="6" ry="6" style="stroke:#181818;stroke-width:1.5;"/></g><!--MD5=[a80203f37728b755a81f5254844adbe2]
link zone_b_control_unit_software to vehicle_control_unit_software--><g id="link_zone_b_control_unit_software_vehicle_control_unit_software"><path d="M1084.51,265.09 C976.77,300.69 786.81,363.45 679.22,399 " fill="none" id="zone_b_control_unit_software-vehicle_control_unit_software" style="stroke:#181818;stroke-width:1.0;"/><text fill="#000000" font-family="sans-serif" font-size="13" lengthAdjust="spacing" textLength="19" x="989" y="316.4951">vcu</text><path d="M890.7412,336.5595 A10,10 0 0 0 886.3045 323.1313" fill="none" style="stroke:#181818;stroke-width:1.5;"/><ellipse cx="881.8087" cy="332.0638" fill="#FFFFFF" rx="6" ry="6" style="stroke:#181818;stroke-width:1.5;"/></g><!--MD5=[d75340098e51e783a6d1aea767f5b547]
link zone_b_control_unit_hardware to zone_b_ethernet--><g id="link_zone_b_control_unit_hardware_zone_b_ethernet"><path d="M1160.63,454.1 C1158.57,463.5 1156.45,474.18 1155,484 C1149.72,519.76 1146.75,561.44 1145.27,587.89 " fill="none" id="zone_b_control_unit_hardware-zone_b_ethernet" style="stroke:#181818;stroke-width:1.0;"/><text fill="#000000" font-family="sans-serif" font-size="13" lengthAdjust="spacing" textLength="47" x="1163" y="505.4951">ethernet</text><path d="M1156.3689,533.0065 A10,10 0 0 0 1142.2803 531.7774" fill="none" style="stroke:#181818;stroke-width:1.5;"/><ellipse cx="1148.71" cy="539.4363" fill="#FFFFFF" rx="6" ry="6" style="stroke:#181818;stroke-width:1.5;"/></g><!--MD5=[1bd1592af963a235d51067cf9b6a3ca5]
link zone_b_control_unit_hardware to zone_b_can_bus--><g id="link_zone_b_control_unit_hardware_zone_b_can_bus"><path d="M1193.36,454.29 C1228.34,489.84 1289.73,552.23 1324.69,587.76 " fill="none" id="zone_b_control_unit_hardware-zone_b_can_bus" style="stroke:#181818;stroke-width:1.0;"/><text fill="#000000" font-family="sans-serif" font-size="13" lengthAdjust="spacing" textLength="21" x="1261" y="505.4951">can</text><path d="M1259.1133,511.0328 A10,10 0 0 0 1249.0328 520.9517" fill="none" style="stroke:#181818;stroke-width:1.5;"/><ellipse cx="1259.0325" cy="521.0325" fill="#FFFFFF" rx="6" ry="6" style="stroke:#181818;stroke-width:1.5;"/></g><!--MD5=[f5b1ea1665c5e108a978dbf6a431a878]
link zone_b_actuator to zone_b_can_bus--><g id="link_zone_b_actuator_zone_b_can_bus"><path d="M1361.35,118.17 C1361.83,157.05 1362.69,231.58 1363,295 C1363.07,309.22 1363.3,312.78 1363,327 C1360.99,423.15 1355.22,537.26 1352.48,587.95 " fill="none" id="zone_b_actuator-zone_b_can_bus" style="stroke:#181818;stroke-width:1.0;"/><text fill="#000000" font-family="sans-serif" font-size="13" lengthAdjust="spacing" textLength="21" x="1371" y="316.4951">can</text><path d="M1370.2186,320.0797 A10,10 0 0 0 1356.0797 319.7814" fill="none" style="stroke:#181818;stroke-width:1.5;"/><ellipse cx="1363" cy="327" fill="#FFFFFF" rx="6" ry="6" style="stroke:#181818;stroke-width:1.5;"/></g><!--MD5=[6b96cd73a25c8bcde2ab5aaae21dae94]
link zone_b_actuator to zone_b_control_unit_software--><g id="link_zone_b_actuator_zone_b_control_unit_software"><path d="M1325.05,118.1 C1289.8,144.18 1236.34,183.72 1201.05,209.83 " fill="none" id="zone_b_actuator-zone_b_control_unit_software" style="stroke:#181818;stroke-width:1.0;"/><text fill="#000000" font-family="sans-serif" font-size="13" lengthAdjust="spacing" textLength="21" x="1288" y="169.4951">zcu</text><path d="M1272.9549,165.4334 A10,10 0 0 0 1264.5447 154.0638" fill="none" style="stroke:#181818;stroke-width:1.5;"/><ellipse cx="1263.065" cy="163.9538" fill="#FFFFFF" rx="6" ry="6" style="stroke:#181818;stroke-width:1.5;"/></g><!--MD5=[38dc29039c84e132802c644bde5826ab]
link zone_b_sensor to zone_b_can_bus--><g id="link_zone_b_sensor_zone_b_can_bus"><path d="M1194.01,118.12 C1228.21,138.49 1270.8,169.88 1294,210 C1303.54,226.5 1337.26,500.59 1347.82,587.97 " fill="none" id="zone_b_sensor-zone_b_can_bus" style="stroke:#181818;stroke-width:1.0;"/><text fill="#000000" font-family="sans-serif" font-size="13" lengthAdjust="spacing" textLength="21" x="1322" y="316.4951">can</text><path d="M1326.5948,364.4559 A10,10 0 0 0 1312.5784 366.3377" fill="none" style="stroke:#181818;stroke-width:1.5;"/><ellipse cx="1320.5275" cy="372.405" fill="#FFFFFF" rx="6" ry="6" style="stroke:#181818;stroke-width:1.5;"/></g><!--MD5=[cd515bacb442a5a2d626fd4e3c8346e9]
link zone_b_sensor to zone_b_control_unit_software--><g id="link_zone_b_sensor_zone_b_control_unit_software"><path d="M1146.22,118.1 C1150.34,144.09 1156.59,183.47 1160.73,209.58 " fill="none" id="zone_b_sensor-zone_b_control_unit_software" style="stroke:#181818;stroke-width:1.0;"/><text fill="#000000" font-family="sans-serif" font-size="13" lengthAdjust="spacing" textLength="21" x="1163" y="169.4951">zcu</text><path d="M1159.3433,155.7033 A10,10 0 0 0 1145.3758 157.9192" fill="none" style="stroke:#181818;stroke-width:1.5;"/><ellipse cx="1153.4675" cy="163.795" fill="#FFFFFF" rx="6" ry="6" style="stroke:#181818;stroke-width:1.5;"/></g><!--MD5=[fd84c394a3ff6a3b1a6f963e65d60715]
@startuml
skinparam componentStyle rectangle

rectangle "cloud" {
    [cloud_service] <<example.nodes.Cloud.Service>>
    [cloud_provider] <<example.nodes.Cloud.Provider>>
}
rectangle "zone_a" {
    [zone_a_control_unit_software] <<example.nodes.ZCU.Software>>
    [zone_a_control_unit_hardware] <<example.nodes.ZCU.Hardware>>
    [zone_a_ethernet] <<sofdcar.nodes.Ethernet>>
    [zone_a_can_bus] <<sofdcar.nodes.CAN>>
    [zone_a_actuator] <<example.nodes.Actuator>>
    [zone_a_sensor] <<example.nodes.Sensor>>
}
rectangle "zone_b" {
    [zone_b_control_unit_software] <<example.nodes.ZCU.Software>>
    [zone_b_control_unit_hardware] <<example.nodes.ZCU.Hardware>>
    [zone_b_ethernet] <<sofdcar.nodes.Ethernet>>
    [zone_b_can_bus] <<sofdcar.nodes.CAN>>
    [zone_b_actuator] <<example.nodes.Actuator>>
    [zone_b_sensor] <<example.nodes.Sensor>>
}
rectangle "zone_c" {
    [vehicle_control_unit_software] <<example.nodes.VCU.Software>>
    [vehicle_control_unit_hardware] <<example.nodes.VCU.Hardware>>
}


cloud_service -(0- cloud_provider : host
vehicle_control_unit_software -(0- vehicle_control_unit_hardware : host
vehicle_control_unit_software -(0- cloud_service : cloud
vehicle_control_unit_hardware -(0- zone_a_ethernet : ethernet
vehicle_control_unit_hardware -(0- zone_b_ethernet : ethernet
zone_a_control_unit_software -(0- zone_a_control_unit_hardware : host
zone_a_control_unit_software -(0- vehicle_control_unit_software : vcu
zone_a_control_unit_hardware -(0- zone_a_ethernet : ethernet
zone_a_control_unit_hardware -(0- zone_a_can_bus : can
zone_a_actuator -(0- zone_a_can_bus : can
zone_a_actuator -(0- zone_a_control_unit_software : zcu
zone_a_sensor -(0- zone_a_can_bus : can
zone_a_sensor -(0- zone_a_control_unit_software : zcu
zone_b_control_unit_software -(0- zone_b_control_unit_hardware : host
zone_b_control_unit_software -(0- vehicle_control_unit_software : vcu
zone_b_control_unit_hardware -(0- zone_b_ethernet : ethernet
zone_b_control_unit_hardware -(0- zone_b_can_bus : can
zone_b_actuator -(0- zone_b_can_bus : can
zone_b_actuator -(0- zone_b_control_unit_software : zcu
zone_b_sensor -(0- zone_b_can_bus : can
zone_b_sensor -(0- zone_b_control_unit_software : zcu

@enduml

PlantUML version 1.2022.12(Sun Oct 23 20:12:26 CEST 2022)
(GPL source distribution)
Java Runtime: Java(TM) SE Runtime Environment
JVM: Java HotSpot(TM) 64-Bit Server VM
Default Encoding: Cp1252
Language: en
Country: US
--></g></svg>