<svg xmlns="http://www.w3.org/2000/svg" xmlns:xlink="http://www.w3.org/1999/xlink" contentStyleType="text/css" height="241px" preserveAspectRatio="none" style="width:768px;height:241px;background:#FFFFFF;" version="1.1" viewBox="0 0 768 241" width="768px" zoomAndPan="magnify"><defs/><g><!--entity artifact--><g id="elem_artifact"><rect fill="#F1F1F1" height="36.2969" rx="2.5" ry="2.5" style="stroke:#181818;stroke-width:0.5;" width="66" x="363.5" y="103"/><text fill="#000000" font-family="sans-serif" font-size="14" lengthAdjust="spacing" textLength="46" x="373.5" y="125.9951">artifact</text></g><!--entity source.archive--><g id="elem_source.archive"><rect fill="#F1F1F1" height="36.2969" rx="2.5" ry="2.5" style="stroke:#181818;stroke-width:0.5;" width="121" x="7" y="199"/><text fill="#000000" font-family="sans-serif" font-size="14" lengthAdjust="spacing" textLength="101" x="17" y="221.9951">source.archive</text></g><!--entity system.package--><g id="elem_system.package"><rect fill="#F1F1F1" height="36.2969" rx="2.5" ry="2.5" style="stroke:#181818;stroke-width:0.5;" width="133" x="163" y="199"/><text fill="#000000" font-family="sans-serif" font-size="14" lengthAdjust="spacing" textLength="113" x="173" y="221.9951">system.package</text></g><!--entity container.image--><g id="elem_container.image"><rect fill="#F1F1F1" height="36.2969" rx="2.5" ry="2.5" style="stroke:#181818;stroke-width:0.5;" width="131" x="331" y="199"/><text fill="#000000" font-family="sans-serif" font-size="14" lengthAdjust="spacing" textLength="111" x="341" y="221.9951">container.image</text></g><!--entity machine.image--><g id="elem_machine.image"><rect fill="#F1F1F1" height="36.2969" rx="2.5" ry="2.5" style="stroke:#181818;stroke-width:0.5;" width="125" x="497" y="199"/><text fill="#000000" font-family="sans-serif" font-size="14" lengthAdjust="spacing" textLength="105" x="507" y="221.9951">machine.image</text></g><!--entity dbms.image--><g id="elem_dbms.image"><rect fill="#F1F1F1" height="36.2969" rx="2.5" ry="2.5" style="stroke:#181818;stroke-width:0.5;" width="105" x="657" y="199"/><text fill="#000000" font-family="sans-serif" font-size="14" lengthAdjust="spacing" textLength="85" x="667" y="221.9951">dbms.image</text></g><!--entity tosca.artifacts.Root--><g id="elem_tosca.artifacts.Root"><ellipse cx="396.5" cy="14" fill="#F1F1F1" rx="8" ry="8" style="stroke:#181818;stroke-width:0.5;"/><text fill="#000000" font-family="sans-serif" font-size="14" lengthAdjust="spacing" textLength="133" x="330" y="43.9951">tosca.artifacts.Root</text></g><!--reverse link tosca.artifacts.Root to artifact--><g id="link_tosca.artifacts.Root_artifact"><path d="M396.5,43.42 C396.5,62.44 396.5,86.85 396.5,102.93 " fill="none" id="tosca.artifacts.Root-backto-artifact" style="stroke:#181818;stroke-width:1.0;"/><polygon fill="none" points="389.5,43.24,396.5,23.24,403.5,43.24,389.5,43.24" style="stroke:#181818;stroke-width:1.0;"/></g><!--reverse link artifact to source.archive--><g id="link_artifact_source.archive"><path d="M344.2,136.94 C285.09,153.83 189.07,181.27 127.11,198.97 " fill="none" id="artifact-backto-source.archive" style="stroke:#181818;stroke-width:1.0;"/><polygon fill="none" points="342.29,130.21,363.45,131.44,346.14,143.67,342.29,130.21" style="stroke:#181818;stroke-width:1.0;"/></g><!--reverse link artifact to system.package--><g id="link_artifact_system.package"><path d="M348.64,148.94 C320.03,165.04 284.57,185 259.8,198.95 " fill="none" id="artifact-backto-system.package" style="stroke:#181818;stroke-width:1.0;"/><polygon fill="none" points="345.4,142.73,366.26,139.02,352.26,154.93,345.4,142.73" style="stroke:#181818;stroke-width:1.0;"/></g><!--reverse link artifact to container.image--><g id="link_artifact_container.image"><path d="M396.5,159.62 C396.5,173.21 396.5,187.89 396.5,198.87 " fill="none" id="artifact-backto-container.image" style="stroke:#181818;stroke-width:1.0;"/><polygon fill="none" points="389.5,159.24,396.5,139.24,403.5,159.24,389.5,159.24" style="stroke:#181818;stroke-width:1.0;"/></g><!--reverse link artifact to machine.image--><g id="link_artifact_machine.image"><path d="M443.62,149.17 C471.46,165.23 505.87,185.07 529.93,198.95 " fill="none" id="artifact-backto-machine.image" style="stroke:#181818;stroke-width:1.0;"/><polygon fill="none" points="439.85,155.08,426.02,139.02,446.84,142.95,439.85,155.08" style="stroke:#181818;stroke-width:1.0;"/></g><!--reverse link artifact to dbms.image--><g id="link_artifact_dbms.image"><path d="M448.94,137.75 C506.72,155.1 599.11,182.85 656.94,200.22 " fill="none" id="artifact-backto-dbms.image" style="stroke:#181818;stroke-width:1.0;"/><polygon fill="none" points="446.84,144.43,429.7,131.97,450.87,131.02,446.84,144.43" style="stroke:#181818;stroke-width:1.0;"/></g><!--SRC=[ROz13i8m30JlUKMKU_C2NW4lCCQKg8qT9GQf4e-d1oWqvcRjZApTDYKkK25xb5o4YVMaoqo-4YhmE9DpRhjzWAhf2gXXbpQvLwG85M_fGHrRcbAE1N22iMCeh92OQapPm0phDwP_w7BERSjTK6a8yLEjnQE81dzu3iEkyFT-CrFR6drvOzW9Hkc76E5tpWi0]--></g></svg>