<svg xmlns="http://www.w3.org/2000/svg" xmlns:xlink="http://www.w3.org/1999/xlink" contentStyleType="text/css" height="433px" preserveAspectRatio="none" style="width:1461px;height:433px;background:#FFFFFF;" version="1.1" viewBox="0 0 1461 433" width="1461px" zoomAndPan="magnify"><defs/><g><!--entity node--><g id="elem_node"><rect fill="#F1F1F1" height="36.2969" rx="2.5" ry="2.5" style="stroke:#181818;stroke-width:0.5;" width="56" x="675.5" y="103"/><text fill="#000000" font-family="sans-serif" font-size="14" lengthAdjust="spacing" textLength="36" x="685.5" y="125.9951">node</text></g><!--entity cloud.provider--><g id="elem_cloud.provider"><rect fill="#F1F1F1" height="36.2969" rx="2.5" ry="2.5" style="stroke:#181818;stroke-width:0.5;" width="118" x="108.5" y="199"/><text fill="#000000" font-family="sans-serif" font-size="14" lengthAdjust="spacing" textLength="98" x="118.5" y="221.9951">cloud.provider</text></g><!--entity cloud.service--><g id="elem_cloud.service"><rect fill="#F1F1F1" height="36.2969" rx="2.5" ry="2.5" style="stroke:#181818;stroke-width:0.5;" width="111" x="262" y="199"/><text fill="#000000" font-family="sans-serif" font-size="14" lengthAdjust="spacing" textLength="91" x="272" y="221.9951">cloud.service</text></g><!--entity software.application--><g id="elem_software.application"><rect fill="#F1F1F1" height="36.2969" rx="2.5" ry="2.5" style="stroke:#181818;stroke-width:0.5;" width="157" x="408" y="199"/><text fill="#000000" font-family="sans-serif" font-size="14" lengthAdjust="spacing" textLength="137" x="418" y="221.9951">software.application</text></g><!--entity service.application--><g id="elem_service.application"><rect fill="#F1F1F1" height="36.2969" rx="2.5" ry="2.5" style="stroke:#181818;stroke-width:0.5;" width="147" x="7" y="295"/><text fill="#000000" font-family="sans-serif" font-size="14" lengthAdjust="spacing" textLength="127" x="17" y="317.9951">service.application</text></g><!--entity software.runtime--><g id="elem_software.runtime"><rect fill="#F1F1F1" height="36.2969" rx="2.5" ry="2.5" style="stroke:#181818;stroke-width:0.5;" width="136" x="189.5" y="295"/><text fill="#000000" font-family="sans-serif" font-size="14" lengthAdjust="spacing" textLength="116" x="199.5" y="317.9951">software.runtime</text></g><!--entity container.runtime--><g id="elem_container.runtime"><rect fill="#F1F1F1" height="36.2969" rx="2.5" ry="2.5" style="stroke:#181818;stroke-width:0.5;" width="142" x="168.5" y="391"/><text fill="#000000" font-family="sans-serif" font-size="14" lengthAdjust="spacing" textLength="122" x="178.5" y="413.9951">container.runtime</text></g><!--entity machine--><g id="elem_machine"><rect fill="#F1F1F1" height="36.2969" rx="2.5" ry="2.5" style="stroke:#181818;stroke-width:0.5;" width="79" x="664" y="199"/><text fill="#000000" font-family="sans-serif" font-size="14" lengthAdjust="spacing" textLength="59" x="674" y="221.9951">machine</text></g><!--entity local.machine--><g id="elem_local.machine"><rect fill="#F1F1F1" height="36.2969" rx="2.5" ry="2.5" style="stroke:#181818;stroke-width:0.5;" width="114" x="552.5" y="295"/><text fill="#000000" font-family="sans-serif" font-size="14" lengthAdjust="spacing" textLength="94" x="562.5" y="317.9951">local.machine</text></g><!--entity remote.machine--><g id="elem_remote.machine"><rect fill="#F1F1F1" height="36.2969" rx="2.5" ry="2.5" style="stroke:#181818;stroke-width:0.5;" width="133" x="702" y="295"/><text fill="#000000" font-family="sans-serif" font-size="14" lengthAdjust="spacing" textLength="113" x="712" y="317.9951">remote.machine</text></g><!--entity virtual.machine--><g id="elem_virtual.machine"><rect fill="#F1F1F1" height="36.2969" rx="2.5" ry="2.5" style="stroke:#181818;stroke-width:0.5;" width="123" x="624" y="391"/><text fill="#000000" font-family="sans-serif" font-size="14" lengthAdjust="spacing" textLength="103" x="634" y="413.9951">virtual.machine</text></g><!--entity physical.machine--><g id="elem_physical.machine"><rect fill="#F1F1F1" height="36.2969" rx="2.5" ry="2.5" style="stroke:#181818;stroke-width:0.5;" width="138" x="782.5" y="391"/><text fill="#000000" font-family="sans-serif" font-size="14" lengthAdjust="spacing" textLength="118" x="792.5" y="413.9951">physical.machine</text></g><!--entity database--><g id="elem_database"><rect fill="#F1F1F1" height="36.2969" rx="2.5" ry="2.5" style="stroke:#181818;stroke-width:0.5;" width="84" x="841.5" y="199"/><text fill="#000000" font-family="sans-serif" font-size="14" lengthAdjust="spacing" textLength="64" x="851.5" y="221.9951">database</text></g><!--entity relational.database--><g id="elem_relational.database"><rect fill="#F1F1F1" height="36.2969" rx="2.5" ry="2.5" style="stroke:#181818;stroke-width:0.5;" width="150" x="870.5" y="295"/><text fill="#000000" font-family="sans-serif" font-size="14" lengthAdjust="spacing" textLength="130" x="880.5" y="317.9951">relational.database</text></g><!--entity dbms--><g id="elem_dbms"><rect fill="#F1F1F1" height="36.2969" rx="2.5" ry="2.5" style="stroke:#181818;stroke-width:0.5;" width="59" x="361" y="295"/><text fill="#000000" font-family="sans-serif" font-size="14" lengthAdjust="spacing" textLength="39" x="371" y="317.9951">dbms</text></g><!--entity relational.dbms--><g id="elem_relational.dbms"><rect fill="#F1F1F1" height="36.2969" rx="2.5" ry="2.5" style="stroke:#181818;stroke-width:0.5;" width="125" x="346" y="391"/><text fill="#000000" font-family="sans-serif" font-size="14" lengthAdjust="spacing" textLength="105" x="356" y="413.9951">relational.dbms</text></g><!--entity cache--><g id="elem_cache"><rect fill="#F1F1F1" height="36.2969" rx="2.5" ry="2.5" style="stroke:#181818;stroke-width:0.5;" width="62" x="455.5" y="295"/><text fill="#000000" font-family="sans-serif" font-size="14" lengthAdjust="spacing" textLength="42" x="465.5" y="317.9951">cache</text></g><!--entity storage--><g id="elem_storage"><rect fill="#F1F1F1" height="36.2969" rx="2.5" ry="2.5" style="stroke:#181818;stroke-width:0.5;" width="73" x="1076" y="199"/><text fill="#000000" font-family="sans-serif" font-size="14" lengthAdjust="spacing" textLength="53" x="1086" y="221.9951">storage</text></g><!--entity block.storage--><g id="elem_block.storage"><rect fill="#F1F1F1" height="36.2969" rx="2.5" ry="2.5" style="stroke:#181818;stroke-width:0.5;" width="114" x="1055.5" y="295"/><text fill="#000000" font-family="sans-serif" font-size="14" lengthAdjust="spacing" textLength="94" x="1065.5" y="317.9951">block.storage</text></g><!--entity object.storage--><g id="elem_object.storage"><rect fill="#F1F1F1" height="36.2969" rx="2.5" ry="2.5" style="stroke:#181818;stroke-width:0.5;" width="120" x="1204.5" y="295"/><text fill="#000000" font-family="sans-serif" font-size="14" lengthAdjust="spacing" textLength="100" x="1214.5" y="317.9951">object.storage</text></g><!--entity file.storage--><g id="elem_file.storage"><rect fill="#F1F1F1" height="36.2969" rx="2.5" ry="2.5" style="stroke:#181818;stroke-width:0.5;" width="96" x="1359.5" y="295"/><text fill="#000000" font-family="sans-serif" font-size="14" lengthAdjust="spacing" textLength="76" x="1369.5" y="317.9951">file.storage</text></g><!--entity ingress--><g id="elem_ingress"><rect fill="#F1F1F1" height="36.2969" rx="2.5" ry="2.5" style="stroke:#181818;stroke-width:0.5;" width="71" x="1184" y="199"/><text fill="#000000" font-family="sans-serif" font-size="14" lengthAdjust="spacing" textLength="51" x="1194" y="221.9951">ingress</text></g><!--entity tosca.nodes.Root--><g id="elem_tosca.nodes.Root"><ellipse cx="703.5" cy="14" fill="#F1F1F1" rx="8" ry="8" style="stroke:#181818;stroke-width:0.5;"/><text fill="#000000" font-family="sans-serif" font-size="14" lengthAdjust="spacing" textLength="123" x="642" y="43.9951">tosca.nodes.Root</text></g><!--reverse link tosca.nodes.Root to node--><g id="link_tosca.nodes.Root_node"><path d="M703.5,43.42 C703.5,62.44 703.5,86.85 703.5,102.93 " fill="none" id="tosca.nodes.Root-backto-node" style="stroke:#181818;stroke-width:1.0;"/><polygon fill="none" points="696.5,43.24,703.5,23.24,710.5,43.24,696.5,43.24" style="stroke:#181818;stroke-width:1.0;"/></g><!--reverse link node to cloud.provider--><g id="link_node_cloud.provider"><path d="M655.63,129.21 C571.99,141.98 393.93,169.99 244.5,199 C238.72,200.12 232.71,201.35 226.71,202.61 " fill="none" id="node-backto-cloud.provider" style="stroke:#181818;stroke-width:1.0;"/><polygon fill="none" points="654.64,122.28,675.47,126.19,656.75,136.12,654.64,122.28" style="stroke:#181818;stroke-width:1.0;"/></g><!--reverse link node to cloud.service--><g id="link_node_cloud.service"><path d="M655.77,133.62 C584.11,151.07 449.06,183.96 373.07,202.47 " fill="none" id="node-backto-cloud.service" style="stroke:#181818;stroke-width:1.0;"/><polygon fill="none" points="654.34,126.77,675.43,128.84,657.65,140.37,654.34,126.77" style="stroke:#181818;stroke-width:1.0;"/></g><!--reverse link node to software.application--><g id="link_node_software.application"><path d="M656.62,142.31 C617.6,159.21 562.69,183 525.91,198.93 " fill="none" id="node-backto-software.application" style="stroke:#181818;stroke-width:1.0;"/><polygon fill="none" points="654,135.82,675.13,134.29,659.56,148.66,654,135.82" style="stroke:#181818;stroke-width:1.0;"/></g><!--reverse link software.application to service.application--><g id="link_software.application_service.application"><path d="M393.26,239.59 C320.65,256.4 221.25,279.41 154.16,294.95 " fill="none" id="software.application-backto-service.application" style="stroke:#181818;stroke-width:1.0;"/><polygon fill="none" points="391.91,232.71,412.98,235.02,395.07,246.35,391.91,232.71" style="stroke:#181818;stroke-width:1.0;"/></g><!--reverse link software.application to software.runtime--><g id="link_software.application_software.runtime"><path d="M426.4,242.67 C386.31,259.13 334.63,280.34 299.05,294.95 " fill="none" id="software.application-backto-software.runtime" style="stroke:#181818;stroke-width:1.0;"/><polygon fill="none" points="423.87,236.14,445.03,235.02,429.19,249.09,423.87,236.14" style="stroke:#181818;stroke-width:1.0;"/></g><!--reverse link software.runtime to container.runtime--><g id="link_software.runtime_container.runtime"><path d="M250.39,351.13 C247.76,364.86 244.91,379.76 242.78,390.87 " fill="none" id="software.runtime-backto-container.runtime" style="stroke:#181818;stroke-width:1.0;"/><polygon fill="none" points="243.56,349.57,254.2,331.24,257.31,352.2,243.56,349.57" style="stroke:#181818;stroke-width:1.0;"/></g><!--reverse link node to machine--><g id="link_node_machine"><path d="M703.5,159.62 C703.5,173.21 703.5,187.89 703.5,198.87 " fill="none" id="node-backto-machine" style="stroke:#181818;stroke-width:1.0;"/><polygon fill="none" points="696.5,159.24,703.5,139.24,710.5,159.24,696.5,159.24" style="stroke:#181818;stroke-width:1.0;"/></g><!--reverse link machine to local.machine--><g id="link_machine_local.machine"><path d="M671.69,249.81 C656.61,264.89 639.19,282.31 626.63,294.87 " fill="none" id="machine-backto-local.machine" style="stroke:#181818;stroke-width:1.0;"/><polygon fill="none" points="667.17,244.43,686.26,235.24,677.07,254.33,667.17,244.43" style="stroke:#181818;stroke-width:1.0;"/></g><!--reverse link machine to remote.machine--><g id="link_machine_remote.machine"><path d="M726.82,251.73 C736.93,266.35 748.33,282.84 756.65,294.87 " fill="none" id="machine-backto-remote.machine" style="stroke:#181818;stroke-width:1.0;"/><polygon fill="none" points="721.04,255.67,715.42,235.24,732.55,247.71,721.04,255.67" style="stroke:#181818;stroke-width:1.0;"/></g><!--reverse link remote.machine to virtual.machine--><g id="link_remote.machine_virtual.machine"><path d="M739.99,346.29 C726.77,361.26 711.6,378.44 700.63,390.87 " fill="none" id="remote.machine-backto-virtual.machine" style="stroke:#181818;stroke-width:1.0;"/><polygon fill="none" points="734.79,341.6,753.28,331.24,745.29,350.87,734.79,341.6" style="stroke:#181818;stroke-width:1.0;"/></g><!--reverse link remote.machine to physical.machine--><g id="link_remote.machine_physical.machine"><path d="M797.01,346.29 C810.23,361.26 825.4,378.44 836.37,390.87 " fill="none" id="remote.machine-backto-physical.machine" style="stroke:#181818;stroke-width:1.0;"/><polygon fill="none" points="791.71,350.87,783.72,331.24,802.21,341.6,791.71,350.87" style="stroke:#181818;stroke-width:1.0;"/></g><!--reverse link node to database--><g id="link_node_database"><path d="M749.42,145.98 C781.06,162.5 822.34,184.06 850.69,198.87 " fill="none" id="node-backto-database" style="stroke:#181818;stroke-width:1.0;"/><polygon fill="none" points="746.11,152.15,731.62,136.69,752.59,139.74,746.11,152.15" style="stroke:#181818;stroke-width:1.0;"/></g><!--reverse link database to relational.database--><g id="link_database_relational.database"><path d="M906.06,252.21 C915.63,266.71 926.35,282.97 934.2,294.87 " fill="none" id="database-backto-relational.database" style="stroke:#181818;stroke-width:1.0;"/><polygon fill="none" points="900.04,255.79,894.87,235.24,911.73,248.08,900.04,255.79" style="stroke:#181818;stroke-width:1.0;"/></g><!--reverse link software.application to dbms--><g id="link_software.application_dbms"><path d="M454.5,249.33 C438.99,264.52 420.96,282.18 408,294.87 " fill="none" id="software.application-backto-dbms" style="stroke:#181818;stroke-width:1.0;"/><polygon fill="none" points="449.7,244.23,468.89,235.24,459.5,254.24,449.7,244.23" style="stroke:#181818;stroke-width:1.0;"/></g><!--reverse link dbms to relational.dbms--><g id="link_dbms_relational.dbms"><path d="M397.61,351.13 C400.24,364.86 403.09,379.76 405.22,390.87 " fill="none" id="dbms-backto-relational.dbms" style="stroke:#181818;stroke-width:1.0;"/><polygon fill="none" points="390.69,352.2,393.8,331.24,404.44,349.57,390.69,352.2" style="stroke:#181818;stroke-width:1.0;"/></g><!--reverse link software.application to cache--><g id="link_software.application_cache"><path d="M486.5,255.62 C486.5,269.21 486.5,283.89 486.5,294.87 " fill="none" id="software.application-backto-cache" style="stroke:#181818;stroke-width:1.0;"/><polygon fill="none" points="479.5,255.24,486.5,235.24,493.5,255.24,479.5,255.24" style="stroke:#181818;stroke-width:1.0;"/></g><!--reverse link node to storage--><g id="link_node_storage"><path d="M751.11,132.94 C833.67,151.92 1001.65,190.52 1075.86,207.58 " fill="none" id="node-backto-storage" style="stroke:#181818;stroke-width:1.0;"/><polygon fill="none" points="749.54,139.76,731.61,128.46,752.67,126.12,749.54,139.76" style="stroke:#181818;stroke-width:1.0;"/></g><!--reverse link storage to block.storage--><g id="link_storage_block.storage"><path d="M1112.5,255.62 C1112.5,269.21 1112.5,283.89 1112.5,294.87 " fill="none" id="storage-backto-block.storage" style="stroke:#181818;stroke-width:1.0;"/><polygon fill="none" points="1105.5,255.24,1112.5,235.24,1119.5,255.24,1105.5,255.24" style="stroke:#181818;stroke-width:1.0;"/></g><!--reverse link storage to object.storage--><g id="link_storage_object.storage"><path d="M1157.18,245.63 C1183.02,261.61 1214.7,281.2 1236.92,294.95 " fill="none" id="storage-backto-object.storage" style="stroke:#181818;stroke-width:1.0;"/><polygon fill="none" points="1153.35,251.5,1140.03,235.02,1160.72,239.59,1153.35,251.5" style="stroke:#181818;stroke-width:1.0;"/></g><!--reverse link storage to file.storage--><g id="link_storage_file.storage"><path d="M1168.57,235.87 C1223.8,253.46 1307.25,280.06 1359.5,296.7 " fill="none" id="storage-backto-file.storage" style="stroke:#181818;stroke-width:1.0;"/><polygon fill="none" points="1166.2,242.46,1149.27,229.72,1170.45,229.12,1166.2,242.46" style="stroke:#181818;stroke-width:1.0;"/></g><!--reverse link node to ingress--><g id="link_node_ingress"><path d="M751.8,127.68 C836.53,138.16 1017.12,162.83 1166.5,199 C1172.14,200.36 1178.04,202.02 1183.78,203.76 " fill="none" id="node-backto-ingress" style="stroke:#181818;stroke-width:1.0;"/><polygon fill="none" points="750.72,134.6,731.71,125.24,752.41,120.7,750.72,134.6" style="stroke:#181818;stroke-width:1.0;"/></g><!--SRC=[VP9HReCm343_EGNYlvnWfzXEO8BRParYb1YcIZtyw82m98Ql63_RCT4B3-q6y61hHNOWXuw_-6cmzgWOtCrWLLKnhXj7FJP9HXaQ-tRmDEaUlSG2-achh2tGbN_0Oml3OBG2rkIoYgNjf60RuKV7skPxaMFG3hsCBQZxJDEa8GMc5P57IumocxJdyQXnk3-3FXpR0qC7eRZC_Ftlt2KNz9qDnoq5LFFL-VipURXboMv-W4Sh8kg-vm-PNRL1cMXtynZUsrGDKr3GlWKAxISHD_N7wtA9IYtdcYka4kYkLG8Fn9BpMu-esdbBAL-Ps_OLL4nstjM8uKfo8tDUQ9bdrhfIqOD2GTTarNy-xd5SHjBsz1bNLvTJ6BFYin6RtAa5qSOOhYHtFEU5w7b1PdjoRVJz5m00]--></g></svg>