<svg xmlns="http://www.w3.org/2000/svg" xmlns:xlink="http://www.w3.org/1999/xlink" contentStyleType="text/css" height="241px" preserveAspectRatio="none" style="width:628px;height:241px;background:#FFFFFF;" version="1.1" viewBox="0 0 628 241" width="628px" zoomAndPan="magnify"><defs/><g><!--entity artifact--><g id="elem_artifact"><rect fill="#F1F1F1" height="36.2969" rx="2.5" ry="2.5" style="stroke:#181818;stroke-width:0.5;" width="66" x="279.5" y="103"/><text fill="#000000" font-family="sans-serif" font-size="14" lengthAdjust="spacing" textLength="46" x="289.5" y="125.9951">artifact</text></g><!--entity source.archive--><g id="elem_source.archive"><rect fill="#F1F1F1" height="36.2969" rx="2.5" ry="2.5" style="stroke:#181818;stroke-width:0.5;" width="121" x="7" y="199"/><text fill="#000000" font-family="sans-serif" font-size="14" lengthAdjust="spacing" textLength="101" x="17" y="221.9951">source.archive</text></g><!--entity system.package--><g id="elem_system.package"><rect fill="#F1F1F1" height="36.2969" rx="2.5" ry="2.5" style="stroke:#181818;stroke-width:0.5;" width="133" x="163" y="199"/><text fill="#000000" font-family="sans-serif" font-size="14" lengthAdjust="spacing" textLength="113" x="173" y="221.9951">system.package</text></g><!--entity container.image--><g id="elem_container.image"><rect fill="#F1F1F1" height="36.2969" rx="2.5" ry="2.5" style="stroke:#181818;stroke-width:0.5;" width="131" x="331" y="199"/><text fill="#000000" font-family="sans-serif" font-size="14" lengthAdjust="spacing" textLength="111" x="341" y="221.9951">container.image</text></g><!--entity machine.image--><g id="elem_machine.image"><rect fill="#F1F1F1" height="36.2969" rx="2.5" ry="2.5" style="stroke:#181818;stroke-width:0.5;" width="125" x="497" y="199"/><text fill="#000000" font-family="sans-serif" font-size="14" lengthAdjust="spacing" textLength="105" x="507" y="221.9951">machine.image</text></g><!--entity tosca.artifacts.Root--><g id="elem_tosca.artifacts.Root"><ellipse cx="312.5" cy="14" fill="#F1F1F1" rx="8" ry="8" style="stroke:#181818;stroke-width:0.5;"/><text fill="#000000" font-family="sans-serif" font-size="14" lengthAdjust="spacing" textLength="133" x="246" y="43.9951">tosca.artifacts.Root</text></g><!--reverse link tosca.artifacts.Root to artifact--><g id="link_tosca.artifacts.Root_artifact"><path d="M312.5,43.42 C312.5,62.44 312.5,86.85 312.5,102.93 " fill="none" id="tosca.artifacts.Root-backto-artifact" style="stroke:#181818;stroke-width:1.0;"/><polygon fill="none" points="305.5,43.24,312.5,23.24,319.5,43.24,305.5,43.24" style="stroke:#181818;stroke-width:1.0;"/></g><!--reverse link artifact to source.archive--><g id="link_artifact_source.archive"><path d="M260.64,141.9 C216.55,158.81 153.89,182.85 112.03,198.92 " fill="none" id="artifact-backto-source.archive" style="stroke:#181818;stroke-width:1.0;"/><polygon fill="none" points="258.28,135.31,279.46,134.68,263.29,148.38,258.28,135.31" style="stroke:#181818;stroke-width:1.0;"/></g><!--reverse link artifact to system.package--><g id="link_artifact_system.package"><path d="M283.99,154.29 C270.77,169.26 255.6,186.44 244.63,198.87 " fill="none" id="artifact-backto-system.package" style="stroke:#181818;stroke-width:1.0;"/><polygon fill="none" points="278.79,149.6,297.28,139.24,289.29,158.87,278.79,149.6" style="stroke:#181818;stroke-width:1.0;"/></g><!--reverse link artifact to container.image--><g id="link_artifact_container.image"><path d="M341.35,154.29 C354.73,169.26 370.09,186.44 381.19,198.87 " fill="none" id="artifact-backto-container.image" style="stroke:#181818;stroke-width:1.0;"/><polygon fill="none" points="336.01,158.82,327.91,139.24,346.45,149.49,336.01,158.82" style="stroke:#181818;stroke-width:1.0;"/></g><!--reverse link artifact to machine.image--><g id="link_artifact_machine.image"><path d="M364.5,141.79 C408.94,158.7 472.21,182.78 514.51,198.88 " fill="none" id="artifact-backto-machine.image" style="stroke:#181818;stroke-width:1.0;"/><polygon fill="none" points="361.76,148.24,345.56,134.58,366.74,135.15,361.76,148.24" style="stroke:#181818;stroke-width:1.0;"/></g><!--SRC=[POx12SCm34NldiBu7a_GATe9X51JarWoibe8TFZsqAJ4kdtq7kBrfN03XHfHQXCcjfjjAqKbDE1vfH32iMC2jN87j7IwTdagKWR5HtdHmBPkL7C3N60U60eR52RDfJfOuVkDwK0XcNI4l2VqV1Mn52_lQJg5_VUFkJnlZ97EyAbE6O8_]--></g></svg>