<svg xmlns="http://www.w3.org/2000/svg" xmlns:xlink="http://www.w3.org/1999/xlink" contentStyleType="text/css" height="433px" preserveAspectRatio="none" style="width:940px;height:433px;background:#FFFFFF;" version="1.1" viewBox="0 0 940 433" width="940px" zoomAndPan="magnify"><defs/><g><!--entity node--><g id="elem_node"><rect fill="#F1F1F1" height="36.2969" rx="2.5" ry="2.5" style="stroke:#181818;stroke-width:0.5;" width="56" x="433" y="103"/><text fill="#000000" font-family="sans-serif" font-size="14" lengthAdjust="spacing" textLength="36" x="443" y="125.9951">node</text></g><!--entity cloud.provider--><g id="elem_cloud.provider"><rect fill="#F1F1F1" height="36.2969" rx="2.5" ry="2.5" style="stroke:#181818;stroke-width:0.5;" width="118" x="7" y="199"/><text fill="#000000" font-family="sans-serif" font-size="14" lengthAdjust="spacing" textLength="98" x="17" y="221.9951">cloud.provider</text></g><!--entity cloud.service--><g id="elem_cloud.service"><rect fill="#F1F1F1" height="36.2969" rx="2.5" ry="2.5" style="stroke:#181818;stroke-width:0.5;" width="111" x="160.5" y="199"/><text fill="#000000" font-family="sans-serif" font-size="14" lengthAdjust="spacing" textLength="91" x="170.5" y="221.9951">cloud.service</text></g><!--entity software.application--><g id="elem_software.application"><rect fill="#F1F1F1" height="36.2969" rx="2.5" ry="2.5" style="stroke:#181818;stroke-width:0.5;" width="157" x="306.5" y="199"/><text fill="#000000" font-family="sans-serif" font-size="14" lengthAdjust="spacing" textLength="137" x="316.5" y="221.9951">software.application</text></g><!--entity service.application--><g id="elem_service.application"><rect fill="#F1F1F1" height="36.2969" rx="2.5" ry="2.5" style="stroke:#181818;stroke-width:0.5;" width="147" x="17.5" y="295"/><text fill="#000000" font-family="sans-serif" font-size="14" lengthAdjust="spacing" textLength="127" x="27.5" y="317.9951">service.application</text></g><!--entity software.runtime--><g id="elem_software.runtime"><rect fill="#F1F1F1" height="36.2969" rx="2.5" ry="2.5" style="stroke:#181818;stroke-width:0.5;" width="136" x="200" y="295"/><text fill="#000000" font-family="sans-serif" font-size="14" lengthAdjust="spacing" textLength="116" x="210" y="317.9951">software.runtime</text></g><!--entity container.runtime--><g id="elem_container.runtime"><rect fill="#F1F1F1" height="36.2969" rx="2.5" ry="2.5" style="stroke:#181818;stroke-width:0.5;" width="142" x="179" y="391"/><text fill="#000000" font-family="sans-serif" font-size="14" lengthAdjust="spacing" textLength="122" x="189" y="413.9951">container.runtime</text></g><!--entity machine--><g id="elem_machine"><rect fill="#F1F1F1" height="36.2969" rx="2.5" ry="2.5" style="stroke:#181818;stroke-width:0.5;" width="79" x="498.5" y="199"/><text fill="#000000" font-family="sans-serif" font-size="14" lengthAdjust="spacing" textLength="59" x="508.5" y="221.9951">machine</text></g><!--entity local.machine--><g id="elem_local.machine"><rect fill="#F1F1F1" height="36.2969" rx="2.5" ry="2.5" style="stroke:#181818;stroke-width:0.5;" width="114" x="466" y="295"/><text fill="#000000" font-family="sans-serif" font-size="14" lengthAdjust="spacing" textLength="94" x="476" y="317.9951">local.machine</text></g><!--entity remote.machine--><g id="elem_remote.machine"><rect fill="#F1F1F1" height="36.2969" rx="2.5" ry="2.5" style="stroke:#181818;stroke-width:0.5;" width="133" x="615.5" y="295"/><text fill="#000000" font-family="sans-serif" font-size="14" lengthAdjust="spacing" textLength="113" x="625.5" y="317.9951">remote.machine</text></g><!--entity virtual.machine--><g id="elem_virtual.machine"><rect fill="#F1F1F1" height="36.2969" rx="2.5" ry="2.5" style="stroke:#181818;stroke-width:0.5;" width="123" x="559.5" y="391"/><text fill="#000000" font-family="sans-serif" font-size="14" lengthAdjust="spacing" textLength="103" x="569.5" y="413.9951">virtual.machine</text></g><!--entity physical.machine--><g id="elem_physical.machine"><rect fill="#F1F1F1" height="36.2969" rx="2.5" ry="2.5" style="stroke:#181818;stroke-width:0.5;" width="138" x="718" y="391"/><text fill="#000000" font-family="sans-serif" font-size="14" lengthAdjust="spacing" textLength="118" x="728" y="413.9951">physical.machine</text></g><!--entity database--><g id="elem_database"><rect fill="#F1F1F1" height="36.2969" rx="2.5" ry="2.5" style="stroke:#181818;stroke-width:0.5;" width="84" x="613" y="199"/><text fill="#000000" font-family="sans-serif" font-size="14" lengthAdjust="spacing" textLength="64" x="623" y="221.9951">database</text></g><!--entity relational.database--><g id="elem_relational.database"><rect fill="#F1F1F1" height="36.2969" rx="2.5" ry="2.5" style="stroke:#181818;stroke-width:0.5;" width="150" x="784" y="295"/><text fill="#000000" font-family="sans-serif" font-size="14" lengthAdjust="spacing" textLength="130" x="794" y="317.9951">relational.database</text></g><!--entity dbms--><g id="elem_dbms"><rect fill="#F1F1F1" height="36.2969" rx="2.5" ry="2.5" style="stroke:#181818;stroke-width:0.5;" width="59" x="371.5" y="295"/><text fill="#000000" font-family="sans-serif" font-size="14" lengthAdjust="spacing" textLength="39" x="381.5" y="317.9951">dbms</text></g><!--entity relational.dbms--><g id="elem_relational.dbms"><rect fill="#F1F1F1" height="36.2969" rx="2.5" ry="2.5" style="stroke:#181818;stroke-width:0.5;" width="125" x="356.5" y="391"/><text fill="#000000" font-family="sans-serif" font-size="14" lengthAdjust="spacing" textLength="105" x="366.5" y="413.9951">relational.dbms</text></g><!--entity ingress--><g id="elem_ingress"><rect fill="#F1F1F1" height="36.2969" rx="2.5" ry="2.5" style="stroke:#181818;stroke-width:0.5;" width="71" x="732.5" y="199"/><text fill="#000000" font-family="sans-serif" font-size="14" lengthAdjust="spacing" textLength="51" x="742.5" y="221.9951">ingress</text></g><!--entity tosca.nodes.Root--><g id="elem_tosca.nodes.Root"><ellipse cx="461" cy="14" fill="#F1F1F1" rx="8" ry="8" style="stroke:#181818;stroke-width:0.5;"/><text fill="#000000" font-family="sans-serif" font-size="14" lengthAdjust="spacing" textLength="123" x="399.5" y="43.9951">tosca.nodes.Root</text></g><!--reverse link tosca.nodes.Root to node--><g id="link_tosca.nodes.Root_node"><path d="M461,43.42 C461,62.44 461,86.85 461,102.93 " fill="none" id="tosca.nodes.Root-backto-node" style="stroke:#181818;stroke-width:1.0;"/><polygon fill="none" points="454,43.24,461,23.24,468,43.24,454,43.24" style="stroke:#181818;stroke-width:1.0;"/></g><!--reverse link node to cloud.provider--><g id="link_node_cloud.provider"><path d="M413.08,133.4 C340.73,150.62 203.74,183.22 125.24,201.9 " fill="none" id="node-backto-cloud.provider" style="stroke:#181818;stroke-width:1.0;"/><polygon fill="none" points="411.83,126.51,432.91,128.68,415.07,140.12,411.83,126.51" style="stroke:#181818;stroke-width:1.0;"/></g><!--reverse link node to cloud.service--><g id="link_node_cloud.service"><path d="M413.98,140.04 C369.8,156.99 304.17,182.17 260.75,198.83 " fill="none" id="node-backto-cloud.service" style="stroke:#181818;stroke-width:1.0;"/><polygon fill="none" points="411.72,133.41,432.9,132.78,416.73,146.48,411.72,133.41" style="stroke:#181818;stroke-width:1.0;"/></g><!--reverse link node to software.application--><g id="link_node_software.application"><path d="M434.12,155.24 C422.2,169.98 408.69,186.71 398.85,198.87 " fill="none" id="node-backto-software.application" style="stroke:#181818;stroke-width:1.0;"/><polygon fill="none" points="429.04,150.39,447.06,139.24,439.93,159.19,429.04,150.39" style="stroke:#181818;stroke-width:1.0;"/></g><!--reverse link software.application to service.application--><g id="link_software.application_service.application"><path d="M312.37,241.22 C260.31,257.87 191.37,279.91 144.34,294.95 " fill="none" id="software.application-backto-service.application" style="stroke:#181818;stroke-width:1.0;"/><polygon fill="none" points="310.58,234.45,331.76,235.02,314.84,247.78,310.58,234.45" style="stroke:#181818;stroke-width:1.0;"/></g><!--reverse link software.application to software.runtime--><g id="link_software.application_software.runtime"><path d="M348.04,247.7 C328.73,263.21 305.79,281.64 289.43,294.79 " fill="none" id="software.application-backto-software.runtime" style="stroke:#181818;stroke-width:1.0;"/><polygon fill="none" points="343.84,242.09,363.81,235.02,352.61,253.01,343.84,242.09" style="stroke:#181818;stroke-width:1.0;"/></g><!--reverse link software.runtime to container.runtime--><g id="link_software.runtime_container.runtime"><path d="M260.89,351.13 C258.26,364.86 255.41,379.76 253.28,390.87 " fill="none" id="software.runtime-backto-container.runtime" style="stroke:#181818;stroke-width:1.0;"/><polygon fill="none" points="254.06,349.57,264.7,331.24,267.81,352.2,254.06,349.57" style="stroke:#181818;stroke-width:1.0;"/></g><!--reverse link node to machine--><g id="link_node_machine"><path d="M487.84,154.76 C500.01,169.62 513.89,186.57 523.97,198.87 " fill="none" id="node-backto-machine" style="stroke:#181818;stroke-width:1.0;"/><polygon fill="none" points="482.38,159.15,475.12,139.24,493.21,150.28,482.38,159.15" style="stroke:#181818;stroke-width:1.0;"/></g><!--reverse link machine to local.machine--><g id="link_machine_local.machine"><path d="M532.07,255.13 C529.88,268.86 527.51,283.76 525.73,294.87 " fill="none" id="machine-backto-local.machine" style="stroke:#181818;stroke-width:1.0;"/><polygon fill="none" points="525.18,253.89,535.25,235.24,539.01,256.09,525.18,253.89" style="stroke:#181818;stroke-width:1.0;"/></g><!--reverse link machine to remote.machine--><g id="link_machine_remote.machine"><path d="M580.99,246.06 C605.25,261.9 634.78,281.18 655.63,294.79 " fill="none" id="machine-backto-remote.machine" style="stroke:#181818;stroke-width:1.0;"/><polygon fill="none" points="577,251.82,564.08,235.02,584.65,240.09,577,251.82" style="stroke:#181818;stroke-width:1.0;"/></g><!--reverse link remote.machine to virtual.machine--><g id="link_remote.machine_virtual.machine"><path d="M659.8,348.21 C650.39,362.71 639.84,378.97 632.12,390.87 " fill="none" id="remote.machine-backto-virtual.machine" style="stroke:#181818;stroke-width:1.0;"/><polygon fill="none" points="654.05,344.21,670.81,331.24,665.8,351.83,654.05,344.21" style="stroke:#181818;stroke-width:1.0;"/></g><!--reverse link remote.machine to physical.machine--><g id="link_remote.machine_physical.machine"><path d="M716.21,344.62 C733.35,359.97 753.46,377.98 767.86,390.87 " fill="none" id="remote.machine-backto-physical.machine" style="stroke:#181818;stroke-width:1.0;"/><polygon fill="none" points="711.49,349.8,701.26,331.24,720.83,339.37,711.49,349.8" style="stroke:#181818;stroke-width:1.0;"/></g><!--reverse link node to database--><g id="link_node_database"><path d="M507.48,144.52 C542.01,161.25 588.38,183.72 619.85,198.97 " fill="none" id="node-backto-database" style="stroke:#181818;stroke-width:1.0;"/><polygon fill="none" points="504.16,150.69,489.21,135.67,510.26,138.09,504.16,150.69" style="stroke:#181818;stroke-width:1.0;"/></g><!--reverse link database to relational.database--><g id="link_database_relational.database"><path d="M710.5,243.57 C745.92,259.9 790.87,280.61 821.99,294.95 " fill="none" id="database-backto-relational.database" style="stroke:#181818;stroke-width:1.0;"/><polygon fill="none" points="707.18,249.75,691.94,235.02,713.04,237.04,707.18,249.75" style="stroke:#181818;stroke-width:1.0;"/></g><!--reverse link software.application to dbms--><g id="link_software.application_dbms"><path d="M391.32,255.13 C393.66,268.86 396.19,283.76 398.08,294.87 " fill="none" id="software.application-backto-dbms" style="stroke:#181818;stroke-width:1.0;"/><polygon fill="none" points="384.39,256.13,387.93,235.24,398.19,253.78,384.39,256.13" style="stroke:#181818;stroke-width:1.0;"/></g><!--reverse link dbms to relational.dbms--><g id="link_dbms_relational.dbms"><path d="M408.11,351.13 C410.74,364.86 413.59,379.76 415.72,390.87 " fill="none" id="dbms-backto-relational.dbms" style="stroke:#181818;stroke-width:1.0;"/><polygon fill="none" points="401.19,352.2,404.3,331.24,414.94,349.57,401.19,352.2" style="stroke:#181818;stroke-width:1.0;"/></g><!--reverse link node to ingress--><g id="link_node_ingress"><path d="M508.5,136.31 C559.37,151.67 642.46,176.85 714,199 C719.92,200.83 726.19,202.79 732.29,204.7 " fill="none" id="node-backto-ingress" style="stroke:#181818;stroke-width:1.0;"/><polygon fill="none" points="506.23,142.94,489.11,130.46,510.28,129.53,506.23,142.94" style="stroke:#181818;stroke-width:1.0;"/></g><!--SRC=[VL9RZeCm3Fpd58Z_SeAUOlS4Rl2sKPCuSWohIdlujikh98QlM3EUP60ctMs8mE1hGpvIm23Vyd1OCng1S7LOLTKorqsW3fiDOXprNHkP1jiXQrn27gp9P8b-v1SOMuZHMGDYAMGRe-nWORw2-o3Mvxue2DY0hDCUpEt5Ra571bohKeoU17Lki2pzdZ3U7idkNjk1m0LIyPZx_zwNIb_eBZxjImhIXYjZUeDL8vGCjEySK_j594rz_ZkTbcJ7SyAAR1LsJNT3xkIhuxD6JVnOKdQWn6Q_IYCsdjU4bd5YycBaVD6E79dsogRiB2gjsLZzgCKwBsQqzXp-ngaouwbSCz6V3fPEFG40]--></g></svg>