<svg xmlns="http://www.w3.org/2000/svg" xmlns:xlink="http://www.w3.org/1999/xlink" contentStyleType="text/css" height="241px" preserveAspectRatio="none" style="width:3628px;height:241px;background:#FFFFFF;" version="1.1" viewBox="0 0 3628 241" width="3628px" zoomAndPan="magnify"><defs/><g><!--entity nodejs.runtime--><g id="elem_nodejs.runtime"><rect fill="#F1F1F1" height="36.2969" rx="2.5" ry="2.5" style="stroke:#181818;stroke-width:0.5;" width="124" x="7" y="103"/><text fill="#000000" font-family="sans-serif" font-size="14" lengthAdjust="spacing" textLength="104" x="17" y="125.9951">nodejs.runtime</text></g><!--entity nodejs.service.component--><g id="elem_nodejs.service.component"><rect fill="#F1F1F1" height="36.2969" rx="2.5" ry="2.5" style="stroke:#181818;stroke-width:0.5;" width="204" x="623" y="103"/><text fill="#000000" font-family="sans-serif" font-size="14" lengthAdjust="spacing" textLength="184" x="633" y="125.9951">nodejs.service.component</text></g><!--entity reactjs.service.component--><g id="elem_reactjs.service.component"><rect fill="#F1F1F1" height="36.2969" rx="2.5" ry="2.5" style="stroke:#181818;stroke-width:0.5;" width="203" x="862.5" y="103"/><text fill="#000000" font-family="sans-serif" font-size="14" lengthAdjust="spacing" textLength="183" x="872.5" y="125.9951">reactjs.service.component</text></g><!--entity python.runtime--><g id="elem_python.runtime"><rect fill="#F1F1F1" height="36.2969" rx="2.5" ry="2.5" style="stroke:#181818;stroke-width:0.5;" width="125" x="166.5" y="103"/><text fill="#000000" font-family="sans-serif" font-size="14" lengthAdjust="spacing" textLength="105" x="176.5" y="125.9951">python.runtime</text></g><!--entity python.service.component--><g id="elem_python.service.component"><rect fill="#F1F1F1" height="36.2969" rx="2.5" ry="2.5" style="stroke:#181818;stroke-width:0.5;" width="205" x="1100.5" y="103"/><text fill="#000000" font-family="sans-serif" font-size="14" lengthAdjust="spacing" textLength="185" x="1110.5" y="125.9951">python.service.component</text></g><!--entity go.service.component--><g id="elem_go.service.component"><rect fill="#F1F1F1" height="36.2969" rx="2.5" ry="2.5" style="stroke:#181818;stroke-width:0.5;" width="175" x="1340.5" y="103"/><text fill="#000000" font-family="sans-serif" font-size="14" lengthAdjust="spacing" textLength="155" x="1350.5" y="125.9951">go.service.component</text></g><!--entity java.runtime--><g id="elem_java.runtime"><rect fill="#F1F1F1" height="36.2969" rx="2.5" ry="2.5" style="stroke:#181818;stroke-width:0.5;" width="103" x="326.5" y="103"/><text fill="#000000" font-family="sans-serif" font-size="14" lengthAdjust="spacing" textLength="83" x="336.5" y="125.9951">java.runtime</text></g><!--entity java.service.component--><g id="elem_java.service.component"><rect fill="#F1F1F1" height="36.2969" rx="2.5" ry="2.5" style="stroke:#181818;stroke-width:0.5;" width="183" x="1550.5" y="103"/><text fill="#000000" font-family="sans-serif" font-size="14" lengthAdjust="spacing" textLength="163" x="1560.5" y="125.9951">java.service.component</text></g><!--entity dotnet.runtime--><g id="elem_dotnet.runtime"><rect fill="#F1F1F1" height="36.2969" rx="2.5" ry="2.5" style="stroke:#181818;stroke-width:0.5;" width="123" x="464.5" y="103"/><text fill="#000000" font-family="sans-serif" font-size="14" lengthAdjust="spacing" textLength="103" x="474.5" y="125.9951">dotnet.runtime</text></g><!--entity csharp.service.component--><g id="elem_csharp.service.component"><rect fill="#F1F1F1" height="36.2969" rx="2.5" ry="2.5" style="stroke:#181818;stroke-width:0.5;" width="204" x="1769" y="103"/><text fill="#000000" font-family="sans-serif" font-size="14" lengthAdjust="spacing" textLength="184" x="1779" y="125.9951">csharp.service.component</text></g><!--entity binary.service.component--><g id="elem_binary.service.component"><rect fill="#F1F1F1" height="36.2969" rx="2.5" ry="2.5" style="stroke:#181818;stroke-width:0.5;" width="198" x="2008" y="103"/><text fill="#000000" font-family="sans-serif" font-size="14" lengthAdjust="spacing" textLength="178" x="2018" y="125.9951">binary.service.component</text></g><!--entity gcp.provider--><g id="elem_gcp.provider"><rect fill="#F1F1F1" height="36.2969" rx="2.5" ry="2.5" style="stroke:#181818;stroke-width:0.5;" width="106" x="2380" y="103"/><text fill="#000000" font-family="sans-serif" font-size="14" lengthAdjust="spacing" textLength="86" x="2390" y="125.9951">gcp.provider</text></g><!--entity gcp.service--><g id="elem_gcp.service"><rect fill="#F1F1F1" height="36.2969" rx="2.5" ry="2.5" style="stroke:#181818;stroke-width:0.5;" width="99" x="2709.5" y="103"/><text fill="#000000" font-family="sans-serif" font-size="14" lengthAdjust="spacing" textLength="79" x="2719.5" y="125.9951">gcp.service</text></g><!--entity gcp.cloudrun--><g id="elem_gcp.cloudrun"><rect fill="#F1F1F1" height="36.2969" rx="2.5" ry="2.5" style="stroke:#181818;stroke-width:0.5;" width="111" x="2121.5" y="199"/><text fill="#000000" font-family="sans-serif" font-size="14" lengthAdjust="spacing" textLength="91" x="2131.5" y="221.9951">gcp.cloudrun</text></g><!--entity gcp.cloudsql--><g id="elem_gcp.cloudsql"><rect fill="#F1F1F1" height="36.2969" rx="2.5" ry="2.5" style="stroke:#181818;stroke-width:0.5;" width="108" x="2268" y="199"/><text fill="#000000" font-family="sans-serif" font-size="14" lengthAdjust="spacing" textLength="88" x="2278" y="221.9951">gcp.cloudsql</text></g><!--entity gcp.appengine--><g id="elem_gcp.appengine"><rect fill="#F1F1F1" height="36.2969" rx="2.5" ry="2.5" style="stroke:#181818;stroke-width:0.5;" width="124" x="2411" y="199"/><text fill="#000000" font-family="sans-serif" font-size="14" lengthAdjust="spacing" textLength="104" x="2421" y="221.9951">gcp.appengine</text></g><!--entity gcp.appenginereporting--><g id="elem_gcp.appenginereporting"><rect fill="#F1F1F1" height="36.2969" rx="2.5" ry="2.5" style="stroke:#181818;stroke-width:0.5;" width="187" x="2570.5" y="199"/><text fill="#000000" font-family="sans-serif" font-size="14" lengthAdjust="spacing" textLength="167" x="2580.5" y="221.9951">gcp.appenginereporting</text></g><!--entity gcp.cloudbuild--><g id="elem_gcp.cloudbuild"><rect fill="#F1F1F1" height="36.2969" rx="2.5" ry="2.5" style="stroke:#181818;stroke-width:0.5;" width="121" x="2792.5" y="199"/><text fill="#000000" font-family="sans-serif" font-size="14" lengthAdjust="spacing" textLength="101" x="2802.5" y="221.9951">gcp.cloudbuild</text></g><!--entity gcp.kubernetesengine--><g id="elem_gcp.kubernetesengine"><rect fill="#F1F1F1" height="36.2969" rx="2.5" ry="2.5" style="stroke:#181818;stroke-width:0.5;" width="178" x="2949" y="199"/><text fill="#000000" font-family="sans-serif" font-size="14" lengthAdjust="spacing" textLength="158" x="2959" y="221.9951">gcp.kubernetesengine</text></g><!--entity gcp.cloudstorage--><g id="elem_gcp.cloudstorage"><rect fill="#F1F1F1" height="36.2969" rx="2.5" ry="2.5" style="stroke:#181818;stroke-width:0.5;" width="141" x="3162.5" y="199"/><text fill="#000000" font-family="sans-serif" font-size="14" lengthAdjust="spacing" textLength="121" x="3172.5" y="221.9951">gcp.cloudstorage</text></g><!--entity gcp.memorystore--><g id="elem_gcp.memorystore"><rect fill="#F1F1F1" height="36.2969" rx="2.5" ry="2.5" style="stroke:#181818;stroke-width:0.5;" width="142" x="3339" y="199"/><text fill="#000000" font-family="sans-serif" font-size="14" lengthAdjust="spacing" textLength="122" x="3349" y="221.9951">gcp.memorystore</text></g><!--entity docker.engine--><g id="elem_docker.engine"><rect fill="#F1F1F1" height="36.2969" rx="2.5" ry="2.5" style="stroke:#181818;stroke-width:0.5;" width="120" x="3030" y="103"/><text fill="#000000" font-family="sans-serif" font-size="14" lengthAdjust="spacing" textLength="100" x="3040" y="125.9951">docker.engine</text></g><!--entity kubernetes.cluster--><g id="elem_kubernetes.cluster"><rect fill="#F1F1F1" height="36.2969" rx="2.5" ry="2.5" style="stroke:#181818;stroke-width:0.5;" width="151" x="2843.5" y="103"/><text fill="#000000" font-family="sans-serif" font-size="14" lengthAdjust="spacing" textLength="131" x="2853.5" y="125.9951">kubernetes.cluster</text></g><!--entity openstack.provider--><g id="elem_openstack.provider"><rect fill="#F1F1F1" height="36.2969" rx="2.5" ry="2.5" style="stroke:#181818;stroke-width:0.5;" width="153" x="2521.5" y="103"/><text fill="#000000" font-family="sans-serif" font-size="14" lengthAdjust="spacing" textLength="133" x="2531.5" y="125.9951">openstack.provider</text></g><!--entity mysql.dbms--><g id="elem_mysql.dbms"><rect fill="#F1F1F1" height="36.2969" rx="2.5" ry="2.5" style="stroke:#181818;stroke-width:0.5;" width="103" x="3202.5" y="103"/><text fill="#000000" font-family="sans-serif" font-size="14" lengthAdjust="spacing" textLength="83" x="3212.5" y="125.9951">mysql.dbms</text></g><!--entity mysql.database--><g id="elem_mysql.database"><rect fill="#F1F1F1" height="36.2969" rx="2.5" ry="2.5" style="stroke:#181818;stroke-width:0.5;" width="128" x="3358" y="103"/><text fill="#000000" font-family="sans-serif" font-size="14" lengthAdjust="spacing" textLength="108" x="3368" y="125.9951">mysql.database</text></g><!--entity minio.server--><g id="elem_minio.server"><rect fill="#F1F1F1" height="36.2969" rx="2.5" ry="2.5" style="stroke:#181818;stroke-width:0.5;" width="104" x="2241" y="103"/><text fill="#000000" font-family="sans-serif" font-size="14" lengthAdjust="spacing" textLength="84" x="2251" y="125.9951">minio.server</text></g><!--entity redis.server--><g id="elem_redis.server"><rect fill="#F1F1F1" height="36.2969" rx="2.5" ry="2.5" style="stroke:#181818;stroke-width:0.5;" width="101" x="3521.5" y="103"/><text fill="#000000" font-family="sans-serif" font-size="14" lengthAdjust="spacing" textLength="81" x="3531.5" y="125.9951">redis.server</text></g><!--entity software.runtime--><g id="elem_software.runtime"><ellipse cx="304" cy="14" fill="#F1F1F1" rx="8" ry="8" style="stroke:#181818;stroke-width:0.5;"/><text fill="#000000" font-family="sans-serif" font-size="14" lengthAdjust="spacing" textLength="116" x="246" y="43.9951">software.runtime</text></g><!--entity service.component--><g id="elem_service.component"><ellipse cx="1535" cy="14" fill="#F1F1F1" rx="8" ry="8" style="stroke:#181818;stroke-width:0.5;"/><text fill="#000000" font-family="sans-serif" font-size="14" lengthAdjust="spacing" textLength="133" x="1468.5" y="43.9951">service.component</text></g><!--entity cloud.provider--><g id="elem_cloud.provider"><ellipse cx="2515" cy="14" fill="#F1F1F1" rx="8" ry="8" style="stroke:#181818;stroke-width:0.5;"/><text fill="#000000" font-family="sans-serif" font-size="14" lengthAdjust="spacing" textLength="98" x="2466" y="43.9951">cloud.provider</text></g><!--entity cloud.service--><g id="elem_cloud.service"><ellipse cx="2839" cy="14" fill="#F1F1F1" rx="8" ry="8" style="stroke:#181818;stroke-width:0.5;"/><text fill="#000000" font-family="sans-serif" font-size="14" lengthAdjust="spacing" textLength="91" x="2793.5" y="43.9951">cloud.service</text></g><!--entity container.runtime--><g id="elem_container.runtime"><ellipse cx="3090" cy="14" fill="#F1F1F1" rx="8" ry="8" style="stroke:#181818;stroke-width:0.5;"/><text fill="#000000" font-family="sans-serif" font-size="14" lengthAdjust="spacing" textLength="122" x="3029" y="43.9951">container.runtime</text></g><!--entity relational.dbms--><g id="elem_relational.dbms"><ellipse cx="3254" cy="14" fill="#F1F1F1" rx="8" ry="8" style="stroke:#181818;stroke-width:0.5;"/><text fill="#000000" font-family="sans-serif" font-size="14" lengthAdjust="spacing" textLength="105" x="3201.5" y="43.9951">relational.dbms</text></g><!--entity relational.database--><g id="elem_relational.database"><ellipse cx="3422" cy="14" fill="#F1F1F1" rx="8" ry="8" style="stroke:#181818;stroke-width:0.5;"/><text fill="#000000" font-family="sans-serif" font-size="14" lengthAdjust="spacing" textLength="130" x="3357" y="43.9951">relational.database</text></g><!--entity cache--><g id="elem_cache"><ellipse cx="3572" cy="14" fill="#F1F1F1" rx="8" ry="8" style="stroke:#181818;stroke-width:0.5;"/><text fill="#000000" font-family="sans-serif" font-size="14" lengthAdjust="spacing" textLength="42" x="3551" y="43.9951">cache</text></g><!--reverse link software.runtime to nodejs.runtime--><g id="link_software.runtime_nodejs.runtime"><path d="M276.25,27.4 C234.36,46.11 154.84,81.65 107.41,102.84 " fill="none" id="software.runtime-backto-nodejs.runtime" style="stroke:#181818;stroke-width:1.0;"/><polygon fill="none" points="273.67,20.88,294.79,19.12,279.38,33.67,273.67,20.88" style="stroke:#181818;stroke-width:1.0;"/></g><!--reverse link service.component to nodejs.service.component--><g id="link_service.component_nodejs.service.component"><path d="M1505.6,18.6 C1410.21,30.32 1100.71,68.58 845,103 C839.16,103.79 833.16,104.6 827.11,105.44 " fill="none" id="service.component-backto-nodejs.service.component" style="stroke:#181818;stroke-width:1.0;"/><polygon fill="none" points="1504.96,11.63,1525.66,16.14,1506.66,25.52,1504.96,11.63" style="stroke:#181818;stroke-width:1.0;"/></g><!--reverse link service.component to reactjs.service.component--><g id="link_service.component_reactjs.service.component"><path d="M1505.83,20.36 C1423.82,35.44 1188.63,78.69 1056.66,102.96 " fill="none" id="service.component-backto-reactjs.service.component" style="stroke:#181818;stroke-width:1.0;"/><polygon fill="none" points="1504.63,13.47,1525.57,16.73,1507.16,27.24,1504.63,13.47" style="stroke:#181818;stroke-width:1.0;"/></g><!--reverse link software.runtime to python.runtime--><g id="link_software.runtime_python.runtime"><path d="M286.36,39.69 C272.46,59.15 253.45,85.78 241.19,102.93 " fill="none" id="software.runtime-backto-python.runtime" style="stroke:#181818;stroke-width:1.0;"/><polygon fill="none" points="280.79,35.45,298.11,23.24,292.19,43.58,280.79,35.45" style="stroke:#181818;stroke-width:1.0;"/></g><!--reverse link service.component to python.service.component--><g id="link_service.component_python.service.component"><path d="M1506.52,24.01 C1451.1,41.53 1327.99,80.47 1256.75,103 " fill="none" id="service.component-backto-python.service.component" style="stroke:#181818;stroke-width:1.0;"/><polygon fill="none" points="1504.59,17.27,1525.77,17.92,1508.82,30.62,1504.59,17.27" style="stroke:#181818;stroke-width:1.0;"/></g><!--reverse link service.component to go.service.component--><g id="link_service.component_go.service.component"><path d="M1512.27,37.3 C1492.28,56.92 1463.6,85.06 1445.39,102.93 " fill="none" id="service.component-backto-go.service.component" style="stroke:#181818;stroke-width:1.0;"/><polygon fill="none" points="1507.43,32.25,1526.6,23.24,1517.23,42.24,1507.43,32.25" style="stroke:#181818;stroke-width:1.0;"/></g><!--reverse link software.runtime to java.runtime--><g id="link_software.runtime_java.runtime"><path d="M321.4,39.69 C335.12,59.15 353.88,85.78 365.97,102.93 " fill="none" id="software.runtime-backto-java.runtime" style="stroke:#181818;stroke-width:1.0;"/><polygon fill="none" points="315.61,43.62,309.81,23.24,327.05,35.55,315.61,43.62" style="stroke:#181818;stroke-width:1.0;"/></g><!--reverse link service.component to java.service.component--><g id="link_service.component_java.service.component"><path d="M1557.73,37.3 C1577.72,56.92 1606.4,85.06 1624.61,102.93 " fill="none" id="service.component-backto-java.service.component" style="stroke:#181818;stroke-width:1.0;"/><polygon fill="none" points="1552.77,42.24,1543.4,23.24,1562.57,32.25,1552.77,42.24" style="stroke:#181818;stroke-width:1.0;"/></g><!--reverse link software.runtime to dotnet.runtime--><g id="link_software.runtime_dotnet.runtime"><path d="M331.55,28.03 C371.55,46.95 445.73,82.03 490,102.97 " fill="none" id="software.runtime-backto-dotnet.runtime" style="stroke:#181818;stroke-width:1.0;"/><polygon fill="none" points="328.34,34.26,313.26,19.38,334.33,21.6,328.34,34.26" style="stroke:#181818;stroke-width:1.0;"/></g><!--reverse link service.component to csharp.service.component--><g id="link_service.component_csharp.service.component"><path d="M1563.45,23.89 C1619.35,41.36 1744.35,80.42 1816.6,103 " fill="none" id="service.component-backto-csharp.service.component" style="stroke:#181818;stroke-width:1.0;"/><polygon fill="none" points="1561.34,30.56,1544.34,17.92,1565.51,17.2,1561.34,30.56" style="stroke:#181818;stroke-width:1.0;"/></g><!--reverse link service.component to binary.service.component--><g id="link_service.component_binary.service.component"><path d="M1564.22,20.36 C1646.37,35.44 1881.98,78.69 2014.18,102.96 " fill="none" id="service.component-backto-binary.service.component" style="stroke:#181818;stroke-width:1.0;"/><polygon fill="none" points="1562.86,27.23,1544.45,16.73,1565.39,13.46,1562.86,27.23" style="stroke:#181818;stroke-width:1.0;"/></g><!--reverse link cloud.provider to gcp.provider--><g id="link_cloud.provider_gcp.provider"><path d="M2496.19,39.09 C2480.95,58.6 2459.87,85.6 2446.33,102.93 " fill="none" id="cloud.provider-backto-gcp.provider" style="stroke:#181818;stroke-width:1.0;"/><polygon fill="none" points="2490.74,34.69,2508.57,23.24,2501.77,43.31,2490.74,34.69" style="stroke:#181818;stroke-width:1.0;"/></g><!--reverse link cloud.service to gcp.service--><g id="link_cloud.service_gcp.service"><path d="M2820.42,39.39 C2805.57,58.88 2785.14,85.69 2772,102.93 " fill="none" id="cloud.service-backto-gcp.service" style="stroke:#181818;stroke-width:1.0;"/><polygon fill="none" points="2815.03,34.91,2832.72,23.24,2826.17,43.39,2815.03,34.91" style="stroke:#181818;stroke-width:1.0;"/></g><!--reverse link gcp.service to gcp.cloudrun--><g id="link_gcp.service_gcp.cloudrun"><path d="M2689.67,139.05 C2493.92,175.96 2438.79,164.28 2250,199 C2244.37,200.04 2238.52,201.22 2232.69,202.46 " fill="none" id="gcp.service-backto-gcp.cloudrun" style="stroke:#181818;stroke-width:1.0;"/><polygon fill="none" points="2688.42,132.16,2709.38,135.26,2691.06,145.91,2688.42,132.16" style="stroke:#181818;stroke-width:1.0;"/></g><!--reverse link gcp.service to gcp.cloudsql--><g id="link_gcp.service_gcp.cloudsql"><path d="M2689.43,139.4 C2556.46,169.15 2519.3,171.22 2393,199 C2387.55,200.2 2381.88,201.49 2376.22,202.8 " fill="none" id="gcp.service-backto-gcp.cloudsql" style="stroke:#181818;stroke-width:1.0;"/><polygon fill="none" points="2688.26,132.49,2709.31,134.91,2691.34,146.14,2688.26,132.49" style="stroke:#181818;stroke-width:1.0;"/></g><!--reverse link gcp.service to gcp.appengine--><g id="link_gcp.service_gcp.appengine"><path d="M2689.98,144.69 C2639.25,161.36 2571.38,183.66 2525.15,198.86 " fill="none" id="gcp.service-backto-gcp.appengine" style="stroke:#181818;stroke-width:1.0;"/><polygon fill="none" points="2688,137.97,2709.18,138.37,2692.37,151.27,2688,137.97" style="stroke:#181818;stroke-width:1.0;"/></g><!--reverse link gcp.service to gcp.appenginereporting--><g id="link_gcp.service_gcp.appenginereporting"><path d="M2727.33,153.33 C2711.98,168.52 2694.14,186.18 2681.31,198.87 " fill="none" id="gcp.service-backto-gcp.appenginereporting" style="stroke:#181818;stroke-width:1.0;"/><polygon fill="none" points="2722.44,148.33,2741.58,139.24,2732.28,158.28,2722.44,148.33" style="stroke:#181818;stroke-width:1.0;"/></g><!--reverse link gcp.service to gcp.cloudbuild--><g id="link_gcp.service_gcp.cloudbuild"><path d="M2790.81,153.81 C2805.89,168.89 2823.31,186.31 2835.87,198.87 " fill="none" id="gcp.service-backto-gcp.cloudbuild" style="stroke:#181818;stroke-width:1.0;"/><polygon fill="none" points="2785.43,158.33,2776.24,139.24,2795.33,148.43,2785.43,158.33" style="stroke:#181818;stroke-width:1.0;"/></g><!--reverse link gcp.service to gcp.kubernetesengine--><g id="link_gcp.service_gcp.kubernetesengine"><path d="M2827.65,145.13 C2877.12,161.8 2942.78,183.92 2987.49,198.98 " fill="none" id="gcp.service-backto-gcp.kubernetesengine" style="stroke:#181818;stroke-width:1.0;"/><polygon fill="none" points="2825.28,151.72,2808.56,138.7,2829.75,138.45,2825.28,151.72" style="stroke:#181818;stroke-width:1.0;"/></g><!--reverse link gcp.service to gcp.cloudstorage--><g id="link_gcp.service_gcp.cloudstorage"><path d="M2828.36,139.31 C2969.75,170.26 3008.77,173.33 3144,199 C3149.87,200.11 3155.96,201.27 3162.08,202.44 " fill="none" id="gcp.service-backto-gcp.cloudstorage" style="stroke:#181818;stroke-width:1.0;"/><polygon fill="none" points="2826.7,146.11,2808.68,134.97,2829.72,132.44,2826.7,146.11" style="stroke:#181818;stroke-width:1.0;"/></g><!--reverse link gcp.service to gcp.memorystore--><g id="link_gcp.service_gcp.memorystore"><path d="M2828.5,139.02 C3047.33,178.85 3108.34,165.84 3321,199 C3326.75,199.9 3332.7,200.89 3338.67,201.93 " fill="none" id="gcp.service-backto-gcp.memorystore" style="stroke:#181818;stroke-width:1.0;"/><polygon fill="none" points="2826.99,145.86,2808.6,135.34,2829.54,132.1,2826.99,145.86" style="stroke:#181818;stroke-width:1.0;"/></g><!--reverse link container.runtime to docker.engine--><g id="link_container.runtime_docker.engine"><path d="M3090,43.42 C3090,62.44 3090,86.85 3090,102.93 " fill="none" id="container.runtime-backto-docker.engine" style="stroke:#181818;stroke-width:1.0;"/><polygon fill="none" points="3083,43.24,3090,23.24,3097,43.24,3083,43.24" style="stroke:#181818;stroke-width:1.0;"/></g><!--reverse link cloud.service to kubernetes.cluster--><g id="link_cloud.service_kubernetes.cluster"><path d="M2857.58,39.39 C2872.43,58.88 2892.86,85.69 2906,102.93 " fill="none" id="cloud.service-backto-kubernetes.cluster" style="stroke:#181818;stroke-width:1.0;"/><polygon fill="none" points="2851.83,43.39,2845.28,23.24,2862.97,34.91,2851.83,43.39" style="stroke:#181818;stroke-width:1.0;"/></g><!--reverse link cloud.provider to openstack.provider--><g id="link_cloud.provider_openstack.provider"><path d="M2534.04,39.09 C2549.46,58.6 2570.81,85.6 2584.51,102.93 " fill="none" id="cloud.provider-backto-openstack.provider" style="stroke:#181818;stroke-width:1.0;"/><polygon fill="none" points="2528.42,43.27,2521.51,23.24,2539.41,34.59,2528.42,43.27" style="stroke:#181818;stroke-width:1.0;"/></g><!--reverse link relational.dbms to mysql.dbms--><g id="link_relational.dbms_mysql.dbms"><path d="M3254,43.42 C3254,62.44 3254,86.85 3254,102.93 " fill="none" id="relational.dbms-backto-mysql.dbms" style="stroke:#181818;stroke-width:1.0;"/><polygon fill="none" points="3247,43.24,3254,23.24,3261,43.24,3247,43.24" style="stroke:#181818;stroke-width:1.0;"/></g><!--reverse link relational.database to mysql.database--><g id="link_relational.database_mysql.database"><path d="M3422,43.42 C3422,62.44 3422,86.85 3422,102.93 " fill="none" id="relational.database-backto-mysql.database" style="stroke:#181818;stroke-width:1.0;"/><polygon fill="none" points="3415,43.24,3422,23.24,3429,43.24,3415,43.24" style="stroke:#181818;stroke-width:1.0;"/></g><!--reverse link service.component to minio.server--><g id="link_service.component_minio.server"><path d="M1564.48,17.59 C1660.09,26.24 1970.01,56.25 2223,103 C2228.78,104.07 2234.8,105.32 2240.77,106.64 " fill="none" id="service.component-backto-minio.server" style="stroke:#181818;stroke-width:1.0;"/><polygon fill="none" points="1563.67,24.55,1544.37,15.8,1564.91,10.6,1563.67,24.55" style="stroke:#181818;stroke-width:1.0;"/></g><!--reverse link cache to redis.server--><g id="link_cache_redis.server"><path d="M3572,43.42 C3572,62.44 3572,86.85 3572,102.93 " fill="none" id="cache-backto-redis.server" style="stroke:#181818;stroke-width:1.0;"/><polygon fill="none" points="3565,43.24,3572,23.24,3579,43.24,3565,43.24" style="stroke:#181818;stroke-width:1.0;"/></g><!--SRC=[XLHRSeCm3Fpd50p_uGIzHKyWZ4eSyAEoIOUP7hwauMLicR-GNQraMxkkbze2WIg5KTPerFxJJmEMXCA3xWOiYcBxNLRQjFXmDOtQIuLL2dD8JocmtWH35Y48VqspaxyRdMwqO1SAdRbYFE09wGx_o4LrQxn6dwuNxWvahnGQgO6cotC8MrioJzaYnSXI70DYC6Cx3ySWxdk84R0MTISrPY12QyXBtJ72pIY7DiRwiK6QxmiTr-4zbZS4NG9Lg0nDBnZFpo1wf3gbklUSnKVdp_TdvYCv3w9dxbTDyotLRQDSyd_mq80xzLHIo_VYdTK8M-bsfAYS-V8_GBYjKFdnUxibF5R56n9IKnl45-KSo0uL-P7NpzYJBsBSoivpyYulp5gPbOwCpOjdVCuNPMnV_PjWNyVrSi88M5YhzG-aFGs2pmFZ40jPoZiVECenA2uvnyJ8zboZWoCbCYH_XYrCE5gOAfKmsiDhudWbmf19lq0oRvWdJMRFRCq1l3GQbjXPo44G1QGrWqBYdapy5fw2gX8WxhX7n36h_W00]--></g></svg>