<?xml version="1.0" encoding="us-ascii" standalone="no"?><svg xmlns="http://www.w3.org/2000/svg" xmlns:xlink="http://www.w3.org/1999/xlink" contentStyleType="text/css" height="794px" preserveAspectRatio="none" style="width:1619px;height:794px;background:#FFFFFF;" version="1.1" viewBox="0 0 1619 794" width="1619px" zoomAndPan="magnify"><defs/><g><!--cluster cloud--><g id="cluster_cloud"><rect fill="none" height="269" rx="2.5" ry="2.5" style="stroke:#181818;stroke-width:1.0;" width="288" x="822" y="519"/><text fill="#000000" font-family="sans-serif" font-size="14" font-weight="bold" lengthAdjust="spacing" textLength="44" x="944" y="533.9951">cloud</text></g><!--cluster zone_a--><g id="cluster_zone_a"><rect fill="none" height="635" rx="2.5" ry="2.5" style="stroke:#181818;stroke-width:1.0;" width="479" x="7" y="7"/><text fill="#000000" font-family="sans-serif" font-size="14" font-weight="bold" lengthAdjust="spacing" textLength="55" x="219" y="21.9951">zone_a</text></g><!--cluster zone_b--><g id="cluster_zone_b"><rect fill="none" height="635" rx="2.5" ry="2.5" style="stroke:#181818;stroke-width:1.0;" width="479" x="1134" y="7"/><text fill="#000000" font-family="sans-serif" font-size="14" font-weight="bold" lengthAdjust="spacing" textLength="55" x="1346" y="21.9951">zone_b</text></g><!--cluster zone_c--><g id="cluster_zone_c"><rect fill="none" height="307" rx="2.5" ry="2.5" style="stroke:#181818;stroke-width:1.0;" width="288" x="510" y="335"/><text fill="#000000" font-family="sans-serif" font-size="14" font-weight="bold" lengthAdjust="spacing" textLength="54" x="627" y="349.9951">zone_c</text></g><!--entity cloud_service--><g id="elem_cloud_service"><rect fill="#F1F1F1" height="52.5938" rx="2.5" ry="2.5" style="stroke:#181818;stroke-width:0.5;" width="249" x="839.5" y="573"/><text fill="#000000" font-family="sans-serif" font-size="14" font-style="italic" lengthAdjust="spacing" textLength="229" x="849.5" y="595.9951">&#171;example.nodes.Cloud.Service&#187;</text><text fill="#000000" font-family="sans-serif" font-size="14" lengthAdjust="spacing" textLength="96" x="916" y="612.292">cloud_service</text></g><!--entity cloud_provider--><g id="elem_cloud_provider"><rect fill="#F1F1F1" height="52.5938" rx="2.5" ry="2.5" style="stroke:#181818;stroke-width:0.5;" width="255" x="838.5" y="719"/><text fill="#000000" font-family="sans-serif" font-size="14" font-style="italic" lengthAdjust="spacing" textLength="235" x="848.5" y="741.9951">&#171;example.nodes.Cloud.Provider&#187;</text><text fill="#000000" font-family="sans-serif" font-size="14" lengthAdjust="spacing" textLength="106" x="913" y="758.292">cloud_provider</text></g><!--entity zone_a_control_unit_software--><g id="elem_zone_a_control_unit_software"><rect fill="#F1F1F1" height="52.5938" rx="2.5" ry="2.5" style="stroke:#181818;stroke-width:0.5;" width="248" x="145" y="205"/><text fill="#000000" font-family="sans-serif" font-size="14" font-style="italic" lengthAdjust="spacing" textLength="228" x="155" y="227.9951">&#171;example.nodes.ZCU.Software&#187;</text><text fill="#000000" font-family="sans-serif" font-size="14" lengthAdjust="spacing" textLength="214" x="162" y="244.292">zone_a_control_unit_software</text></g><!--entity zone_a_control_unit_hardware--><g id="elem_zone_a_control_unit_hardware"><rect fill="#F1F1F1" height="52.5938" rx="2.5" ry="2.5" style="stroke:#181818;stroke-width:0.5;" width="255" x="139.5" y="389"/><text fill="#000000" font-family="sans-serif" font-size="14" font-style="italic" lengthAdjust="spacing" textLength="235" x="149.5" y="411.9951">&#171;example.nodes.ZCU.Hardware&#187;</text><text fill="#000000" font-family="sans-serif" font-size="14" lengthAdjust="spacing" textLength="217" x="158.5" y="428.292">zone_a_control_unit_hardware</text></g><!--entity zone_a_ethernet--><g id="elem_zone_a_ethernet"><rect fill="#F1F1F1" height="52.5938" rx="2.5" ry="2.5" style="stroke:#181818;stroke-width:0.5;" width="203" x="59.5" y="573"/><text fill="#000000" font-family="sans-serif" font-size="14" font-style="italic" lengthAdjust="spacing" textLength="183" x="69.5" y="595.9951">&#171;sofdcar.nodes.Ethernet&#187;</text><text fill="#000000" font-family="sans-serif" font-size="14" lengthAdjust="spacing" textLength="122" x="100" y="612.292">zone_a_ethernet</text></g><!--entity zone_a_can_bus--><g id="elem_zone_a_can_bus"><rect fill="#F1F1F1" height="52.5938" rx="2.5" ry="2.5" style="stroke:#181818;stroke-width:0.5;" width="172" x="298" y="573"/><text fill="#000000" font-family="sans-serif" font-size="14" font-style="italic" lengthAdjust="spacing" textLength="152" x="308" y="595.9951">&#171;sofdcar.nodes.CAN&#187;</text><text fill="#000000" font-family="sans-serif" font-size="14" lengthAdjust="spacing" textLength="114" x="327" y="612.292">zone_a_can_bus</text></g><!--entity zone_a_actuator--><g id="elem_zone_a_actuator"><rect fill="#F1F1F1" height="52.5938" rx="2.5" ry="2.5" style="stroke:#181818;stroke-width:0.5;" width="212" x="258" y="61"/><text fill="#000000" font-family="sans-serif" font-size="14" font-style="italic" lengthAdjust="spacing" textLength="192" x="268" y="83.9951">&#171;example.nodes.Actuator&#187;</text><text fill="#000000" font-family="sans-serif" font-size="14" lengthAdjust="spacing" textLength="118" x="305" y="100.292">zone_a_actuator</text></g><!--entity zone_a_sensor--><g id="elem_zone_a_sensor"><rect fill="#F1F1F1" height="52.5938" rx="2.5" ry="2.5" style="stroke:#181818;stroke-width:0.5;" width="200" x="23" y="61"/><text fill="#000000" font-family="sans-serif" font-size="14" font-style="italic" lengthAdjust="spacing" textLength="180" x="33" y="83.9951">&#171;example.nodes.Sensor&#187;</text><text fill="#000000" font-family="sans-serif" font-size="14" lengthAdjust="spacing" textLength="104" x="71" y="100.292">zone_a_sensor</text></g><!--entity zone_b_control_unit_software--><g id="elem_zone_b_control_unit_software"><rect fill="#F1F1F1" height="52.5938" rx="2.5" ry="2.5" style="stroke:#181818;stroke-width:0.5;" width="248" x="1151" y="205"/><text fill="#000000" font-family="sans-serif" font-size="14" font-style="italic" lengthAdjust="spacing" textLength="228" x="1161" y="227.9951">&#171;example.nodes.ZCU.Software&#187;</text><text fill="#000000" font-family="sans-serif" font-size="14" lengthAdjust="spacing" textLength="216" x="1167" y="244.292">zone_b_control_unit_software</text></g><!--entity zone_b_control_unit_hardware--><g id="elem_zone_b_control_unit_hardware"><rect fill="#F1F1F1" height="52.5938" rx="2.5" ry="2.5" style="stroke:#181818;stroke-width:0.5;" width="255" x="1150.5" y="389"/><text fill="#000000" font-family="sans-serif" font-size="14" font-style="italic" lengthAdjust="spacing" textLength="235" x="1160.5" y="411.9951">&#171;example.nodes.ZCU.Hardware&#187;</text><text fill="#000000" font-family="sans-serif" font-size="14" lengthAdjust="spacing" textLength="219" x="1168.5" y="428.292">zone_b_control_unit_hardware</text></g><!--entity zone_b_ethernet--><g id="elem_zone_b_ethernet"><rect fill="#F1F1F1" height="52.5938" rx="2.5" ry="2.5" style="stroke:#181818;stroke-width:0.5;" width="203" x="1150.5" y="573"/><text fill="#000000" font-family="sans-serif" font-size="14" font-style="italic" lengthAdjust="spacing" textLength="183" x="1160.5" y="595.9951">&#171;sofdcar.nodes.Ethernet&#187;</text><text fill="#000000" font-family="sans-serif" font-size="14" lengthAdjust="spacing" textLength="124" x="1190" y="612.292">zone_b_ethernet</text></g><!--entity zone_b_can_bus--><g id="elem_zone_b_can_bus"><rect fill="#F1F1F1" height="52.5938" rx="2.5" ry="2.5" style="stroke:#181818;stroke-width:0.5;" width="172" x="1389" y="573"/><text fill="#000000" font-family="sans-serif" font-size="14" font-style="italic" lengthAdjust="spacing" textLength="152" x="1399" y="595.9951">&#171;sofdcar.nodes.CAN&#187;</text><text fill="#000000" font-family="sans-serif" font-size="14" lengthAdjust="spacing" textLength="116" x="1417" y="612.292">zone_b_can_bus</text></g><!--entity zone_b_actuator--><g id="elem_zone_b_actuator"><rect fill="#F1F1F1" height="52.5938" rx="2.5" ry="2.5" style="stroke:#181818;stroke-width:0.5;" width="212" x="1385" y="61"/><text fill="#000000" font-family="sans-serif" font-size="14" font-style="italic" lengthAdjust="spacing" textLength="192" x="1395" y="83.9951">&#171;example.nodes.Actuator&#187;</text><text fill="#000000" font-family="sans-serif" font-size="14" lengthAdjust="spacing" textLength="120" x="1431" y="100.292">zone_b_actuator</text></g><!--entity zone_b_sensor--><g id="elem_zone_b_sensor"><rect fill="#F1F1F1" height="52.5938" rx="2.5" ry="2.5" style="stroke:#181818;stroke-width:0.5;" width="200" x="1150" y="61"/><text fill="#000000" font-family="sans-serif" font-size="14" font-style="italic" lengthAdjust="spacing" textLength="180" x="1160" y="83.9951">&#171;example.nodes.Sensor&#187;</text><text fill="#000000" font-family="sans-serif" font-size="14" lengthAdjust="spacing" textLength="106" x="1197" y="100.292">zone_b_sensor</text></g><!--entity vehicle_control_unit_software--><g id="elem_vehicle_control_unit_software"><rect fill="#F1F1F1" height="52.5938" rx="2.5" ry="2.5" style="stroke:#181818;stroke-width:0.5;" width="248" x="533" y="389"/><text fill="#000000" font-family="sans-serif" font-size="14" font-style="italic" lengthAdjust="spacing" textLength="228" x="543" y="411.9951">&#171;example.nodes.VCU.Software&#187;</text><text fill="#000000" font-family="sans-serif" font-size="14" lengthAdjust="spacing" textLength="215" x="549.5" y="428.292">vehicle_control_unit_software</text></g><!--entity vehicle_control_unit_hardware--><g id="elem_vehicle_control_unit_hardware"><rect fill="#F1F1F1" height="52.5938" rx="2.5" ry="2.5" style="stroke:#181818;stroke-width:0.5;" width="255" x="526.5" y="573"/><text fill="#000000" font-family="sans-serif" font-size="14" font-style="italic" lengthAdjust="spacing" textLength="235" x="536.5" y="595.9951">&#171;example.nodes.VCU.Hardware&#187;</text><text fill="#000000" font-family="sans-serif" font-size="14" lengthAdjust="spacing" textLength="218" x="545" y="612.292">vehicle_control_unit_hardware</text></g><!--link cloud_service to cloud_provider--><g id="link_cloud_service_cloud_provider"><path d="M964.358,626.244 C964.722,652.455 965.283,692.849 965.646,718.9786 " fill="none" id="cloud_service-cloud_provider" style="stroke:#181818;stroke-width:1.0;"/><text fill="#000000" font-family="sans-serif" font-size="13" lengthAdjust="spacing" textLength="28" x="974" y="678.0669">host</text><path d="M971.9746,665.4732 A10,10 0 0 0 957.8338 665.6696" fill="none" style="stroke:#181818;stroke-width:1.5;"/><ellipse cx="965.0024" cy="672.6418" fill="#FFFFFF" rx="6" ry="6" style="stroke:#181818;stroke-width:1.5;"/></g><!--link vehicle_control_unit_software to vehicle_control_unit_hardware--><g id="link_vehicle_control_unit_software_vehicle_control_unit_hardware"><path d="M656.577,442.19 C656.005,476.877 654.992,538.321 654.421,572.941 " fill="none" id="vehicle_control_unit_software-vehicle_control_unit_hardware" style="stroke:#181818;stroke-width:1.0;"/><text fill="#000000" font-family="sans-serif" font-size="13" lengthAdjust="spacing" textLength="28" x="665" y="492.0669">host</text><path d="M662.6853,500.6371 A10,10 0 0 0 648.5451 500.4039" fill="none" style="stroke:#181818;stroke-width:1.5;"/><ellipse cx="655.4986" cy="507.5906" fill="#FFFFFF" rx="6" ry="6" style="stroke:#181818;stroke-width:1.5;"/></g><!--link vehicle_control_unit_software to cloud_service--><g id="link_vehicle_control_unit_software_cloud_service"><path d="M781.05,432.243 C835.781,441.394 892.357,454.594 913,472 C943.322,497.568 955.798,543.833 960.801,572.765 " fill="none" id="vehicle_control_unit_software-cloud_service" style="stroke:#181818;stroke-width:1.0;"/><text fill="#000000" font-family="sans-serif" font-size="13" lengthAdjust="spacing" textLength="34" x="945" y="492.0669">cloud</text><path d="M912.1523,462.036 A10,10 0 0 0 903.036 472.8477" fill="none" style="stroke:#181818;stroke-width:1.5;"/><ellipse cx="913" cy="472" fill="#FFFFFF" rx="6" ry="6" style="stroke:#181818;stroke-width:1.5;"/></g><!--link vehicle_control_unit_hardware to zone_a_ethernet--><g id="link_vehicle_control_unit_hardware_zone_a_ethernet"><path d="M611.654,572.957 C578.56,553.276 530.81,527.163 486,511 C428.217,490.158 409.615,490.819 348.5,497 C317.584,500.127 308.366,498.314 280,511 C245.92,526.241 212.269,552.609 189.495,572.61 " fill="none" id="vehicle_control_unit_hardware-zone_a_ethernet" style="stroke:#181818;stroke-width:1.0;"/><text fill="#000000" font-family="sans-serif" font-size="13" lengthAdjust="spacing" textLength="55" x="356.5" y="492.0669">ethernet</text><path d="M424.9429,501.5138 A10,10 0 0 0 426.1469 487.423" fill="none" style="stroke:#181818;stroke-width:1.5;"/><ellipse cx="418.4995" cy="493.8664" fill="#FFFFFF" rx="6" ry="6" style="stroke:#181818;stroke-width:1.5;"/></g><!--link vehicle_control_unit_hardware to zone_b_ethernet--><g id="link_vehicle_control_unit_hardware_zone_b_ethernet"><path d="M688.244,572.806 C722.889,547.629 779.101,511.632 834.5,497 C891.044,482.065 1041.07,488.705 1110,511 C1151.04,524.276 1192.25,551.929 1219.62,572.813 " fill="none" id="vehicle_control_unit_hardware-zone_b_ethernet" style="stroke:#181818;stroke-width:1.0;"/><text fill="#000000" font-family="sans-serif" font-size="13" lengthAdjust="spacing" textLength="55" x="842.5" y="492.0669">ethernet</text><path d="M960.8851,482.6334 A10,10 0 0 0 960.1999 496.7589" fill="none" style="stroke:#181818;stroke-width:1.5;"/><ellipse cx="967.6052" cy="490.0388" fill="#FFFFFF" rx="6" ry="6" style="stroke:#181818;stroke-width:1.5;"/></g><!--link zone_a_control_unit_software to zone_a_control_unit_hardware--><g id="link_zone_a_control_unit_software_zone_a_control_unit_hardware"><path d="M268.718,258.19 C268.337,292.877 267.661,354.321 267.281,388.941 " fill="none" id="zone_a_control_unit_software-zone_a_control_unit_hardware" style="stroke:#181818;stroke-width:1.0;"/><text fill="#000000" font-family="sans-serif" font-size="13" lengthAdjust="spacing" textLength="28" x="277" y="308.0669">host</text><path d="M275.1475,316.5977 A10,10 0 0 0 261.0062 316.4422" fill="none" style="stroke:#181818;stroke-width:1.5;"/><ellipse cx="267.9991" cy="323.5906" fill="#FFFFFF" rx="6" ry="6" style="stroke:#181818;stroke-width:1.5;"/></g><!--link zone_a_control_unit_software to vehicle_control_unit_software--><g id="link_zone_a_control_unit_software_vehicle_control_unit_software"><path d="M393.143,257.693 C421.709,265.599 451.474,275.597 478,288 C535.394,314.837 593.85,360.276 627.708,388.767 " fill="none" id="zone_a_control_unit_software-vehicle_control_unit_software" style="stroke:#181818;stroke-width:1.0;"/><text fill="#000000" font-family="sans-serif" font-size="13" lengthAdjust="spacing" textLength="23" x="539" y="308.0669">vcu</text><path d="M474.5896,278.5995 A10,10 0 0 0 468.5995 291.4104" fill="none" style="stroke:#181818;stroke-width:1.5;"/><ellipse cx="478" cy="288" fill="#FFFFFF" rx="6" ry="6" style="stroke:#181818;stroke-width:1.5;"/></g><!--link zone_a_control_unit_hardware to zone_a_ethernet--><g id="link_zone_a_control_unit_hardware_zone_a_ethernet"><path d="M215.583,442.241 C203.941,450.295 192.744,460.222 185,472 C164.921,502.538 160.7,545.668 160.271,572.849 " fill="none" id="zone_a_control_unit_hardware-zone_a_ethernet" style="stroke:#181818;stroke-width:1.0;"/><text fill="#000000" font-family="sans-serif" font-size="13" lengthAdjust="spacing" textLength="55" x="193" y="492.0669">ethernet</text><path d="M173.593,518.1449 A10,10 0 0 0 159.7283 515.3572" fill="none" style="stroke:#181818;stroke-width:1.5;"/><ellipse cx="165.2668" cy="523.6834" fill="#FFFFFF" rx="6" ry="6" style="stroke:#181818;stroke-width:1.5;"/></g><!--link zone_a_control_unit_hardware to zone_a_can_bus--><g id="link_zone_a_control_unit_hardware_zone_a_can_bus"><path d="M274.528,442.17 C280.348,459.967 289.373,483.821 301,503 C316.715,528.922 339.606,554.648 357.37,572.857 " fill="none" id="zone_a_control_unit_hardware-zone_a_can_bus" style="stroke:#181818;stroke-width:1.0;"/><text fill="#000000" font-family="sans-serif" font-size="13" lengthAdjust="spacing" textLength="23" x="309" y="492.0669">can</text><path d="M303.381,493.2876 A10,10 0 0 0 291.2876 500.619" fill="none" style="stroke:#181818;stroke-width:1.5;"/><ellipse cx="301" cy="503" fill="#FFFFFF" rx="6" ry="6" style="stroke:#181818;stroke-width:1.5;"/></g><!--link zone_a_actuator to zone_a_can_bus--><g id="link_zone_a_actuator_zone_a_can_bus"><path d="M376.854,114.126 C387.78,137.248 402.806,172.517 410,205 C435.706,321.067 422.443,353.174 426,472 C426.412,485.772 428.834,489.517 426,503 C420.784,527.815 408.712,554.05 398.843,572.731 " fill="none" id="zone_a_actuator-zone_a_can_bus" style="stroke:#181818;stroke-width:1.0;"/><text fill="#000000" font-family="sans-serif" font-size="13" lengthAdjust="spacing" textLength="23" x="434" y="308.0669">can</text><path d="M433.3119,330.3299 A10,10 0 0 0 419.1704 330.4593" fill="none" style="stroke:#181818;stroke-width:1.5;"/><ellipse cx="426.3059" cy="337.4654" fill="#FFFFFF" rx="6" ry="6" style="stroke:#181818;stroke-width:1.5;"/></g><!--link zone_a_actuator to zone_a_control_unit_software--><g id="link_zone_a_actuator_zone_a_control_unit_software"><path d="M346.796,114.215 C329.579,139.95 303.248,179.309 286.076,204.976 " fill="none" id="zone_a_actuator-zone_a_control_unit_software" style="stroke:#181818;stroke-width:1.0;"/><text fill="#000000" font-family="sans-serif" font-size="13" lengthAdjust="spacing" textLength="22" x="334" y="164.0669">zcu</text><path d="M326.2281,157.6757 A10,10 0 0 0 314.4738 149.812" fill="none" style="stroke:#181818;stroke-width:1.5;"/><ellipse cx="316.4191" cy="159.621" fill="#FFFFFF" rx="6" ry="6" style="stroke:#181818;stroke-width:1.5;"/></g><!--link zone_a_sensor to zone_a_can_bus--><g id="link_zone_a_sensor_zone_a_can_bus"><path d="M117.809,114.128 C106.877,173.463 85.3697,324.207 122,442 C131.774,473.431 135.408,486.692 164,503 C186.445,515.802 256.044,501.316 280,511 C312.814,524.265 342.88,552.026 362.152,572.741 " fill="none" id="zone_a_sensor-zone_a_can_bus" style="stroke:#181818;stroke-width:1.0;"/><text fill="#000000" font-family="sans-serif" font-size="13" lengthAdjust="spacing" textLength="23" x="111" y="308.0669">can</text><path d="M126.6524,433.1482 A10,10 0 0 0 113.1482 437.3476" fill="none" style="stroke:#181818;stroke-width:1.5;"/><ellipse cx="122" cy="442" fill="#FFFFFF" rx="6" ry="6" style="stroke:#181818;stroke-width:1.5;"/></g><!--link zone_a_sensor to zone_a_control_unit_software--><g id="link_zone_a_sensor_zone_a_control_unit_software"><path d="M149.439,114.215 C175.9,139.95 216.367,179.309 242.757,204.976 " fill="none" id="zone_a_sensor-zone_a_control_unit_software" style="stroke:#181818;stroke-width:1.0;"/><text fill="#000000" font-family="sans-serif" font-size="13" lengthAdjust="spacing" textLength="22" x="218" y="164.0669">zcu</text><path d="M195.9858,149.622 A10,10 0 0 0 186.1256 159.7599" fill="none" style="stroke:#181818;stroke-width:1.5;"/><ellipse cx="196.1246" cy="159.621" fill="#FFFFFF" rx="6" ry="6" style="stroke:#181818;stroke-width:1.5;"/></g><!--link zone_b_control_unit_software to zone_b_control_unit_hardware--><g id="link_zone_b_control_unit_software_zone_b_control_unit_hardware"><path d="M1275.42,258.19 C1276,292.877 1277.01,354.321 1277.58,388.941 " fill="none" id="zone_b_control_unit_software-zone_b_control_unit_hardware" style="stroke:#181818;stroke-width:1.0;"/><text fill="#000000" font-family="sans-serif" font-size="13" lengthAdjust="spacing" textLength="28" x="1285" y="308.0669">host</text><path d="M1283.4572,316.4039 A10,10 0 0 0 1269.317 316.6371" fill="none" style="stroke:#181818;stroke-width:1.5;"/><ellipse cx="1276.5038" cy="323.5906" fill="#FFFFFF" rx="6" ry="6" style="stroke:#181818;stroke-width:1.5;"/></g><!--link zone_b_control_unit_software to vehicle_control_unit_software--><g id="link_zone_b_control_unit_software_vehicle_control_unit_software"><path d="M1188.09,258.094 C1070.4,292.753 861.571,354.254 743.89,388.911 " fill="none" id="zone_b_control_unit_software-vehicle_control_unit_software" style="stroke:#181818;stroke-width:1.0;"/><text fill="#000000" font-family="sans-serif" font-size="13" lengthAdjust="spacing" textLength="23" x="1084" y="308.0669">vcu</text><path d="M974.7673,328.2887 A10,10 0 0 0 970.772 314.7226" fill="none" style="stroke:#181818;stroke-width:1.5;"/><ellipse cx="965.9866" cy="323.5033" fill="#FFFFFF" rx="6" ry="6" style="stroke:#181818;stroke-width:1.5;"/></g><!--link zone_b_control_unit_hardware to zone_b_ethernet--><g id="link_zone_b_control_unit_hardware_zone_b_ethernet"><path d="M1271.89,442.093 C1269.81,451.461 1267.6,462.173 1266,472 C1260.35,506.675 1256.32,547.075 1254.07,572.713 " fill="none" id="zone_b_control_unit_hardware-zone_b_ethernet" style="stroke:#181818;stroke-width:1.0;"/><text fill="#000000" font-family="sans-serif" font-size="13" lengthAdjust="spacing" textLength="55" x="1274" y="492.0669">ethernet</text><path d="M1266.5809,519.5138 A10,10 0 0 0 1252.5284 517.9244" fill="none" style="stroke:#181818;stroke-width:1.5;"/><ellipse cx="1258.76" cy="525.7454" fill="#FFFFFF" rx="6" ry="6" style="stroke:#181818;stroke-width:1.5;"/></g><!--link zone_b_control_unit_hardware to zone_b_can_bus--><g id="link_zone_b_control_unit_hardware_zone_b_can_bus"><path d="M1307.67,442.268 C1318.26,451.561 1330.23,462.178 1341,472 C1378.7,506.385 1421.44,547.029 1448.31,572.785 " fill="none" id="zone_b_control_unit_hardware-zone_b_can_bus" style="stroke:#181818;stroke-width:1.0;"/><text fill="#000000" font-family="sans-serif" font-size="13" lengthAdjust="spacing" textLength="23" x="1382" y="492.0669">can</text><path d="M1398.4206,515.6327 A10,10 0 0 0 1388.7206 525.924" fill="none" style="stroke:#181818;stroke-width:1.5;"/><ellipse cx="1398.7163" cy="525.6284" fill="#FFFFFF" rx="6" ry="6" style="stroke:#181818;stroke-width:1.5;"/></g><!--link zone_b_actuator to zone_b_can_bus--><g id="link_zone_b_actuator_zone_b_can_bus"><path d="M1490.95,114.088 C1490.79,156.63 1490.21,244.594 1488,319 C1485.22,412.469 1479.27,523.408 1476.49,572.693 " fill="none" id="zone_b_actuator-zone_b_can_bus" style="stroke:#181818;stroke-width:1.0;"/><text fill="#000000" font-family="sans-serif" font-size="13" lengthAdjust="spacing" textLength="23" x="1496" y="308.0669">can</text><path d="M1495.2779,312.142 A10,10 0 0 0 1481.142 311.7221" fill="none" style="stroke:#181818;stroke-width:1.5;"/><ellipse cx="1488" cy="319" fill="#FFFFFF" rx="6" ry="6" style="stroke:#181818;stroke-width:1.5;"/></g><!--link zone_b_actuator to zone_b_control_unit_software--><g id="link_zone_b_actuator_zone_b_control_unit_software"><path d="M1451.88,114.215 C1412.74,139.95 1352.87,179.309 1313.82,204.976 " fill="none" id="zone_b_actuator-zone_b_control_unit_software" style="stroke:#181818;stroke-width:1.0;"/><text fill="#000000" font-family="sans-serif" font-size="13" lengthAdjust="spacing" textLength="22" x="1410" y="164.0669">zcu</text><path d="M1392.6092,161.6453 A10,10 0 0 0 1384.8405 149.828" fill="none" style="stroke:#181818;stroke-width:1.5;"/><ellipse cx="1382.8162" cy="159.621" fill="#FFFFFF" rx="6" ry="6" style="stroke:#181818;stroke-width:1.5;"/></g><!--link zone_b_sensor to zone_b_can_bus--><g id="link_zone_b_sensor_zone_b_can_bus"><path d="M1308.6,114.131 C1345.82,133.567 1391.61,163.964 1417,205 C1426.77,220.801 1461.12,488.226 1471.8,572.964 " fill="none" id="zone_b_sensor-zone_b_can_bus" style="stroke:#181818;stroke-width:1.0;"/><text fill="#000000" font-family="sans-serif" font-size="13" lengthAdjust="spacing" textLength="23" x="1445" y="308.0669">can</text><path d="M1450.0787,355.1456 A10,10 0 0 0 1436.0738 357.1106" fill="none" style="stroke:#181818;stroke-width:1.5;"/><ellipse cx="1444.0588" cy="363.1306" fill="#FFFFFF" rx="6" ry="6" style="stroke:#181818;stroke-width:1.5;"/></g><!--link zone_b_sensor to zone_b_control_unit_software--><g id="link_zone_b_sensor_zone_b_control_unit_software"><path d="M1254.53,114.215 C1259.06,139.95 1265.99,179.309 1270.51,204.976 " fill="none" id="zone_b_sensor-zone_b_control_unit_software" style="stroke:#181818;stroke-width:1.0;"/><text fill="#000000" font-family="sans-serif" font-size="13" lengthAdjust="spacing" textLength="22" x="1273" y="164.0669">zcu</text><path d="M1268.2616,151.4309 A10,10 0 0 0 1254.3337 153.8832" fill="none" style="stroke:#181818;stroke-width:1.5;"/><ellipse cx="1262.5238" cy="159.621" fill="#FFFFFF" rx="6" ry="6" style="stroke:#181818;stroke-width:1.5;"/></g><!--SRC=[hPHDRuCm38Rl-HLHJxiKxOogIbKrQQTf4beFcoQK16-WqGGbWMsT-j_7Hxf26mAqkmNylhRp6AC-4fuHIRQOYMqcE70TwEyKi0Ic2NzF0Q6_8vwnLEJH3F-Wb_eKAf15mk0LBnRmHRPP2XuN4IXlNOMze0albmTz9aMHH23x38ycNZhsxRgxihEGr8MROyW4rrAaOSuJ7IhnfZ-9jFJnl7xo0XEjsh2vOoAZVlUzYRRSe6EG77HbA4j7Z4XZk3EHTYd2GvghS-rwzT2I4QPpeeM5pCf4Mc85NDcaGVtU2eyUuT6huD6huD4fyEWuU7GAF7e9F5R3Ao1EM0fZwMrEw5dj_VWsNNnxX51dv_3yvdQEksk5VHmBfP6pqyRex6P2dcvFVlECtDbhuyakbTR3SRIRMjsk7qIdjFFgmrdSS7nSi1mvAmrX66qsMrBH9noT_50kLVRSQdUyLRD8m_bjkg7iT71-TCJywB_CZrxp8OunMwXHsrGcAOS9dysb9xzDrv_z5m00]--></g></svg>