<svg xmlns="http://www.w3.org/2000/svg" xmlns:xlink="http://www.w3.org/1999/xlink" contentStyleType="text/css" height="735px" preserveAspectRatio="none" style="width:1559px;height:735px;" version="1.1" viewBox="0 0 1559 735" width="1559px" zoomAndPan="magnify"><defs/><g><!--cluster cloud--><g id="cluster_cloud"><rect fill="none" height="254.19" rx="2.5" ry="2.5" style="stroke:#000000;stroke-width:1.0;stroke-dasharray:7.0,7.0;" width="278" x="791" y="475.78"/><text fill="#000000" font-family="sans-serif" font-size="14" lengthAdjust="spacing" textLength="37.9121" x="911.0439" y="490.7751">cloud</text></g><!--cluster zone_a--><g id="cluster_zone_a"><rect fill="none" height="591.38" rx="2.5" ry="2.5" style="stroke:#000000;stroke-width:1.0;stroke-dasharray:7.0,7.0;" width="460" x="7" y="7"/><text fill="#000000" font-family="sans-serif" font-size="14" lengthAdjust="spacing" textLength="48.9795" x="212.5103" y="21.9951">zone_a</text></g><!--cluster zone_b--><g id="cluster_zone_b"><rect fill="none" height="591.38" rx="2.5" ry="2.5" style="stroke:#000000;stroke-width:1.0;stroke-dasharray:7.0,7.0;" width="460" x="1093" y="7"/><text fill="#000000" font-family="sans-serif" font-size="14" lengthAdjust="spacing" textLength="49.2871" x="1298.3564" y="21.9951">zone_b</text></g><!--cluster zone_c--><g id="cluster_zone_c"><rect fill="none" height="292.19" rx="2.5" ry="2.5" style="stroke:#000000;stroke-width:1.0;stroke-dasharray:7.0,7.0;" width="276" x="491" y="306.19"/><text fill="#000000" font-family="sans-serif" font-size="14" lengthAdjust="spacing" textLength="48.0977" x="604.9512" y="321.1851">zone_c</text></g><!--entity node_cloud_service--><g id="elem_node_cloud_service"><rect fill="#F1F1F1" height="52.5938" rx="2.5" ry="2.5" style="stroke:#000000;stroke-width:1.5;" width="238.7432" x="808.63" y="529.78"/><text fill="#000000" font-family="sans-serif" font-size="14" lengthAdjust="spacing" textLength="95.0605" x="818.63" y="552.7751">cloud_service</text><text fill="#000000" font-family="sans-serif" font-size="14" lengthAdjust="spacing" textLength="218.7432" x="818.63" y="569.072">(example.nodes.Cloud.Service)</text></g><!--entity node_cloud_provider--><g id="elem_node_cloud_provider"><rect fill="#F1F1F1" height="52.5938" rx="2.5" ry="2.5" style="stroke:#000000;stroke-width:1.5;" width="245.1963" x="807.4" y="661.38"/><text fill="#000000" font-family="sans-serif" font-size="14" lengthAdjust="spacing" textLength="103.5508" x="817.4" y="684.3751">cloud_provider</text><text fill="#000000" font-family="sans-serif" font-size="14" lengthAdjust="spacing" textLength="225.1963" x="817.4" y="700.672">(example.nodes.Cloud.Provider)</text></g><!--entity node_zone_a_control_unit_software--><g id="elem_node_zone_a_control_unit_software"><rect fill="#F1F1F1" height="52.5938" rx="2.5" ry="2.5" style="stroke:#000000;stroke-width:1.5;" width="238.8936" x="142.55" y="190.59"/><text fill="#000000" font-family="sans-serif" font-size="14" lengthAdjust="spacing" textLength="206.6162" x="152.55" y="213.5851">zone_a_control_unit_software</text><text fill="#000000" font-family="sans-serif" font-size="14" lengthAdjust="spacing" textLength="218.8936" x="152.55" y="229.882">(example.nodes.ZCU.Software)</text></g><!--entity node_zone_a_control_unit_hardware--><g id="elem_node_zone_a_control_unit_hardware"><rect fill="#F1F1F1" height="52.5938" rx="2.5" ry="2.5" style="stroke:#000000;stroke-width:1.5;" width="244.7725" x="137.61" y="360.19"/><text fill="#000000" font-family="sans-serif" font-size="14" lengthAdjust="spacing" textLength="212.4336" x="147.61" y="383.1851">zone_a_control_unit_hardware</text><text fill="#000000" font-family="sans-serif" font-size="14" lengthAdjust="spacing" textLength="224.7725" x="147.61" y="399.482">(example.nodes.ZCU.Hardware)</text></g><!--entity node_zone_a_ethernet--><g id="elem_node_zone_a_ethernet"><rect fill="#F1F1F1" height="52.5938" rx="2.5" ry="2.5" style="stroke:#000000;stroke-width:1.5;" width="194.3164" x="57.84" y="529.78"/><text fill="#000000" font-family="sans-serif" font-size="14" lengthAdjust="spacing" textLength="116.2998" x="67.84" y="552.7751">zone_a_ethernet</text><text fill="#000000" font-family="sans-serif" font-size="14" lengthAdjust="spacing" textLength="174.3164" x="67.84" y="569.072">(sofdcar.nodes.Ethernet)</text></g><!--entity node_zone_a_can_bus--><g id="elem_node_zone_a_can_bus"><rect fill="#F1F1F1" height="52.5938" rx="2.5" ry="2.5" style="stroke:#000000;stroke-width:1.5;" width="163.5889" x="287.21" y="529.78"/><text fill="#000000" font-family="sans-serif" font-size="14" lengthAdjust="spacing" textLength="113.1826" x="297.21" y="552.7751">zone_a_can_bus</text><text fill="#000000" font-family="sans-serif" font-size="14" lengthAdjust="spacing" textLength="143.5889" x="297.21" y="569.072">(sofdcar.nodes.CAN)</text></g><!--entity node_zone_a_actuator--><g id="elem_node_zone_a_actuator"><rect fill="#F1F1F1" height="52.5938" rx="2.5" ry="2.5" style="stroke:#000000;stroke-width:1.5;" width="202.5879" x="22.71" y="61"/><text fill="#000000" font-family="sans-serif" font-size="14" lengthAdjust="spacing" textLength="115.0078" x="32.71" y="83.9951">zone_a_actuator</text><text fill="#000000" font-family="sans-serif" font-size="14" lengthAdjust="spacing" textLength="182.5879" x="32.71" y="100.292">(example.nodes.Actuator)</text></g><!--entity node_zone_a_sensor--><g id="elem_node_zone_a_sensor"><rect fill="#F1F1F1" height="52.5938" rx="2.5" ry="2.5" style="stroke:#000000;stroke-width:1.5;" width="190.5498" x="260.73" y="61"/><text fill="#000000" font-family="sans-serif" font-size="14" lengthAdjust="spacing" textLength="102.375" x="270.73" y="83.9951">zone_a_sensor</text><text fill="#000000" font-family="sans-serif" font-size="14" lengthAdjust="spacing" textLength="170.5498" x="270.73" y="100.292">(example.nodes.Sensor)</text></g><!--entity node_zone_b_control_unit_software--><g id="elem_node_zone_b_control_unit_software"><rect fill="#F1F1F1" height="52.5938" rx="2.5" ry="2.5" style="stroke:#000000;stroke-width:1.5;" width="238.8936" x="1109.55" y="190.59"/><text fill="#000000" font-family="sans-serif" font-size="14" lengthAdjust="spacing" textLength="206.9238" x="1119.55" y="213.5851">zone_b_control_unit_software</text><text fill="#000000" font-family="sans-serif" font-size="14" lengthAdjust="spacing" textLength="218.8936" x="1119.55" y="229.882">(example.nodes.ZCU.Software)</text></g><!--entity node_zone_b_control_unit_hardware--><g id="elem_node_zone_b_control_unit_hardware"><rect fill="#F1F1F1" height="52.5938" rx="2.5" ry="2.5" style="stroke:#000000;stroke-width:1.5;" width="244.7725" x="1108.61" y="360.19"/><text fill="#000000" font-family="sans-serif" font-size="14" lengthAdjust="spacing" textLength="212.7412" x="1118.61" y="383.1851">zone_b_control_unit_hardware</text><text fill="#000000" font-family="sans-serif" font-size="14" lengthAdjust="spacing" textLength="224.7725" x="1118.61" y="399.482">(example.nodes.ZCU.Hardware)</text></g><!--entity node_zone_b_ethernet--><g id="elem_node_zone_b_ethernet"><rect fill="#F1F1F1" height="52.5938" rx="2.5" ry="2.5" style="stroke:#000000;stroke-width:1.5;" width="194.3164" x="1108.84" y="529.78"/><text fill="#000000" font-family="sans-serif" font-size="14" lengthAdjust="spacing" textLength="116.6074" x="1118.84" y="552.7751">zone_b_ethernet</text><text fill="#000000" font-family="sans-serif" font-size="14" lengthAdjust="spacing" textLength="174.3164" x="1118.84" y="569.072">(sofdcar.nodes.Ethernet)</text></g><!--entity node_zone_b_can_bus--><g id="elem_node_zone_b_can_bus"><rect fill="#F1F1F1" height="52.5938" rx="2.5" ry="2.5" style="stroke:#000000;stroke-width:1.5;" width="163.5889" x="1338.21" y="529.78"/><text fill="#000000" font-family="sans-serif" font-size="14" lengthAdjust="spacing" textLength="113.4902" x="1348.21" y="552.7751">zone_b_can_bus</text><text fill="#000000" font-family="sans-serif" font-size="14" lengthAdjust="spacing" textLength="143.5889" x="1348.21" y="569.072">(sofdcar.nodes.CAN)</text></g><!--entity node_zone_b_actuator--><g id="elem_node_zone_b_actuator"><rect fill="#F1F1F1" height="52.5938" rx="2.5" ry="2.5" style="stroke:#000000;stroke-width:1.5;" width="202.5879" x="1108.71" y="61"/><text fill="#000000" font-family="sans-serif" font-size="14" lengthAdjust="spacing" textLength="115.3154" x="1118.71" y="83.9951">zone_b_actuator</text><text fill="#000000" font-family="sans-serif" font-size="14" lengthAdjust="spacing" textLength="182.5879" x="1118.71" y="100.292">(example.nodes.Actuator)</text></g><!--entity node_zone_b_sensor--><g id="elem_node_zone_b_sensor"><rect fill="#F1F1F1" height="52.5938" rx="2.5" ry="2.5" style="stroke:#000000;stroke-width:1.5;" width="190.5498" x="1346.73" y="61"/><text fill="#000000" font-family="sans-serif" font-size="14" lengthAdjust="spacing" textLength="102.6826" x="1356.73" y="83.9951">zone_b_sensor</text><text fill="#000000" font-family="sans-serif" font-size="14" lengthAdjust="spacing" textLength="170.5498" x="1356.73" y="100.292">(example.nodes.Sensor)</text></g><!--entity node_vehicle_control_unit_software--><g id="elem_node_vehicle_control_unit_software"><rect fill="#F1F1F1" height="52.5938" rx="2.5" ry="2.5" style="stroke:#000000;stroke-width:1.5;" width="238.8799" x="511.56" y="360.19"/><text fill="#000000" font-family="sans-serif" font-size="14" lengthAdjust="spacing" textLength="207.498" x="521.56" y="383.1851">vehicle_control_unit_software</text><text fill="#000000" font-family="sans-serif" font-size="14" lengthAdjust="spacing" textLength="218.8799" x="521.56" y="399.482">(example.nodes.VCU.Software)</text></g><!--entity node_vehicle_control_unit_hardware--><g id="elem_node_vehicle_control_unit_hardware"><rect fill="#F1F1F1" height="52.5938" rx="2.5" ry="2.5" style="stroke:#000000;stroke-width:1.5;" width="244.7588" x="506.62" y="529.78"/><text fill="#000000" font-family="sans-serif" font-size="14" lengthAdjust="spacing" textLength="213.3154" x="516.62" y="552.7751">vehicle_control_unit_hardware</text><text fill="#000000" font-family="sans-serif" font-size="14" lengthAdjust="spacing" textLength="224.7588" x="516.62" y="569.072">(example.nodes.VCU.Hardware)</text></g><!--link node_cloud_service to node_cloud_provider--><g id="link_node_cloud_service_node_cloud_provider"><path d="M928.4,582.68 C928.75,605.4 929.1675,632.4207 929.5175,655.1207 " fill="none" id="node_cloud_service-to-node_cloud_provider" style="stroke:#181818;stroke-width:1.5;"/><polygon fill="#181818" points="929.61,661.12,933.4708,652.0594,929.5329,656.1206,925.4717,652.1827,929.61,661.12" style="stroke:#181818;stroke-width:1.5;"/><text fill="#000000" font-family="sans-serif" font-size="13" lengthAdjust="spacing" textLength="28.063" x="938.2646" y="627.4469">host</text></g><!--link node_vehicle_control_unit_software to node_vehicle_control_unit_hardware--><g id="link_node_vehicle_control_unit_software_node_vehicle_control_unit_hardware"><path d="M630.7,412.94 C630.32,444.44 629.7502,491.7804 629.3802,523.3904 " fill="none" id="node_vehicle_control_unit_software-to-node_vehicle_control_unit_hardware" style="stroke:#181818;stroke-width:1.5;"/><polygon fill="#181818" points="629.31,529.39,633.4151,520.4374,629.3685,524.3903,625.4156,520.3438,629.31,529.39" style="stroke:#181818;stroke-width:1.5;"/><text fill="#000000" font-family="sans-serif" font-size="13" lengthAdjust="spacing" textLength="28.063" x="639.2646" y="455.8469">host</text></g><!--link node_vehicle_control_unit_software to node_cloud_service--><g id="link_node_vehicle_control_unit_software_node_cloud_service"><path d="M750.92,404.16 C803.13,413.46 856.96,426.49 877,442.78 C903.91,464.67 915.8052,497.992 921.9252,523.792 " fill="none" id="node_vehicle_control_unit_software-to-node_cloud_service" style="stroke:#181818;stroke-width:1.5;stroke-dasharray:7.0,7.0;"/><polygon fill="#181818" points="923.31,529.63,925.1248,519.9498,922.156,524.765,917.3408,521.7962,923.31,529.63" style="stroke:#181818;stroke-width:1.5;"/><text fill="#000000" font-family="sans-serif" font-size="13" lengthAdjust="spacing" textLength="35.2041" x="901.2646" y="455.8469">cloud</text></g><!--link node_vehicle_control_unit_hardware to node_zone_a_ethernet--><g id="link_node_vehicle_control_unit_hardware_node_zone_a_ethernet"><path d="M592.25,529.3 C560.77,508.08 513.3,480.02 467,467.78 C382.35,445.4 352.64,438.85 270,467.78 C234.36,480.26 205.2853,504.2203 183.7653,525.4103 " fill="none" id="node_vehicle_control_unit_hardware-to-node_zone_a_ethernet" style="stroke:#181818;stroke-width:1.5;stroke-dasharray:7.0,7.0;"/><polygon fill="#181818" points="179.49,529.62,188.7094,526.1556,183.0527,526.1119,183.0965,520.4552,179.49,529.62" style="stroke:#181818;stroke-width:1.5;"/><text fill="#000000" font-family="sans-serif" font-size="13" lengthAdjust="spacing" textLength="56.0117" x="343.2646" y="455.8469">ethernet</text></g><!--link node_vehicle_control_unit_hardware to node_zone_b_ethernet--><g id="link_node_vehicle_control_unit_hardware_node_zone_b_ethernet"><path d="M660.53,529.38 C693.64,504 748.38,469.31 803,466.58 C872.53,463.11 1039.65,459.05 1069,467.78 C1109.68,479.89 1145.066,504.3332 1171.256,525.6432 " fill="none" id="node_vehicle_control_unit_hardware-to-node_zone_b_ethernet" style="stroke:#181818;stroke-width:1.5;stroke-dasharray:7.0,7.0;"/><polygon fill="#181818" points="1175.91,529.43,1171.4535,520.6471,1172.0317,526.2743,1166.4044,526.8524,1175.91,529.43" style="stroke:#181818;stroke-width:1.5;"/><text fill="#000000" font-family="sans-serif" font-size="13" lengthAdjust="spacing" textLength="56.0117" x="812.2646" y="455.8469">ethernet</text></g><!--link node_zone_a_control_unit_software to node_zone_a_control_unit_hardware--><g id="link_node_zone_a_control_unit_software_node_zone_a_control_unit_hardware"><path d="M261.7,243.35 C261.32,274.85 260.7502,322.1804 260.3802,353.7904 " fill="none" id="node_zone_a_control_unit_software-to-node_zone_a_control_unit_hardware" style="stroke:#181818;stroke-width:1.5;"/><polygon fill="#181818" points="260.31,359.79,264.4151,350.8374,260.3685,354.7903,256.4156,350.7438,260.31,359.79" style="stroke:#181818;stroke-width:1.5;"/><text fill="#000000" font-family="sans-serif" font-size="13" lengthAdjust="spacing" textLength="28.063" x="271.2646" y="286.2569">host</text></g><!--link node_zone_a_control_unit_software to node_vehicle_control_unit_software--><g id="link_node_zone_a_control_unit_software_node_vehicle_control_unit_software"><path d="M376.36,243.64 C404,251.58 433.04,261.41 459,273.19 C510.96,296.77 560.3707,331.1258 593.7107,356.2858 " fill="none" id="node_zone_a_control_unit_software-to-node_vehicle_control_unit_software" style="stroke:#181818;stroke-width:1.5;stroke-dasharray:7.0,7.0;"/><polygon fill="#181818" points="598.5,359.9,593.7256,351.2858,594.5089,356.8881,588.9066,357.6715,598.5,359.9" style="stroke:#181818;stroke-width:1.5;"/><text fill="#000000" font-family="sans-serif" font-size="13" lengthAdjust="spacing" textLength="23.0801" x="499.2646" y="286.2569">vcu</text></g><!--link node_zone_a_control_unit_hardware to node_zone_a_ethernet--><g id="link_node_zone_a_control_unit_hardware_node_zone_a_ethernet"><path d="M211.59,413.04 C200.08,421.17 188.87,431.13 181,442.78 C163.42,468.82 158.0772,499.1774 156.2272,523.3874 " fill="none" id="node_zone_a_control_unit_hardware-to-node_zone_a_ethernet" style="stroke:#181818;stroke-width:1.5;stroke-dasharray:7.0,7.0;"/><polygon fill="#181818" points="155.77,529.37,160.4441,520.7009,156.151,524.3845,152.4674,520.0914,155.77,529.37" style="stroke:#181818;stroke-width:1.5;"/><text fill="#000000" font-family="sans-serif" font-size="13" lengthAdjust="spacing" textLength="56.0117" x="190.2646" y="455.8469">ethernet</text></g><!--link node_zone_a_control_unit_hardware to node_zone_a_can_bus--><g id="link_node_zone_a_control_unit_hardware_node_zone_a_can_bus"><path d="M269.85,413.02 C275.77,427.22 283.9,444.97 293,459.78 C308.5,485.03 325.8411,506.6339 341.9411,525.1339 " fill="none" id="node_zone_a_control_unit_hardware-to-node_zone_a_can_bus" style="stroke:#181818;stroke-width:1.5;stroke-dasharray:7.0,7.0;"/><polygon fill="#181818" points="345.88,529.66,342.989,520.245,342.5976,525.8883,336.9543,525.4968,345.88,529.66" style="stroke:#181818;stroke-width:1.5;"/><text fill="#000000" font-family="sans-serif" font-size="13" lengthAdjust="spacing" textLength="23.353" x="302.2646" y="455.8469">can</text></g><!--link node_zone_a_actuator to node_zone_a_can_bus--><g id="link_node_zone_a_actuator_node_zone_a_can_bus"><path d="M117.37,113.89 C104.07,170.27 78.81,308.51 120,412.78 C130.51,439.4 138.2,447.42 164,459.78 C206.61,480.2 226.47,449.43 270,467.78 C301.67,481.14 326.2494,504.3117 344.4594,524.9417 " fill="none" id="node_zone_a_actuator-to-node_zone_a_can_bus" style="stroke:#181818;stroke-width:1.5;stroke-dasharray:7.0,7.0;"/><polygon fill="#181818" points="348.43,529.44,345.4729,520.0455,345.1212,525.6914,339.4753,525.3397,348.43,529.44" style="stroke:#181818;stroke-width:1.5;"/><text fill="#000000" font-family="sans-serif" font-size="13" lengthAdjust="spacing" textLength="23.353" x="107.2646" y="286.2569">can</text></g><!--link node_zone_a_actuator to node_zone_a_control_unit_software--><g id="link_node_zone_a_actuator_node_zone_a_control_unit_software"><path d="M151.59,113.81 C175.66,136.07 205.9948,164.1064 230.0448,186.3464 " fill="none" id="node_zone_a_actuator-to-node_zone_a_control_unit_software" style="stroke:#181818;stroke-width:1.5;stroke-dasharray:7.0,7.0;"/><polygon fill="#181818" points="234.45,190.42,230.558,181.3728,230.779,187.0253,225.1265,187.2463,234.45,190.42" style="stroke:#181818;stroke-width:1.5;"/><text fill="#000000" font-family="sans-serif" font-size="13" lengthAdjust="spacing" textLength="22.2104" x="211.2646" y="156.6569">zcu</text></g><!--link node_zone_a_sensor to node_zone_a_can_bus--><g id="link_node_zone_a_sensor_node_zone_a_can_bus"><path d="M369.85,113.93 C379.99,134.12 392.99,163.31 399,190.59 C423.12,300.12 406,330.65 408,442.78 C408.13,450.34 409.46,452.37 408,459.78 C403.14,484.51 394.4476,505.5257 385.2376,524.2557 " fill="none" id="node_zone_a_sensor-to-node_zone_a_can_bus" style="stroke:#181818;stroke-width:1.5;stroke-dasharray:7.0,7.0;"/><polygon fill="#181818" points="382.59,529.64,390.1509,523.3286,384.7963,525.1531,382.9719,519.7985,382.59,529.64" style="stroke:#181818;stroke-width:1.5;"/><text fill="#000000" font-family="sans-serif" font-size="13" lengthAdjust="spacing" textLength="23.353" x="421.2646" y="286.2569">can</text></g><!--link node_zone_a_sensor to node_zone_a_control_unit_software--><g id="link_node_zone_a_sensor_node_zone_a_control_unit_software"><path d="M337.2,113.81 C320.81,136.07 300.7096,163.3499 284.3196,185.5899 " fill="none" id="node_zone_a_sensor-to-node_zone_a_control_unit_software" style="stroke:#181818;stroke-width:1.5;stroke-dasharray:7.0,7.0;"/><polygon fill="#181818" points="280.76,190.42,289.3194,185.5479,283.7263,186.3949,282.8793,180.8019,280.76,190.42" style="stroke:#181818;stroke-width:1.5;"/><text fill="#000000" font-family="sans-serif" font-size="13" lengthAdjust="spacing" textLength="22.2104" x="324.2646" y="156.6569">zcu</text></g><!--link node_zone_b_control_unit_software to node_zone_b_control_unit_hardware--><g id="link_node_zone_b_control_unit_software_node_zone_b_control_unit_hardware"><path d="M1229.3,243.35 C1229.68,274.85 1230.2498,322.1804 1230.6198,353.7904 " fill="none" id="node_zone_b_control_unit_software-to-node_zone_b_control_unit_hardware" style="stroke:#181818;stroke-width:1.5;"/><polygon fill="#181818" points="1230.69,359.79,1234.5844,350.7438,1230.6315,354.7903,1226.5849,350.8374,1230.69,359.79" style="stroke:#181818;stroke-width:1.5;"/><text fill="#000000" font-family="sans-serif" font-size="13" lengthAdjust="spacing" textLength="28.063" x="1238.2646" y="286.2569">host</text></g><!--link node_zone_b_control_unit_software to node_vehicle_control_unit_software--><g id="link_node_zone_b_control_unit_software_node_vehicle_control_unit_software"><path d="M1137.2,243.62 C1024.74,275.14 841.1074,326.601 728.6274,358.121 " fill="none" id="node_zone_b_control_unit_software-to-node_vehicle_control_unit_software" style="stroke:#181818;stroke-width:1.5;stroke-dasharray:7.0,7.0;"/><polygon fill="#181818" points="722.85,359.74,732.5955,361.1631,727.6645,358.3908,730.4368,353.4599,722.85,359.74" style="stroke:#181818;stroke-width:1.5;"/><text fill="#000000" font-family="sans-serif" font-size="13" lengthAdjust="spacing" textLength="23.0801" x="1027.2646" y="286.2569">vcu</text></g><!--link node_zone_b_control_unit_hardware to node_zone_b_ethernet--><g id="link_node_zone_b_control_unit_hardware_node_zone_b_ethernet"><path d="M1226.73,413.07 C1225.2,422.42 1223.48,433.07 1222,442.78 C1217.45,472.57 1213.4519,500.9166 1210.3019,523.6966 " fill="none" id="node_zone_b_control_unit_hardware-to-node_zone_b_ethernet" style="stroke:#181818;stroke-width:1.5;stroke-dasharray:7.0,7.0;"/><polygon fill="#181818" points="1209.48,529.64,1214.6751,521.2727,1210.1649,524.6871,1206.7505,520.1769,1209.48,529.64" style="stroke:#181818;stroke-width:1.5;"/><text fill="#000000" font-family="sans-serif" font-size="13" lengthAdjust="spacing" textLength="56.0117" x="1231.2646" y="455.8469">ethernet</text></g><!--link node_zone_b_control_unit_hardware to node_zone_b_can_bus--><g id="link_node_zone_b_control_unit_hardware_node_zone_b_can_bus"><path d="M1259.71,412.94 C1295.23,444.44 1350.8912,493.7987 1386.5312,525.4087 " fill="none" id="node_zone_b_control_unit_hardware-to-node_zone_b_can_bus" style="stroke:#181818;stroke-width:1.5;stroke-dasharray:7.0,7.0;"/><polygon fill="#181818" points="1391.02,529.39,1386.9409,520.4256,1387.2793,526.0723,1381.6326,526.4107,1391.02,529.39" style="stroke:#181818;stroke-width:1.5;"/><text fill="#000000" font-family="sans-serif" font-size="13" lengthAdjust="spacing" textLength="23.353" x="1317.2646" y="455.8469">can</text></g><!--link node_zone_b_actuator to node_zone_b_can_bus--><g id="link_node_zone_b_actuator_node_zone_b_can_bus"><path d="M1272.83,114.05 C1305.89,130.89 1344.02,156.21 1366,190.59 C1384.28,219.2 1408.7577,444.9513 1416.7977,523.3213 " fill="none" id="node_zone_b_actuator-to-node_zone_b_can_bus" style="stroke:#181818;stroke-width:1.5;stroke-dasharray:7.0,7.0;"/><polygon fill="#181818" points="1417.41,529.29,1420.4706,519.9288,1416.8997,524.3161,1412.5124,520.7452,1417.41,529.29" style="stroke:#181818;stroke-width:1.5;"/><text fill="#000000" font-family="sans-serif" font-size="13" lengthAdjust="spacing" textLength="23.353" x="1396.2646" y="286.2569">can</text></g><!--link node_zone_b_actuator to node_zone_b_control_unit_software--><g id="link_node_zone_b_actuator_node_zone_b_control_unit_software"><path d="M1213.8,113.81 C1217.11,136.07 1221.0167,162.2454 1224.3267,184.4854 " fill="none" id="node_zone_b_actuator-to-node_zone_b_control_unit_software" style="stroke:#181818;stroke-width:1.5;stroke-dasharray:7.0,7.0;"/><polygon fill="#181818" points="1225.21,190.42,1227.8415,180.9292,1224.474,185.4745,1219.9287,182.1069,1225.21,190.42" style="stroke:#181818;stroke-width:1.5;"/><text fill="#000000" font-family="sans-serif" font-size="13" lengthAdjust="spacing" textLength="22.2104" x="1229.2646" y="156.6569">zcu</text></g><!--link node_zone_b_sensor to node_zone_b_can_bus--><g id="link_node_zone_b_sensor_node_zone_b_can_bus"><path d="M1440.79,114.06 C1436.94,195.67 1425.3324,441.9066 1421.4924,523.4066 " fill="none" id="node_zone_b_sensor-to-node_zone_b_can_bus" style="stroke:#181818;stroke-width:1.5;stroke-dasharray:7.0,7.0;"/><polygon fill="#181818" points="1421.21,529.4,1425.6291,520.5982,1421.4453,524.4055,1417.638,520.2217,1421.21,529.4" style="stroke:#181818;stroke-width:1.5;"/><text fill="#000000" font-family="sans-serif" font-size="13" lengthAdjust="spacing" textLength="23.353" x="1442.2646" y="286.2569">can</text></g><!--link node_zone_b_sensor to node_zone_b_control_unit_software--><g id="link_node_zone_b_sensor_node_zone_b_control_unit_software"><path d="M1399.15,113.97 C1362.1,136.16 1313.9567,164.9959 1276.9267,187.1859 " fill="none" id="node_zone_b_sensor-to-node_zone_b_control_unit_software" style="stroke:#181818;stroke-width:1.5;stroke-dasharray:7.0,7.0;"/><polygon fill="#181818" points="1271.78,190.27,1281.5561,189.0749,1276.0689,187.6999,1277.4439,182.2127,1271.78,190.27" style="stroke:#181818;stroke-width:1.5;"/><text fill="#000000" font-family="sans-serif" font-size="13" lengthAdjust="spacing" textLength="22.2104" x="1357.2646" y="156.6569">zcu</text></g><!--SRC=[hPN1Zfim48RlF8MLlRI7HUgXbnvMIgDMFQrMejr3LGbvpB2W63koJRRTgkzU9q12OcCWuXXc_c_6CtzilIt5ZYfQaGnpMdFpLGhpI2ia2HKwGLNcaJxbC5djf41X4lE78r7831Kl77ifGDdsHSbQP1l9fI96MOuDML4lQwsKVFrUb6mhK6lo8VuOzQ9vQU5_eyzIPQWQ373BRRzSwlxrbQKmg7BARfIV3ZHPVXXNCmmXLKNvWHUTCIl6PPsjo1ql1SOPrGLcbdsTa6fK-vBXB_4EVzDgnp4MCaCTRmxHE6cYxrU4Qd88f1Sgjs2wKt9VscO7W4zjs25skiYUemTziqjFQUWOJKRAx3YKv6ajIfDgcPjNktcdYP-R7t7I1dijX1ZHMB62gcomsBSsE5AiO_YAeIbG2JIMRtlA65Kj_qiRSDcTnDix5IdKsg5jre-U9fja7uSoKrCZtKMlsu1BwoG-d4QXFR3a-Db5DUa-iy2eMM01iy1Kiy02Pe6fPe7vPe60MM2EMM3OB33VB10m2ymp2mJCma9csQEzS3bETCkptor1I3HQRj0lptw_127HyOrmht5oV__Wkul99x8Yf93QhABnmvmfmIPcGkFumVFmD93cYOicr3nHhYx8XjFzkW45OLJeOJdFA_GYEECA8a_DXOTwPEvP7K3UDhfPfFQ-Q7T9nIMZ-_yl9XkUnDlr99eBOsRb8T7akZ399p379x2yJs2n_yLKKcZiCBJmssKpzkLT-LZb8L6uxdy0]--></g></svg>